<svg id="Grupo_176399" data-name="Grupo 176399" xmlns="http://www.w3.org/2000/svg" xmlns:xlink="http://www.w3.org/1999/xlink" width="402.323" height="285.908" viewBox="0 0 402.323 285.908">
  <defs>
    <clipPath id="clip-path">
      <path id="Trazado_189400" data-name="Trazado 189400" d="M392.322,25.908h-380a10,10,0,0,0-10,10v240a10,10,0,0,0,10,10h380a10,10,0,0,0,10-10v-240a10,10,0,0,0-10-10" transform="translate(-2.323 -25.908)" fill="#a6bbff"/>
    </clipPath>
    <clipPath id="clip-path-2">
      <path id="Trazado_189232" data-name="Trazado 189232" d="M205.455,30.681s-3.617,18.374-17.3,8.556c0,0,1.79-11.167,9.793-11.168a14.361,14.361,0,0,1,7.509,2.612" transform="translate(-188.153 -28.069)" fill="none"/>
    </clipPath>
    <clipPath id="clip-path-3">
      <path id="Trazado_189234" data-name="Trazado 189234" d="M234.114,39.106c-9.12,12.813-16.982-4.528-16.982-4.528,2.669-3.291,5.125-4.5,7.292-4.5,5.93,0,9.69,9.024,9.69,9.024" transform="translate(-217.132 -30.082)" fill="none"/>
    </clipPath>
    <clipPath id="clip-path-4">
      <rect id="Rectángulo_47374" data-name="Rectángulo 47374" width="402.323" height="285.908" fill="none"/>
    </clipPath>
  </defs>
  <g id="Grupo_176387" data-name="Grupo 176387">
    <path id="Trazado_189401" data-name="Trazado 189401" d="M392.322,25.908h-380a10,10,0,0,0-10,10v240a10,10,0,0,0,10,10h380a10,10,0,0,0,10-10v-240a10,10,0,0,0-10-10" transform="translate(-1.999)" fill="#6b8dfc"/>
    <g id="Enmascarar_grupo_335" data-name="Enmascarar grupo 335" transform="translate(0.323 25.908)" clip-path="url(#clip-path)">
      <g id="Grupo_176397" data-name="Grupo 176397" transform="matrix(-0.995, -0.105, 0.105, -0.995, 482.205, 582.057)">
        <g id="Grupo_176396" data-name="Grupo 176396" transform="translate(0)">
          <g id="Grupo_176395" data-name="Grupo 176395">
            <path id="Trazado_189395" data-name="Trazado 189395" d="M524.627,264.252c-39.52-39.759-80.242-78.175-121.687-115.967,18.936,39.074,39.2,77.613,57.278,117.051,20.5,44.718,44.715,105.509,23.421,150.527-48.541,102.614-187.747-6.307-239.646-61.333-5.534-5.858-10.828-11.959-16.19-18,19.6,43.445,37.5,87.987,35.365,133.9-2.945,63.124-61.283,75.726-113.413,44.04C93.768,480.435,47.5,423.792,8.675,372.49c-32.971-43.572,36.352-80.612,69.052-37.653a629.152,629.152,0,0,0,58.253,66.247q-4.772-8.157-9.628-16.294c-21.447-35.839-42.656-71.805-60.5-109.313C31.666,203.644-18.57,104.084,17.131,31.687,35.126-4.795,81.065-6.555,116.475,10.175c47.59,22.487,81.938,69.012,114.814,108.554,34.317,41.287,64.86,84.868,96.838,127.78,13.368,17.932,26.731,36.11,41.849,52.731.346.378.714.733,1.061,1.119l-.412-1.144c-9.094-24.83-20.436-48.772-31.9-72.781-21.341-44.663-48.388-91.883-57.62-139.876-8.168-42.432,7.06-88.913,58.7-83.582,48.538,5.009,89.4,52.631,123.138,84.717C503.81,126.555,544,166.128,584.2,205.655,626.172,246.917,566.133,306,524.627,264.252Z" transform="translate(7.938 7.805)" fill="#3c3fa7"/>
            <path id="Trazado_189396" data-name="Trazado 189396" d="M342.776,2.721c-19-.838-34.828,5.01-46,17.071-15.526,16.765-21.3,44.934-15.446,75.357,7.62,39.647,26.765,78.152,45.282,115.388,4.426,8.916,8.816,17.739,12.99,26.466,3.95,8.279,8.108,16.975,12.247,25.964-2.432-3.238-4.841-6.475-7.225-9.68l-2.367-3.173c-8.309-11.147-16.518-22.343-24.727-33.523-23.026-31.4-46.844-63.878-72.41-94.624q-5.6-6.748-11.283-13.715C204.5,72.437,171.248,31.836,127.283,11.059,88.081-7.442,37.952-4.949,17.948,35.631c-35.954,72.888,10.778,170.79,44.9,242.28l3.881,8.121c10.04,21.116,21.165,41.787,32.9,62.392q-3.972-5-7.829-10.054c-20.208-26.562-53.578-27.648-74.173-13.35C.591,336.846-8.233,359.836,10.467,384.55,51.9,439.314,97.976,494.691,154,528.755c31.105,18.892,64.4,23.206,89.115,11.534,21.754-10.276,34.475-31.938,35.835-61.018,1.589-34.105-7.391-67.219-19.685-98.961,42.046,40.533,119.038,98.794,178.461,93.1,27.3-2.628,47.831-18.1,61.018-45.981,21.687-45.849.3-105.058-23.481-156.938-11.32-24.689-23.659-49.376-35.593-73.244l-4.224-8.445c33.73,31.322,63.954,60.453,91.744,88.406h0c13.74,13.83,30.659,19.427,47.6,15.8,18.6-3.992,33.974-18.99,38.251-37.339,3.938-16.829-1.6-33.675-15.606-47.44l-4.572-4.5C554.8,166.31,515.448,127.615,476.079,90.176c-4.852-4.617-9.843-9.549-15-14.634-30.61-30.228-68.711-67.858-113.212-72.45C346.145,2.916,344.456,2.8,342.776,2.721Zm36.49,312.835a7.045,7.045,0,0,0,3.754-.837,6.9,6.9,0,0,0,3.319-8.606l-.419-1.144c-9.532-26.029-21.573-51.251-32.2-73.5-4.209-8.807-8.643-17.716-13.111-26.711-18.018-36.235-36.647-73.7-43.856-111.169-4.892-25.446-.276-49.525,12.051-62.838,9.13-9.861,22.177-13.943,38.8-12.284,38.528,3.982,72.7,37.721,102.847,67.5,5.229,5.166,10.31,10.178,15.235,14.86,39.263,37.334,78.569,75.98,116.581,113.359l4.564,4.5c12.381,12.167,12.75,24.266,10.877,32.28-3.043,13.021-14.367,24.1-27.549,26.915-8.022,1.728-20.115,1.21-32.223-10.975h0c-35.9-36.106-75.807-74.139-122.006-116.274a8.069,8.069,0,0,0-9.907-1.023,7.228,7.228,0,0,0-2.184,9.288c7.155,14.774,14.5,29.464,21.843,44.161,11.873,23.742,24.143,48.3,35.35,72.732,22.277,48.59,42.48,103.714,23.361,144.124-11.119,23.5-27.331,35.962-49.559,38.1-55.4,5.306-136.454-57.274-177.383-100.665-4.359-4.626-8.576-9.408-12.8-14.182l-3.2-3.627a8.2,8.2,0,0,0-10.107-1.98,7.19,7.19,0,0,0-2.744,9.371c18.679,41.376,36.738,85.532,34.654,130.265-1.119,23.978-10.777,40.933-27.928,49.036-20.013,9.442-47.65,5.532-73.957-10.449-53.491-32.51-98.225-86.378-138.606-139.746C10,359.176,16.8,345.295,27.412,337.928c14.373-9.977,37.517-10.2,52.115,8.984a639.057,639.057,0,0,0,59.078,67.178,8.081,8.081,0,0,0,10.283,1.194,7.313,7.313,0,0,0,1.754-9.793q-4.8-8.2-9.678-16.366c-21.717-36.29-42.653-71.905-60.119-108.6l-3.882-8.144C44.227,203.8-.6,109.864,32.2,43.361,48.131,11.045,89.206,9.634,121.543,24.9c40.355,19.061,70.89,56.349,100.414,92.4q5.73,7,11.366,13.811c25.226,30.338,48.877,62.588,71.761,93.778q12.339,16.83,24.794,33.634l2.366,3.166c12.543,16.847,25.512,34.267,40.028,50.222l.74.781A9.46,9.46,0,0,0,379.266,315.556Zm153.3-43.5.078,0Z"/>
          </g>
          <path id="Trazado_189397" data-name="Trazado 189397" d="M38.011,191.428C6.526,132.946-12.788,65.17,9.855,4.8,13.207-4.124,28.572.517,25.178,9.575,3.914,66.261,21.6,129.223,51.216,184.23,56.095,193.3,42.915,200.543,38.011,191.428Z" transform="translate(33.776 52.833)"/>
          <path id="Trazado_189398" data-name="Trazado 189398" d="M22.6,15.16c-.133.009-.256.043-.381.06-.2.415-.385.854-.45.975l-.029.045c-.013.061.009.023-.011.115-.858,3.4-1.431,6.869-2.035,10.343q-2.124,12.109-4.233,24.219c-.686,3.918-5.487,6.374-9.42,4.967a8.678,8.678,0,0,1-5.9-9.745L4.922,18.753C6.258,11.147,8.483,1.2,17.754.072c4-.479,8.7,1.424,9.9,5.826C28.68,9.668,26.889,14.64,22.6,15.16Z" transform="translate(65.719 67.072)"/>
          <path id="Trazado_189399" data-name="Trazado 189399" d="M30.963,185.618c-8.7,4.289-17.238-9.4-8.517-13.693,12.032-5.931,15.193-18.947,15.107-31.867C37.46,125.38,35.1,110.186,32.029,95.6A315.363,315.363,0,0,0,1.068,11.4c-4.887-9.075,8.3-16.313,13.2-7.2a330.86,330.86,0,0,1,34.847,99.09C54.065,131.31,60.269,171.18,30.963,185.618Z" transform="translate(417.662 241.447)"/>
        </g>
      </g>
    </g>
    <g id="Grupo_176380" data-name="Grupo 176380" transform="translate(18.365 3.076)">
      <g id="Grupo_176398" data-name="Grupo 176398">
        <rect id="Rectángulo_47378" data-name="Rectángulo 47378" width="20.959" height="86.907" transform="translate(0 100.407)" fill="#5774cd"/>
        <rect id="Rectángulo_47379" data-name="Rectángulo 47379" width="13.987" height="76.583" transform="translate(20.642 110.731)" fill="#fea41a"/>
        <rect id="Rectángulo_47380" data-name="Rectángulo 47380" width="25.532" height="121.973" transform="translate(34.629 65.34)" fill="#d7e5ff"/>
        <path id="Trazado_189204" data-name="Trazado 189204" d="M366.716,180.851h14.17a.693.693,0,0,0,0-1.365h-14.17a.693.693,0,0,0,0,1.365" transform="translate(-363.321 -3.076)" fill="#fff"/>
        <path id="Trazado_189205" data-name="Trazado 189205" d="M366.716,176.217h14.17a.693.693,0,0,0,0-1.365h-14.17a.693.693,0,0,0,0,1.365" transform="translate(-363.321 -3.076)" fill="#fff"/>
        <path id="Trazado_189206" data-name="Trazado 189206" d="M352.1,184.969h9.088a.693.693,0,0,0,0-1.365H352.1a.693.693,0,0,0,0,1.365" transform="translate(-329.009 -3.076)" fill="#fff"/>
        <path id="Trazado_189207" data-name="Trazado 189207" d="M352.1,180.336h9.088a.693.693,0,0,0,0-1.365H352.1a.693.693,0,0,0,0,1.365" transform="translate(-329.009 -3.076)" fill="#fff"/>
        <path id="Trazado_189208" data-name="Trazado 189208" d="M329.428,184.969h16.479a.693.693,0,0,0,0-1.365H329.428a.693.693,0,0,0,0,1.365" transform="translate(-291.054 -3.076)" fill="#fff"/>
        <path id="Trazado_189209" data-name="Trazado 189209" d="M329.428,180.336h16.479a.693.693,0,0,0,0-1.365H329.428a.693.693,0,0,0,0,1.365" transform="translate(-291.054 -3.076)" fill="#fff"/>
        <path id="Trazado_189210" data-name="Trazado 189210" d="M329.428,176.217h16.479a.693.693,0,0,0,0-1.365H329.428a.693.693,0,0,0,0,1.365" transform="translate(-291.054 -3.076)" fill="#fff"/>
        <path id="Trazado_189211" data-name="Trazado 189211" d="M329.428,171.585h16.479a.693.693,0,0,0,0-1.365H329.428a.693.693,0,0,0,0,1.365" transform="translate(-291.054 -3.076)" fill="#fff"/>
        <path id="Trazado_189212" data-name="Trazado 189212" d="M111.755,241.829l139.877,13.4v-13.4Z" transform="translate(20.894 -3.076)"/>
        <path id="Trazado_189213" data-name="Trazado 189213" d="M136.075,261.13H123.741l-.045,6.726,12.379,2.083Z" transform="translate(124.511 -3.076)"/>
        <path id="Trazado_189214" data-name="Trazado 189214" d="M111.755,262.04H251.632a.909.909,0,0,0,.909-.91v-19.3a.909.909,0,0,0-.909-.91H111.755a.909.909,0,0,0-.91.91v19.3a.909.909,0,0,0,.91.91m138.967-1.82H112.665V242.738H250.722Z" transform="translate(20.895 -3.076)"/>
        <path id="Trazado_189215" data-name="Trazado 189215" d="M135.119,285.177V262.04H124.606v23.137h-1.82V261.13a.909.909,0,0,1,.91-.91h12.333a.91.91,0,0,1,.91.91v24.047Z" transform="translate(124.556 -3.076)"/>
        <path id="Trazado_189216" data-name="Trazado 189216" d="M237.467,285.177V250.611H226.952v34.566h-1.82V249.7a.909.909,0,0,1,.91-.909h12.335a.908.908,0,0,1,.909.909v35.476Z" transform="translate(-80.137 -3.076)"/>
        <path id="Trazado_189217" data-name="Trazado 189217" d="M177.255,73.034l-1.767-21.746,21.746-1.766L199,71.267l25.442-.411L208.359,95.9l-21.624,37.179L161.223,77.115Z" transform="translate(-1.385 -3.076)" fill="#c46c3f"/>
        <path id="Trazado_189218" data-name="Trazado 189218" d="M190.593,51.052l-2.849.978,1.063,13.089c9.4,3.447,17.171-2.665,21.31-7.133l-.674-8.288-.153-.165Z" transform="translate(-13.58 -3.076)"/>
        <path id="Trazado_189219" data-name="Trazado 189219" d="M168.542,24.2s10.44-5.47,13.667,2.514-8.169,15.608-14.549,9.571.882-12.085.882-12.085" transform="translate(36.472 -3.076)" fill="#c46c3f"/>
        <path id="Trazado_189220" data-name="Trazado 189220" d="M171.3,33.438a.833.833,0,0,1-.63-1.445l6.94-6.363a.833.833,0,1,1,1.125,1.228l-6.94,6.363a.824.824,0,0,1-.495.217" transform="translate(34.88 -3.076)"/>
        <path id="Trazado_189221" data-name="Trazado 189221" d="M175.531,35.081a.83.83,0,0,1-.728-.323l-2.7-3.518a.833.833,0,1,1,1.322-1.015l2.7,3.518a.833.833,0,0,1-.593,1.338" transform="translate(36.055 -3.076)"/>
        <path id="Trazado_189222" data-name="Trazado 189222" d="M237.575,31.994s-10.182-.971-10.178,6.477,11.657,9.832,14.824,2.914-4.646-9.391-4.646-9.391" transform="translate(-86.093 -3.076)" fill="#c46c3f"/>
        <path id="Trazado_189223" data-name="Trazado 189223" d="M238.668,39.913a.819.819,0,0,1-.357-.049l-7.656-2.829a.834.834,0,0,1,.579-1.564l7.656,2.83a.833.833,0,0,1-.222,1.612" transform="translate(-85.264 -3.076)"/>
        <path id="Trazado_189224" data-name="Trazado 189224" d="M233.8,43a.834.834,0,0,1-.871-1.053l1.029-3.7a.834.834,0,0,1,1.607.446l-1.029,3.7A.835.835,0,0,1,233.8,43" transform="translate(-84.209 -3.076)"/>
        <path id="Trazado_189225" data-name="Trazado 189225" d="M178.209,40.618a29.127,29.127,0,1,1,36.2,20.02,29.253,29.253,0,0,1-36.2-20.02" transform="translate(-28.046 -3.076)" fill="#c46c3f"/>
        <path id="Trazado_189226" data-name="Trazado 189226" d="M188.153,39.237s2.831-17.672,17.3-8.556c0,0-3.617,18.374-17.3,8.556" transform="translate(-9.326 -3.076)" fill="#fff"/>
        <path id="Trazado_189227" data-name="Trazado 189227" d="M234.114,39.106s-7.009-16.825-16.982-4.528c0,0,7.862,17.34,16.982,4.528" transform="translate(-66.965 -3.076)" fill="#fff"/>
        <path id="Trazado_189228" data-name="Trazado 189228" d="M195.942,25.449a.624.624,0,0,1-.4-1.142,12.313,12.313,0,0,1,10.35-1.092.625.625,0,0,1-.414,1.18,11.228,11.228,0,0,0-9.244.953.628.628,0,0,1-.294.1" transform="translate(-17.296 -3.076)"/>
        <path id="Trazado_189229" data-name="Trazado 189229" d="M222.157,26.409a.625.625,0,0,1-.495-1.063c3.747-3.786,10.421-2.047,10.7-1.971a.625.625,0,0,1-.324,1.207c-.061-.015-6.253-1.623-9.49,1.644a.622.622,0,0,1-.393.183" transform="translate(-70.027 -3.076)"/>
        <path id="Trazado_189230" data-name="Trazado 189230" d="M209.871,44.388a.833.833,0,0,1-.866-1.068l1.591-5.358a.833.833,0,0,1,1.47-.257l3.278,4.454a.833.833,0,0,1-1.343.987l-2.285-3.1L210.6,43.8a.833.833,0,0,1-.731.593" transform="translate(-40.195 -3.076)"/>
      </g>
    </g>
    <g id="Grupo_176382" data-name="Grupo 176382" transform="translate(196.868 28.069)">
      <g id="Grupo_176381" data-name="Grupo 176381" transform="translate(0)" clip-path="url(#clip-path-2)">
        <path id="Trazado_189231" data-name="Trazado 189231" d="M191.227,37.011a7.138,7.138,0,1,0,6.537-7.693,7.139,7.139,0,0,0-6.537,7.693" transform="translate(-191.228 -28.069)"/>
      </g>
    </g>
    <g id="Grupo_176384" data-name="Grupo 176384" transform="translate(168.209 30.082)">
      <g id="Grupo_176383" data-name="Grupo 176383" transform="translate(0)" clip-path="url(#clip-path-3)">
        <path id="Trazado_189233" data-name="Trazado 189233" d="M218.681,39.088c.332,4.086,3.648,7.151,7.406,6.845s6.537-3.865,6.2-7.951-3.648-7.151-7.406-6.845-6.536,3.865-6.2,7.951" transform="translate(-216.858 -30.082)"/>
      </g>
    </g>
    <g id="Grupo_176386" data-name="Grupo 176386">
      <g id="Grupo_176385" data-name="Grupo 176385" clip-path="url(#clip-path-4)">
        <path id="Trazado_189235" data-name="Trazado 189235" d="M205.8,52.358a12.631,12.631,0,0,1-1.33.048.625.625,0,0,1,.042-1.25,17.293,17.293,0,0,0,9.147-2.746.625.625,0,1,1,.7,1.038,18.316,18.316,0,0,1-8.555,2.91" transform="translate(-16.168 0)"/>
        <path id="Trazado_189236" data-name="Trazado 189236" d="M242.422,28.681s-12.695,3.408-17.911-15.156c0,0-12.7,11.189-21.867,4.433,0,0-9.709,8.162-11.256-.172,0,0-8.18,11.762-9.17,7.665s2.371-7.362,2.371-7.362-7.424,3.512-7.779-.539c-.475-5.42,12.249-7.893,17.343-11.587s26.239-12,40.279,1.324c11.693,11.093,7.99,21.394,7.99,21.394" transform="translate(-17.453 0)" fill="#ffb6c8"/>
        <path id="Trazado_189237" data-name="Trazado 189237" d="M230.423,243.737l-13.79-.2-28.882,41.637H124.82l51.152-84.067,86.747-5.85,23.152,13.464-11.377,41.609Z" transform="translate(-8.368 0)" fill="#5774cd"/>
        <path id="Trazado_189238" data-name="Trazado 189238" d="M166.963,70.279,200.917,72.8c12.77,1.447,24.019,2.24,32.094,13.092,5.619,7.552,41.645,58.1,58.4,86.2a17.187,17.187,0,0,1-28.72,18.83L215.98,136.839l-.88,68.344-113.113-3.846L99.4,143.716l-19.52,60.168a16.183,16.183,0,0,1-16.631,11.732,15.939,15.939,0,0,1-15.014-18.5L65.5,109.326a33.153,33.153,0,0,1,22.654-25.7l37.811-8.77,20.015,14.017Z" transform="translate(60.495 0)" fill="#fea41a"/>
        <path id="Trazado_189239" data-name="Trazado 189239" d="M194.3,202.91a.23.23,0,0,0,.037,0,.678.678,0,0,0,.643-.718L189.339,98.052a.692.692,0,0,0-.717-.643.68.68,0,0,0-.644.718l5.644,104.138a.681.681,0,0,0,.68.645" transform="translate(19.363 0)"/>
        <path id="Trazado_189240" data-name="Trazado 189240" d="M258.049,132.605a.694.694,0,0,0,.217-.035.682.682,0,0,0,.43-.864L245.141,91.1a.675.675,0,0,0-.864-.43.683.683,0,0,0-.43.864l13.555,40.6a.682.682,0,0,0,.647.465" transform="translate(-100.22 0)"/>
        <path id="Trazado_189241" data-name="Trazado 189241" d="M122.246,117.654a.683.683,0,0,0,.672-.565l5.755-33.233a.682.682,0,0,0-.555-.789.664.664,0,0,0-.789.554l-5.755,33.233a.682.682,0,0,0,.555.789.7.7,0,0,0,.117.011" transform="translate(152.076 0)"/>
        <path id="Trazado_189242" data-name="Trazado 189242" d="M160.059,285.177H111.646l17.042-63.005c3.18-11.129,14.5-15.7,24.5-15.793a32.107,32.107,0,0,1,6.185,1.031c13.229,2.925,21.19,16.093,16.835,28.651Z" transform="translate(113.276 0)" fill="#5774cd"/>
        <path id="Trazado_189243" data-name="Trazado 189243" d="M158.708,246.95a.913.913,0,0,0,.871-.645l8.516-27.912a.91.91,0,0,0-1.742-.529l-8.516,27.911a.913.913,0,0,0,.606,1.136.934.934,0,0,0,.265.039" transform="translate(76.391 0)"/>
        <path id="Trazado_189244" data-name="Trazado 189244" d="M171.19,175.541s-8.249-1.165-13.358,1.21a72.618,72.618,0,0,0-10.916,6.958,1.425,1.425,0,0,0-.294,2.054,2.941,2.941,0,0,0,3.4.819l9.663-5.123,23.65.644,6.853-5.928Z" transform="translate(65.825 0)" fill="#c46c3f"/>
        <path id="Trazado_189245" data-name="Trazado 189245" d="M178.926,178.379s-8.249-1.165-13.358,1.211a71.567,71.567,0,0,0-10.724,6.814,1.646,1.646,0,0,0-.342,2.377,2.623,2.623,0,0,0,3.033.732l8.152-3.378,20.164-5.488Z" transform="translate(62.332 0)" fill="#c46c3f"/>
        <path id="Trazado_189246" data-name="Trazado 189246" d="M176.694,172.353a52.453,52.453,0,0,0-17.639.759c-4.777,1.117-9.534,4.326-11.929,6.126a1.927,1.927,0,0,0-.394,2.776,2.287,2.287,0,0,0,2.643.638l8.39-3.476,31.767-3s-7.517-3.106-12.838-3.822" transform="translate(66.482 0)" fill="#c46c3f"/>
        <path id="Trazado_189247" data-name="Trazado 189247" d="M156.285,174.186s-17.746,2.6-25.956,11.637a1.9,1.9,0,0,0,.434,2.939,3.406,3.406,0,0,0,3.1-.175c2.373-1.356,4.084-2.643,12.352-2.2,3.616.195,10.34,2.228,14.487,2.808,8.6,1.2,17.541-13.394,17.541-13.394Z" transform="translate(94.265 0)" fill="#c46c3f"/>
        <path id="Trazado_189248" data-name="Trazado 189248" d="M165.323,189.871c2.049,0,4.264-.4,5.578-1.833a37.218,37.218,0,0,0,3.888-4.868.7.7,0,0,0-1.18-.736,36.659,36.659,0,0,1-3.732,4.664c-1.918,2.093-7.108,1.316-8.951.838-10.948-4.071-23.508-.179-24.036-.012a.695.695,0,1,0,.42,1.325c.125-.038,12.634-3.913,23.2.012a20.87,20.87,0,0,0,4.812.61" transform="translate(91.026 0)"/>
        <path id="Trazado_189249" data-name="Trazado 189249" d="M160.118,186.518a.7.7,0,0,0,.584-.318c.039-.057,2.145-3.045,10.647-4.83a18.321,18.321,0,0,1,6.261-.387.695.695,0,0,0,.246-1.368,19.309,19.309,0,0,0-6.792.395c-9.224,1.935-11.443,5.3-11.534,5.441a.695.695,0,0,0,.588,1.067" transform="translate(64.476 0)"/>
        <path id="Trazado_189250" data-name="Trazado 189250" d="M163.074,186.349a.691.691,0,0,0,.448-.164A41.831,41.831,0,0,1,178,178.841a34.443,34.443,0,0,1,6.75-1.155.7.7,0,1,0-.057-1.39,35.519,35.519,0,0,0-7.051,1.2,42.4,42.4,0,0,0-15.017,7.626.695.695,0,0,0,.448,1.226" transform="translate(54.525 0)"/>
        <path id="Trazado_189251" data-name="Trazado 189251" d="M166.505,183.132a.691.691,0,0,0,.448-.164,41.831,41.831,0,0,1,14.479-7.344,34.617,34.617,0,0,1,6.75-1.154.694.694,0,0,0,.665-.723.7.7,0,0,0-.722-.667,35.558,35.558,0,0,0-7.051,1.2,42.4,42.4,0,0,0-15.017,7.626.695.695,0,0,0,.448,1.226" transform="translate(47.665 0)"/>
        <path id="Trazado_189252" data-name="Trazado 189252" d="M223.293,285.177H221.13l54.161-84.009a.909.909,0,1,1,1.528.985Z" transform="translate(-95.772 0)"/>
        <path id="Trazado_189253" data-name="Trazado 189253" d="M122.029,285.177c11.409-32.214,22.6-69.674,16.4-75.807a.91.91,0,1,1,1.279-1.294c7.122,7.05-4.809,46.259-15.739,77.1Z" transform="translate(138.433 0)"/>
        <path id="Trazado_189254" data-name="Trazado 189254" d="M262.861,152.863l1.747,50.6L292.9,208.29l2.677-60.606Z" transform="translate(-156.116 0)"/>
        <path id="Trazado_189255" data-name="Trazado 189255" d="M71.517,168.114h74.955l2.32,29.243H68.84Z" transform="translate(184.69 0)" fill="#fea41a"/>
        <path id="Trazado_189256" data-name="Trazado 189256" d="M290.894,193.534a.47.47,0,0,0,.053,0,.682.682,0,0,0,.627-.734L288.3,150.457a.68.68,0,0,0-.744-.625L262.8,152.184a.682.682,0,0,0,.128,1.358L287,151.255l3.218,41.65a.682.682,0,0,0,.68.629" transform="translate(-151.431 0)" fill="#fff"/>
        <path id="Trazado_189257" data-name="Trazado 189257" d="M99.188,168.8a.683.683,0,0,0,.011-1.365l-28.028-.406a.65.65,0,0,0-.693.671.683.683,0,0,0,.672.693l28.027.407Z" transform="translate(231.975 0)"/>
        <path id="Trazado_189258" data-name="Trazado 189258" d="M75.734,165.956A.7.7,0,0,0,76,165.9l12.716-5.466a.683.683,0,1,0-.54-1.254l-12.716,5.466a.682.682,0,0,0,.27,1.309" transform="translate(238.14 0)"/>
        <path id="Trazado_189259" data-name="Trazado 189259" d="M126.249,195.943a.68.68,0,0,0,.68-.636l1.813-26.51H147.97a.682.682,0,1,0,0-1.365H128.1a.683.683,0,0,0-.681.637l-1.854,27.145a.68.68,0,0,0,.634.727.37.37,0,0,0,.046,0" transform="translate(128.103 0)"/>
        <path id="Trazado_189260" data-name="Trazado 189260" d="M230.982,184.9,214.245,97.832l66.087-5.37,16.737,87.065Z" transform="translate(-108.991 0)" fill="#fff"/>
        <path id="Trazado_189261" data-name="Trazado 189261" d="M230.983,185.579a.515.515,0,0,0,.055,0l66.086-5.369a.684.684,0,0,0,.615-.809L281,92.335a.7.7,0,0,0-.725-.553L214.19,97.151a.685.685,0,0,0-.615.809l16.738,87.065a.68.68,0,0,0,.67.554m65.272-6.67-64.718,5.257L215.059,98.45l64.718-5.257Z" transform="translate(-108.991 0)"/>
        <path id="Trazado_189262" data-name="Trazado 189262" d="M234.467,189.179,217.73,102.114l66.087-5.37,16.737,87.065Z" transform="translate(-115.961 0)" fill="#fff"/>
        <path id="Trazado_189263" data-name="Trazado 189263" d="M234.467,189.861a.506.506,0,0,0,.055,0l66.088-5.369a.684.684,0,0,0,.615-.809L284.487,96.617a.672.672,0,0,0-.725-.553l-66.088,5.369a.683.683,0,0,0-.488.269.674.674,0,0,0-.127.54L233.8,189.307a.681.681,0,0,0,.67.554m65.274-6.67-64.72,5.257-16.478-85.716,64.72-5.257Z" transform="translate(-115.961 0)"/>
        <path id="Trazado_189264" data-name="Trazado 189264" d="M236.267,188.979l-15.248-79.321a3.918,3.918,0,0,1,3.532-4.646l58.226-4.732a3.921,3.921,0,0,1,4.167,3.167l15.248,79.321a3.92,3.92,0,0,1-3.532,4.647l-58.226,4.731a3.92,3.92,0,0,1-4.167-3.167" transform="translate(-120.888 0)" fill="#5774cd"/>
        <path id="Trazado_189265" data-name="Trazado 189265" d="M232.355,154.826l66.244-5.492-5.241-26.477-66.063,5.5Z" transform="translate(-123.571 0)" fill="#ffb6c8"/>
        <path id="Trazado_189266" data-name="Trazado 189266" d="M298.542,143.053l-10.995,2.867a3.105,3.105,0,0,0-1.857,4.415,4.122,4.122,0,0,0,4.881,2.531l10.636-3.691a2.8,2.8,0,0,0,1.336-4.053,3.654,3.654,0,0,0-4-2.069" transform="translate(-185.974 0)" fill="#c46c3f"/>
        <path id="Trazado_189267" data-name="Trazado 189267" d="M299.486,155.375,286.677,159.6a3.732,3.732,0,0,1-4.06-1.6l-.2-.286c-1.332-1.9-.773-4.278,1.145-4.859l13.009-3.939a3.838,3.838,0,0,1,4.294,2.117c.931,1.811.3,3.791-1.378,4.346" transform="translate(-180.66 0)" fill="#c46c3f"/>
        <path id="Trazado_189268" data-name="Trazado 189268" d="M296.316,157.892h0a3.293,3.293,0,0,0-3.671-1.68l-8.671,2.473a2.627,2.627,0,0,0-1.736,3.347l.208.751a3.312,3.312,0,0,0,4.179,2.327l8.464-3.224a2.732,2.732,0,0,0,1.227-3.994" transform="translate(-176.524 0)" fill="#c46c3f"/>
        <path id="Trazado_189269" data-name="Trazado 189269" d="M292.846,163.577h0a2.821,2.821,0,0,0-2.934-1.163l-7.1,2.188a2.028,2.028,0,0,0-.995,2.974l.382.815a2.872,2.872,0,0,0,3.494,1.66l6.714-3c1.209-.54,1.414-2.176.436-3.47" transform="translate(-172.69 0)" fill="#c46c3f"/>
        <path id="Trazado_189270" data-name="Trazado 189270" d="M300,149.413a.337.337,0,0,0,.206-.439.4.4,0,0,0-.5-.206l-11.318,3.771a4.772,4.772,0,0,1-1.907.191.386.386,0,0,0-.457.269.35.35,0,0,0,.3.413,5.535,5.535,0,0,0,2.339-.222l11.313-3.769.022-.008" transform="translate(-183.931 0)"/>
        <path id="Trazado_189271" data-name="Trazado 189271" d="M296.484,156.575a.337.337,0,0,0,.2-.445.4.4,0,0,0-.5-.2l-6.71,2.364c-.495.173-3.241.985-3.962,1.141a.35.35,0,0,0-.286.42.39.39,0,0,0,.466.257c.765-.165,3.542-.987,4.062-1.169l6.711-2.364.016-.006" transform="translate(-179.61 0)"/>
        <path id="Trazado_189272" data-name="Trazado 189272" d="M293.406,162.828a.336.336,0,0,0,.2-.449.4.4,0,0,0-.5-.192c-.089.032-2.183.795-2.815,1.055-.665.275-4.747,1.749-5.458,1.9a.348.348,0,0,0-.286.419.391.391,0,0,0,.466.258c.787-.171,4.964-1.684,5.6-1.946.614-.255,2.761-1.036,2.783-1.044l.011,0" transform="translate(-175.849 0)"/>
        <path id="Trazado_189273" data-name="Trazado 189273" d="M43.393,161.53H34.04A9.13,9.13,0,0,0,26,166.287a7.221,7.221,0,0,1,.754-.04H40.7a4.774,4.774,0,0,1,4.809,4.738v5.146A5.469,5.469,0,0,1,40,181.56H26.751a7.221,7.221,0,0,1-.754-.04,9.13,9.13,0,0,0,8.043,4.757h9.353a7.629,7.629,0,0,0,7.455-7.345V168.875c0-4.057-4.273-7.345-7.455-7.345" transform="translate(325.478 0)" fill="#fc5f65"/>
        <path id="Trazado_189274" data-name="Trazado 189274" d="M56.19,167.882a11.692,11.692,0,0,1,1.074-4.929c-3.606.434-6.416,3.937-6.416,8.2v1.381c0,4.259,2.81,7.763,6.416,8.2A11.685,11.685,0,0,1,56.19,175.8Z" transform="translate(294.211 0)" fill="#fd521b"/>
        <path id="Trazado_189275" data-name="Trazado 189275" d="M40.555,190.362H62.68a2.448,2.448,0,0,0,2.449-2.449v-30.9a2.448,2.448,0,0,0-2.449-2.449H40.555a2.449,2.449,0,0,0-2.449,2.449v30.9a2.449,2.449,0,0,0,2.449,2.449" transform="translate(299.088 0)" fill="#fc5f65"/>
        <rect id="Rectángulo_47371" data-name="Rectángulo 47371" width="393.468" height="13.855" transform="translate(8.422 190.062)" fill="#fff"/>
        <path id="Trazado_189276" data-name="Trazado 189276" d="M.433,204.6H393.9c.239,0,.433-.306.433-.683V190.062c0-.377-.194-.683-.433-.683H.433c-.239,0-.433.306-.433.683v13.855c0,.377.194.683.433.683m393.035-1.365H.865V190.744h392.6Z" transform="translate(7.99 0)"/>
        <rect id="Rectángulo_47372" data-name="Rectángulo 47372" width="12.846" height="81.26" transform="translate(50.066 203.917)" fill="#fff"/>
        <path id="Trazado_189277" data-name="Trazado 189277" d="M351.823,285.177V204.6h-11.98v80.578h-.865v-81.26c0-.377.194-.682.432-.682h12.847c.238,0,.432.3.432.682v81.26Z" transform="translate(-289.344 0)"/>
        <path id="Trazado_189278" data-name="Trazado 189278" d="M352.257,208.854l-12.846,11.1V203.917h12.846Z" transform="translate(-289.346 0)"/>
        <rect id="Rectángulo_47373" data-name="Rectángulo 47373" width="12.845" height="81.26" transform="translate(361.023 203.917)" fill="#fff"/>
        <path id="Trazado_189279" data-name="Trazado 189279" d="M40.867,285.177V204.6H28.887v80.578h-.865v-81.26c0-.377.193-.682.432-.682H41.3c.239,0,.432.3.432.682v81.26Z" transform="translate(332.569 0)"/>
        <path id="Trazado_189280" data-name="Trazado 189280" d="M41.3,208.854l-12.845,11.1V203.917H41.3Z" transform="translate(332.569 0)"/>
      </g>
    </g>
  </g>
</svg>
