<svg xmlns="http://www.w3.org/2000/svg" xmlns:xlink="http://www.w3.org/1999/xlink" width="86" height="86" viewBox="0 0 86 86">
  <defs>
    <clipPath id="clip-path">
      <rect id="Rectángulo_338938" data-name="Rectángulo 338938" width="56.993" height="58.961" fill="none"/>
    </clipPath>
  </defs>
  <g id="Grupo_984047" data-name="Grupo 984047" transform="translate(-810 -2028)">
    <circle id="Elipse_4893" data-name="Elipse 4893" cx="43" cy="43" r="43" transform="translate(810 2028)" fill="#3c3fa7"/>
    <g id="Grupo_984046" data-name="Grupo 984046" transform="translate(825 2042)">
      <g id="Grupo_984045" data-name="Grupo 984045" clip-path="url(#clip-path)">
        <path id="Trazado_212007" data-name="Trazado 212007" d="M42.908,58.951c-5.791,0-11.583-.017-17.374.008-2.276.01-2.331-.065-2.29-2.325a11.143,11.143,0,0,1,.234-2.313,8.566,8.566,0,0,1,2.21-4.1c.837-.869,1.686-1.73,2.56-2.562a8.646,8.646,0,0,1,6.1-2.463c1.371-.011,2.743-.023,4.113.01.445.011.55-.125.523-.544a6.554,6.554,0,0,0-.053-1.764c-.2-.541-.963-.57-1.454-.871a8.763,8.763,0,0,1-4.262-6.208c-.065-.369-.181-.475-.536-.458a4.155,4.155,0,0,1-1.34-.1,2.943,2.943,0,0,1-2.183-2.723c-.022-.654-.011-1.31-.006-1.965a2.948,2.948,0,0,1,3.042-3.068c.887-.01.887-.01.887-.895,0-1-.01-2.006.006-3.008a.59.59,0,0,0-.346-.621,4.775,4.775,0,0,1-2.6-4.467.837.837,0,0,0-.265-.639,5.82,5.82,0,0,1,.016-8.267.841.841,0,0,0,.248-.645,4.853,4.853,0,0,1,3.638-4.863.58.58,0,0,0,.459-.464A4.886,4.886,0,0,1,39.164,0q3.684-.007,7.367,0c.956,0,1.277.328,1.28,1.294,0,.675.012,1.351-.005,2.026a.463.463,0,0,0,.319.508c.254.116.37,0,.517-.152.43-.438.861-.876,1.3-1.3a.99.99,0,0,1,1.6-.025Q53.425,4.2,55.278,6.082a.992.992,0,0,1-.005,1.6c-.411.428-.836.843-1.258,1.26-.174.173-.346.305-.2.617.131.271.311.27.541.268.716,0,1.432-.01,2.149,0a1,1,0,0,1,1.124,1.14q.011,2.793,0,5.587A1,1,0,0,1,56.5,17.684c-.737.009-1.473.01-2.21,0a.417.417,0,0,0-.467.285.4.4,0,0,0,.112.527c.46.437.908.886,1.347,1.344a.994.994,0,0,1-.01,1.6c-.729.747-1.464,1.488-2.215,2.213a.976.976,0,0,0-.34.8c.024.88.026,1.76,0,2.64-.011.358.107.449.446.432a4.006,4.006,0,0,1,1.279.09,2.939,2.939,0,0,1,2.208,2.766c.019.675.014,1.351,0,2.026A2.95,2.95,0,0,1,53.7,35.37c-.993.021-.979.025-1.208.972A8.662,8.662,0,0,1,47.3,42.525c-.355.156-.5.315-.477.708.043.629-.217,1.483.1,1.836.363.4,1.228.1,1.874.125a24.931,24.931,0,0,1,4.526.208,8.806,8.806,0,0,1,4.35,2.371c.773.761,1.543,1.525,2.3,2.3a8.752,8.752,0,0,1,2.577,6.3c0,.45,0,.9,0,1.351-.006.881-.346,1.228-1.222,1.229q-3.929.005-7.858,0Z" transform="translate(-14.403 0)"/>
        <path id="Trazado_212008" data-name="Trazado 212008" d="M124.795,18.091c.614,0,1.227-.009,1.841,0a1.008,1.008,0,0,1,1.1,1.105c.029.605-.265,1.414.122,1.754.336.3,1.128.073,1.719.087a.993.993,0,0,1,1.1,1.1q.017,1.841,0,3.681a1.006,1.006,0,0,1-1.091,1.115c-.606.029-1.413-.263-1.759.114-.3.326-.081,1.124-.1,1.713a1.007,1.007,0,0,1-1.149,1.116q-1.809.013-3.62,0a1,1,0,0,1-1.124-1.139c-.008-.491-.017-.982,0-1.472.012-.277-.086-.349-.349-.339-.511.019-1.023.016-1.533,0a.979.979,0,0,1-1.067-1.07q-.019-1.871,0-3.743a.978.978,0,0,1,1.06-1.076c.47-.014.942-.025,1.41,0,.358.022.523-.052.483-.457a11.787,11.787,0,0,1-.009-1.227c0-.953.327-1.268,1.3-1.271.552,0,1.1,0,1.657,0" transform="translate(-73.692 -11.212)"/>
        <path id="Trazado_212009" data-name="Trazado 212009" d="M0,26.548c0-.572,0-1.145,0-1.718.007-.874.346-1.205,1.237-1.212.429,0,.861-.025,1.288.007.363.027.447-.112.429-.447-.027-.489-.019-.982,0-1.472A.964.964,0,0,1,4,20.676q1.9-.023,3.8,0a.977.977,0,0,1,1.045,1.032c.036.626-.264,1.462.123,1.816.337.309,1.163.077,1.773.1a.967.967,0,0,1,1.047,1.028q.026,1.9,0,3.8a.981.981,0,0,1-1.08,1.059c-.491.012-.983.025-1.472-.005-.341-.021-.412.111-.4.417.022.49.016.982,0,1.472a.968.968,0,0,1-1.014,1.06q-1.932.027-3.865,0a.956.956,0,0,1-1.007-1c-.02-.511-.022-1.023,0-1.533.014-.312-.068-.433-.4-.412-.468.029-.94.014-1.411.006A1.006,1.006,0,0,1,0,28.389c-.01-.614,0-1.227,0-1.841" transform="translate(0 -12.809)"/>
        <path id="Trazado_212010" data-name="Trazado 212010" d="M21.074,73.1a.974.974,0,0,1-.991-.894,3.02,3.02,0,0,1,0-.673c.039-.333-.1-.429-.41-.4A3.138,3.138,0,0,1,19,71.128a.959.959,0,0,1-.88-1,.936.936,0,0,1,.875-.942c.338-.048.781.087,1-.086.241-.188.044-.649.087-.989a.981.981,0,0,1,1.956.022c.041.338-.158.784.1.985.206.161.627.033.95.063a.971.971,0,0,1,.916.97.992.992,0,0,1-.908.982c-.339.043-.784-.154-.989.092-.164.2-.043.622-.071.944a.977.977,0,0,1-.958.931" transform="translate(-11.228 -41.662)"/>
        <path id="Trazado_212011" data-name="Trazado 212011" d="M122.214,85.655a1,1,0,0,1-1.087.991c-.851.031-.851.031-.874.843-.019.678-.385,1.1-.96,1.118-.6.014-.989-.426-1-1.135a2.683,2.683,0,0,1,0-.428c.045-.324-.083-.438-.4-.4a3.068,3.068,0,0,1-.673-.005.958.958,0,0,1-.884-1,.935.935,0,0,1,.871-.945c.338-.049.78.088,1-.083.245-.187.046-.649.089-.988a.981.981,0,0,1,1.956.014c.042.338-.157.784.1.986.2.162.625.036.948.065a.972.972,0,0,1,.921.966" transform="translate(-72.108 -51.275)"/>
        <path id="Trazado_212012" data-name="Trazado 212012" d="M54.286,64.14a5.074,5.074,0,0,0,3.175,1.854,6.928,6.928,0,0,0,.977.066q3.652.008,7.3,0c.971,0,1.3-.322,1.3-1.273,0-.675.009-1.351,0-2.025a.471.471,0,0,1,.3-.522c.283-.133.4.033.568.176.666.558,1.1,1.385,1.983,1.691.185.064.1.249.1.376,0,2.926.05,5.852-.019,8.776A6.818,6.818,0,0,1,63.414,79.8a13.928,13.928,0,0,1-3.966-.206,6.84,6.84,0,0,1-5.166-6.524c-.035-2.864-.01-5.728-.01-8.592,0-.073.006-.145.014-.335" transform="translate(-33.635 -38.55)" fill="#f6cba8"/>
        <path id="Trazado_212013" data-name="Trazado 212013" d="M53.143,16.939c0,3.744-.009,7.487.011,11.231,0,.454-.1.6-.566.572-.816-.043-1.636.01-2.454-.019a2.914,2.914,0,0,1-2.568-1.616c-.163-.292-.212-.454.209-.6a4.8,4.8,0,0,0,3.346-3.943,3.4,3.4,0,0,0,.051-.549,1,1,0,0,0-.931-1.143c-.574-.027-.974.382-1.029,1.053a2.941,2.941,0,1,1-5.848-.516,1.344,1.344,0,0,0-.544-1.43,3.88,3.88,0,0,1,0-6.082,1.332,1.332,0,0,0,.545-1.429,2.942,2.942,0,1,1,5.837-.7,1.46,1.46,0,0,0,.2.819.922.922,0,0,0,1.08.371.987.987,0,0,0,.7-1.034,4.843,4.843,0,0,0-3.232-4.485c-.586-.2-.563-.418-.3-.828a2.93,2.93,0,0,1,2.482-1.455c.818-.022,1.638.024,2.454-.017.463-.024.572.111.569.569-.02,3.744-.011,7.487-.011,11.231" transform="translate(-25.631 -3.184)" fill="#dfb898"/>
        <path id="Trazado_212014" data-name="Trazado 212014" d="M36.707,133.894c-2.576,0-5.152-.012-7.727.011-.455,0-.581-.105-.574-.569a6.907,6.907,0,0,1,1.987-4.925c.843-.862,1.69-1.723,2.567-2.55a6.854,6.854,0,0,1,4.016-1.779.583.583,0,0,1,.74.49c.449,1.441.938,2.87,1.415,4.3.318.955.5,1.089,1.5,1.089,1.329,0,2.658.014,3.987-.008.387-.006.531.081.518.5-.032.98-.03,1.963,0,2.943.012.407-.114.508-.511.505-2.637-.017-5.274-.009-7.911-.009" transform="translate(-17.607 -76.907)" fill="#3396e7"/>
        <path id="Trazado_212015" data-name="Trazado 212015" d="M85.849,133.9c-2.6,0-5.193-.01-7.789.01-.423,0-.56-.1-.545-.535.035-.98.031-1.963,0-2.943-.012-.392.118-.475.485-.469,1.349.021,2.7.009,4.048.008.952,0,1.149-.142,1.455-1.06.484-1.451.98-2.9,1.436-4.359a.553.553,0,0,1,.7-.464,6.787,6.787,0,0,1,4.024,1.757c.908.854,1.789,1.738,2.653,2.637a6.882,6.882,0,0,1,1.924,4.889c0,.431-.109.543-.54.539-2.616-.021-5.233-.01-7.85-.01" transform="translate(-48.048 -76.909)" fill="#3396e7"/>
        <path id="Trazado_212016" data-name="Trazado 212016" d="M77.528,26.279c0-.634.021-1.269-.008-1.9-.018-.393.053-.548.51-.582a6.866,6.866,0,0,0,0-13.7c-.39-.029-.515-.118-.507-.521q.039-1.963,0-3.927c-.009-.417.131-.5.518-.5,1.457,0,1.457-.012,1.457,1.452,0,.225,0,.45,0,.675,0,.807.174,1.036.917,1.319.438.167.869.355,1.29.561a1.03,1.03,0,0,0,1.287-.208c.393-.387.79-.772,1.169-1.174.184-.195.314-.189.5,0C85.327,8.463,86,9.147,86.7,9.814c.232.223.162.358-.033.542-.372.35-.724.722-1.089,1.081a1.067,1.067,0,0,0-.232,1.385,12.181,12.181,0,0,1,.572,1.351,1.1,1.1,0,0,0,1.153.813c.613-.015,1.228.013,1.841-.01.319-.012.423.083.417.411q-.03,1.564,0,3.13c.007.338-.119.412-.426.4-.613-.02-1.227,0-1.841-.008a1.071,1.071,0,0,0-1.123.763q-.283.742-.625,1.462a1.021,1.021,0,0,0,.185,1.239c.084.09.177.171.258.263.36.41,1.08.744,1.037,1.2-.041.43-.679.807-1.061,1.2-.342.352-.707.683-1.035,1.047-.223.247-.373.222-.587-.011-.359-.392-.747-.757-1.126-1.131a1.031,1.031,0,0,0-1.288-.2c-.476.231-.968.433-1.462.625a1.045,1.045,0,0,0-.741,1.075c.006.614-.014,1.228.007,1.841.011.323-.053.459-.425.467-1.546.034-1.546.048-1.546-1.488Z" transform="translate(-48.05 -3.192)" fill="#3396e7"/>
        <path id="Trazado_212017" data-name="Trazado 212017" d="M77.53,28.183c0-1.472.013-2.944-.008-4.416-.006-.387.071-.53.495-.487a4.928,4.928,0,0,1,0,9.8c-.422.044-.5-.1-.5-.485.022-1.472.009-2.944.009-4.416" transform="translate(-48.053 -14.426)" fill="#e8edf1"/>
        <path id="Trazado_212018" data-name="Trazado 212018" d="M71.752,113.669c.511,0,1.024.032,1.532-.011.372-.031.442.1.434.436-.02.8,0,1.594-.009,2.391a1.006,1.006,0,0,1-1.141,1.124c-.572.009-1.145.013-1.717,0a.98.98,0,0,1-1.066-1.072c-.014-.838.007-1.676-.009-2.514-.006-.3.081-.382.382-.364.53.031,1.062.009,1.594.009v0" transform="translate(-43.252 -70.45)" fill="#dfb898"/>
        <path id="Trazado_212019" data-name="Trazado 212019" d="M62.4,127.976c-.958.006-1.915.009-2.873.022a.392.392,0,0,1-.449-.3c-.38-1.18-.779-2.353-1.2-3.626.884,0,1.705,0,2.526,0,.173,0,.24.1.306.242a3.368,3.368,0,0,0,1.7,1.59,2.513,2.513,0,0,1-.009,2.078" transform="translate(-35.878 -76.904)" fill="#2977b7"/>
        <path id="Trazado_212020" data-name="Trazado 212020" d="M79.757,125.895a3.308,3.308,0,0,0,1.7-1.591.39.39,0,0,1,.432-.242c.773,0,1.546,0,2.4,0-.419,1.265-.823,2.474-1.218,3.685-.074.226-.234.247-.429.245-.958-.009-1.915-.014-2.873-.021a2.514,2.514,0,0,1-.009-2.078" transform="translate(-49.302 -76.901)" fill="#2977b7"/>
        <path id="Trazado_212021" data-name="Trazado 212021" d="M45.9,79.339c0,.531-.011,1.063,0,1.594.008.257-.063.343-.338.359-1.269.076-1.631-.246-1.632-1.5,0-.47-.016-.941,0-1.411a1.326,1.326,0,0,1,1.851-1.013c.167.092.1.249.106.381.007.531,0,1.063,0,1.594" transform="translate(-27.231 -47.877)" fill="#dfb898"/>
        <path id="Trazado_212022" data-name="Trazado 212022" d="M100.792,79.476c0-.49.019-.982-.006-1.471-.018-.347.042-.5.453-.5,1.233,0,1.518.262,1.519,1.5,0,.45.01.9,0,1.349a1.314,1.314,0,0,1-1.844,1.088c-.175-.089-.113-.243-.115-.373-.007-.531,0-1.062,0-1.594" transform="translate(-62.471 -48.045)" fill="#dfb898"/>
        <path id="Trazado_212023" data-name="Trazado 212023" d="M69.781,130.962q0-1.039.009-2.078c.977.161.977.161.977,1.109a1.838,1.838,0,0,0,0,.3c.094.556-.13.783-.687.686a2.857,2.857,0,0,0-.3-.021" transform="translate(-43.255 -79.89)" fill="#12619f"/>
        <path id="Trazado_212024" data-name="Trazado 212024" d="M78.522,128.884l.009,2.078c-.986.051-.986.051-.986-.908v-.061c0-.948,0-.948.977-1.11" transform="translate(-48.067 -79.89)" fill="#12619f"/>
        <path id="Trazado_212025" data-name="Trazado 212025" d="M128.964,24.405c0,.2,0,.409,0,.614.013.832.361,1.171,1.21,1.182.1,0,.205-.006.307,0,.463.032,1.167-.205,1.333.1.236.425.077,1.066.1,1.614.012.3-.192.253-.37.254-.512,0-1.024-.012-1.535,0a.971.971,0,0,0-1.04,1.037c-.017.511-.02,1.024,0,1.534.012.3-.089.368-.38.381C127,31.19,127,31.2,127,29.625c0-1.2-.264-1.459-1.486-1.459-1.49,0-1.476,0-1.472-1.494,0-.369.078-.509.47-.479a12.853,12.853,0,0,0,1.472,0,.966.966,0,0,0,1.009-1.006c.021-.531.019-1.064,0-1.6-.009-.272.085-.371.35-.343.162.016.327,0,.491,0,1.129,0,1.129,0,1.129,1.152" transform="translate(-76.889 -14.41)" fill="#fed23a"/>
        <path id="Trazado_212026" data-name="Trazado 212026" d="M8.068,32.472c0-.2,0-.409,0-.614a1.011,1.011,0,0,0-1.153-1.114c-.471-.007-.942-.016-1.412,0-.284.012-.376-.067-.39-.369-.075-1.6-.085-1.6,1.488-1.6,1.207,0,1.468-.263,1.468-1.478,0-1.5,0-1.475,1.486-1.482.433,0,.509.154.485.526-.027.428-.012.859,0,1.289a1.008,1.008,0,0,0,1.123,1.143c.491.01.983.014,1.473,0,.259-.008.392.063.35.34a.329.329,0,0,0,0,.061c.064,1.567.064,1.567-1.511,1.568-1.189,0-1.436.26-1.437,1.507,0,1.457,0,1.445-1.454,1.449-.375,0-.576-.06-.517-.49a5.337,5.337,0,0,0,.006-.736" transform="translate(-3.153 -16.004)" fill="#fed23a"/>
        <path id="Trazado_212027" data-name="Trazado 212027" d="M68.725,91.809a5.1,5.1,0,0,1-2.691-.62,2.856,2.856,0,0,1-1.388-2,1.042,1.042,0,0,1,.737-1.294,1.006,1.006,0,0,1,1.2.854.911.911,0,0,0,.035.179c.476.9,1.327.918,2.175.9.973-.022,1.55-.394,1.733-1.062s.638-.994,1.182-.871a1.051,1.051,0,0,1,.745,1.342,3.093,3.093,0,0,1-2.553,2.42,3.982,3.982,0,0,1-1.17.151" transform="translate(-40.056 -54.468)"/>
        <path id="Trazado_212028" data-name="Trazado 212028" d="M65.613,77.55a.98.98,0,1,1-.982.96.986.986,0,0,1,.982-.96" transform="translate(-40.062 -48.07)" fill="#030202"/>
        <path id="Trazado_212029" data-name="Trazado 212029" d="M81.121,77.55a.98.98,0,1,1-.982.96.986.986,0,0,1,.982-.96" transform="translate(-49.675 -48.07)" fill="#030202"/>
        <path id="Trazado_212030" data-name="Trazado 212030" d="M54.666,34.946a2.976,2.976,0,0,1-2.947-2.583c-.092-.73.238-1.254.84-1.335.58-.078.994.3,1.109,1.024a.968.968,0,0,0,.965.923c.531.031.9-.334,1-.951.113-.683.512-1.053,1.076-1a1.031,1.031,0,0,1,.882,1.244,2.971,2.971,0,0,1-2.922,2.677" transform="translate(-32.049 -19.226)"/>
      </g>
    </g>
  </g>
</svg>
