<svg xmlns="http://www.w3.org/2000/svg" xmlns:xlink="http://www.w3.org/1999/xlink" width="86" height="86" viewBox="0 0 86 86">
  <defs>
    <clipPath id="clip-path">
      <rect id="Rectángulo_338939" data-name="Rectángulo 338939" width="62.328" height="62.299" fill="none"/>
    </clipPath>
  </defs>
  <g id="Grupo_984050" data-name="Grupo 984050" transform="translate(-1125 -2028)">
    <circle id="Elipse_4894" data-name="Elipse 4894" cx="43" cy="43" r="43" transform="translate(1125 2028)" fill="#3c3fa7"/>
    <g id="Grupo_984049" data-name="Grupo 984049" transform="translate(1137 2040)">
      <g id="Grupo_984048" data-name="Grupo 984048" clip-path="url(#clip-path)">
        <path id="Trazado_212031" data-name="Trazado 212031" d="M13.463,31.311a6.847,6.847,0,0,1-1.247-2.893c-.059-.372-.291-.285-.5-.285-1.716,0-3.432-.013-5.148.005-.38,0-.536-.054-.532-.5.012-1.522-.009-1.522,1.506-1.522,1.36,0,2.721-.01,4.081.007.335,0,.521-.058.455-.434a1.16,1.16,0,0,1,0-.188,3.044,3.044,0,0,0-.039-1.238c-.178-.354-.739-.188-1.117-.321A3.947,3.947,0,0,1,8.13,20.776a3.809,3.809,0,0,1,1.442-3.785c.19-.159.4-.3.625-.469-1.081-.65-2.125-1.3-3.188-1.905-.316-.181-.342-.306-.135-.6C7.463,13.179,8,12.309,8.59,11.47a.6.6,0,0,0,.013-.822C8,9.8,7.454,8.9,6.848,8.053c-.246-.345-.159-.469.179-.632,1.09-.525,2.16-1.093,3.253-1.609.36-.17.439-.3.241-.679-.642-1.218-1.24-2.458-1.854-3.692A2.021,2.021,0,0,1,8.583,1.2,92.669,92.669,0,0,1,23.909.021,12.9,12.9,0,0,1,36.088,11.308a14.92,14.92,0,0,1-.341,5.041,2.558,2.558,0,0,0,.166,2.315,2.81,2.81,0,0,1,.24.693c.029-.5-.087-1,.1-1.18.282-.264.792-.085,1.2-.088,1.444-.012,2.888,0,4.332-.01.3,0,.425.049.433.4.039,1.614.053,1.614-1.538,1.614-1.361,0-2.721.007-4.081-.006-.3,0-.4.052-.448.392a3.964,3.964,0,0,1-3.589,3.6c-.383.048-.4.19-.409.5a18.061,18.061,0,0,1-.213,4.248,6.871,6.871,0,0,1-3.982,4.707c-.37.168-.509.318-.386.737.174.6.078,1.421.451,1.773.413.388,1.234.116,1.876.118,3.872.009,7.748.117,11.614-.026,5.31-.2,9.144-2.817,11.523-7.565a2.624,2.624,0,0,0,.125-.287.491.491,0,0,0-.007-.153q-3.29,0-6.582,0a2.06,2.06,0,0,1-2.355-2.337q0-6.717,0-13.435a2.056,2.056,0,0,1,2.317-2.31q3.735,0,7.471,0a2.035,2.035,0,0,1,2.266,2.237c0,.6,0,1.21,0,1.864a5.045,5.045,0,0,1,3.932.871,4.771,4.771,0,0,1,2.082,3.953c.032,3.327.061,6.656-.01,9.982A21.187,21.187,0,0,1,45.113,48.868a37.854,37.854,0,0,1-6.568.36c-1.276,0-2.553.02-3.829-.011-.438-.011-.551.1-.549.543.02,3.976,0,7.953.023,11.929,0,.486-.114.612-.607.611Q17.1,62.276.622,62.3c-.483,0-.627-.107-.612-.606.075-2.383-.136-4.775.126-7.151A20.408,20.408,0,0,1,9.948,38.87a18.929,18.929,0,0,1,5.87-2.435.572.572,0,0,0,.526-.578c.01-.124.052-.245.069-.369.078-.576.489-1.232.232-1.688-.233-.413-.942-.544-1.417-.839-.256-.159-.43-.039-.632.062-1.231.616-2.469,1.219-3.69,1.854-.322.167-.438.1-.593-.209-.708-1.395-.718-1.389.66-2.08Q12.147,32,13.32,31.406c.037-.019.069-.046.143-.095" transform="translate(0 0)"/>
        <path id="Trazado_212032" data-name="Trazado 212032" d="M93.712,29.979c.072.034.129.06.185.088,1.153.579,2.3,1.163,3.46,1.732.228.112.271.231.128.43a.285.285,0,0,0-.028.056c-.661,1.485-.662,1.486-2.122.753-.706-.354-1.394-.755-2.123-1.053-.483-.2-.462-.414-.242-.784.191-.321.333-.671.512-1,.051-.093.062-.265.23-.223" transform="translate(-54.983 -17.755)" fill="#010101"/>
        <path id="Trazado_212033" data-name="Trazado 212033" d="M97.6,56.307c.044.208-.135.227-.255.287-1.134.571-2.271,1.136-3.4,1.712-.2.1-.3.12-.435-.106-.907-1.474-.914-1.47.618-2.237.707-.354,1.436-.671,2.117-1.068.449-.262.629-.137.8.291.152.386.368.746.558,1.121" transform="translate(-55.023 -32.437)" fill="#010101"/>
        <path id="Trazado_212034" data-name="Trazado 212034" d="M6.991,65.128c0,.959,0,.959-.987.959-1.022,0-1.022,0-1.022-1.05,0-.959,0-.959.987-.959,1.022,0,1.022,0,1.022,1.05" transform="translate(-2.951 -37.957)"/>
        <path id="Trazado_212035" data-name="Trazado 212035" d="M24.344,115.721c-3.432,0-6.864-.015-10.3.014-.578,0-.765-.094-.759-.726.037-3.578.009-7.157.029-10.735,0-.474-.094-.635-.6-.622-1.416.035-1.416.009-1.416,1.431,0,1.36-.021,2.721.012,4.08.011.454-.129.548-.558.541-1.611-.026-3.223-.018-4.834,0-.349,0-.508-.013-.43-.461a18.581,18.581,0,0,1,11.2-14.478c.335-.153.452-.063.584.253.807,1.925,1.648,3.835,2.448,5.762.176.424.309.427.642.155,1.49-1.217,3.016-2.391,4.491-3.626.419-.351.659-.3,1.046.02,1.467,1.213,2.972,2.378,4.444,3.585.358.294.494.277.678-.164.926-2.214,1.893-4.41,2.819-6.625a.7.7,0,0,1,.772-.514q5.21.024,10.421-.011c.318,0,.433.05.432.395q-.02,4.112,0,8.224c0,.335-.116.434-.432.434q-3.641,0-7.282.017c-.3,0-.337-.128-.333-.375.011-.753-.009-1.507.01-2.26.007-.3-.081-.38-.384-.393-1.632-.071-1.632-.081-1.632,1.525,0,4.645-.011,9.291.014,13.937,0,.543-.155.636-.658.633-3.474-.023-6.948-.012-10.422-.012" transform="translate(-3.24 -55.443)" fill="#fbd670"/>
        <path id="Trazado_212036" data-name="Trazado 212036" d="M33.54,14.982c-.807-.788-1.626-1.562-2.412-2.37-.285-.292-.473-.33-.744-.007-.307.367-.858.671-.92,1.063s.544.676.865,1c.225.227.251.369.008.606-1.077,1.054-2.139,2.123-3.2,3.2a.392.392,0,0,1-.583.087c-.9-.567-1.816-1.12-2.741-1.649-.321-.184-.345-.338-.141-.628.434-.615.819-1.265,1.265-1.871a.638.638,0,0,0-.01-.887c-.432-.59-.8-1.224-1.229-1.819-.2-.283-.15-.406.15-.551,1.017-.49,2.012-1.024,3.036-1.5.412-.192.446-.382.245-.759-.472-.885-.9-1.792-1.359-2.686-.15-.292-.217-.47.238-.527A88.452,88.452,0,0,1,37.083,4.93a10.877,10.877,0,0,1,10.87,8.945,12.123,12.123,0,0,1-.226,5.037c-.034.156-.041.323-.295.316-1.058-.029-1.316-.274-1.316-1.293,0-.947,0-.946-.959-.951-.188,0-.376-.014-.563-.022a1.479,1.479,0,0,1-.519-.442,3.8,3.8,0,0,0-3.091-1.382,8.734,8.734,0,0,1-1.314-.024,1.436,1.436,0,0,1-.708-.49c-.578-.573-1.167-1.136-1.722-1.73-.358-.383-.655-.38-.972.021-.051.065.017-.013-.043.045-.691.68-.691.68-.026,1.368a2.426,2.426,0,0,1,.327.378c.138.221.059.349-.176.413a7.186,7.186,0,0,1-2.808-.138" transform="translate(-13.946 -2.92)" fill="#b17946"/>
        <path id="Trazado_212037" data-name="Trazado 212037" d="M40.052,29.552l3.046-.024c.3-.029.437.208.609.376q.892.871,1.764,1.764c.254.261.48.3.73.014.054-.063.117-.118.177-.177.781-.777.727-.682.025-1.388-.154-.156-.368-.291-.324-.566a14.874,14.874,0,0,1,2.31.052A3.826,3.826,0,0,1,51.1,31.532c-.415-.051-.5.15-.5.536q.021,6.085.008,12.17a5.047,5.047,0,0,1-5.409,5.4q-2.791,0-5.583,0a5.041,5.041,0,0,1-1.977-.4c.159-.095.254-.143.339-.205.308-.222.963-.239.91-.609a5.129,5.129,0,0,0-.734-1.574c-.105-.193-.267-.008-.377.045-.546.26-1.093.521-1.62.818-.3.171-.468.109-.654-.166a6.048,6.048,0,0,1-.778-1.562c-.083-.259-.073-.4.248-.368a.937.937,0,0,0,.188,0c.45-.04,1.147.2,1.3-.1a4.369,4.369,0,0,0,.087-1.658c.008-.253-.149-.25-.326-.249-.418,0-.837-.015-1.254.006-.3.015-.441-.038-.439-.4.015-2.635.011-5.27,0-7.9a.7.7,0,0,1,.224-.549q1.762-1.742,3.5-3.507c.23-.234.366-.244.6,0,.316.329.606.9.994.887.419-.015.679-.618,1.051-.914.347-.277.335-.488,0-.774a11.659,11.659,0,0,1-.857-.9" transform="translate(-20.457 -17.49)" fill="#efcfb3"/>
        <path id="Trazado_212038" data-name="Trazado 212038" d="M108.511,70.276c-.009-.181-.025-.344-.026-.508,0-2.679,0-5.357-.005-8.036,0-.343.033-.522.455-.639q9.567-2.648,11.44-12.418c.071-.369.08-.748.132-1.121a2.52,2.52,0,0,0-.819-2.437,3.311,3.311,0,0,1-.222-4.864,2.832,2.832,0,0,1,3.133-.639,2.729,2.729,0,0,1,1.932,2.61c.007,3.807.335,7.637-.136,11.416-.889,7.136-4.76,12.2-11.25,15.268a16.732,16.732,0,0,1-4.633,1.368" transform="translate(-64.259 -23.336)" fill="#efcfb3"/>
        <path id="Trazado_212039" data-name="Trazado 212039" d="M113.4,36.61c0-2.177.009-4.353-.009-6.53,0-.4.085-.534.511-.53q3.516.032,7.032,0c.425,0,.549.131.508.53a4.415,4.415,0,0,0,0,.878,2.936,2.936,0,0,1-.854,2.493,5.09,5.09,0,0,0,.1,6.683,2.608,2.608,0,0,1,.6,2.5c-.267,1.183.044.985-1.192.992-2.051.011-4.1-.011-6.153.014-.45.006-.551-.128-.547-.559.022-2.156.01-4.312.01-6.467" transform="translate(-67.17 -17.505)" fill="#959ea9"/>
        <path id="Trazado_212040" data-name="Trazado 212040" d="M52.524,86.1c.065.22-.108.283-.249.368-1.091.656-2.188,1.3-3.271,1.973a.565.565,0,0,1-.683-.011q-1.6-.983-3.224-1.931a.454.454,0,0,1-.254-.6c.144-.544.232-1.1.326-1.659.056-.328.166-.479.559-.474,1.966.028,3.932.023,5.9,0,.342,0,.479.1.534.425.107.638.241,1.271.364,1.907" transform="translate(-26.545 -49.617)" fill="#efcfb3"/>
        <path id="Trazado_212041" data-name="Trazado 212041" d="M8.015,138c.856,0,1.714.014,2.57-.007.325-.008.427.084.421.417q-.031,1.6,0,3.2c.006.325-.085.424-.416.42q-2.6-.024-5.2,0c-.322,0-.432-.073-.425-.413.022-1.065.02-2.131,0-3.2-.006-.326.085-.433.42-.424.877.023,1.754.008,2.632.008" transform="translate(-2.939 -81.742)" fill="#efcfb3"/>
        <path id="Trazado_212042" data-name="Trazado 212042" d="M61.638,98.05c-.881-.7-1.708-1.372-2.547-2.026-.263-.205-.24-.32.039-.483.99-.579,1.971-1.175,2.953-1.767.431-.259.894-.09,1.447-.148L61.638,98.05" transform="translate(-34.894 -55.459)" fill="#fec629"/>
        <path id="Trazado_212043" data-name="Trazado 212043" d="M40.5,98.238c-.554-1.285-1.091-2.528-1.625-3.771-.06-.139-.113-.314.094-.353.434-.082.849-.323,1.32-.018.876.567,1.78,1.09,2.682,1.613.289.168.371.28.06.519-.84.648-1.663,1.319-2.531,2.01" transform="translate(-22.999 -55.65)" fill="#fec629"/>
        <path id="Trazado_212044" data-name="Trazado 212044" d="M26.709,46.385c0,.563-.015,1.127.006,1.69.012.312-.126.336-.375.293a2.02,2.02,0,0,1,0-3.968c.25-.042.387-.018.375.295-.022.562-.006,1.126-.006,1.69" transform="translate(-14.632 -26.292)" fill="#efcfb3"/>
        <path id="Trazado_212045" data-name="Trazado 212045" d="M78.907,46.39c0-.563.015-1.127-.006-1.689-.011-.3.11-.344.37-.3a2.022,2.022,0,0,1,.01,3.97c-.326.06-.389-.06-.379-.353.019-.542.005-1.085.005-1.627" transform="translate(-46.737 -26.292)" fill="#efcfb3"/>
        <path id="Trazado_212046" data-name="Trazado 212046" d="M56.9,25.733c.327.347.644.7.985,1.036.191.186.227.332,0,.5a.323.323,0,0,0-.044.044c-1.088,1.182-1.086,1.18-2.222.051-.561-.557-1.133-1.1-1.7-1.655-.11-.124-.223-.246-.329-.374-.265-.318-.872-.6-.777-.911.163-.534.741-.875,1.167-1.273.212-.2.332.062.452.178.827.8,1.645,1.6,2.467,2.4" transform="translate(-31.279 -13.671)"/>
        <path id="Trazado_212047" data-name="Trazado 212047" d="M50.194,59.145c.9,0,1.8-.011,2.7,0a3.011,3.011,0,1,1,0,6.022c-.167,0-.335,0-.5,0-1.679,0-1.672,0-1.514-1.7.023-.247.1-.319.332-.313q.783.02,1.568,0a1.008,1.008,0,1,0-.01-2c-1.8-.009-3.6-.015-5.394.007-.408,0-.519-.1-.517-.514.007-1.5-.01-1.5,1.523-1.5h1.819" transform="translate(-27.753 -35.033)"/>
        <path id="Trazado_212048" data-name="Trazado 212048" d="M53.8,42.424c0,.878-.011,1.755.006,2.633.006.3-.08.379-.382.392-1.634.07-1.633.079-1.633-1.517,0-1.358.011-2.716-.008-4.074,0-.35.089-.45.447-.455,1.571-.022,1.57-.035,1.57,1.518v1.5" transform="translate(-30.677 -23.337)"/>
        <path id="Trazado_212049" data-name="Trazado 212049" d="M63.617,40.02a6.608,6.608,0,0,0,.5.652c.81.827.836.845-.021,1.64-.4.369-.424.577-.007.96.865.794.841.821.028,1.633-.61.61-.61.61-1.2.018-.62-.62-1.231-1.247-1.863-1.854-.215-.206-.227-.331-.005-.545.735-.71,1.449-1.442,2.173-2.164.087-.086.186-.161.4-.341" transform="translate(-36.066 -23.706)" fill="#010000"/>
        <path id="Trazado_212050" data-name="Trazado 212050" d="M42.036,43.013c-.082.093-.145.17-.215.241-.737.739-1.481,1.47-2.207,2.218-.211.217-.346.217-.547-.006-.335-.371-.9-.67-1-1.084-.1-.462.558-.73.879-1.086.2-.216.224-.338.006-.554-.338-.335-.983-.672-.912-1.03.085-.43.664-.756,1.013-1.142.189-.209.325-.256.547-.025.724.75,1.47,1.48,2.207,2.219.071.071.136.149.226.249" transform="translate(-22.532 -23.927)"/>
        <path id="Trazado_212051" data-name="Trazado 212051" d="M120.357,35.54c0,.973,0,.973-.989.973-1.02,0-1.02,0-1.02-1s0-1,1.02-1c.989,0,.989,0,.989,1.035" transform="translate(-70.105 -20.439)"/>
      </g>
    </g>
  </g>
</svg>
