<svg xmlns="http://www.w3.org/2000/svg" xmlns:xlink="http://www.w3.org/1999/xlink" width="86" height="86" viewBox="0 0 86 86">
  <defs>
    <clipPath id="clip-path">
      <rect id="Rectángulo_338944" data-name="Rectángulo 338944" width="41.802" height="59.199" fill="none"/>
    </clipPath>
  </defs>
  <g id="Grupo_984065" data-name="Grupo 984065" transform="translate(-13570 9661)">
    <circle id="Elipse_4904" data-name="Elipse 4904" cx="43" cy="43" r="43" transform="translate(13570 -9661)" fill="#3c3fa7"/>
    <g id="Grupo_984064" data-name="Grupo 984064" transform="translate(13592 -9648)">
      <g id="Grupo_984063" data-name="Grupo 984063" clip-path="url(#clip-path)">
        <path id="Trazado_212197" data-name="Trazado 212197" d="M35.021,99.232H10.063c-.263-.3-.181-.67-.181-1.014q-.009-8.588,0-17.176a5.349,5.349,0,0,0-.026-.822c-.036-.235-.08-.5-.385-.507s-.347.262-.376.5a5.521,5.521,0,0,0-.017.646c-.008,2.2.173,1.972-2.01,1.973a5.8,5.8,0,0,1-1.753-.088c-.26-.164-.236-.436-.237-.685-.008-2.412-.028-4.823.006-7.234a3.591,3.591,0,0,1,2.78-3.265q2.848-.727,5.716-1.382a4,4,0,0,0,.679-.192c.228-.1.441-.237.376-.52-.071-.306-.338-.281-.576-.248-.272.038-.538.112-.8.176-1.83.44-3.664.863-5.488,1.327a4.449,4.449,0,0,0-3.441,3.416,9,9,0,0,0-.21,2.16c0,1.843,0,3.686,0,5.529a1.355,1.355,0,0,1-.14.854c-.929.331-1.251.123-1.254-.833q-.01-3.383,0-6.765a5.921,5.921,0,0,1,4.271-5.707c3.117-.866,6.286-1.532,9.426-2.311.574-.142.709-.013.9.618a5.395,5.395,0,0,0,10.362.308c.039-.132.067-.267.109-.4.178-.552.34-.656.915-.527.918.207,1.831.437,2.745.66,2.114.517,4.242.98,6.342,1.554a6.017,6.017,0,0,1,4.43,4.368,4.1,4.1,0,0,1,.159,1.161c0,2.334,0,4.667,0,7,0,.916-.094,1.006-1.015,1.009-1.471,0-2.941.007-4.412,0-.806,0-.9-.112-.916-.926-.008-.549.012-1.1-.011-1.647-.011-.264-.059-.552-.385-.567s-.388.275-.422.535a5.947,5.947,0,0,0-.018.764q0,8.647,0,17.3c0,.324.084.673-.166.958" transform="translate(-1.642 -40.585)" fill="#72c1e8"/>
        <path id="Trazado_212198" data-name="Trazado 212198" d="M33.379,58.647q.01-3.852.019-7.7.005-5.53,0-11.059a4.446,4.446,0,0,1,.006-.47c.038-.358.232-.6.6-.592a.553.553,0,0,1,.567.618c0,.745.017,1.491,0,2.235-.009.334.1.44.433.437q2.588-.021,5.177,0c.323,0,.443-.083.441-.426-.016-2.392.034-4.785-.028-7.176a5.79,5.79,0,0,0-4.528-5.657c-3.051-.78-6.124-1.473-9.18-2.236-.416-.1-.485.021-.564.366a5.549,5.549,0,0,1-10.827.071c-.1-.45-.23-.53-.682-.417-2.98.742-5.973,1.432-8.954,2.168A5.879,5.879,0,0,0,1.2,34.555c-.054,2.371-.009,4.745-.022,7.118,0,.327.089.473.429.434.232-.027.467-.027.7-.039a1.151,1.151,0,0,1,1.276,0c1.1.012,2.192.018,3.287.041.3.006.358-.131.354-.392-.011-.725,0-1.45-.006-2.175-.006-.416.151-.719.585-.718s.593.319.594.721c0,1.058,0,2.116,0,3.174q.009,7.964.019,15.928c-.106.306-.272.566-.637.551a.6.6,0,0,1-.577-.538,1.615,1.615,0,0,1-.148-.971q-.005-6.467,0-12.934c0-.176,0-.353,0-.529-.017-.7-.085-.774-.775-.793C4.889,43.4,3.5,43.413,2.106,43.41c-.217,0-.436-.014-.586.189a2.024,2.024,0,0,0-.086.871q0,6.555,0,13.109a1.674,1.674,0,0,1-.264,1.174.571.571,0,0,1-.731.413c-.351-.09-.427-.366-.431-.681,0-.1,0-.2,0-.294Q.005,46.605,0,35.019a7.309,7.309,0,0,1,2.716-5.978,8.322,8.322,0,0,1,3.508-1.546c2.855-.674,5.7-1.37,8.561-2.036.438-.1.634-.278.561-.744a3.2,3.2,0,0,1,0-.821.8.8,0,0,0-.386-.841.669.669,0,0,1-.282-.913c.4-.437.687-.458,1.251-.006a8.564,8.564,0,0,0,2.33,1.348A7.6,7.6,0,0,0,28.5,16.425c0-.49,0-.98,0-1.471a.736.736,0,0,0-.474-.732A3.133,3.133,0,0,1,26.145,11.1c.016-.725-.006-1.451.006-2.176.007-.419-.153-.6-.587-.6q-4.676.01-9.351,0c-.4,0-.566.159-.562.559.009.823.012,1.647,0,2.47a3.008,3.008,0,0,1-1.738,2.789.959.959,0,0,0-.62,1,16.489,16.489,0,0,0,.177,3.045c.123.546-.032.726-.566.9a.691.691,0,0,1-.735-.68c-.061-.446-.175-.886-.2-1.333-.017-.3-.092-.424-.4-.506a3.885,3.885,0,0,1-.009-7.594c.326-.084.377-.24.374-.53-.012-1.373.035-2.748-.013-4.119C11.832,1.865,13.856-.534,17.371.1a2.677,2.677,0,0,1,1.546.9c.166.19.255.22.442.012a3.059,3.059,0,0,1,2.474-1c1.275.025,2.55,0,3.825.008a4.072,4.072,0,0,1,4.211,4.18c.017,1.393.013,2.785,0,4.178,0,.335.053.511.433.6a3.881,3.881,0,0,1,.045,7.55.562.562,0,0,0-.517.6,8.547,8.547,0,0,1-2.879,5.8,1.341,1.341,0,0,0-.5,1.152c.026,1.219.01,1.215,1.214,1.506,2.891.7,5.784,1.39,8.671,2.106a6.954,6.954,0,0,1,5.406,6.532c.1,4.156.038,8.317.052,12.475a.715.715,0,0,1-.57.756c-.554-.005-.771-.21-.822-.862-.06-.773-.011-1.549-.025-2.324a1.116,1.116,0,0,0-.129-.727c-.2-.187-.442-.137-.672-.137-1.313,0-2.626-.013-3.939.019-.84.021-.894.06-.895.911q-.006,6.673,0,13.348a1.612,1.612,0,0,1-.148.971.6.6,0,0,1-.577.538c-.365.015-.53-.244-.636-.551" transform="translate(0 0)"/>
        <path id="Trazado_212199" data-name="Trazado 212199" d="M32.718,31.6a.709.709,0,0,0,.411-.959,15.45,15.45,0,0,1-.213-3.569c-.009-.268.159-.312.347-.385a2.966,2.966,0,0,0,2.059-3.021c.005-.843.014-1.686-.005-2.529-.007-.333.044-.484.438-.482q4.97.025,9.94,0c.343,0,.429.111.422.437-.02.9-.014,1.8,0,2.705a2.964,2.964,0,0,0,2.014,2.878c.175.068.389.068.388.35a13.224,13.224,0,0,1-.435,4.361A7.8,7.8,0,0,1,35.66,34.78c-.381-.32-.728-.545-1.169-.129-.066-.445-.428-.665-.718-.938,0-.019-.016-.042-.01-.057.329-.838.11-.8-.573-1a4.121,4.121,0,0,0-.472-1.055" transform="translate(-19.815 -12.512)" fill="#fdb59e"/>
        <path id="Trazado_212200" data-name="Trazado 212200" d="M93.817,109.84a28,28,0,0,1,.057,3.259c.008.454.157.75.619.843.087.385-.08.8.131,1.169-.678.519-.681.547-.13,1.186.084.385-.08.8.13,1.168a1.72,1.72,0,0,0-.627,1.6c.027,1.738.013,3.477.007,5.215a1.181,1.181,0,0,1-.162.842l-5.888.024c.09-.392.424-.275.666-.295.753-.063.775-.065.776-.838q.006-6.526,0-13.051c0-1.172,0-1.185,1.139-1.168a32.641,32.641,0,0,1,3.281.051" transform="translate(-53.266 -66.481)" fill="#fdb59e"/>
        <path id="Trazado_212201" data-name="Trazado 212201" d="M2.963,125.239q.009-6.91.022-13.82a6.232,6.232,0,0,1,.059-1.575,2.222,2.222,0,0,1,1.087,0,1.442,1.442,0,0,1,.148.91q.008,3.881,0,7.762a3.865,3.865,0,0,0,.107,1.108c.057.194.129.4.374.383.207-.01.279-.189.33-.365a3.864,3.864,0,0,0,.112-1.107c0-2.607,0-5.214,0-7.82a1.211,1.211,0,0,1,.178-.9c.527-.067,1.057,0,1.584-.035.306-.017.425.138.463.406a5.845,5.845,0,0,1,.029.822q0,6.323,0,12.646c0,.2.009.392,0,.588-.015.422.178.586.6.6.294.012.685-.146.843.295l-5.265-.006a1.181,1.181,0,0,0-.682.1" transform="translate(-1.794 -66.485)" fill="#fdb59e"/>
        <path id="Trazado_212202" data-name="Trazado 212202" d="M9.034,125.107c-.32-.23-.687-.116-1.023-.1-.5.028-.624-.15-.622-.633.017-4.451.01-8.9.01-13.355,0-1.206,0-1.207-1.2-1.2-.235,0-.47.016-.7.024a1.37,1.37,0,0,1-1.258,0l-1.071-.037c.06-.105.162-.09.258-.09,1.764,0,3.529.015,5.294.006.34,0,.43.118.429.445q-.021,7.471-.023,14.941l-.047.015Z" transform="translate(-1.919 -66.446)" fill="#e88e7b"/>
        <path id="Trazado_212203" data-name="Trazado 212203" d="M93.643,109.817c-1.195,0-2.39.034-3.584,0-.512-.015-.662.12-.659.648.022,4.583.013,9.167.012,13.75,0,.793,0,.781-.788.8-.282.007-.588-.114-.846.1l-.047.014-.047-.014q-.008-7.471-.02-14.941c0-.268.023-.445.368-.444,1.824.009,3.647,0,5.47,0,.047,0,.093.054.14.083" transform="translate(-53.092 -66.457)" fill="#e88e7b"/>
        <path id="Trazado_212204" data-name="Trazado 212204" d="M10.576,51.431c-.218-.005-.41-.177-.5-.508a5.687,5.687,0,0,0-.4-1.221,2.477,2.477,0,0,0-1.5-1.141c-.317-.112-.558-.305-.532-.682a.648.648,0,0,1,.557-.6,2.436,2.436,0,0,0,1.76-1.934c.051-.189.09-.382.158-.564a.58.58,0,0,1,.6-.388.57.57,0,0,1,.548.376c.075.2.119.413.177.62a2.419,2.419,0,0,0,1.736,1.886.651.651,0,0,1,.569.648.626.626,0,0,1-.526.624,2.516,2.516,0,0,0-1.837,2.139c-.086.367-.187.743-.806.741" transform="translate(-4.627 -26.887)"/>
        <path id="Trazado_212205" data-name="Trazado 212205" d="M85.939,51.435a.568.568,0,0,1-.6-.383,2.739,2.739,0,0,1-.123-.452,2.442,2.442,0,0,0-1.749-2.011c-.337-.106-.62-.286-.6-.691.017-.368.269-.533.6-.627a2.294,2.294,0,0,0,1.654-1.74c.062-.226.136-.448.2-.674a.621.621,0,0,1,1.2.016c.033.133.078.262.112.395A2.487,2.487,0,0,0,88.446,47.3a.623.623,0,0,1,.526.621.616.616,0,0,1-.513.631,2.523,2.523,0,0,0-1.848,2.132c-.086.364-.176.747-.673.755" transform="translate(-50.186 -26.891)"/>
        <path id="Trazado_212206" data-name="Trazado 212206" d="M102.883,136.926c.013-2.266.03-4.533.035-6.8,0-.519.123-.9.749-.854.383.137.441.447.44.8q-.005,3.306,0,6.612c0,.351-.045.68-.457.777-.444.1-.627-.192-.765-.538" transform="translate(-62.309 -78.289)" fill="#040303"/>
        <path id="Trazado_212207" data-name="Trazado 212207" d="M33.513,50.957a.588.588,0,0,1,.818.2c.232.361.03.621-.235.854a.613.613,0,0,1-.764-.27.6.6,0,0,1,.181-.786" transform="translate(-20.138 -30.811)" fill="#060505"/>
        <path id="Trazado_212208" data-name="Trazado 212208" d="M103.627,124.492c-.364-.1-.65-.266-.585-.7.06-.409.354-.5.715-.482a.6.6,0,0,1,.422.619c-.007.366-.308.437-.552.567" transform="translate(-62.399 -74.675)" fill="#030303"/>
        <path id="Trazado_212209" data-name="Trazado 212209" d="M7.126,85.685a4.433,4.433,0,0,1-1.276,0c0-2.215-.023-4.43.015-6.644a6.921,6.921,0,0,1,.347-2.478,4.718,4.718,0,0,1,3.44-2.991c2.063-.509,4.132-.995,6.2-1.49.381-.091.792-.15.912.34s-.2.693-.64.8c-2.086.5-4.165,1.029-6.255,1.507a3.66,3.66,0,0,0-2.759,3.491c.062,2.488.017,4.978.018,7.467" transform="translate(-3.539 -43.618)" fill="#c4e4fd"/>
        <path id="Trazado_212210" data-name="Trazado 212210" d="M50.086,4.671a1.69,1.69,0,0,1,1.591-1.6c1.568-.035,3.138-.054,4.7,0a2.819,2.819,0,0,1,2.568,2.565c.054.938.013,1.882.03,2.823.006.29-.116.363-.384.362q-4.118-.01-8.235,0c-.3,0-.365-.123-.355-.387.015-.411,0-.823.006-1.235a1.849,1.849,0,0,1,1.9-1.893c1.706-.015,3.412-.009,5.118,0,.391,0,.683-.158.7-.549.018-.419-.268-.625-.687-.629h-.059c-1.745,0-3.49,0-5.235.006a3.537,3.537,0,0,0-1.664.538" transform="translate(-30.283 -1.838)" fill="#868686"/>
        <path id="Trazado_212211" data-name="Trazado 212211" d="M50.637,63.938a4.387,4.387,0,1,1-8.707,0c.207-.09.381.024.558.1a9.807,9.807,0,0,0,7.537.023c.195-.076.382-.213.612-.119" transform="translate(-25.384 -38.702)" fill="#fdb59e"/>
        <path id="Trazado_212212" data-name="Trazado 212212" d="M38.621,4.739c-1.157-.818-2.4-.569-3.6-.582a.538.538,0,0,0-.553.575.551.551,0,0,0,.6.581c.568.009,1.137,0,1.7.009a1.831,1.831,0,0,1,1.883,1.9c0,.521.231,1.191-.108,1.522-.309.3-.969.081-1.475.086-1.117.012-2.234-.009-3.351.011-.368.006-.523-.08-.508-.483.031-.822,0-1.646.017-2.468a2.884,2.884,0,0,1,2.814-2.823c.274-.009.549-.01.823,0a1.794,1.794,0,0,1,1.752,1.67" transform="translate(-20.116 -1.853)" fill="#868686"/>
        <path id="Trazado_212213" data-name="Trazado 212213" d="M26.786,28.385c0,.763-.011,1.526.006,2.289.006.3-.06.364-.364.276a2.738,2.738,0,0,1-.086-5.179c.317-.1.463-.06.451.324-.023.762-.007,1.526-.007,2.289" transform="translate(-14.859 -15.58)" fill="#fcb49e"/>
        <path id="Trazado_212214" data-name="Trazado 212214" d="M75.746,30.975c0-1.68,0-3.322,0-4.963,0-.542.314-.312.54-.227a2.709,2.709,0,0,1-.538,5.19" transform="translate(-45.872 -15.542)" fill="#fcb49e"/>
        <path id="Trazado_212215" data-name="Trazado 212215" d="M50.621,62.423a9.635,9.635,0,0,1-8.707,0c-.01-.254-.022-.508-.027-.761a1.642,1.642,0,0,1,.041-.258,9.134,9.134,0,0,0,8.679,0,3.06,3.06,0,0,1,.013,1.019" transform="translate(-25.368 -37.187)" fill="#e98e7b"/>
        <path id="Trazado_212216" data-name="Trazado 212216" d="M33.219,23.07c0-.646.031-1.294-.011-1.936-.032-.489.236-.5.575-.464.293.028.687-.157.664.432-.037.938-.006,1.878-.017,2.817a1.727,1.727,0,0,1-.836,1.464c-.249.169-.383.144-.378-.2.01-.7,0-1.409,0-2.113" transform="translate(-20.11 -12.511)" fill="#868686"/>
        <path id="Trazado_212217" data-name="Trazado 212217" d="M70.871,23.111c0,.646.006,1.292,0,1.937,0,.141.092.344-.1.413-.157.057-.289-.089-.407-.183a1.661,1.661,0,0,1-.7-1.3c-.015-.978.007-1.957-.017-2.935-.014-.568.389-.357.651-.376s.6-.115.582.389c-.032.683-.008,1.369-.008,2.054" transform="translate(-42.179 -12.503)" fill="#868686"/>
        <path id="Trazado_212218" data-name="Trazado 212218" d="M47.708,45.843a3.463,3.463,0,0,1-3.455-3.188c-.024-.4,0-.786.5-.839s.619.285.674.7a2.273,2.273,0,0,0,4.538.022c.051-.409.161-.762.654-.725s.545.413.524.82a3.464,3.464,0,0,1-3.435,3.21" transform="translate(-26.797 -25.321)"/>
        <path id="Trazado_212219" data-name="Trazado 212219" d="M51.5,30.667q0-.88,0-1.76c0-.4.2-.656.592-.653s.584.266.584.662q0,1.789,0,3.579c0,.381-.148.662-.564.674-.447.013-.613-.271-.612-.683V30.667" transform="translate(-31.193 -17.111)"/>
        <path id="Trazado_212220" data-name="Trazado 212220" d="M62.3,29.411a1.569,1.569,0,0,1-.034.383.569.569,0,0,1-1.1-.035,4.379,4.379,0,0,1-.036-.872c.012-.384.214-.653.608-.642s.575.283.566.675c0,.117,0,.234,0,.491" transform="translate(-37.018 -17.105)" fill="#050303"/>
        <path id="Trazado_212221" data-name="Trazado 212221" d="M44.273,29.363a1.317,1.317,0,0,1-.024.364.558.558,0,0,1-.635.478.533.533,0,0,1-.511-.543c-.012-.253,0-.508-.007-.761-.005-.4.192-.655.584-.653s.575.28.592.662c0,.1,0,.195,0,.452" transform="translate(-26.1 -17.108)" fill="#040302"/>
        <path id="Trazado_212222" data-name="Trazado 212222" d="M5.873,109.978a5.033,5.033,0,0,1,1.258,0q0,4.59.005,9.179a4.994,4.994,0,0,1-.108.811.489.489,0,0,1-.555.415.481.481,0,0,1-.5-.414,5.9,5.9,0,0,1-.106-.812q-.007-4.59.005-9.179" transform="translate(-3.553 -66.582)" fill="#f9dedf"/>
        <path id="Trazado_212223" data-name="Trazado 212223" d="M6.034,140.342a2.913,2.913,0,0,1,.052-.461.482.482,0,0,1,.516-.389.48.48,0,0,1,.519.386,2.6,2.6,0,0,1-.007,1.1.474.474,0,0,1-.538.36.482.482,0,0,1-.5-.414c-.021-.155-.024-.312-.043-.587" transform="translate(-3.654 -84.48)" fill="#f9dfe0"/>
        <path id="Trazado_212224" data-name="Trazado 212224" d="M14.879,51.99a3.476,3.476,0,0,0-.873.989A4.315,4.315,0,0,0,13.08,52c.028-.049.041-.111.077-.133.37-.216.525-.88.877-.814.324.06.558.6.845.941" transform="translate(-7.922 -30.914)" fill="#ecbc1f"/>
        <path id="Trazado_212225" data-name="Trazado 212225" d="M89.217,52.865a4.738,4.738,0,0,0-.951-.972.91.91,0,0,1,.078-.114q.441-.45.884-.9l.848,1a3.719,3.719,0,0,0-.86.981" transform="translate(-53.456 -30.816)" fill="#ebbc1f"/>
      </g>
    </g>
  </g>
</svg>
