<svg xmlns="http://www.w3.org/2000/svg" xmlns:xlink="http://www.w3.org/1999/xlink" width="301" height="218" viewBox="0 0 301 218">
  <defs>
    <clipPath id="clip-path">
      <rect id="Rectángulo_338929" data-name="Rectángulo 338929" width="262" height="218" transform="translate(806 3498)" fill="none" stroke="#707070" stroke-width="1"/>
    </clipPath>
  </defs>
  <g id="Grupo_984022" data-name="Grupo 984022" transform="translate(-177 -907)">
    <rect id="Rectángulo_338922" data-name="Rectángulo 338922" width="213" height="156" rx="14" transform="translate(177 969)" fill="#6b8dfc"/>
    <rect id="Rectángulo_338930" data-name="Rectángulo 338930" width="213" height="156" rx="14" transform="translate(265 907)" fill="#3c3fa7"/>
    <g id="Enmascarar_grupo_467" data-name="Enmascarar grupo 467" transform="translate(-612 -2591)" clip-path="url(#clip-path)">
      <g id="Grupo_984021" data-name="Grupo 984021" transform="translate(-42.558 41.217)">
        <g id="Grupo_984018" data-name="Grupo 984018" transform="translate(848.233 3463)">
          <g id="Grupo_984017" data-name="Grupo 984017">
            <path id="Trazado_211751" data-name="Trazado 211751" d="M167.75,181.948l-.339-.615c5.593-3.079,7.53-10.123,6.969-15.739-.631-6.306-3.762-12.084-6.523-17.183-2.979-5.5-6.039-11.152-6.805-17.375-.678-5.515.512-11.048,1.665-16.4.55-2.551,1.119-5.188,1.474-7.787a51.319,51.319,0,0,0-10.242-38.238c-1.642-2.115-3.517-4.21-5.331-6.235-5.5-6.143-11.182-12.493-11.627-20.649l.7-.038c.434,7.909,6.036,14.168,11.451,20.219,1.822,2.035,3.707,4.138,5.362,6.273a52.022,52.022,0,0,1,10.384,38.763c-.361,2.624-.932,5.275-1.484,7.839-1.14,5.294-2.319,10.768-1.653,16.166.749,6.091,3.778,11.685,6.707,17.1,2.81,5.188,5.976,11.032,6.621,17.477.584,5.845-1.456,13.19-7.327,16.424" transform="translate(21.044 6.381)" fill="#e19e2c"/>
            <path id="Trazado_211752" data-name="Trazado 211752" d="M187.66,148.684c-5.449-9.02-9.282-19.88-9.381-26.4-.182-12.077,11.82-26.9-4.283-49.367-11.616-16.209-10.621-22.076-10.621-22.076L50.2,42.971S46.64,60.781,39.546,69.986s-18.614,16-12.731,35.961c4.828,16.374-6.318,32.133-12.39,41.076-5.98,8.81-3.446,18.118,3.617,39.712,0,0,5,3.129,9.047,5.319l1.631-9.2c1.541.662,2.831,11.269,4.672,11.83a48.455,48.455,0,0,0,5.88,1.4c-2.785-7.271-3.434-14.757-.561-20.787,10.647-24.633,17.987-49.216,9.87-75.789-5.812-19.935,9.377-35.738,25.851-39.325,23.068-4.8,42,8.262,61.965,16.859,6.644,2.124,15.491,4.214,18.9,10.837,6.8,12.133-5.1,26.773.607,40.035,3.44,8.846,12.371,16.5,15.829,26.456,3.966,9.953,4.237,20.5,1.91,30.872l.351.69a20.861,20.861,0,0,0,18.835-6.025c1.91-1.967,4.381-15.416-5.167-31.224" transform="translate(1.701 6.578)" fill="#e19e2c"/>
            <path id="Trazado_211753" data-name="Trazado 211753" d="M168.3,152.216c-3.457-9.959-12.389-17.61-15.829-26.456-5.71-13.262,6.189-27.9-.607-40.035-3.407-6.623-12.254-8.713-18.9-10.837C113,66.291,94.07,53.23,71,58.029,54.526,61.616,39.339,77.419,45.15,97.354c8.117,26.574.776,51.156-9.87,75.789-2.874,6.03-2.224,13.516.561,20.787a48,48,0,0,0,11.249.618l2.84-19.964,5.325,19.9s11.431,6.3,52.056-2.731,47.719-2.43,50.851-9.345-4.545-32.006-4.545-32.006l16.594,32.691c2.328-10.377,2.056-20.919-1.91-30.872" transform="translate(5.133 8.733)" fill="#d38a20"/>
            <path id="Trazado_211754" data-name="Trazado 211754" d="M115.1,110.763,114.593,101l-28.677,1.474-.478,8.924c9.886,1.757,19.774,1.2,29.662-.631" transform="translate(13.125 15.491)" fill="#d8a178"/>
            <path id="Trazado_211755" data-name="Trazado 211755" d="M138.908,119.235l-21.153-2.75-.681-7.023c-9.888,1.833-19.775,2.389-29.663.632l-.325,6.083s-9.565,4.026-12.978,4.868c.1,15.53-2.7,58.125-.925,73.774l67.682-.179s2-18.486,2.8-25.1c2.555-21.258-4.752-50.306-4.752-50.306" transform="translate(11.151 16.792)" fill="#ebbc8e"/>
            <path id="Trazado_211756" data-name="Trazado 211756" d="M76.875,88.476,70.159,71.74s-16.406-4.11-15.546,12.195S72.6,99.3,76.875,88.476" transform="translate(8.384 10.926)" fill="#ebbc8e"/>
            <path id="Trazado_211757" data-name="Trazado 211757" d="M125.682,86.061l2.022-17.92s14.722-8.325,18.228,7.622-13.254,19.592-20.251,10.3" transform="translate(19.307 10.111)" fill="#d8a178"/>
            <path id="Trazado_211758" data-name="Trazado 211758" d="M130.924,85.412a.326.326,0,0,0,.217-.505c-.048-.072-4.781-7.229.012-11.728a7.24,7.24,0,0,1,5.339-2.248,9.023,9.023,0,0,1,5.6,2.828.327.327,0,0,0,.491-.43,9.532,9.532,0,0,0-6.05-3.05A7.871,7.871,0,0,0,130.7,72.7c-5.2,4.882-.157,12.494-.106,12.57a.327.327,0,0,0,.325.14" transform="translate(19.717 10.772)" fill="#683935"/>
            <path id="Trazado_211759" data-name="Trazado 211759" d="M137.805,76.994a.327.327,0,0,0,.1-.614c-.061-.031-6.13-3.073-9.47,1.617a.327.327,0,1,0,.532.38c3.014-4.233,8.583-1.442,8.639-1.414a.321.321,0,0,0,.2.031" transform="translate(19.72 11.557)" fill="#683935"/>
            <path id="Trazado_211760" data-name="Trazado 211760" d="M138.774,37.074S146.6,52.56,149.043,76.1c1.9,18.37-10.9,37.871-33.177,41.651-20.938,3.553-43.719-2.664-53.354-31.549S59.748,32.812,85.9,23.462s45.5-4.162,52.878,13.613" transform="translate(8.965 2.878)" fill="#ebbc8e"/>
            <path id="Trazado_211761" data-name="Trazado 211761" d="M95.549,84.9c-.606,3.108-5.813,4.708-11.632,3.575s-10.046-4.571-9.44-7.678,5.812-4.707,11.631-3.574S96.153,81.8,95.549,84.9" transform="translate(11.432 11.784)" fill="#d8a178"/>
            <path id="Trazado_211762" data-name="Trazado 211762" d="M135.211,79.593c.681,3.066-3.422,6.586-9.164,7.862s-10.949-.175-11.63-3.242,3.422-6.586,9.163-7.862,10.949.175,11.631,3.242" transform="translate(17.565 11.635)" fill="#d8a178"/>
            <path id="Trazado_211763" data-name="Trazado 211763" d="M79.129,61.137s-3.26-2.877,3.6-6.513,9.28-2.848,10.4-1.046c1.022,1.643-.543,4.12-4.438,6.083-4.676,2.357-7.793,3.132-9.563,1.477" transform="translate(12.037 7.974)" fill="#d99e2e"/>
            <path id="Trazado_211764" data-name="Trazado 211764" d="M130.682,59.885s2.438-3.309-5.157-5.768-9.745-1.317-10.376.609c-.575,1.758,1.577,3.92,5.862,5.219,5.144,1.561,8.371,1.825,9.671-.06" transform="translate(17.675 8.075)" fill="#d99e2e"/>
            <path id="Trazado_211765" data-name="Trazado 211765" d="M123.317,69.945c.007,2.206-1.454,4-3.264,4.005s-3.283-1.778-3.291-3.983,1.455-4,3.264-4.005,3.284,1.778,3.291,3.983" transform="translate(17.937 10.11)"/>
            <path id="Trazado_211766" data-name="Trazado 211766" d="M91.993,69.945c.008,2.206-1.454,4-3.264,4.005s-3.283-1.778-3.291-3.983,1.455-4,3.264-4.005,3.284,1.778,3.291,3.983" transform="translate(13.125 10.11)"/>
            <path id="Trazado_211767" data-name="Trazado 211767" d="M71.113,89.288a.327.327,0,0,1-.344-.429c.028-.082,2.687-8.239-3.129-11.3A7.237,7.237,0,0,0,61.9,76.81a9.023,9.023,0,0,0-4.642,4.213.327.327,0,0,1-.588-.285,9.522,9.522,0,0,1,5.021-4.548,7.871,7.871,0,0,1,6.26.788c6.309,3.324,3.474,12,3.444,12.09a.326.326,0,0,1-.276.22" transform="translate(8.7 11.629)" fill="#683935"/>
            <path id="Trazado_211768" data-name="Trazado 211768" d="M61.72,83.1a.327.327,0,0,1-.255-.565c.05-.047,5.092-4.594,9.559-.96a.327.327,0,0,1-.412.508c-4.032-3.279-8.658.892-8.7.933a.325.325,0,0,1-.188.084" transform="translate(9.426 12.292)" fill="#683935"/>
            <path id="Trazado_211769" data-name="Trazado 211769" d="M108.968,81.764a.325.325,0,0,1-.137-.619,8.763,8.763,0,0,0,3.76-3.547c.9-1.826.606-4.563-.608-5.743a2.286,2.286,0,0,0-2.856-.164c-.036.018-.092.053-.17.1-3.983,2.33-5.785,1.3-6.6.016-1.489-2.349-.27-20.936-.126-23.048a.325.325,0,0,1,.648.045c-.389,5.679-1.137,20.82.025,22.656.958,1.51,2.884,1.435,5.724-.228.088-.051.153-.09.2-.112a2.917,2.917,0,0,1,3.609.272c1.415,1.376,1.762,4.411.738,6.495a9.254,9.254,0,0,1-4.071,3.851.322.322,0,0,1-.133.03" transform="translate(15.611 7.42)" fill="#683935"/>
            <path id="Trazado_211770" data-name="Trazado 211770" d="M103.979,87.923c2.118.692,3.775-.442,4.936-1.816A28.03,28.03,0,0,0,99.66,82.4c.509,2,1.667,4.658,4.319,5.525" transform="translate(15.309 12.635)" fill="#cc555f"/>
            <path id="Trazado_211771" data-name="Trazado 211771" d="M99.319,80.3a13.5,13.5,0,0,0,.393,2.418,28.03,28.03,0,0,1,9.255,3.709,12.732,12.732,0,0,0,1.951-3.306c-3.955-2.846-11.6-2.821-11.6-2.821" transform="translate(15.257 12.313)"/>
            <path id="Trazado_211772" data-name="Trazado 211772" d="M61.653,81.925s41.419-12.259,49.233-46.289c0,0,36.052,46.671,49.1,33.044,0,0,4.711-41.154-23.159-52.5-15.29-6.221-27.1-2.961-27.1-2.961-20.532-2.831-33.01-5.264-54.552,13.891-22.182,19.722-16.16,65.23,6.481,54.811" transform="translate(6.341 1.714)" fill="#e19e2c"/>
            <path id="Trazado_211773" data-name="Trazado 211773" d="M18.264,185.544A43.146,43.146,0,0,1,13.426,146a87.381,87.381,0,0,1,4.812-9.959c2.834-5.286,5.766-10.753,6.553-16.726.652-4.95-.19-10.122-1.006-15.123-1.1-6.772-2.243-13.773.4-20.162,2.17-5.25,6.517-9.093,10.722-12.81a68.519,68.519,0,0,0,6.843-6.637,33.067,33.067,0,0,0,7.6-24.3l.7-.07a33.777,33.777,0,0,1-7.762,24.821,69.12,69.12,0,0,1-6.912,6.707C31.035,75.576,26.941,79.2,24.831,84.3c-2.566,6.205-1.492,12.8-.354,19.781.823,5.052,1.673,10.274,1.008,15.327-.8,6.1-3.765,11.625-6.63,16.966a87.064,87.064,0,0,0-4.775,9.877,42.438,42.438,0,0,0,4.759,38.9Z" transform="translate(1.641 6.155)" fill="#e19e2c"/>
            <path id="Trazado_211774" data-name="Trazado 211774" d="M42.26,85.18c-.661,0-1.32-.009-1.981-.029l.02-.7A71.609,71.609,0,0,0,88.13,67.676a71.627,71.627,0,0,0,24.345-44.457l.7.093a72.343,72.343,0,0,1-24.588,44.9A72.4,72.4,0,0,1,42.26,85.18" transform="translate(6.187 3.544)" fill="#e19e2c"/>
            <path id="Trazado_211775" data-name="Trazado 211775" d="M149.175,66.937A78.731,78.731,0,0,1,92.5,15.4l.666-.217a78.015,78.015,0,0,0,56.163,51.074Z" transform="translate(14.209 2.309)" fill="#e19e2c"/>
            <path id="Trazado_211776" data-name="Trazado 211776" d="M86.642,186.7c6.381-.546,12.771-.991,19.181-1.147,11.772-.287,24.785.082,37.141,2.594-.76-2.959-1.234-4.672-1.234-4.672l-67.682-.18c-.689.769-1.432,1.68-2.21,2.706q7.4.277,14.8.7" transform="translate(11.035 28.134)" fill="#42354c"/>
            <path id="Trazado_211777" data-name="Trazado 211777" d="M105.383,185.306a2.185,2.185,0,0,0-3.507.058q1.739-.038,3.507-.058" transform="translate(15.65 28.312)" fill="#2f2537"/>
            <path id="Trazado_211778" data-name="Trazado 211778" d="M116.367,118.767c9.976,1.812,19.776,5.479,25.3,12.6,8.224,13.172,19.027,28.2,19.027,28.2l11.288-34.53s6.115-12.564,9.146-12.762.045,5.7.045,5.7,10.257-10.473,11.748-8.476-6.593,9.9-6.593,9.9,11.091-8.544,12.293-5.341c.633,1.914-9.529,8.168-9.529,8.168s10.62-5.55,11.413-3.561-9.626,6.88-9.626,6.88,8.889-3.394,9.563-1.291c.572,1.782-9.25,7.3-15.185,9.829-1.086,11.367-5.455,43.369-20.63,50.647-16.068,7.707-32.15-24.652-36.147-33.406" transform="translate(17.876 16.758)" fill="#ebbc8e"/>
            <path id="Trazado_211779" data-name="Trazado 211779" d="M153.3,157.983a.254.254,0,0,1-.1-.02.26.26,0,0,1-.147-.339c.028-.068,2.783-7.006,4.038-10.845a.261.261,0,1,1,.5.163c-1.26,3.854-4.022,10.807-4.049,10.876a.262.262,0,0,1-.242.165" transform="translate(23.509 22.497)" fill="#683935"/>
            <path id="Trazado_211780" data-name="Trazado 211780" d="M124.43,117.689s4.716-4.978,7.336-4.978-1.047,6.288.262,8.646,4.978.786,5.24,4.191-3.929,5.241-.786,8.384,6.55,4.454,4.716,7.336a34.55,34.55,0,0,0-3.144,7.6Z" transform="translate(19.114 17.291)" fill="#7671af"/>
            <path id="Trazado_211781" data-name="Trazado 211781" d="M63.239,195.314c15.8-42.16,29.177-55.586,29.177-55.586l-9.2-14.522a10.858,10.858,0,0,0-5.888-4.538c-4.426-1.405-11.264.766-15.91,8.893-10.928,20.194-17.864,45.113-22.139,65.765q11.976-.232,23.961-.013" transform="translate(6.034 18.452)" fill="#ebbc8e"/>
            <path id="Trazado_211782" data-name="Trazado 211782" d="M65.154,155.062l9.17,38.9c7.368,1.817,18.067,2.318,28.791,2.209,1.245-.051,2.49-.1,3.735-.132,1.6-.039,3.221-.063,4.859-.075,16.173-.593,30.3-2.182,30.3-2.182s6.445-26.4,6.266-38.068c-.262-17.161-11.069-38.908-13.951-39.17s-13.756-.72-13.756-.72c-18.34,4.454-32.338-.505-32.338-.505a49.474,49.474,0,0,0-18.457,1.389s7.7,7.565,7.172,22.5-11.79,15.851-11.79,15.851" transform="translate(10.009 17.646)" fill="#7671af"/>
            <path id="Trazado_211783" data-name="Trazado 211783" d="M95.005,173.384a.311.311,0,0,1-.155-.58,54.745,54.745,0,0,0,23.711-27.3.312.312,0,0,1,.579.231A55.375,55.375,0,0,1,95.16,173.344a.3.3,0,0,1-.155.04" transform="translate(14.547 22.299)" fill="#4d4b82"/>
            <path id="Trazado_211784" data-name="Trazado 211784" d="M104.47,182.423a.311.311,0,0,1-.225-.526,60.047,60.047,0,0,0,14.09-24.488.312.312,0,0,1,.6.173A60.669,60.669,0,0,1,104.7,182.326a.307.307,0,0,1-.225.1" transform="translate(16.001 24.123)" fill="#4d4b82"/>
            <path id="Trazado_211785" data-name="Trazado 211785" d="M70.05,116.726s-4.88-3.307-6.452-.949,4.716,6.55,6.026,8.121-4.716,3.669-3.93,6.55,6.027,4.454,5.5,8.123-5.765,5.763-5.765,8.383v8.123s11.528.262,12.052-14.673-7.434-23.678-7.434-23.678" transform="translate(9.731 17.632)" fill="#7671af"/>
            <path id="Trazado_211786" data-name="Trazado 211786" d="M173.2,130.864a.236.236,0,0,1-.04,0,.262.262,0,0,1-.218-.3,20.733,20.733,0,0,0-1.191-10.731.261.261,0,0,1,.486-.192,21.266,21.266,0,0,1,1.221,11,.26.26,0,0,1-.257.22" transform="translate(26.381 18.331)" fill="#683935"/>
          </g>
        </g>
        <g id="Grupo_984020" data-name="Grupo 984020" transform="translate(0 -22.706)">
          <g id="Grupo_984019" data-name="Grupo 984019">
            <path id="Trazado_211787" data-name="Trazado 211787" d="M218.109,19.435H163.673c-3.347,0-6.916.163-6.916,5.036s-.756,35.212-.084,39.806c.557,3.817,2.538,5.672,10.793,5.835s45.515-.115,49.751,0c2.676.073,7.7.073,8.031-5.684.34-5.863.248-33.866.213-39.143.035-6.254-7.353-5.848-7.353-5.848" transform="translate(872.258 3466.276)" fill="#e28279"/>
            <path id="Trazado_211788" data-name="Trazado 211788" d="M187.775,61.132s-.434,8.686-3.908,15.2c0,0,11.075-1.954,14.549-16.721Z" transform="translate(876.479 3472.449)" fill="#e28279"/>
          </g>
          <path id="Trazado_211789" data-name="Trazado 211789" d="M213.23,29.9H165.939c-.323,0-.668.01-.668.33s-.074,2.307-.008,2.608c.053.249.245.371,1.042.382s46.428-.006,46.838,0c.26,0,.744,0,.776-.373s.024-2.218.021-2.564c0-.41-.709-.383-.709-.383" transform="translate(873.616 3467.884)" fill="#fff"/>
          <path id="Trazado_211790" data-name="Trazado 211790" d="M213.23,40.836H165.939c-.323,0-.668.01-.668.33s-.074,2.307-.008,2.608c.053.249.245.371,1.042.382s46.428-.006,46.838,0c.26,0,.744,0,.776-.373s.024-2.218.021-2.564c0-.41-.709-.383-.709-.383" transform="translate(873.616 3469.564)" fill="#fff"/>
          <path id="Trazado_211791" data-name="Trazado 211791" d="M213.23,52.27H165.939c-.323,0-.668.01-.668.33s-.074,2.307-.008,2.608c.053.249.245.371,1.042.382s46.428-.006,46.838,0c.26,0,.744,0,.776-.373s.024-2.218.021-2.564c0-.41-.709-.383-.709-.383" transform="translate(873.616 3471.32)" fill="#fff"/>
        </g>
      </g>
    </g>
  </g>
</svg>
