<svg xmlns="http://www.w3.org/2000/svg" xmlns:xlink="http://www.w3.org/1999/xlink" width="86" height="86" viewBox="0 0 86 86">
  <defs>
    <clipPath id="clip-path">
      <rect id="Rectángulo_338931" data-name="Rectángulo 338931" width="47.6" height="54.401" fill="none"/>
    </clipPath>
  </defs>
  <g id="Grupo_984026" data-name="Grupo 984026" transform="translate(-443 -1234)">
    <circle id="Elipse_4886" data-name="Elipse 4886" cx="43" cy="43" r="43" transform="translate(443 1234)" fill="#6b8dfc"/>
    <g id="Grupo_984025" data-name="Grupo 984025" transform="translate(462 1250)">
      <g id="Grupo_984024" data-name="Grupo 984024" transform="translate(0 0)" clip-path="url(#clip-path)">
        <path id="Trazado_211792" data-name="Trazado 211792" d="M47.039,46.847a.8.8,0,0,1,.561.857c-.01,1.078.014,2.157-.014,3.234A3.488,3.488,0,0,1,44.7,54.3c-.036.007-.062.065-.092.1H2.975c-.181-.158-.422-.146-.631-.225A3.612,3.612,0,0,1,0,50.768C0,47.688,0,44.608,0,41.529c0-3.616,1.842-5.994,4.994-7.518a23.078,23.078,0,0,1,5.8-1.595c2.236-.433,4.471-.871,6.71-1.288.345-.064.462-.2.445-.545a8.619,8.619,0,0,0-.044-1.848c-.16-.572-.859-.78-1.288-1.189a9.368,9.368,0,0,1-2.928-5.62c-.046-.333-.136-.507-.523-.574a2.386,2.386,0,0,1-1.925-2.179c-.04-.582-.03-1.168-.019-1.751a.607.607,0,0,0-.338-.631,2.213,2.213,0,0,1-1.143-2.276,2.184,2.184,0,0,1,1.6-1.976c.365-.117.433-.29.425-.632a11.143,11.143,0,0,1,2.254-7.19A11.441,11.441,0,0,1,23.153.013,12.031,12.031,0,0,1,30.752,2a11.411,11.411,0,0,1,5.1,9.781c0,.444.085.649.549.813a2.174,2.174,0,0,1,1.481,2.017,2.2,2.2,0,0,1-1.1,2.147.7.7,0,0,0-.384.708,9.722,9.722,0,0,1-.06,1.959A2.417,2.417,0,0,1,34.4,21.363a.48.48,0,0,0-.468.491,9.424,9.424,0,0,1-4.007,6.539.558.558,0,0,0-.27.524c.018.548.032,1.1,0,1.645-.024.356.1.491.437.554,1.891.356,3.783.712,5.668,1.1a31.75,31.75,0,0,1,6.162,1.5,9.025,9.025,0,0,1,4.82,4.024,7.193,7.193,0,0,1,.833,3.149c.035,1.15.011,2.3.024,3.451a.789.789,0,0,1-.558.858c-.775.166-1.16-.124-1.192-.947-.035-.9-.021-1.8-.008-2.7a6.039,6.039,0,0,0-3.385-5.679,6.532,6.532,0,0,0-1.245-.582,13.7,13.7,0,0,0-2.7-.75c-.235-.045-.441-.054-.436.269.025,1.378-.089,2.758.065,4.132a6.633,6.633,0,0,0,.8,2.511,10.429,10.429,0,0,1,1.26,5.353c-.026,1.732-.009,3.464,0,5.2,0,.615.046.654.67.659.919.008,1.837-.009,2.756.007a2.178,2.178,0,0,0,1.457-.357,1.835,1.835,0,0,0,.749-1.5c.012-.863,0-1.726,0-2.589a3.611,3.611,0,0,1,.03-.633.835.835,0,0,1,1.178-.727" transform="translate(0 0)"/>
        <path id="Trazado_211793" data-name="Trazado 211793" d="M82.617,70.348A6.471,6.471,0,0,1,87.3,76.527c0,.937,0,1.873.005,2.809,0,.811.247,1.049,1.038,1.026a1.639,1.639,0,0,0,0,1.659c-.8,0-1.031.226-1.035,1.029,0,.9,0,1.795,0,2.692a2.02,2.02,0,0,1-2.359,2.223c-.221-.258-.154-.571-.154-.865,0-3.732.006-7.463-.009-11.195a7.772,7.772,0,0,0-.633-3.2A5.265,5.265,0,0,0,83,71c-.184-.175-.427-.337-.381-.655" transform="translate(-41.305 -35.174)" fill="#a7d2d7"/>
        <path id="Trazado_211794" data-name="Trazado 211794" d="M39.948,44.239a6.867,6.867,0,0,1-3.743.739,8.689,8.689,0,0,1-6.874-3.745,7.6,7.6,0,0,1-1.391-4.165c-.031-.8-.252-1.016-1.077-1.03-1.036-.018-1.289-.263-1.278-1.292,0-.455-.2-1.041.091-1.331s.874-.081,1.329-.093c.584-.016,1.169-.026,1.751,0a.86.86,0,0,0,1.015-.772,1.846,1.846,0,0,1,1.562,0,.874.874,0,0,0,.653.77,1.543,1.543,0,0,0,.578.037c3.31,0,6.619.007,9.928,0,.366,0,.592.085.579.483a46.227,46.227,0,0,1-.237,5.554,8.467,8.467,0,0,1-2.056,4.192,3.365,3.365,0,0,1-.829.655" transform="translate(-12.761 -16.19)" fill="#ba5d4c"/>
        <path id="Trazado_211795" data-name="Trazado 211795" d="M25.249,86.2c-2.158,0-4.317-.009-6.475.008-.376,0-.473-.1-.469-.473.011-1.126-.005-1.126,1.135-1.126q3.238,0,6.475,0c1.053,0,1.505-.472,1.5-1.534,0-.708.005-1.416.005-2.123,0-1.16-.373-1.585-1.544-1.6-2.034-.021-4.068.012-6.1.02-.354,0-.709-.021-1.062,0s-.413-.135-.38-.449A7.168,7.168,0,0,1,19.2,76a10.412,10.412,0,0,0,1.269-5.716c-.024-.849-.014-1.7-.036-2.547-.008-.3.1-.428.408-.478.767-.124,1.528-.282,2.286-.452a.394.394,0,0,1,.477.2c2.385,3.465,4.791,6.916,7.157,10.394a8.63,8.63,0,0,1,1.41,4.87c.013,1.168-.012,2.336.012,3.5.007.365-.121.435-.455.433-2.158-.014-4.317-.007-6.475-.007" transform="translate(-9.152 -33.395)" fill="#fe9738"/>
        <path id="Trazado_211796" data-name="Trazado 211796" d="M56.125,86.216c-2.14,0-4.281-.01-6.421.009-.385,0-.52-.077-.5-.489.064-1.625-.1-3.256.114-4.876a8.723,8.723,0,0,1,1.544-3.848q3.425-4.949,6.844-9.9a.511.511,0,0,1,.643-.265c.719.179,1.45.315,2.182.428.317.049.4.177.4.479-.018,1.132-.006,2.265-.019,3.4a9.208,9.208,0,0,0,1.188,4.722,8.052,8.052,0,0,1,.928,2.963c.051.388-.008.559-.472.554-2.335-.025-4.67-.013-7-.011-1.2,0-1.612.422-1.614,1.639,0,.743-.011,1.487,0,2.229a1.268,1.268,0,0,0,1.394,1.379c2.406.006,4.811.011,7.217-.006.381,0,.516.07.507.486-.025,1.114,0,1.114-1.09,1.114H56.125" transform="translate(-24.599 -33.408)" fill="#fe8609"/>
        <path id="Trazado_211797" data-name="Trazado 211797" d="M11.27,71.058a9.083,9.083,0,0,1-1.178,5.352,8.869,8.869,0,0,0-.955,4.407c-.026,1.946.122,3.891.036,5.837-.016.355-.093.477-.47.468-1.1-.027-2.193-.008-3.29-.01a2.036,2.036,0,0,1-2.244-2.226c0-2.884.056-5.769-.016-8.651A6.478,6.478,0,0,1,7.4,69.68a14.542,14.542,0,0,1,3.431-1.049c.324-.057.471-.033.449.364-.038.67-.01,1.344-.01,2.063" transform="translate(-1.576 -34.304)" fill="#ddebf0"/>
        <path id="Trazado_211798" data-name="Trazado 211798" d="M40.745,4.692q.01,1.007.019,2.014A1.3,1.3,0,0,0,41.7,8.084a3.925,3.925,0,0,0,2.241.123.773.773,0,0,1,.3.359,11.473,11.473,0,0,1,1.14,4.924c.013.673-.049.712-.725.712q-8.678,0-17.356,0a1.169,1.169,0,0,1-.524-.042,9.193,9.193,0,0,1,.869-4.987,8.848,8.848,0,0,1,1.475-2.26,2.688,2.688,0,0,0,4.071.824,1.155,1.155,0,0,0,.359-.9c-.009-.8.027-1.594-.014-2.387-.021-.425.139-.584.523-.682C35,3.521,35,3.506,35,4.476q0,2.335,0,4.67a1.249,1.249,0,0,0,.921,1.376,3.345,3.345,0,0,0,2.486.005,1.342,1.342,0,0,0,.944-1.378c-.008-1.768.012-3.536.021-5.3a1.779,1.779,0,0,1,1.376.848" transform="translate(-13.357 -1.812)" fill="#fe9738"/>
        <path id="Trazado_211799" data-name="Trazado 211799" d="M79.213,69.444a8.3,8.3,0,0,1,1.711,2.325,7.755,7.755,0,0,1,.611,2.926c.029,4.122.011,8.244.011,12.365-1.095.006-2.19,0-3.284.027-.369.01-.338-.19-.337-.426.006-1.908,0-3.817.017-5.725a10.047,10.047,0,0,0-1.275-5.229,6.617,6.617,0,0,1-.853-3.242c-.02-1.288,0-2.577,0-3.927a12.792,12.792,0,0,1,3.4.9" transform="translate(-37.901 -34.269)" fill="#ddebf0"/>
        <path id="Trazado_211800" data-name="Trazado 211800" d="M29.894,30.369H28.333c-.168-.664-.355-.822-1.023-.825-1.239,0-2.478,0-3.717,0-.612,0-.941-.271-.949-.754s.317-.776.923-.776q11.549,0,23.1,0c.6,0,.952.29.96.754.008.483-.359.777-.99.777q-7.805,0-15.61,0c-.777,0-.951.131-1.13.826" transform="translate(-11.322 -14.004)" fill="#fe8609"/>
        <path id="Trazado_211801" data-name="Trazado 211801" d="M46.412,45.17a10.007,10.007,0,0,0,2.142-3,7.945,7.945,0,0,0,.731-3.115c.008-.74,0-1.477.073-2.22.069-.67-.019-1.361.031-2.042.026-.348-.1-.461-.452-.457-1.292.016-2.584.006-3.876.006q-3.026,0-6.052,0c-.188,0-.393.064-.559-.089q7.592,0,15.182-.012c.335,0,.431.113.415.431-.022.424.006.85-.009,1.274A.972.972,0,0,1,53,36.976c-.071,0-.142,0-.213,0-.913.011-1.108.189-1.147,1.125a7.458,7.458,0,0,1-.678,2.816,8.242,8.242,0,0,1-4.25,4.184.412.412,0,0,1-.3.069" transform="translate(-19.224 -17.121)" fill="#a34f3e"/>
        <path id="Trazado_211802" data-name="Trazado 211802" d="M45.192,64.3a12.027,12.027,0,0,1-1.568.983.582.582,0,0,1-.641.006,13.638,13.638,0,0,1-2.771-1.936,3.212,3.212,0,0,1-1.188-2.807c.051-.454-.149-1.116.085-1.322.273-.242.81.2,1.239.325a11.173,11.173,0,0,0,4.719.3c.284.015.276.251.281.426.036,1.2.028,2.393.007,3.589a.773.773,0,0,1-.164.438" transform="translate(-19.497 -29.576)" fill="#ba5d4c"/>
        <path id="Trazado_211803" data-name="Trazado 211803" d="M44.3,82.524a37.864,37.864,0,0,0-3.2-5c-.06-.091-.255-.233.017-.314a15.091,15.091,0,0,0,2.817-1.552.632.632,0,0,1,.714,0,16.6,16.6,0,0,0,2.817,1.555c.294.093.049.256-.017.353q-.743,1.1-1.508,2.179A14.394,14.394,0,0,0,44.3,82.524" transform="translate(-20.489 -37.775)" fill="#ddebf0"/>
        <path id="Trazado_211804" data-name="Trazado 211804" d="M26.834,17.357l17.721-.008c.721,0,.732,0,.719-.707A11.807,11.807,0,0,0,44.1,11.7,2.99,2.99,0,0,1,44,11.4c.593-.261,1.165-.542,1.2-1.384a9.887,9.887,0,0,1,2.315,4.768c.125.663.124,1.338.189,2.006.052.535-.155.645-.652.631-1.238-.035-2.478-.01-3.717-.01q-7.964,0-15.929,0c-.188,0-.388.063-.567-.056" transform="translate(-13.417 -5.01)" fill="#fe8609"/>
        <path id="Trazado_211805" data-name="Trazado 211805" d="M22.019,97.109c-1.1,0-2.192-.013-3.287.008-.356.007-.519-.069-.477-.459.057-.522-.217-1.2.113-1.53.3-.3.977-.08,1.487-.083,1.821-.009,3.641.007,5.461-.013.371,0,.5.095.465.468a6.522,6.522,0,0,0,0,1.165c.038.395-.124.459-.476.451-1.1-.022-2.192-.008-3.287-.008" transform="translate(-9.101 -47.485)" fill="#fef056"/>
        <path id="Trazado_211806" data-name="Trazado 211806" d="M65.619,97.177c-1.132,0-2.263-.009-3.395.007-.3,0-.4-.084-.387-.387.023-.441.02-.885,0-1.326-.012-.279.09-.366.364-.365q3.422.012,6.843,0c.264,0,.329.1.32.339a13.168,13.168,0,0,0,0,1.326c.021.324-.072.422-.406.415-1.114-.022-2.228-.009-3.342-.009" transform="translate(-30.918 -47.552)" fill="#fef056"/>
        <path id="Trazado_211807" data-name="Trazado 211807" d="M50.91,69.465A16.287,16.287,0,0,0,53.1,67.912a6.093,6.093,0,0,0,1.778-2.34c.082-.211.157-.312.417-.244.461.119.933.195,1.4.274.266.044.4.1.193.393-.885,1.257-1.734,2.54-2.642,3.78-.668.913-1.191.98-2.158.4l-1.177-.709" transform="translate(-25.455 -32.653)" fill="#8db9c4"/>
        <path id="Trazado_211808" data-name="Trazado 211808" d="M38.238,69.49c-.607.355-1.16.692-1.724,1.007a.909.909,0,0,1-.911-.071,2.414,2.414,0,0,1-.839-.794c-.823-1.191-1.637-2.389-2.473-3.571-.219-.309-.158-.4.193-.451a4.69,4.69,0,0,1,1.5-.249c.49.106.5.8.8,1.2a10.961,10.961,0,0,0,3.01,2.64l.452.29" transform="translate(-16.082 -32.67)" fill="#8db9c4"/>
        <path id="Trazado_211809" data-name="Trazado 211809" d="M51.266,64.294q0-1.984,0-3.967c0-.171.047-.36-.128-.487a14.69,14.69,0,0,0,2.162-.648c.294-.13.33,0,.328.246-.006.652.019,1.305-.015,1.955a2.878,2.878,0,0,1-1.006,1.8,6.184,6.184,0,0,1-1.346,1.1" transform="translate(-25.571 -29.571)" fill="#a34f3e"/>
        <path id="Trazado_211810" data-name="Trazado 211810" d="M46.453,6.024c0-.813.013-1.626-.007-2.438-.007-.3.091-.383.387-.383.779,0,.779-.016.779.786,0,1.484-.02,2.968.012,4.451.01.481-.231.508-.585.505-.338,0-.621.015-.6-.485.038-.811.01-1.625.01-2.437" transform="translate(-23.22 -1.602)" fill="#fca85b"/>
        <path id="Trazado_211811" data-name="Trazado 211811" d="M57.993,5.673a3.922,3.922,0,0,1,1,.58A2.138,2.138,0,0,1,59.126,7.6c-.277.246-.63.136-.952.1-.221-.021-.178-.221-.182-.374,0-.053,0-.105,0-.158v-1.5" transform="translate(-28.995 -2.836)" fill="#fb9638"/>
        <path id="Trazado_211812" data-name="Trazado 211812" d="M36,5.765c0,.592.022,1.165-.007,1.736-.022.427-.392.255-.617.268s-.5.1-.544-.306c-.1-.972.108-1.307,1.168-1.7" transform="translate(-17.404 -2.882)" fill="#fba75b"/>
        <path id="Trazado_211813" data-name="Trazado 211813" d="M53.4,4.7a7.239,7.239,0,0,0-1.376-.848c.009-.065.008-.181.029-.185a2.2,2.2,0,0,1,1.253.252c.237.1.079.412.11.626A.642.642,0,0,1,53.4,4.7" transform="translate(-26.012 -1.824)" fill="#fa850a"/>
      </g>
    </g>
  </g>
</svg>
