<svg xmlns="http://www.w3.org/2000/svg" xmlns:xlink="http://www.w3.org/1999/xlink" width="86" height="86" viewBox="0 0 86 86">
  <defs>
    <clipPath id="clip-path">
      <rect id="Rectángulo_338933" data-name="Rectángulo 338933" width="46.626" height="56" fill="none"/>
    </clipPath>
  </defs>
  <g id="Grupo_984032" data-name="Grupo 984032" transform="translate(-1073 -1234)">
    <circle id="Elipse_4888" data-name="Elipse 4888" cx="43" cy="43" r="43" transform="translate(1073 1234)" fill="#6b8dfc"/>
    <g id="Grupo_984031" data-name="Grupo 984031" transform="translate(1093 1249)">
      <g id="Grupo_984030" data-name="Grupo 984030" clip-path="url(#clip-path)">
        <path id="Trazado_211844" data-name="Trazado 211844" d="M24.4,0c.767.191,1.559.231,2.331.417A15.84,15.84,0,0,1,36.843,7.742a16.041,16.041,0,0,1,2.333,8.738c-.024,3.372,0,6.745-.013,10.117,0,.359.075.5.464.531a3.682,3.682,0,0,1,2.8,5.451c-.219.38-.167.464.211.621a6.522,6.522,0,0,1,2.793,9.784c-.417.591-.416.591-.969.106-.054-.048-.116-.087-.174-.131-.806-.335-.872-.576-.418-1.3a4.311,4.311,0,0,0,.217-4.524A4.254,4.254,0,0,0,40.2,34.727c-1.639-.035-3.28,0-4.92-.01-.832,0-.954-.13-.966-.946-.018-1.208,0-1.224,1.2-1.225q1.558,0,3.116,0a3.218,3.218,0,0,0,1.025-.137,1.673,1.673,0,0,0,1.208-1.795,1.635,1.635,0,0,0-1.632-1.469,5.051,5.051,0,0,1-1.087-.08,1.155,1.155,0,0,1-.977-1.26c-.017-1.257,0-2.515-.005-3.772,0-2.606.022-5.212,0-7.818a13.851,13.851,0,0,0-6.114-11.73A12.988,12.988,0,0,0,22.96,2.036a13.454,13.454,0,0,0-9.285,3.933A13.713,13.713,0,0,0,9.469,16.13c-.009,3.681,0,7.362,0,11.043,0,.2,0,.4,0,.6a1.232,1.232,0,0,1-1.221,1.342,8.534,8.534,0,0,1-.873.028A1.63,1.63,0,0,0,5.785,30.47a1.675,1.675,0,0,0,1,1.871,2.934,2.934,0,0,0,1.176.206c1.166,0,2.333-.007,3.5,0,.747.006.839.106.851.862.02,1.243-.043,1.308-1.264,1.309q-2.213,0-4.428,0a4.488,4.488,0,1,0-.1,8.976c1.621.033,3.244,0,4.865.009.846,0,.923.086.93.95.01,1.212,0,1.222-1.2,1.222-1.586,0-3.171.016-4.756-.008a2.921,2.921,0,0,1-1.729-.375,7.851,7.851,0,0,1-3.078-2.076,6.531,6.531,0,0,1,2.374-10.2c.164-.07.326-.144.491-.217-.995-1.835-.9-3.393.291-4.71a3.32,3.32,0,0,1,2.22-1.153c.42-.034.536-.158.534-.581-.016-3.7-.1-7.4.017-11.1a15.416,15.416,0,0,1,6.68-12.522A15.1,15.1,0,0,1,21.665.107c.088-.009.185,0,.224-.107h.219a8.775,8.775,0,0,0,2.187,0Z" transform="translate(0)"/>
        <path id="Trazado_211845" data-name="Trazado 211845" d="M73.43,0a4.465,4.465,0,0,1-2.187,0Z" transform="translate(-49.136)" fill="#313131"/>
        <path id="Trazado_211846" data-name="Trazado 211846" d="M8.758,49.515c2.331.434,4.687.15,7.029.239.343.013.469-.067.471-.443.006-1.427.02-1.41-1.394-1.431A42.794,42.794,0,0,1,9.9,47.8a4.632,4.632,0,0,1,.362-9.191c1.8-.078,3.607-.043,5.411-.027.433,0,.6-.079.592-.557-.026-1.323,0-1.323-1.344-1.323-1.093,0-2.187.018-3.28-.008a1.869,1.869,0,0,1-1.271-3.277,1.786,1.786,0,0,1,1.148-.442c.237-.007.474,0,.711-.01.892-.018,1.219-.341,1.219-1.229,0-3.845-.038-7.69.01-11.535.076-6.08,2.842-10.55,8.367-13.085a13.107,13.107,0,0,1,12.938.947,13.84,13.84,0,0,1,6.428,9.354,15.4,15.4,0,0,1,.261,3.153q-.011,5.549,0,11.1c0,1,.294,1.289,1.309,1.3.255,0,.511,0,.764.027a1.824,1.824,0,0,1,1.646,1.745,1.784,1.784,0,0,1-1.524,1.9,31.715,31.715,0,0,1-3.712.061c-1.3.015-1.28,0-1.305,1.309-.009.454.115.583.573.575,1.658-.028,3.317-.034,4.975,0a4.625,4.625,0,0,1,4.7,5.128,3.818,3.818,0,0,1-.786,2.119c-.327.408-.338.667.106.94a1.4,1.4,0,0,1,.229.223l-1.613.006c-.2-.063-.249-.249-.322-.414a6.349,6.349,0,0,0-6.241-4.116q-3.226.005-6.452,0c-.833,0-.918-.083-.921-.9-.005-1.294.007-2.588-.006-3.882a1.2,1.2,0,0,1,.578-1.1,10.981,10.981,0,0,0,4.926-7.618,8.346,8.346,0,0,0,.078-1.362q0-2.132,0-4.265c0-.433.09-.76.613-.775.278-.008.363-.2.369-.447,0-.164-.008-.329.006-.492.038-.446-.154-.613-.6-.61a14.977,14.977,0,0,1-2.237-.065,2.936,2.936,0,0,1-2.526-2.125c-.372-1.105-.645-2.241-.965-3.362-.34-1.192-.665-2.388-1.009-3.578-.036-.123-.07-.245-.111-.366-.136-.4-.343-.747-.828-.74-.461.007-.658.345-.78.727-.249.781-.459,1.575-.688,2.362q-.549,1.89-1.059,3.791a4.157,4.157,0,0,1-4.486,3.359c-2.624.02-5.249,0-7.873.01-.257,0-.616-.126-.738.183a1.908,1.908,0,0,0,0,1.182c.038.143.192.168.317.171.526.017.607.355.605.783,0,1.367-.01,2.734,0,4.1a10.59,10.59,0,0,0,4.7,8.913,1.814,1.814,0,0,1,.891,1.708c-.052,1.493-.012,2.989-.018,4.483a1.078,1.078,0,0,1-.154.784,2.066,2.066,0,0,1-1.051.1,1.9,1.9,0,0,1-.714-.258,6.359,6.359,0,0,0-3.161-.719q-.956.023-1.912,0c-.4-.01-.55.147-.556.545-.013.873.1.995.985,1.012a13.039,13.039,0,0,1,2.615.1,4.807,4.807,0,0,1,1.937,8.581,4.294,4.294,0,0,1-2.692.927c-1.584-.012-3.169,0-4.754,0a2.823,2.823,0,0,1-2.843-2.041c-.233-.688-.233-.678-.943-.7-.3-.008-.627.1-.871-.18.8-.166.8-.166.854-1.181" transform="translate(-4.135 -4.023)" fill="#e9c965"/>
        <path id="Trazado_211847" data-name="Trazado 211847" d="M24.954,126.459l1.091-.049c1.395,1.737,3.084,3.191,4.626,4.787.725.75,1.2.74,1.947,0,1.166-1.154,2.329-2.31,3.476-3.482a1.758,1.758,0,0,1,1.357-.565c2.387.016,4.775-.006,7.162.011a4.849,4.849,0,0,1,4.911,4.94c.013,2.806,0,5.613,0,8.419,0,.879-.084.963-.976.963q-16.893,0-33.786,0c-.532,0-.98-.028-1.047-.723-.032-.327-.351-.24-.581-.22-.357.031-.721.161-1.052-.1.02-.028.035-.075.06-.08.258-.059.627.118.76-.1s.06-.555.06-.841c0-.938,0-1.877,0-2.815.449.15.685.572,1.052.831a4.352,4.352,0,0,0,2.531.88c1.637.007,3.274,0,4.912,0a6.316,6.316,0,0,0,6.19-5.205A6.253,6.253,0,0,0,25.352,127c-.172-.15-.414-.254-.4-.545" transform="translate(-8.335 -87.184)" fill="#2e2c44"/>
        <path id="Trazado_211848" data-name="Trazado 211848" d="M12.015,67.8a4.861,4.861,0,0,0,1.35-.1c.319-.042.554.032.489.429-.08.489.172.554.594.553q15.307-.015,30.615-.008c1.257,0,2.515-.011,3.772.007.359,0,.468-.11.466-.467-.012-3.025.022-6.05-.017-9.075a4.661,4.661,0,0,0-4.46-4.455c-2.605-.039-5.212-.006-7.818-.016a.864.864,0,0,0-.661.306q-1.907,1.92-3.825,3.829a1.13,1.13,0,0,1-1.876.015q-2.071-2.066-4.136-4.137a1.439,1.439,0,0,1-.532-.921c0-1.913-.007-3.827.016-5.739a.768.768,0,0,0-.414-.741,10.985,10.985,0,0,1-5.085-7.91,30,30,0,0,1-.115-4.2c0-.419-.028-.841.007-1.257.042-.5-.043-.823-.653-.7-.248.05-.308-.1-.3-.32a6.705,6.705,0,0,0,0-.983c-.05-.443.082-.581.553-.577,2.861.024,5.721.009,8.582.013a3.862,3.862,0,0,0,3.32-1.56,4.626,4.626,0,0,0,.679-1.538q.88-3.093,1.756-6.188a1.19,1.19,0,0,1,.628-.9c.58-.245,1.113.078,1.324.821q.988,3.488,1.968,6.979a2.875,2.875,0,0,0,3.125,2.388c.619,0,1.241.03,1.858-.01.43-.028.549.131.5.524a2.63,2.63,0,0,0,0,.546c.037.5.074.962-.691.824-.363-.065-.252.278-.254.466-.018,1.585.038,3.173-.049,4.754a10.731,10.731,0,0,1-4.8,8.579,1.464,1.464,0,0,0-.775,1.435c.065,1.29.035,2.587.009,3.88-.008.4.12.479.492.476,2.077-.017,4.158.068,6.231-.025a6.747,6.747,0,0,1,7.059,4.71,12.734,12.734,0,0,1,.231,3.091c-.006,2.9,0,5.793,0,8.689,0,.942-.305,1.253-1.232,1.253H13.206c-.907,0-1.221-.309-1.222-1.205,0-.509.02-1.017.031-1.525" transform="translate(-8.265 -14.534)"/>
        <path id="Trazado_211849" data-name="Trazado 211849" d="M24.965,124.3a10.6,10.6,0,0,1,1.885,1.953,6.426,6.426,0,0,1-.507,7.792,6.187,6.187,0,0,1-4.917,2.284q-2.351-.006-4.7,0a4.6,4.6,0,0,1-3.753-1.867,4.255,4.255,0,0,1-.858-2.763c.491,0,.981.011,1.471,0,.242-.007.329.058.371.321a2.74,2.74,0,0,0,2.85,2.461c1.493.019,2.986.022,4.479,0a4.656,4.656,0,1,0,.1-9.31q-1.2-.027-2.4,0c-.3.007-.4-.082-.408-.391-.061-1.481-.07-1.441,1.386-1.49a8.882,8.882,0,0,1,5,1.012" transform="translate(-8.346 -85.02)"/>
        <path id="Trazado_211850" data-name="Trazado 211850" d="M58.146,35.756c.417,1.449.785,2.914,1.263,4.342a4.432,4.432,0,0,0,3.865,3.157c.224.031.424.026.42.356-.022,1.767.07,3.542-.058,5.3a9.326,9.326,0,0,1-18.422.922,9.782,9.782,0,0,1-.175-1.955c0-1.367.011-2.734-.009-4.1,0-.353.088-.46.45-.456,1.968.018,3.936.013,5.9.007a5.758,5.758,0,0,0,4.207-1.635,5.89,5.89,0,0,0,1.515-2.672c.308-1.094.626-2.186.94-3.278l.1.012" transform="translate(-31.056 -24.652)" fill="#f1dabf"/>
        <path id="Trazado_211851" data-name="Trazado 211851" d="M70.546,109.338c0,1.559,0,3.12,0,4.681a.555.555,0,0,1-.219.416c-1.082,1.081-2.171,2.157-3.241,3.251-.227.232-.347.2-.557-.013q-1.588-1.619-3.206-3.209a.731.731,0,0,1-.238-.574c.01-1.4.006-2.805,0-4.208,0-.23-.049-.423.333-.3a10.787,10.787,0,0,0,6.969-.053.56.56,0,0,1,.152.009" transform="translate(-43.512 -75.401)" fill="#f1dabf"/>
        <path id="Trazado_211852" data-name="Trazado 211852" d="M67.312,90.658a3.493,3.493,0,0,1-3.4-3.02c-.046-.327-.023-.539.387-.472a1.088,1.088,0,0,0,.327,0c.428-.06.652.025.752.542a2.061,2.061,0,0,0,4-.017c.1-.464.286-.546.7-.532.89.03.891.009.674.868a3.491,3.491,0,0,1-3.447,2.631" transform="translate(-44.066 -60.107)"/>
        <path id="Trazado_211853" data-name="Trazado 211853" d="M86.561,66.959a1.623,1.623,0,0,1,1.621,1.629,1.652,1.652,0,0,1-1.633,1.632,1.627,1.627,0,0,1-1.61-1.645,1.6,1.6,0,0,1,1.623-1.616" transform="translate(-58.581 -46.181)"/>
        <path id="Trazado_211854" data-name="Trazado 211854" d="M58.066,68.587a1.63,1.63,0,0,1-1.624,1.632,1.66,1.66,0,0,1-1.627-1.642,1.632,1.632,0,0,1,1.636-1.619,1.608,1.608,0,0,1,1.615,1.628" transform="translate(-37.805 -46.181)"/>
        <path id="Trazado_211855" data-name="Trazado 211855" d="M89.92,71.683c-.029.17-.117.22-.234.216a.172.172,0,0,1-.186-.2c.011-.127.089-.179.215-.175s.163.105.2.162" transform="translate(-61.727 -49.327)" fill="#d9c5ad"/>
        <path id="Trazado_211856" data-name="Trazado 211856" d="M59.614,71.52a.174.174,0,0,1,.19.2c0,.135-.09.186-.21.177s-.211-.068-.2-.2a.2.2,0,0,1,.22-.181" transform="translate(-40.963 -49.327)" fill="#dac6ad"/>
      </g>
    </g>
  </g>
</svg>
