<svg xmlns="http://www.w3.org/2000/svg" xmlns:xlink="http://www.w3.org/1999/xlink" width="86" height="86" viewBox="0 0 86 86">
  <defs>
    <clipPath id="clip-path">
      <rect id="Rectángulo_338934" data-name="Rectángulo 338934" width="57.244" height="57.245" fill="none"/>
    </clipPath>
  </defs>
  <g id="Grupo_984035" data-name="Grupo 984035" transform="translate(-12319 10452)">
    <circle id="Elipse_4889" data-name="Elipse 4889" cx="43" cy="43" r="43" transform="translate(12319 -10452)" fill="#6b8dfc"/>
    <g id="Grupo_984034" data-name="Grupo 984034" transform="translate(12333 -10438)">
      <g id="Grupo_984033" data-name="Grupo 984033" clip-path="url(#clip-path)">
        <path id="Trazado_211857" data-name="Trazado 211857" d="M45.049,0c.619.145,1.245.266,1.856.44a10.944,10.944,0,0,1,6.822,15.278c-.208.427-.1.535.27.694a8.887,8.887,0,0,1,3.287,2.524c.423.507.407.805-.033,1.315-.409.437-.859.4-1.337-.145a8.633,8.633,0,0,0-1.4-1.326,4.235,4.235,0,0,0-.806-.479c-.051-.023-.1-.049-.15-.075-.894-.454-.914-.4-1.588.314a10.824,10.824,0,0,1-6.431,3.4,8.419,8.419,0,0,1-1.554.124c-.122,0-.286-.035-.336.123s.084.233.179.319a8.949,8.949,0,0,0,6.147,2.511,15.912,15.912,0,0,1,2.551.2,6.243,6.243,0,0,1,4.624,3.238c.107.14.105.423.322.4.193-.018.222-.274.283-.444a7.63,7.63,0,0,0,.01-4.595,3.508,3.508,0,0,1-.159-.7.776.776,0,0,1,.64-.87c.739-.081,1,.072,1.194.764a10.173,10.173,0,0,1,.258,5.344,5.244,5.244,0,0,1-.782,1.774c-.116.165-.153.268.054.391,2.107,1.25,1.917,4.208.163,5.756a3.794,3.794,0,0,1-1.981.956.6.6,0,0,0-.495.369,17.312,17.312,0,0,1-3.973,4.857.636.636,0,0,0-.278.656c.1.606.173,1.217.213,1.83a.42.42,0,0,0,.386.443,3.64,3.64,0,0,1,.373.111c.489.164.918.313,1.392-.17a1.493,1.493,0,0,1,1.536-.2c.871.262,1.746.512,2.615.781a7.744,7.744,0,0,1,5.692,6.617,31.1,31.1,0,0,0,.669,3.487v.671c-.247.335-.518.64-.993.541a.939.939,0,0,1-.721-.879,2.079,2.079,0,0,1-.325-1.051,34.784,34.784,0,0,0-.773-3.828,5.6,5.6,0,0,0-3.541-3.618c-.785-.292-1.594-.515-2.394-.764-.773-.241-.787-.229-.859.582a31.156,31.156,0,0,1-1.3,6.439,5.606,5.606,0,0,1-1.023,2.259,2.494,2.494,0,0,0-.138.238.873.873,0,0,1-.934.624.853.853,0,0,1-.761-.878c-.13-.238.022-.429.111-.626a26.211,26.211,0,0,0,1.983-7.448,1.769,1.769,0,0,0,.011-.222c0-.25.09-.519-.238-.669a.558.558,0,0,0-.76.23,5.431,5.431,0,0,1-5.224,3.38.9.9,0,0,1-.914-.588c-.184-.745.137-1.171.955-1.24a4.818,4.818,0,0,0,2.216-.643,2.668,2.668,0,0,0,1.212-1.594,9.19,9.19,0,0,0-.168-2.593c-.012-.17-.118-.217-.274-.164a1.747,1.747,0,0,0-.2.089,7.023,7.023,0,0,1-6.28.02c-.185-.085-.452-.336-.526.125-.044.425-.065.857-.149,1.27a2.635,2.635,0,0,0,.895,2.651.86.86,0,0,1,.116,1.307c-.583.449-.874.448-1.419-.028a3.479,3.479,0,0,1-1.276-1.918c-.129-.682-.443-.605-.889-.38-.291.277-.2.623-.147.945a37.31,37.31,0,0,0,1.871,7.1c.132.35.393.7.189,1.11a.862.862,0,0,1-.823.774c-.554.028-.757-.381-.937-.8a1.439,1.439,0,0,1-.413-.775,38.763,38.763,0,0,1-1.99-8.178c-.07-.584-.109-.613-.661-.44-.87.273-1.758.494-2.609.824a5.676,5.676,0,0,0-3.708,4.277c-.266,1.2-.447,2.416-.665,3.625a1.094,1.094,0,0,1-.255.665c-.218.639-.6.916-1.077.784-.495-.138-.684-.558-.565-1.217.251-1.391.449-2.794.753-4.173a7.593,7.593,0,0,1,5.281-5.828c.929-.321,1.886-.562,2.827-.851a1.742,1.742,0,0,1,1.9.411c.249.26.458.142.7.069,1.114-.335,1.025-.353,1.252-1.491a2.157,2.157,0,0,0-.851-2.322,14.175,14.175,0,0,1-3.31-4.248.614.614,0,0,0-.518-.337A4.02,4.02,0,0,1,33.75,32.35a3.212,3.212,0,0,1,1.018-1.567c.133-.116.3-.166.143-.429a9.121,9.121,0,0,1-.624-8.2,1.253,1.253,0,0,0,.031-.2H25.864a3.529,3.529,0,0,1-1.027,3.34,3.409,3.409,0,0,1-2.646.97,3.557,3.557,0,0,1-3.217-4.327,11.468,11.468,0,0,1-3.757-.691A11.379,11.379,0,0,1,12.8,19.992c-.562-.384-.64-.656-.392-1.328a.824.824,0,0,1,1.171-.334c.3.147.559.348.842.52a9.169,9.169,0,0,0,5.087,1.221,1.527,1.527,0,0,0,.766-.307,3.617,3.617,0,0,1,4.289.008,1.8,1.8,0,0,0,1.047.307c6.238,0,12.476.022,18.714-.018a8.366,8.366,0,0,0,5.362-2.094,8.651,8.651,0,0,0,3.091-5.11,8.988,8.988,0,0,0-1.655-7.4A8.926,8.926,0,0,0,43.9,1.836c-1.377-.028-2.756.005-4.134-.01-.7-.007-.936-.19-1.2-.863A.927.927,0,0,1,39.237,0Z" transform="translate(-8.036)"/>
        <path id="Trazado_211858" data-name="Trazado 211858" d="M2.768,17.087a1.04,1.04,0,0,1-1.274-.612A10.962,10.962,0,0,1,9.569.1c.075-.01.146-.016.172-.1H27.848a.853.853,0,0,1,.679.978,1.048,1.048,0,0,1-1.09.853c-.223.011-.447.007-.67.007q-7.87,0-15.741,0a9.143,9.143,0,0,0-9.157,9.653A8.672,8.672,0,0,0,3,15.371a2.59,2.59,0,0,1,.312.713.785.785,0,0,1-.541,1" transform="translate(0)"/>
        <path id="Trazado_211859" data-name="Trazado 211859" d="M81.212.894A1.16,1.16,0,0,0,80.642,0H84a1.334,1.334,0,0,0-.547.895,3.1,3.1,0,0,1-2.236,0" transform="translate(-52.794)" fill="#fdfdfd"/>
        <path id="Trazado_211860" data-name="Trazado 211860" d="M31.657,2.589h2.236a1.034,1.034,0,0,0,1.163.793,38.552,38.552,0,0,1,5.4.107,8.77,8.77,0,0,1,5.953,3.546,8.208,8.208,0,0,1,.391,5.832,10.38,10.38,0,0,1-9.068,7.787,16.107,16.107,0,0,1-1.837.1q-7.2,0-14.409,0a1.715,1.715,0,0,1-1.075-.216c-.074-.054-.161-.113-.154-.218.01-.14.135-.163.238-.188.254-.061.522,0,.774-.083a5.4,5.4,0,0,0,3.037-1.65,3.267,3.267,0,0,0,.8-1.506c.13-.581.292-.652.785-.287a10.8,10.8,0,0,0,2.6,1.516,6.493,6.493,0,0,0,3.776.4,2.425,2.425,0,0,1,1.415.137,6.824,6.824,0,0,0,8.1-2.932A5.543,5.543,0,0,0,40.19,8.467a5.891,5.891,0,0,0-1.783-.913,1.358,1.358,0,0,1-.814-.631,11.7,11.7,0,0,0-1.071-1.5,2.116,2.116,0,0,0-.352-.358.631.631,0,0,0-.867,0,.621.621,0,0,0-.119.857,7.2,7.2,0,0,0,.463.63c.1.133.237.272.161.45-.088.205-.3.2-.485.2a12.227,12.227,0,0,0-3.232.588,7.324,7.324,0,0,0-1.258.46.569.569,0,0,1-.807-.217C28.139,5.6,25.6,4.923,22.667,5.36a4.39,4.39,0,0,0-2.3,1.084A1.09,1.09,0,0,1,19.3,6.7a6.713,6.713,0,0,0-5.486,1.024,5.483,5.483,0,0,0-1.642,1.728,3.564,3.564,0,0,1-.24.376c-.091.118-.186.266-.349.242-.191-.029-.239-.215-.288-.377a2.313,2.313,0,0,1-.03-1.159c.152-.737.006-1.092-.448-1.187s-.773.25-.918.972a3.416,3.416,0,0,0,1.19,3.455.952.952,0,0,1,.353.669c.215,2.553,1.744,4.017,4.047,4.794a1.694,1.694,0,0,1,1.107.837,2.974,2.974,0,0,0,.95,1.008c.163.121.416.21.343.505a.7.7,0,0,1-.524.151,4.349,4.349,0,0,0-2.272.682,2.423,2.423,0,0,1-1.277.334c-1.136-.008-2.272-.006-3.408,0a2.476,2.476,0,0,1-.93-.155,4.961,4.961,0,0,1-.521-.3.933.933,0,0,0-1.346.058c-.608-.451-.958-1.164-1.6-1.577.537-.52.573-.764.211-1.411A9.276,9.276,0,0,1,12.478,3.538a9.766,9.766,0,0,1,2-.169c5.34,0,10.681,0,16.021.01.6,0,1.012-.176,1.16-.79" transform="translate(-3.239 -1.695)" fill="#f9f7f7"/>
        <path id="Trazado_211861" data-name="Trazado 211861" d="M65.176,145.021c.257-1.465.46-2.941.784-4.391a5.829,5.829,0,0,1,3.863-4.356c.954-.36,1.952-.6,2.928-.9.243-.075.421-.113.452.247a37.054,37.054,0,0,0,2.253,9.3.753.753,0,0,1,.022.108l-10.3,0" transform="translate(-42.669 -88.592)" fill="#f4dd46"/>
        <path id="Trazado_211862" data-name="Trazado 211862" d="M131.215,146.447a27.961,27.961,0,0,0,2.12-8.418,2.372,2.372,0,0,1,.076-.322.6.6,0,0,1,.633-.037c.44.148.891.256,1.331.406a6.8,6.8,0,0,1,4.711,5.3c.175.8.3,1.6.458,2.406a.665.665,0,0,1-.077.634l-9.252.028" transform="translate(-85.903 -90.082)" fill="#f4dd46"/>
        <path id="Trazado_211863" data-name="Trazado 211863" d="M109.3,130.988a2.714,2.714,0,0,1-1.84,1.989,4.392,4.392,0,0,1-1.623.355c-.81.04-1.046.294-1.04,1.1-.124-.137-.247-.293-.447-.3a8.091,8.091,0,0,1-1.761-.474.941.941,0,0,0-.286-1.277,2.5,2.5,0,0,1-.905-2.537c.081-.475.13-.956.193-1.434.211-.144.393-.011.571.07a7.11,7.11,0,0,0,5.563.351c.84-.3,1.15-.071,1.294.8a4.673,4.673,0,0,0,.28,1.355" transform="translate(-66.35 -84.026)" fill="#f1d0a4"/>
        <path id="Trazado_211864" data-name="Trazado 211864" d="M56.619,73.344a2.515,2.515,0,1,1,2.513-2.53,2.527,2.527,0,0,1-2.513,2.53" transform="translate(-35.421 -44.724)"/>
        <path id="Trazado_211865" data-name="Trazado 211865" d="M144.63,145.005c-.369-2.134-.478-4.346-1.994-6.116a6.916,6.916,0,0,0-3.671-2.246,4.59,4.59,0,0,0-1.39-.349c0-.976,0-.976.948-.691.621.187,1.24.38,1.863.559a5.992,5.992,0,0,1,4.532,4.962c.247,1.293.454,2.593.679,3.89l-.967-.008" transform="translate(-90.067 -88.668)" fill="#f2d232"/>
        <path id="Trazado_211866" data-name="Trazado 211866" d="M126.292,136.908c.092-.177-.112-.544.3-.512.623.048.914.29.871.7a24.488,24.488,0,0,1-2.15,8.185,3.565,3.565,0,0,0-.131.366c-.277.012-.507,0-.3-.383a21.53,21.53,0,0,0,1.955-6.281,11.715,11.715,0,0,0,.147-1.264.666.666,0,0,0-.7-.808" transform="translate(-81.707 -89.294)" fill="#eee7e4"/>
        <path id="Trazado_211867" data-name="Trazado 211867" d="M95.769,146.148c-.431-1.361-.884-2.715-1.288-4.083a28.65,28.65,0,0,1-.99-4.626c-.04-.328.055-.451.365-.443.207,1.308.364,2.621.642,3.92a18.1,18.1,0,0,0,1.616,4.7c.247.469.125.585-.345.533" transform="translate(-61.201 -89.687)" fill="#eee7e4"/>
        <path id="Trazado_211868" data-name="Trazado 211868" d="M136.886,56.758a.968.968,0,0,0-.412,1.29,8.429,8.429,0,0,1,.294,4.165,3.613,3.613,0,0,1-.723,1.639l-.373-.838c-.022-.541.162-1.055.184-1.6a10.272,10.272,0,0,0-3.085-8.061c-.172-.171-.437-.313-.355-.636a6.282,6.282,0,0,1,2.223,1.8.853.853,0,0,0,1.257.248l.991,1.991" transform="translate(-86.679 -34.514)" fill="#685e68"/>
        <path id="Trazado_211869" data-name="Trazado 211869" d="M91.508,71.326c.186-.377.286-.942.583-1.077.269-.123.62.412.957.625.17.107.325.238.487.358A9.757,9.757,0,0,0,99.068,73.2c.837.027,1.669.091,2.5.151a4.138,4.138,0,0,1,2.039.683,3.427,3.427,0,0,1,1.47,2.578,20.449,20.449,0,0,1-.232,4.671,4.711,4.711,0,0,1-.5,1.471,14.963,14.963,0,0,1-5.01,5.441,5.633,5.633,0,0,1-6.8-.363A15.786,15.786,0,0,1,88.321,83.2a6.077,6.077,0,0,1-.843-2.573,26.539,26.539,0,0,1-.095-3.9,5.145,5.145,0,0,1,2.092-2.791,6.383,6.383,0,0,0,2.032-2.607" transform="translate(-57.189 -45.978)" fill="#f1d0a4"/>
        <path id="Trazado_211870" data-name="Trazado 211870" d="M18.068,29.035q2.262-.008,4.523-.014a1.228,1.228,0,0,0,.7-.135A4.91,4.91,0,0,1,26.336,28c.048,0,.1-.044.149-.068.19-.126.362-.017.522.061a4.489,4.489,0,0,0,2.162.426c.267-.009.564-.073.784.171-.3.212-.655.039-1.01.132a.9.9,0,0,0,.759.3c5.266,0,10.534.074,15.8-.028a10.049,10.049,0,0,0,8.192-4.362,9.667,9.667,0,0,0,1.846-6.395A12.743,12.743,0,0,0,55,15.466,8.6,8.6,0,0,1,56.932,21.2a9.238,9.238,0,0,1-9.294,9.167c-6.178.016-12.357,0-18.535.007a1.049,1.049,0,0,1-.7-.236,3.438,3.438,0,0,0-4.374-.007,1.078,1.078,0,0,1-.7.246,9.024,9.024,0,0,1-5.254-1.341" transform="translate(-11.829 -10.125)" fill="#efe8e5"/>
        <path id="Trazado_211871" data-name="Trazado 211871" d="M112.693,51.766a24.314,24.314,0,0,1,1.927,2.293A10.665,10.665,0,0,1,116.27,59.3a5.82,5.82,0,0,1-.321,2.759,6.474,6.474,0,0,0-5.727-3.268,12.1,12.1,0,0,1-4.707-.73,11.748,11.748,0,0,1-3.043-2.044c-.129-.115-.254-.246-.173-.43s.261-.1.4-.1a10.81,10.81,0,0,0,8.508-3.963c.221-.258.413-.337.706-.173.258.144.521.279.782.418" transform="translate(-66.956 -33.56)" fill="#7a6d79"/>
        <path id="Trazado_211872" data-name="Trazado 211872" d="M80.27,71.269a2.71,2.71,0,0,1-.855-1.3,8.074,8.074,0,0,1,.222-6.032.691.691,0,0,1,.75-.492c1.45.029,2.9.01,4.351.012.532,0,.718.169.569.655a5.7,5.7,0,0,1-2.256,3.473,5.812,5.812,0,0,0-2.782,3.686" transform="translate(-51.677 -41.535)" fill="#796d78"/>
        <path id="Trazado_211873" data-name="Trazado 211873" d="M36.669,63.449A1.814,1.814,0,0,1,39.318,61a.64.64,0,0,1,.087.578A2.866,2.866,0,0,1,37.3,63.568a.748.748,0,0,1-.631-.119" transform="translate(-23.769 -39.638)" fill="#f9f7f7"/>
        <path id="Trazado_211874" data-name="Trazado 211874" d="M109.743,130.184a.384.384,0,0,1-.336-.44,9.18,9.18,0,0,0-.124-1.043c-.046-.6-.3-.781-.885-.587a8.319,8.319,0,0,1-2.374.5,7.727,7.727,0,0,1-3.529-.818c-.149-.07-.307-.124-.46-.185-.027-.39-.048-.653.5-.365a6.73,6.73,0,0,0,6.6-.017c.375-.2.457-.125.482.267.036.554.136,1.1.186,1.658a1.719,1.719,0,0,1-.064,1.033" transform="translate(-66.792 -83.222)" fill="#f0ba87"/>
        <path id="Trazado_211875" data-name="Trazado 211875" d="M37.356,64.315a2.531,2.531,0,0,0,2.649-2.447,1.665,1.665,0,0,1,.613,1.82,1.73,1.73,0,0,1-1.436,1.373,1.687,1.687,0,0,1-1.827-.745" transform="translate(-24.456 -40.503)" fill="#eee7e5"/>
        <path id="Trazado_211876" data-name="Trazado 211876" d="M115.326,75.932a15.167,15.167,0,0,0-4.851-.685,9.05,9.05,0,0,1-5.065-1.9.917.917,0,0,1-.159-.222c2.219,1.428,4.724,1.611,7.26,1.688a3.911,3.911,0,0,1,2.815,1.115" transform="translate(-68.905 -47.876)" fill="#f0b987"/>
        <path id="Trazado_211877" data-name="Trazado 211877" d="M80.379,95.612c-1.39-.521-1.872-2.42-.869-3.265.171-.144.383-.332.583-.268.229.073.091.355.1.541.03.5.013,1,.043,1.5s.091.981.141,1.491" transform="translate(-51.704 -60.274)" fill="#efb986"/>
        <path id="Trazado_211878" data-name="Trazado 211878" d="M142.974,95.71a25.24,25.24,0,0,0,.214-3.314c.007-.315.122-.331.369-.213a1.544,1.544,0,0,1,.8,1.684,2.367,2.367,0,0,1-1.385,1.843" transform="translate(-93.602 -60.305)" fill="#efb886"/>
        <path id="Trazado_211879" data-name="Trazado 211879" d="M91.563,73.4a4.3,4.3,0,0,1-1.7,2.523A6.525,6.525,0,0,0,87.6,78.581a1.551,1.551,0,0,1-.161.22,3.344,3.344,0,0,1,1.609-2.937A8.4,8.4,0,0,0,91.563,73.4" transform="translate(-57.244 -48.055)" fill="#f0b987"/>
        <path id="Trazado_211880" data-name="Trazado 211880" d="M30.26,24.186a6.026,6.026,0,0,1-3.468-.659,4.14,4.14,0,0,1-1.67-1.749c-.113-.26-.361-.23-.563-.29a5.556,5.556,0,0,1-4.264-4.253,3.608,3.608,0,0,0-.91-1.846,3.408,3.408,0,0,1-.591-3.61.835.835,0,1,1,1.59.509,2.363,2.363,0,0,0,.08,1.777.188.188,0,0,0,.178-.125A6.688,6.688,0,0,1,28.3,10.6a.752.752,0,0,0,.826-.2,5.1,5.1,0,0,1,3.2-1.285,7.886,7.886,0,0,1,5.81,1.805,3.5,3.5,0,0,1,.435.432c.259.306.458.813.766.886s.734-.277,1.118-.411a13.176,13.176,0,0,1,4.192-.786,2.743,2.743,0,0,0-.6-.852.843.843,0,0,1,.027-1.242.828.828,0,0,1,1.23.137,9.25,9.25,0,0,1,1.289,1.748,1.216,1.216,0,0,0,.739.6,5.8,5.8,0,0,1,4.186,4.942,5.559,5.559,0,0,1-2.42,5.376,6.728,6.728,0,0,1-6.846.974.962.962,0,0,0-.588-.114c-2.631.624-4.86-.275-6.914-1.832-.143-.108-.292-.21-.461-.332-.452,2.247-1.975,3.281-4.027,3.738" transform="translate(-12.135 -5.72)"/>
        <path id="Trazado_211881" data-name="Trazado 211881" d="M60.121,73.435a.723.723,0,0,1,.517.945.758.758,0,0,1-.8.631.772.772,0,0,1-.827-.771,3.379,3.379,0,0,0,1.106-.8" transform="translate(-38.636 -48.076)" fill="#ede6e3"/>
        <path id="Trazado_211882" data-name="Trazado 211882" d="M60.121,73.326c-.231.457-.5.866-1.106.8q.1-1.083,1.106-.8" transform="translate(-38.636 -47.967)" fill="#f4f2f2"/>
        <path id="Trazado_211883" data-name="Trazado 211883" d="M111.341,109c.092,0,.241.008.39.019.609.044.971.378.95.872a.869.869,0,0,1-1.013.8,3.954,3.954,0,0,0-1.8.275,4.4,4.4,0,0,0-1.115.73.85.85,0,0,1-1.283-.017.826.826,0,0,1,.174-1.229,5.312,5.312,0,0,1,3.7-1.451" transform="translate(-70.223 -71.359)"/>
        <path id="Trazado_211884" data-name="Trazado 211884" d="M110.032,101a2.1,2.1,0,0,1-1.21-.341.84.84,0,0,1-.356-1.1.806.806,0,0,1,1.081-.381,1.113,1.113,0,0,0,1,0,.8.8,0,0,1,1.084.369.827.827,0,0,1-.338,1.1,2.131,2.131,0,0,1-1.264.346" transform="translate(-70.954 -64.875)" fill="#010000"/>
        <path id="Trazado_211885" data-name="Trazado 211885" d="M101.03,89.914c0-.242-.017-.486,0-.726a.816.816,0,0,1,.848-.787.782.782,0,0,1,.807.767,12.356,12.356,0,0,1,0,1.563.82.82,0,0,1-.846.791.835.835,0,0,1-.815-.826c-.018-.259,0-.521,0-.782" transform="translate(-66.138 -57.873)"/>
        <path id="Trazado_211886" data-name="Trazado 211886" d="M120.451,89.944c0-.242-.014-.485,0-.726a.836.836,0,0,1,.816-.825.819.819,0,0,1,.846.791,12.357,12.357,0,0,1,0,1.563.783.783,0,0,1-.808.767.817.817,0,0,1-.847-.789c-.022-.259,0-.521,0-.782" transform="translate(-78.852 -57.869)"/>
        <path id="Trazado_211887" data-name="Trazado 211887" d="M80.45,23.92a10.783,10.783,0,0,0-.115-2.1c-.066-.275.058-.4.29-.5a11.22,11.22,0,0,1,5.194-1.008.454.454,0,0,1,.47.358,5.977,5.977,0,0,1-3.556,7.555.538.538,0,0,1-.558-.111,3.537,3.537,0,0,1-1.723-3.01c-.015-.446,0-.892,0-1.187" transform="translate(-52.581 -13.29)" fill="#f9f7f7"/>
        <path id="Trazado_211888" data-name="Trazado 211888" d="M56.372,20.771a16.663,16.663,0,0,0-1.358-3.111A6.487,6.487,0,0,0,53.3,15.623c-.333-.243-.263-.352.051-.512a5.562,5.562,0,0,1,4.494-.132,4.472,4.472,0,0,1,2.4,1.722c.113.169.251.316,0,.509a40.347,40.347,0,0,0-3.713,3.466.858.858,0,0,1-.162.095" transform="translate(-34.752 -9.539)" fill="#f9f7f7"/>
        <path id="Trazado_211889" data-name="Trazado 211889" d="M96.808,22.429a3.969,3.969,0,0,1,1.48,5.726,5.209,5.209,0,0,1-4.552,2.365c-.088,0-.189.016-.246-.084,3.141-2.94,3.55-3.926,3.318-8.007" transform="translate(-61.206 -14.684)" fill="#f9f7f7"/>
        <path id="Trazado_211890" data-name="Trazado 211890" d="M37.965,24.131a5.039,5.039,0,0,0-4.639-.247,3.513,3.513,0,0,0-2.362,3.331c-.024.519-.161.532-.562.322a3.921,3.921,0,0,1-2.23-2.869A7.62,7.62,0,0,0,33.2,23.245a8.759,8.759,0,0,0,2.136-2.03c.249-.339.4-.291.68-.06a7.627,7.627,0,0,1,1.954,2.976" transform="translate(-18.444 -13.73)" fill="#f9f7f7"/>
        <path id="Trazado_211891" data-name="Trazado 211891" d="M68.792,26.882c.089,1.145-.03,2.2.113,3.254a5.3,5.3,0,0,0,1.378,2.877,8.854,8.854,0,0,1-5.151-2.629c1.208-1.15,2.315-2.378,3.66-3.5" transform="translate(-42.64 -17.599)" fill="#f9f7f7"/>
        <path id="Trazado_211892" data-name="Trazado 211892" d="M41.891,35.958c-.855.017-.892-.018-.856-.732.068-1.363.7-1.977,2.476-2.261a3.84,3.84,0,0,1,3.068,1.182c.3.242.008.3-.111.381a7.617,7.617,0,0,1-3.611,1.337c-.369.042-.74.071-.965.093" transform="translate(-26.859 -21.558)" fill="#f9f7f7"/>
        <path id="Trazado_211893" data-name="Trazado 211893" d="M34.441,18.488a6.949,6.949,0,0,1-5.02,2.8c-.193.01-.465.1-.568-.075-.122-.209.1-.416.212-.594a4.861,4.861,0,0,1,3.68-2.228,4.273,4.273,0,0,1,1.7.1" transform="translate(-18.865 -12.011)" fill="#f9f7f7"/>
        <path id="Trazado_211894" data-name="Trazado 211894" d="M43.653,43.394a10.111,10.111,0,0,0,5.384-1.676,2.417,2.417,0,0,1-1.649,2.1,3.72,3.72,0,0,1-3.735-.42" transform="translate(-28.579 -27.312)" fill="#f8f6f6"/>
      </g>
    </g>
  </g>
</svg>
