<svg xmlns="http://www.w3.org/2000/svg" xmlns:xlink="http://www.w3.org/1999/xlink" width="86" height="86" viewBox="0 0 86 86">
  <defs>
    <clipPath id="clip-path">
      <rect id="Rectángulo_338936" data-name="Rectángulo 338936" width="55.444" height="48" fill="none"/>
    </clipPath>
  </defs>
  <g id="Grupo_984041" data-name="Grupo 984041" transform="translate(-12957 10426)">
    <circle id="Elipse_4891" data-name="Elipse 4891" cx="43" cy="43" r="43" transform="translate(12957 -10426)" fill="#6b8dfc"/>
    <g id="Grupo_984040" data-name="Grupo 984040" transform="translate(12972 -10407)">
      <g id="Grupo_984039" data-name="Grupo 984039" transform="translate(0 0)" clip-path="url(#clip-path)">
        <path id="Trazado_211943" data-name="Trazado 211943" d="M55.444,35.806a5.538,5.538,0,0,0-.316,1.439,13.739,13.739,0,0,1-2.66,5.6c-.394.5-.647.548-1.265.28-.444-.2-.462-.559-.329-.95a3.219,3.219,0,0,1,.506-.829,11.8,11.8,0,0,0-.335-14.429,11.526,11.526,0,0,0-7.84-4.357,11.746,11.746,0,0,0-12.532,7.658,11.456,11.456,0,0,0,2.708,12.49,11.31,11.31,0,0,0,7.537,3.473,11.749,11.749,0,0,0,7.536-1.988,2.369,2.369,0,0,1,.562-.323c.415-.129.79-.114,1,.349.245.647.171.907-.37,1.291a13.6,13.6,0,0,1-16.433-.562,1.84,1.84,0,0,0-1.261-.453c-9.239.014-18.478,0-27.716.018A3.935,3.935,0,0,1,.394,42.325a3.837,3.837,0,0,1-.388-1.779Q0,26.743,0,12.94a.949.949,0,0,1,.828-1.075.813.813,0,0,1,.942.848,12.075,12.075,0,0,1,.018,1.407c0,.361.137.542.51.521.144-.008.289,0,.433,0H46.742c1.069,0,1.069,0,1.069-1.069,0-1.281,0-2.563,0-3.843a4.387,4.387,0,0,0-.178-1.282,1.907,1.907,0,0,0-1.751-1.379c-.415-.021-.83,0-1.245-.007-.37-.007-.518.167-.512.527q.011.649,0,1.3a3.37,3.37,0,0,1-6.69.542,7.947,7.947,0,0,1-.124-1.777c.016-.4-.117-.6-.553-.595-.9.016-1.8.013-2.707,0-.4,0-.546.162-.539.551a8.7,8.7,0,0,1-.082,1.672,3.439,3.439,0,0,1-3.415,2.95A3.475,3.475,0,0,1,26.707,8.9c-.028-.451-.012-.9-.01-1.353,0-.339-.148-.491-.489-.491q-1.461,0-2.923,0c-.341,0-.49.151-.487.49q.006.677,0,1.353a3.35,3.35,0,0,1-3.312,3.32,3.388,3.388,0,0,1-3.394-3.25c-.014-.451-.011-.9,0-1.353.007-.378-.135-.566-.536-.563-.957.009-1.913,0-2.869,0-.337,0-.5.141-.5.484,0,.451.006.9,0,1.353A3.367,3.367,0,0,1,8.96,12.209a3.328,3.328,0,0,1-3.485-2.9,12.745,12.745,0,0,1-.111-1.725c.01-.361-.146-.533-.516-.522-.324.01-.649,0-.974,0A1.971,1.971,0,0,0,1.8,8.978a3.383,3.383,0,0,1-.079.7.77.77,0,0,1-.923.6.881.881,0,0,1-.8-.98A3.829,3.829,0,0,1,3.655,5.258a8.46,8.46,0,0,1,1.3-.017c.476.038.675-.083.636-.608a10.83,10.83,0,0,1,.037-1.728A3.2,3.2,0,0,1,8.833,0a3.235,3.235,0,0,1,3.174,2.955,18.9,18.9,0,0,1,.015,1.893c-.01.317.1.393.4.39,1.137-.015,2.274-.02,3.411,0,.358.008.416-.135.405-.445-.019-.558-.018-1.119.006-1.677a3.2,3.2,0,0,1,6.4-.107c.042.593.038,1.19.025,1.785-.007.311.057.45.412.444q1.7-.032,3.411,0c.329.006.389-.123.377-.41-.019-.487-.012-.974,0-1.461A3.235,3.235,0,1,1,33.334,3.3c.02.522.017,1.047,0,1.57-.011.283.08.373.366.369,1.137-.014,2.274-.02,3.41,0,.359.007.413-.135.41-.445A18.7,18.7,0,0,1,37.565,2.9,3.2,3.2,0,0,1,40.773,0a3.24,3.24,0,0,1,3.179,3.011c.038.611.032,1.227.011,1.84-.011.318.1.391.4.388a8.609,8.609,0,0,1,2.209.1,3.848,3.848,0,0,1,2.976,4.09q.006,6.55-.007,13.1a1.031,1.031,0,0,0,.445.95A13.423,13.423,0,0,1,54.962,30.8c.212.751.324,1.53.482,2.3Z" transform="translate(0 0.001)"/>
        <path id="Trazado_211944" data-name="Trazado 211944" d="M1.493,16.2c.637-.158.806-.363.828-1a2.228,2.228,0,0,1,2.489-2.41c1.45-.011,1.465-.011,1.447,1.455a3.4,3.4,0,0,0,1.775,3.383,3.21,3.21,0,0,0,4.675-2.651c.034-.593.026-1.191.01-1.786-.008-.3.077-.413.392-.408,1.137.016,2.274.018,3.411,0,.353-.006.422.139.412.45-.018.541-.017,1.083,0,1.624a3.206,3.206,0,0,0,6.407.1c.035-.576.032-1.155.018-1.731-.008-.315.072-.452.42-.446,1.137.018,2.274.014,3.411,0,.278,0,.382.081.373.368-.017.558-.025,1.119,0,1.677a3.218,3.218,0,0,0,6.323.794,8.024,8.024,0,0,0,.132-2.314c-.008-.377.058-.546.494-.532,1.045.034,2.093.028,3.139,0,.41-.01.576.086.555.532a11.442,11.442,0,0,0,.041,1.837,3.21,3.21,0,0,0,6.39-.105,17.256,17.256,0,0,0,.014-1.839c-.012-.342.108-.439.433-.422.468.026.939-.006,1.407.02a2.09,2.09,0,0,1,2.082,1.956c.132,1.474.035,2.956.046,4.435,0,.483.208,1.107-.088,1.413-.322.332-.957.106-1.453.107q-22.061.01-44.122.018c-.513,0-.715-.106-.649-.643.048-.391-.006-.794.013-1.19a.952.952,0,0,0-.8-1.1L1.493,16.2" transform="translate(-0.693 -5.93)" fill="#ed534f"/>
        <path id="Trazado_211945" data-name="Trazado 211945" d="M75.781,63.551a.966.966,0,0,0-1.361,0A12.026,12.026,0,0,1,56.9,59.233,12.007,12.007,0,1,1,78.273,48.278a11.733,11.733,0,0,1-1.168,12.7c-.524.734-.551.893-.142,1.481l-1.182,1.094" transform="translate(-25.759 -19.333)" fill="#4fc1f7"/>
        <path id="Trazado_211946" data-name="Trazado 211946" d="M7.017,48.069c1.172,0,2.344.012,3.515-.008.341-.005.47.073.468.442q-.023,3.461,0,6.922c0,.344-.114.416-.435.414q-3.57-.019-7.139,0c-.362,0-.4-.133-.4-.438q.016-3.46,0-6.922c0-.335.092-.426.424-.421,1.19.02,2.38.008,3.569.008" transform="translate(-1.403 -22.306)" fill="#cbcbcb"/>
        <path id="Trazado_211947" data-name="Trazado 211947" d="M24.855,55.833c-1.172,0-2.344-.011-3.515.007-.324,0-.437-.072-.435-.415q.021-3.461,0-6.922c0-.37.13-.443.469-.44q3.542.02,7.085,0c.333,0,.425.087.423.421q-.021,3.461,0,6.922c0,.373-.124.44-.459.435-1.19-.018-2.38-.007-3.569-.007" transform="translate(-9.703 -22.307)" fill="#cbcbcb"/>
        <path id="Trazado_211948" data-name="Trazado 211948" d="M6.994,38.349c-1.172,0-2.344-.011-3.515.007-.335.005-.462-.061-.459-.434q.028-3.434,0-6.868c0-.358.1-.445.449-.443q3.542.023,7.085,0c.373,0,.445.122.443.46-.012,2.271-.016,4.543,0,6.814,0,.391-.123.48-.491.473-1.171-.022-2.343-.008-3.515-.008" transform="translate(-1.402 -14.207)" fill="#cbcbcb"/>
        <path id="Trazado_211949" data-name="Trazado 211949" d="M24.923,38.348c-1.19,0-2.38-.016-3.569.009-.371.008-.449-.119-.447-.461q.019-3.406,0-6.814c0-.317.033-.477.429-.474q3.569.032,7.139,0c.355,0,.407.117.406.431q-.018,3.434,0,6.868c0,.351-.088.455-.445.449-1.171-.023-2.343-.009-3.515-.009" transform="translate(-9.704 -14.206)" fill="#cbcbcb"/>
        <path id="Trazado_211950" data-name="Trazado 211950" d="M42.806,38.347c-1.208,0-2.416-.01-3.624.007-.309,0-.391-.089-.39-.392q.018-3.488,0-6.978c0-.332.124-.374.408-.372,2.38.01,4.76.016,7.14,0,.394,0,.431.155.43.474q-.014,3.407,0,6.815c0,.346-.082.468-.45.46-1.171-.025-2.344-.01-3.516-.01" transform="translate(-18.004 -14.206)" fill="#cbcbcb"/>
        <path id="Trazado_211951" data-name="Trazado 211951" d="M24.9,73.324c-1.172,0-2.344-.009-3.516.005-.323,0-.481-.042-.478-.434.019-2.307.014-4.616,0-6.924,0-.312.1-.391.4-.39q3.6.016,7.2,0c.321,0,.38.109.379.4-.01,2.308-.017,4.616,0,6.924,0,.394-.154.428-.471.424-1.172-.014-2.344-.005-3.516-.005" transform="translate(-9.702 -30.438)" fill="#cbcbcb"/>
        <path id="Trazado_211952" data-name="Trazado 211952" d="M6.982,65.586c1.19,0,2.379.015,3.568-.009.362-.007.452.1.449.453q-.021,3.406,0,6.812c0,.371-.092.494-.478.489-1.694-.02-3.389,0-5.083-.012a2.217,2.217,0,0,1-2.408-2.43c-.005-1.622.009-3.244-.01-4.866,0-.354.092-.452.446-.445,1.171.023,2.343.009,3.514.009" transform="translate(-1.402 -30.436)" fill="#cbcbcb"/>
        <path id="Trazado_211953" data-name="Trazado 211953" d="M46.056,73.3c-2.325.01-4.65.016-6.975.034-.263,0-.285-.122-.285-.331q.006-3.542,0-7.085c0-.263.08-.335.337-.332,1.55.018,3.1.021,4.65.029.287.456.147.981.222,1.47a16.273,16.273,0,0,0,1.891,5.53c.117.208.332.4.162.685" transform="translate(-18.006 -30.439)" fill="#c8c8c8"/>
        <path id="Trazado_211954" data-name="Trazado 211954" d="M38.841,55.755q0-3.786.008-7.573c.147-.1.315-.053.473-.053q3.189-.006,6.377,0c.589,0,.63.067.328.6a16.608,16.608,0,0,0-2,5.9c-.165,1.182-.182,1.179-1.365,1.179-1.1,0-2.2,0-3.3,0a.935.935,0,0,1-.527-.053" transform="translate(-18.027 -22.333)" fill="#cbcbcb"/>
        <path id="Trazado_211955" data-name="Trazado 211955" d="M56.746,30.66a12.429,12.429,0,0,1,1.879-.041c1.869-.01,3.737,0,5.606-.011.318,0,.446.059.427.409-.036.626-.022,1.256-.029,1.885a6.449,6.449,0,0,1-1.725.584,17.093,17.093,0,0,0-5.614,3.365,1.884,1.884,0,0,1-.251.2c-.241.151-.352.1-.35-.2.008-2.034-.005-4.068.009-6.1a.169.169,0,0,1,.05-.093" transform="translate(-26.31 -14.204)" fill="#cbcbcb"/>
        <path id="Trazado_211956" data-name="Trazado 211956" d="M53.159,7.441c0-.883-.006-1.766,0-2.648a1.621,1.621,0,1,1,3.229-.011q.014,2.649,0,5.3a1.622,1.622,0,1,1-3.229.01c-.008-.883,0-1.766,0-2.648" transform="translate(-24.672 -1.399)" fill="#666"/>
        <path id="Trazado_211957" data-name="Trazado 211957" d="M16.617,7.457c0,.9.007,1.8,0,2.7a1.6,1.6,0,0,1-3.18.255,2.857,2.857,0,0,1-.044-.482c0-1.676-.013-3.351,0-5.026.012-1.3.911-2.082,2.029-1.8a1.535,1.535,0,0,1,1.191,1.54c.013.937,0,1.874,0,2.81" transform="translate(-6.212 -1.415)" fill="#666"/>
        <path id="Trazado_211958" data-name="Trazado 211958" d="M76.224,7.476c0,.9.008,1.8,0,2.7a1.593,1.593,0,0,1-3.176.249A2.454,2.454,0,0,1,73,10c0-1.711-.009-3.423,0-5.134a1.693,1.693,0,0,1,.955-1.683,1.5,1.5,0,0,1,1.626.18,1.548,1.548,0,0,1,.644,1.3q0,1.405,0,2.81" transform="translate(-33.879 -1.403)" fill="#666"/>
        <path id="Trazado_211959" data-name="Trazado 211959" d="M36.5,7.43c0,.918.009,1.836,0,2.755a1.586,1.586,0,1,1-3.168.006q-.016-2.755,0-5.51A1.586,1.586,0,1,1,36.5,4.675c.012.918,0,1.836,0,2.755" transform="translate(-15.466 -1.397)" fill="#666"/>
        <path id="Trazado_211960" data-name="Trazado 211960" d="M56.73,30.709v6.425c.725-.578,1.366-1.146,2.062-1.633a14.249,14.249,0,0,1,5.82-2.55c.007.72.007,1.44.025,2.16a.324.324,0,0,1-.285.372,13.7,13.7,0,0,0-5.138,2.761.573.573,0,0,1-.391.152q-.918-.007-1.837,0c-.181,0-.311-.023-.312-.255-.011-2.464-.054-4.928.018-7.392,0-.013.024-.026.037-.039" transform="translate(-26.294 -14.253)" fill="#b6b6b6"/>
        <path id="Trazado_211961" data-name="Trazado 211961" d="M82.462,30.7c.152.129.076.3.076.453,0,1.565-.012,3.13,0,4.695,0,.413-.045.558-.492.348a13.2,13.2,0,0,0-6.982-1.176c-.4.038-.543-.027-.514-.459.044-.645.022-1.294.028-1.941a5.776,5.776,0,0,1,2.753-.218,15.744,15.744,0,0,1,4.524.918c.349.128.455-.009.45-.342q-.01-.809,0-1.617a.868.868,0,0,1,.153-.662" transform="translate(-34.601 -14.25)" fill="#b6b6b6"/>
        <path id="Trazado_211962" data-name="Trazado 211962" d="M50.374,73.3c-.294-.592-.6-1.177-.879-1.779a13.775,13.775,0,0,1-1.4-5.906c.685-.006,1.369-.009,2.054-.023.2,0,.323.017.345.277a13.555,13.555,0,0,0,2.815,7.3c.018.023.009.065.015.131Z" transform="translate(-22.324 -30.444)" fill="#bfbfbf"/>
        <path id="Trazado_211963" data-name="Trazado 211963" d="M38.841,55.717c1.5,0,2.991-.006,4.486.008.332,0,.465-.074.487-.444a14.476,14.476,0,0,1,1.217-4.933,10.349,10.349,0,0,1,1.169-2.2H38.849c.069-.166.217-.091.327-.091,2.36,0,4.722.009,7.082-.008.423,0,.554.11.543.541-.029,1.187-.009,2.378-.012,3.567a2,2,0,0,1-.038.482,18.145,18.145,0,0,0-.541,2.915c-.018.2-.091.274-.3.273q-3.46-.006-6.92,0c-.077,0-.139-.017-.15-.108" transform="translate(-18.027 -22.295)" fill="#b6b6b6"/>
        <path id="Trazado_211964" data-name="Trazado 211964" d="M82.472,30.662c0,.846-.013,1.693,0,2.538,0,.338,0,.481-.433.32a16.263,16.263,0,0,0-4.336-.965,21.8,21.8,0,0,0-3.109.026c-.006-.556-.008-1.112-.021-1.668,0-.189.03-.3.259-.3,2.548.03,5.1-.049,7.643.044" transform="translate(-34.61 -14.21)" fill="#cbcbcb"/>
        <path id="Trazado_211965" data-name="Trazado 211965" d="M56.666,49.071c-.031-1.057-.031-1.057.725-.961a2.462,2.462,0,0,1-.725.961" transform="translate(-26.296 -22.311)" fill="#9a9a9a"/>
        <path id="Trazado_211966" data-name="Trazado 211966" d="M62.919,48.633c-.258-.682-.184-.916.435-1.368a10.088,10.088,0,1,1-2.68,2.922c.3-.514.587-.595,1.24-.381a.788.788,0,0,1,.325,1.147c-.235.584-.6,1.1-.793,1.715A8.321,8.321,0,0,0,66.608,63.24a8.283,8.283,0,1,0,3.57-16.074,8.114,8.114,0,0,0-5.708,1.472,1.7,1.7,0,0,1-.813.39.639.639,0,0,1-.739-.394" transform="translate(-27.481 -21.044)"/>
        <path id="Trazado_211967" data-name="Trazado 211967" d="M67.961,65.089a7.888,7.888,0,0,1-4.812-4.13,8.144,8.144,0,0,1,.122-7.861c.276-.52.584-1.024.028-1.552l1.005-1.173a.959.959,0,0,0,1.351-.022,7.056,7.056,0,0,1,2.521-1.261c.008.278-.237.338-.406.454a9.139,9.139,0,0,0-.261,15.005c.189.137.482.21.45.54" transform="translate(-28.868 -22.784)" fill="#e4e4e4"/>
        <path id="Trazado_211968" data-name="Trazado 211968" d="M69.167,64.73c-.406-.32-.835-.616-1.215-.964a9.312,9.312,0,0,1-2.4-10.65,8.874,8.874,0,0,1,3.641-4.207,1.352,1.352,0,0,0,.2-.177,8.425,8.425,0,1,1,3.6,16.4,7.143,7.143,0,0,1-3.815-.4" transform="translate(-30.074 -22.425)" fill="#fefefe"/>
        <path id="Trazado_211969" data-name="Trazado 211969" d="M80.441,60.974c-.974,0-1.947,0-2.921,0-.79,0-1.069-.277-1.072-1.075q-.01-2.92,0-5.841c0-.686.305-1.042.834-1.031.5.01.778.334.781.959.008,1.623.016,3.245-.007,4.868-.005.4.087.519.5.512,1.55-.027,3.1-.012,4.652-.009a2.675,2.675,0,0,1,.537.036.746.746,0,0,1,.669.841.737.737,0,0,1-.784.733c-1.064.014-2.128,0-3.192,0v.006" transform="translate(-35.48 -24.61)"/>
      </g>
    </g>
  </g>
</svg>
