<svg xmlns="http://www.w3.org/2000/svg" xmlns:xlink="http://www.w3.org/1999/xlink" width="90" height="90" viewBox="0 0 90 90">
  <defs>
    <clipPath id="clip-path">
      <ellipse id="Elipse_4885" data-name="Elipse 4885" cx="45" cy="45" rx="45" ry="45" transform="translate(-6752 -8207)" fill="#c4d1ff"/>
    </clipPath>
    <clipPath id="clip-path-2">
      <rect id="Rect치ngulo_338386" data-name="Rect치ngulo 338386" width="108.252" height="143.908" fill="none"/>
    </clipPath>
    <clipPath id="clip-path-4">
      <rect id="Rect치ngulo_338383" data-name="Rect치ngulo 338383" width="7.092" height="5.216" fill="none"/>
    </clipPath>
  </defs>
  <g id="Grupo_983322" data-name="Grupo 983322" transform="translate(6436 8149)">
    <g id="Grupo_982989" data-name="Grupo 982989">
      <path id="Trazado_207349" data-name="Trazado 207349" d="M45,0A45,45,0,1,1,0,45,45,45,0,0,1,45,0Z" transform="translate(-6436 -8149)" fill="#ffe891"/>
      <g id="Enmascarar_grupo_441" data-name="Enmascarar grupo 441" transform="translate(316 58)" clip-path="url(#clip-path)">
        <g id="Grupo_982704" data-name="Grupo 982704" transform="translate(-6761 -8199)">
          <g id="Grupo_982712" data-name="Grupo 982712" clip-path="url(#clip-path-2)">
            <g id="Grupo_982711" data-name="Grupo 982711">
              <g id="Grupo_982710" data-name="Grupo 982710" clip-path="url(#clip-path-2)">
                <path id="Trazado_205340" data-name="Trazado 205340" d="M66.474,48.147a41.8,41.8,0,0,0,7.969.487c6.086-.406,12.228-.562,18.346-.758a20.628,20.628,0,0,1,.557-5.036,38.417,38.417,0,0,0,.675,3.9,1.84,1.84,0,0,0,.577,1.142,1.878,1.878,0,0,0,1.147.229l8.711-.134a54.322,54.322,0,0,0-.11-5.964,27,27,0,0,1,1.433,4.954,34.228,34.228,0,0,0,11.594-1.361,20.426,20.426,0,0,0-.049-5.475,6.887,6.887,0,0,0-2.78-4.564,4.616,4.616,0,0,1-1.067-.773c-.759-.887-.34-2.231-.444-3.394-.283-3.181-3.336-6.578-6.28-7.509a16.055,16.055,0,0,1-3.618-1.166,6.17,6.17,0,0,1-2.528-4c-.366-1.579-.394-3.216-.685-4.811C98.593,6.626,93.155,1.862,86.023.473a16.056,16.056,0,0,0-6.957,0,6.488,6.488,0,0,1-2.09.353A7.5,7.5,0,0,1,75.314.357C71.9-.756,67.8.9,65.054,2.952a16.13,16.13,0,0,0-6.037,9.3c-.5,2.245-.655,4.842-2.433,6.3a9.265,9.265,0,0,1-2.51,1.262c-4.122,1.652-8.138,4.882-8.6,9.3-.2,1.969.291,4.126-.73,5.823-.966,1.606-2.989,2.247-4.222,3.659-1.7,1.947-1.544,4.853-1.176,7.411a1.856,1.856,0,0,0,.378,1.04,1.8,1.8,0,0,0,1.086.43,20.346,20.346,0,0,0,4.23.171l1.1-4.53.458,4.528a56.734,56.734,0,0,0,10.285.455q.361-2.219.722-4.438.32,1.772.639,3.545a1.257,1.257,0,0,0,1.569,1.252l5.435.045q.288-2.217.576-4.434l.649,4.077" transform="translate(-18.672 0)" fill="#feb777"/>
                <path id="Trazado_205341" data-name="Trazado 205341" d="M108.042,172.961q-1.146-3.044-2.1-6.158a28.556,28.556,0,0,1-.663-2.893c.018-.009.037-.016.055-.025-2.588-15.567-10.519-55.605-25.045-66.02a9.448,9.448,0,0,0-1.827-1.012L63.072,90.341l.369-12.835-9.862,2.172-1.36,11.036S35.761,91.8,30.935,97.293s-10.9,18.483-10.9,18.483L14.13,96.634c-.069-.362-.148-.721-.21-1.084a12.357,12.357,0,0,1-.313-2.241,9.569,9.569,0,0,1,.461-2.261c.591-2.139,1.922-4.022,2.47-6.173-.35-.424-1.036-.112-1.449.251a10.1,10.1,0,0,0-2.921,4.453q-.442-3.744-1.011-7.47a17.037,17.037,0,0,0-.9-3.8c-.1-.253-.3-.547-.564-.5-.241.044-.336.335-.374.578a17.076,17.076,0,0,0,0,3.876q.251,3.3.5,6.592c-.7-2.783-1.224-5.688-2.076-8.416-.115-.369-1.358-3.986-1.945-3.13A1.986,1.986,0,0,0,5.539,78.4a32.812,32.812,0,0,0,.576,5.242A24.6,24.6,0,0,0,7.1,88.9l-1.7-4.332A29.4,29.4,0,0,0,3.767,80.6c-.177-.305-1.141-1.734-1.534-1.253-.218.266.244,1.607.32,1.926a17.707,17.707,0,0,0,.571,1.9c.751,2.075,1.44,4.167,2.12,6.275-1.29-2.154-2.519-4.49-4.857-5.613a.347.347,0,0,0-.264-.045c-.185.07-.13.344-.041.521,1.024,2.037,2.145,4.061,2.992,6.172a14.91,14.91,0,0,1,.9,5.373,31.813,31.813,0,0,0,.33,4.005c.008.057.022.106.031.161,1.178,14.584,4.907,44.31,15.689,42.986,0,0,8.192-1.6,13.671-20.281l3.719,16.229s-6.851,17.179-7.889,22.282c0,0,30.405,17.014,52.713,0L75.77,140.624l3.979-16.178s9.088,20.94,14.542,39.569a18.807,18.807,0,0,1,.118,3.167,20.332,20.332,0,0,1-1.328,4.967c-.209.639-1.345,3.8-.145,4.013.351.062.647-.247.861-.533a17.623,17.623,0,0,0,3.195-7.23c.524,3.562.187,7.036.383,10.61a1.314,1.314,0,0,0,.194.739c.627.823,1.133-.552,1.217-.979a59.068,59.068,0,0,0,.808-10.028q.281,3.085.562,6.168c.093,1.023.244,2.058.281,3.085a4.824,4.824,0,0,0,.493,2.447c.1.169.271.342.467.308.617-.106.589-2.007.581-2.431q-.107-5.047-.323-10.091A72.872,72.872,0,0,0,104,178.491c.141.462.445,1.028.922.946s.575-.735.541-1.226a65.589,65.589,0,0,0-1.527-10.267c.722,2.3,1.378,5.228,3.052,7.042a1.527,1.527,0,0,0,.967.519c.557.044.193-2.275.091-2.546" transform="translate(0 -36.846)" fill="#e99988"/>
                <path id="Trazado_205342" data-name="Trazado 205342" d="M77.507,50.266a5.413,5.413,0,0,0-3.027-.978A3.4,3.4,0,0,0,71.715,50.7a4.155,4.155,0,0,0-.575,2.334,7.786,7.786,0,0,0,7.353,7.714" transform="translate(-33.964 -23.531)" fill="#e99988"/>
                <path id="Trazado_205343" data-name="Trazado 205343" d="M140.192,50.266a5.41,5.41,0,0,1,3.027-.978,3.4,3.4,0,0,1,2.765,1.411,4.159,4.159,0,0,1,.575,2.334,7.878,7.878,0,0,1-2.15,5.312,8.053,8.053,0,0,1-7.507,2.6" transform="translate(-65.36 -23.531)" fill="#e99988"/>
                <path id="Trazado_205344" data-name="Trazado 205344" d="M75.083,54.032c1.732-.47,3.267.856,4.168,2.2a7.719,7.719,0,0,1,1.3,4.6c-.013.348.526.346.54,0a8.2,8.2,0,0,0-1.555-5.137c-1.051-1.431-2.722-2.69-4.593-2.182a.27.27,0,0,0,.143.52" transform="translate(-35.687 -25.493)" fill="#c97567"/>
                <path id="Trazado_205345" data-name="Trazado 205345" d="M80.313,55.575a5.586,5.586,0,0,0-.541,1.547,3.7,3.7,0,0,0,.071,1.411,3.749,3.749,0,0,0,1.6,2.256c.293.188.564-.279.272-.466a3.2,3.2,0,0,1-1.353-1.934,3.721,3.721,0,0,1,.415-2.542c.146-.313-.319-.587-.466-.272" transform="translate(-38.067 -26.466)" fill="#c97567"/>
                <path id="Trazado_205346" data-name="Trazado 205346" d="M141.154,61.746a6.581,6.581,0,0,1,5.294-6.424c.34-.068.2-.588-.143-.52a7.12,7.12,0,0,0-5.69,6.944.27.27,0,0,0,.539,0" transform="translate(-67.133 -26.161)" fill="#c97567"/>
                <path id="Trazado_205347" data-name="Trazado 205347" d="M144.67,58.4a2.713,2.713,0,0,1,.49,2.025,2.093,2.093,0,0,1-1.1,1.481c-.31.156-.038.621.272.466a2.605,2.605,0,0,0,1.349-1.8,3.244,3.244,0,0,0-.544-2.44c-.194-.285-.662-.016-.466.272" transform="translate(-68.712 -27.691)" fill="#c97567"/>
                <path id="Trazado_205348" data-name="Trazado 205348" d="M110.4,13.12a10.615,10.615,0,0,0-4.183-2.487A26.682,26.682,0,0,0,93.45,10.1c-2.751.549-6.662,1.538-8.477,3.869-2.7,3.469-3.6,8.921-3.428,13.215a84.137,84.137,0,0,0,1.594,13.1C84,44.6,86.471,48.818,90.825,50.2a23.219,23.219,0,0,0,12.8.587c3.613-.965,6.147-3.914,7.616-7.228a41.661,41.661,0,0,0,3.511-11.79c.629-5.156,1.429-11.318-1.884-15.839A19.367,19.367,0,0,0,110.4,13.12" transform="translate(-38.922 -4.567)" fill="#e99988"/>
                <path id="Trazado_205349" data-name="Trazado 205349" d="M99.124,48.6c0,1.114-.464,2.016-1.035,2.016s-1.035-.9-1.035-2.016.463-2.016,1.035-2.016,1.035.9,1.035,2.016" transform="translate(-46.336 -22.238)" fill="#b26356"/>
                <path id="Trazado_205350" data-name="Trazado 205350" d="M123.968,48.6c0,1.114-.463,2.016-1.035,2.016s-1.035-.9-1.035-2.016.463-2.016,1.035-2.016,1.035.9,1.035,2.016" transform="translate(-58.197 -22.238)" fill="#b26356"/>
                <path id="Trazado_205351" data-name="Trazado 205351" d="M107.94,34.312q.446,2.513.893,5.026a2.01,2.01,0,0,1-1.271,2.462,2.6,2.6,0,0,0-1.275.955c-1.1,1.867,0,3.8,1.931,4.432.431.141.614-.537.187-.676-1.75-.571-2.76-2.838-.821-3.955.668-.385,1.619-.546,1.885-1.4a5.118,5.118,0,0,0-.049-2.507q-.4-2.262-.8-4.523c-.079-.445-.755-.256-.676.187" transform="translate(-50.534 -16.171)" fill="#c97567"/>
                <path id="Trazado_205352" data-name="Trazado 205352" d="M107.237,60.928a4.051,4.051,0,0,0,5.614-.935c.276-.358-.334-.707-.606-.354a3.347,3.347,0,0,1-4.655.684c-.375-.254-.725.353-.354.606" transform="translate(-51.122 -28.403)" fill="#c97567"/>
                <path id="Trazado_205353" data-name="Trazado 205353" d="M97.32,33.824c.333,1-1.012,2.355-3,3.016s-3.879.383-4.212-.621,1.012-2.355,3-3.016,3.878-.383,4.211.622" transform="translate(-42.993 -15.68)" fill="#b26356"/>
                <path id="Trazado_205354" data-name="Trazado 205354" d="M102.734,142.523a29.149,29.149,0,0,0,11.368-12c-3.52-8.655-7.8-16-12.911-19.675a9.431,9.431,0,0,0-1.826-1.014L88.9,105.393a18.786,18.786,0,0,1-9.215,3.856,14.013,14.013,0,0,1-12.176-4.943c-5.24.8-12.686,2.5-15.679,5.9-2.772,3.145-5.952,8.746-8.165,12.959a38.552,38.552,0,0,0,3.313,7.7c.286.523.568,1.063.854,1.608a19.1,19.1,0,0,0,5.862,5.878c.293-.86.582-1.756.862-2.706l3.694,16.234s-6.877,17.169-7.923,22.27c0,0,30.378,17.061,52.713.082L96.6,153.6l4-16.172s.827,1.914,2.127,5.09" transform="translate(-20.849 -49.799)" fill="#2e5d91"/>
                <path id="Trazado_205355" data-name="Trazado 205355" d="M119.523,33.824c-.333,1,1.012,2.355,3,3.016s3.879.383,4.212-.621-1.012-2.355-3-3.016-3.878-.383-4.211.622" transform="translate(-57.039 -15.68)" fill="#b26356"/>
                <path id="Trazado_205356" data-name="Trazado 205356" d="M111.005,5.611a10.036,10.036,0,0,0,5.485,12.511c1.325.574,2.9.957,3.64,2.194.769,1.278.32,2.925.617,4.387a4.287,4.287,0,0,0,5.658,3.178A7.357,7.357,0,0,0,126.8,30a2.484,2.484,0,0,0,1.459,1.5,2.424,2.424,0,0,0,2.441-.827,5.66,5.66,0,0,0,1.116-2.457,18.437,18.437,0,0,0-4.32-16.625,18.439,18.439,0,0,0-16.261-5.536" transform="translate(-52.733 -2.679)" fill="#feb777"/>
                <g id="Grupo_982706" data-name="Grupo 982706" transform="translate(46.745 29.894)" opacity="0.15" style="mix-blend-mode: multiply;isolation: isolate">
                  <g id="Grupo_982705" data-name="Grupo 982705">
                    <g id="Grupo_982704-2" data-name="Grupo 982704" clip-path="url(#clip-path-4)">
                      <path id="Trazado_205357" data-name="Trazado 205357" d="M96.543,59.813c0,1.44-1.588,2.608-3.546,2.608s-3.546-1.167-3.546-2.608S91.039,57.205,93,57.205s3.546,1.168,3.546,2.608" transform="translate(-89.451 -57.205)" fill="#ea497f"/>
                    </g>
                  </g>
                </g>
                <path id="Trazado_205358" data-name="Trazado 205358" d="M109.22,175.234l-6.473-20.611,3.979-16.178-5.3-14.283.9-14.626-2.049-.867-.808,14.589-16.116,9.153L68.7,121.342,67.913,106.5c-1.125.281-2.248.6-3.328.973l1.664,14.864-5.572,14.389L64.4,152.952s-6.85,17.179-7.889,22.282c0,0,30.405,17.014,52.713,0" transform="translate(-26.978 -50.845)" fill="#ea6eb2"/>
                <g id="Grupo_982709" data-name="Grupo 982709" transform="translate(63.086 29.894)" opacity="0.15" style="mix-blend-mode: multiply;isolation: isolate">
                  <g id="Grupo_982708" data-name="Grupo 982708">
                    <g id="Grupo_982707" data-name="Grupo 982707" clip-path="url(#clip-path-4)">
                      <path id="Trazado_205359" data-name="Trazado 205359" d="M127.812,59.813c0,1.44-1.588,2.608-3.546,2.608s-3.546-1.167-3.546-2.608,1.588-2.608,3.546-2.608,3.546,1.168,3.546,2.608" transform="translate(-120.72 -57.205)" fill="#ea497f"/>
                    </g>
                  </g>
                </g>
                <path id="Trazado_205360" data-name="Trazado 205360" d="M110.13,106.7l-3.087-1.305a18.787,18.787,0,0,1-9.208,3.87,14.014,14.014,0,0,1-12.184-4.924c-1.2.186-2.515.421-3.865.71a13.493,13.493,0,0,0,2.781,3.561,16.459,16.459,0,0,0,8.137,3.9A19.683,19.683,0,0,0,110.13,106.7" transform="translate(-39.046 -49.814)" fill="#244d72"/>
                <path id="Trazado_205361" data-name="Trazado 205361" d="M108.808,124.163l.9-14.626-2.049-.867-.808,14.589-16.116,9.153-14.662-11.07L75.292,106.5c-1.125.281-2.248.6-3.328.973l1.664,14.864-.415,1.072,17.142,12.205,18.971-10.051Z" transform="translate(-34.357 -50.845)" fill="#ce599e"/>
                <path id="Trazado_205362" data-name="Trazado 205362" d="M165.636,147.058c-2.537,5.432-5.836,10.523-10.512,13.885l.213.512c4.682-3.335,8.016-8.368,10.588-13.768-.1-.212-.193-.419-.289-.629" transform="translate(-74.06 -70.209)" fill="#244d72"/>
                <path id="Trazado_205363" data-name="Trazado 205363" d="M55.564,149.955a35.293,35.293,0,0,1-8.854-15.823q-.19.342-.377.68a35.842,35.842,0,0,0,9.04,15.7,2.524,2.524,0,0,1,.192-.56" transform="translate(-22.12 -64.038)" fill="#244d72"/>
                <path id="Trazado_205364" data-name="Trazado 205364" d="M81.116,28.721c-.16-5.611,5.356-9.923,6.11-15.486,3.849.382,8.065-.129,10.926-2.733,1.063-.968,1.868-2.73.857-3.753A2.878,2.878,0,0,0,97.4,6.078,15.892,15.892,0,0,0,81.189,13.94" transform="translate(-38.725 -2.804)" fill="#feb777"/>
                <path id="Trazado_205365" data-name="Trazado 205365" d="M109.522,231.072l-.171-.543a44.3,44.3,0,0,1-18.625,6.062,52.238,52.238,0,0,1-21.1-2.579,40.974,40.974,0,0,1-10.618-5.158c-.06.18-.116.355-.174.53a42.639,42.639,0,0,0,9.774,4.848,52.916,52.916,0,0,0,22.118,2.9,43.759,43.759,0,0,0,18.8-6.059" transform="translate(-28.089 -109.26)" fill="#ce599e"/>
                <path id="Trazado_205366" data-name="Trazado 205366" d="M35.137,143.881a45.61,45.61,0,0,1,3.255,14.1c.024.345.563.348.539,0a46.069,46.069,0,0,0-3.274-14.247c-.129-.318-.651-.179-.52.143" transform="translate(-16.765 -68.538)" fill="#c97567"/>
              </g>
            </g>
          </g>
        </g>
      </g>
    </g>
  </g>
</svg>
