<svg xmlns="http://www.w3.org/2000/svg" xmlns:xlink="http://www.w3.org/1999/xlink" width="211" height="142.248" viewBox="0 0 211 142.248">
  <defs>
    <clipPath id="clip-path">
      <rect id="Rect치ngulo_338393" data-name="Rect치ngulo 338393" width="171.186" height="142.248" fill="none"/>
    </clipPath>
  </defs>
  <g id="Grupo_982724" data-name="Grupo 982724" transform="translate(-301.251 -1597)">
    <rect id="Rect치ngulo_45942" data-name="Rect치ngulo 45942" width="211" height="62" rx="13" transform="translate(301.251 1639.301)" fill="#fff0b5"/>
    <g id="Grupo_982723" data-name="Grupo 982723" transform="translate(321.157 1597)">
      <path id="Trazado_205530" data-name="Trazado 205530" d="M.283,116.8,69.518,156.77,167.284,100,98.048,60.027Z" transform="translate(-0.068 -14.522)" fill="#fff"/>
      <path id="Trazado_205531" data-name="Trazado 205531" d="M.283,90.136l69.235,39.973,97.766-56.77L98.048,33.366Z" transform="translate(-0.068 -8.072)" fill="#ff7866"/>
      <path id="Trazado_205532" data-name="Trazado 205532" d="M.283,128.465l69.235,39.973V148.227L.283,108.254Z" transform="translate(-0.068 -26.19)" fill="#f05948"/>
      <path id="Trazado_205533" data-name="Trazado 205533" d="M91.614,142.867v20.211l97.766-56.77V86.1Z" transform="translate(-22.164 -20.829)" fill="#f05948"/>
      <path id="Trazado_205534" data-name="Trazado 205534" d="M4,115.625l66.414,38.344v12.839L4,128.465Z" transform="translate(-0.969 -27.973)" fill="#fff4eb"/>
      <path id="Trazado_205535" data-name="Trazado 205535" d="M189.379,104.157V91.318l-97.766,56.77v12.839Z" transform="translate(-22.164 -22.092)" fill="#ffe2c7"/>
      <path id="Trazado_205536" data-name="Trazado 205536" d="M23.308,137.979,12.26,144.571l-4.536-2.707,11.047-6.591Z" transform="translate(-1.869 -32.726)" fill="#fdc142"/>
      <path id="Trazado_205537" data-name="Trazado 205537" d="M40.975,149.1l-11.048,6.591-4.536-2.706,11.047-6.591Z" transform="translate(-6.143 -35.416)" fill="#9dbdee"/>
      <path id="Trazado_205538" data-name="Trazado 205538" d="M0,84.155l66.811,38.574,94.342-54.783L94.342,29.372Z" transform="translate(0 -7.106)" fill="#fff"/>
      <path id="Trazado_205539" data-name="Trazado 205539" d="M0,66.952l66.811,38.574,94.342-54.783L94.342,12.17Z" transform="translate(0 -2.944)" fill="#fdc142"/>
      <path id="Trazado_205540" data-name="Trazado 205540" d="M0,97.476,66.811,136.05V123.01L0,84.435Z" transform="translate(0 -20.427)" fill="#fcb435"/>
      <path id="Trazado_205541" data-name="Trazado 205541" d="M182.475,76.094V63.054L88.133,117.837v13.04Z" transform="translate(-21.322 -15.254)" fill="#f9a723"/>
      <path id="Trazado_205542" data-name="Trazado 205542" d="M3.591,91.549l64.088,37v5.927l-64.088-37Z" transform="translate(-0.869 -22.148)" fill="#fff4eb"/>
      <path id="Trazado_205543" data-name="Trazado 205543" d="M182.475,74.02V68.093L88.133,122.876V128.8Z" transform="translate(-21.322 -16.473)" fill="#ffe2c7"/>
      <path id="Trazado_205544" data-name="Trazado 205544" d="M68.657,133.258,58,139.619l-4.378-2.612,10.661-6.361Z" transform="translate(-12.972 -31.607)" fill="#9dbdee"/>
      <path id="Trazado_205545" data-name="Trazado 205545" d="M35.207,115.532l-10.661,6.361-4.378-2.612L30.83,112.92Z" transform="translate(-4.879 -27.319)" fill="#f05948"/>
      <path id="Trazado_205546" data-name="Trazado 205546" d="M52.928,125.906l-10.661,6.361-4.377-2.612,10.661-6.361Z" transform="translate(-9.167 -29.828)" fill="#261d3a"/>
      <path id="Trazado_205547" data-name="Trazado 205547" d="M27.3,65.93,82.4,97.694l69.615-40.2L96.92,25.726Z" transform="translate(-6.606 -6.224)" fill="#fff"/>
      <path id="Trazado_205548" data-name="Trazado 205548" d="M96.92,0,27.305,40.2,82.4,71.967l69.615-40.2Z" transform="translate(-6.606 0)" fill="#917bd6"/>
      <path id="Trazado_205549" data-name="Trazado 205549" d="M27.3,53.033,82.4,84.8v19.5L27.3,72.536Z" transform="translate(-6.606 -12.83)" fill="#866ac6"/>
      <path id="Trazado_205550" data-name="Trazado 205550" d="M169.6,61.4V41.9L99.988,82.1v19.5Z" transform="translate(-24.19 -10.137)" fill="#735bba"/>
      <path id="Trazado_205551" data-name="Trazado 205551" d="M79.671,88.244,27.3,58v12.39l52.367,30.245Z" transform="translate(-6.606 -14.031)" fill="#fff4eb"/>
      <path id="Trazado_205552" data-name="Trazado 205552" d="M80.548,97.547l-10.661,6.361L65.51,101.3l10.661-6.361Z" transform="translate(-15.849 -22.967)" fill="#261d3a"/>
      <path id="Trazado_205553" data-name="Trazado 205553" d="M51.122,83.464l-10.661,6.36-4.378-2.612,10.661-6.361Z" transform="translate(-8.73 -19.56)" fill="#9dbdee"/>
      <g id="Grupo_982722" data-name="Grupo 982722" transform="translate(0 0)">
        <g id="Grupo_982721" data-name="Grupo 982721" clip-path="url(#clip-path)">
          <path id="Trazado_205554" data-name="Trazado 205554" d="M86.849,71.392a17.762,17.762,0,0,1-8.637-2.164L46.525,50.933c-2.649-1.529-4.169-3.677-4.169-5.889a5.628,5.628,0,0,1,3.172-4.833L72.97,24.367a13.867,13.867,0,0,1,6.805-1.588,17.771,17.771,0,0,1,8.637,2.164l31.687,18.3c2.649,1.528,4.168,3.675,4.169,5.888a5.626,5.626,0,0,1-3.172,4.833L93.654,69.8a13.867,13.867,0,0,1-6.805,1.589" transform="translate(-10.247 -5.511)" fill="#fff"/>
          <path id="Trazado_205555" data-name="Trazado 205555" d="M120.814,53.1,93.371,68.947c-3.542,2.045-9.787,1.786-13.878-.575L47.806,50.077c-4.091-2.362-4.539-5.968-1-8.013L74.251,26.221c3.542-2.045,9.788-1.786,13.879.575l31.687,18.294c4.091,2.362,4.539,5.968,1,8.013" transform="translate(-10.747 -6.01)" fill="#6396d3"/>
          <path id="Trazado_205556" data-name="Trazado 205556" d="M55.316,40.875l13.8,7.968L44.775,47.835a3.286,3.286,0,0,0-.306,1.016l26.566,1.1,2.532.105-1.919-1.108L56.491,40.2Z" transform="translate(-10.758 -9.725)" fill="#fff"/>
          <path id="Trazado_205557" data-name="Trazado 205557" d="M44.792,53.925a4.831,4.831,0,0,0,.6,1.053l24.088,1L57.7,62.775l1.358.784,12.952-7.478,1.661-.96-2.533-.1Z" transform="translate(-10.837 -13.046)" fill="#fff"/>
          <path id="Trazado_205558" data-name="Trazado 205558" d="M124.431,43.05,111.3,50.628l-1.662.96,2.532.105,26.567,1.1a4.654,4.654,0,0,0-.562-1.051l-24.342-1.009,11.951-6.9Z" transform="translate(-26.526 -10.415)" fill="#fff"/>
          <path id="Trazado_205559" data-name="Trazado 205559" d="M110.179,56.635l1.919,1.109,14.956,8.634,1.176-.68-13.6-7.85,24.087,1a3.318,3.318,0,0,0,.343-1.014l-26.349-1.092Z" transform="translate(-26.656 -13.702)" fill="#fff"/>
          <path id="Trazado_205560" data-name="Trazado 205560" d="M98.114,39.4,96.366,25.349a17.313,17.313,0,0,0-1.822-.324l1.907,15.337.182,1.462,1.662-.96,13.126-7.578-1.358-.784Z" transform="translate(-22.873 -6.054)" fill="#fff"/>
          <path id="Trazado_205561" data-name="Trazado 205561" d="M84.061,25.078,85.79,38.984l-13.6-7.851-1.177.679,14.955,8.634,1.919,1.108-.182-1.462L85.818,24.879a14.919,14.919,0,0,0-1.756.2" transform="translate(-17.181 -6.019)" fill="#fff"/>
          <path id="Trazado_205562" data-name="Trazado 205562" d="M99.4,64.115l1.907,15.338a15.222,15.222,0,0,0,1.761-.176l-1.748-14.054,13.8,7.967,1.175-.678-15.156-8.75-1.92-1.108Z" transform="translate(-24.005 -15.158)" fill="#fff"/>
          <path id="Trazado_205563" data-name="Trazado 205563" d="M90.572,62.631l-1.662.96L75.959,71.068l1.357.783,11.776-6.8L90.821,78.96a17.206,17.206,0,0,0,1.825.346L90.754,64.093Z" transform="translate(-18.377 -15.152)" fill="#fff"/>
          <path id="Trazado_205564" data-name="Trazado 205564" d="M108.655,38.647l-9.357-5.4L86.172,40.823l-1.662.96-.182-1.462L82.421,24.982a17.238,17.238,0,0,0-3.035-.11l1.891,15.213.182,1.462-1.919-1.108L64.586,31.806l-8.1,4.678L71.64,45.235l1.919,1.108-2.532-.105-26.566-1.1a3.457,3.457,0,0,0,.245,1.755l26.35,1.092,2.533.105-1.662.96L58.974,56.526l9.357,5.4L81.283,54.45l1.662-.96.181,1.462,1.892,15.213a17.3,17.3,0,0,0,3.038.142L86.15,54.969l-.182-1.462,1.92,1.108,15.156,8.75,8.1-4.678L96.192,50.054l-1.919-1.108,2.533.105,26.349,1.092a3.416,3.416,0,0,0-.19-1.752L96.4,47.29l-2.532-.105,1.662-.96Z" transform="translate(-10.75 -6.012)" fill="#f05948"/>
          <path id="Trazado_205565" data-name="Trazado 205565" d="M160.608,47.407l-4.95-2.858,1.741-1,3.166,1.828,1.836-1.061-2.693-1.556,1.726-1,2.693,1.555,2.1-1.214-3.288-1.9,1.741-1,5.071,2.928Z" transform="translate(-37.659 -9.484)" fill="#fff"/>
          <path id="Trazado_205566" data-name="Trazado 205566" d="M151.43,42.132,149.6,41.074l2.482-3.814,1.243-1.615-.049-.028c-.9.6-2.04,1.43-3.119,2.054l-3.227,1.863-1.7-.981,9.145-5.28,1.833,1.058-2.5,3.822-1.215,1.6.049.028c.936-.625,2.012-1.413,3.091-2.037l3.241-1.87,1.7.98Z" transform="translate(-35.136 -8.05)" fill="#fff"/>
          <path id="Trazado_205567" data-name="Trazado 205567" d="M146.181,33.718c-3.03,1.749-6.542,1.76-8.655.541a2.091,2.091,0,0,1-1.294-2.124l2.251-.222a1.282,1.282,0,0,0,.763,1.283,5.276,5.276,0,0,0,5.033-.5c1.879-1.085,2.233-2.145.754-3a2.485,2.485,0,0,0-1.131-.328l-1.571.907,1.311.757-1.683.971-2.889-1.666,4.208-2.43a7.319,7.319,0,0,1,3.717.866c2.173,1.254,2.258,3.166-.814,4.94" transform="translate(-32.954 -6.752)" fill="#fff"/>
          <path id="Trazado_205568" data-name="Trazado 205568" d="M131.971,30.319l-1.783-1.029,7.406-4.276-3.131-1.808,1.739-1,4.915,2.837Z" transform="translate(-31.497 -5.371)" fill="#fff"/>
          <path id="Trazado_205569" data-name="Trazado 205569" d="M123.675,26.106l-1.783-1.029,9.145-5.28,1.784,1.029Z" transform="translate(-29.489 -4.789)" fill="#fff"/>
          <path id="Trazado_205570" data-name="Trazado 205570" d="M126.607,18.6l-2.437.229a1.96,1.96,0,0,0-1-1.678,1.937,1.937,0,0,0-1.988-.127c-.575.332-.309.7.047,1.289l.525.887c.434.688.425,1.59-.908,2.358a5.932,5.932,0,0,1-5.534-.053,2.28,2.28,0,0,1-1.343-2.167l2.214-.229a1.631,1.631,0,0,0,.91,1.368,1.847,1.847,0,0,0,1.835.1c.561-.324.234-.738-.122-1.316l-.542-.864c-.51-.812-.373-1.592.918-2.337a6.111,6.111,0,0,1,5.82.087,2.748,2.748,0,0,1,1.6,2.45" transform="translate(-27.57 -3.719)" fill="#fff"/>
          <path id="Trazado_205571" data-name="Trazado 205571" d="M108.5,17.346l-1.782-1.029,3.521-2.032-2.731-1.576-3.521,2.032L102.194,13.7l9.145-5.28,1.8,1.037-3.815,2.2,2.73,1.576,3.815-2.2,1.782,1.029Z" transform="translate(-24.724 -2.038)" fill="#fff"/>
          <path id="Trazado_205572" data-name="Trazado 205572" d="M107.036,123.08a89.947,89.947,0,0,1,22.771,17.713c10.11,11.107,13.15,15.42,13.15,15.42l54.125-32.539s-4.216-6.274-15.246-16.629a162.072,162.072,0,0,0-20.054-16.236Z" transform="translate(-25.895 -21.97)" fill="#fff4eb"/>
          <path id="Trazado_205573" data-name="Trazado 205573" d="M121.923,136.14c-2.216-1.28-2.237-2.759-.771-3.605a4.989,4.989,0,0,1,2.615-.5l.271.957a3.032,3.032,0,0,0-1.555.282c-.791.457-.613,1.289.732,2.065a3.742,3.742,0,0,0,3.579.445.91.91,0,0,0,.5-1.013l1.637.144a1.446,1.446,0,0,1-.89,1.652,6.34,6.34,0,0,1-6.121-.425" transform="translate(-29.066 -31.941)" fill="#392d51"/>
          <path id="Trazado_205574" data-name="Trazado 205574" d="M128.2,132.406c-2.185-1.261-2.37-2.6-.805-3.5a6.211,6.211,0,0,1,6.068.465c2.184,1.262,2.433,2.636.868,3.539s-3.943.76-6.131-.5m3.921-2.262c-1.333-.769-2.631-.945-3.423-.487s-.487,1.205.844,1.975,2.694.981,3.485.525.436-1.236-.907-2.012" transform="translate(-30.571 -31.043)" fill="#392d51"/>
          <path id="Trazado_205575" data-name="Trazado 205575" d="M132.785,125.758l2.089-1.206a4.1,4.1,0,0,1,4.313-.085c.985.569,1.2,1.165.9,1.709l3.993.785-1.467.846-3.52-.75-.722.415,2.411,1.392-1.305.755Zm5.063.633c.684-.395.717-.806.06-1.185a1.771,1.771,0,0,0-1.939.1l-.676.39,1.878,1.084Z" transform="translate(-32.125 -29.973)" fill="#392d51"/>
          <path id="Trazado_205576" data-name="Trazado 205576" d="M139.967,121.625l1.99-1.149a4.258,4.258,0,0,1,4.458-.085c1.569.906,1.227,1.909,0,2.617l-.719.415,2.267,1.31-1.306.754Zm5.169.737c.719-.416.7-.829,0-1.233a1.892,1.892,0,0,0-2.057.086l-.6.349,2.022,1.167Z" transform="translate(-33.862 -28.983)" fill="#392d51"/>
          <path id="Trazado_205577" data-name="Trazado 205577" d="M150.372,119.6c-2.185-1.261-2.371-2.6-.807-3.5a6.208,6.208,0,0,1,6.067.465c2.186,1.262,2.433,2.636.869,3.539s-3.944.76-6.129-.5m3.918-2.262a3.638,3.638,0,0,0-3.421-.487c-.791.457-.488,1.205.845,1.976s2.693.979,3.484.524.437-1.236-.908-2.012" transform="translate(-35.936 -27.945)" fill="#392d51"/>
          <path id="Trazado_205578" data-name="Trazado 205578" d="M154.961,112.956l2.088-1.207a4.1,4.1,0,0,1,4.315-.084c.985.569,1.2,1.165.9,1.709l3.993.785-1.466.847-3.52-.75-.72.415,2.411,1.392-1.308.755Zm5.06.633c.685-.4.719-.806.061-1.186a1.776,1.776,0,0,0-1.941.1l-.674.39,1.879,1.084Z" transform="translate(-37.49 -26.876)" fill="#392d51"/>
          <path id="Trazado_205579" data-name="Trazado 205579" d="M163.466,108.351l1.572-.908,8.5,2.815-1.387.8-1.944-.713-1.769,1.021,1.234,1.123-1.334.77Zm4.062,2.181,1.234-.713-.749-.278c-.826-.293-1.775-.656-2.624-.972l-.036.02c.566.49,1.194,1.029,1.7,1.506Z" transform="translate(-39.548 -25.994)" fill="#392d51"/>
          <path id="Trazado_205580" data-name="Trazado 205580" d="M170.157,105.417l-1.59.919-1.272-.735,4.5-2.6,1.272.735-1.592.918,5.417,3.129-1.315.759Z" transform="translate(-40.474 -24.92)" fill="#392d51"/>
          <path id="Trazado_205581" data-name="Trazado 205581" d="M174.417,101.649l3.627-2.094,1.271.735L177,101.631l1.345.775,1.973-1.139,1.262.729-1.973,1.139,1.537.888,2.409-1.39,1.272.735-3.715,2.145Z" transform="translate(-42.197 -24.086)" fill="#392d51"/>
          <path id="Trazado_205582" data-name="Trazado 205582" d="M133.418,142l4.913-2.813,1.673,1.36-3.142,1.8,1.77,1.438,2.673-1.531,1.661,1.351-2.673,1.531,2.026,1.646,3.262-1.869,1.674,1.361-5.034,2.883Z" transform="translate(-32.278 -33.673)" fill="#f05948"/>
          <path id="Trazado_205583" data-name="Trazado 205583" d="M142.129,136.781l1.817-1.041,6.422,2.383,2.715,1.139.049-.027c-1-.715-2.39-1.643-3.43-2.487l-3.106-2.524,1.687-.965,8.8,7.155-1.819,1.042-6.437-2.395-2.687-1.117-.049.028c1.044.749,2.364,1.621,3.405,2.467l3.119,2.534-1.687.965Z" transform="translate(-34.386 -32.239)" fill="#f05948"/>
          <path id="Trazado_205584" data-name="Trazado 205584" d="M157.357,134.828c-2.917-2.371-2.885-4.748-.79-5.947a5.531,5.531,0,0,1,3.617-.48l.341,1.562a3.409,3.409,0,0,0-2.183.277c-1.216.7-1,2.053.766,3.492,1.809,1.47,3.6,1.9,5.066,1.064a1.027,1.027,0,0,0,.574-.7l-1.514-1.229-1.3.744-1.62-1.318,2.867-1.641,4.049,3.292a2.636,2.636,0,0,1-1.521,2.35c-2.155,1.235-5.393.938-8.35-1.465" transform="translate(-37.517 -31.04)" fill="#f05948"/>
          <path id="Trazado_205585" data-name="Trazado 205585" d="M162.842,125.721l1.769-1.014,7.13,5.795,3.107-1.779,1.674,1.361-4.877,2.793Z" transform="translate(-39.397 -30.171)" fill="#f05948"/>
          <path id="Trazado_205586" data-name="Trazado 205586" d="M171.074,121.007l1.77-1.014,8.8,7.155-1.77,1.014Z" transform="translate(-41.388 -29.03)" fill="#f05948"/>
          <path id="Trazado_205587" data-name="Trazado 205587" d="M183.432,124.429l-.352-1.687a5.173,5.173,0,0,0,2.856-.365c.734-.421.772-.891.246-1.319-.554-.45-1.175-.337-2.185-.208l-1.511.191a5.145,5.145,0,0,1-3.981-1.051c-1.458-1.185-1.463-2.791.174-3.729a5.818,5.818,0,0,1,3.691-.5l.351,1.537a3.992,3.992,0,0,0-2.327.361c-.616.352-.7.813-.2,1.22.539.44,1.246.3,2.233.163l1.469-.207a4.855,4.855,0,0,1,3.944,1.053c1.459,1.186,1.643,2.837-.236,3.914a6.756,6.756,0,0,1-4.169.63" transform="translate(-42.926 -27.984)" fill="#f05948"/>
          <path id="Trazado_205588" data-name="Trazado 205588" d="M184.7,112.385l1.77-1.013,3.39,2.754,2.71-1.551-3.39-2.756,1.782-1.02,8.8,7.155-1.781,1.02-3.673-2.985-2.709,1.552,3.672,2.985L193.5,119.54Z" transform="translate(-44.684 -26.322)" fill="#f05948"/>
          <path id="Trazado_205589" data-name="Trazado 205589" d="M152.408,159.231c-1.822-2.172-1.283-4.36.562-5.426a4.271,4.271,0,0,1,2.909-.413l-.08,1.449a2.591,2.591,0,0,0-1.725.22c-1,.575-1.123,1.827-.018,3.144,1.129,1.346,2.48,1.73,3.553,1.11a1.838,1.838,0,0,0,.907-1.433l1.648.42a2.86,2.86,0,0,1-1.551,2.328,4.807,4.807,0,0,1-6.2-1.4" transform="translate(-36.6 -37.089)" fill="#392d51"/>
          <path id="Trazado_205590" data-name="Trazado 205590" d="M160.356,154.506c-1.8-2.141-1.48-4.14.488-5.278s4.348-.676,6.135,1.455,1.534,4.2-.435,5.338-4.392.625-6.188-1.515m4.934-2.848c-1.1-1.306-2.38-1.729-3.376-1.155s-.965,1.721.132,3.027,2.43,1.789,3.426,1.214.923-1.77-.183-3.086" transform="translate(-38.509 -35.957)" fill="#392d51"/>
          <path id="Trazado_205591" data-name="Trazado 205591" d="M170.591,148.49l-2.95-3.517,1.655-.956,3.078,3.668c1.079,1.285,1.9,1.469,2.715,1s.915-1.186-.164-2.471l-3.076-3.668,1.587-.917,2.951,3.517c1.846,2.2,1.652,3.73-.227,4.815s-3.721.73-5.569-1.47" transform="translate(-40.558 -34.264)" fill="#392d51"/>
          <path id="Trazado_205592" data-name="Trazado 205592" d="M177.517,139.629l2.629-1.518c1.543-.892,3.212-1.139,4.52.419a2.034,2.034,0,0,1,.287,2.638l3.856,1.667-1.846,1.066-3.379-1.554-.907.523,1.982,2.361-1.645.95Zm5.024,1.573c.861-.5,1.052-1.1.512-1.742s-1.195-.592-2.056-.1l-.85.491,1.542,1.838Z" transform="translate(-42.947 -33.242)" fill="#392d51"/>
          <path id="Trazado_205593" data-name="Trazado 205593" d="M190.972,140.567l.089-1.558a4.076,4.076,0,0,0,2.373-.358c.682-.393.816-.829.487-1.22-.346-.412-.87-.3-1.709-.177l-1.255.186a3.094,3.094,0,0,1-2.966-.942c-.91-1.085-.561-2.568.96-3.447a4.621,4.621,0,0,1,3.074-.493l-.055,1.418a3.219,3.219,0,0,0-1.947.349c-.572.329-.744.757-.433,1.128.34.4.936.265,1.759.136l1.225-.2a2.918,2.918,0,0,1,2.936.944c.911,1.087.7,2.612-1.048,3.619a5.453,5.453,0,0,1-3.488.613" transform="translate(-45.36 -32.052)" fill="#392d51"/>
          <path id="Trazado_205594" data-name="Trazado 205594" d="M194.57,129.652l4.564-2.635,1.045,1.246-2.918,1.686,1.1,1.316,2.483-1.434,1.036,1.236L199.4,132.5l1.264,1.506,3.032-1.75,1.045,1.246-4.677,2.7Z" transform="translate(-47.073 -30.73)" fill="#392d51"/>
          <path id="Trazado_205595" data-name="Trazado 205595" d="M207.272,131.157l.089-1.558a4.069,4.069,0,0,0,2.373-.358c.682-.394.816-.829.487-1.22-.345-.412-.87-.3-1.709-.177l-1.255.186a3.091,3.091,0,0,1-2.966-.941c-.91-1.086-.561-2.569.96-3.448a4.626,4.626,0,0,1,3.074-.493l-.055,1.419a3.213,3.213,0,0,0-1.947.349c-.572.329-.744.757-.433,1.129.34.4.937.265,1.759.136l1.226-.2a2.919,2.919,0,0,1,2.935.945c.91,1.087.7,2.612-1.048,3.619a5.443,5.443,0,0,1-3.488.613" transform="translate(-49.304 -29.775)" fill="#392d51"/>
        </g>
      </g>
    </g>
  </g>
</svg>
