<svg id="Grupo_983322" data-name="Grupo 983322" xmlns="http://www.w3.org/2000/svg" xmlns:xlink="http://www.w3.org/1999/xlink" width="90" height="90" viewBox="0 0 90 90">
  <defs>
    <clipPath id="clip-path">
      <rect id="Rectángulo_45018" data-name="Rectángulo 45018" width="52.658" height="66.877" fill="none"/>
    </clipPath>
  </defs>
  <g id="Grupo_982989" data-name="Grupo 982989">
    <path id="Trazado_207349" data-name="Trazado 207349" d="M45,0A45,45,0,1,0,90,45,45,45,0,0,0,45,0Z" transform="translate(0)" fill="#ffe891"/>
    <g id="Grupo_984221" data-name="Grupo 984221" transform="translate(19 12)">
      <g id="Grupo_174383" data-name="Grupo 174383" transform="translate(0)" clip-path="url(#clip-path)">
        <path id="Trazado_180122" data-name="Trazado 180122" d="M1.155,88.7c.082.268.168.535.257.8a2.222,2.222,0,0,1,.931,1.022c.226.517.467,1.027.716,1.532a14.128,14.128,0,0,0,3.993,4.8c-.041-.038.462.335.477.345q.377.263.765.508c.607.384,1.235.735,1.877,1.057a19.211,19.211,0,0,0,3.354,1.314,40.082,40.082,0,0,0,13.94,1.525c2.524-.093,5.033-.372,7.544-.636a23.448,23.448,0,0,0,7.776-1.8,18.645,18.645,0,0,0,5.817-5.13,39.271,39.271,0,0,0,.544-5.267,2.755,2.755,0,0,1,2.541-2.844c.045-.625.07-1.2.07-1.706,0-5.17-3.87-13.654-6.977-19.5S35.326,47.1,28.17,46.882,14.429,53.732,10.836,60.095C7.754,65.552,3.93,71.788.4,75.878A29.319,29.319,0,0,0,.469,85.958q.276,1.386.686,2.74" transform="translate(0 -34.775)" fill="#4f292c"/>
        <path id="Trazado_180123" data-name="Trazado 180123" d="M88.425,53.394l-.208,1.655-1.732,13.6c-1.178,9.254-9.36,15.871-18.292,14.773A16.418,16.418,0,0,1,54.03,66.681a18.244,18.244,0,0,1,.138-2.016l1.137-8.957.8-6.281c1.179-9.267,9.36-15.885,18.293-14.786s15.2,9.5,14.024,18.754" transform="translate(-40.08 -25.609)" fill="#ffb08c"/>
        <path id="Trazado_180124" data-name="Trazado 180124" d="M136.952,115.249a6.885,6.885,0,0,1,4.483-.243c.775.268,1.357-.895.576-1.165a8.271,8.271,0,0,0-5.484.192.645.645,0,0,0,.425,1.216" transform="translate(-100.969 -84.167)" fill="#4f292c"/>
        <path id="Trazado_180125" data-name="Trazado 180125" d="M78.052,111.911c1.319-.426,3.1-.41,4.093.661.563.607,1.487-.308.926-.914-1.3-1.4-3.592-1.56-5.346-.994-.791.255-.47,1.5.328,1.246" transform="translate(-57.32 -81.868)" fill="#4f292c"/>
        <path id="Trazado_180126" data-name="Trazado 180126" d="M92.6,52.817l-.212,1.654a11.67,11.67,0,0,0-6.58-6.849,42.606,42.606,0,0,0-8.886-2.181,21.216,21.216,0,0,0-12.117,1.7c-4.054,1.8-4.895,5.83-5.587,6.854l.454-5.143A16.917,16.917,0,0,1,78.3,34.064,16.581,16.581,0,0,1,92.6,52.817" transform="translate(-43.928 -25.181)" fill="#4f292c"/>
        <path id="Trazado_180127" data-name="Trazado 180127" d="M168.258,117.273a5.219,5.219,0,0,1-5.067,5.27,5.062,5.062,0,0,1-4.933-5.27A5.22,5.22,0,0,1,163.325,112a5.062,5.062,0,0,1,4.933,5.269" transform="translate(-117.402 -83.089)" fill="#ffb08c"/>
        <path id="Trazado_180128" data-name="Trazado 180128" d="M49.846,118.813a5.219,5.219,0,0,1-5.067,5.269,5.062,5.062,0,0,1-4.933-5.269,5.22,5.22,0,0,1,5.067-5.269,5.062,5.062,0,0,1,4.933,5.269" transform="translate(-29.559 -84.231)" fill="#ffb08c"/>
        <path id="Trazado_180129" data-name="Trazado 180129" d="M31.992,160.574l-3.755,6.471a.311.311,0,0,0,.112.433,7.311,7.311,0,0,0,3.227.969,6.66,6.66,0,0,0,3.035-.862.315.315,0,0,0,.144-.378l-2.187-6.579a.317.317,0,0,0-.576-.053" transform="translate(-20.914 -119)" fill="#ffb357"/>
        <path id="Trazado_180130" data-name="Trazado 180130" d="M181.427,159.032l3.591,6.471a.316.316,0,0,1-.123.433,7.467,7.467,0,0,1-3.252.969,6.526,6.526,0,0,1-3.014-.862.308.308,0,0,1-.134-.378l2.354-6.579a.319.319,0,0,1,.577-.053" transform="translate(-132.4 -117.857)" fill="#ffb357"/>
        <path id="Trazado_180131" data-name="Trazado 180131" d="M113.937,8.086a8.212,8.212,0,0,1-8.189,8.086,7.964,7.964,0,0,1-7.984-8.086A8.211,8.211,0,0,1,105.953,0a7.964,7.964,0,0,1,7.984,8.086" transform="translate(-72.525)" fill="#4f292c"/>
        <path id="Trazado_180132" data-name="Trazado 180132" d="M18.613,221.278c-.041-.038.463.335.477.345q.377.263.765.508c.607.384,1.235.735,1.877,1.057a19.185,19.185,0,0,0,3.354,1.314,40.081,40.081,0,0,0,13.939,1.525c2.524-.093,5.033-.372,7.544-.636a23.445,23.445,0,0,0,7.776-1.8,18.644,18.644,0,0,0,5.817-5.13c.19-1.279.38-2.558.478-3.847-7.721-.067-15.062.15-18.942.129a92.242,92.242,0,0,0-26.114,3.34,14.416,14.416,0,0,0,3.03,3.194" transform="translate(-11.56 -159.2)" fill="#ffb08c"/>
        <path id="Trazado_180133" data-name="Trazado 180133" d="M142.631,127.4a5.332,5.332,0,0,1-.36,2.09,1.286,1.286,0,0,1-2.431-.523,5.46,5.46,0,0,1,.293-2.02,1.284,1.284,0,0,1,2.5.454" transform="translate(-103.733 -93.533)" fill="#2f2031"/>
        <path id="Trazado_180134" data-name="Trazado 180134" d="M83.917,123.737a5.321,5.321,0,0,0-.226,2.107,1.29,1.29,0,0,0,2.49.1,5.462,5.462,0,0,0,.272-2.023,1.286,1.286,0,0,0-2.535-.186" transform="translate(-62.062 -91.056)" fill="#2f2031"/>
        <path id="Trazado_180135" data-name="Trazado 180135" d="M47.888,239.086c1.744-2.519,4.929-3.45,7.852-3.431a.647.647,0,0,0,.016-1.293c-3.446-.022-7.062,1.181-9.05,4.173a.729.729,0,0,0-.068.128c.374.138.781.274,1.25.422" transform="translate(-34.598 -173.859)" fill="#c45d4d"/>
        <path id="Trazado_180136" data-name="Trazado 180136" d="M58.107,216.167c2.785-2.52,8.266-2.187,11.653-1.533.811.157,1.175-1.089.36-1.246-3.866-.747-9.732-1.016-12.915,1.865-.622.563.282,1.475.9.914" transform="translate(-42.281 -157.93)" fill="#c45d4d"/>
        <path id="Trazado_180137" data-name="Trazado 180137" d="M94.415,201.225a13.8,13.8,0,0,1-1.29.84c-5.837-2.417-13.709-5.4-18.26-1.215a12.177,12.177,0,0,1-1-.84c5.194-4.989,14.2-1.383,20.548,1.215" transform="translate(-54.797 -146.525)" fill="#c45d4d"/>
        <path id="Trazado_180138" data-name="Trazado 180138" d="M47.838,250.234c.3-.647-.718-1.2-1.167-.545-.028.041-.053.083-.081.124.373.138.779.274,1.247.422" transform="translate(-34.563 -185.012)" fill="#c45d4d"/>
        <path id="Trazado_180139" data-name="Trazado 180139" d="M54.055,221.527c-1.482,1.366-1.869,4.5-.282,5.88.62.541,1.55-.369.926-.914-1.056-.921-.72-3.149.259-4.052.617-.568-.287-1.481-.9-.914" transform="translate(-39.132 -164.204)" fill="#c45d4d"/>
        <path id="Trazado_180140" data-name="Trazado 180140" d="M147.669,211.7c3.2,1.173,5.106,4.118,6.591,7.329q.458-.367.891-.768c-1.523-3.394-3.211-6.362-7.129-7.8-.772-.285-1.124.956-.352,1.241" transform="translate(-109.226 -156.098)" fill="#c45d4d"/>
        <path id="Trazado_180141" data-name="Trazado 180141" d="M109.91,178.01a7.714,7.714,0,0,0,5.585-2.793c.528-.641-.369-1.56-.9-.914a6.44,6.44,0,0,1-4.667,2.415c-.828.046-.85,1.339-.017,1.292" transform="translate(-81.079 -129.141)" fill="#c45d4d"/>
        <path id="Trazado_180142" data-name="Trazado 180142" d="M102.824,138.555c-.474.729-.925,1.469-1.338,2.233a8.37,8.37,0,0,0-1.053,2.228c-.2,1.205,1.822,2.132,2.609,2.746.652.508,1.31-.614.667-1.116a14.632,14.632,0,0,1-2.216-1.785l.158.629c.272-1.455,1.485-3.058,2.281-4.282.457-.7-.652-1.352-1.108-.652" transform="translate(-74.495 -102.562)" fill="#c45d4d"/>
      </g>
    </g>
  </g>
</svg>
