<svg xmlns="http://www.w3.org/2000/svg" xmlns:xlink="http://www.w3.org/1999/xlink" width="293.556" height="527.099" viewBox="0 0 293.556 527.099">
  <defs>
    <clipPath id="clip-path">
      <rect id="Rectángulo_45320" data-name="Rectángulo 45320" width="243.088" height="521.885" fill="none"/>
    </clipPath>
    <clipPath id="clip-path-2">
      <path id="Trazado_184051" data-name="Trazado 184051" d="M615.337,26.654s-9,12.03-13.178,12.39-15.128-2.576-15.128-7.741S594.866,9.97,607.784,9.97s7.553,16.684,7.553,16.684" transform="translate(-587.032 -9.97)" fill="none"/>
    </clipPath>
  </defs>
  <g id="Grupo_175251" data-name="Grupo 175251" transform="translate(0 0)">
    <g id="Grupo_174791" data-name="Grupo 174791" transform="translate(0 0)">
      <g id="Grupo_172620" data-name="Grupo 172620" transform="matrix(-0.998, 0.07, -0.07, -0.998, 293.556, 508.938)">
        <g id="Grupo_157493" data-name="Grupo 157493" transform="translate(0)">
          <path id="Trazado_114544" data-name="Trazado 114544" d="M141.348,6.855c36.131,15.352,73.6,36.067,88.154,70.71,16.15,38.447-.755,81.5-.349,122.832.323,32.739,11.62,64.357,20.508,96.016s15.417,65.3,6.246,96.885c-6.139,21.146-19.179,40.279-36.014,55.461-29.645,26.734-72.357,41.2-112.94,35.086S29.5,449.871,17.639,412.916C.83,360.558,33.665,304.667,26.686,250.376c-2.73-21.243-11.469-41.333-17.4-61.995A239.442,239.442,0,0,1,0,120.932C.226,86.082,9.631,48.9,37.316,25.692,65.241,2.281,106.8-7.826,141.348,6.855Z" fill="#6b8dfc"/>
        </g>
      </g>
      <g id="Grupo_175097" data-name="Grupo 175097" transform="translate(24.468)">
        <g id="Grupo_175098" data-name="Grupo 175098">
          <g id="Grupo_175097-2" data-name="Grupo 175097" transform="translate(0 0)" clip-path="url(#clip-path)">
            <path id="Trazado_183970" data-name="Trazado 183970" d="M38.353,415.465l-.205-10.559a8.482,8.482,0,0,0,2.943-4.631c.616-2.915,2.258-14.882,2.258-14.882l-20.6-2.223s-.288,16.888.821,20.686-.068,10.5-.068,10.5Z" transform="translate(195.268 -307.764)" fill="#a9543d"/>
            <path id="Trazado_183971" data-name="Trazado 183971" d="M130.865,390.861s-8.719-6.513-10.8-11.847c-1.774-4.549-2.527-8.251-3.412-10.545a1.314,1.314,0,0,1,.686-1.649,2.811,2.811,0,0,1,3.478.747,21.731,21.731,0,0,1,3.153,5.58c.676,2.015,6.124,4.238,6.124,4.238Z" transform="translate(89.283 -294.386)" fill="#a9543d"/>
            <path id="Trazado_183972" data-name="Trazado 183972" d="M100.182,300.347l-.7-19.1a2.4,2.4,0,0,1,2.5-2.381,2.432,2.432,0,0,1,2.547,2.155l1.164,19.325Z" transform="translate(117.823 -223.988)" fill="#a9543d"/>
            <path id="Trazado_183973" data-name="Trazado 183973" d="M66.6,296.662l1.42-20.293a2.551,2.551,0,0,1,2.781-2.316,2.432,2.432,0,0,1,2.264,2.55l-1.255,20.819Z" transform="translate(156.907 -220.113)" fill="#a9543d"/>
            <path id="Trazado_183974" data-name="Trazado 183974" d="M26.26,313.23l4.3-17.368a2.484,2.484,0,0,1,3.066-1.569,2.238,2.238,0,0,1,1.861,2.567l-4.217,17.85Z" transform="translate(202.378 -236.313)" fill="#a9543d"/>
            <path id="Trazado_183975" data-name="Trazado 183975" d="M0,339.543,5.075,326.8a1.987,1.987,0,0,1,2.563-.886,1.712,1.712,0,0,1,1.212,2.13L3.8,341.161Z" transform="translate(234.146 -261.66)" fill="#a9543d"/>
            <path id="Trazado_183976" data-name="Trazado 183976" d="M47.732,385.512a.4.4,0,0,0,.121-.783A47.5,47.5,0,0,0,32.01,382.5a.4.4,0,0,0,.057.8,46.684,46.684,0,0,1,15.544,2.191.4.4,0,0,0,.121.019" transform="translate(188.729 -307.199)"/>
            <path id="Trazado_183977" data-name="Trazado 183977" d="M459.91,364.122l-17.3-3.776V336.834H420.183V359.24L400.2,364.884l31.2,34.894Z" transform="translate(-295.581 -270.547)" fill="#a9543d"/>
            <path id="Trazado_183978" data-name="Trazado 183978" d="M488.1,346.335v-9.5h22.427v14.232c-7.385,5.746-17.161-.437-22.427-4.732" transform="translate(-363.501 -270.547)"/>
            <path id="Trazado_183979" data-name="Trazado 183979" d="M683.839,1763.949s1.733,36.111.879,53.979.894,70.174,3.484,87.066l19.237-.747s7.524-115.66,12.678-141.407Z" transform="translate(-611.607 -1415.918)" fill="#a9543d"/>
            <path id="Trazado_183980" data-name="Trazado 183980" d="M763.768,2377.714c-.867,12.34-1.391,20.4-1.391,20.4l-19.237.747c-.73-4.759-1.392-12.329-1.949-21.148Z" transform="translate(-666.544 -1909.786)" fill="#fff"/>
            <path id="Trazado_183981" data-name="Trazado 183981" d="M741.486,2397.563h.015l19.237-.747a.413.413,0,0,0,.389-.393c.005-.081.534-8.2,1.391-20.4a.433.433,0,0,0-.107-.318.4.4,0,0,0-.3-.135H739.537a.4.4,0,0,0-.3.134.431.431,0,0,0-.108.316c.593,9.393,1.268,16.719,1.953,21.187a.411.411,0,0,0,.4.356m18.858-1.576-18.513.719c-.651-4.4-1.293-11.392-1.861-20.291h21.709c-.735,10.477-1.222,17.859-1.335,19.572" transform="translate(-664.891 -1908.065)"/>
            <path id="Trazado_183982" data-name="Trazado 183982" d="M268.9,1739s4.17,34.21,2.876,52.489,10.973,69.824,13.562,86.682l21.814-2.844s-3.538-119.089-5.465-137.621Z" transform="translate(-116.986 -1395.733)" fill="#a9543d"/>
            <path id="Trazado_183983" data-name="Trazado 183983" d="M293.673,2340.947c.362,11.459.583,18.906.583,18.906l-21.814,2.844c-.668-4.352-1.982-11.016-3.54-18.822Z" transform="translate(-104.088 -1880.255)" fill="#fff"/>
            <path id="Trazado_183984" data-name="Trazado 183984" d="M270.783,2361.444a.435.435,0,0,0,.053,0l21.814-2.844a.406.406,0,0,0,.354-.415c0-.074-.225-7.578-.583-18.906a.406.406,0,0,0-.454-.39l-24.771,2.927a.406.406,0,0,0-.351.483c1.539,7.71,2.868,14.446,3.537,18.8a.406.406,0,0,0,.4.344m21.4-3.6-21.057,2.745c-.676-4.3-1.937-10.7-3.4-18.016l23.895-2.824c.305,9.68.51,16.482.558,18.095" transform="translate(-102.429 -1878.596)"/>
            <path id="Trazado_183985" data-name="Trazado 183985" d="M241.9,2403.437s-7.146-13.938.473-20.548c5.163-4.48-7.839-1.96-7.175,4.133.672,6.161,6.7,16.416,6.7,16.416" transform="translate(-46.781 -1912.112)"/>
            <path id="Trazado_183986" data-name="Trazado 183986" d="M240.221,2402.174a.407.407,0,0,0,.361-.592,32.588,32.588,0,0,1-2.587-7.7c-1.072-5.56-.075-9.715,2.964-12.352,1.177-1.021,1.583-1.811,1.243-2.415-.58-1.031-2.8-.414-3.461-.2a10.319,10.319,0,0,0-3.909,2.273,5.038,5.038,0,0,0-1.719,4.211c.673,6.177,6.507,16.156,6.755,16.578a.406.406,0,0,0,.35.2m.58-22.825c.418,0,.651.082.695.16s-.032.5-1.068,1.4c-3.231,2.8-4.347,7.347-3.226,13.138.134.693.292,1.363.462,2-1.629-3.37-3.4-7.618-3.741-10.743-.289-2.653,2.424-4.775,5.068-5.624a6.1,6.1,0,0,1,1.81-.335" transform="translate(-45.103 -1910.443)" fill="#fff"/>
            <path id="Trazado_183987" data-name="Trazado 183987" d="M769.6,2426.665s2.389,38.234.249,42.416c0,0-19.492,1.319-30.691,1.457,0,0-1.93-14.434,3.1-17.24,5.4-3.007,7.354-3.171,7.354-7.572s-1.185-18.526-1.185-18.526Z" transform="translate(-673.046 -1949.104)"/>
            <path id="Trazado_183988" data-name="Trazado 183988" d="M737.53,2469.237h0c11.082-.136,30.518-1.445,30.713-1.458a.4.4,0,0,0,.332-.223c2.169-4.239-.1-41.075-.2-42.641a.412.412,0,0,0-.414-.395l-21.169.534a.4.4,0,0,0-.292.141.433.433,0,0,0-.1.318c.012.141,1.183,14.158,1.183,18.49,0,3.417-1.2,4.046-4.743,5.912-.706.371-1.505.792-2.4,1.288-5.224,2.911-3.4,17.068-3.315,17.669a.412.412,0,0,0,.4.364m30.424-2.284c-2.25.149-19.632,1.286-30.067,1.435a50.735,50.735,0,0,1-.288-7.136c.131-3.5.8-7.951,3.226-9.305.882-.492,1.677-.91,2.379-1.279,3.67-1.93,5.188-2.729,5.188-6.665s-.948-15.672-1.15-18.116l20.349-.514c.805,13.045,1.863,37.635.361,41.579" transform="translate(-671.417 -1947.382)"/>
            <path id="Trazado_183989" data-name="Trazado 183989" d="M12.74,2398.083a85.323,85.323,0,0,1,1.516,14.148c0,6.56-1.683,31.329-1.683,31.329H85.241l1.41-7.7a7.907,7.907,0,0,0-6.794-9.271c-10.178-1.272-26.66-3.728-31.529-6.775-8.9-5.567-12.234-19.651-12.234-23.517Z" transform="translate(153.831 -1924.71)"/>
            <path id="Trazado_183990" data-name="Trazado 183990" d="M10.906,2442.309H83.574a.406.406,0,0,0,.4-.333l1.41-7.7a8.313,8.313,0,0,0-7.143-9.747c-9.629-1.2-26.507-3.677-31.364-6.716-4.727-2.959-7.663-8.272-9.293-12.208a33.947,33.947,0,0,1-2.75-10.965.406.406,0,0,0-.437-.405l-23.354,1.789a.406.406,0,0,0-.367.485,85.568,85.568,0,0,1,1.508,14.069c0,6.471-1.665,31.053-1.682,31.3a.407.407,0,0,0,.405.434m72.329-.813H11.341c.224-3.339,1.655-24.9,1.655-30.922a84.874,84.874,0,0,0-1.438-13.778l22.476-1.722a36.629,36.629,0,0,0,2.8,10.838c1.675,4.045,4.7,9.513,9.613,12.585,2.616,1.637,10.238,4.152,31.694,6.834a7.5,7.5,0,0,1,6.445,8.794Z" transform="translate(155.498 -1923.052)"/>
            <path id="Trazado_183991" data-name="Trazado 183991" d="M196,2462.656h.018a.407.407,0,0,0,.388-.424l-.36-8.153a.406.406,0,0,0-.528-.37l-8.961,2.834,3.028-6.991a.406.406,0,0,0-.365-.568l-10.021-.194,3.549-7.009a.406.406,0,0,0-.725-.367L178.181,2449a.407.407,0,0,0,.355.59l10.062.194-3.141,7.252a.406.406,0,0,0,.5.549l9.305-2.943.336,7.624a.406.406,0,0,0,.406.388" transform="translate(11.625 -1960.772)" fill="#fd521b"/>
            <path id="Trazado_183992" data-name="Trazado 183992" d="M788.409,2437.751s3.417-1,4.251-9.536a88.336,88.336,0,0,0-.236-15.153,5.377,5.377,0,0,0-5.494-5.007l-5.337-.037a4.016,4.016,0,0,0-3.753,3.67s.961,9.337.961,21.323c0,1.348-2.927,4.446-2.927,4.446Z" transform="translate(-702.499 -1934.127)"/>
            <path id="Trazado_183993" data-name="Trazado 183993" d="M786.757,2436.451a.4.4,0,0,0,.11-.015c.15-.045,3.693-1.182,4.544-9.9a88.833,88.833,0,0,0-.236-15.234,5.781,5.781,0,0,0-5.9-5.389l-5.328-.037h-.02a4.507,4.507,0,0,0-2.825,1.256,3.931,3.931,0,0,0-1.316,2.838.353.353,0,0,0,0,.041c.009.093.959,9.454.959,21.279,0,.855-1.724,3-2.811,4.15a.435.435,0,0,0-.087.455.406.406,0,0,0,.366.263l12.535.293h.009m-1.258-29.7a4.974,4.974,0,0,1,4.869,4.628,87.983,87.983,0,0,1,.237,15.071c-.735,7.521-3.515,8.983-3.915,9.155l-11.549-.27c.925-1.06,2.413-2.937,2.413-4.046,0-11.594-.91-20.833-.961-21.347a3.645,3.645,0,0,1,3.355-3.225l5.327.037h.019c.068,0,.136,0,.2,0" transform="translate(-700.846 -1932.405)" fill="#fff"/>
            <path id="Trazado_183994" data-name="Trazado 183994" d="M774.22,2470.457l.047,0,15.894-1.908a.419.419,0,0,0,.356-.467.409.409,0,0,0-.449-.371l-11.467,1.376,12.04-3.824a.421.421,0,0,0,.286-.419.417.417,0,0,0-.316-.4l-13.082-3.062,13.833-4.453a.427.427,0,0,0-.011-.81l-14.626-4.254a.4.4,0,0,0-.5.293.424.424,0,0,0,.281.52l13.3,3.868-13.97,4.5a.427.427,0,0,0,.031.815l13.07,3.06-14.837,4.712a.424.424,0,0,0-.278.49.41.41,0,0,0,.4.336" transform="translate(-700.845 -1969.333)" fill="#fd521b"/>
            <path id="Trazado_183995" data-name="Trazado 183995" d="M257.381,2436.748a.411.411,0,0,0,.11-.016l25.035-7.033a.407.407,0,0,0-.22-.783l-25.035,7.033a.407.407,0,0,0,.11.8" transform="translate(-90.307 -1950.9)" fill="#fd521b"/>
            <path id="Trazado_183996" data-name="Trazado 183996" d="M250.25,2420.622a.315.315,0,0,0,.048,0l27.108-3.167a.407.407,0,0,0-.094-.808l-27.108,3.168a.406.406,0,0,0,.047.81" transform="translate(-83.846 -1941.052)" fill="#fd521b"/>
            <path id="Trazado_183997" data-name="Trazado 183997" d="M743.468,2547.778a48.917,48.917,0,0,0,5.658-3.23c6.843-.653,16.377-.439,17.724,5.535a79.686,79.686,0,0,1,1.723,9.948H771.7a26.5,26.5,0,0,1-.723,5.016s-19.386-.158-30.617-.03c0,0-.1-.7-.206-2.267h0c-.305-4.37-.393-12.908,3.311-14.972" transform="translate(-674.25 -2043.584)" fill="#fff"/>
            <path id="Trazado_183998" data-name="Trazado 183998" d="M769.326,2563.716a.4.4,0,0,0,.358-.223,25.374,25.374,0,0,0,.769-5.177.433.433,0,0,0-.105-.322.4.4,0,0,0-.3-.136h-2.765a83.409,83.409,0,0,0-1.694-9.623c-.764-3.391-4.534-7.159-18.155-5.859a.4.4,0,0,0-.213.088,20.16,20.16,0,0,1-3.207,1.9c-.7.371-1.5.79-2.391,1.286-3.851,2.146-3.861,10.554-3.524,15.375.11,1.567.206,2.268.209,2.3a.411.411,0,0,0,.4.362h0c11.1-.126,30.416.028,30.609.03Zm.28-5.015a31.27,31.27,0,0,1-.558,4.17c-2.4-.018-19.567-.143-29.981-.031-.038-.353-.1-.967-.16-1.872-.26-3.717-.478-12.577,3.1-14.57.88-.491,1.674-.908,2.375-1.277a22.339,22.339,0,0,0,3.246-1.916c5.908-.553,15.866-.585,17.175,5.222a79.348,79.348,0,0,1,1.714,9.892.412.412,0,0,0,.4.382Z" transform="translate(-672.596 -2041.831)"/>
            <path id="Trazado_183999" data-name="Trazado 183999" d="M12.819,2554.868H64.882l2.188-13.98c4.522.75,9.074,1.372,12.788,1.836a7.906,7.906,0,0,1,6.794,9.27l-.526,2.873-.884,4.83H12.574s.1-2.682.245-4.83" transform="translate(153.831 -2040.848)" fill="#fff"/>
            <path id="Trazado_184000" data-name="Trazado 184000" d="M10.906,2558.447H83.574a.406.406,0,0,0,.4-.333l1.41-7.7a8.312,8.312,0,0,0-7.143-9.747c-4.624-.578-8.921-1.2-12.772-1.834a.406.406,0,0,0-.468.338L62.867,2552.8H11.151a.406.406,0,0,0-.405.378c-.146,2.131-.245,4.817-.246,4.844a.407.407,0,0,0,.406.421m72.329-.813H11.329c.031-.775.1-2.488.2-4.018H63.215a.406.406,0,0,0,.4-.344L65.74,2539.7c3.756.617,7.926,1.213,12.4,1.772a7.5,7.5,0,0,1,6.445,8.795Z" transform="translate(155.498 -2039.189)"/>
            <path id="Trazado_184001" data-name="Trazado 184001" d="M739.536,2464.821a.385.385,0,0,0,.064-.005l21.585-3.57a.42.42,0,0,0,.337-.483.407.407,0,0,0-.464-.35l-21.585,3.57a.42.42,0,0,0-.337.483.41.41,0,0,0,.4.355" transform="translate(-663.898 -1976.206)" fill="#fd521b"/>
            <path id="Trazado_184002" data-name="Trazado 184002" d="M761.846,2440.333a.422.422,0,0,0,.016-.843l-21.838-.923a.422.422,0,0,0-.033.843l21.838.923h.017" transform="translate(-664.715 -1958.663)" fill="#fd521b"/>
            <path id="Trazado_184003" data-name="Trazado 184003" d="M172.1,2389.565a34.328,34.328,0,0,0,7.206-.7c2.844-.628,4.935-2.01,5.888-3.891a4.524,4.524,0,0,0,.215-3.816,4.43,4.43,0,0,0-2.9-2.391c-2.022-.578-4.475.019-6.908,1.679-4.141,2.826-8.013,8.032-8.176,8.252a.407.407,0,0,0,.28.646,41.748,41.748,0,0,0,4.4.218m8.818-10.2a4.957,4.957,0,0,1,1.363.184,3.386,3.386,0,0,1,2.188,5.06c-.841,1.66-2.737,2.89-5.339,3.465a39.166,39.166,0,0,1-10.612.53,39.434,39.434,0,0,1,7.536-7.485,8.883,8.883,0,0,1,4.863-1.754" transform="translate(24.419 -1910.463)" fill="#fd521b"/>
            <path id="Trazado_184004" data-name="Trazado 184004" d="M157.952,2349.4a.4.4,0,0,0,.206-.056,111.064,111.064,0,0,0,12.793-8.991c3.286-2.74,6.843-6.649,6.972-9.4a1.556,1.556,0,0,0-1.779-1.8c-.863.032-4.1.625-9.469,6.9a114.776,114.776,0,0,0-9.07,12.737.406.406,0,0,0,.348.617m18.3-19.446a.924.924,0,0,1,.664.2,1.014,1.014,0,0,1,.194.754c-.117,2.5-3.672,6.31-6.681,8.819a107.693,107.693,0,0,1-11.219,8.017,107.293,107.293,0,0,1,8.08-11.172c5.291-6.182,8.328-6.6,8.883-6.619h.079" transform="translate(34.157 -1870.773)" fill="#fd521b"/>
            <path id="Trazado_184005" data-name="Trazado 184005" d="M857.581,2401.576a.391.391,0,0,0,.221-.068.427.427,0,0,0,.183-.384,29.852,29.852,0,0,0-3.476-11.444c-2.56-4.468-5.895-6.976-7.91-7.416a2.167,2.167,0,0,0-1.789.26,2.831,2.831,0,0,0-.914,2.138,10.691,10.691,0,0,0,.882,4.6,16.036,16.036,0,0,0,3.4,5.165,45.979,45.979,0,0,0,9.208,7.1.394.394,0,0,0,.191.05m-11.654-18.546a2.414,2.414,0,0,1,.505.06c1.906.416,5.053,2.962,7.38,7.022a29.205,29.205,0,0,1,3.278,10.268,45.329,45.329,0,0,1-8.341-6.555c-3.016-3.075-4.212-6.871-4.045-9.1a2.088,2.088,0,0,1,.576-1.517,1.075,1.075,0,0,1,.647-.18m8.233,6.865h0Z" transform="translate(-780.971 -1913.379)" fill="#fd521b"/>
            <path id="Trazado_184006" data-name="Trazado 184006" d="M854.313,2446.814c.91,0,1.484-.041,1.545-.045a.406.406,0,0,0,.337-.238.437.437,0,0,0-.031-.422,20.136,20.136,0,0,0-6.283-5.854c-2.223-1.236-5.558-2.222-7.63-1.465a1.85,1.85,0,0,0-1.147.979,2.341,2.341,0,0,0,.228,1.9,9.4,9.4,0,0,0,6.194,4.4,30.466,30.466,0,0,0,6.786.746m.727-.855a30.346,30.346,0,0,1-7.334-.714,8.677,8.677,0,0,1-5.651-3.958,1.6,1.6,0,0,1-.206-1.185,1.119,1.119,0,0,1,.67-.515c1.331-.486,4.156-.157,6.98,1.413a19.232,19.232,0,0,1,5.541,4.958m-5.35-5.331h0Z" transform="translate(-778.652 -1958.631)" fill="#fd521b"/>
            <path id="Trazado_184007" data-name="Trazado 184007" d="M1097.79,1435.639c-3.936,4.8-11.939,15.387-16.855,18.679a2.993,2.993,0,0,1-3.487-.125,2.206,2.206,0,0,1-.425-3.066c3.005-4.033,10.264-13.9,11.5-16.693.821-1.854,3.869-1.784,6.588-1.3,2.25.4,4.128.733,2.677,2.5" transform="translate(-1067.082 -1150.864)" fill="#a9543d"/>
            <path id="Trazado_184008" data-name="Trazado 184008" d="M1122.615,1430.8s-14.234,12.417-22.193,15.826a3.207,3.207,0,0,1-3.674-.839,2.052,2.052,0,0,1,.167-2.875c3.659-3.305,14.071-12.082,15.846-14.61,2.226-3.17,9.854,2.5,9.854,2.5" transform="translate(-1095.265 -1146.442)" fill="#a9543d"/>
            <path id="Trazado_184009" data-name="Trazado 184009" d="M1129.574,1411.3s-14.749,10.644-22.463,13.043a2.772,2.772,0,0,1-2.968-.9,2.016,2.016,0,0,1,.354-2.888c3.8-2.843,12.83-9.691,14.646-11.83,2.313-2.724,10.43,2.58,10.43,2.58" transform="translate(-1103.69 -1130.866)" fill="#a9543d"/>
            <path id="Trazado_184010" data-name="Trazado 184010" d="M1011.192,1357.547c3.313-2.087,12.132-7.7,13.925-9.46,4.309-4.23,12.365-12.16,12.365-12.16s14.911,1.23,16.162,1.917c.273.15-.2,1.377-1.168,3.184-.366,2.383-1.574,9.673-3.264,14.093-2.042,5.34-3.757,8.679-4.667,11.365s-4.466,3.681-5.54.19c-.685-2.228.244-5.552,1.21-8.883a14.012,14.012,0,0,1-2.176,1.7c-1.928,1.164-7.629-7.6-7.629-7.6s-9.918,7.052-16.385,8.765a3.021,3.021,0,0,1-3.2-1.119,1.379,1.379,0,0,1,.373-1.989" transform="translate(-1009.506 -1073.02)" fill="#a9543d"/>
            <path id="Trazado_184011" data-name="Trazado 184011" d="M1209.328,1438.169c.747-.471,1.775-1.121,2.939-1.866a.881.881,0,0,1,.47.355c.392.626-.186,1.693-1.29,2.384s-2.317.742-2.708.116c-.013-.021-.022-.043-.032-.064a1.374,1.374,0,0,1,.622-.925" transform="translate(-1207.642 -1153.643)"/>
            <path id="Trazado_184012" data-name="Trazado 184012" d="M1212.5,1466.071a2,2,0,0,1,.719-1.027c.609-.456,1.352-1.015,2.178-1.64a1.262,1.262,0,0,1,1.332.258c.449.586-.1,1.763-1.234,2.629s-2.411,1.091-2.86.5a.9.9,0,0,1-.135-.724" transform="translate(-1212.415 -1175.356)"/>
            <path id="Trazado_184013" data-name="Trazado 184013" d="M1207.266,1498.582c.482-.436,1.062-.961,1.708-1.55.942-.462,1.8-.525,2.135-.089.449.587-.22,1.853-1.494,2.828-1.146.877-2.391,1.219-2.956.853a2.049,2.049,0,0,1,.607-2.042" transform="translate(-1205.615 -1202.112)"/>
            <path id="Trazado_184014" data-name="Trazado 184014" d="M1168.6,1518.841l.618-.832c.884-.8,1.889-1.1,2.373-.657.546.5.219,1.747-.733,2.793a2.877,2.877,0,0,1-2.366,1.169,2.2,2.2,0,0,1,.107-2.473" transform="translate(-1158.656 -1218.579)"/>
            <path id="Trazado_184015" data-name="Trazado 184015" d="M1058.365,1476.512a2.013,2.013,0,0,1,1.249,1.961c-.114.3-.22.594-.317.879a3.639,3.639,0,0,1-2.121,2.264,1.479,1.479,0,0,1-.359-.063c-1.035-.318-1.528-1.7-1.1-3.1s1.613-2.264,2.648-1.946" transform="translate(-1024.259 -1185.886)"/>
            <path id="Trazado_184016" data-name="Trazado 184016" d="M1125.021,1451.876a.3.3,0,0,0,.243-.122c3.012-4.043,7.573-10.553,8.291-11.929a.3.3,0,0,0-.538-.281c-.706,1.353-5.24,7.822-8.24,11.847a.3.3,0,0,0,.243.484" transform="translate(-1111.844 -1156.115)"/>
            <path id="Trazado_184017" data-name="Trazado 184017" d="M1144.307,1438.666a.3.3,0,0,0,.185-.063,97.038,97.038,0,0,0,12.541-12.223.3.3,0,0,0-.464-.391,96.391,96.391,0,0,1-12.447,12.133.3.3,0,0,0,.185.544" transform="translate(-1139.154 -1145.271)"/>
            <path id="Trazado_184018" data-name="Trazado 184018" d="M1155.452,1420.979a.3.3,0,0,0,.182-.061c.62-.464,1.325-.987,2.079-1.546,3.816-2.827,9.043-6.7,10.585-8.515a.3.3,0,1,0-.462-.393c-1.5,1.763-6.691,5.611-10.484,8.421-.755.559-1.461,1.083-2.082,1.548a.3.3,0,0,0,.182.546" transform="translate(-1152.613 -1132.803)"/>
            <path id="Trazado_184019" data-name="Trazado 184019" d="M1014.94,1335.927s14.911,1.23,16.162,1.917c.273.15-.2,1.377-1.168,3.184-.132.858-.373,2.352-.706,4.119l-18.68-4.9,4.392-4.323" transform="translate(-986.964 -1073.02)"/>
            <path id="Trazado_184020" data-name="Trazado 184020" d="M163.116,884.047c-31.525,52.865-68.508,277.788-68.508,277.788l83.11,5.252,11.123-181.359,4.693,1.126,17.861,177.761,69.825-3.4S247.93,939.876,222.566,884.276c0,0-51.3-13.893-59.45-.229" transform="translate(-56.75 -705.239)"/>
            <path id="Trazado_184021" data-name="Trazado 184021" d="M515.06,1045.631a.492.492,0,0,0,.492-.492V985.127a.492.492,0,0,0-.492-.492h-13.4a.492.492,0,0,0-.492.492v36.507a.492.492,0,1,0,.984,0V985.619h12.42v59.519a.492.492,0,0,0,.492.492" transform="translate(-371.092 -790.862)" fill="#fff"/>
            <path id="Trazado_184022" data-name="Trazado 184022" d="M432.063,944.33H356.311a161.181,161.181,0,0,1,7.148-16.137h62.869c1.879,4.577,3.8,10.007,5.735,16.137" transform="translate(-259.097 -745.527)" fill="#a9543d"/>
            <path id="Trazado_184023" data-name="Trazado 184023" d="M446.484,96.623c0-17.2-13.063-31.137-29.178-31.137s-29.177,13.941-29.177,31.137,13.063,31.137,29.177,31.137,29.178-13.941,29.178-31.137" transform="translate(-279.779 -52.599)" fill="#a9543d"/>
            <path id="Trazado_184024" data-name="Trazado 184024" d="M615.338,26.654S620.7,9.97,607.784,9.97,587.033,26.138,587.033,31.3s10.949,8.1,15.128,7.741,13.178-12.39,13.178-12.39" transform="translate(-488.881 -8.009)" fill="#fea419"/>
            <path id="Trazado_184025" data-name="Trazado 184025" d="M351.017,226.866s6.379-5.18,8.8,2.838c2.313,7.653-6.734,11-9.055,9.94-4.306-1.967-4.746-6.4.253-12.778" transform="translate(-185.474 -180.898)" fill="#a9543d"/>
            <path id="Trazado_184026" data-name="Trazado 184026" d="M357.228,245.644a.653.653,0,0,0,.565-.324,8.871,8.871,0,0,1,6.145-4.079.653.653,0,0,0-.14-1.3,10.039,10.039,0,0,0-7.133,4.72.653.653,0,0,0,.564.982" transform="translate(-191.605 -192.719)"/>
            <path id="Trazado_184027" data-name="Trazado 184027" d="M436.657,928.193c1.007,2.452,2.024,5.151,3.05,8.069H369.954c1.284-2.936,2.563-5.635,3.834-8.069Z" transform="translate(-269.426 -745.527)"/>
            <path id="Trazado_184028" data-name="Trazado 184028" d="M376.517,263a.653.653,0,0,0,.56-.989l-2.292-3.82a.653.653,0,1,0-1.12.672l2.292,3.82a.653.653,0,0,0,.561.317" transform="translate(-207.6 -207.127)"/>
            <path id="Trazado_184029" data-name="Trazado 184029" d="M528.055,219.826a.653.653,0,0,0,.555-1l-2.417-3.91a.653.653,0,0,0-1.008-.128l-3.555,3.412a.653.653,0,1,0,.9.942l2.972-2.853,1.992,3.223a.653.653,0,0,0,.556.31" transform="translate(-388.236 -172.375)"/>
            <path id="Trazado_184030" data-name="Trazado 184030" d="M485.521,280.167c9,4.29,15.352-3.04,15.352-3.04Z" transform="translate(-353.335 -222.59)"/>
            <path id="Trazado_184031" data-name="Trazado 184031" d="M411.857,191.1s5.931-17.295,17.916-3.661c0,0-6.423,13.139-17.916,3.661" transform="translate(-267.737 -146.342)" fill="#fff"/>
            <path id="Trazado_184032" data-name="Trazado 184032" d="M92.384,469.2S64.411,475,55.437,483.978,1.865,634.167,1.865,634.167l27.34,14.04L71.159,541.376l-.019,21.3,94.937.53,1.148-27.292s10.6,23.015,19.954,39.4c4.541,7.951,16.656,9.312,22.583,7.292,5.96-2.031,13.157-10.429,13.046-18l-1.481-81.366-29.742-3.88-.63,26.943s-12.71-21.286-18.376-26.146c-4.83-4.144-36.3-11.985-36.3-11.985s.031,13.265-20.78,13.265S92.384,469.2,92.384,469.2" transform="translate(19.91 -376.037)" fill="#ffd947"/>
            <path id="Trazado_184033" data-name="Trazado 184033" d="M508.42,1070.7a.59.59,0,0,0,.59-.572l1.78-58.2a.59.59,0,0,0-1.18-.036l-1.78,58.2a.591.591,0,0,0,.572.608h.018" transform="translate(-367.643 -812.292)"/>
            <path id="Trazado_184034" data-name="Trazado 184034" d="M319.42,1117.548a.492.492,0,0,0,0-.984,16.52,16.52,0,0,1-10.758-3.966,28.471,28.471,0,0,1-6.821-8.826,51.557,51.557,0,0,1-4.578-12.955.492.492,0,0,0-.968.176,52.616,52.616,0,0,0,4.664,13.216c4.572,8.726,10.956,13.339,18.461,13.339" transform="translate(-135.133 -875.823)" fill="#fff"/>
            <path id="Trazado_184035" data-name="Trazado 184035" d="M690.249,1113.752c7.5,0,13.946-4.357,18.649-12.6a48.606,48.606,0,0,0,4.867-12.5.492.492,0,1,0-.963-.2,47.561,47.561,0,0,1-4.77,12.229,27.783,27.783,0,0,1-6.952,8.334,17.377,17.377,0,0,1-10.831,3.75.492.492,0,1,0,0,.984" transform="translate(-606.43 -873.936)" fill="#fff"/>
            <path id="Trazado_184036" data-name="Trazado 184036" d="M413.766,1089.51a.492.492,0,0,0,0-.984l-87.019-.462h0a.492.492,0,0,0,0,.984l87.019.462Z" transform="translate(-235.377 -873.936)" fill="#fff"/>
            <path id="Trazado_184037" data-name="Trazado 184037" d="M514.012,1417.906a.492.492,0,0,0,.129-.967l-21.588-5.9a.492.492,0,1,0-.259.949l21.588,5.9a.5.5,0,0,0,.13.018" transform="translate(-368.227 -1133.338)" fill="#fff"/>
            <path id="Trazado_184038" data-name="Trazado 184038" d="M586.615,190.567s-5.8-17.339-17.888-3.8c0,0,6.325,13.187,17.888,3.8" transform="translate(-455.451 -145.862)" fill="#fff"/>
            <path id="Trazado_184039" data-name="Trazado 184039" d="M580.311,157.1a.653.653,0,0,0,.478-1.1c-.183-.2-4.587-4.781-13.521-.891a.653.653,0,1,0,.521,1.2c8.1-3.524,12,.541,12.043.583a.651.651,0,0,0,.479.209" transform="translate(-449.436 -123.335)"/>
            <path id="Trazado_184040" data-name="Trazado 184040" d="M432.863,157.1a.652.652,0,0,0,.477-.207c.164-.173,4.008-4.083,12.045-.585a.653.653,0,1,0,.522-1.2c-8.934-3.89-13.339.694-13.521.891a.653.653,0,0,0,.478,1.1" transform="translate(-288.268 -123.336)"/>
            <path id="Trazado_184041" data-name="Trazado 184041" d="M417.751,65.486c12.012,0,29.1,10.268,29.1,28.817L436.182,79.2c-2.213,9.14-4.973-9.222-4.973-9.222-26.5,20.165-26.383,5.094-26.383,5.094s-8.517,18.145-12.987,10.645c0,0-1.876,11.306-3.265,10.909C387.638,74.714,405,65.486,417.751,65.486" transform="translate(-280.223 -52.599)" fill="#fea419"/>
            <path id="Trazado_184042" data-name="Trazado 184042" d="M670.929,225.707s-6.379-5.18-8.8,2.838c-2.313,7.653,6.734,11,9.055,9.94,4.306-1.967,4.746-6.4-.253-12.778" transform="translate(-561.689 -179.967)" fill="#a9543d"/>
            <path id="Trazado_184043" data-name="Trazado 184043" d="M684.51,244.487a.653.653,0,0,0,.564-.982,10.039,10.039,0,0,0-7.134-4.72.653.653,0,0,0-.14,1.3,8.871,8.871,0,0,1,6.145,4.079.653.653,0,0,0,.565.324" transform="translate(-575.35 -191.79)"/>
            <path id="Trazado_184044" data-name="Trazado 184044" d="M682.957,261.844a.653.653,0,0,0,.561-.317l2.292-3.82a.653.653,0,1,0-1.12-.672l-2.292,3.82a.653.653,0,0,0,.559.989" transform="translate(-577.091 -206.197)"/>
            <path id="Trazado_184045" data-name="Trazado 184045" d="M426.172,188.368a6.5,6.5,0,0,1,.259-1.817c1.939-2.775,5.074-5.5,9.416-3.849a6.5,6.5,0,0,1,1.666,9.993,8.96,8.96,0,0,1-7.552,1.579,6.5,6.5,0,0,1-3.79-5.906" transform="translate(-279.948 -146.346)"/>
            <path id="Trazado_184046" data-name="Trazado 184046" d="M579.314,187.727a6.494,6.494,0,0,1,3.361-5.641c4.355-1.615,7.469,1.131,9.387,3.92a6.5,6.5,0,0,1-3.589,7.7,8.959,8.959,0,0,1-7.54-1.635,6.47,6.47,0,0,1-1.62-4.34" transform="translate(-463.228 -145.866)"/>
            <path id="Trazado_184047" data-name="Trazado 184047" d="M520.92,1042.241a3.306,3.306,0,1,0,3.306-3.306,3.306,3.306,0,0,0-3.306,3.306" transform="translate(-386.961 -834.476)"/>
            <path id="Trazado_184048" data-name="Trazado 184048" d="M522.218,1044.031a3.8,3.8,0,1,0-3.8-3.8,3.8,3.8,0,0,0,3.8,3.8m0-6.612a2.814,2.814,0,1,1-2.814,2.814,2.817,2.817,0,0,1,2.814-2.814" transform="translate(-384.953 -832.468)" fill="#fff"/>
          </g>
        </g>
        <g id="Grupo_175100" data-name="Grupo 175100" transform="translate(98.152 1.961)">
          <g id="Grupo_175099" data-name="Grupo 175099" transform="translate(0)" clip-path="url(#clip-path-2)">
            <path id="Trazado_184049" data-name="Trazado 184049" d="M651.966,35.253q.4,0,.809-.023a.653.653,0,1,0-.074-1.3c-2.942.166-5.091-.655-6.389-2.441-4.2-5.782,1.136-19.746,1.19-19.887a.653.653,0,1,0-1.218-.473,51.412,51.412,0,0,0-2.262,8.063c-1.144,5.969-.73,10.364,1.232,13.063,1.449,1.994,3.7,3,6.712,3" transform="translate(-635.074 -10.563)"/>
            <path id="Trazado_184050" data-name="Trazado 184050" d="M602.515,22.771a.66.66,0,0,0,.116-.01c3.95-.705,7.831-4.633,11.536-11.674A72.484,72.484,0,0,0,618.518.855a.653.653,0,0,0-1.244-.4c-.062.195-6.341,19.495-14.872,21.018a.653.653,0,0,0,.114,1.3" transform="translate(-592.058 -1.964)"/>
          </g>
        </g>
        <g id="Grupo_175102" data-name="Grupo 175102">
          <g id="Grupo_175101" data-name="Grupo 175101" transform="translate(0 0)" clip-path="url(#clip-path)">
            <path id="Trazado_184052" data-name="Trazado 184052" d="M773.168,610.609a.556.556,0,0,0,.058,0,.591.591,0,0,0,.531-.644,127.7,127.7,0,0,0-3.745-19.271c-2.653-9.608-7.61-22.57-16.158-29.752a.59.59,0,1,0-.759.9c8.312,6.984,13.166,19.7,15.774,29.144a126.417,126.417,0,0,1,3.713,19.089.59.59,0,0,0,.587.534" transform="translate(-678.837 -450.436)"/>
            <path id="Trazado_184053" data-name="Trazado 184053" d="M233.152,615.306a.59.59,0,0,0,.58-.484l6.182-33.656a.59.59,0,0,0-1.161-.213l-6.182,33.656a.591.591,0,0,0,.581.7" transform="translate(-42.603 -466.235)"/>
            <path id="Trazado_184054" data-name="Trazado 184054" d="M143.956,707.85a.591.591,0,0,0,.59-.568l1.782-46.724a.59.59,0,0,0-1.18-.045l-1.782,46.724a.59.59,0,0,0,.568.613h.023" transform="translate(68.546 -530.07)"/>
            <path id="Trazado_184055" data-name="Trazado 184055" d="M150.4,847.359a.59.59,0,0,0,.485-.253l6.574-9.435a.59.59,0,1,0-.969-.675l-6.574,9.435a.591.591,0,0,0,.484.928" transform="translate(56.042 -672.074)"/>
          </g>
        </g>
      </g>
    </g>
  </g>
</svg>
