<svg xmlns="http://www.w3.org/2000/svg" xmlns:xlink="http://www.w3.org/1999/xlink" width="293" height="248" viewBox="0 0 293 248">
  <defs>
    <clipPath id="clip-path">
      <rect id="Rectángulo_45327" data-name="Rectángulo 45327" width="293" height="232.092" fill="#8284d2"/>
    </clipPath>
    <clipPath id="clip-path-2">
      <path id="Trazado_212769" data-name="Trazado 212769" d="M11,0H282a11,11,0,0,1,11,11V237a11,11,0,0,1-11,11H11A11,11,0,0,1,0,237V11A11,11,0,0,1,11,0Z" transform="translate(548 6556)" fill="#8284d2"/>
    </clipPath>
    <clipPath id="clip-path-3">
      <rect id="Rectángulo_339041" data-name="Rectángulo 339041" width="239.1" height="546.161" fill="none"/>
    </clipPath>
    <clipPath id="clip-path-5">
      <rect id="Rectángulo_339039" data-name="Rectángulo 339039" width="14.659" height="16.858" fill="none"/>
    </clipPath>
  </defs>
  <g id="Grupo_984447" data-name="Grupo 984447" transform="translate(4250 5056)">
    <g id="Grupo_984446" data-name="Grupo 984446">
      <g id="Grupo_984230" data-name="Grupo 984230" transform="translate(-4798 -9656)">
        <path id="Trazado_184680" data-name="Trazado 184680" d="M11,0H282a11,11,0,0,1,11,11V237a11,11,0,0,1-11,11H11A11,11,0,0,1,0,237V11A11,11,0,0,1,11,0Z" transform="translate(548 4600)" fill="#8284d2"/>
        <g id="Grupo_175135" data-name="Grupo 175135" transform="translate(521.866 4600)">
          <g id="Grupo_175118" data-name="Grupo 175118" transform="translate(26.134)" clip-path="url(#clip-path)">
            <path id="Trazado_184134" data-name="Trazado 184134" d="M651.389,573.808h-78c5.409-5.822,11.761-8.727,18.482-7.685,2.78-3.987,6.849-5.995,10.729-5.11,5.638-6.137,12.791-9.167,19.836-8.217s13.8,5.811,18.543,13.347C644.867,564.79,649.313,568.9,651.389,573.808Z" transform="translate(-424.92 -406.976)" fill="#8284d2" stroke="#fff" stroke-miterlimit="10" stroke-width="2"/>
            <path id="Trazado_184135" data-name="Trazado 184135" d="M581.846,111.941h70.786c-4.909-6.006-10.673-9-16.773-7.928-2.522-4.113-6.215-6.184-9.737-5.271-5.117-6.331-11.608-9.456-18-8.477S595.6,96.26,591.294,104.034C587.764,102.638,583.73,106.874,581.846,111.941Z" transform="translate(-431.084 -66.345)" fill="#8284d2" stroke="#fff" stroke-miterlimit="10" stroke-width="2"/>
            <path id="Trazado_184136" data-name="Trazado 184136" d="M1001.451,806.61H944.272c3.965-4.268,8.622-6.4,13.549-5.634,2.038-2.923,5.02-4.395,7.865-3.746,4.133-4.5,9.377-6.72,14.541-6.024s10.114,4.26,13.593,9.784C996.67,800,999.929,803.009,1001.451,806.61Z" transform="translate(-695.185 -582.585)" fill="#8284d2" stroke="#fff" stroke-miterlimit="10" stroke-width="2"/>
            <path id="Trazado_184137" data-name="Trazado 184137" d="M835.259,356.186h49.972c-2.892-5.041-7.84-7.7-12.246-6.069-4.095-5.409-9.542-8.565-15.106-8.538s-11.092,3.171-15.161,8.621C839.909,348.709,836.5,352.272,835.259,356.186Z" transform="translate(-615.746 -251.553)" fill="#8284d2" stroke="#fff" stroke-miterlimit="10" stroke-width="2"/>
            <path id="Trazado_184138" data-name="Trazado 184138" d="M33.915,821.525H2.142c4.09-4.743,9.667-7.208,14.8-5.584,2.31-2.671,5.606-4.1,8.522-3.323S32.425,817.842,33.915,821.525Z" transform="translate(-8.651 -598.29)" fill="#8284d2" stroke="#fff" stroke-miterlimit="10" stroke-width="2"/>
            <path id="Trazado_184139" data-name="Trazado 184139" d="M141.721,593.787H75.343c3.842-6.7,10.414-10.223,16.266-8.061,5.439-7.185,12.674-11.377,20.065-11.34s14.734,4.212,20.138,11.451C135.544,583.855,140.073,588.588,141.721,593.787Z" transform="translate(-61.993 -423.001)" fill="#8284d2" stroke="#fff" stroke-miterlimit="10" stroke-width="2"/>
          </g>
        </g>
      </g>
      <g id="Enmascarar_grupo_471" data-name="Enmascarar grupo 471" transform="translate(-4798 -11612)" clip-path="url(#clip-path-2)">
        <g id="Grupo_984236" data-name="Grupo 984236" transform="translate(568.95 6569.623)" clip-path="url(#clip-path-3)">
          <rect id="Rectángulo_339036" data-name="Rectángulo 339036" width="27.86" height="57.735" transform="translate(138.848 462.03)" fill="#fe3a01"/>
          <path id="Trazado_212690" data-name="Trazado 212690" d="M58.779,256.621H30.919l-9.75,60.368H49.028Z" transform="translate(16.688 202.296)" fill="#fe3a01"/>
          <path id="Trazado_212691" data-name="Trazado 212691" d="M51.611,128.271l-34.6,250.751H77.524l25.732-215.705,8.568.415.12,215.291H165.6l2.13-246.849Z" transform="translate(13.413 101.117)"/>
          <g id="Grupo_984235" data-name="Grupo 984235">
            <g id="Grupo_984234" data-name="Grupo 984234" clip-path="url(#clip-path-3)">
              <path id="Trazado_212692" data-name="Trazado 212692" d="M111.579,158.31c-7.1,0-12.745-2.228-16.769-6.622-7.942-8.673-6.815-22.574-6.765-23.16l1.23.107c-.013.14-1.127,13.956,6.449,22.223,3.78,4.127,9.115,6.218,15.855,6.218Z" transform="translate(69.342 101.319)" fill="#fff"/>
              <path id="Trazado_212693" data-name="Trazado 212693" d="M34.719,155.876v-1.234c6.744,0,12.08-2.092,15.86-6.222,7.579-8.278,6.456-22.08,6.445-22.22l1.229-.107c.052.587,1.177,14.487-6.765,23.16-4.024,4.394-9.666,6.622-16.769,6.622" transform="translate(27.369 99.401)" fill="#fff"/>
              <path id="Trazado_212694" data-name="Trazado 212694" d="M141.492,39.291s37.672,5.233,52.337,19.9c19.544,19.543,40.325,79.66,39.661,94.247S217.1,186.156,185.7,166.311L182.757,207.6,53.965,201.8l-.9-41.775s13.706,9.752-2.167,18.212S-.669,173.634,8.617,141.3c5.86-20.408,14.339-63.6,26.54-77.208S94.02,40.246,94.02,40.246Z" transform="translate(5.596 30.973)" fill="#ffbfc1"/>
              <path id="Trazado_212695" data-name="Trazado 212695" d="M95.739,30.724c17.846-.036,26.429,11.837,27.581,17.912C126.4,64.866,71.681,60.912,71.681,60.912S42.73,64.854,47.732,47.593c4.887-16.869,28.9-16.832,48.007-16.869" transform="translate(37.17 24.22)" fill="#ffbfc1"/>
              <path id="Trazado_212696" data-name="Trazado 212696" d="M63.919,56.589V25.543H80.557V54.771L71.634,62.6Z" transform="translate(50.388 20.135)" fill="#ffc5b8"/>
              <path id="Trazado_212697" data-name="Trazado 212697" d="M107.3,92.668a.338.338,0,0,1-.095-.014.329.329,0,0,1-.222-.411c.088-.3,8.933-29.52,14.564-38.114a.331.331,0,1,1,.553.363c-5.578,8.514-14.394,37.647-14.483,37.941a.332.332,0,0,1-.317.236" transform="translate(84.325 42.553)"/>
              <path id="Trazado_212698" data-name="Trazado 212698" d="M107.482,93.261a.723.723,0,0,1-.213-.032.739.739,0,0,1-.5-.925c.089-.3,8.959-29.591,14.614-38.22a.742.742,0,0,1,1.241.814c-5.562,8.487-14.346,37.542-14.435,37.835a.738.738,0,0,1-.71.528" transform="translate(84.144 42.371)"/>
              <path id="Trazado_212699" data-name="Trazado 212699" d="M35.554,74.67a.336.336,0,0,1-.3-.182L24.006,51.946a.331.331,0,0,1,.592-.3l11.25,22.54a.328.328,0,0,1-.147.443.312.312,0,0,1-.147.036" transform="translate(18.896 40.572)"/>
              <path id="Trazado_212700" data-name="Trazado 212700" d="M35.69,75.115a.635.635,0,0,1-.572-.354L23.866,52.221a.639.639,0,0,1,.774-.892.633.633,0,0,1,.37.322L36.26,74.19a.641.641,0,0,1-.286.858.651.651,0,0,1-.284.066m-11.254-23.2-.009,0a.023.023,0,0,0-.009.03l11.25,22.54c.013.023.023.014.03.011a.024.024,0,0,0,.011-.03L24.458,51.926a.025.025,0,0,0-.021-.013" transform="translate(18.76 40.437)"/>
              <path id="Trazado_212701" data-name="Trazado 212701" d="M92.353,58.254l.05-.013c.243-.059,25.092-3.925,30.838-17.525l-.7-.247c-2.922,6.914-10.8,10.285-16.892,13.153a52.8,52.8,0,0,1-13.38,3.936c-16.6-.238-27.923-4.2-34.5-7.48-7.126-3.559-10.365-7.11-10.4-7.144l-.583.445c.132.148,3.337,3.668,10.574,7.289C64.023,54,75.49,58.021,92.3,58.254Z" transform="translate(36.886 31.902)"/>
              <path id="Trazado_212702" data-name="Trazado 212702" d="M92.509,58.7a.452.452,0,0,0,.052-.007l.052-.013.1-.018a74.028,74.028,0,0,0,14.045-3.974c8.87-3.541,14.557-8.155,16.907-13.715a.308.308,0,0,0-.182-.411l-.7-.247a.307.307,0,0,0-.384.172c-2.718,6.434-9.941,9.812-15.744,12.527l-1,.467a50.534,50.534,0,0,1-12.736,3.807c-.266.046-.444.075-.545.1-16.529-.243-27.788-4.183-34.325-7.447C51.007,46.422,47.771,42.9,47.74,42.862a.31.31,0,0,0-.417-.039l-.583.447a.312.312,0,0,0-.12.216.307.307,0,0,0,.077.234c.134.148,3.366,3.705,10.665,7.359,6.688,3.346,18.2,7.384,35.07,7.618h.075m30.455-17.665c-2.361,5.27-7.888,9.669-16.436,13.081a73.488,73.488,0,0,1-13.922,3.938c-.08.014-.127.023-.138.027l-.011,0h-.014c-16.755-.232-28.173-4.235-34.8-7.552A39.19,39.19,0,0,1,47.388,43.55l.091-.07a39.923,39.923,0,0,0,10.292,7.008c6.6,3.3,17.964,7.273,34.629,7.513a.309.309,0,0,0,.08-.009c.07-.018.277-.054.542-.1a51.175,51.175,0,0,0,12.894-3.857l.994-.467c5.819-2.722,13.044-6.1,15.936-12.579Z" transform="translate(36.75 31.766)"/>
              <path id="Trazado_212703" data-name="Trazado 212703" d="M68.341,54.043l-.245-.579L88.446,36.4l.245.579Z" transform="translate(53.681 28.694)"/>
              <path id="Trazado_212704" data-name="Trazado 212704" d="M68.435,54.474a.166.166,0,0,1-.052-.009.237.237,0,0,1-.131-.138l-.245-.579a.37.37,0,0,1,.073-.41L88.43,36.274a.159.159,0,0,1,.161-.032.239.239,0,0,1,.131.136l.245.579a.373.373,0,0,1-.073.41L68.544,54.431a.169.169,0,0,1-.109.043m.046-.774.027.064L88.493,37.008l-.029-.066Z" transform="translate(53.587 28.562)"/>
              <path id="Trazado_212705" data-name="Trazado 212705" d="M79.272,56.559,57.031,38.068l.612-.769L79.884,55.79Z" transform="translate(44.958 29.403)"/>
              <path id="Trazado_212706" data-name="Trazado 212706" d="M79.462,57.194a.42.42,0,0,1-.272-.1L56.949,38.6a.444.444,0,0,1-.157-.3.457.457,0,0,1,.095-.324l.612-.769a.424.424,0,0,1,.606-.064L80.346,55.642a.448.448,0,0,1,.157.3.457.457,0,0,1-.095.324l-.612.769a.427.427,0,0,1-.334.163m-21.635-19L79.4,56.133l.068-.086L57.9,38.113Z" transform="translate(44.768 29.208)"/>
              <path id="Trazado_212707" data-name="Trazado 212707" d="M81.635,23.213A6.6,6.6,0,1,0,94.782,22.6a6.6,6.6,0,1,0-13.148.617" transform="translate(64.345 12.467)" fill="#ffc5b8"/>
              <path id="Trazado_212708" data-name="Trazado 212708" d="M85.69,22.507a.287.287,0,0,0,.281-.231,5.859,5.859,0,0,1,3.587-4.337.286.286,0,1,0-.179-.544,6.35,6.35,0,0,0-3.97,4.769.286.286,0,0,0,.225.336.306.306,0,0,0,.055.005" transform="translate(67.325 13.702)"/>
              <path id="Trazado_212709" data-name="Trazado 212709" d="M88.29,23.414a.287.287,0,0,0,.238-.445l-2.387-3.612a.286.286,0,1,0-.477.315l2.387,3.614a.286.286,0,0,0,.24.129" transform="translate(67.491 15.156)"/>
              <path id="Trazado_212710" data-name="Trazado 212710" d="M63.919,38.983V32.266H80.557v9.163c-6.036.653-12.284-.921-16.638-2.446" transform="translate(50.388 25.436)"/>
              <path id="Trazado_212711" data-name="Trazado 212711" d="M53.608,32.033c0,16.562,12.836,29.986,28.672,29.986s28.672-13.425,28.672-29.986S98.115,2.047,82.28,2.047,53.608,15.472,53.608,32.033" transform="translate(42.26 1.614)" fill="#ffc5b8"/>
              <path id="Trazado_212712" data-name="Trazado 212712" d="M75.5,26.316s-7.033-15.3-18.037-3.607c0,0,6.182,16.427,18.037,3.607" transform="translate(45.298 14.432)" fill="#fff"/>
              <path id="Trazado_212713" data-name="Trazado 212713" d="M73.942,26.311s7.207-15.215,18.076-3.4c0,0-6.368,16.356-18.076,3.4" transform="translate(58.289 14.518)" fill="#fff"/>
              <path id="Trazado_212714" data-name="Trazado 212714" d="M75.359,29.12a.278.278,0,0,0,.152-.045.286.286,0,0,0,.089-.4L72.634,24a.287.287,0,0,0-.232-.132.265.265,0,0,0-.241.118L69.02,28.3a.284.284,0,0,0,.063.4.288.288,0,0,0,.4-.063l2.892-3.972,2.743,4.326a.284.284,0,0,0,.241.132" transform="translate(54.365 18.812)"/>
              <path id="Trazado_212715" data-name="Trazado 212715" d="M75.4,29.267a.389.389,0,0,1-.329-.181l-2.661-4.2-2.8,3.85a.393.393,0,0,1-.544.084.389.389,0,0,1-.086-.544l3.14-4.312a.362.362,0,0,1,.336-.159.384.384,0,0,1,.308.179l2.967,4.682a.389.389,0,0,1-.12.536.375.375,0,0,1-.207.061M72.42,24.6h0a.109.109,0,0,1,.084.048l2.741,4.326a.186.186,0,0,0,.252.055.183.183,0,0,0,.057-.252L72.592,24.1a.181.181,0,0,0-.15-.086.179.179,0,0,0-.154.075L69.147,28.4a.184.184,0,0,0-.034.136.185.185,0,0,0,.331.08l2.893-3.972a.1.1,0,0,1,.082-.043" transform="translate(54.319 18.767)"/>
              <path id="Trazado_212716" data-name="Trazado 212716" d="M72.871,18.048a.859.859,0,0,0,.467-1.581c-.222-.143-5.524-3.471-12.954-.746a.859.859,0,0,0,.592,1.613c6.6-2.42,11.241.456,11.434.579a.857.857,0,0,0,.461.134" transform="translate(47.157 11.55)"/>
              <path id="Trazado_212717" data-name="Trazado 212717" d="M86.619,18.512a.859.859,0,0,0,.4-1.62,14.988,14.988,0,0,0-10.871-1.415.858.858,0,1,0,.526,1.635,13.538,13.538,0,0,1,9.551,1.3.836.836,0,0,0,.4.1" transform="translate(59.556 11.85)"/>
              <path id="Trazado_212718" data-name="Trazado 212718" d="M59.278,27.561a7.833,7.833,0,0,1-.492-3.253,7.6,7.6,0,0,1,2.522-5.272c4.558-2.006,8.13.5,10.4,3.1a7.847,7.847,0,0,1,.388,2.972,7.655,7.655,0,0,1-2.157,4.932c-4.837,2.672-8.407.268-10.657-2.482" transform="translate(46.33 14.432)"/>
              <path id="Trazado_212719" data-name="Trazado 212719" d="M75.547,24.477a7.839,7.839,0,0,1,.9-3.214c2.495-2.341,6.1-4.117,10.426-1.642a7.6,7.6,0,0,1,1.978,5.66,8.039,8.039,0,0,1-.22,1.436c-2.137,2.917-5.792,6.095-10.721,3.8a7.531,7.531,0,0,1-2.366-6.039" transform="translate(59.542 14.526)"/>
              <path id="Trazado_212720" data-name="Trazado 212720" d="M82.281,2.048c15.834,0,28.67,13.425,28.67,29.986,0,.4-.014.789-.027,1.18-.109-.277-.315-8.3-5.5-11.873l-11.8-1.465-2.836-5.957-.663,5.715-8.611-.266-1.6-4.492-2.142,4.49s-8.908.284-11.883.946l-.81-2.505S54.458,23.467,53.609,32.034c0-16.562,12.836-29.986,28.672-29.986" transform="translate(42.26 1.614)" fill="#fd521b"/>
              <path id="Trazado_212721" data-name="Trazado 212721" d="M83.831,0a4.731,4.731,0,0,1,.2,1.352c0,3.015-2.842,5.46-6.347,5.46A6.448,6.448,0,0,1,72.071,4a14.474,14.474,0,0,0,2.7.139c4.16,0,7.7-1.726,9.061-4.144" transform="translate(56.814)" fill="#fd521b"/>
              <path id="Trazado_212722" data-name="Trazado 212722" d="M64.951,29.331s11.4-1.883,16.29,2.6c0,0-7.559,4.485-16.29-2.6" transform="translate(51.201 22.813)"/>
              <path id="Trazado_212723" data-name="Trazado 212723" d="M76.472,29.522A10.1,10.1,0,0,1,80.3,31.595s-6.363,3.766-14.153-1.078c.05-.029,2.978-1.647,10.326-.994" transform="translate(52.143 23.15)" fill="#fe3a01"/>
              <path id="Trazado_212724" data-name="Trazado 212724" d="M63.952,23.081A7.348,7.348,0,0,1,57.171,31a7.453,7.453,0,0,1-7.57-7.259,7.348,7.348,0,0,1,6.781-7.92,7.453,7.453,0,0,1,7.57,7.259" transform="translate(39.092 12.467)" fill="#ffc5b8"/>
              <path id="Trazado_212725" data-name="Trazado 212725" d="M55.37,23.4a.243.243,0,0,0,.052-.005.305.305,0,0,0,.25-.354c-.64-3.711-4.5-5.177-4.666-5.238a.307.307,0,0,0-.213.576c.038.013,3.695,1.409,4.274,4.768a.307.307,0,0,0,.3.254" transform="translate(39.884 14.016)"/>
              <path id="Trazado_212726" data-name="Trazado 212726" d="M51.8,24.273a.306.306,0,0,0,.277-.175l1.965-4.136a.307.307,0,1,0-.554-.263l-1.965,4.136a.306.306,0,0,0,.147.408.28.28,0,0,0,.131.03" transform="translate(40.592 15.39)"/>
              <path id="Trazado_212727" data-name="Trazado 212727" d="M122.273,139.146s-34.264-21.7-26.8-44.743l-7.418-6.744,16.839-13.723,6.645,3.859a24.784,24.784,0,0,1,20.9,2.856c10.184,6.8,23.7,28.869,23.7,28.869Z" transform="translate(69.414 58.283)" fill="#ffbfc1"/>
              <path id="Trazado_212728" data-name="Trazado 212728" d="M79.353,271.312l30.646.7,3.482,20.2,10.066,13.2s15.682,2.438,17.967,12.536.386,14.34.386,14.34H71.5c.544-14.546,2.834-25.061,4.355-33.288,1.946-10.544,3.5-27.686,3.5-27.686" transform="translate(56.362 213.877)" fill="#5774cd"/>
              <path id="Trazado_212729" data-name="Trazado 212729" d="M73.479,271.312l-35.512.7-4.036,20.2-11.663,13.2S4.094,307.847,1.444,317.946,1,332.286,1,332.286H75.015c-.629-14.546-1.71-22.034-2.092-32.132-.41-10.775.556-28.842.556-28.842" transform="translate(0.108 213.877)" fill="#5774cd"/>
              <path id="Trazado_212730" data-name="Trazado 212730" d="M74.622,301.021H.515a.514.514,0,1,1,0-1.028H74.622a.514.514,0,0,1,0,1.028" transform="translate(0 236.486)"/>
              <path id="Trazado_212731" data-name="Trazado 212731" d="M142.605,301.021H72.058a.514.514,0,0,1,0-1.028h70.547a.514.514,0,0,1,0,1.028" transform="translate(56.399 236.486)"/>
              <path id="Trazado_212732" data-name="Trazado 212732" d="M76.279,323.016l9.4-51.577H78.717Z" transform="translate(60.132 213.978)"/>
              <path id="Trazado_212733" data-name="Trazado 212733" d="M41.8,271.44l-2.089,51.577-6.273-51.535Z" transform="translate(26.357 213.978)"/>
              <path id="Trazado_212734" data-name="Trazado 212734" d="M93.448,291.83a.514.514,0,0,1-.168-1c2.389-.821,5.88-1.155,10.379-.992,3.332.122,6.009.485,6.036.488a.514.514,0,1,1-.14,1.019c-.1-.014-10.51-1.413-15.939.456a.5.5,0,0,1-.168.029" transform="translate(73.26 228.449)"/>
              <path id="Trazado_212735" data-name="Trazado 212735" d="M33.915,291.7l-.048,0a152.763,152.763,0,0,0-23.057-.479.514.514,0,1,1-.079-1.025,153.939,153.939,0,0,1,23.23.479.514.514,0,0,1-.046,1.026" transform="translate(8.085 228.581)"/>
              <path id="Trazado_212736" data-name="Trazado 212736" d="M45.656,150.926s61.282-20.546,61.7-50.423l11.678-8.661L104.367,73.936l-9.573,4.936s-5.122-2.328-22.268.438c-17.236,2.783-58.773,30.8-58.773,30.8Z" transform="translate(10.842 58.284)" fill="#ffbfc1"/>
              <path id="Trazado_212737" data-name="Trazado 212737" d="M119.5,139.886a.521.521,0,0,1-.258-.07,63.571,63.571,0,0,1-13.679-11.4,38.4,38.4,0,0,1-7.847-12.8,25.1,25.1,0,0,1-.284-16.061L91.64,89.145a.516.516,0,0,1,.025-.54l10.027-14.734a.514.514,0,0,1,.683-.154l10.517,6.107a11.743,11.743,0,0,1,4.467-2.2c4.984-1.279,9.594.833,12.584,2.829,10.133,6.765,26.9,27.715,27.61,28.6a.513.513,0,1,1-.8.64c-.173-.216-17.377-21.714-27.377-28.389-4.076-2.72-8.015-3.63-11.7-2.7a10.384,10.384,0,0,0-4.356,2.223.516.516,0,0,1-.617.075l-10.424-6.053L92.694,88.921l5.742,10.335a.508.508,0,0,1,.039.408,24.1,24.1,0,0,0,.206,15.61,37.373,37.373,0,0,0,7.629,12.443,62.5,62.5,0,0,0,13.446,11.211.514.514,0,0,1-.259.959" transform="translate(72.19 58.056)"/>
              <rect id="Rectángulo_339037" data-name="Rectángulo 339037" width="60.171" height="1.234" transform="translate(32.925 461.412)" fill="#fff"/>
              <path id="Trazado_212738" data-name="Trazado 212738" d="M45.882,151.667a.514.514,0,0,1-.163-1,191.881,191.881,0,0,0,30.612-13.972C85.21,131.569,92.3,126.24,97.4,120.855c6.323-6.679,9.578-13.452,9.671-20.133a.507.507,0,0,1,.209-.4l11.243-8.341L104.46,74.81l-9.2,4.746a.52.52,0,0,1-.449.011c-1.758-.776-8.618-1.677-21.973.479-16.928,2.733-58.152,30.441-58.567,30.72a.514.514,0,0,1-.576-.851c.106-.07,10.542-7.1,22.951-14.374,16.7-9.791,28.817-15.345,36.027-16.51,15.3-2.47,21.111-.917,22.32-.494l9.367-4.83a.514.514,0,0,1,.633.131l14.666,17.906a.514.514,0,0,1-.091.739l-11.476,8.511c-.175,6.865-3.523,13.786-9.952,20.574-5.17,5.458-12.338,10.85-21.306,16.025a192.847,192.847,0,0,1-30.787,14.049.517.517,0,0,1-.163.027" transform="translate(10.616 58.058)"/>
              <rect id="Rectángulo_339038" data-name="Rectángulo 339038" width="54.273" height="1.234" transform="translate(125.342 458.3)" fill="#fff"/>
              <path id="Trazado_212739" data-name="Trazado 212739" d="M97.777,115.147l-24.528-.206a5.824,5.824,0,0,1-5.64-7.6L81.63,62.269c.778-2.5,2.364-5.047,4.945-5.047h22.066c4.955,0,9.258,4.059,8.055,7.928l-13.278,45.8a5.925,5.925,0,0,1-5.64,4.2" transform="translate(53.076 45.108)"/>
              <path id="Trazado_212740" data-name="Trazado 212740" d="M96.454,114.07H73.63c-3.72,0-6.368-3.847-5.249-7.622L82.9,62.554a5.554,5.554,0,0,1,5.249-4.093h22.824c3.72,0,6.368,3.847,5.249,7.622L102.91,110.147c-.722,2.437-4.054,3.924-6.456,3.924" transform="translate(53.701 46.085)" fill="#fe3a01"/>
              <g id="Grupo_984233" data-name="Grupo 984233" transform="translate(136.853 108.08)" style="mix-blend-mode: overlay;isolation: isolate">
                <g id="Grupo_984232" data-name="Grupo 984232">
                  <g id="Grupo_984231" data-name="Grupo 984231" clip-path="url(#clip-path-5)">
                    <path id="Trazado_212741" data-name="Trazado 212741" d="M85.115,77.3H78.2a1.76,1.76,0,0,1-1.592-2.31l4.4-13.307a1.681,1.681,0,0,1,1.59-1.241h6.921a1.759,1.759,0,0,1,1.59,2.31L87.072,76.106A2.118,2.118,0,0,1,85.115,77.3" transform="translate(-76.527 -60.437)"/>
                  </g>
                </g>
              </g>
              <path id="Trazado_212742" data-name="Trazado 212742" d="M83.079,70.5H79.3a.963.963,0,0,1-.871-1.263l2.405-7.271a.921.921,0,0,1,.869-.68h3.78a.964.964,0,0,1,.871,1.264l-2.2,7.3a1.161,1.161,0,0,1-1.069.649" transform="translate(61.792 48.315)"/>
              <path id="Trazado_212743" data-name="Trazado 212743" d="M94.192,66.795,107.51,69.5c2.214.451,3.416,2.979,2.668,5.617-.769,2.713-3.285,4.446-5.506,3.791l-12.98-3.823c-1.906-.562-2.815-2.9-2.014-5.191.742-2.123,2.7-3.469,4.514-3.1" transform="translate(70.464 52.607)" fill="#ffc5b8"/>
              <path id="Trazado_212744" data-name="Trazado 212744" d="M89.743,80.055l15.608,4.315a4.235,4.235,0,0,0,4.633-2.5l.207-.4c1.375-2.623.458-5.69-1.872-6.268L92.5,71.289c-1.9-.47-4.02.925-4.855,3.194-.908,2.466.047,5.005,2.094,5.572" transform="translate(68.823 56.126)" fill="#ffc5b8"/>
              <path id="Trazado_212745" data-name="Trazado 212745" d="M88.325,79.212h0a3.786,3.786,0,0,1,4.165-2.559l10.526,2.414a3.54,3.54,0,0,1,2.411,4.228l-.166,1.005c-.408,2.466-2.666,4.127-4.7,3.457L90.2,84.337c-1.876-.619-2.738-2.97-1.878-5.125" transform="translate(69.364 60.367)" fill="#ffc5b8"/>
              <path id="Trazado_212746" data-name="Trazado 212746" d="M88.524,83.071h0a3.2,3.2,0,0,1,3.348-1.81l8.632,2.191c1.409.358,2.074,2.055,1.5,3.809l-.367,1.107c-.635,1.924-2.486,3.1-3.956,2.514l-8.267-3.3c-1.488-.594-1.9-2.72-.885-4.514" transform="translate(69.342 64.006)" fill="#ffc5b8"/>
              <path id="Trazado_212747" data-name="Trazado 212747" d="M92.215,73.784a3.255,3.255,0,0,0,3.959-2.237,3.118,3.118,0,0,0-2.146-3.916,3.258,3.258,0,0,0-3.959,2.237,3.118,3.118,0,0,0,2.146,3.916" transform="translate(70.898 53.225)" fill="#ffd4de"/>
              <path id="Trazado_212748" data-name="Trazado 212748" d="M90.361,78.258a3.257,3.257,0,0,0,3.959-2.235A3.119,3.119,0,0,0,92.175,72.1a3.258,3.258,0,0,0-3.959,2.237,3.118,3.118,0,0,0,2.146,3.916" transform="translate(69.436 56.752)" fill="#ffd4de"/>
              <path id="Trazado_212749" data-name="Trazado 212749" d="M90.6,82.379a2.748,2.748,0,0,0,3.419-1.729,2.632,2.632,0,0,0-1.964-3.21,2.752,2.752,0,0,0-3.419,1.729,2.633,2.633,0,0,0,1.964,3.21" transform="translate(69.794 60.961)" fill="#ffd4de"/>
              <path id="Trazado_212750" data-name="Trazado 212750" d="M89.88,86.142a2.137,2.137,0,0,0,2.57-1.513,2.046,2.046,0,0,0-1.361-2.595,2.137,2.137,0,0,0-2.57,1.513,2.046,2.046,0,0,0,1.361,2.595" transform="translate(69.707 64.612)" fill="#ffd4de"/>
              <path id="Trazado_212751" data-name="Trazado 212751" d="M90.271,72.019a.459.459,0,0,1,.275-.874l13.795,3.863a5.106,5.106,0,0,0,2.277.066.459.459,0,0,1,.261.88,5.956,5.956,0,0,1-2.792-.064L90.3,72.028l-.027-.009" transform="translate(70.918 56.07)"/>
              <path id="Trazado_212752" data-name="Trazado 212752" d="M90.167,77.32a.459.459,0,0,1,.283-.873l8.194,2.459c.6.179,3.94.982,4.809,1.116a.459.459,0,1,1-.141.907c-.921-.143-4.3-.955-4.93-1.145l-8.194-2.459-.02-.005" transform="translate(70.836 60.249)"/>
              <path id="Trazado_212753" data-name="Trazado 212753" d="M90.088,81.947a.459.459,0,0,1,.288-.871c.107.034,2.668.835,3.442,1.116.817.3,5.8,1.838,6.663,1.972a.459.459,0,0,1-.141.907c-.95-.148-6.053-1.735-6.835-2.017-.753-.275-3.376-1.094-3.4-1.1l-.014-.005" transform="translate(70.774 63.896)"/>
              <path id="Trazado_212754" data-name="Trazado 212754" d="M87.754,70.008l-16.635-3.1a5.144,5.144,0,0,0-6,3.99,4.862,4.862,0,0,0,4.3,5.744l16.837,1.947a4.517,4.517,0,0,0,5.025-3.877,4.281,4.281,0,0,0-3.528-4.7" transform="translate(51.264 52.673)" fill="#ffc5b8"/>
              <path id="Trazado_212755" data-name="Trazado 212755" d="M87.334,83.934l-20.1-2.6a4.544,4.544,0,0,1-3.984-4.2l-.029-.445a4.72,4.72,0,0,1,5.431-4.914l20.126,3.042a4.534,4.534,0,0,1,3.872,4.927,4.733,4.733,0,0,1-5.318,4.19" transform="translate(49.832 56.538)" fill="#ffc5b8"/>
              <path id="Trazado_212756" data-name="Trazado 212756" d="M86.062,83.271h0a3.926,3.926,0,0,0-3.414-4.065L69.356,77a4.485,4.485,0,0,0-4.975,2.834l-.336.982a3.9,3.9,0,0,0,3.552,5.1l13.629,1.22a4.374,4.374,0,0,0,4.837-3.873" transform="translate(50.321 60.654)" fill="#ffc5b8"/>
              <path id="Trazado_212757" data-name="Trazado 212757" d="M81.793,86.316h0a3.432,3.432,0,0,0-2.877-3.042L67.905,81.661A3.279,3.279,0,0,0,64.2,84.5l-.163,1.157a3.436,3.436,0,0,0,3.2,3.938l11.175.456a3.317,3.317,0,0,0,3.383-3.732" transform="translate(50.452 64.347)" fill="#ffc5b8"/>
              <path id="Trazado_212758" data-name="Trazado 212758" d="M77.984,75.644c-2.169-.283-3.67-1.933-3.349-3.686s2.337-2.945,4.508-2.663,3.67,1.933,3.35,3.686-2.339,2.945-4.508,2.663" transform="translate(58.801 54.593)" fill="#ffd4de"/>
              <path id="Trazado_212759" data-name="Trazado 212759" d="M77.754,80.484c-2.169-.283-3.67-1.933-3.349-3.686s2.337-2.945,4.508-2.663,3.67,1.933,3.35,3.686-2.337,2.945-4.508,2.663" transform="translate(58.62 58.409)" fill="#ffd4de"/>
              <path id="Trazado_212760" data-name="Trazado 212760" d="M74.769,84.024c-1.913-.249-3.255-1.592-3-3s2.014-2.344,3.927-2.1,3.255,1.592,3,3-2.015,2.346-3.929,2.1" transform="translate(56.553 62.189)" fill="#ffd4de"/>
              <path id="Trazado_212761" data-name="Trazado 212761" d="M72.73,87.6a2.236,2.236,0,0,1-2.142-2.448,2.528,2.528,0,0,1,2.915-1.79,2.238,2.238,0,0,1,2.144,2.448A2.527,2.527,0,0,1,72.73,87.6" transform="translate(55.621 65.691)" fill="#ffd4de"/>
              <path id="Trazado_212762" data-name="Trazado 212762" d="M86.763,75.66a.566.566,0,0,0,.624-.384c.05-.25-.165-.485-.479-.526L69.12,72.5a7.392,7.392,0,0,1-2.636-.891.684.684,0,0,0-.814.045.4.4,0,0,0,.054.646,8.547,8.547,0,0,0,3.223,1.107l17.781,2.25.036,0" transform="translate(51.655 56.361)"/>
              <path id="Trazado_212763" data-name="Trazado 212763" d="M82.378,80.056A.563.563,0,0,0,83,79.663c.045-.25-.175-.483-.49-.517L71.863,77.957c-.785-.088-5.016-.753-6.082-.993a.609.609,0,0,0-.712.317.456.456,0,0,0,.4.567c1.13.254,5.411.925,6.236,1.018l10.651,1.189.025,0" transform="translate(51.277 60.658)"/>
              <path id="Trazado_212764" data-name="Trazado 212764" d="M78.469,83.956a.562.562,0,0,0,.628-.4c.041-.25-.182-.481-.5-.513-.141-.014-3.485-.356-4.519-.424-1.089-.072-7.6-.753-8.648-.991a.61.61,0,0,0-.712.317.455.455,0,0,0,.4.567c1.164.263,7.827.951,8.868,1.021,1.005.064,4.433.417,4.467.42l.018,0" transform="translate(51.001 64.336)"/>
              <path id="Trazado_212765" data-name="Trazado 212765" d="M67.076,95.321a.515.515,0,0,1-.472-.309L58.827,77.128a.514.514,0,1,1,.942-.411L67.546,94.6a.513.513,0,0,1-.265.676.53.53,0,0,1-.206.043" transform="translate(46.34 60.233)"/>
              <path id="Trazado_212766" data-name="Trazado 212766" d="M95.857,97.25c-.159,0-.318,0-.479-.005a.513.513,0,0,1-.5-.522.521.521,0,0,1,.524-.5c4.8.095,8.486-1.28,10.957-4.084,4.743-5.376,3.505-14.289,3.493-14.378a.514.514,0,0,1,1.018-.148c.055.384,1.314,9.476-3.738,15.206-2.6,2.945-6.388,4.437-11.27,4.437" transform="translate(74.789 60.831)"/>
              <path id="Trazado_212767" data-name="Trazado 212767" d="M131.639,89.565h-7.187a.514.514,0,0,1,0-1.028h7.187a.514.514,0,0,1,0,1.028" transform="translate(97.702 69.794)"/>
              <path id="Trazado_212768" data-name="Trazado 212768" d="M72.729,68.7h-.023a.515.515,0,0,1-.49-.536L73.1,48.047a.515.515,0,0,1,1.028.045l-.889,20.115a.514.514,0,0,1-.513.492" transform="translate(56.928 37.488)"/>
            </g>
          </g>
        </g>
      </g>
      <g id="Elipse_4912" data-name="Elipse 4912" transform="translate(-4124.531 -4950.582)" fill="none" stroke="#3c3fa7" stroke-width="3">
        <circle cx="34.303" cy="34.303" r="34.303" stroke="none"/>
        <circle cx="34.303" cy="34.303" r="32.803" fill="none"/>
      </g>
      <line id="Línea_1590" data-name="Línea 1590" x2="16.279" y2="16.279" transform="translate(-4112.322 -4940.698)" fill="none" stroke="#3c3fa7" stroke-width="3"/>
      <line id="Línea_1591" data-name="Línea 1591" x2="12.791" y2="12.791" transform="translate(-4080.926 -4905.813)" fill="none" stroke="#3c3fa7" stroke-width="3"/>
    </g>
  </g>
</svg>
