<svg xmlns="http://www.w3.org/2000/svg" xmlns:xlink="http://www.w3.org/1999/xlink" width="228" height="340" viewBox="0 0 228 340">
  <defs>
    <clipPath id="clip-path">
      <rect id="Rectángulo_45304" data-name="Rectángulo 45304" width="228" height="340" transform="translate(1105 925.602)" fill="#fff" stroke="#707070" stroke-width="1"/>
    </clipPath>
    <clipPath id="clip-path-2">
      <path id="Trazado_183739" data-name="Trazado 183739" d="M93.044,23.635S96.2,31.1,103.887,26.284c0,0-2.045-5.045-5.949-5.046-1.4,0-3.031.646-4.894,2.4" transform="translate(-93.044 -21.238)" fill="none"/>
    </clipPath>
    <clipPath id="clip-path-3">
      <path id="Trazado_183741" data-name="Trazado 183741" d="M111.807,25.809c7.592,2.7,8.893-4.385,8.893-4.385a4.883,4.883,0,0,0-3.456-1.916c-3.5,0-5.436,6.3-5.436,6.3" transform="translate(-111.807 -19.508)" fill="none"/>
    </clipPath>
    <clipPath id="clip-path-4">
      <rect id="Rectángulo_45301" data-name="Rectángulo 45301" width="244.568" height="333.458" fill="none"/>
    </clipPath>
    <clipPath id="clip-path-5">
      <path id="Trazado_183811" data-name="Trazado 183811" d="M174.406,35.272c6.047,4.878,10.006-2.188,10.006-2.188a8.91,8.91,0,0,0-4.637-1.541c-3.819,0-5.37,3.73-5.37,3.73" transform="translate(-174.406 -31.542)" fill="none"/>
    </clipPath>
    <clipPath id="clip-path-6">
      <path id="Trazado_183813" data-name="Trazado 183813" d="M162.749,32.154s1.3,6.541,6.675,3.328c0,0-1.126-4.022-4.259-4.023a5.1,5.1,0,0,0-2.417.7" transform="translate(-162.749 -31.459)" fill="none"/>
    </clipPath>
    <clipPath id="clip-path-8">
      <path id="Trazado_183816" data-name="Trazado 183816" d="M170.707,42.975c-2.392,1.063-2,2.462.17,2.772,1.258.179,5.107-1.181,4.4-2.543a2.659,2.659,0,0,0-2.183-.767,5.891,5.891,0,0,0-2.389.537" transform="translate(-169.075 -42.438)" fill="none"/>
    </clipPath>
  </defs>
  <g id="Grupo_302" data-name="Grupo 302" transform="translate(-1105 -925.602)" clip-path="url(#clip-path)">
    <g id="Grupo_175080" data-name="Grupo 175080" transform="translate(1105 926)">
      <g id="Grupo_175059" data-name="Grupo 175059" transform="translate(0 168.08)">
        <rect id="Rectángulo_45299" data-name="Rectángulo 45299" width="172.683" height="171.135" transform="translate(69.693)" fill="#fff0f1"/>
        <path id="Rectángulo_45300" data-name="Rectángulo 45300" d="M98.344,0H242.376a0,0,0,0,1,0,0V98.344a0,0,0,0,1,0,0H0a0,0,0,0,1,0,0v0A98.344,98.344,0,0,1,98.344,0Z" transform="translate(0 72.79)" fill="#fc5f65"/>
      </g>
      <g id="Grupo_175079" data-name="Grupo 175079" transform="translate(-11.347 5.757)">
        <g id="Grupo_175062" data-name="Grupo 175062">
          <g id="Grupo_175061" data-name="Grupo 175061">
            <path id="Trazado_183694" data-name="Trazado 183694" d="M127.186,188.636H46.212a.9.9,0,0,1-.9-.914V177.237a.9.9,0,0,1,.9-.914h80.974a.9.9,0,0,1,.9.914v10.486a.9.9,0,0,1-.9.914m-80.078-1.827H126.29v-8.66H47.108Z" transform="translate(-4.707 -15.226)" fill="#12263f"/>
            <path id="Trazado_183695" data-name="Trazado 183695" d="M91.391,348.2a.9.9,0,0,1-.9-.914V188.714a.9.9,0,1,1,1.792,0V347.282a.9.9,0,0,1-.9.914" transform="translate(-9.399 -16.217)" fill="#12263f"/>
            <path id="Trazado_183696" data-name="Trazado 183696" d="M114.451,364.715H62.168a1.371,1.371,0,0,1,0-2.741h52.283a1.371,1.371,0,0,1,0,2.741" transform="translate(-6.317 -31.257)" fill="#12263f"/>
            <path id="Trazado_183697" data-name="Trazado 183697" d="M87.862,326.828a.884.884,0,0,1-.579-.217L56.832,300.336a.926.926,0,0,1-.262-1.012.9.9,0,0,1,.841-.6h60.9a.9.9,0,0,1,.841.6.926.926,0,0,1-.262,1.012L88.441,326.611a.882.882,0,0,1-.579.217m-28-26.277,28,24.165,28-24.165Z" transform="translate(-5.87 -25.795)" fill="#12263f"/>
            <path id="Trazado_183698" data-name="Trazado 183698" d="M106.681,175.466H67.316a22.038,22.038,0,0,1-21.822-22.248V136.372H128.5v16.846a22.038,22.038,0,0,1-21.822,22.248" transform="translate(-4.725 -11.776)" fill="#171962"/>
            <path id="Trazado_183699" data-name="Trazado 183699" d="M131.492,250l-4.184,25.425-18.489-1.943,4.993-30.769Z" transform="translate(-11.302 -20.958)" fill="#e5826e"/>
            <path id="Trazado_183700" data-name="Trazado 183700" d="M111.387,252.434l19.838,7.892,1.945-11.822-19.819-8.169Z" transform="translate(-11.569 -20.753)"/>
            <path id="Trazado_183701" data-name="Trazado 183701" d="M133.726,140.931l.535.082c9.015,1.383,15.31,10.586,14.06,20.557L137.943,244.3l-33.182-5.091,10.377-82.733c1.25-9.97,9.573-16.932,18.588-15.548" transform="translate(-10.881 -12.154)" fill="#171962"/>
            <path id="Trazado_183702" data-name="Trazado 183702" d="M107.581,267.894l-2.733,23.61H145.2l.41-5.1c.52-6.47-4.06-11.327-10.308-12.342l-6.217.013-8,1.8Z" transform="translate(-10.89 -23.133)" fill="#ebad23"/>
            <path id="Trazado_183703" data-name="Trazado 183703" d="M128.381,275.2l4.46-4.715c1.36-1.438.163-3.418-2.209-3.654l-6.586-.654c-2.123-.21-3.927,1.127-3.607,2.672l1.471,7.1Z" transform="translate(-12.505 -22.983)" fill="#ffc849"/>
            <path id="Trazado_183704" data-name="Trazado 183704" d="M145.994,289.042H108.924a.408.408,0,0,1,0-.815h37.071a.408.408,0,0,1,0,.815" transform="translate(-11.271 -24.889)"/>
            <path id="Trazado_183705" data-name="Trazado 183705" d="M127.638,277.293a.4.4,0,0,1-.352-.213.415.415,0,0,1,.113-.522l4.65-3.523-7.724,3.37a.4.4,0,0,1-.525-.216.411.411,0,0,1,.211-.534l10.841-4.729a.4.4,0,0,1,.5.172.413.413,0,0,1-.108.53l-5.122,3.88,4.746-1.8a.4.4,0,0,1,.513.24.409.409,0,0,1-.236.524l-7.371,2.792a.392.392,0,0,1-.139.026" transform="translate(-12.855 -23.392)"/>
            <path id="Trazado_183706" data-name="Trazado 183706" d="M138.919,246.013a.5.5,0,0,1-.082-.007l-33.05-6.148a.457.457,0,0,1,.161-.9L139,245.106a.457.457,0,0,1,.36.532.451.451,0,0,1-.44.375" transform="translate(-10.949 -20.634)"/>
            <path id="Trazado_183707" data-name="Trazado 183707" d="M101.333,181.06h0a.453.453,0,0,1-.448-.457l.01-22.881a.448.448,0,1,1,.9,0l-.01,22.881a.453.453,0,0,1-.448.457" transform="translate(-10.478 -13.58)"/>
            <path id="Trazado_183708" data-name="Trazado 183708" d="M113.722,177.43h-.041a.455.455,0,0,1-.406-.5l2-22.69a.448.448,0,1,1,.893.082l-2,22.69a.45.45,0,0,1-.445.415" transform="translate(-11.765 -13.283)"/>
            <path id="Trazado_183709" data-name="Trazado 183709" d="M74.4,251.766l-.764,23.872,18.371,2.925L93,249.691Z" transform="translate(-7.648 -21.561)" fill="#e5826e"/>
            <path id="Trazado_183710" data-name="Trazado 183710" d="M75.365,252.862l20.85-2.326L95.78,263.2l-20.7-1.337Z" transform="translate(-9.711 -22.305)"/>
            <path id="Trazado_183711" data-name="Trazado 183711" d="M81.6,137.482h0a16.917,16.917,0,0,0-16.742,17.084l.039,90.681,33.5-.017-.038-90.678A16.917,16.917,0,0,0,81.6,137.482" transform="translate(-6.736 -11.872)" fill="#171962"/>
            <path id="Trazado_183712" data-name="Trazado 183712" d="M72.1,267.894,66.981,291.5h37.155l.377-5.1a11.321,11.321,0,0,0-9.491-12.342l-5.724.013-7.365,1.8Z" transform="translate(-6.957 -23.133)" fill="#ffc849"/>
            <path id="Trazado_183713" data-name="Trazado 183713" d="M93.843,275.2l5.091-4.715c1.552-1.438.186-3.418-2.521-3.654l-7.518-.654c-2.423-.21-4.482,1.127-4.117,2.672l1.678,7.1Z" transform="translate(-8.801 -22.983)" fill="#ffc849"/>
            <path id="Trazado_183714" data-name="Trazado 183714" d="M104.956,289.042H71.641a.408.408,0,0,1,0-.815h33.315a.408.408,0,0,1,0,.815" transform="translate(-7.399 -24.889)"/>
            <path id="Trazado_183715" data-name="Trazado 183715" d="M93,277.293a.4.4,0,0,1-.36-.232.411.411,0,0,1,.142-.517l5.358-3.556-8.96,3.424a.4.4,0,0,1-.514-.238.409.409,0,0,1,.234-.524l12.374-4.729a.393.393,0,0,1,.5.2.412.412,0,0,1-.139.525l-5.875,3.9,5.535-1.836a.4.4,0,0,1,.5.261.411.411,0,0,1-.257.513l-8.414,2.792a.39.39,0,0,1-.124.02" transform="translate(-9.206 -23.392)"/>
            <path id="Trazado_183716" data-name="Trazado 183716" d="M98.334,247.218h-.006l-33.566-.465a.452.452,0,0,1-.442-.463.435.435,0,0,1,.454-.45l33.566.465a.457.457,0,0,1-.006.914" transform="translate(-6.68 -21.228)"/>
            <path id="Trazado_183717" data-name="Trazado 183717" d="M100.251,175.5a.453.453,0,0,1-.448-.457l-.009-20.533a16.672,16.672,0,0,0-4.781-11.75,16.034,16.034,0,0,0-11.52-4.862h-.01a.453.453,0,0,1-.448-.457.477.477,0,0,1,.458-.457,16.916,16.916,0,0,1,12.153,5.129,17.589,17.589,0,0,1,5.043,12.4l.009,20.533a.453.453,0,0,1-.448.457" transform="translate(-8.624 -11.829)"/>
            <path id="Trazado_183718" data-name="Trazado 183718" d="M64.672,177.081h0a.453.453,0,0,1-.444-.461c0-.127.118-12.734,0-14.589a.454.454,0,0,1,.418-.485.448.448,0,0,1,.476.427c.12,1.888.006,14.137,0,14.657a.453.453,0,0,1-.448.452" transform="translate(-6.67 -13.949)"/>
            <path id="Trazado_183719" data-name="Trazado 183719" d="M117.356,21.785c1.038-2.529,3.635-3.81,5.8-2.862s3.077,3.768,2.039,6.3-3.635,3.81-5.8,2.862-3.077-3.768-2.038-6.3" transform="translate(-12.144 -1.607)" fill="#c95b3d"/>
            <path id="Trazado_183720" data-name="Trazado 183720" d="M119.994,25.4a.6.6,0,0,1-.445-.2.627.627,0,0,1,.036-.872l3.336-3.135a.6.6,0,0,1,.855.036.626.626,0,0,1-.035.872L120.4,25.241a.6.6,0,0,1-.41.163" transform="translate(-12.4 -1.817)"/>
            <path id="Trazado_183721" data-name="Trazado 183721" d="M122.9,26.392a.59.59,0,0,1-.418-.172l-1.549-1.515a.621.621,0,0,1-.017-.87.591.591,0,0,1,.853-.018l1.548,1.514a.622.622,0,0,1,.018.871.6.6,0,0,1-.436.19" transform="translate(-12.541 -2.042)"/>
            <path id="Trazado_183722" data-name="Trazado 183722" d="M90.218,33.556,83.807,50.678l15.958,2.2,6.271-15.63Z" transform="translate(-8.704 -2.898)" fill="#c95b3d"/>
            <path id="Trazado_183723" data-name="Trazado 183723" d="M89.471,37.123c3.077,2.258,8.779,5.927,14.441,6.888l2.713-6.76L90.806,33.556Z" transform="translate(-9.293 -2.898)"/>
            <path id="Trazado_183724" data-name="Trazado 183724" d="M84.227,19.221c0-10.209,7.5-18.486,16.747-18.486S117.721,6.4,117.721,19.221c0,10.209-5.219,18.768-14.468,18.768S84.227,29.43,84.227,19.221" transform="translate(-8.748 -0.063)" fill="#c95b3d"/>
            <path id="Trazado_183725" data-name="Trazado 183725" d="M100.883,0C91.477,0,83.835,9.071,83.354,19.32,87.2,17.138,95.3,11.74,95.63,4.79a39.044,39.044,0,0,0,22.1,8.866C115.527,4.882,108.811,0,100.883,0" transform="translate(-8.657)"/>
            <path id="Trazado_183726" data-name="Trazado 183726" d="M81.584,44.79s24.463-2.708,35.286,7.981c16.637,16.431,51.27,64.827,17.044,70.857-9.885,1.741-25.175,0-25.175,0H39.529s-3,10.21-23.811,8.748S-.851,102.9,3.892,92.707,31.612,54.393,38.879,48.556s30.488-3.53,30.488-3.53Z" transform="translate(15.505 -3.841)" fill="#e1e8ff"/>
            <g id="Grupo_175060" data-name="Grupo 175060" transform="translate(22.214 77.853)">
              <path id="Trazado_183727" data-name="Trazado 183727" d="M12.4,118.2a.453.453,0,0,1-.18-.038.46.46,0,0,1-.229-.6A52.573,52.573,0,0,1,27.241,97.005a32.735,32.735,0,0,1,8.667-5.2.45.45,0,0,1,.568.285.459.459,0,0,1-.278.58c-.147.051-14.8,5.367-23.386,25.257a.447.447,0,0,1-.41.273" transform="translate(-8.743 -91.778)"/>
              <path id="Trazado_183728" data-name="Trazado 183728" d="M8.818,114.035a.449.449,0,0,1-.436-.349.458.458,0,0,1,.332-.551l7.108-1.742a.452.452,0,0,1,.54.338.458.458,0,0,1-.332.551l-7.108,1.741a.462.462,0,0,1-.1.012" transform="translate(-8.37 -93.471)"/>
            </g>
            <path id="Trazado_183729" data-name="Trazado 183729" d="M111.807,25.809s3.158-10.507,8.722-4.385c0,0-1.277,7.084-8.722,4.385" transform="translate(-11.612 -1.685)" fill="#fff"/>
            <path id="Trazado_183730" data-name="Trazado 183730" d="M103.679,26.285s-3.7-9.3-10.635-2.65c0,0,3.1,7.469,10.635,2.65" transform="translate(-9.664 -1.834)" fill="#fff"/>
            <path id="Trazado_183731" data-name="Trazado 183731" d="M107.677,27.694a.588.588,0,0,1-.3-.084.623.623,0,0,1-.217-.843l1.652-2.889a.6.6,0,0,1,.513-.305.624.624,0,0,1,.522.29l1.476,2.407a.622.622,0,0,1-.193.849.6.6,0,0,1-.832-.2l-.946-1.541L108.2,27.388a.6.6,0,0,1-.522.306" transform="translate(-11.121 -2.036)"/>
            <path id="Trazado_183732" data-name="Trazado 183732" d="M106.318,34.209a10.213,10.213,0,0,1-2.456-.292.619.619,0,0,1-.429-.754.608.608,0,0,1,.739-.439c.045.011,4.485,1.162,6.588-1.651a.594.594,0,0,1,.846-.117.622.622,0,0,1,.115.863,6.49,6.49,0,0,1-5.4,2.389" transform="translate(-10.741 -2.662)"/>
            <path id="Trazado_183733" data-name="Trazado 183733" d="M94.3,18.493a.6.6,0,0,1-.488-.253.624.624,0,0,1,.131-.861c4.075-3.034,7.573-1.683,7.722-1.623a.62.62,0,0,1,.34.8.6.6,0,0,1-.781.348c-.123-.048-3.052-1.148-6.567,1.47a.594.594,0,0,1-.357.119" transform="translate(-9.731 -1.33)"/>
            <path id="Trazado_183734" data-name="Trazado 183734" d="M119.978,17.479a.6.6,0,0,1-.357-.118c-3.547-2.641-6.535-1.482-6.564-1.472a.6.6,0,0,1-.784-.347.621.621,0,0,1,.34-.8c.148-.059,3.647-1.411,7.722,1.623a.625.625,0,0,1,.131.862.6.6,0,0,1-.488.252" transform="translate(-11.656 -1.243)"/>
            <path id="Trazado_183735" data-name="Trazado 183735" d="M98.037,44.256l-12.593.556s-.1-.047-4.7-.047c1.692,3.575,3.566,10.625,15.291,9.424,5.428-.556,8.2-6.778,9.334-9.934a34.356,34.356,0,0,0-7.33,0" transform="matrix(0.998, 0.07, -0.07, 0.998, -2.345, -11.561)" fill="#c95b3d"/>
            <path id="Trazado_183736" data-name="Trazado 183736" d="M49.809,129.463a.453.453,0,0,1-.448-.452l-.242-24.785a.454.454,0,0,1,.444-.461h0a.452.452,0,0,1,.448.452L50.257,129a.453.453,0,0,1-.444.461Z" transform="translate(3.726 -8.959)"/>
            <path id="Trazado_183737" data-name="Trazado 183737" d="M134.026,129.3a.448.448,0,0,1-.42-.3l-9.556-26.472a.457.457,0,0,1,.265-.586.444.444,0,0,1,.575.27l9.556,26.471a.459.459,0,0,1-.265.587.438.438,0,0,1-.155.028" transform="translate(-12.881 -8.801)"/>
          </g>
        </g>
        <g id="Grupo_175064" data-name="Grupo 175064" transform="translate(83.306 19.404)">
          <g id="Grupo_175063" data-name="Grupo 175063" clip-path="url(#clip-path-2)">
            <path id="Trazado_183738" data-name="Trazado 183738" d="M105.227,24.479a4.457,4.457,0,0,1-8.914,0c.128-5.132,4.957-4.457,4.458-4.457a4.457,4.457,0,0,1,4.457,4.457" transform="translate(-93.326 -21.13)"/>
          </g>
        </g>
        <g id="Grupo_175066" data-name="Grupo 175066" transform="translate(100.122 17.823)">
          <g id="Grupo_175065" data-name="Grupo 175065" clip-path="url(#clip-path-3)">
            <path id="Trazado_183740" data-name="Trazado 183740" d="M122.945,23.006a4.457,4.457,0,1,1-4.457-4.457,4.457,4.457,0,0,1,4.457,4.457" transform="translate(-111.999 -19.425)"/>
          </g>
        </g>
        <g id="Grupo_175068" data-name="Grupo 175068">
          <g id="Grupo_175067" data-name="Grupo 175067" clip-path="url(#clip-path-4)">
            <path id="Trazado_183742" data-name="Trazado 183742" d="M87.641,24.175c-1.039-2.529-3.635-3.81-5.8-2.862s-3.076,3.768-2.039,6.3,3.635,3.81,5.8,2.862,3.077-3.768,2.039-6.3" transform="translate(-8.244 -1.813)" fill="#c95b3d"/>
            <path id="Trazado_183743" data-name="Trazado 183743" d="M85.483,27.793a.594.594,0,0,1-.41-.164l-3.337-3.136a.624.624,0,0,1-.034-.871.6.6,0,0,1,.854-.035l3.336,3.136a.624.624,0,0,1,.034.871.59.59,0,0,1-.444.2" transform="translate(-8.469 -2.023)"/>
            <path id="Trazado_183744" data-name="Trazado 183744" d="M82.785,28.782a.6.6,0,0,1-.436-.189.625.625,0,0,1,.016-.872l1.547-1.515a.6.6,0,0,1,.855.016.626.626,0,0,1-.016.872L83.2,28.611a.6.6,0,0,1-.419.172" transform="translate(-8.535 -2.248)"/>
            <path id="Trazado_183745" data-name="Trazado 183745" d="M81.159,123.24,44.352,104.308a1.062,1.062,0,0,1-.571-.946V45.677a1.039,1.039,0,0,1,1.506-.946L82.095,63.663a1.061,1.061,0,0,1,.572.946v57.686a1.04,1.04,0,0,1-1.507.946" transform="translate(-4.547 -3.853)" fill="#ffc849"/>
            <path id="Trazado_183746" data-name="Trazado 183746" d="M88.866,123.24l36.807-18.932a1.062,1.062,0,0,0,.571-.946V45.677a1.04,1.04,0,0,0-1.507-.946L87.93,63.663a1.062,1.062,0,0,0-.571.946v57.686a1.04,1.04,0,0,0,1.507.946" transform="translate(-9.073 -3.853)" fill="#ffc849"/>
            <path id="Trazado_183747" data-name="Trazado 183747" d="M87.308,124.6a.453.453,0,0,1-.448-.457V66.454a.448.448,0,1,1,.9,0V124.14a.453.453,0,0,1-.448.457" transform="translate(-9.021 -5.699)"/>
            <path id="Trazado_183748" data-name="Trazado 183748" d="M47.2,85.694l-9.066-.16a2.681,2.681,0,0,0-2.662,2.847A2.87,2.87,0,0,0,38.4,91.233l9.034-.516A2.385,2.385,0,0,0,49.6,88.028a2.533,2.533,0,0,0-2.4-2.334" transform="translate(-3.684 -7.386)" fill="#c95b3d"/>
            <path id="Trazado_183749" data-name="Trazado 183749" d="M48.262,96.475l-10.816.46a2.629,2.629,0,0,1-2.583-2.006l-.068-.25a2.539,2.539,0,0,1,2.256-3.318l10.885-.21a2.671,2.671,0,0,1,2.61,2.429,2.506,2.506,0,0,1-2.283,2.9" transform="translate(-3.603 -7.871)" fill="#c95b3d"/>
            <path id="Trazado_183750" data-name="Trazado 183750" d="M48.466,99.023h0A2.3,2.3,0,0,0,46.2,97.041l-7.211.028a2.3,2.3,0,0,0-2.265,2.091l-.059.591a2.308,2.308,0,0,0,2.463,2.56l7.27-.62a2.32,2.32,0,0,0,2.069-2.669" transform="translate(-3.807 -8.38)" fill="#c95b3d"/>
            <path id="Trazado_183751" data-name="Trazado 183751" d="M47.223,103.7h0a1.986,1.986,0,0,0-1.865-1.453l-5.949.144a1.729,1.729,0,0,0-1.6,1.971l.052.673A2.012,2.012,0,0,0,40,106.971l5.9-.818a1.818,1.818,0,0,0,1.325-2.449" transform="translate(-3.926 -8.829)" fill="#c95b3d"/>
            <path id="Trazado_183752" data-name="Trazado 183752" d="M36.671,91.339l.005-.011a.217.217,0,0,1,.293-.1,3.877,3.877,0,0,0,1.54.263l9.571-.435a3.721,3.721,0,0,1,2.482,1,2.545,2.545,0,0,1,.612,1.957c-.192,2.947-4.284,2.9-4.539,2.891l-5.7.351c-.429.026-2.765.056-3.366.021a.224.224,0,0,1,.025-.447c.59.034,2.892,0,3.315-.021l5.709-.352h.022c.039,0,3.928.122,4.1-2.472a2.106,2.106,0,0,0-.5-1.623,3.311,3.311,0,0,0-2.153-.86l-9.556.435a4.274,4.274,0,0,1-1.755-.308.226.226,0,0,1-.107-.288" transform="translate(-3.807 -7.862)"/>
            <path id="Trazado_183753" data-name="Trazado 183753" d="M38.2,102.285a.219.219,0,0,1,.215-.137c.582.034,4.079-.206,4.662-.271.545-.06,2.333-.188,2.408-.194.033,0,3.355-.28,3.208-2.474a1.7,1.7,0,0,0-1.342-1.567,4.162,4.162,0,0,0-1.333-.176A.224.224,0,0,1,46,97.017c1.031-.06,3.014.314,3.138,2.16.142,2.111-2.3,2.854-3.615,2.952-.019,0-1.855.132-2.392.193s-4.1.31-4.734.272a.222.222,0,0,1-.207-.236.248.248,0,0,1,.017-.074" transform="translate(-3.966 -8.377)"/>
            <path id="Trazado_183754" data-name="Trazado 183754" d="M37.9,85.291a.218.218,0,0,1,.2-.137c.057,0,5.825-.037,8.172-.028,2.473.009,3.965,1.095,4.091,2.978a2.85,2.85,0,0,1-2.086,2.876.22.22,0,0,1-.268-.161.223.223,0,0,1,.157-.272,2.369,2.369,0,0,0,1.759-2.413c-.11-1.644-1.408-2.553-3.654-2.561-2.345-.008-8.11.027-8.167.028a.222.222,0,0,1-.221-.223.239.239,0,0,1,.017-.088" transform="translate(-3.934 -7.351)"/>
            <path id="Trazado_183755" data-name="Trazado 183755" d="M127.577,82.659l8.675-.154A2.566,2.566,0,0,1,138.8,85.23a2.746,2.746,0,0,1-2.8,2.729l-8.644-.493a2.283,2.283,0,0,1-2.073-2.574,2.423,2.423,0,0,1,2.3-2.233" transform="translate(-13.01 -7.124)" fill="#c95b3d"/>
            <path id="Trazado_183756" data-name="Trazado 183756" d="M126.366,92.973l10.35.44a2.514,2.514,0,0,0,2.47-1.92l.065-.239a2.428,2.428,0,0,0-2.158-3.175l-10.414-.2a2.554,2.554,0,0,0-2.5,2.324,2.4,2.4,0,0,0,2.184,2.77" transform="translate(-12.896 -7.588)" fill="#c95b3d"/>
            <path id="Trazado_183757" data-name="Trazado 183757" d="M126.617,95.411h0a2.2,2.2,0,0,1,2.17-1.9l6.9.027a2.2,2.2,0,0,1,2.166,2l.057.566a2.207,2.207,0,0,1-2.357,2.449l-6.957-.593a2.22,2.22,0,0,1-1.98-2.554" transform="translate(-13.148 -8.075)" fill="#c95b3d"/>
            <path id="Trazado_183758" data-name="Trazado 183758" d="M128.065,99.891h0a1.9,1.9,0,0,1,1.783-1.391l5.692.138a1.655,1.655,0,0,1,1.532,1.886l-.05.645a1.924,1.924,0,0,1-2.048,1.847l-5.642-.783a1.737,1.737,0,0,1-1.267-2.343" transform="translate(-13.291 -8.506)" fill="#c95b3d"/>
            <path id="Trazado_183759" data-name="Trazado 183759" d="M137.6,88.06l0-.011a.21.21,0,0,0-.281-.1,3.711,3.711,0,0,1-1.473.252l-9.158-.416a3.552,3.552,0,0,0-2.375.958,2.434,2.434,0,0,0-.585,1.873c.183,2.82,4.1,2.772,4.343,2.766l5.454.335c.41.025,2.646.054,3.22.021a.214.214,0,0,0,.2-.227.212.212,0,0,0-.222-.2c-.564.033-2.766,0-3.171-.02l-5.463-.336h-.021c-.038,0-3.758.117-3.92-2.365a2.021,2.021,0,0,1,.475-1.553,3.178,3.178,0,0,1,2.059-.822l9.143.416a4.065,4.065,0,0,0,1.678-.294.215.215,0,0,0,.1-.275" transform="translate(-12.85 -7.58)"/>
            <path id="Trazado_183760" data-name="Trazado 183760" d="M136.534,98.532a.21.21,0,0,0-.206-.131c-.557.032-3.9-.2-4.46-.259-.522-.058-2.231-.181-2.3-.185-.031,0-3.21-.269-3.069-2.368a1.631,1.631,0,0,1,1.284-1.5,3.988,3.988,0,0,1,1.275-.169.215.215,0,0,0,.024-.429c-.987-.058-2.884.3-3,2.067-.135,2.02,2.2,2.731,3.458,2.824.018,0,1.774.127,2.288.185s3.922.3,4.53.261a.214.214,0,0,0,.2-.227.23.23,0,0,0-.016-.07" transform="translate(-13.094 -8.073)"/>
            <path id="Trazado_183761" data-name="Trazado 183761" d="M136.66,82.274a.211.211,0,0,0-.193-.132c-.056,0-5.573-.035-7.819-.026-2.367.008-3.793,1.047-3.914,2.85a2.727,2.727,0,0,0,2,2.752.211.211,0,0,0,.256-.153.215.215,0,0,0-.151-.261,2.264,2.264,0,0,1-1.683-2.308c.106-1.572,1.347-2.443,3.5-2.45,2.243-.008,7.759.026,7.814.026a.212.212,0,0,0,.212-.213.216.216,0,0,0-.016-.084" transform="translate(-12.954 -7.091)"/>
            <path id="Trazado_183762" data-name="Trazado 183762" d="M174.844,109.017a.435.435,0,0,1-.239-.07L147.4,91.5a.461.461,0,0,1-.14-.63.444.444,0,0,1,.617-.143l27.2,17.443a.463.463,0,0,1,.14.63.446.446,0,0,1-.379.213" transform="translate(-15.288 -7.829)"/>
            <path id="Trazado_183763" data-name="Trazado 183763" d="M101.184,105.463s-6.243-8.919-12.006-9.812c-3.444-.534-5.752-.955-7.052-1.207a1.877,1.877,0,0,1-1.342-1.876,1.409,1.409,0,0,1,1.133-1.551,25.174,25.174,0,0,1,11.1,1.721c5.1,2.1,12.112,10.385,12.112,10.385Z" transform="translate(-8.39 -7.854)" fill="#ed8c6b"/>
            <path id="Trazado_183764" data-name="Trazado 183764" d="M96.7,99.49s-5.275-7.518-11.038-8.41c-3.708-.575-6.1-1.019-7.333-1.263a1.475,1.475,0,0,1-1.05-1.471,1.738,1.738,0,0,1,1.415-1.92,25.133,25.133,0,0,1,10.8,1.741c5.1,2.1,12.112,10.385,12.112,10.385Z" transform="translate(-8.026 -7.459)" fill="#ed8c6b"/>
            <path id="Trazado_183765" data-name="Trazado 183765" d="M95.1,95.934s-5.275-7.518-11.038-8.41c-3.711-.575-6.1-1.019-7.335-1.263a1.473,1.473,0,0,1-1.048-1.468A1.741,1.741,0,0,1,77.1,82.87a25.139,25.139,0,0,1,10.8,1.741C93,86.706,100.009,95,100.009,95Z" transform="translate(-7.86 -7.152)" fill="#ed8c6b"/>
            <path id="Trazado_183766" data-name="Trazado 183766" d="M104,104.405S92.776,86.013,87.5,84.161c-3.4-1.193-6.708-1.862-7.83-2.309a1.546,1.546,0,0,1-.82-1.582,1.626,1.626,0,0,1,1.512-1.675c2.446.131,7.682.725,11.828,3.369,4.527,2.887,15.7,18.536,15.7,18.536Z" transform="translate(-8.189 -6.787)" fill="#ed8c6b"/>
            <path id="Trazado_183767" data-name="Trazado 183767" d="M94.958,84.8,92.389,78.87a2.722,2.722,0,0,1,.846-3.316,1.541,1.541,0,0,1,2.175.665c.879,1.5,11.989,16.672,11.989,16.672l4.667,10.144-15.549-10.4Z" transform="translate(-9.571 -6.505)" fill="#ed8c6b"/>
            <path id="Trazado_183768" data-name="Trazado 183768" d="M92.273,92.706a.3.3,0,0,1,0,.129c-.029.123-.129.187-.224.146A23.5,23.5,0,0,0,81.8,90.959c-.1.006-.186-.1-.194-.224a.213.213,0,0,1,.165-.246,23.79,23.79,0,0,1,10.385,2.047.233.233,0,0,1,.121.17" transform="translate(-8.475 -7.812)"/>
            <path id="Trazado_183769" data-name="Trazado 183769" d="M92.314,89.547a.3.3,0,0,1-.018.175.179.179,0,0,1-.268.1,14.56,14.56,0,0,0-2.592-1.45,26.22,26.22,0,0,0-10.95-1.836,1.473,1.473,0,0,0-.85.472.172.172,0,0,1-.278-.028.287.287,0,0,1,.022-.344,1.828,1.828,0,0,1,1.086-.588A26.545,26.545,0,0,1,89.559,87.9a14.914,14.914,0,0,1,2.658,1.486.246.246,0,0,1,.1.158" transform="translate(-8.03 -7.427)"/>
            <path id="Trazado_183770" data-name="Trazado 183770" d="M93.368,86.351a.237.237,0,0,1-.026.159.176.176,0,0,1-.255.073A15.877,15.877,0,0,0,89.5,84.627a23.623,23.623,0,0,0-5.288-1.116.194.194,0,0,1-.156-.228.2.2,0,0,1,.207-.187,23.915,23.915,0,0,1,5.361,1.132,16.258,16.258,0,0,1,3.666,2,.2.2,0,0,1,.079.127" transform="translate(-8.73 -7.175)"/>
            <path id="Trazado_183771" data-name="Trazado 183771" d="M96.507,83.835a.292.292,0,0,1-.031.2.173.173,0,0,1-.275.054c-.561-.5-3.753-2.361-3.785-2.38a.274.274,0,0,1-.1-.325.182.182,0,0,1,.262-.118c.133.077,3.258,1.9,3.85,2.427a.257.257,0,0,1,.076.142" transform="translate(-9.586 -7.015)"/>
            <path id="Trazado_183772" data-name="Trazado 183772" d="M99.635,92.987c0,.033,0,.066,0,.1-.005.068-.1.128-.208.134s-.194-.043-.189-.11c0-.03,0-.061,0-.092.047-2.148-3.766-4.036-3.805-4.056-.08-.038-.083-.115-.008-.171a.3.3,0,0,1,.28-.03,12.516,12.516,0,0,1,2.021,1.284c.893.7,1.934,1.773,1.909,2.942" transform="translate(-9.905 -7.663)"/>
            <path id="Trazado_183773" data-name="Trazado 183773" d="M136.562,210.329l-4.655,62.314.886,9.04-19.087,20.509a8.6,8.6,0,0,1-10.669,1.6,8.221,8.221,0,0,1-2.812-11.341l12.041-19.8,1.983-58.033Z" transform="translate(-10.285 -18.162)" fill="#ed8c6b"/>
            <path id="Trazado_183774" data-name="Trazado 183774" d="M115.342,233.051l-.359,10.526,20.543,4.748,1.1-14.772Z" transform="translate(-11.942 -20.124)"/>
            <path id="Trazado_183775" data-name="Trazado 183775" d="M112.781,279.649l-2.8,4.6c3.493-.6,10.748-.314,16.408,10.151l3.348-2.954c-.358-1.067-5.179-12.945-16.96-11.8" transform="translate(-11.423 -24.141)" fill="#d7e5ff"/>
            <path id="Trazado_183776" data-name="Trazado 183776" d="M123.251,298.924a15.949,15.949,0,0,0-5.457-5.122c-5.483-3.177-10.02-2.81-13.067-1.771l-4.5,7.4a8.219,8.219,0,0,0,2.813,11.34,8.6,8.6,0,0,0,10.668-1.594Z" transform="translate(-10.285 -25.153)" fill="#d7e5ff"/>
            <path id="Trazado_183777" data-name="Trazado 183777" d="M133.17,284.524,106.03,311.11a8.613,8.613,0,0,0,8.4-2.513l19.087-20.509Z" transform="translate(-11.012 -24.569)" fill="#d7e5ff"/>
            <path id="Trazado_183778" data-name="Trazado 183778" d="M152.811,237.632c-18.986-2.258-45.177-5.624-45.177-5.624s2.539-51.544,11.806-77.716c5.675-16.027,24.21-22.25,39.784-16.065.021,24.03-6.591,98.912-6.413,99.4" transform="translate(-11.179 -11.733)" fill="#ffb6c8"/>
            <path id="Trazado_183779" data-name="Trazado 183779" d="M245.342,180.618h-84.67a.9.9,0,0,1-.9-.914V168.74a.9.9,0,0,1,.9-.914h84.67a.9.9,0,0,1,.9.914V179.7a.9.9,0,0,1-.9.914m-83.774-1.827h82.878v-9.137H161.568Z" transform="translate(-16.595 -14.492)"/>
            <path id="Trazado_183780" data-name="Trazado 183780" d="M207.913,347.46a.9.9,0,0,1-.9-.914V180.74a.9.9,0,1,1,1.792,0V346.546a.9.9,0,0,1-.9.914" transform="translate(-21.501 -15.528)"/>
            <path id="Trazado_183781" data-name="Trazado 183781" d="M232.028,364.715H177.359a1.371,1.371,0,0,1,0-2.741h54.669a1.371,1.371,0,0,1,0,2.741" transform="translate(-18.281 -31.257)"/>
            <path id="Trazado_183782" data-name="Trazado 183782" d="M204.223,325.117a.89.89,0,0,1-.58-.216L171.8,297.426a.926.926,0,0,1-.262-1.012.9.9,0,0,1,.841-.6h63.681a.9.9,0,0,1,.841.6.927.927,0,0,1-.262,1.012L204.8,324.9a.888.888,0,0,1-.579.216m-29.394-27.475,29.394,25.365,29.4-25.365Z" transform="translate(-17.811 -25.544)"/>
            <path id="Trazado_183783" data-name="Trazado 183783" d="M165.525,27.351s-4.62-10.18,9.274-11.509Z" transform="translate(-17.115 -1.368)" fill="#3c3fa7"/>
            <path id="Trazado_183784" data-name="Trazado 183784" d="M205.065,56.476l9.746-.175c10.039,4.6,22.452,36.078,22.452,36.078l-14.689,10.3L202.639,73.257Z" transform="translate(-21.046 -4.862)" fill="#6b8dfc"/>
            <path id="Trazado_183785" data-name="Trazado 183785" d="M176.868,58.6s-22.881,2.388-29.793,13.637-18.335,37.89-18.335,37.89L110.6,84.925l-20,15.624s18.739,24.179,25.334,32.23,14.106,15.094,27.349,5.514,28.277-42.77,28.277-42.77l15.173-3.687,9.087-35.727Z" transform="translate(-9.41 -4.845)" fill="#6b8dfc"/>
            <path id="Trazado_183786" data-name="Trazado 183786" d="M177.239,197.295,205.35,266.83l-29.917,32.084-4.138-3.006a9.236,9.236,0,0,1-2.33-12.368l12.122-19.193L160.122,210.87Z" transform="translate(-16.63 -17.037)" fill="#ed8c6b"/>
            <path id="Trazado_183787" data-name="Trazado 183787" d="M190.872,231.881l-22.489.86,7.451,19.007,19.786-8.121Z" transform="translate(-17.489 -20.023)"/>
            <path id="Trazado_183788" data-name="Trazado 183788" d="M199.879,226.628c-18.711,4.914-29.262,7.686-48.559,12.357l-20.994-81.759a22.419,22.419,0,0,1,5.337-20.621c5.085-5.326,35.344-9.552,43.048-10.922-3.973-7.4.994-17.178,8.358-21.028s47.928-2,47.928-2,12.342,32.124,7.217,45.514S224.786,165.6,210.7,166.158L179.241,167.4s11.04,39.954,20.638,59.225" transform="translate(-13.467 -8.826)" fill="#ffb6c8"/>
            <path id="Trazado_183789" data-name="Trazado 183789" d="M202.4,56.493s-17.069,1.8-24.415,3.217l-.972,11.409,18.438-.645,7.827-8.37Z" transform="translate(-18.385 -4.878)" fill="#ed8c6b"/>
            <path id="Trazado_183790" data-name="Trazado 183790" d="M181.886,51.495c-.528-.817,3.358,12.129,3.358,12.129L200.5,61.863l-6.572-19.9Z" transform="translate(-18.886 -3.623)" fill="#ed8c6b"/>
            <path id="Trazado_183791" data-name="Trazado 183791" d="M192.8,42.932,181.887,51.58c-.252-.389.5,2.337,1.35,5.3L193.542,46.3Z" transform="translate(-18.886 -3.707)"/>
            <path id="Trazado_183792" data-name="Trazado 183792" d="M172.888,17.26A18.851,18.851,0,0,0,163.5,35.167c.933,12.606,4.017,16.331,16.352,15.083s13.93-10.762,13.93-10.762L191.4,27.183l-15.141-10.1Z" transform="translate(-16.975 -1.475)" fill="#ed8c6b"/>
            <path id="Trazado_183793" data-name="Trazado 183793" d="M172.019,61.559c-5.391,19.611-4.038,43.909,7,60.709,34.137,1.289,50.614,1.247,68.832,16.854-2.371-8.829-19.655-24.527-22.026-33.355-6.612-2.2-10.541-9.717-13.464-20.834-1.8-6.85-1.591-21.435-1.052-28.689-1.563-.979-10.088-.674-10.327.216,0,0-3.85,12.186-15.811,13.024-10.457.733-6.66-10.235-6.66-10.235s-6.337,1.737-6.494,2.311" transform="translate(-17.548 -4.804)"/>
            <path id="Trazado_183794" data-name="Trazado 183794" d="M216.222,56.294s17.743-1.8,24.971,12.307,22.687,49.577,20.709,61.2-18.443,14.328-25.12-1.411-7.7-39.745-7.7-39.745Z" transform="translate(-22.457 -4.855)" fill="#6b8dfc"/>
            <path id="Trazado_183795" data-name="Trazado 183795" d="M220.69,95.721l16.555,34.406,8.115-31.245L231.672,76.361Z" transform="translate(-22.921 -6.594)" fill="#6b8dfc"/>
            <path id="Trazado_183796" data-name="Trazado 183796" d="M138.481,123.531a.446.446,0,0,1-.367-.194l-6.416-9.3a.464.464,0,0,1,.108-.637.445.445,0,0,1,.625.111l6.416,9.3a.464.464,0,0,1-.108.637.439.439,0,0,1-.258.083" transform="translate(-13.67 -9.785)"/>
            <path id="Trazado_183797" data-name="Trazado 183797" d="M174.4,35.272s2.713-6.654,9.815-2.189c0,0-3.883,7.067-9.815,2.189" transform="translate(-18.114 -2.724)" fill="#fff"/>
            <path id="Trazado_183798" data-name="Trazado 183798" d="M169.3,35.482s-1.652-6.026-6.548-3.328c0,0,1.276,6.541,6.548,3.328" transform="translate(-16.903 -2.717)" fill="#fff"/>
            <path id="Trazado_183799" data-name="Trazado 183799" d="M170.255,39.655a.594.594,0,0,1-.474-.237L167.1,35.89a.624.624,0,0,1-.064-.644.6.6,0,0,1,.539-.343h3.461a.612.612,0,0,1,0,1.223H168.8l1.932,2.542a.62.62,0,0,1-.107.859.592.592,0,0,1-.367.128" transform="translate(-17.342 -3.014)"/>
            <path id="Trazado_183800" data-name="Trazado 183800" d="M180.749,26.879a.6.6,0,0,1-.224-.044,8.107,8.107,0,0,0-5.17-.559.6.6,0,0,1-.755-.392.613.613,0,0,1,.378-.77,9.082,9.082,0,0,1,5.994.587.615.615,0,0,1,.332.795.6.6,0,0,1-.557.384" transform="translate(-18.131 -2.147)"/>
            <path id="Trazado_183801" data-name="Trazado 183801" d="M169.645,26.1a.591.591,0,0,1-.388-.145,2.99,2.99,0,0,0-2.887-.563.592.592,0,0,1-.782-.332.615.615,0,0,1,.326-.8,4.18,4.18,0,0,1,4.121.762.619.619,0,0,1,.065.862.593.593,0,0,1-.455.214" transform="translate(-17.193 -2.071)"/>
            <path id="Trazado_183802" data-name="Trazado 183802" d="M185.482,26.077s-13.391-2.11-10.3-10.152c0,0,8.877-2.921,16.844,1.381S205.8,33.488,194.21,43.79l-1.049-6.932s-8.546.314-7.679-10.781" transform="translate(-18.147 -1.292)" fill="#3c3fa7"/>
            <path id="Trazado_183803" data-name="Trazado 183803" d="M195.12,282.026l1.376-3.878a24.322,24.322,0,0,0-13.743-6.714l-2.436,3.857c5.941-.878,14.8,6.735,14.8,6.735" transform="translate(-18.728 -23.439)" fill="#d7e5ff"/>
            <path id="Trazado_183804" data-name="Trazado 183804" d="M176.833,305.045l29.918-32.084-1.885-4.663-31.273,34.393Z" transform="translate(-18.03 -23.168)" fill="#d7e5ff"/>
            <path id="Trazado_183805" data-name="Trazado 183805" d="M188.011,293.86a5.579,5.579,0,0,0-1.332-3.545c-4.605-5.772-9.727-6.265-12.627-5.953l-4.227,6.691a9.237,9.237,0,0,0,2.331,12.368l4.044,2.938.336-.193Z" transform="translate(-17.49 -24.549)" fill="#d7e5ff"/>
            <path id="Trazado_183806" data-name="Trazado 183806" d="M191.284,36.394c1.9-2.218,4.923-2.556,6.753-.755s1.773,5.062-.127,7.28-4.923,2.557-6.752.755-1.774-5.062.126-7.28" transform="translate(-19.715 -2.978)" fill="#ed8c6b"/>
            <path id="Trazado_183807" data-name="Trazado 183807" d="M192.964,41.092a.6.6,0,0,1-.549-.365.616.616,0,0,1,.308-.806l4.4-1.973a.6.6,0,0,1,.79.314.616.616,0,0,1-.307.806l-4.4,1.973a.593.593,0,0,1-.241.051" transform="translate(-19.979 -3.272)"/>
            <path id="Trazado_183808" data-name="Trazado 183808" d="M195.628,43.086a.6.6,0,0,1-.54-.345l-1.022-2.151a.618.618,0,0,1,.279-.817.593.593,0,0,1,.8.284l1.023,2.151a.619.619,0,0,1-.279.818.6.6,0,0,1-.262.06" transform="translate(-20.15 -3.429)"/>
            <path id="Trazado_183809" data-name="Trazado 183809" d="M150,237.7a.447.447,0,0,1-.433-.341L129.842,160.55a22.871,22.871,0,0,1,5.449-21.056.443.443,0,0,1,.634-.009.463.463,0,0,1,.009.646,21.93,21.93,0,0,0-5.225,20.187l19.723,76.813a.456.456,0,0,1-.319.557.411.411,0,0,1-.114.016" transform="translate(-13.415 -12.034)"/>
          </g>
        </g>
        <g id="Grupo_175070" data-name="Grupo 175070" transform="translate(156.164 28.818)">
          <g id="Grupo_175069" data-name="Grupo 175069" clip-path="url(#clip-path-5)">
            <path id="Trazado_183810" data-name="Trazado 183810" d="M180.614,34.684a3.605,3.605,0,1,1-3.605-3.605,3.606,3.606,0,0,1,3.605,3.605" transform="translate(-174.319 -31.502)"/>
          </g>
        </g>
        <g id="Grupo_175072" data-name="Grupo 175072" transform="translate(145.767 28.742)">
          <g id="Grupo_175071" data-name="Grupo 175071" clip-path="url(#clip-path-6)">
            <path id="Trazado_183812" data-name="Trazado 183812" d="M167.377,34.34a3.139,3.139,0,1,1-6.209,0,3.139,3.139,0,1,1,6.209,0" transform="translate(-162.612 -31.396)"/>
          </g>
        </g>
        <g id="Grupo_175074" data-name="Grupo 175074">
          <g id="Grupo_175073" data-name="Grupo 175073" clip-path="url(#clip-path-4)">
            <path id="Trazado_183814" data-name="Trazado 183814" d="M175.161,43.2c-.275-.542-2.139-1.292-4.485-.229s-1.961,2.462.167,2.772c1.234.179,5.009-1.182,4.318-2.543" transform="translate(-17.56 -3.665)"/>
          </g>
        </g>
        <g id="Grupo_175076" data-name="Grupo 175076" transform="translate(151.438 38.773)">
          <g id="Grupo_175075" data-name="Grupo 175075" clip-path="url(#clip-path-8)">
            <path id="Trazado_183815" data-name="Trazado 183815" d="M167.389,44.858a17.067,17.067,0,0,1,7.365-1.54c3.7.224-.608,4.175-.608,4.175l-5.673,1.467Z" transform="translate(-168.929 -42.512)" fill="#fd521b"/>
          </g>
        </g>
        <g id="Grupo_175078" data-name="Grupo 175078" transform="translate(15.505 48.643)">
          <g id="Grupo_175077" data-name="Grupo 175077">
            <path id="Trazado_183817" data-name="Trazado 183817" d="M184.421,172.981a.457.457,0,0,1-.4-.245l-5.535-10.572a.457.457,0,0,1,.81-.423l5.534,10.572a.456.456,0,0,1-.194.616.448.448,0,0,1-.211.052" transform="translate(-37.037 -62.588)"/>
            <path id="Trazado_183818" data-name="Trazado 183818" d="M235.791,118.664a.458.458,0,0,1-.435-.316l-8.841-27.31a.459.459,0,0,1,.237-.554l20.674-9.877a.457.457,0,0,1,.395.824l-20.313,9.706,8.719,26.93a.457.457,0,0,1-.294.576.471.471,0,0,1-.141.022" transform="translate(-46.415 -55.599)"/>
            <path id="Trazado_183819" data-name="Trazado 183819" d="M239.117,85.6H222.158l-.947-32.359h18.854Z" transform="translate(-45.959 -53.24)" fill="#d7e5ff"/>
            <path id="Trazado_183820" data-name="Trazado 183820" d="M231.65,67.769l10.783-.622a3.158,3.158,0,0,1,3.3,3.2,3.388,3.388,0,0,1-3.354,3.471L231.6,73.644a2.8,2.8,0,0,1-2.706-3.035,2.992,2.992,0,0,1,2.751-2.841" transform="translate(-46.622 -54.441)"/>
            <path id="Trazado_183821" data-name="Trazado 183821" d="M230.677,80.427l12.9.018a3.123,3.123,0,0,0,2.979-2.467l.069-.3a2.973,2.973,0,0,0-2.841-3.765l-12.964.278a3.156,3.156,0,0,0-2.991,2.961,2.942,2.942,0,0,0,2.853,3.27" transform="translate(-46.529 -55.026)"/>
            <path id="Trazado_183822" data-name="Trazado 183822" d="M231.051,83.389h0a2.721,2.721,0,0,1,2.606-2.423l8.585-.312a2.721,2.721,0,0,1,2.793,2.333l.1.687a2.722,2.722,0,0,1-2.811,3.106l-8.682-.375a2.721,2.721,0,0,1-2.588-3.016" transform="translate(-46.807 -55.607)"/>
            <path id="Trazado_183823" data-name="Trazado 183823" d="M233.037,88.8h0a2.356,2.356,0,0,1,2.151-1.785l7.087-.118a2.031,2.031,0,0,1,2,2.223l-.03.789a2.38,2.38,0,0,1-2.457,2.357l-7.057-.672a2.118,2.118,0,0,1-1.692-2.794" transform="translate(-46.972 -56.147)"/>
            <path id="Trazado_183824" data-name="Trazado 183824" d="M244.426,73.857l-.006-.013a.261.261,0,0,0-.354-.107,4.715,4.715,0,0,1-1.821.381l-11.411-.048a4.471,4.471,0,0,0-2.907,1.289,2.931,2.931,0,0,0-.636,2.313c.366,3.432,5.234,3.177,5.538,3.157l6.8.135c.512.009,3.294-.067,4.006-.136a.262.262,0,0,0-.051-.521c-.7.068-3.441.143-3.945.134l-6.812-.136H232.8c-.047,0-4.669.331-4.991-2.69a2.434,2.434,0,0,1,.513-1.918,3.994,3.994,0,0,1,2.521-1.106l11.4.048a5.172,5.172,0,0,0,2.073-.442.263.263,0,0,0,.113-.342" transform="translate(-46.482 -55.008)"/>
            <path id="Trazado_183825" data-name="Trazado 183825" d="M243.553,86.725a.262.262,0,0,0-.262-.15c-.692.068-4.865-.045-5.561-.092-.651-.045-2.785-.108-2.875-.111-.038,0-4.005-.166-3.934-2.735a2,2,0,0,1,1.524-1.893,5.075,5.075,0,0,1,1.578-.27.262.262,0,0,0,.008-.524c-1.23-.02-3.571.512-3.633,2.672-.069,2.471,2.874,3.221,4.441,3.272.023,0,2.214.066,2.855.11s4.894.165,5.647.091a.262.262,0,0,0,.236-.286.293.293,0,0,0-.024-.085" transform="translate(-46.752 -55.633)"/>
            <path id="Trazado_183826" data-name="Trazado 183826" d="M242.944,66.843a.261.261,0,0,0-.246-.151c-.069,0-6.935.238-9.728.36-2.943.129-4.667,1.468-4.728,3.673a3.345,3.345,0,0,0,2.619,3.257.261.261,0,0,0,.111-.511,2.781,2.781,0,0,1-2.207-2.731c.054-1.924,1.555-3.049,4.228-3.166,2.79-.122,9.654-.357,9.722-.36a.262.262,0,0,0,.253-.27.271.271,0,0,0-.025-.1" transform="translate(-46.566 -54.402)"/>
            <path id="Trazado_183827" data-name="Trazado 183827" d="M231.376,66.857l10.782-.622a3.158,3.158,0,0,1,3.3,3.2,3.388,3.388,0,0,1-3.354,3.471l-10.776-.168a2.8,2.8,0,0,1-2.706-3.035,2.992,2.992,0,0,1,2.751-2.841" transform="translate(-46.599 -54.362)" fill="#ed8c6b"/>
            <path id="Trazado_183828" data-name="Trazado 183828" d="M230.4,79.515l12.9.018a3.123,3.123,0,0,0,2.979-2.466l.069-.3a2.973,2.973,0,0,0-2.841-3.765l-12.964.278a3.156,3.156,0,0,0-2.991,2.961,2.942,2.942,0,0,0,2.853,3.27" transform="translate(-46.505 -54.947)" fill="#ed8c6b"/>
            <path id="Trazado_183829" data-name="Trazado 183829" d="M230.777,82.476h0a2.722,2.722,0,0,1,2.607-2.423l8.584-.312a2.721,2.721,0,0,1,2.793,2.333l.1.687a2.722,2.722,0,0,1-2.811,3.106l-8.682-.375a2.722,2.722,0,0,1-2.588-3.016" transform="translate(-46.783 -55.528)" fill="#ed8c6b"/>
            <path id="Trazado_183830" data-name="Trazado 183830" d="M232.764,87.89h0a2.356,2.356,0,0,1,2.151-1.785L242,85.987a2.031,2.031,0,0,1,2,2.223l-.03.789a2.38,2.38,0,0,1-2.457,2.357l-7.057-.672a2.118,2.118,0,0,1-1.692-2.794" transform="translate(-46.948 -56.068)" fill="#ed8c6b"/>
            <path id="Trazado_183831" data-name="Trazado 183831" d="M244.152,72.945l-.006-.013a.261.261,0,0,0-.355-.107,4.714,4.714,0,0,1-1.82.381l-11.411-.048a4.471,4.471,0,0,0-2.907,1.289,2.935,2.935,0,0,0-.637,2.313c.367,3.432,5.235,3.177,5.539,3.157l6.8.135c.512.009,3.294-.067,4.006-.136a.262.262,0,1,0-.051-.521c-.7.068-3.441.143-3.945.134l-6.812-.135h-.026c-.047,0-4.669.332-4.991-2.69a2.434,2.434,0,0,1,.513-1.918,3.994,3.994,0,0,1,2.522-1.106l11.394.048a5.172,5.172,0,0,0,2.073-.442.263.263,0,0,0,.113-.342" transform="translate(-46.458 -54.929)"/>
            <path id="Trazado_183832" data-name="Trazado 183832" d="M243.279,85.812a.262.262,0,0,0-.262-.15c-.692.068-4.865-.045-5.561-.092-.651-.045-2.785-.108-2.875-.111-.038,0-4.005-.166-3.934-2.735a2,2,0,0,1,1.524-1.893,5.075,5.075,0,0,1,1.578-.27.262.262,0,0,0,.008-.524c-1.23-.02-3.572.512-3.633,2.672-.069,2.471,2.874,3.221,4.441,3.272.023,0,2.214.066,2.855.11s4.894.165,5.647.091a.262.262,0,0,0,.236-.286.292.292,0,0,0-.024-.085" transform="translate(-46.728 -55.554)"/>
            <path id="Trazado_183833" data-name="Trazado 183833" d="M242.67,65.93a.261.261,0,0,0-.246-.151c-.069,0-6.935.238-9.728.36-2.944.129-4.667,1.468-4.729,3.673a3.346,3.346,0,0,0,2.619,3.257.261.261,0,0,0,.111-.511,2.781,2.781,0,0,1-2.207-2.732c.054-1.923,1.555-3.048,4.228-3.165,2.79-.122,9.654-.357,9.722-.36a.262.262,0,0,0,.253-.27.271.271,0,0,0-.025-.1" transform="translate(-46.542 -54.323)"/>
            <rect id="Rectángulo_45303" data-name="Rectángulo 45303" width="221.421" height="9.419" transform="translate(0.535 70.065)" fill="#fff7da"/>
            <path id="Trazado_183834" data-name="Trazado 183834" d="M234.826,140.174H13.336c-.276,0-.5-.408-.5-.914v-9.419c0-.505.224-.914.5-.914h221.49c.276,0,.5.408.5.914v9.419c0,.505-.223.914-.5.914M13.837,138.347H234.326v-7.592H13.837Z" transform="translate(-12.836 -59.776)" fill="#12263f"/>
          </g>
        </g>
      </g>
    </g>
    <path id="Unión_101" data-name="Unión 101" d="M7420.7,11701.613c3.867-5.234,9.568,3.952,9.568,3.952s5.7-9.187,9.568-3.952-9.568,12.822-9.568,12.822S7416.833,11706.846,7420.7,11701.613Z" transform="translate(-6205.328 -10741.719)" fill="#fc5f65"/>
    <path id="Unión_102" data-name="Unión 102" d="M7420.391,11700.942c2.172-3.059,5.375,2.31,5.375,2.31s3.2-5.368,5.374-2.31-5.374,7.493-5.374,7.493S7418.22,11704,7420.391,11700.942Z" transform="translate(3123.297 -12773.641) rotate(40)" fill="#fc5f65"/>
    <path id="Unión_103" data-name="Unión 103" d="M.392,7.493c2.172,3.059,5.375-2.309,5.375-2.309s3.2,5.368,5.374,2.31S5.767,0,5.767,0-1.778,4.436.392,7.493Z" transform="translate(1161.565 951.149) rotate(140)" fill="#fc5f65"/>
  </g>
</svg>
