<svg xmlns="http://www.w3.org/2000/svg" xmlns:xlink="http://www.w3.org/1999/xlink" width="228" height="340" viewBox="0 0 228 340">
  <defs>
    <clipPath id="clip-path">
      <rect id="Rectángulo_45180" data-name="Rectángulo 45180" width="228" height="340" transform="translate(0 0)" fill="#fff" stroke="#707070" stroke-width="1"/>
    </clipPath>
    <clipPath id="clip-path-2">
      <rect id="Rectángulo_45318" data-name="Rectángulo 45318" width="186.743" height="334.347" fill="none"/>
    </clipPath>
  </defs>
  <g id="Grupo_293" data-name="Grupo 293" clip-path="url(#clip-path)">
    <g id="Grupo_174786" data-name="Grupo 174786" transform="translate(-14.376 5.267)">
      <g id="Grupo_174773" data-name="Grupo 174773" transform="translate(0 163.212)">
        <rect id="Rectángulo_45175" data-name="Rectángulo 45175" width="172.683" height="171.134" transform="translate(0)" fill="#fff0f1"/>
        <path id="Rectángulo_45176" data-name="Rectángulo 45176" d="M0,0H144.032a98.344,98.344,0,0,1,98.344,98.344v0a0,0,0,0,1,0,0H0a0,0,0,0,1,0,0V0A0,0,0,0,1,0,0Z" transform="translate(0 72.79)" fill="#fc5f65"/>
      </g>
      <g id="Grupo_175093" data-name="Grupo 175093" transform="translate(21.633 0)">
        <g id="Grupo_175092" data-name="Grupo 175092" clip-path="url(#clip-path-2)">
          <path id="Trazado_183915" data-name="Trazado 183915" d="M140.627,285.882a.98.98,0,0,0,.172-.014,1.049,1.049,0,0,0,.864-1.206L121.1,160.59c-1.32-7.959-7.417-13.735-14.5-13.735H61.447a1.049,1.049,0,0,0,0,2.1H106.6c6.051,0,11.278,5.038,12.429,11.979L139.594,285a1.048,1.048,0,0,0,1.033.878" transform="translate(17.226 41.884)" fill="#12263f"/>
          <path id="Trazado_183916" data-name="Trazado 183916" d="M118.447,182.055H50.662a42.8,42.8,0,0,1-42.8-42.8V55.431A28.318,28.318,0,0,1,36.177,27.113H72.465A28.318,28.318,0,0,1,100.782,55.4l.082,78.317,44.173,5.478v16.268a26.59,26.59,0,0,1-26.59,26.591" transform="translate(2.241 7.733)" fill="#e1e8ff"/>
          <path id="Trazado_183917" data-name="Trazado 183917" d="M7.043,139.485V55.663A29.4,29.4,0,0,1,36.41,26.3H72.7a29.407,29.407,0,0,1,29.367,29.337l.08,77.39,43.255,5.364a1.047,1.047,0,0,1,.92,1.04V155.7a27.671,27.671,0,0,1-27.64,27.638H50.893a43.9,43.9,0,0,1-43.85-43.85m93.924-4.494a1.05,1.05,0,0,1-.92-1.04l-.08-78.315A27.307,27.307,0,0,0,72.7,28.393H36.41A27.3,27.3,0,0,0,9.14,55.663v83.822a41.8,41.8,0,0,0,41.753,41.753H118.68A25.571,25.571,0,0,0,144.222,155.7V140.354Z" transform="translate(2.009 7.5)" fill="#5774cd"/>
          <path id="Trazado_183918" data-name="Trazado 183918" d="M1.05,289.381a1.049,1.049,0,0,0,1.035-.882L22.929,159.2a12.667,12.667,0,0,1,12.428-10.25h72.618a1.049,1.049,0,1,0,0-2.1H35.357a14.774,14.774,0,0,0-14.493,11.983L.013,288.165a1.05,1.05,0,0,0,.869,1.2,1.076,1.076,0,0,0,.168.013" transform="translate(0 41.884)" fill="#12263f"/>
          <path id="Trazado_183919" data-name="Trazado 183919" d="M19.608,289.381a1.049,1.049,0,0,0,1.035-.882L41.487,159.2a12.668,12.668,0,0,1,12.428-10.25H99.067a1.049,1.049,0,1,0,0-2.1H53.915a14.774,14.774,0,0,0-14.493,11.983L18.571,288.165a1.05,1.05,0,0,0,.869,1.2,1.076,1.076,0,0,0,.168.013" transform="translate(5.293 41.884)" fill="#12263f"/>
          <path id="Trazado_183920" data-name="Trazado 183920" d="M118.393,83.994l-10.875,2.25-5.98-14.272,12.693-1.006Z" transform="translate(28.959 20.24)" fill="#e8926d"/>
          <path id="Trazado_183921" data-name="Trazado 183921" d="M110.134,67.608l4.637,25.315a.937.937,0,0,0,1.5.567l32.143-25.277a.933.933,0,0,0,.342-.9l-4.638-25.315a.936.936,0,0,0-1.5-.568L110.475,66.7a.931.931,0,0,0-.342.9" transform="translate(31.406 11.758)" fill="#5774cd"/>
          <path id="Trazado_183922" data-name="Trazado 183922" d="M109.61,69.715l5.259,22.7a.936.936,0,0,0,1.492.524l30.95-24.431a.935.935,0,0,0,.342-.9l-4.1-23.518a.936.936,0,0,0-1.5-.574L109.943,68.768a.936.936,0,0,0-.333.947" transform="translate(31.255 12.354)" fill="#fff"/>
          <path id="Trazado_183923" data-name="Trazado 183923" d="M77.684,126.7,138,264.961,124,269.439,58.373,151.893Z" transform="translate(16.648 36.137)" fill="#e8926d"/>
          <path id="Trazado_183924" data-name="Trazado 183924" d="M70.3,91.2,88.2,53.758a17.184,17.184,0,0,0-.289-15.4l-2.258-4.3-41.7,59.807L55.8,101.159Z" transform="translate(12.536 9.714)" fill="#fff"/>
          <path id="Trazado_183925" data-name="Trazado 183925" d="M55.9,101.748a.488.488,0,0,1-.253-.072L43.809,94.382a.481.481,0,0,1-.143-.686l41.7-59.807a.482.482,0,0,1,.823.051l2.258,4.3a17.741,17.741,0,0,1,.3,15.831L70.838,91.52a.47.47,0,0,1-.162.189l-14.5,9.954a.48.48,0,0,1-.272.085M44.748,93.828l11.14,6.862,14.136-9.7,17.85-37.331a16.773,16.773,0,0,0-.28-14.968l-1.891-3.6ZM70.4,91.312h0Z" transform="translate(12.429 9.606)"/>
          <path id="Trazado_183926" data-name="Trazado 183926" d="M64.47,166.084l-6.1-10.92L80.191,126.7l4.266,9.778Z" transform="translate(16.648 36.137)"/>
          <path id="Trazado_183927" data-name="Trazado 183927" d="M122.038,88.954,67.294,113.312,54.6,98.971l59.9-28Z" transform="translate(15.574 20.24)" fill="#fff"/>
          <path id="Trazado_183928" data-name="Trazado 183928" d="M67.4,113.9a.48.48,0,0,1-.36-.163L54.351,99.4a.482.482,0,0,1,.157-.756l59.9-28.006a.483.483,0,0,1,.649.251l7.536,17.988a.481.481,0,0,1-.248.626L67.6,113.86a.5.5,0,0,1-.2.041M55.5,99.242l12.027,13.592,53.992-24.023-7.161-17.089Z" transform="translate(15.467 20.133)"/>
          <path id="Trazado_183929" data-name="Trazado 183929" d="M66.309,199.08,107.2,143.591,80.459,130.778l16.714-22.953,37.049,20.855a11.072,11.072,0,0,1,2.916,16.922L80.349,210.779Z" transform="translate(18.912 30.752)" fill="#e8926d"/>
          <path id="Trazado_183930" data-name="Trazado 183930" d="M91.942,137.785l-14.623-7.007,16.713-22.952,6.51,3.664Z" transform="translate(22.052 30.753)"/>
          <path id="Trazado_183931" data-name="Trazado 183931" d="M31.049,112.371c-.855,7.413-.253,11.589,10.7,32.59s28.325,45.175,28.325,45.175l41.5-58.441L69.846,110.784,74.67,32.138S61.4,44.691,53.32,58.949C42.792,77.523,32.763,97.5,31.049,112.371" transform="translate(8.779 9.166)" fill="#fc5f65"/>
          <path id="Trazado_183932" data-name="Trazado 183932" d="M94.562,32.979l-13.2,9.9L71.549,31.552,85.106,20.936Z" transform="translate(20.406 5.971)" fill="#e8926d"/>
          <path id="Trazado_183933" data-name="Trazado 183933" d="M83.081,46.49,60.763,101.881,50.2,96.109l27.78-54.2Z" transform="translate(14.316 11.951)" fill="#fd521b"/>
          <path id="Trazado_183934" data-name="Trazado 183934" d="M95.2,76.638a20.558,20.558,0,0,0,14.7-.317c8.129-3.187,15.1-16.609,15.1-16.609s-20.272,1.364-26.644,4.23-3.156,12.7-3.156,12.7" transform="translate(26.921 17.03)" fill="#e8926d"/>
          <path id="Trazado_183935" data-name="Trazado 183935" d="M95.355,64.154,98.086,63l4.372,13.883-3.605-.2Z" transform="translate(27.196 17.969)"/>
          <path id="Trazado_183936" data-name="Trazado 183936" d="M100.957,69.7,117.14,93.035a.938.938,0,0,0,1.349.2L150.82,67.81a.934.934,0,0,0,.191-1.269L134.827,43.2a.937.937,0,0,0-1.347-.2L101.146,68.427a.937.937,0,0,0-.189,1.268" transform="translate(28.746 12.207)" fill="#5774cd"/>
          <path id="Trazado_183937" data-name="Trazado 183937" d="M116.26,87.28,57.7,117.084A16.055,16.055,0,0,1,36.291,95.139L67.7,37.045A12.39,12.39,0,0,1,88.726,50.158l-27.1,43.781,49.912-25.528Z" transform="translate(9.799 8.911)" fill="#fff"/>
          <path id="Trazado_183938" data-name="Trazado 183938" d="M50.533,119.414a16.534,16.534,0,0,1-14.561-24.4L67.381,36.922a12.871,12.871,0,0,1,21.86,13.595L63.051,92.828l48.374-24.742a.488.488,0,0,1,.419-.009.48.48,0,0,1,.267.321l4.722,18.871a.483.483,0,0,1-.249.546l-58.564,29.8a16.473,16.473,0,0,1-7.486,1.8M78.339,31.829a12.055,12.055,0,0,0-2.249.212,11.786,11.786,0,0,0-7.877,5.367L36.82,95.473A15.574,15.574,0,0,0,57.583,116.76L115.8,87.131l-4.482-17.909L61.951,94.473a.482.482,0,0,1-.63-.682l27.1-43.782a11.978,11.978,0,0,0-3.043-15.84,11.78,11.78,0,0,0-7.04-2.34" transform="translate(9.694 8.805)"/>
          <path id="Trazado_183939" data-name="Trazado 183939" d="M132.53,67.976l-1.861,10.333a2.226,2.226,0,0,1-1,1.481l-.06.039a2.332,2.332,0,0,1-3.586-2.293l1.921-10.373a2.248,2.248,0,0,1,1.376-1.664,2.325,2.325,0,0,1,3.212,2.478" transform="translate(35.931 18.629)" fill="#e8926d"/>
          <path id="Trazado_183940" data-name="Trazado 183940" d="M129.391,70.126l-2.036,11.147a2.379,2.379,0,0,1-1.114,1.594l-.067.041a2.609,2.609,0,0,1-4.011-2.491l2.1-11.188a2.424,2.424,0,0,1,1.529-1.79,2.592,2.592,0,0,1,3.6,2.687" transform="translate(34.83 19.18)" fill="#e8926d"/>
          <path id="Trazado_183941" data-name="Trazado 183941" d="M124.451,74.421,122.944,82.3a1.648,1.648,0,0,1-.86,1.119l-.053.03c-1.482.811-3.458-.311-3.165-1.8l1.559-7.905a1.721,1.721,0,0,1,1.184-1.256c1.481-.509,3.1.591,2.842,1.932" transform="translate(33.893 20.638)" fill="#e8926d"/>
          <path id="Trazado_183942" data-name="Trazado 183942" d="M121.332,77.676l-1.361,6.507a1.355,1.355,0,0,1-.838.914l-.053.022c-1.464.646-3.457-.32-3.192-1.547l1.414-6.529a1.491,1.491,0,0,1,1.161-1.019c1.466-.4,3.1.546,2.87,1.653" transform="translate(33.045 21.656)" fill="#e8926d"/>
          <path id="Trazado_183943" data-name="Trazado 183943" d="M120.028,25.982c2.052-12.4-5.181-23.92-16.158-25.739S82.331,7,80.278,19.4,85.459,43.32,96.436,45.138s21.54-6.759,23.593-19.156" transform="translate(22.797 0)" fill="#e8926d"/>
          <path id="Trazado_183944" data-name="Trazado 183944" d="M89.964,20.068s-2.764,22.307.581,30.2L73.2,31.207l2.775-3.956-5.088,1.412L65.74,23s9.431-5.042,12.6-7.419,15.991-14.1,20.326-14.3S87.757,14.726,87.757,14.726Z" transform="translate(18.75 0.366)" fill="#ffb6c8"/>
          <path id="Trazado_183945" data-name="Trazado 183945" d="M89.276,14.44S96.693,22.825,104.949,12l.132,4.412,6.412,5.05,2.478-5.971-.559,7.553,5.353,6.166s-.523-12.772-2.441-16.78c-1.089-2.275-6.3-7.872-6.3-7.872L98.3,4.364Z" transform="translate(25.462 1.245)" fill="#ffb6c8"/>
          <path id="Trazado_183946" data-name="Trazado 183946" d="M104.921,30.028l3.444,5.055-6.308-1.208Z" transform="translate(29.107 8.564)" fill="#e8926d"/>
          <path id="Trazado_183947" data-name="Trazado 183947" d="M106.281,32.363s5.4-9.992-5.055-14.181c0,0-4.661,14.181,5.055,14.181" transform="translate(28.552 5.186)" fill="#fff"/>
          <path id="Trazado_183948" data-name="Trazado 183948" d="M99.95,36.436a19.094,19.094,0,0,1-3.811.7l1.909-8.459Z" transform="translate(27.42 8.179)" fill="#5774cd"/>
          <path id="Trazado_183949" data-name="Trazado 183949" d="M110.388,11.93l-24.1,4.737-.842-10.62A19.331,19.331,0,0,1,102.3.244c7.135,1.181,12.67,6.476,15.118,13.434Z" transform="translate(24.37 0)" fill="#ffb6c8"/>
          <path id="Trazado_183950" data-name="Trazado 183950" d="M99.65,27.828a5.294,5.294,0,1,0,5.294-5.294,5.294,5.294,0,0,0-5.294,5.294" transform="translate(28.421 6.427)"/>
          <path id="Trazado_183951" data-name="Trazado 183951" d="M109.12,24.163a.585.585,0,0,1-.114-.012.577.577,0,0,1-.452-.68c.35-1.747-2.11-3.982-3.087-4.695a.578.578,0,0,1,.68-.934c.167.123,4.108,3.028,3.539,5.857a.578.578,0,0,1-.565.464" transform="translate(30.012 5.057)"/>
          <path id="Trazado_183952" data-name="Trazado 183952" d="M82.622,11.841c1.3-3.293,4.755-4.812,7.714-3.394a6.741,6.741,0,0,1,3,8.531c-1.3,3.293-4.757,4.813-7.714,3.394a6.74,6.74,0,0,1-3-8.531" transform="translate(23.423 2.258)" fill="#e8926d"/>
          <path id="Trazado_183953" data-name="Trazado 183953" d="M88.137,17.827a.578.578,0,0,1-.574-.524l-.671-7.267a.578.578,0,0,1,.522-.63.586.586,0,0,1,.628.522l.671,7.268a.577.577,0,0,1-.522.628l-.054,0" transform="translate(24.781 2.682)"/>
          <path id="Trazado_183954" data-name="Trazado 183954" d="M84.716,14.647a.577.577,0,0,1-.012-1.154l3.886-.082a.545.545,0,0,1,.59.565.579.579,0,0,1-.565.59l-3.888.081Z" transform="translate(23.997 3.824)"/>
          <path id="Trazado_183955" data-name="Trazado 183955" d="M115.422,214.867l11.077,25.2-14.1,4.479L99.417,221.473Z" transform="translate(28.354 61.281)" fill="#d7e5ff"/>
          <path id="Trazado_183956" data-name="Trazado 183956" d="M64.935,184.171l14.41-19.554,14.971,14.119L79.463,195.781Z" transform="translate(18.52 46.95)" fill="#d7e5ff"/>
          <path id="Trazado_183957" data-name="Trazado 183957" d="M106.835,237.752l3.344,13.006-3.408,17.366h48.563l.876-5.863a4.322,4.322,0,0,0-3.663-4.951c-6.52-.891-18.535-3.644-23.141-12.01-.832-1.51-.532-13.107-.532-13.107Z" transform="translate(30.452 66.223)" fill="#ffd947"/>
          <path id="Trazado_183958" data-name="Trazado 183958" d="M71.424,178.408a.474.474,0,0,1-.285-.094.482.482,0,0,1-.1-.675l19.218-26.078a.482.482,0,1,1,.776.573L71.812,178.214a.484.484,0,0,1-.388.194" transform="translate(20.233 43.17)"/>
          <path id="Trazado_183959" data-name="Trazado 183959" d="M80.517,189.249a.481.481,0,0,1-.364-.8l17.178-19.715a.482.482,0,1,1,.727.632L80.881,189.083a.485.485,0,0,1-.364.166" transform="translate(22.827 48.077)"/>
          <path id="Trazado_183960" data-name="Trazado 183960" d="M71.479,174.958l-7.724,13.206-12.492,5.075,22.279,44.735,4.929-1.536A4.3,4.3,0,0,0,81.294,231c-2.054-6.219-7.981-21.3-2.515-29.077.986-1.4,8.957-11.78,8.957-11.78Z" transform="translate(14.621 49.899)" fill="#ffd947"/>
          <path id="Trazado_183961" data-name="Trazado 183961" d="M155.8,257.859H107.418a.427.427,0,1,1,0-.853H155.8a.427.427,0,1,1,0,.853" transform="translate(30.515 73.3)"/>
          <path id="Trazado_183962" data-name="Trazado 183962" d="M75.658,233.894a.424.424,0,0,1-.386-.247L54.249,188.123a.424.424,0,1,1,.77-.356l21.025,45.525a.426.426,0,0,1-.208.564.432.432,0,0,1-.177.039" transform="translate(15.461 53.482)"/>
          <path id="Trazado_183963" data-name="Trazado 183963" d="M59,203.052a.424.424,0,0,1-.352-.661L74.5,178.784a.424.424,0,1,1,.7.473L59.347,202.865a.423.423,0,0,1-.352.188" transform="translate(16.705 50.937)"/>
          <path id="Trazado_183964" data-name="Trazado 183964" d="M117.51,264.21a.427.427,0,0,1-.42-.356l-4.862-28.616a.426.426,0,0,1,.348-.492.431.431,0,0,1,.492.35l4.863,28.618a.428.428,0,0,1-.35.492.679.679,0,0,1-.072.005" transform="translate(32.006 66.95)"/>
          <path id="Trazado_183965" data-name="Trazado 183965" d="M133.121,66.183a.48.48,0,0,1-.4-.213l-9.6-14.32a.482.482,0,0,1,.8-.537l9.6,14.32a.484.484,0,0,1-.132.67.476.476,0,0,1-.267.081" transform="translate(35.092 14.517)" fill="#ffb6c8"/>
          <path id="Trazado_183966" data-name="Trazado 183966" d="M130.786,68.209a.481.481,0,0,1-.4-.213l-9.6-14.318a.482.482,0,1,1,.8-.537l9.6,14.318a.484.484,0,0,1-.132.67.476.476,0,0,1-.267.081" transform="translate(34.426 15.095)" fill="#ffb6c8"/>
          <path id="Trazado_183967" data-name="Trazado 183967" d="M115.293,79.008a.482.482,0,0,1-.4-.207L106.6,66.838a.482.482,0,1,1,.792-.549l8.3,11.961a.482.482,0,0,1-.122.671.47.47,0,0,1-.274.086" transform="translate(30.379 18.847)" fill="#ffb6c8"/>
          <path id="Trazado_183968" data-name="Trazado 183968" d="M19.676,99.851s48.749,25.41,47.424,61.106l-21.313-2.128a36.072,36.072,0,0,1-31.211-26.383l-1.767-6.462Z" transform="translate(3.653 28.478)" fill="#e1e8ff"/>
          <path id="Trazado_183969" data-name="Trazado 183969" d="M65.541,162.235a1.075,1.075,0,0,0,1.348-1c.554-14.925-7.6-30.409-23.571-44.779A134.167,134.167,0,0,0,18.888,99.136a1.075,1.075,0,0,0-.993,1.906c.482.251,48.132,25.513,46.847,60.114a1.075,1.075,0,0,0,.8,1.08" transform="translate(4.939 28.24)" fill="#5774cd"/>
        </g>
      </g>
    </g>
  </g>
</svg>
