<svg xmlns="http://www.w3.org/2000/svg" xmlns:xlink="http://www.w3.org/1999/xlink" width="264.544" height="223.914" viewBox="0 0 264.544 223.914">
  <defs>
    <clipPath id="clip-path">
      <rect id="Rect치ngulo_338256" data-name="Rect치ngulo 338256" width="264.543" height="223.914" rx="11" fill="#c4d1ff"/>
    </clipPath>
    <clipPath id="clip-path-2">
      <rect id="Rect치ngulo_338255" data-name="Rect치ngulo 338255" width="250.78" height="555.102" transform="translate(0 0)" fill="none"/>
    </clipPath>
  </defs>
  <g id="Grupo_984299" data-name="Grupo 984299" transform="translate(0)">
    <path id="Trazado_204386" data-name="Trazado 204386" d="M9.932,0h244.68a9.932,9.932,0,0,1,9.932,9.932v204.05a9.932,9.932,0,0,1-9.932,9.932H9.932A9.932,9.932,0,0,1,0,213.982V9.932A9.932,9.932,0,0,1,9.932,0Z" transform="translate(0)" fill="#fed947"/>
    <g id="Enmascarar_grupo_418" data-name="Enmascarar grupo 418" transform="translate(0.001)" clip-path="url(#clip-path)">
      <g id="Grupo_982373" data-name="Grupo 982373" transform="translate(6.881 7.223)">
        <g id="Grupo_982373-2" data-name="Grupo 982373" transform="translate(0 0)" clip-path="url(#clip-path-2)">
          <path id="Trazado_204254" data-name="Trazado 204254" d="M92.679,314.779c-1.5-3.62-4.071-9.773-23.725-29.843-14.743-15.055-44.7-40.449-52.382-39.509s-21.8,24.8-4.949,48.338,56.11,41.67,62.427,42.147,24.245-7.577,18.629-21.132" transform="translate(155.635 -153.217)" fill="#543139"/>
          <path id="Trazado_204255" data-name="Trazado 204255" d="M96.861,366.951a37.687,37.687,0,0,0-5,.444,10.848,10.848,0,0,0-4.6,1.615c-.633.458-1.239-.594-.612-1.047a11.608,11.608,0,0,1,4.888-1.737,40.15,40.15,0,0,1,5.326-.487c.781-.027.779,1.186,0,1.213" transform="translate(120.884 -228.349)" fill="#381b21"/>
          <path id="Trazado_204256" data-name="Trazado 204256" d="M133.133,1200.623c-.533,3.484,30.6,16.306,60.615,12.186,30.947-4.248,47.265-2.9,67.27-5.822s45.632-.983,39.367-11.53-165.557-5.908-167.252,5.166" transform="translate(-100.576 -742.681)" fill="#e85f62"/>
          <path id="Trazado_204257" data-name="Trazado 204257" d="M325.448,1345.665c-1.461,1.445-.529,16.5-.379,20.176.079,2.1-.426,4.714,3.846,5.646,1.761.387,3.467,1,3.467-.813l.964,1.224a46.436,46.436,0,0,1,3.577,5.244c2.258,3.909,7.889,12.106,16.742,15.067,8.347,2.787,16.828.64,20.279-.332a2.337,2.337,0,0,0,1.705-2.18l-.648-5.141c-.237-.956-8.371-7.336-16.156-17.1-11.04-13.835-23.809-31.247-33.4-21.787" transform="translate(-246.818 -838.483)" fill="#290d14"/>
          <path id="Trazado_204258" data-name="Trazado 204258" d="M83.628,1251.171c-.775,5.511-1.139,11.078,1.325,13.02,4.639,3.658,7.138-.46,7.138-.46s.913-3.267,1.723-.556a27.64,27.64,0,0,0,3.13,6.719c3.891,4.715,9.313,10.8,13.212,13.157.11.062.219.13.323.185s.213.117.316.172c6.63,3.432,21,5.539,27.632,2.793.083-.034.165-.069.247-.11.158-.069.316-.144.453-.22,2.066-1.112,2.306-2.67,2.354-4.441.1-3.747-4.743-7.2-7.859-9.464-8.84-6.4-14.873-13.267-17.618-23.562s-4.319-60.818-4.319-60.818l-6.194-5.313c-13.38-1.878-20.267,8.75-22.786,10.123s1.5,42.048,2.249,46.852a20.774,20.774,0,0,1-.316,5.264c-.22,1.544-.5,3.26-.769,5.017,0,.02-.007.041-.007.062-.075.535-.158,1.064-.233,1.578" transform="translate(78.538 -738.015)" fill="#543139"/>
          <path id="Trazado_204259" data-name="Trazado 204259" d="M84.326,1379.417c8.541,2.288,10.524-.5,10.524-.5s-2.869-6.194-2.059-3.483a27.646,27.646,0,0,0,3.13,6.719,43.014,43.014,0,0,0,13.212,13.157c.11.062.219.13.323.186s.213.116.316.171c6.63,3.432,21,5.539,27.632,2.793.083-.034.165-.068.247-.11.158-.068.309-.144.453-.219.168-.09.319-.184.463-.28a3.7,3.7,0,0,0,1.891-4.16,22.171,22.171,0,0,1-13.349,2.429c-17.337-1.826-24.482-10.151-27.68-15.552-4.235-7.152-6.863-12.127-8.359-14.852-.933-1.709-8.229-2.457-8.229-3.864-.075.535-.158,1.064-.233,1.578-.933,6.006-2.24,14.931,1.72,15.992" transform="translate(79.561 -850.269)" fill="#381b21"/>
          <path id="Trazado_204260" data-name="Trazado 204260" d="M223.458,1288.259a45.446,45.446,0,0,1,.3,7.273,15.823,15.823,0,0,1-2.146,6.655.607.607,0,0,1-1.047-.612,14.485,14.485,0,0,0,2.007-6.42,50.03,50.03,0,0,0-.327-6.9c-.062-.778,1.151-.774,1.213,0" transform="translate(-55.866 -803.961)" fill="#381b21"/>
          <path id="Trazado_204261" data-name="Trazado 204261" d="M141.4,1394.524a12.808,12.808,0,0,0-8.215,2.223c-.645.443-1.252-.607-.612-1.047a13.878,13.878,0,0,1,8.827-2.389c.773.057.78,1.27,0,1.213" transform="translate(59.098 -869.891)" fill="#381b21"/>
          <path id="Trazado_204262" data-name="Trazado 204262" d="M358.82,1200.979c-3.169,21.539-3.817,56.187-1.974,59.872s5.868,15.486,16.219,25.621c3.859,3.778,7.646,11.231,2.369,12.827-6.931,2.1-23.119,2.124-32.013-11.247a252.27,252.27,0,0,1-14.363-23.992,15.644,15.644,0,0,1-1.63-8.362,13.3,13.3,0,0,0-.006-2.392c-.284-2.632-2.651-42.293-1.03-45.708s33.339-12.812,32.427-6.617" transform="translate(-249.648 -748.543)" fill="#543139"/>
          <path id="Trazado_204263" data-name="Trazado 204263" d="M302.32,700.386c1.225,3.167,6.763,112.847,1.828,114.426s-50.2-10-83.9,3.685-74.177,8.566-84.1-2.738c-16.221-18.476,4.841-30.164,12.094-62.936s35.166-180.775,50.953-180.739,72.309-4.1,80.11,12.183,19.279,106.457,23.016,116.12" transform="translate(-104.275 -356.904)" fill="#e85f62"/>
          <path id="Trazado_204264" data-name="Trazado 204264" d="M290.229,1209.187a127.671,127.671,0,0,0-22.819,3.534c-6.522,1.5-13.014,3.144-19.515,4.733l-10.341,2.527c-.758.185-1.081-.984-.322-1.169l17.857-4.364c7.386-1.8,14.764-3.708,22.26-5.007a103.1,103.1,0,0,1,12.88-1.467c.78-.036.778,1.177,0,1.213" transform="translate(-128.988 -754.199)" fill="#c23e41"/>
          <path id="Trazado_204265" data-name="Trazado 204265" d="M245.671,829.1a58.05,58.05,0,0,0,.965,6.084c.623,3.306,1.307,6.6,2,9.892,1.6,7.57,3.3,15.12,5,22.668,1.4,6.208,3,12.419,3.859,18.731,1.581,11.682.721,23.413-.556,35.077-1.291,11.8-2.745,23.611-2.2,35.508q.112,2.412.326,4.816c.068.777-1.145.772-1.213,0-1.065-12.076.06-24.107,1.4-36.111,1.3-11.6,2.554-23.253,1.515-34.927-.623-7-2.28-13.8-3.824-20.632-1.685-7.46-3.363-14.921-4.968-22.4-1.252-5.835-2.642-11.706-3.41-17.63-.047-.358-.089-.717-.117-1.077-.062-.778,1.151-.774,1.213,0" transform="translate(-99.406 -517.285)" fill="#c23e41"/>
          <path id="Trazado_204266" data-name="Trazado 204266" d="M227.932,615.538a299.646,299.646,0,0,1,7.552,44.14c1.246,12.358,1.864,24.769,3.085,37.129a176.1,176.1,0,0,0,2.6,18.093c.156.761-1.012,1.087-1.169.322-2.259-11.008-3.054-22.266-3.89-33.452-1-13.425-2.052-26.849-4.108-40.163q-2.006-12.99-5.237-25.747a.607.607,0,0,1,1.169-.322" transform="translate(-75.577 -384.042)" fill="#c23e41"/>
          <path id="Trazado_204267" data-name="Trazado 204267" d="M387.73,1164.788c1.108-10.5,7.58-19.3,9.9-29.458a25.851,25.851,0,0,0,.568-8.589c-.085-.775,1.128-.769,1.213,0,1.155,10.542-5.042,19.9-8.4,29.448a38.09,38.09,0,0,0-2.066,8.6c-.081.768-1.294.777-1.213,0" transform="translate(-294.421 -703.12)" fill="#c23e41"/>
          <path id="Trazado_204268" data-name="Trazado 204268" d="M295.39,627.288a59.381,59.381,0,0,0-.951,9.119c-.2,4.137-.251,8.282-.255,12.423-.01,8.775.222,17.547.289,26.321.027,3.575.064,7.162-.152,10.732-.047.775-1.26.781-1.213,0,.439-7.265.115-14.6.005-21.868-.133-8.81-.309-17.638.06-26.444a65.937,65.937,0,0,1,1.047-10.605c.159-.764,1.328-.441,1.169.322" transform="translate(-154.673 -391.174)" fill="#c23e41"/>
          <path id="Trazado_204269" data-name="Trazado 204269" d="M146.157,1126.384a139.608,139.608,0,0,0-4.278-22.859.607.607,0,0,1,1.169-.322,141.531,141.531,0,0,1,4.321,23.181c.079.776-1.134.77-1.213,0" transform="translate(50.119 -688.518)" fill="#c23e41"/>
          <path id="Trazado_204270" data-name="Trazado 204270" d="M514.753,1118.791q-3.941,14.956-7.884,29.912l-2.269,8.609a.607.607,0,0,1-1.169-.322l7.884-29.912,2.269-8.609a.607.607,0,0,1,1.169.322" transform="translate(-453.101 -698.048)" fill="#c23e41"/>
          <path id="Trazado_204271" data-name="Trazado 204271" d="M470.5,554.859l2.979,3.131,3.184-5.8-3.217-2.054a1.42,1.42,0,0,0-2.059.612l-1.152,2.547a1.421,1.421,0,0,0,.265,1.565" transform="translate(-402.473 -343.338)" fill="#543139"/>
          <path id="Trazado_204272" data-name="Trazado 204272" d="M329.956,210.086c.024-2.633-1.367-9.869-20.03-13.2-14.1-2.519-27.954-5.708-33.92,7.855-2.634,5.989,5.411,25.571,18.426,27.417,12.974,1.84,35.36-3.833,35.525-22.069" transform="translate(-182.671 -121.527)" fill="#543139"/>
          <path id="Trazado_204273" data-name="Trazado 204273" d="M265.36,226.86c1.7,1.288,31.42,31.69,30.367,48.991s-2.412,83-3.816,85.213-49.936,6.666-60.42-1.757-20.366-39.2-19.3-52.5S227.1,228.667,228.2,226.86c6-9.835,32.127-3.817,37.157,0" transform="translate(-124.654 -138.302)" fill="#fce0d9"/>
          <path id="Trazado_204274" data-name="Trazado 204274" d="M242.751,568.438a34.443,34.443,0,0,1-11.968-7.787,53.857,53.857,0,0,1-8.571-11.578.607.607,0,0,1,1.047-.612c4.645,8.114,10.879,15.385,19.814,18.808.721.277.408,1.449-.322,1.169" transform="translate(-76.145 -342.248)" fill="#edb1a6"/>
          <path id="Trazado_204275" data-name="Trazado 204275" d="M335.1,447.881a147.812,147.812,0,0,1-6.426,25.259c-.257.731-1.429.417-1.169-.322a147.889,147.889,0,0,0,6.426-25.259c.125-.768,1.293-.443,1.169.322" transform="translate(-207.348 -279.16)" fill="#edb1a6"/>
          <path id="Trazado_204276" data-name="Trazado 204276" d="M370.23,213.2s5.531,5.823,10.491,29.294,6.743,191.583,11.993,221.766,19.35,81.771,4.173,83.14c-13.576,1.224-85.8,11.376-101.623-2.066-7.767-6.6,23.5-156.531,28.705-171.974s7.683-50.976,11.544-69.8-14.644-63.114-10.433-73.053,54.654-27.776,45.149-17.306" transform="translate(-263.393 -131.124)" fill="#543139"/>
          <path id="Trazado_204277" data-name="Trazado 204277" d="M498.64,621.206c-.766,13.839-4.759,27.184-8.054,40.566A69.3,69.3,0,0,0,488.866,672c-.31,3.335-.462,6.688-.908,10.01a53.163,53.163,0,0,1-3.91,13.774c-.979,2.309-2.006,4.6-2.887,6.946A70.129,70.129,0,0,0,478.4,712.1c-.17.761-1.339.439-1.169-.322a82.227,82.227,0,0,1,4.962-14.721,58.58,58.58,0,0,0,4.236-13.032c1.16-6.542.94-13.248,2.325-19.763,1.43-6.729,3.4-13.347,4.981-20.042a132.262,132.262,0,0,0,3.7-23.014c.043-.776,1.256-.781,1.212,0" transform="translate(-427.126 -387.486)" fill="#381b21"/>
          <path id="Trazado_204278" data-name="Trazado 204278" d="M379.68,324.675c-1.3-10.271-4.249-20.24-7.521-30.034-1.647-4.93-3.381-9.832-5.047-14.755-.825-2.438-1.634-4.882-2.408-7.336-.634-2.01-1.17-4.051-1.959-6.008-1.022-2.535-3.325-7.443.195-9.09,2.349-1.1,5.287-1.187,7.348-2.874a1.856,1.856,0,0,0,.215-2.818,24.636,24.636,0,0,0-4.62-4.564,108.358,108.358,0,0,0-11.115-7.278c-1.854-1.152-3.683-2.348-5.417-3.675a8.715,8.715,0,0,1-2.177-2.05,5.547,5.547,0,0,1-.81-2.633c-.319-4.582,3.282-7.507,6.088-10.553.268-.292.536-.584.8-.884.51-.592,1.365.269.857.857-2.366,2.745-5.737,5.077-6.428,8.847a5.882,5.882,0,0,0,.128,2.886,4.926,4.926,0,0,0,1.9,2.287,62,62,0,0,0,5.468,3.745c3.645,2.273,7.411,4.376,10.818,7.007a32.826,32.826,0,0,1,4.787,4.446c.878,1.012,1.823,2.267,1.427,3.691-.664,2.388-4.124,3.185-6.16,3.787-1.195.353-3.181.63-3.627,1.956-.524,1.557.3,3.521.849,4.965.642,1.7,1.286,3.347,1.814,5.086.733,2.417,1.507,4.821,2.3,7.218,1.623,4.889,3.339,9.748,5,14.625,3.284,9.655,6.367,19.435,7.989,29.527q.29,1.807.518,3.623c.1.772-1.116.765-1.213,0" transform="translate(-260.223 -137.309)" fill="#381b21"/>
          <path id="Trazado_204279" data-name="Trazado 204279" d="M381.322,202.925c0,.719,0,1.437,0,2.156a9.024,9.024,0,0,0,.149,2.015,13.872,13.872,0,0,0,.659,1.79,3.78,3.78,0,0,1,.244,1.917.611.611,0,0,1-.746.424.623.623,0,0,1-.423-.746,3.288,3.288,0,0,0-.39-1.634A7.961,7.961,0,0,1,380.22,207a26.73,26.73,0,0,1-.11-4.079.607.607,0,0,1,1.213,0" transform="translate(-274.405 -126.331)" fill="#381b21"/>
          <path id="Trazado_204280" data-name="Trazado 204280" d="M450.722,549.771c.641.293,1.158.6,1.305,1.338a10.375,10.375,0,0,1-.1,2.844,46.019,46.019,0,0,1-.961,5.915c-.451,1.993-1.01,3.961-1.618,5.911a4.62,4.62,0,0,1-.924,2.123c-.629.556-1.63.412-2.4.43-1.376.032-3.367.4-4.52-.589a2.721,2.721,0,0,1-.787-1.953c-.1-.862-.144-1.729-.158-2.6a36.1,36.1,0,0,1,1.427-10.571c.269-.928.579-1.845.937-2.742.292-.732.51-1.531,1.421-1.6a11,11,0,0,1,3.133.384,17.989,17.989,0,0,1,3.247,1.11c.713.314.1,1.359-.612,1.047a15.223,15.223,0,0,0-4.683-1.271c-.2-.018-.882-.166-1.036-.057-.193.137-.348.832-.429,1.043q-.368.958-.668,1.94a35.19,35.19,0,0,0-1.485,8.5,31.052,31.052,0,0,0,.051,4.121c.051.627-.009,1.521.634,1.85a3.926,3.926,0,0,0,1.851.21c.791-.017,1.582-.036,2.373-.055.352-.008.774.06,1-.26a4.858,4.858,0,0,0,.42-1.251c.483-1.543.936-3.1,1.33-4.663a49.621,49.621,0,0,0,1.063-5.358q.188-1.373.273-2.758a5.99,5.99,0,0,0,.051-1.355c-.074-.406-.391-.478-.742-.639-.708-.325-.093-1.37.612-1.047" transform="translate(-366.813 -342.308)" fill="#381b21"/>
          <path id="Trazado_204281" data-name="Trazado 204281" d="M473.093,550.743c-2.379-1.551-4.856-2.95-7.235-4.5-.651-.424-.044-1.475.612-1.047,2.379,1.551,4.855,2.95,7.235,4.5.651.424.044,1.475-.612,1.047" transform="translate(-398.099 -340.33)" fill="#381b21"/>
          <path id="Trazado_204282" data-name="Trazado 204282" d="M476.253,566.946a15.494,15.494,0,0,1-4.223-2.468,19.9,19.9,0,0,1-2.054-1.758,6.8,6.8,0,0,1-1.346-1.733c-.342-.7.7-1.314,1.047-.612a5.621,5.621,0,0,0,1.156,1.488,17.844,17.844,0,0,0,1.887,1.628,15,15,0,0,0,3.856,2.286c.735.25.42,1.421-.323,1.169" transform="translate(-402.229 -349.677)" fill="#381b21"/>
          <path id="Trazado_204283" data-name="Trazado 204283" d="M398.027,681.715q.9,16.144,1.8,32.288l.445,8c.139,2.506.427,5.053.389,7.562-.029,1.921-.7,3.708-2.7,4.279a23.445,23.445,0,0,1-3.26.521q-1.718.234-3.439.437c-9.173,1.071-18.684,1.379-27.67-1.1a42.241,42.241,0,0,1-6.465-2.356c-1.876-.865-3.868-1.792-4.7-3.818s-.452-4.375-.294-6.492l.6-7.984q1.2-16.042,2.4-32.084l.3-4.067a.615.615,0,0,1,.767-.584,129.094,129.094,0,0,0,31.09,4.7q4.5.124,9.009-.068c.781-.032.779,1.18,0,1.213a130.481,130.481,0,0,1-31.666-2.555q-4.414-.908-8.756-2.122l.767-.585q-1.149,15.364-2.3,30.728c-.382,5.1-.789,10.194-1.144,15.293-.14,2.008-.211,4.317,1.505,5.707a13.763,13.763,0,0,0,2.906,1.614q1.517.706,3.094,1.273c8.442,3.055,17.6,3.245,26.456,2.486,2.244-.193,4.483-.448,6.716-.745,1.13-.15,2.288-.259,3.4-.5a2.386,2.386,0,0,0,2.016-1.866,10.292,10.292,0,0,0,.082-3.006q-.1-1.886-.21-3.772-.214-3.848-.429-7.695-.856-15.389-1.713-30.779l-.219-3.923c-.043-.78,1.169-.777,1.213,0" transform="translate(-282.079 -422.244)" fill="#381b21"/>
          <path id="Trazado_204284" data-name="Trazado 204284" d="M401.516,723.377a89.45,89.45,0,0,1-17.278.708,122.667,122.667,0,0,1-16.9-2.325c-3.225-.643-6.434-1.364-9.639-2.1-.76-.174-.438-1.344.322-1.169,11.011,2.524,22.111,4.781,33.465,4.5a87.8,87.8,0,0,0,9.711-.782c.763-.1,1.093,1.064.322,1.169" transform="translate(-285.38 -448.58)" fill="#381b21"/>
          <path id="Trazado_204285" data-name="Trazado 204285" d="M394.015,575.963a92.863,92.863,0,0,1,18.426,66.547c-1.128,9.723-3.8,19.205-5.207,28.893a112,112,0,0,0,1.159,38.666l-6.067,4.214c-1.35-20.442-2.686-41.133,1-61.285,1.355-7.4,3.388-14.745,3.542-22.271a89.962,89.962,0,0,0-1.09-13.534c-1.643-12.5-3.822-26.072-13.085-34.621Z" transform="translate(-309.768 -359.603)" fill="#543139"/>
          <path id="Trazado_204286" data-name="Trazado 204286" d="M392.915,574.373c6.448,4.839,10.744,11.9,13.643,19.313a90.09,90.09,0,0,1,5.542,26.463A116.622,116.622,0,0,1,410.5,649c-1.084,6.023-2.49,11.984-3.534,18.014a61.424,61.424,0,0,0-1.018,9.127,53.849,53.849,0,0,0,.518,8.518c.773,5.623,2.248,11.118,3.524,16.64a10.208,10.208,0,0,1,.549,3.818,4.294,4.294,0,0,1-1.763,2.727c-1.846,1.441-3.663,2.919-5.511,4.357-.672.523-1.344,1.046-2.041,1.534a.612.612,0,0,1-.912-.523c-.715-10.828-1.424-21.668-1.389-32.525a164.061,164.061,0,0,1,3.018-32.052,141.314,141.314,0,0,0,2.732-15.662,74.2,74.2,0,0,0-.811-16.119c-1.118-8.536-2.3-17.366-6.036-25.221a34.95,34.95,0,0,0-3.145-5.377,28.475,28.475,0,0,0-1.967-2.445q-.5-.554-1.024-1.082c-.305-.306-.931-.7-1-1.149a2.575,2.575,0,0,1,.123-.8l.33-1.653q.37-1.849.739-3.7l.139-.7c.153-.764,1.322-.441,1.169.323l-1.32,6.608-.156-.59c5.523,5.139,8.631,12.158,10.489,19.355a106.03,106.03,0,0,1,2.146,11.129c.637,4.34,1.266,8.708,1.576,13.085a58.961,58.961,0,0,1-.745,13.792c-.769,4.675-1.887,9.284-2.729,13.946a162.753,162.753,0,0,0-2.317,28.6c-.021,10.758.682,21.5,1.39,32.229l-.912-.524c1.678-1.175,3.26-2.5,4.862-3.77.866-.689,1.737-1.37,2.6-2.057a3.068,3.068,0,0,0,1.186-3.287c-1.161-5.472-2.692-10.859-3.626-16.379a54.655,54.655,0,0,1-.489-16.361c.791-5.948,2.149-11.809,3.326-17.687a132.751,132.751,0,0,0,2.367-16.05,116.68,116.68,0,0,0,.246-13.2,95.957,95.957,0,0,0-4.434-26.365c-2.484-7.545-6.27-14.977-12.235-20.368q-1.02-.921-2.119-1.749c-.617-.463-.013-1.516.612-1.047" transform="translate(-308.362 -358.537)" fill="#381b21"/>
          <path id="Trazado_204287" data-name="Trazado 204287" d="M440.609,458.212a92.151,92.151,0,0,1-4.587,14.919,21.871,21.871,0,0,1-3.115,6.039c-1.214,1.446-3.392,2.371-3.9,4.308a.607.607,0,0,1-1.169-.322c.5-1.876,2.162-2.853,3.5-4.094,1.772-1.643,2.636-4.064,3.52-6.253a92.15,92.15,0,0,0,4.586-14.918c.166-.762,1.335-.44,1.169.322" transform="translate(-350.553 -285.612)" fill="#381b21"/>
          <path id="Trazado_204288" data-name="Trazado 204288" d="M144.15,616.5c0,1.562-5.394,4.479-5.394,4.479s-2.452-23.325-1.662-36.814-5.874-31.725-12.676-38.532-.572-15.513-.572-15.513,8.055,11.075,16.048,24.5,4.257,44.49,4.257,61.881" transform="translate(60.214 -330.98)" fill="#543139"/>
          <path id="Trazado_204289" data-name="Trazado 204289" d="M118.983,301.862c-1.737,26.857,17.854,125.566,16.1,153.078-1.177,18.518-.75,37.2-.261,55.735.182,6.949.679,13.89,1.042,20.831.308,5.907-.158,13.946,5.125,17.949,3.293,2.5,8.141,2.543,12.082,2.732,5.567.276,11.04.427,16.717.411a8.836,8.836,0,0,0,6.823-3.862c7.02-12.287-14.562-153.584-17.018-173.617s-8.07-27.268-9.128-39.965c-.94-11.371-10.25-57.307-2.1-90.268,1.524-6.183-2.851-14.546-8.173-16.694-8.276-3.332-24.993-8.229-34.106-10.329a.336.336,0,0,0-.087-.016l-1.705,8.173c5.441,5.283,18.5,16.907,14.688,75.84" transform="translate(33.59 -136.014)" fill="#543139"/>
          <path id="Trazado_204290" data-name="Trazado 204290" d="M221.573,222.861c2.613,1.877,5.119,3.9,7.661,5.868,1.251.97,2.525,1.9,3.8,2.845a4.026,4.026,0,0,1,1.979,2.891.614.614,0,0,1-.445.585,31.123,31.123,0,0,0-5.593,2.4,8.956,8.956,0,0,0-3.6,3.145c-1.991,3.513,2.235,6.221,4.835,7.651,3.156,1.736,6.587,3,9.475,5.2a8.629,8.629,0,0,1,3.056,3.577,10.585,10.585,0,0,1,.1,5.288,65.158,65.158,0,0,1-3.252,11.562,72.766,72.766,0,0,0-2.928,10.735c-1.212,6.726-1.258,13.6-2.162,20.369-.451,3.375-1.135,6.711-1.687,10.07a39.474,39.474,0,0,0-.8,9.943c.073.776-1.14.772-1.213,0a36.829,36.829,0,0,1,.627-8.906c.462-3.018,1.066-6.012,1.553-9.026,1.107-6.855,1.164-13.819,2.171-20.684a64.136,64.136,0,0,1,2.638-10.966,103.859,103.859,0,0,0,3.54-11.5c.393-1.882.933-4.194.4-6.094-.5-1.793-2.2-3.062-3.675-4.048-3.011-2.009-6.457-3.226-9.547-5.1-2.965-1.8-6.3-4.969-4.18-8.682a9.957,9.957,0,0,1,3.838-3.472,32.109,32.109,0,0,1,6.076-2.627l-.445.585c-.09-1.281-1.736-2.093-2.646-2.765-1.086-.8-2.156-1.629-3.222-2.459-2.308-1.8-4.593-3.626-6.969-5.332-.628-.451-.024-1.5.612-1.047" transform="translate(-75.257 -139.074)" fill="#381b21"/>
          <path id="Trazado_204291" data-name="Trazado 204291" d="M195.123,302.876c.794,7.454,1.027,14.982,1.268,22.471.025.78-1.187.779-1.213,0-.241-7.489-.474-15.017-1.268-22.471-.083-.775,1.131-.769,1.213,0" transform="translate(-18.452 -188.739)" fill="#381b21"/>
          <path id="Trazado_204292" data-name="Trazado 204292" d="M164.939,557.21c-.857-3.84-2.444-7.395-3.638-11.13-.559-1.749-1.392-3.432-1.846-5.212a13.2,13.2,0,0,1,.119-5.635c.139-.767,1.307-.442,1.169.322a11.375,11.375,0,0,0,0,5.43c.551,1.8,1.326,3.529,1.9,5.327.548,1.731,1.2,3.413,1.856,5.105a38.164,38.164,0,0,1,1.609,5.471c.169.76-1,1.085-1.169.322" transform="translate(24.852 -333.899)" fill="#381b21"/>
          <path id="Trazado_204293" data-name="Trazado 204293" d="M197.5,493.509c.515-2.053-1.027-4.163-1.856-5.946q-1.265-2.723-2.3-5.546a70.218,70.218,0,0,1-3.178-11.818c-.136-.763,1.032-1.091,1.169-.322a70.351,70.351,0,0,0,3.371,12.34q1.146,3.056,2.582,5.991c.865,1.769,1.888,3.6,1.379,5.623a.607.607,0,0,1-1.169-.322" transform="translate(-19.455 -293.095)" fill="#381b21"/>
          <path id="Trazado_204294" data-name="Trazado 204294" d="M160.953,681.182c-3.8-.231-7.6.175-11.4.152-.858,0-1.529-.276-1.8.647a6.876,6.876,0,0,0-.076,2.484,37.839,37.839,0,0,0,1.057,5.5c.13.531.217,1.654.663,1.916a3.787,3.787,0,0,0,1.892.1c.939-.048,1.882-.05,2.822-.078,3.223-.1,6.434.2,9.652.114a.607.607,0,0,1,0,1.213c-3.218.083-6.429-.213-9.652-.114-.94.029-1.883.03-2.822.078a5.874,5.874,0,0,1-2.212-.14c-1.082-.373-1.165-1.322-1.394-2.282a49.277,49.277,0,0,1-1.182-5.939c-.153-1.365-.435-4.021,1.25-4.626a7.382,7.382,0,0,1,2.371-.085c1.154-.006,2.307-.046,3.46-.091,2.453-.095,4.908-.211,7.362-.062.775.047.781,1.26,0,1.213" transform="translate(31.431 -424.494)" fill="#381b21"/>
          <path id="Trazado_204295" data-name="Trazado 204295" d="M137.562,712.789a108.1,108.1,0,0,1,4.5,20.925,102.876,102.876,0,0,1,.639,10.635q.021,2.662-.1,5.323c-.065,1.485-.469,3.359.7,4.528a6.826,6.826,0,0,0,3.8,1.522,28.688,28.688,0,0,0,4.812.248.607.607,0,0,1,0,1.213c-2.695.032-5.741.043-8.2-1.22a4.2,4.2,0,0,1-2.329-2.91,23.379,23.379,0,0,1,.059-4.962,102.724,102.724,0,0,0-1.849-22.512,109.137,109.137,0,0,0-3.209-12.466c-.239-.745.932-1.064,1.169-.322" transform="translate(47.05 -444.767)" fill="#381b21"/>
          <path id="Trazado_204296" data-name="Trazado 204296" d="M137.244,717.508c.453,2.583.572,5.249.779,7.859.27,3.4.5,6.8.73,10.207.054.779-1.159.776-1.213,0-.231-3.344-.452-6.688-.716-10.029-.2-2.56-.305-5.182-.75-7.714-.134-.763,1.035-1.091,1.169-.322" transform="translate(60.912 -447.703)" fill="#381b21"/>
          <path id="Trazado_204297" data-name="Trazado 204297" d="M320.92,230.162s-.023-6.25-1.265-8.081c-2.589-3.811-30.679-11.565-32.948-3.5,0,0,2.489,7.106,5.352,8.943,7.86,5.044,25.625,6.059,28.861,2.64" transform="translate(-177.842 -134.267)" fill="#fce0d9"/>
          <path id="Trazado_204298" data-name="Trazado 204298" d="M312.278,257.788a13.062,13.062,0,0,1-1.329,6.327,9.146,9.146,0,0,1-3.7,3.487c-4.1,2.249-8.8,2.5-13.377,2.04a37.1,37.1,0,0,1-8.117-1.675c-.736-.248-.42-1.419.322-1.169a35.125,35.125,0,0,0,13.668,1.739,16.869,16.869,0,0,0,5.928-1.5,9.435,9.435,0,0,0,3.772-2.815,10.866,10.866,0,0,0,1.621-6.437.607.607,0,0,1,1.213,0" transform="translate(-168.684 -160.585)" fill="#edb1a6"/>
          <path id="Trazado_204299" data-name="Trazado 204299" d="M307.247,263.394v5.264a.607.607,0,0,1-1.213,0v-5.264a.607.607,0,0,1,1.213,0" transform="translate(-171.429 -164.085)" fill="#edb1a6"/>
          <path id="Trazado_204300" data-name="Trazado 204300" d="M323.6,268.154v4.529a.607.607,0,0,1-1.213,0v-4.529a.607.607,0,0,1,1.213,0" transform="translate(-193.922 -167.057)" fill="#edb1a6"/>
          <path id="Trazado_204301" data-name="Trazado 204301" d="M338.782,268.286c-.014.1.02-.178.006-.04,0,.038-.009.076-.013.115-.008.078-.016.156-.022.234-.019.214-.035.428-.05.643-.039.548-.071,1.1-.105,1.643-.057.927-.086,1.866-.22,2.787a.611.611,0,0,1-.746.423.622.622,0,0,1-.423-.746c.015-.1-.019.178-.006.04,0-.038.009-.076.013-.115q.012-.117.023-.234c.019-.214.035-.428.05-.643.039-.548.072-1.1.106-1.644.057-.927.086-1.866.22-2.787a.61.61,0,0,1,.746-.423.622.622,0,0,1,.423.746" transform="translate(-214.68 -167.027)" fill="#edb1a6"/>
          <path id="Trazado_204302" data-name="Trazado 204302" d="M298.372,251.248v4.914a.607.607,0,0,1-1.213,0v-4.914a.607.607,0,0,1,1.213,0" transform="translate(-159.22 -156.502)" fill="#edb1a6"/>
          <path id="Trazado_204303" data-name="Trazado 204303" d="M354.727,261.724v4.387a.606.606,0,0,1-1.213,0v-4.387a.606.606,0,0,1,1.213,0" transform="translate(-236.745 -163.03)" fill="#edb1a6"/>
          <path id="Trazado_204304" data-name="Trazado 204304" d="M315.989,117.211,308.8,151.676c-.387,1.584.5,2.352-3.867,4.053-3.943,1.536-10.355,1.319-19.9-3.078,0,0-3.083-2.186-3.434-4.643s10.178-38.255,12.284-47.731,22.111,16.934,22.111,16.934" transform="translate(-170.987 -61.327)" fill="#ff978c"/>
          <path id="Trazado_204305" data-name="Trazado 204305" d="M288.9,60.831s1.033,48.008-13.688,49.486-22.813-9.476-24.568-18.952-3.861-24.918,2.457-33.693,35.979-7.378,35.8,3.159" transform="translate(-131.614 -32.411)" fill="#ff978c"/>
          <path id="Trazado_204306" data-name="Trazado 204306" d="M274.26,138.587a20.36,20.36,0,0,0,.509,5.223c.247,1.194.752,2.669.167,3.839-.541,1.083-1.936,1.393-3.032,1.507a4.122,4.122,0,0,1-3.577-1.179c-.524-.577.331-1.436.858-.858a3.11,3.11,0,0,0,2.882.8c.882-.125,1.885-.389,1.908-1.432a18.162,18.162,0,0,0-.54-3.289,21.025,21.025,0,0,1-.389-4.616c.044-.775,1.257-.781,1.213,0" transform="translate(-125.164 -86.163)" fill="#e25c59"/>
          <path id="Trazado_204307" data-name="Trazado 204307" d="M285.941,154.941c-.029.021-.058.042-.086.063l.122-.095a2.218,2.218,0,0,0-.366.368l.1-.123a2.357,2.357,0,0,0-.3.512l.061-.145a2.4,2.4,0,0,0-.142.469.612.612,0,0,1-.278.363.607.607,0,0,1-.83-.218.678.678,0,0,1-.061-.467,2.763,2.763,0,0,1,.383-.956,2.9,2.9,0,0,1,.791-.819.606.606,0,0,1,.891.684.685.685,0,0,1-.279.363" transform="translate(-142.2 -96.034)" fill="#e25c59"/>
          <path id="Trazado_204308" data-name="Trazado 204308" d="M277.856,173.143a32.011,32.011,0,0,1-9.751-1.1.607.607,0,0,1,.322-1.169,30.864,30.864,0,0,0,9.428,1.055c.78-.033.779,1.18,0,1.213" transform="translate(-128.213 -106.671)" fill="#e25c59"/>
          <path id="Trazado_204309" data-name="Trazado 204309" d="M278.8,182.884a10.487,10.487,0,0,1-2.089-.121.606.606,0,0,1-.362-.279.62.62,0,0,1-.061-.467.612.612,0,0,1,.279-.362.7.7,0,0,1,.467-.061l.188.027-.161-.022a9.659,9.659,0,0,0,1.74.073.611.611,0,0,1,.606.606.619.619,0,0,1-.606.606" transform="translate(-132.401 -113.37)" fill="#e25c59"/>
          <path id="Trazado_204310" data-name="Trazado 204310" d="M311.531,192.525a24.321,24.321,0,0,1-7.685-1.68,15.393,15.393,0,0,1-3.9-2.967A15.551,15.551,0,0,1,296.7,183.8c-.369-.687.677-1.3,1.047-.612a14.546,14.546,0,0,0,3.053,3.831,14.248,14.248,0,0,0,3.654,2.778,22.694,22.694,0,0,0,7.072,1.514c.769.079.777,1.292,0,1.213" transform="translate(-172.759 -114.187)" fill="#e25c59"/>
          <path id="Trazado_204311" data-name="Trazado 204311" d="M251.613,118.3s-3.952.008-5.057-1.079c-.4-.394-.691-2.3.054-2.462,1.578-.337,5-.267,5.473.968s.264,2.433-.47,2.573" transform="translate(-94.021 -71.541)" fill="#543139"/>
          <path id="Trazado_204312" data-name="Trazado 204312" d="M297.223,108.409s.626,2.35-.614,2.768c-1.177.4-10.374.371-11.3.371-1.045,0-1.031-2.1-.307-2.363s12.075-2.559,12.226-.776" transform="translate(-153.468 -67.266)" fill="#543139"/>
          <path id="Trazado_204313" data-name="Trazado 204313" d="M296.818,125.074a1.513,1.513,0,1,0,1.4-1.937,1.716,1.716,0,0,0-1.4,1.937" transform="translate(-160.471 -76.881)" fill="#381b21"/>
          <path id="Trazado_204314" data-name="Trazado 204314" d="M298.472,123.37a2.4,2.4,0,0,0-.129-.226c-.022-.033-.047-.065-.068-.1-.072-.116.086.1-.006-.01a4.141,4.141,0,0,0-.408-.42c-.036-.031-.073-.061-.11-.091.115.091-.027-.017-.052-.035q-.132-.091-.272-.168c-.044-.024-.088-.046-.133-.069l-.091-.042c.06.025.07.029.029.012a2.921,2.921,0,0,0-.314-.1c-.05-.013-.1-.024-.15-.034s-.152-.018-.044-.009a2.652,2.652,0,0,0-.37-.01c-.014,0-.192.018-.056,0-.055.008-.11.018-.165.03a2.267,2.267,0,0,0-.391.122c.092-.039-.073.039-.081.043-.058.03-.115.062-.171.1a2.231,2.231,0,0,0-.333.238,4.425,4.425,0,0,0-.7.762.624.624,0,0,1-.829.217.611.611,0,0,1-.217-.83,4.662,4.662,0,0,1,1.805-1.611,3.078,3.078,0,0,1,1.923-.207,3.646,3.646,0,0,1,2.378,1.831.621.621,0,0,1-.217.829.612.612,0,0,1-.829-.217" transform="translate(-159.001 -75.458)" fill="#381b21"/>
          <path id="Trazado_204315" data-name="Trazado 204315" d="M255.2,131.244a1.513,1.513,0,1,0,1.582-1.79,1.715,1.715,0,0,0-1.582,1.79" transform="translate(-103.211 -80.824)" fill="#381b21"/>
          <path id="Trazado_204316" data-name="Trazado 204316" d="M256.4,130.6a3.683,3.683,0,0,0-.264-.421c.089.126,0,0-.015-.018s-.059-.069-.089-.1q-.094-.1-.2-.2c-.035-.032-.07-.064-.106-.1s-.139-.111-.027-.026c-.071-.054-.144-.1-.22-.151s-.17-.1-.257-.142l-.067-.031c.062.026.072.03.031.014s-.093-.035-.141-.05c-.088-.028-.177-.046-.267-.067-.137-.032.091,0-.04-.006-.052,0-.1-.007-.155-.008s-.106,0-.158,0c-.017,0-.188.024-.054,0a2.376,2.376,0,0,0-.331.079c-.057.018-.115.038-.169.061.092-.039-.077.041-.084.044a3.168,3.168,0,0,0-.349.211,4,4,0,0,0-.652.6.606.606,0,0,1-.858-.858,3.378,3.378,0,0,1,3.392-1.248,3.636,3.636,0,0,1,2.123,1.8.62.62,0,0,1-.217.829.613.613,0,0,1-.829-.217" transform="translate(-101.313 -79.971)" fill="#381b21"/>
          <path id="Trazado_204317" data-name="Trazado 204317" d="M295.818,118.511a7.775,7.775,0,0,0-2.856-.559q-1.752-.132-3.5-.307c-2.105-.211-4.219-.438-6.309-.776a3.862,3.862,0,0,0-1.084-.123c-.6.079-.737.557-.916,1.066a6.863,6.863,0,0,0-.362,2.017,19.23,19.23,0,0,0,.258,3.948,2.72,2.72,0,0,0,1.019,1.885,7.4,7.4,0,0,0,3.081,1.281,12.642,12.642,0,0,0,7.749-.674,5.1,5.1,0,0,0,2.861-3.218,10.148,10.148,0,0,0,.488-2.669c.016-.359,0-.717,0-1.076,0-.478.013-.55-.428-.8a.607.607,0,0,1,.612-1.047,1.727,1.727,0,0,1,1.033,1.683,16.407,16.407,0,0,1-.131,2.477,7.424,7.424,0,0,1-2.2,4.655c-2.335,1.984-5.865,2.4-8.807,2.072-2.238-.248-5.6-1.045-6.314-3.563a16.117,16.117,0,0,1-.447-4.089,11.243,11.243,0,0,1,.2-2.461,3.98,3.98,0,0,1,1.128-2.307c.85-.657,1.959-.321,2.922-.18,1.442.212,2.89.386,4.338.544q2.256.246,4.518.421a10.181,10.181,0,0,1,3.759.747c.7.339.088,1.385-.612,1.047" transform="translate(-151.702 -72.137)" fill="#fce0d9"/>
          <path id="Trazado_204318" data-name="Trazado 204318" d="M233.448,123.442a7.163,7.163,0,0,1,2.92-.122q1.723.159,3.451.26,1.615.094,3.233.137a5.99,5.99,0,0,1,2.428.224c1.313.644,1.136,2.764.973,3.978a19.693,19.693,0,0,1-.938,3.851c-.737,2.1-2.943,2.758-5,2.8A9.711,9.711,0,0,1,233.456,132a6.308,6.308,0,0,1-1.5-4.579,15.489,15.489,0,0,1,.295-2.548,1.657,1.657,0,0,1,1.2-1.432c.725-.288,1.04.884.322,1.169-.423.168-.372.707-.448,1.109a9.666,9.666,0,0,0-.148,2.09,4.807,4.807,0,0,0,1.14,3.334,8.379,8.379,0,0,0,5.776,2.208,6.786,6.786,0,0,0,2.81-.441,3.126,3.126,0,0,0,.858-.526,2.386,2.386,0,0,0,.36-.418.647.647,0,0,0,.14-.277,18.044,18.044,0,0,0,.811-2.855,11.837,11.837,0,0,0,.256-1.717,4.31,4.31,0,0,0-.146-1.787c-.279-.639-1.556-.387-2.126-.4q-1.618-.043-3.233-.137-1.536-.09-3.068-.225a7.445,7.445,0,0,0-2.98.045c-.744.241-1.063-.93-.322-1.169" transform="translate(-82.92 -76.94)" fill="#fce0d9"/>
          <path id="Trazado_204319" data-name="Trazado 204319" d="M272.123,127.641a4.052,4.052,0,0,0-.441-.287q-.115-.064-.234-.12c-.039-.018-.079-.038-.12-.054.057.023-.024-.008-.038-.013a5,5,0,0,0-.5-.153c-.086-.02-.172-.036-.258-.053-.022,0-.1-.016-.035-.007-.054-.008-.109-.012-.164-.017a4.183,4.183,0,0,0-.527-.011c-.088,0-.175.011-.263.019-.108.011.073-.012-.035,0l-.13.022a3.972,3.972,0,0,0-.509.13,2.23,2.23,0,0,0-.431.181.621.621,0,0,1-.829-.218.613.613,0,0,1,.217-.83,4.744,4.744,0,0,1,4.912.358.625.625,0,0,1,.218.829.61.61,0,0,1-.829.218" transform="translate(-122.751 -78.492)" fill="#fce0d9"/>
          <path id="Trazado_204320" data-name="Trazado 204320" d="M324.8,111.382a17.717,17.717,0,0,0,3.278,1.913c1.157.576,2.336,1.107,3.5,1.661a.611.611,0,0,1,.218.829.62.62,0,0,1-.829.217c-1.2-.568-2.407-1.113-3.594-1.706a17.875,17.875,0,0,1-3.433-2.057.611.611,0,0,1,0-.858.62.62,0,0,1,.858,0" transform="translate(-202.718 -69.435)" fill="#fce0d9"/>
          <path id="Trazado_204321" data-name="Trazado 204321" d="M291.252,38.426c-2.648,1.606-5.381-.953-19.373-12.988a.707.707,0,0,0-.913-.014c-2.742,2.3-16.957,14.59-18.628,24.058-1.651,9.354-.061,19.783-8.028,19.829-11.582.068-3.376-8.227-11.758-14.214C231.324,54.219,215,44.743,222.2,30.529c1.774-3.506,6.883-6.818,6.054-11.028-1.492-7.574,6.992-13.635,12.547-14.769,8.6-1.755,17.843,3.873,17.843,1.579,0-4.738,10.235-9.125,16.376-4.036s12.345,2.947,16.5,4.914c6.668,3.159,15.793,17.2,1.755,30.082-1.8,1.648-2.018,1.154-2.018,1.154" transform="translate(-132.65 -0.002)" fill="#3e3147"/>
          <path id="Trazado_204322" data-name="Trazado 204322" d="M308.106,34.675a9.644,9.644,0,0,0-1.866-3.992,43.178,43.178,0,0,0-2.725-3.644c-1.9-2.291-3.968-4.428-6.037-6.561-.544-.561.313-1.419.857-.858,2.251,2.321,4.506,4.647,6.533,7.169a43.7,43.7,0,0,1,2.7,3.719,9.9,9.9,0,0,1,1.746,4.166c.092.773-1.121.766-1.213,0" transform="translate(-170.226 -12.137)" fill="#180b23"/>
          <path id="Trazado_204323" data-name="Trazado 204323" d="M417.963,63.482c-1.563,2.8-.523,6.189-.684,9.216a8.847,8.847,0,0,1-1.262,4.229,9.432,9.432,0,0,0-1.639,5.343.607.607,0,0,1-1.213,0,9.654,9.654,0,0,1,1.3-5.13,11.76,11.76,0,0,0,1.281-2.478,9.082,9.082,0,0,0,.338-2.427c.066-3.146-.79-6.461.833-9.366.381-.681,1.428-.071,1.047.612" transform="translate(-322.47 -39.068)" fill="#180b23"/>
          <path id="Trazado_204324" data-name="Trazado 204324" d="M359.141,43.231a17.146,17.146,0,0,0-20.627,2.889,18.166,18.166,0,0,0-5.04,9.595c-.719,4.265,1.515,7.915,3.254,11.621,1.664,3.548,2.908,8.036.575,11.587-.427.649-1.477.042-1.047-.612,2.338-3.559.592-8-1.09-11.431a37.856,37.856,0,0,1-2.516-5.8,12.524,12.524,0,0,1-.234-6.251A19.254,19.254,0,0,1,347.243,40.1a18.221,18.221,0,0,1,12.51,2.086.607.607,0,0,1-.612,1.047" transform="translate(-234.03 -24.835)" fill="#180b23"/>
          <path id="Trazado_204325" data-name="Trazado 204325" d="M340.508,58.5a43.791,43.791,0,0,1-12,11.956,25.607,25.607,0,0,0-6.25,5.3,11.513,11.513,0,0,0-2.126,9.009c.63,3.029,2.933,5.45,3.028,8.63.023.781-1.19.78-1.213,0-.086-2.882-2.2-5.18-2.892-7.9a12.64,12.64,0,0,1,1.217-8.88,18.008,18.008,0,0,1,5.656-5.83,78.726,78.726,0,0,0,6.883-5.158,40.02,40.02,0,0,0,6.651-7.734c.428-.649,1.478-.042,1.047.612" transform="translate(-209.557 -35.971)" fill="#180b23"/>
          <path id="Trazado_204326" data-name="Trazado 204326" d="M257.961,50.309c-3.58-.065-6.187-3.3-8.147-5.921A45.76,45.76,0,0,0,247,40.629a9.67,9.67,0,0,0-6.15-3.044c-3.079-.282-6.22,1.045-9.126,1.893a.607.607,0,0,1-.322-1.169c2.606-.76,5.292-1.8,8.023-1.96a10.8,10.8,0,0,1,6.5,1.791c3.009,2,4.547,5.543,6.993,8.119,1.332,1.4,3.007,2.8,5.038,2.837a.607.607,0,0,1,0,1.213" transform="translate(-94.533 -22.685)" fill="#180b23"/>
          <path id="Trazado_204327" data-name="Trazado 204327" d="M246.945,31.144a11.841,11.841,0,0,0-4.485-9.827,22.465,22.465,0,0,0-4.449-2.717,9.021,9.021,0,0,1-3.655-2.906c-.432-.653.618-1.26,1.047-.612.985,1.487,2.7,2.2,4.231,2.977a18.146,18.146,0,0,1,4.417,3.06,12.782,12.782,0,0,1,4.108,10.025c-.057.773-1.27.78-1.213,0" transform="translate(-85.406 -9.244)" fill="#180b23"/>
          <path id="Trazado_204328" data-name="Trazado 204328" d="M295.611,19.27c-.791-1.035-2.386-1.2-3.569-1.459a21.484,21.484,0,0,0-4.831-.613,10.5,10.5,0,0,0-7,2.409c-.589.506-1.45-.348-.857-.858a11.905,11.905,0,0,1,8.121-2.765,25.633,25.633,0,0,1,5.451.783,5.882,5.882,0,0,1,3.727,1.891c.474.62-.579,1.224-1.047.612" transform="translate(-150.865 -9.98)" fill="#180b23"/>
          <path id="Trazado_204329" data-name="Trazado 204329" d="M260.135,68.94c-3.477-.03-6.363-1.7-8.975-3.873a34.7,34.7,0,0,1-7.829-8.623.607.607,0,0,1,1.047-.612,33.26,33.26,0,0,0,7.213,8.018c2.475,2.112,5.2,3.849,8.544,3.878a.607.607,0,0,1,0,1.213" transform="translate(-101.314 -34.678)" fill="#180b23"/>
          <path id="Trazado_204330" data-name="Trazado 204330" d="M344.789,120.578s-4.692-1.383-5.551-6.034c-1.015-5.492,1.659-13.627,7.491-9.433s-.341,16.091-1.939,15.467" transform="translate(-225.761 -64.904)" fill="#ff978c"/>
          <path id="Trazado_204331" data-name="Trazado 204331" d="M347.626,110.762a12.753,12.753,0,0,1,1.3,8.877c-.17.761-1.34.439-1.169-.322a11.444,11.444,0,0,0-1.176-7.943c-.369-.687.677-1.3,1.047-.612" transform="translate(-228.606 -68.966)" fill="#e25c59"/>
          <path id="Trazado_204332" data-name="Trazado 204332" d="M349.947,120.673c-.068-.109-.14-.216-.216-.32l-.035-.047.035.045c-.006-.025-.047-.059-.062-.078-.042-.052-.085-.1-.129-.153a6.065,6.065,0,0,0-.6-.6c-.054-.047-.109-.092-.165-.137-.014-.012-.112-.091-.04-.033s-.027-.02-.043-.032q-.177-.132-.362-.254a8.376,8.376,0,0,0-.836-.48.61.61,0,0,1-.217-.83.621.621,0,0,1,.829-.218,7.143,7.143,0,0,1,2.892,2.52.612.612,0,0,1-.217.829.619.619,0,0,1-.829-.218" transform="translate(-230.718 -73.34)" fill="#e25c59"/>
          <path id="Trazado_204333" data-name="Trazado 204333" d="M346.436,145.275a6.83,6.83,0,0,1-1.479.322,2.4,2.4,0,0,1-.868-.044.607.607,0,1,1,.322-1.169.974.974,0,0,0,.122.025l-.161-.022a2.838,2.838,0,0,0,.738-.02l-.161.022a6.586,6.586,0,0,0,1.166-.283.611.611,0,0,1,.746.424.62.62,0,0,1-.423.746" transform="translate(-225.185 -89.958)" fill="#e25c59"/>
          <path id="Trazado_204334" data-name="Trazado 204334" d="M354.012,140.835a26.571,26.571,0,0,1,.4,4.744,9.046,9.046,0,0,1-.808,3.988c-.591,1.175-1.782,2.235-3.1,1.348-1.169-.787-1.377-2.547-1.412-3.841a9.355,9.355,0,0,1,1.128-4.666c.369-.688,1.417-.076,1.047.612a8.109,8.109,0,0,0-.957,4.216,5.879,5.879,0,0,0,.4,2.066c.273.616.866,1,1.372.406a6.123,6.123,0,0,0,1.108-3.74,23.734,23.734,0,0,0-.348-4.811c-.129-.763,1.039-1.091,1.169-.322" transform="translate(-234.768 -87.657)" fill="#ffc44d"/>
          <path id="Trazado_204335" data-name="Trazado 204335" d="M53.981,380.488c-1.053-1.063-16.272-9.522-49.662-14.594,0,0-8.049,19.027-2.172,31.572,1.857,3.964,1.629,2.878,5.643,4.625,15.9,6.922,59.221,33.674,59.213.208,0-17.779-13.023-21.811-13.023-21.811" transform="translate(183.776 -228.446)" fill="#543139"/>
          <path id="Trazado_204336" data-name="Trazado 204336" d="M97.912,376.1c-10.224-2.961-20.186-7.044-30.782-8.524a99.582,99.582,0,0,0-10.552-.843c-.778-.025-.782-1.238,0-1.213a91.284,91.284,0,0,1,17.293,2.062c4.9,1.112,9.656,2.714,14.425,4.266,3.3,1.074,6.607,2.118,9.939,3.083a.607.607,0,0,1-.322,1.169" transform="translate(131.085 -228.214)" fill="#381b21"/>
          <path id="Trazado_204337" data-name="Trazado 204337" d="M152.7,431.975a26.89,26.89,0,0,1-.225,3.683,10.575,10.575,0,0,1-.812,3.453,5.566,5.566,0,0,1-4.586,2.776,4.01,4.01,0,0,1-2.2-.308c-.691-.364-.079-1.411.612-1.047.053.028.109.045.017.013.047.017.095.035.144.048.1.026.281.066.322.073a5.156,5.156,0,0,0,.861.026,5.247,5.247,0,0,0,2.007-.5,3.781,3.781,0,0,0,1.727-1.6,8.408,8.408,0,0,0,.686-2.866,26.667,26.667,0,0,0,.234-3.752.607.607,0,0,1,1.213,0" transform="translate(43.763 -269.338)" fill="#381b21"/>
          <path id="Trazado_204338" data-name="Trazado 204338" d="M162.278,370.641a14.1,14.1,0,0,1,1.379-2.986,4.8,4.8,0,0,1,1.445-1.524,2.341,2.341,0,0,1,2.769.233,3.652,3.652,0,0,1,.85,1.011.607.607,0,0,1-1.047.612c-.038-.065-.077-.128-.119-.191-.023-.034-.047-.067-.07-.1-.072-.1-.03-.027,0,0-.124-.105-.219-.254-.341-.364-.029-.026-.059-.05-.088-.075-.109-.1.089.055.009.006s-.142-.1-.217-.14c-.033-.019-.067-.035-.1-.053-.119-.063-.036-.008,0,0a2.53,2.53,0,0,1-.246-.075c-.023-.006-.172-.034-.047-.012s-.033,0-.065,0-.079,0-.119,0c-.093,0-.172.057-.02,0-.076.031-.171.035-.249.06-.043.014-.085.032-.127.046.178-.062,0,0-.049.03-.1.053-.187.116-.28.178-.068.045.086-.072.023-.018l-.067.056c-.058.05-.115.1-.169.155a4.138,4.138,0,0,0-.292.315,2.922,2.922,0,0,0-.252.339,12.239,12.239,0,0,0-1.344,2.828.622.622,0,0,1-.746.423.611.611,0,0,1-.423-.746" transform="translate(21.021 -228.376)" fill="#381b21"/>
          <path id="Trazado_204339" data-name="Trazado 204339" d="M106.905,435.572a31.671,31.671,0,0,0,1-14.183,32.6,32.6,0,0,0-1.829-6.764,30.212,30.212,0,0,0-1.571-3.378,13.465,13.465,0,0,0-1.966-3.019,6.4,6.4,0,0,0-3.986-1.551,11.04,11.04,0,0,0-4.535.514l.424-.746c1.248,4.433,2.69,8.859,3.658,13.364.838,3.9,1.111,8.069-.852,11.69-.372.686-1.42.075-1.047-.612,1.928-3.557,1.445-7.724.559-11.513-.991-4.24-2.308-8.417-3.488-12.607a.618.618,0,0,1,.423-.746,11.549,11.549,0,0,1,8,.2c2.359,1.024,3.608,3.778,4.645,5.98a33.358,33.358,0,0,1,3.146,15.025,32.582,32.582,0,0,1-1.414,8.669c-.228.744-1.4.427-1.169-.322" transform="translate(106.251 -253.115)" fill="#381b21"/>
          <path id="Trazado_204340" data-name="Trazado 204340" d="M175.384,371.727c-.045.175-.334,18.208,1.009,18.558s3.071-6.756,2.632-11.758-2.588-10.924-3.641-6.8" transform="translate(5.824 -231.223)" fill="#fce0d9"/>
          <path id="Trazado_204341" data-name="Trazado 204341" d="M205,367.906l-4.211-2.814-1.914-.283s-.006.125-.014.354c-.088,2.39-.437,16.053,3.047,15.508,3.817-.6,4.5-6.718,4.288-8.429a24.5,24.5,0,0,0-1.2-4.337" transform="translate(-30.131 -227.769)" fill="#180b23"/>
          <path id="Trazado_204342" data-name="Trazado 204342" d="M204.857,367.853s-15.7-3.331-28.811-4.722c-2.872-.3-5.62-.516-8.051-.58-13.528-.351-13.879-.094-19.341,8.884-2.377,3.907,1.916,7.493,3.29,9.476a30.962,30.962,0,0,0,4.409,5.528c1.362,1.091,3.2.731,2.968-.636,0,0,1.361.439.89-2.163a27.484,27.484,0,0,0-1.072-3.2c-.559-1.5,1.544,2.713,3.152,0,.717-1.208-3.59-6.371-3.306-6.371,7.449,0,6.439,3.665,22.727,3.991,1.263.025,5.078-.21,6.218.335,4.978,2.377,18.592,8.792,21.727,9.362,0,0-2.545-17.482-4.8-19.9" transform="translate(-14.454 -226.304)" fill="#ff978c"/>
          <path id="Trazado_204343" data-name="Trazado 204343" d="M281.838,393.305c-.047,0-.231.037-.062,0-.051.012-.1.03-.155.039-.091.018.106-.071-.021.017-.088.06.107-.1-.013.013s.069-.048-.013.013c-.036.027-.078.2-.02.017-.029.088-.05.174-.071.264.041-.174,0,.005,0,.051s0,.122,0,.183,0,.128.01.192c0,.028.031.243.008.091a5.912,5.912,0,0,0,.2.84,8.165,8.165,0,0,0,.674,1.614c.13.245.268.485.421.716.068.1.139.2.212.3-.1-.136.01.01.032.036s.064.073.1.109c.532.57-.323,1.429-.857.857a8.32,8.32,0,0,1-1.533-2.691,4.062,4.062,0,0,1-.27-3.081,1.487,1.487,0,0,1,1.37-.791.607.607,0,0,1,0,1.213" transform="translate(-137.794 -244.804)" fill="#e25c59"/>
          <path id="Trazado_204344" data-name="Trazado 204344" d="M286.952,403.644a22.187,22.187,0,0,0-2.594-4.072c-.481-.648-.961-1.3-1.4-1.978a7.289,7.289,0,0,1-1.066-2.012c-.189-.819.633-1.656,1.195-2.123a5.962,5.962,0,0,1,3.748-1.366.607.607,0,0,1,0,1.213,4.656,4.656,0,0,0-3.021,1.121,2.788,2.788,0,0,0-.681.809c-.02.041-.038.23-.055.125-.032-.2.059.071.082.119.087.182.179.361.275.538,1.332,2.462,3.409,4.442,4.562,7.013.317.706-.728,1.323-1.047.612" transform="translate(-143.162 -244.804)" fill="#e25c59"/>
          <path id="Trazado_204345" data-name="Trazado 204345" d="M284.1,372.524a14.478,14.478,0,0,0-5.58.606,18.987,18.987,0,0,0-4.19,1.6c-.683.379-1.3-.668-.612-1.047a20.375,20.375,0,0,1,4.479-1.723,15.416,15.416,0,0,1,5.9-.649c.764.1.774,1.309,0,1.213" transform="translate(-136.607 -231.78)" fill="#e25c59"/>
          <path id="Trazado_204346" data-name="Trazado 204346" d="M283.353,365.407a12.2,12.2,0,0,0-5.138.642,25.926,25.926,0,0,0-2.481,1.133c-.7.33-1.319-.715-.612-1.047a28.829,28.829,0,0,1,2.771-1.255,13.073,13.073,0,0,1,5.46-.686c.771.07.778,1.283,0,1.213" transform="translate(-136.387 -227.354)" fill="#e25c59"/>
          <path id="Trazado_204347" data-name="Trazado 204347" d="M192.557,364.815c.493.016,1.261.873,1.261.873,8.8,6.225,1.738,14.987,1.738,14.987l4.293.978s2.207-2.368,2.376-8.334S198,365.688,198,365.688c-.016,0-.024-.008-.04-.008a37.81,37.81,0,0,0-4.018-.752,12.655,12.655,0,0,0-1.382-.113" transform="translate(-23.785 -227.773)" fill="#3e3147"/>
          <path id="Trazado_204348" data-name="Trazado 204348" d="M198.227,365.116a24.007,24.007,0,0,1,3.339,3.152,2.264,2.264,0,0,0,2.8.243c.21-.34-1.552-2.094-2.126-2.643a37.82,37.82,0,0,0-4.018-.752" transform="translate(-28.072 -227.961)" fill="#fff"/>
          <path id="Trazado_204349" data-name="Trazado 204349" d="M147.154,370.786s5.863,9.426,1.527,19.391c-.154.354,13.271,2.772,13.271,2.772a33.627,33.627,0,0,0-.711-7.916,66.222,66.222,0,0,0-4.669-13.942s-9.285-1.851-9.419-.3" transform="translate(33.535 -231.116)" fill="#fce0d9"/>
          <path id="Trazado_204350" data-name="Trazado 204350" d="M155.531,415.324a15.578,15.578,0,0,1-6.279-1.707c-.694-.358-.082-1.4.612-1.047a14.109,14.109,0,0,0,5.667,1.542c.776.043.781,1.256,0,1.213" transform="translate(38.713 -257.542)" fill="#edb1a6"/>
          <path id="Trazado_204351" data-name="Trazado 204351" d="M163.128,396.364l-3.51-1.4a.622.622,0,0,1-.423-.746.612.612,0,0,1,.746-.423l3.51,1.4a.622.622,0,0,1,.423.746.612.612,0,0,1-.746.423" transform="translate(27.087 -245.843)" fill="#edb1a6"/>
          <path id="Trazado_204352" data-name="Trazado 204352" d="M167.583,376.7l-1.4-.351a.606.606,0,0,1,.322-1.169l1.4.351a.606.606,0,0,1-.322,1.169" transform="translate(20.171 -234.231)" fill="#edb1a6"/>
          <path id="Trazado_204353" data-name="Trazado 204353" d="M534.505,749.547s3.868,4.762,1.807,16.851c-.9,5.268-4,10.135-7.074,8.622s5.752-4.843-.865-13.519c-2.469-3.237,6.132-11.954,6.132-11.954" transform="translate(-484.454 -467.98)" fill="#ff978c"/>
          <path id="Trazado_204354" data-name="Trazado 204354" d="M641.784,824.877s-5.386-1.163-5.92,1.522-8.186,37.433-.731,37.286c14.159-.278,10.6-35.3,6.651-38.808" transform="translate(-631.889 -514.856)" fill="#bd6868"/>
          <path id="Trazado_204355" data-name="Trazado 204355" d="M525.26,837.923c3.475,13.8,8.456,74.411,4.291,77.62s-10.2,1.708-10.8,1.62-66.817-21.011-67.255-26.555,1.224-65.942,2.978-68.78,6.786-3.528,9.2-3.309,59.818,12.373,61.588,19.4" transform="translate(-449.932 -511.019)" fill="#bd6868"/>
          <path id="Trazado_204356" data-name="Trazado 204356" d="M539.862,871.943c-3.629-1.34-7.031,1.138-9.49,3.572a6.543,6.543,0,0,0-1.747,2.311,13.878,13.878,0,0,0-.474,3.19c-.7,6.685-.512,13.388-.581,20.1-.017,1.671-.05,3.343-.128,5.013-.033.694-.073,1.388-.126,2.08a6.624,6.624,0,0,1-.345,2.243c-.727,1.554-3.09.951-4.423.829-1.966-.18-3.924-.465-5.863-.836-8.193-1.568-16-4.644-23.723-7.7q-13.14-5.205-26.1-10.852c-.714-.311-.1-1.356.612-1.047q11.6,5.06,23.353,9.753c7.665,3.062,15.369,6.214,23.427,8.1,2.045.478,4.113.872,6.2,1.145q1.395.183,2.8.293c.561.044,1.126.089,1.689.1.539.015.907-.024,1.03-.624a27.515,27.515,0,0,0,.3-4.462c.061-1.661.084-3.324.1-4.986.025-3.562-.012-7.125.054-10.687.058-3.1.29-6.16.6-9.243a7.028,7.028,0,0,1,2.941-6c2.664-2.562,6.43-4.852,10.225-3.451.726.268.412,1.441-.322,1.169" transform="translate(-465.075 -543.402)" fill="#8f4242"/>
          <path id="Trazado_204357" data-name="Trazado 204357" d="M488.706,956.917a271.7,271.7,0,0,1-4.2-34.38c-.311-5.408-.375-10.825-.635-16.235-.192-3.985-.5-7.964-.644-11.951-.073-1.977-.124-3.962-.021-5.939a9.578,9.578,0,0,1,.706-3.826c.356-.695,1.4-.082,1.047.612a8.072,8.072,0,0,0-.536,3.137c-.093,1.7-.065,3.407-.014,5.108.118,3.928.408,7.848.619,11.771.273,5.08.327,10.17.58,15.252q.424,8.5,1.384,16.967,1.093,9.629,2.885,19.16c.143.763-1.026,1.089-1.169.322" transform="translate(-420.601 -552.101)" fill="#8f4242"/>
          <path id="Trazado_204358" data-name="Trazado 204358" d="M591.524,938.254c.039.994-.126,9.039-.33,10.354-.363,2.338-8.249-1.227-8.4-2.761-.251-2.64.39-8.862.436-10,.073-1.827,8.175-.512,8.289,2.412" transform="translate(-559.656 -583.77)" fill="#fce0d9"/>
          <path id="Trazado_204359" data-name="Trazado 204359" d="M589.811,939.774a3.311,3.311,0,0,1,2.522,3.162,41.738,41.738,0,0,1-.169,5.01c-.065,1.152.025,3.144-1.665,2.978a7.109,7.109,0,0,1-2.026-.666c-.923-.393-1.841-.8-2.734-1.258-.694-.357-.081-1.4.612-1.047a24.342,24.342,0,0,0,3.761,1.649,3.6,3.6,0,0,0,.493.12c.036,0,.227-.012.114.006.05-.008.036-.015.042-.008s.111-.125,0,0c-.07.085-.031.018,0,0-.118.092.02.068.006-.028.01.068-.041.132-.014.023.01-.039.025-.077.033-.117.024-.11.046-.22.062-.332,0,.015,0,0,.011-.1.008-.079.016-.159.023-.238.019-.209.033-.419.047-.628.088-1.382.142-2.768.19-4.152a5.292,5.292,0,0,0-.152-2.01,2.081,2.081,0,0,0-1.481-1.2.607.607,0,0,1,.322-1.169" transform="translate(-561.505 -586.732)" fill="#edb1a6"/>
          <path id="Trazado_204360" data-name="Trazado 204360" d="M459.089,982.515a61.238,61.238,0,0,0,3.141,23.727c.776,2.28,1.953,4.8.945,7.2-.3.708-1.472.4-1.169-.322,1.027-2.442-.51-5.176-1.258-7.5a61.62,61.62,0,0,1-1.917-7.556,62.963,62.963,0,0,1-.955-15.551c.049-.775,1.262-.781,1.213,0" transform="translate(-384.741 -613.069)" fill="#8f4242"/>
          <path id="Trazado_204361" data-name="Trazado 204361" d="M553.928,849.092c-3.077-1.308-6.414-1.8-9.587-2.807-3.067-.974-5.992-2.328-8.959-3.562-5.493-2.284-11.235-4.044-16.913-5.807-2.748-.853-5.5-1.68-8.258-2.513a.607.607,0,0,1,.322-1.169c5.069,1.533,10.139,3.059,15.165,4.729,3.05,1.013,6.119,2.012,9.1,3.218,3.023,1.223,5.979,2.619,9.069,3.672,3.521,1.2,7.236,1.731,10.672,3.192.716.3.1,1.349-.612,1.047" transform="translate(-495.581 -520.212)" fill="#8f4242"/>
          <path id="Trazado_204362" data-name="Trazado 204362" d="M522.593,846.644a2.542,2.542,0,0,0-1.122-1.275,5.353,5.353,0,0,0-1.911-.663,1.737,1.737,0,0,0-.5-.04c-.005,0-.128.049-.059.017-.062.04-.073.045-.035.016a.946.946,0,0,0-.089.092,1.677,1.677,0,0,0-.191.7,6.72,6.72,0,0,0,.347,2.656l-1.191.161a.392.392,0,0,0-.089-.29.606.606,0,1,1,1.047-.612,1.518,1.518,0,0,1,.255.9.609.609,0,0,1-1.191.162,7.766,7.766,0,0,1-.406-2.6,2.68,2.68,0,0,1,.7-2.069,2.536,2.536,0,0,1,2.289-.145,5.767,5.767,0,0,1,1.873.819,3.763,3.763,0,0,1,1.444,1.847.607.607,0,0,1-1.169.322" transform="translate(-467.391 -526.612)" fill="#edb1a6"/>
          <path id="Trazado_204363" data-name="Trazado 204363" d="M602.536,824.636c-.081.1.022-.039.041-.07.029-.048.053-.1.078-.146-.049.095-.026.06,0-.011.05-.172-.01.062.006-.018,0-.02,0-.041,0-.062.009-.1-.038.112.01.072a.454.454,0,0,0-.033-.114c-.018,0,.1.148,0,.026-.074-.093.1.094-.009-.012-.031-.03-.065-.059-.1-.09-.062-.065.117.071-.015-.01-.086-.052-.171-.1-.261-.147l-.072-.033c.014.007.133.05.033.014-.045-.016-.09-.035-.136-.05-.114-.04-.231-.075-.348-.1s-.213-.051-.321-.072l-.173-.031c-.039-.006-.253-.03-.075-.013-.215-.02-.429-.044-.646-.047-.087,0-.175,0-.262,0l-.124.008c-.015,0-.029,0-.044,0-.108,0,.152-.034.054-.008a1.563,1.563,0,0,0-.792.329.964.964,0,0,0-.2.324,3.667,3.667,0,0,0-.121.487c-.018.121-.035.371-.044.544-.011.2-.019.4-.036.6a.622.622,0,0,1-.606.606.611.611,0,0,1-.606-.606,4.863,4.863,0,0,1,.538-2.539,2.56,2.56,0,0,1,2.1-.96,6.437,6.437,0,0,1,1.66.2,2.9,2.9,0,0,1,1.471.762,1.368,1.368,0,0,1,.367.923,1.837,1.837,0,0,1-.475,1.1.61.61,0,0,1-.858,0,.622.622,0,0,1,0-.857" transform="translate(-577.626 -513.531)" fill="#edb1a6"/>
          <path id="Trazado_204364" data-name="Trazado 204364" d="M555.945,814.956s-1.1-11.011-6.652-15.981-14.076-5.847-19.554-2.421-7.823,9.958-6.361,11.433,2.344-.919,2.344-.919.141-5.889,5.445-7.361c5.267-1.462,13.594-.95,16.517,2.412s4.755,10.627,5.447,12.827,2.107,3.3,2.812.012" transform="translate(-501.613 -496.043)" fill="#bd6868"/>
          <path id="Trazado_204365" data-name="Trazado 204365" d="M536.571,712.328l.686,3.358c0,1.683.189,4.1-.6,5.59-2.462,4.657-5.541,15.916-5.993,20.732-.585,6.24-1,12.759,4.379,11.9,0,0,1.576,4.865,6.352,2.538,0,0,1.234,2.7,6.708,2.34,4.918-2.157,4.831-4.215,3.712-5.922-.663-1.01-2.009.951-2.6.465-.376-.312-.329-2.293-.234-3.5.307-3.9,1.629-10.346,2.793-8.843,6.341,8.184,3.725-13.172,1.551-17.879-.009.5.2-9.466.4-10.784.171-1.162-17.159,0-17.159,0" transform="translate(-504.202 -444.42)" fill="#ff978c"/>
          <path id="Trazado_204366" data-name="Trazado 204366" d="M552.61,798.729a19.659,19.659,0,0,0,.722,7.151,10.063,10.063,0,0,0,3.361,5.6c.613.466.009,1.52-.612,1.047a11.062,11.062,0,0,1-3.806-5.926,20.733,20.733,0,0,1-.877-7.868c.081-.768,1.295-.776,1.213,0" transform="translate(-513.269 -498.325)" fill="#e25c59"/>
          <path id="Trazado_204367" data-name="Trazado 204367" d="M570.216,797.844a27.035,27.035,0,0,0,.457,6.628,6.739,6.739,0,0,0,1.095,2.538c.512.665,1.136,1.24,1.666,1.891.489.6-.364,1.463-.857.858-.564-.691-1.217-1.307-1.762-2.013a7.587,7.587,0,0,1-1.256-2.739,27.366,27.366,0,0,1-.556-7.164.607.607,0,0,1,1.213,0" transform="translate(-536.546 -497.768)" fill="#e25c59"/>
          <path id="Trazado_204368" data-name="Trazado 204368" d="M585.82,795.612c-.2,2.317-.313,5.007.606,7.153a5.771,5.771,0,0,0,.449.842,3.5,3.5,0,0,0,.366.5,10.283,10.283,0,0,1,.744.879c.434.651-.616,1.259-1.047.612-.115-.172.071.066-.053-.071l-.17-.19c-.141-.156-.282-.31-.415-.473a6.706,6.706,0,0,1-.992-1.653c-.99-2.357-.91-5.1-.7-7.6.065-.772,1.278-.779,1.213,0" transform="translate(-556.865 -496.377)" fill="#e25c59"/>
          <path id="Trazado_204369" data-name="Trazado 204369" d="M541.256,778.863a7.939,7.939,0,0,1-1.363,4.975.622.622,0,0,1-.829.218.612.612,0,0,1-.217-.829,6.852,6.852,0,0,0,1.2-4.364.606.606,0,0,1,1.213,0" transform="translate(-492.878 -485.905)" fill="#e25c59"/>
          <path id="Trazado_204370" data-name="Trazado 204370" d="M547.708,709.426c.158,1.329.339,3.217.467,4.614a2.145,2.145,0,0,1-1.707,2.3c-4.456.92-16.828,1.9-21.309-2.656-.927-.943-2-6.587-.879-8.45a2.128,2.128,0,0,1,2.186-.98l19.465,3.308a2.146,2.146,0,0,1,1.777,1.863" transform="translate(-494.17 -439.683)" fill="#fce0d9"/>
          <path id="Trazado_204371" data-name="Trazado 204371" d="M489.884,301.693c-.433,1.393-18.537,46.618-26.154,58.651-5.5,8.684-35.5,14.747-32.346-7.013s26.158-99.638,37.961-99.562c22.267.143,25.66,31.435,20.539,47.923" transform="translate(-403.151 -158.442)" fill="#543139"/>
          <path id="Trazado_204372" data-name="Trazado 204372" d="M454.6,358.541c-2.873,11.55-6.6,22.9-10.334,34.194q-1.97,5.953-4,11.887c-.251.735-1.422.419-1.169-.322,4.3-12.6,8.524-25.252,12.175-38.061.759-2.662,1.487-5.334,2.155-8.02a.607.607,0,0,1,1.169.322" transform="translate(-368.781 -223.385)" fill="#381b21"/>
          <path id="Trazado_204373" data-name="Trazado 204373" d="M451.339,311.026c.992,4.379,1.784,8.807,2.451,13.246a110.818,110.818,0,0,1,1.443,15,26.09,26.09,0,0,1-.5,6.209c-.176.76-1.346.438-1.169-.322a23.512,23.512,0,0,0,.456-5.363c-.006-2.32-.162-4.639-.379-6.948-.468-4.992-1.226-9.957-2.133-14.887-.407-2.213-.846-4.421-1.343-6.616-.172-.76,1-1.084,1.169-.322" transform="translate(-373.558 -193.918)" fill="#381b21"/>
          <path id="Trazado_204374" data-name="Trazado 204374" d="M538.55,510.577s.126,65.541-4.808,68-24.647,3.176-29.592-5.922c-2.584-4.755-1.748-46.368.709-70.163,1.466-14.206,35.445-14.214,33.69,8.083" transform="translate(-476.627 -307.604)" fill="#543139"/>
          <path id="Trazado_204375" data-name="Trazado 204375" d="M519.8,528.746a46.972,46.972,0,0,1-15.307-1.2.607.607,0,0,1,.322-1.169,45.924,45.924,0,0,0,14.985,1.161c.777-.067.773,1.146,0,1.213" transform="translate(-458.956 -328.628)" fill="#381b21"/>
          <path id="Trazado_204376" data-name="Trazado 204376" d="M515.782,520.818A79.439,79.439,0,0,0,506.3,518.4c-.766-.145-.441-1.314.322-1.169a79.432,79.432,0,0,1,9.485,2.417c.74.238.424,1.409-.322,1.169" transform="translate(-455.772 -322.926)" fill="#381b21"/>
          <path id="Trazado_204377" data-name="Trazado 204377" d="M560.765,647.954a59.979,59.979,0,0,0,11.023-1.194.615.615,0,0,1,.768.585q.031,2.988.063,5.975c.01.933.084,1.893.013,2.824a2.1,2.1,0,0,1-1.121,1.851,11.893,11.893,0,0,1-2.544.772q-1.389.333-2.8.541a33.475,33.475,0,0,1-5.748.349.607.607,0,0,1,0-1.213,30.71,30.71,0,0,0,10.119-1.363c.339-.108.682-.228.818-.589a3.12,3.12,0,0,0,.076-1.1q-.012-1.321-.028-2.643-.028-2.7-.057-5.4l.767.584a61.747,61.747,0,0,1-11.346,1.238.607.607,0,0,1,0-1.213" transform="translate(-532.183 -403.796)" fill="#381b21"/>
          <path id="Trazado_204378" data-name="Trazado 204378" d="M510.716,641.563a.872.872,0,0,0-.065.183c-.031.111-.054.224-.077.337a11.827,11.827,0,0,0-.156,1.195c-.108,1.159-.154,2.323-.183,3.486-.073,2.914-.025,5.836.163,8.745.138,2.142.333,4.276.36,6.423.025,2.053.094,4.461-.783,6.369a4.7,4.7,0,0,1-2.43,2.356,13.685,13.685,0,0,1-1.547.422,6.443,6.443,0,0,0-2.02.964c-.644.444-1.251-.606-.612-1.047a9.421,9.421,0,0,1,3.182-1.295,3.5,3.5,0,0,0,2.3-1.85,7.647,7.647,0,0,0,.593-2.69,32.449,32.449,0,0,0,.1-3.519c-.039-2.125-.239-4.237-.369-6.356-.175-2.835-.219-5.682-.148-8.521.032-1.259.08-2.522.212-3.776a5.339,5.339,0,0,1,.435-2.037.607.607,0,0,1,1.047.612" transform="translate(-449.007 -399.993)" fill="#381b21"/>
          <path id="Trazado_204379" data-name="Trazado 204379" d="M518.714,594.708a74.024,74.024,0,0,1-1.877-14.361c-.025-.78,1.188-.779,1.213,0a72.3,72.3,0,0,0,1.834,14.038c.176.759-.993,1.083-1.169.322" transform="translate(-463.272 -361.975)" fill="#381b21"/>
          <path id="Trazado_204380" data-name="Trazado 204380" d="M311.2,584.289a117.555,117.555,0,0,0-14.05-.6.607.607,0,0,1,0-1.213,117.517,117.517,0,0,1,14.05.6c.769.079.777,1.293,0,1.213" transform="translate(-172.405 -363.658)" fill="#edb1a6"/>
          <path id="Trazado_204381" data-name="Trazado 204381" d="M525.211,847.345a5.348,5.348,0,0,1-1.807.7.652.652,0,0,1-.467-.061.607.607,0,0,1-.218-.83.6.6,0,0,1,.362-.279,4.937,4.937,0,0,0,1.01-.3l-.145.061a5.012,5.012,0,0,0,.651-.336.606.606,0,0,1,.612,1.047" transform="translate(-471.055 -528.336)" fill="#8f4242"/>
          <path id="Trazado_204382" data-name="Trazado 204382" d="M605.486,827.484a3.639,3.639,0,0,1-2.21.963.609.609,0,0,1-.429-.178.606.606,0,0,1,.429-1.035c.058,0,.116-.011.174-.018l-.161.021a3.039,3.039,0,0,0,.73-.2l-.145.061a3.037,3.037,0,0,0,.655-.378l-.122.095c.077-.059.151-.122.222-.189a.606.606,0,0,1,.858.857" transform="translate(-581.274 -515.996)" fill="#8f4242"/>
          <path id="Trazado_204383" data-name="Trazado 204383" d="M362.575,1419.4l-4.945-.029c-.736,0-1.474-.029-2.21,0a2.581,2.581,0,0,0-1.737.534c-.57.532-1.429-.323-.857-.857,1.145-1.07,2.806-.9,4.255-.888l5.494.032a.607.607,0,0,1,0,1.213" transform="translate(-244.85 -885.419)" fill="#381b21"/>
          <path id="Trazado_204384" data-name="Trazado 204384" d="M393.424,1300.407c-.388-7.171-4.07-14.562-.792-21.567.331-.706,1.376-.091,1.047.612-3.122,6.671.588,14.113.958,20.955.042.78-1.171.778-1.213,0" transform="translate(-290.844 -798.249)" fill="#381b21"/>
          <path id="Trazado_204385" data-name="Trazado 204385" d="M202.331,1383.887c-.848-1.988-1.727-3.966-2.7-5.9-.5-1.006-1.03-2-1.622-2.961a6.882,6.882,0,0,0-1.412-1.813c-.626-.454-.021-1.506.612-1.047a6.993,6.993,0,0,1,1.657,1.947,33.4,33.4,0,0,1,1.684,3.005c1.021,2.014,1.94,4.079,2.825,6.155.3.71-.742,1.328-1.047.612" transform="translate(-26.408 -856.642)" fill="#381b21"/>
        </g>
      </g>
    </g>
  </g>
</svg>
