<svg xmlns="http://www.w3.org/2000/svg" xmlns:xlink="http://www.w3.org/1999/xlink" width="121" height="121" viewBox="0 0 121 121">
  <defs>
    <clipPath id="clip-path">
      <rect id="Rect치ngulo_338875" data-name="Rect치ngulo 338875" width="90.246" height="100" fill="none"/>
    </clipPath>
  </defs>
  <g id="Grupo_983926" data-name="Grupo 983926" transform="translate(-639 -616)">
    <rect id="Rect치ngulo_338850" data-name="Rect치ngulo 338850" width="121" height="121" rx="9" transform="translate(639 616)" fill="#ffe891"/>
    <g id="Grupo_983925" data-name="Grupo 983925" transform="translate(654 627)">
      <g id="Grupo_983924" data-name="Grupo 983924" clip-path="url(#clip-path)">
        <path id="Trazado_211604" data-name="Trazado 211604" d="M78.865,18.583a1.55,1.55,0,0,1,2.308.322C87.7,25.85,91.026,34,90.28,43.6a23.826,23.826,0,0,0,3.637,15.317A24.133,24.133,0,0,1,97.8,68.172a21.24,21.24,0,0,1-1.635,11.319c-.261.663-.542,1.318-.828,1.971a8.076,8.076,0,0,0,.089,7.14A13.952,13.952,0,0,1,96.8,92.43a6.792,6.792,0,0,1-6.929,8.042c-2.469.037-4.939.027-7.408-.008-.608-.008-.764.152-.74.759.055,1.427-.01,2.86.038,4.288a2.079,2.079,0,0,1-.955,2.042h-.975a1.442,1.442,0,0,1-1.223-1.392,53.458,53.458,0,0,0-.4-8.552,25.566,25.566,0,0,0-9.489-16.075,1.213,1.213,0,0,0-1.734-.12c-.353.283-.782.462-1.153.728a22.025,22.025,0,0,1-3.269,1.519,1.351,1.351,0,0,0-1.02,1.54c.041,1.071.032,2.146.006,3.218a8.3,8.3,0,0,1-5.365,7.891,8.666,8.666,0,0,1-9.153-1.75,9.013,9.013,0,0,1-2.774-6.544c-.024-1.04-.017-2.081,0-3.121a1.093,1.093,0,0,0-.8-1.182,20.97,20.97,0,0,1-4.68-2.384,1.154,1.154,0,0,0-1.5.12,25.221,25.221,0,0,0-4.318,4.21c-.772.952-1.253,1.027-2.38.546a1.842,1.842,0,0,1-.187-2.823,26.152,26.152,0,0,1,3.894-3.951c.913-.746.9-.828.082-1.656a25.759,25.759,0,0,1-5.722-8.642,1.343,1.343,0,0,0-1.673-1.017c-3.184.422-6.821-2.176-7.886-5.345a7.7,7.7,0,0,1,6.706-9.913c.765-.044.907-.409.9-1.056q-.018-4.682,0-9.365a5.034,5.034,0,0,1,3.361-4.988c.45-.186.9-.376,1.366-.524a7.374,7.374,0,0,0,4.992-5.418,18.506,18.506,0,0,0,.65-3.248,2.2,2.2,0,0,1,1.619-2.089,2.1,2.1,0,0,1,2.492,1.071c1.844,3.023,4.7,4.048,8.026,4.117,1.719.036,3.437-.029,5.159-.14a10.91,10.91,0,0,1,8.416,3.191,12.083,12.083,0,0,0,7.028,3.7,20.12,20.12,0,0,0,4.077.277,5.14,5.14,0,0,1,5.435,5.339c.014,2.6,0,5.2.006,7.8,0,1.2.009,1.19,1.22,1.335A7.531,7.531,0,0,1,84.017,54.3a11.383,11.383,0,0,1,2.306,2.712,7.487,7.487,0,0,1,.792,4.027,7.8,7.8,0,0,1-7.4,7.117,3.46,3.46,0,0,1-.486-.012c-1.473-.132-1.5-.141-2.058,1.2a24.815,24.815,0,0,1-5.777,8.462c-.827.789-.788.81.075,1.545a28.794,28.794,0,0,1,9.985,16.931,1.6,1.6,0,0,0,.34.892.7.7,0,0,0,.359.143c2.633.018,5.27.108,7.9-.04a3.7,3.7,0,0,0,3.413-5.1c-.362-.942-.77-1.862-1.172-2.785a11.021,11.021,0,0,1,0-8.907A32.18,32.18,0,0,0,94.6,73.361a15.057,15.057,0,0,0-1.378-9.1c-.989-2.057-2.234-3.964-3.321-5.964a25.037,25.037,0,0,1-2.8-14.616A26.4,26.4,0,0,0,84.6,29.449a29.2,29.2,0,0,0-5.548-8.082,2.318,2.318,0,0,1-.822-1.707c.008-.48.093-.916.639-1.078" transform="translate(-7.771 -7.553)"/>
        <path id="Trazado_211605" data-name="Trazado 211605" d="M17.235,100a2.053,2.053,0,0,1-.956-1.96c.049-1.429-.032-2.863.039-4.291.036-.719-.2-.851-.858-.84q-3.656.059-7.314.008A6.862,6.862,0,0,1,1.14,86.785a7,7,0,0,1,.85-4.24c2.01-3.53,1.664-6.916,0-10.489A19.111,19.111,0,0,1,.453,59.524a26.348,26.348,0,0,1,3.536-7.961A23.76,23.76,0,0,0,7.581,42.7,23.637,23.637,0,0,0,7.8,37.061C6.323,20.041,16.481,8.221,29.483,3.181c12.4-4.8,24.564-4.264,36.305,2.277.828.462,1.333,1.033.989,2.04a1.389,1.389,0,0,1-2.265.873,41.889,41.889,0,0,0-5.435-2.6,28.649,28.649,0,0,0-4.852-1.395A36.992,36.992,0,0,0,43.883,3.3c-7.855.323-15.139,2.467-21.406,7.371A29.294,29.294,0,0,0,10.939,30.755a28.574,28.574,0,0,0,.043,5.744,25.091,25.091,0,0,1-1.9,12.3c-.987,2.245-2.362,4.261-3.545,6.391-2.374,4.272-3.1,8.715-1.382,13.418.557,1.527,1.125,3.051,1.673,4.582A12.028,12.028,0,0,1,5.2,83.109,9.982,9.982,0,0,0,4.46,85.12,3.534,3.534,0,0,0,6.869,89.5a4.142,4.142,0,0,0,1.142.245c2.536.064,5.072.016,7.608.028.7,0,.839-.463.941-1.012a23.859,23.859,0,0,1,1.521-5.234c.567-1.306,1.3-1.588,2.657-1.069a1.658,1.658,0,0,1,.652,2.134,31.441,31.441,0,0,0-1.726,12.173,6.071,6.071,0,0,1-.221,2.121A1.351,1.351,0,0,1,18.406,100Z" transform="translate(0 0)"/>
        <path id="Trazado_211606" data-name="Trazado 211606" d="M92.842,7.117a31.01,31.01,0,0,1,9.35,3.452c.257.139.5.3.759.439,1.151.622,1.585.518,2.36-.556,0,.267.2.387.388.511,1.392.9,2.622,2.01,3.929,3.02-.66,1.006-.6,1.567.294,2.487a29.934,29.934,0,0,1,7.8,14.473,29.949,29.949,0,0,1,.336,8.819,24.928,24.928,0,0,0,3.651,15.271,30.523,30.523,0,0,1,3.516,7.042c1.237,4.026.506,7.9-1,11.686a25.951,25.951,0,0,0-1.734,5.149,11.386,11.386,0,0,0,1.2,6.689c.289.652.538,1.321.811,1.981a3.876,3.876,0,0,1-3.5,5.356c-2.822.14-5.656.042-8.485.037-.105,0-.211-.113-.316-.173a1.594,1.594,0,0,1,1.2-.258c1.462-.011,2.926-.026,4.388,0a1.64,1.64,0,0,0,1.583-.91,5.379,5.379,0,0,0,.43-4.514,25.944,25.944,0,0,0-1.252-2.856,9.535,9.535,0,0,1-.079-7.587c.405-1.063.89-2.1,1.282-3.163a22.7,22.7,0,0,0,1.452-6.647,16.254,16.254,0,0,0-1.578-7.469,22.312,22.312,0,0,0-1.247-2.428c-.164-.274-.287-.62-.727-.471a7.694,7.694,0,0,0-2.991-6.609c-1.626-4.428-1.228-9.018-1.117-13.591a25.845,25.845,0,0,0-1.993-10.448A31.866,31.866,0,0,0,104.1,14.775a35.1,35.1,0,0,0-9.651-6.5c-.588-.274-1.46-.239-1.612-1.154" transform="translate(-38.534 -2.954)" fill="#664442"/>
        <path id="Trazado_211607" data-name="Trazado 211607" d="M56.386,6.309c.362.58,1.038.631,1.576.872a33.686,33.686,0,0,1,11.386,8.136A32.082,32.082,0,0,1,76.574,28.6a17.855,17.855,0,0,1,.7,4.976c-.043,2.844,0,5.689-.018,8.534a18.776,18.776,0,0,0,.951,6.007c.1.3.438.644,0,.963a7.372,7.372,0,0,0-4.278-1.4c-.687.035-.592-.431-.593-.848,0-2.667-.107-5.339.028-8a5.16,5.16,0,0,0-5.645-5.658,12.8,12.8,0,0,1-8.861-2.306c-1-.769-1.9-1.671-2.893-2.46a11.059,11.059,0,0,0-8.216-2.271,19.215,19.215,0,0,1-7.919-.51A7.829,7.829,0,0,1,35.4,22.177c-.676-1.14-1.4-1.495-2.388-1.183A2.112,2.112,0,0,0,31.593,23.1a14.654,14.654,0,0,1-1.137,4.509A7.348,7.348,0,0,1,26,31.708a13.931,13.931,0,0,0-2.242.931,4.558,4.558,0,0,0-2.525,4.195c.025,3.317-.009,6.635.018,9.951.005.646-.132.891-.846.914a7.471,7.471,0,0,0-7.122,6.959,7.584,7.584,0,0,0,6.241,7.7,5.592,5.592,0,0,0,2.315,0,.827.827,0,0,1,1.1.625,25.3,25.3,0,0,0,6.476,9.726c.435.411.47.626-.052,1.028a27.079,27.079,0,0,0-4.445,4.358C24.1,79.1,24.107,79.7,25,80.618c-.773,1.374-1.615,2.709-2.339,4.111-1.28-.369-1.826-.121-2.284,1.072A23.615,23.615,0,0,0,18.9,91.128c-.1.743-.347,1.092-1.224,1.063-2.4-.08-4.811-.071-7.216-.017a4.032,4.032,0,0,1-4.029-5.607A30.237,30.237,0,0,0,8.19,82.038a13.878,13.878,0,0,0-1.113-8.26,30.779,30.779,0,0,1-1.8-5.445A16.013,16.013,0,0,1,7.4,57.194a52.9,52.9,0,0,0,4.054-7.648,25.975,25.975,0,0,0,1.281-11.319A27.632,27.632,0,0,1,18.37,18.746C23.909,11.308,31.525,7.271,40.559,5.728a39.607,39.607,0,0,1,15.275.4,5.536,5.536,0,0,1,.552.181" transform="translate(-2.078 -2.145)" fill="#735351"/>
        <path id="Trazado_211608" data-name="Trazado 211608" d="M47.734,39.849c2.959,2.883,6.456,3.726,10.236,3.741,1.234,0,2.466-.058,3.7-.175a8.182,8.182,0,0,1,6.123,1.718,13,13,0,0,1,1.124.934c3.443,3.471,7.7,4.625,12.451,4.449,1.982-.074,2.615.57,2.615,2.584,0,4.976.033,9.952-.008,14.928a23.244,23.244,0,0,1-18.649,22.85c-12.241,2.6-24.938-5.924-27.163-18.238a25.846,25.846,0,0,1-.431-4.652c.009-5.463.021-10.928-.013-16.391a2.01,2.01,0,0,1,1.475-2.229c4.775-1.376,7.615-4.5,8.54-9.52" transform="translate(-15.655 -16.539)" fill="#fed7b9"/>
        <path id="Trazado_211609" data-name="Trazado 211609" d="M34.235,134.491a8.637,8.637,0,0,1,2.339-4.111,1.487,1.487,0,0,0,2.106-.547,25.575,25.575,0,0,1,4.607-4.468.894.894,0,0,1,1.259-.074,20.907,20.907,0,0,0,5.184,2.643.926.926,0,0,1,.707,1.058,33.4,33.4,0,0,0,.133,5.061,8.379,8.379,0,0,0,16.63-.994c.049-1.4.025-2.8.023-4.193,0-.378.033-.645.475-.825,1.317-.538,2.6-1.148,3.9-1.73.546-.219.849.157,1.158.487a27.872,27.872,0,0,1,7.71,16.841c.159,1.679.034,3.372.052,5.058.014,1.349.03,1.372,1.344,1.378.617,0,1.235-.033,1.848.019.313.026.758-.1.823.435q-25.2-.01-50.409-.016c-.432,0-.92-.146-1.232.328a79.2,79.2,0,0,1,.5-9.143,23.965,23.965,0,0,1,1.371-5.162,1.5,1.5,0,0,0-.532-2.045" transform="translate(-13.655 -51.908)" fill="#fe80b2"/>
        <path id="Trazado_211610" data-name="Trazado 211610" d="M123.58,91.024c.209-.152.124-.421.254-.724a16.944,16.944,0,0,1,1.95,3.483,15.958,15.958,0,0,1,1.624,7.806,25.134,25.134,0,0,1-2.3,8.575,10.416,10.416,0,0,0-.979,6.791,34.444,34.444,0,0,0,1.757,4.314,5.653,5.653,0,0,1-.78,5.689c-.294.4-.649.367-1.032.367q-2.974,0-5.948,0a29.213,29.213,0,0,0-5.7-13.277,27.85,27.85,0,0,0-4.928-4.973c-.483-.375-.528-.589-.06-1.021a24.9,24.9,0,0,0,6.584-9.877c.246-.674.715-.548,1.179-.468a7.465,7.465,0,0,0,8.033-5.072c.159-.525.238-1.074.354-1.612" transform="translate(-44.453 -37.479)" fill="#735351"/>
        <path id="Trazado_211611" data-name="Trazado 211611" d="M112,150.64a9.964,9.964,0,0,0-3.349-.162c-.7-.012-1-.178-.95-.929.06-.9-.009-1.816.018-2.724a26.931,26.931,0,0,0-4.9-16.327c-.879-1.287-1.991-2.372-2.948-3.589a1.092,1.092,0,0,0-.809-.487.794.794,0,0,1,.133-.136c2.061-1.3,2.084-1.329,3.924.275a25.459,25.459,0,0,1,9,18.631c.091,1.813.015,3.634.016,5.451l-.068.024Z" transform="translate(-41.117 -52.018)" fill="#fe6ba6"/>
        <path id="Trazado_211612" data-name="Trazado 211612" d="M78.806,134.444a10.658,10.658,0,0,1-.155,2.389,5.477,5.477,0,0,1-10.778-1.049c-.062-1.1.006-2.209-.029-3.313-.018-.539.2-.564.642-.476a24.47,24.47,0,0,0,9.669.006c.548-.109.69.037.659.559-.034.583-.008,1.169-.008,1.884" transform="translate(-28.158 -54.768)" fill="#fed7b9"/>
        <path id="Trazado_211613" data-name="Trazado 211613" d="M24.164,87.3a4.609,4.609,0,0,1,4.08-4.477c.677-.054.977.06.959.856a31.607,31.607,0,0,0,.5,7.47c.156.714-.388.566-.69.607A4.5,4.5,0,0,1,24.164,87.3" transform="translate(-10.029 -34.369)" fill="#f9c7a1"/>
        <path id="Trazado_211614" data-name="Trazado 211614" d="M126.352,87.4a4.548,4.548,0,0,1-4.753,4.387c-.473-.044-.886-.075-.75-.783a44.265,44.265,0,0,0,.527-7.38c.015-.663.2-.828.831-.742a4.579,4.579,0,0,1,4.144,4.518" transform="translate(-50.147 -34.392)" fill="#f9c7a1"/>
        <path id="Trazado_211615" data-name="Trazado 211615" d="M45.413,77.571A8.2,8.2,0,0,1,53.806,69.2a8.387,8.387,0,0,1-.02,16.772,8.208,8.208,0,0,1-8.373-8.4" transform="translate(-18.849 -28.721)"/>
        <path id="Trazado_211616" data-name="Trazado 211616" d="M97.165,77.35a8.335,8.335,0,1,1-16.666.366,8.335,8.335,0,0,1,16.666-.366" transform="translate(-33.41 -28.721)"/>
        <path id="Trazado_211617" data-name="Trazado 211617" d="M72.381,111.595a6.8,6.8,0,1,1,6.758-6.8,6.913,6.913,0,0,1-6.758,6.8" transform="translate(-27.203 -40.676)"/>
        <path id="Trazado_211618" data-name="Trazado 211618" d="M96.339,60.228a11.861,11.861,0,0,1,6.091,2.309,1.443,1.443,0,1,1-1.578,2.415A10.435,10.435,0,0,0,95.7,63.109a1.372,1.372,0,0,1-1.218-1.593c.089-.841.737-1.32,1.854-1.288" transform="translate(-39.212 -24.997)"/>
        <path id="Trazado_211619" data-name="Trazado 211619" d="M51.967,60.217c1.1.011,1.733.569,1.754,1.43a1.416,1.416,0,0,1-1.452,1.486,9.49,9.49,0,0,0-4.529,1.574,2.107,2.107,0,0,1-.867.408,1.4,1.4,0,0,1-1.626-.757,1.328,1.328,0,0,1,.409-1.739,11.8,11.8,0,0,1,6.312-2.4" transform="translate(-18.712 -24.993)"/>
        <path id="Trazado_211620" data-name="Trazado 211620" d="M61.148,79.7a5.412,5.412,0,0,1-10.824.1,5.413,5.413,0,1,1,10.824-.1" transform="translate(-20.886 -30.811)" fill="#fefefe"/>
        <path id="Trazado_211621" data-name="Trazado 211621" d="M85.5,79.694a5.413,5.413,0,1,1,10.823.1,5.412,5.412,0,0,1-10.823-.1" transform="translate(-35.487 -30.811)" fill="#fefefe"/>
        <path id="Trazado_211622" data-name="Trazado 211622" d="M78.291,106.484a11.006,11.006,0,0,0-7.448.008,3.612,3.612,0,0,1,3.567-3.483,3.75,3.75,0,0,1,3.881,3.475" transform="translate(-29.403 -42.752)" fill="#fdfdfd"/>
        <path id="Trazado_211623" data-name="Trazado 211623" d="M75.174,112.873a6.985,6.985,0,0,1,2.478.388c.45.144.387.3.106.587a3.949,3.949,0,0,1-5.149.012c-.384-.378-.238-.489.181-.622a6.891,6.891,0,0,1,2.384-.364" transform="translate(-30.044 -46.845)" fill="#e46b6b"/>
        <path id="Trazado_211624" data-name="Trazado 211624" d="M59.972,79.13a1.359,1.359,0,0,1-1.343,1.478,1.449,1.449,0,1,1,1.343-1.478" transform="translate(-23.724 -32.255)" fill="#020202"/>
        <path id="Trazado_211625" data-name="Trazado 211625" d="M93.718,84.382a1.448,1.448,0,0,1,.026,2.9,1.356,1.356,0,0,1-1.393-1.431,1.38,1.38,0,0,1,1.366-1.466" transform="translate(-38.33 -35.022)" fill="#020202"/>
      </g>
    </g>
  </g>
</svg>
