<svg xmlns="http://www.w3.org/2000/svg" xmlns:xlink="http://www.w3.org/1999/xlink" width="121" height="121" viewBox="0 0 121 121">
  <defs>
    <clipPath id="clip-path">
      <rect id="Rect치ngulo_338876" data-name="Rect치ngulo 338876" width="84.163" height="102.661" fill="none"/>
    </clipPath>
  </defs>
  <g id="Grupo_983929" data-name="Grupo 983929" transform="translate(-20099 11084)">
    <rect id="Rect치ngulo_338853" data-name="Rect치ngulo 338853" width="121" height="121" rx="9" transform="translate(20099 -11084)" fill="#ffe891"/>
    <g id="Grupo_983928" data-name="Grupo 983928" transform="translate(20117 -11075)">
      <g id="Grupo_983927" data-name="Grupo 983927" clip-path="url(#clip-path)">
        <path id="Trazado_211626" data-name="Trazado 211626" d="M42.53,101.2a1.681,1.681,0,0,1-1.93,1.46c-9.69-.016-19.38.006-29.069-.015A6.563,6.563,0,0,1,5.759,92.7a2.368,2.368,0,0,0,.266-1.237q0-7.919,0-15.838a14.807,14.807,0,0,1,9.958-14.481c6.084-2.354,12.154-4.747,18.239-7.1a1.114,1.114,0,0,0,.816-1.139,4.965,4.965,0,0,0-1.876-4.738,13.3,13.3,0,0,1-4.318-8.042c-.132-.727-.317-1.128-1.223-1.307a6.974,6.974,0,0,1-4.013-11.5c.43-.511.438-.8.025-1.294a4.6,4.6,0,0,1-1.107-2.949,124.459,124.459,0,0,1,.121-12.92A11.328,11.328,0,0,1,32.055.195c.16-.029.338-.01.424-.195H50.924a1.19,1.19,0,0,0,.326.173A6.076,6.076,0,0,1,56.523,5.2a1.563,1.563,0,0,0,1.794,1.419A5.908,5.908,0,0,1,64.211,11.7a18.4,18.4,0,0,1,.1,2.9c.008,1.019-.711,1.4-1.537,1.66A1.416,1.416,0,0,1,61.1,14.89c-.079-.6-.016-1.2-.047-1.8a2.964,2.964,0,0,0-3.193-3.185,4.343,4.343,0,0,1-4.374-3.43C52.952,4.227,51.936,3.3,49.148,3.3q-6.447-.013-12.894,0a27.047,27.047,0,0,0-3.1.075,8.4,8.4,0,0,0-7.385,8.493c-.036,3.373-.019,6.746,0,10.119.01,2.034.914,3,2.961,3.151,1.2.09,2.4.025,3.605.034,4.341.034,8.683.01,13.024.012a2.383,2.383,0,0,0,.792-.083,8.458,8.458,0,0,0,6.472-4.047,3.881,3.881,0,0,1,.635-.772,1.925,1.925,0,0,1,3.276.991c.1.389.084.8.2,1.184a3.437,3.437,0,0,0,2.66,2.581,1.241,1.241,0,0,0,1.67-1.209c.081-.764-.029-1.538.061-2.3a1.333,1.333,0,0,1,1.85-1.3,1.429,1.429,0,0,1,1.325,1.5,11.229,11.229,0,0,1-.158,3.487.812.812,0,0,0,.354.987A7.166,7.166,0,0,1,61,38.9c-.486.089-.636.269-.718.742a15.608,15.608,0,0,1-5.805,9.844A1.114,1.114,0,0,0,54,50.5c.043,1.064-.294,2.319.163,3.141s1.841.9,2.825,1.286c5.58,2.173,11.173,4.313,16.755,6.483a14.684,14.684,0,0,1,9.23,13.254c.084,5.576.03,11.154.022,16.732a2.941,2.941,0,0,0,.392,1.5,6.559,6.559,0,0,1-5.613,9.735c-9.818.055-19.637.014-29.455.026a1.634,1.634,0,0,1-1.827-1.457,1.426,1.426,0,0,1,1.163-1.745,5.481,5.481,0,0,1,1.494-.108q8.213,0,16.428-.007a1.7,1.7,0,0,0,1.194-.179,4.949,4.949,0,0,0-.86-1.207c-1.344-1.7-2.729-3.376-4.056-5.093a2.269,2.269,0,0,0-1.965-.95q-15.376.024-30.752.007a2.025,2.025,0,0,0-1.771.714c-1.638,2.067-3.3,4.116-4.936,6.185a.388.388,0,0,0-.111.391c.338.253.749.131,1.13.131q8.214.013,16.428.007a5.481,5.481,0,0,1,1.494.108A1.426,1.426,0,0,1,42.53,101.2" transform="translate(-2.427)"/>
        <path id="Trazado_211627" data-name="Trazado 211627" d="M89.841,23.256c-1.242.106-1.63.516-1.65,1.762-.01.634.012,1.269-.008,1.9a1.359,1.359,0,0,1-1.776,1.451,3.692,3.692,0,0,1-3.154-3.393c-.078-1.018-.423-1.771-1.462-1.991-1.012-.214-1.587.413-2.082,1.2a8.136,8.136,0,0,1-6.495,4.115,2.188,2.188,0,0,1-.986.077q-5.8.008-11.609,0c-1.339,0-1.761-.334-2.077-1.637a5,5,0,0,1-.1-1.194c0-3.8-.039-7.607.011-11.409a9.938,9.938,0,0,1,3.268-7.179,4.365,4.365,0,0,1,1.433-.9c4.532-.009,9.065-.059,13.6-.011,2.251.024,3.249.922,3.8,3.088a4.177,4.177,0,0,0,4.437,3.5,3.037,3.037,0,0,1,3.189,3.008,10.5,10.5,0,0,1,0,1.6,1.714,1.714,0,0,0,1.463,2.034c.129,1.32-.239,2.665.2,3.969" transform="translate(-29.297 -3.028)" fill="#7b6c79"/>
        <path id="Trazado_211628" data-name="Trazado 211628" d="M59.172,193.341c-.29-1.23-.678-1.554-1.927-1.554q-8.97-.006-17.94,0H38.03c.769-.97,1.438-1.818,2.113-2.662,1.274-1.59,2.563-3.167,3.82-4.769a1.318,1.318,0,0,1,1.161-.587q16.036.027,32.072.012a1.047,1.047,0,0,1,.971.348c1.985,2.508,3.994,5,6.128,7.658h-1.2q-9.02,0-18.04,0c-1.25,0-1.64.328-1.925,1.555H59.172" transform="translate(-19.068 -92.14)" fill="#60b8fd"/>
        <path id="Trazado_211629" data-name="Trazado 211629" d="M4.29,94.274c-.9,0-1.8.019-2.7-.005a1.5,1.5,0,1,1,.014-2.994c1.832-.026,3.664-.023,5.5,0a1.506,1.506,0,1,1-.014,3c-.932.019-1.865,0-2.8,0" transform="translate(0 -45.756)"/>
        <path id="Trazado_211630" data-name="Trazado 211630" d="M155.68,91.272c.866,0,1.732-.013,2.6,0A1.555,1.555,0,0,1,160,92.806a1.528,1.528,0,0,1-1.677,1.467q-2.7.025-5.4,0a1.505,1.505,0,1,1-.045-3c.932-.026,1.865-.005,2.8-.006" transform="translate(-75.838 -45.76)"/>
        <path id="Trazado_211631" data-name="Trazado 211631" d="M7.367,69.369a2.112,2.112,0,0,1,1.036.323c1.495.866,2.994,1.724,4.481,2.6a1.562,1.562,0,0,1,.782,2.167,1.533,1.533,0,0,1-2.249.441c-1.564-.878-3.114-1.781-4.667-2.679a1.479,1.479,0,0,1-.775-1.772,1.424,1.424,0,0,1,1.393-1.082" transform="translate(-2.964 -34.781)"/>
        <path id="Trazado_211632" data-name="Trazado 211632" d="M154.853,111.808a1.439,1.439,0,0,1-2.085,1.362c-1.793-.939-3.548-1.964-5.26-3.044a1.335,1.335,0,0,1-.345-1.95,1.3,1.3,0,0,1,1.807-.576c1.783.961,3.527,1.993,5.273,3.021a1.279,1.279,0,0,1,.609,1.188" transform="translate(-73.652 -53.864)"/>
        <path id="Trazado_211633" data-name="Trazado 211633" d="M13.83,109.064a1.429,1.429,0,0,1-.72,1.236c-1.636.952-3.264,1.921-4.919,2.84a1.457,1.457,0,0,1-2.083-.5,1.472,1.472,0,0,1,.646-2.12c1.57-.934,3.149-1.856,4.75-2.735a1.476,1.476,0,0,1,2.327,1.279" transform="translate(-2.948 -53.922)"/>
        <path id="Trazado_211634" data-name="Trazado 211634" d="M153.335,69.366a1.441,1.441,0,0,1,1.429.962,1.342,1.342,0,0,1-.478,1.7c-1.761,1.066-3.545,2.1-5.356,3.071a1.462,1.462,0,0,1-1.539-2.423,48.832,48.832,0,0,1,5.595-3.236,1.2,1.2,0,0,1,.35-.069" transform="translate(-73.647 -34.78)"/>
        <path id="Trazado_211635" data-name="Trazado 211635" d="M70.83,53.287c1.969-.018,3.938-.049,5.907-.052,4.934-.007,6.53-.578,10.244-3.715a7.027,7.027,0,0,0,3.084,3,.594.594,0,0,1,.384.621c-.094,3.6.254,7.224-.2,10.813-.69,5.515-5.885,10.392-11.176,10.614a2.241,2.241,0,0,1-1.972-.456,14.244,14.244,0,0,1-6.55-11.974c-.04-2.5-.01-5.009,0-7.514a1.874,1.874,0,0,1,.278-1.339" transform="translate(-35.367 -24.829)" fill="#fecdbd"/>
        <path id="Trazado_211636" data-name="Trazado 211636" d="M100.551,155.779c-4.081,0-7.987,0-11.893-.008-.216,0-.57.169-.589-.3-.017-.444.3-.539.622-.653a5.852,5.852,0,0,0,3.972-4.158,5.719,5.719,0,0,0-3.677-6.819,1.11,1.11,0,0,1-.891-1.278c.058-1.266.012-2.537.02-3.806,0-.219-.105-.523.165-.625.239-.091.423.146.594.3a2.859,2.859,0,0,1,.976,1.911c.125,1.157.754,1.729,1.722,1.6a1.546,1.546,0,0,0,1.266-1.941,5.852,5.852,0,0,0-3.746-4.919c-.213-.092-.441-.15-.659-.232a.561.561,0,0,1-.357-.648c.052-.426.414-.248.638-.252,1.168-.019,2.337-.009,3.507-.009q6.161,0,12.323,0c1.6,0,2.152.567,2.156,2.181,0,2.071-.007,4.141.007,6.212,0,.457-.077.687-.614.8a8.25,8.25,0,0,0-5.822,12.055c.07.142.138.285.28.58" transform="translate(-44.157 -67.148)" fill="#73d478"/>
        <path id="Trazado_211637" data-name="Trazado 211637" d="M110.527,123.478a18.1,18.1,0,0,0,2.082-4.115c.126-.4.369-.367.7-.238,4.4,1.726,8.907,3.235,13.191,5.218a10.894,10.894,0,0,1,6.429,10c.184,4.5.04,9.015.04,13.546-.388.018-.465-.332-.628-.534q-3.433-4.245-6.839-8.511a8.2,8.2,0,0,0-3.91-2.838.793.793,0,0,1-.634-.925c.029-2.237.024-4.475.008-6.713a4.673,4.673,0,0,0-4.927-4.89c-1.789-.012-3.579,0-5.512,0" transform="translate(-55.418 -59.686)" fill="#60b8fd"/>
        <path id="Trazado_211638" data-name="Trazado 211638" d="M70.569,134.753c-.223.294-.592.285-.892.411a5.852,5.852,0,0,0-3.735,5.432,5.73,5.73,0,0,0,3.787,5.376,1.154,1.154,0,0,1,.921,1.346c-.061,1.463-.018,2.929-.018,4.533a2.729,2.729,0,0,1-1.678-2.281c-.135-1.16-.772-1.8-1.668-1.712-.918.094-1.446.819-1.324,2a5.842,5.842,0,0,0,3.824,4.961,4.114,4.114,0,0,0,.566.2c.338.093.379.382.357.635-.03.361-.36.211-.553.211q-5.307,0-10.613-.03a1.6,1.6,0,0,1-.326-1.223q-.016-9.561,0-19.122c0-1.326.088-1.382,1.44-1.382q4.606,0,9.211,0c.407,0,.994-.138.7.646" transform="translate(-29.687 -67.237)" fill="#73d477"/>
        <path id="Trazado_211639" data-name="Trazado 211639" d="M57.043,6.069a13.763,13.763,0,0,0-3.2,3.644,9.313,9.313,0,0,0-1.2,4.171c-.033,4.008,0,8.016-.019,12.024a3.835,3.835,0,0,0,.368,1.532,1.267,1.267,0,0,0,1.383.857c3.874-.032,7.748-.016,11.623-.014.367,0,.734.014,1.1.022a1.94,1.94,0,0,1-1.17.152q-8.112,0-16.225-.01c-2.415-.005-3.464-1.07-3.466-3.488,0-3.338-.011-6.676,0-10.015a8.621,8.621,0,0,1,8.9-8.908c.634,0,1.267.022,1.9.034" transform="translate(-23.181 -3.026)" fill="#665e68"/>
        <path id="Trazado_211640" data-name="Trazado 211640" d="M64.712,57.009c0,2.872-.006,5.744,0,8.616a14.061,14.061,0,0,0,6.573,12.09,2.839,2.839,0,0,0,1.672.577A12.639,12.639,0,0,1,61.7,74.19a12.324,12.324,0,0,1-3.344-8.547c-.041-2.635,0-5.271-.018-7.906,0-.5.042-.812.679-.795,1.9.051,3.8.047,5.7.065" transform="translate(-29.248 -28.551)" fill="#feb09f"/>
        <path id="Trazado_211641" data-name="Trazado 211641" d="M20.436,143.339l-7.026,8.877c-.319-.295-.178-.609-.179-.879q-.017-5.81-.007-11.62c.006-6.146,3.266-10.472,9.215-12.239.162.508-.134.907-.338,1.316a12.39,12.39,0,0,0-1.384,5.98c.064,2.3.013,4.607.015,6.91a3.368,3.368,0,0,1-.3,1.655" transform="translate(-6.619 -63.917)" fill="#1ca7fe"/>
        <path id="Trazado_211642" data-name="Trazado 211642" d="M133.4,178.9c-1.768.011-3.537.012-5.3.04a1.036,1.036,0,0,1-.926-.437c-3.14-3.939-6.321-7.846-9.44-11.8a5.251,5.251,0,0,1,7.06-7.621A7.072,7.072,0,0,0,123.218,163a6.952,6.952,0,0,0,1.86,5.12c2.63,3.186,5.169,6.446,7.759,9.664.259.322.632.619.564,1.119" transform="translate(-58.441 -79.293)" fill="#fea58d"/>
        <path id="Trazado_211643" data-name="Trazado 211643" d="M18.614,178.889c-1.366.01-2.733.032-4.1.029a3.491,3.491,0,0,1-3.322-1.993,3.382,3.382,0,0,1,.431-3.842c1.806-2.311,3.66-4.585,5.5-6.872,1.648-2.054,3.268-4.131,4.959-6.149a5.1,5.1,0,0,1,6.983-1q-4.431,5.625-8.946,11.181c-.59.726-1.17,1.461-1.728,2.209A4.819,4.819,0,0,0,18.234,178c.172.272.468.5.379.885" transform="translate(-5.406 -79.277)" fill="#fea58d"/>
        <path id="Trazado_211644" data-name="Trazado 211644" d="M25.1,179.846a5.316,5.316,0,0,1-.008-7.142c3.374-4.005,6.567-8.163,9.822-12.267a.847.847,0,0,1,.633-.416,5.141,5.141,0,0,1,1.2,7.658c-1.891,2.452-3.864,4.841-5.8,7.257-.958,1.2-2,2.332-2.85,3.6a2.644,2.644,0,0,1-3,1.307" transform="translate(-11.893 -80.234)" fill="#feb09f"/>
        <path id="Trazado_211645" data-name="Trazado 211645" d="M139.826,179.848c-2.645-3.328-5.261-6.679-7.948-9.973a9.116,9.116,0,0,1-2.377-4.088,6.817,6.817,0,0,1,1.087-5.336.8.8,0,0,1,.627-.424,3.158,3.158,0,0,1,1.195,1.035q5.149,6.4,10.287,12.809a3.487,3.487,0,0,1,.55,4.01,3.38,3.38,0,0,1-3.421,1.966" transform="translate(-64.866 -80.238)" fill="#feb09f"/>
        <path id="Trazado_211646" data-name="Trazado 211646" d="M71.98,115.909c-2.866.015-5.732.024-8.6.051a1.091,1.091,0,0,1-.85-.433,13.758,13.758,0,0,1-2.808-4.561c-.234-.61-.033-.8.5-.988,1.035-.362,2.048-.786,3.068-1.191a2.924,2.924,0,0,0,2.193-3.174c.041-1.8.045-1.813,1.774-1.266a20.724,20.724,0,0,0,4.72.765,1.611,1.611,0,0,1,.318,1.218q.016,4.179,0,8.358a1.657,1.657,0,0,1-.319,1.22" transform="translate(-29.897 -52.161)" fill="#fea58d"/>
        <path id="Trazado_211647" data-name="Trazado 211647" d="M84.4,115.786q0-5.4,0-10.8a17.62,17.62,0,0,0,5.868-1.114c.543-.221.683-.021.615.455-.4,2.828,1.015,4.312,3.613,4.946a5.323,5.323,0,0,1,.651.254c1.855.721,1.856.722.962,2.571-.131.269-.28.53-.416.8-1.036,2.041-2.389,3.337-4.992,2.985a49.96,49.96,0,0,0-6.3-.1" transform="translate(-42.319 -52.039)" fill="#feb09f"/>
        <path id="Trazado_211648" data-name="Trazado 211648" d="M62.617,134.668c.023-.532-.32-.557-.725-.556-3.171.007-6.342.028-9.513-.012-.835-.01-.8.448-.8,1.018q.012,10.314.008,20.627h-2.01a16.435,16.435,0,0,0,1.041-2.893,8.274,8.274,0,0,0-6.461-9.675c-.627-.123-.823-.307-.812-.938.037-2.138,0-4.276.02-6.415a1.677,1.677,0,0,1,1.861-1.868c5.646-.02,11.292-.012,16.938-.027.623,0,.82.177.45.739" transform="translate(-21.735 -67.152)" fill="#4bcd5b"/>
        <path id="Trazado_211649" data-name="Trazado 211649" d="M27.691,139.071c0-3.327-.052-6.655.013-9.98a13.083,13.083,0,0,1,1.989-5.881q5.242-2.083,10.482-4.169c.339-.135.556-.113.678.272a15.739,15.739,0,0,0,2.111,4.128c-1.79,0-3.415.084-5.028-.018a4.931,4.931,0,0,0-5.468,5.5c.128,2,.006,4.007.034,6.01.008.56-.081.9-.7,1.081a8.827,8.827,0,0,0-4.109,3.055" transform="translate(-13.874 -59.649)" fill="#60b8fd"/>
        <path id="Trazado_211650" data-name="Trazado 211650" d="M48.624,60.637c0,1-.02,2,.008,3,.016.56-.085.821-.721.583a4.089,4.089,0,0,1-2.9-3.267,4.157,4.157,0,0,1,1.756-4.013c.536-.436,1.109-.176,1.625-.065.47.1.218.626.23.955.034.933.012,1.869.012,2.8Z" transform="translate(-22.541 -28.429)" fill="#fda994"/>
        <path id="Trazado_211651" data-name="Trazado 211651" d="M119.756,60.623a4.029,4.029,0,0,1-2.618,5.59c-.46.128-.676.083-.656-.463.039-1.091.037-2.184.052-3.276a1.094,1.094,0,0,1,.565-.386,5.5,5.5,0,0,0,2.657-1.465" transform="translate(-58.403 -30.396)" fill="#fda58d"/>
        <path id="Trazado_211652" data-name="Trazado 211652" d="M119.726,58.459c-.186.876-.97,1.1-1.626,1.407a9.415,9.415,0,0,1-1.6.444c-.015-.931-.051-1.864-.034-2.795.006-.328-.225-.812.272-.948s1.036-.51,1.587,0a4.01,4.01,0,0,1,1.4,1.887" transform="translate(-58.373 -28.232)" fill="#fdb09e"/>
        <path id="Trazado_211653" data-name="Trazado 211653" d="M88.142,159.554a2.764,2.764,0,0,1,0,5.133v-5.133" transform="translate(-44.194 -80)" fill="#6ecc73"/>
        <path id="Trazado_211654" data-name="Trazado 211654" d="M80.427,144.731c0,.667,0,1.334,0,2,0,.413-.169.464-.476.234a2.7,2.7,0,0,1-.022-4.484c.322-.242.489-.133.493.249.006.667,0,1.334,0,2" transform="translate(-39.482 -71.376)" fill="#72d377"/>
      </g>
    </g>
  </g>
</svg>
