<svg xmlns="http://www.w3.org/2000/svg" xmlns:xlink="http://www.w3.org/1999/xlink" width="121" height="121" viewBox="0 0 121 121">
  <defs>
    <clipPath id="clip-path">
      <rect id="Rect치ngulo_338877" data-name="Rect치ngulo 338877" width="80.676" height="87" fill="none"/>
    </clipPath>
  </defs>
  <g id="Grupo_983932" data-name="Grupo 983932" transform="translate(-20953 11084)">
    <rect id="Rect치ngulo_338855" data-name="Rect치ngulo 338855" width="121" height="121" rx="9" transform="translate(20953 -11084)" fill="#ffe891"/>
    <g id="Grupo_983931" data-name="Grupo 983931" transform="translate(20973 -11067)">
      <g id="Grupo_983930" data-name="Grupo 983930" clip-path="url(#clip-path)">
        <path id="Trazado_211655" data-name="Trazado 211655" d="M88.356,0a11.018,11.018,0,0,0,2.612.4c8.2,1.293,13.371,6.193,16.209,13.737a20.49,20.49,0,0,1,.735,13.23,10.986,10.986,0,0,1-2.009,3.771,6.285,6.285,0,0,1,3.7,4.073,7.925,7.925,0,0,1-6.1,9.61,2.491,2.491,0,0,0-1.953,1.473,35.183,35.183,0,0,1-8.255,9.929c-.31.262-.578.472-.511.962q.342,2.479.6,4.969a.7.7,0,0,0,.586.685c.977.279,1.952.569,2.919.88a.636.636,0,0,0,.849-.217,3.173,3.173,0,0,1,3.585-1.075c2.061.6,4.131,1.175,6.16,1.868,6.333,2.163,9.888,6.656,10.972,13.2.4,2.425.857,4.842,1.288,7.262.01.056.027.11.037.166.2,1.145-.078,1.811-.855,2.022-.759.206-1.328-.26-1.676-1.371a8,8,0,0,1-.688-2.855c-.347-1.861-.647-3.732-1.02-5.588a12.7,12.7,0,0,0-8.915-10.18c-1.716-.578-3.453-1.09-5.191-1.6-1.481-.433-1.724-.237-1.79,1.337,0,.113,0,.226,0,.34q-.242,2.856-.731,5.679a1.652,1.652,0,0,1-1.789,1.523c-1.029-.492-1.293-.878-1.168-1.986.171-1.517.417-3.025.6-4.541.122-1,.048-1.141-.935-1.473q-.2-.068-.4-.13c-1.168-.353-1.167-.353-1.689.746a1.6,1.6,0,0,1-.215.261c-1.619,4.246-4.975,6.091-9.247,6.616-.646.079-.83.25-.823.9.034,3.48.016,6.96.015,10.44a4.954,4.954,0,0,1-.016.763,1.267,1.267,0,0,1-2.52.011,4.13,4.13,0,0,1-.015-.678q0-35.437,0-70.872c0-1.181.192-1.468,1.158-1.755a1.238,1.238,0,0,1,1.579,1.156,9.731,9.731,0,0,1,.051,1.693c.006,1.131.023,2.262-.006,3.392a.919.919,0,0,0,.907,1.074,40.127,40.127,0,0,0,5.74.48,16.826,16.826,0,0,1,5.758.883,12.675,12.675,0,0,1,7.078,6.123c.261.59.456,1.209.706,1.851.4-.117.529-.445.7-.716a9.632,9.632,0,0,0,1.419-4.582,20.41,20.41,0,0,0-6.423-16.7A13.13,13.13,0,0,0,93.6,3.893,29.787,29.787,0,0,0,84.308,2.8c-.585,0-.8.275-.8.829,0,1.184,0,2.369,0,3.553a3.673,3.673,0,0,1-.076.925,1.231,1.231,0,0,1-1.731.929,1.241,1.241,0,0,1-1-1.364c0-1.828.007-3.656,0-5.483A2.434,2.434,0,0,1,82.234,0h.85a16.368,16.368,0,0,0,2.624.087c.371-.041.756.09,1.117-.087h.68a.22.22,0,0,0,.34,0Z" transform="translate(-39.164)"/>
        <path id="Trazado_211656" data-name="Trazado 211656" d="M88.066.16A8.713,8.713,0,0,1,85.335,0h2.721c.054.032.073.066.058.1s-.031.057-.047.057" transform="translate(-41.415)" fill="#111"/>
        <path id="Trazado_211657" data-name="Trazado 211657" d="M90.632.16c-.006-.053-.009-.106-.011-.16h1.02c-.293.326-.673.109-1.009.16" transform="translate(-43.98)" fill="#2b2b2b"/>
        <path id="Trazado_211658" data-name="Trazado 211658" d="M94.264,0c-.113.249-.226.223-.34,0Z" transform="translate(-45.583)" fill="#818181"/>
        <path id="Trazado_211659" data-name="Trazado 211659" d="M12.626,15.031c-1.058-.533-1.28-1.089-.76-2.1,2.471-4.79,6.287-7.517,11.793-7.627a6.95,6.95,0,0,1,2.6.354,1.459,1.459,0,0,0,1.7-.447A19.934,19.934,0,0,1,35.895.658C37.752.109,38.988,1,38.988,2.925q0,41.3.009,82.611c0,.785-.17,1.441-1,1.642-.8.192-1.27-.286-1.567-.975a1.78,1.78,0,0,1-.222-1.222c-.006-3.219,0-6.438,0-9.656,0-1.01-.008-1-.985-1.172a11.762,11.762,0,0,1-6.858-3.4,8.84,8.84,0,0,1-2.042-3.564c-.353-1.162-.342-1.165-1.531-.83-1.855.559-1.572.458-1.341,2.078a81.182,81.182,0,0,0,4.3,16.3,1.833,1.833,0,0,1,.059,1.631c-.843,1.221-1.767,1.156-2.55-.181a1.775,1.775,0,0,1-.553-.936,84.18,84.18,0,0,1-4.424-17.584c-.062-.505-.053-1.015-.136-1.521-.108-.655-.459-.846-1.079-.715a21.64,21.64,0,0,0-2.284.662,29.965,29.965,0,0,0-6.06,2.181,13.087,13.087,0,0,0-6.521,9.737c-.375,2.375-.843,4.736-1.261,7.1a1.327,1.327,0,0,1-.334.851c-.044.1-.1.205-.131.312a1.186,1.186,0,0,1-1.51.886,1.187,1.187,0,0,1-.93-1.488c.431-2.506.9-5.006,1.316-7.514A19.222,19.222,0,0,1,3.005,72.5a15.758,15.758,0,0,1,9.45-8c1.954-.654,3.949-1.181,5.92-1.783A3.267,3.267,0,0,1,22.181,63.8a.585.585,0,0,0,.781.207c.964-.322,1.938-.618,2.921-.875a.679.679,0,0,0,.59-.683q.27-2.488.6-4.969a.8.8,0,0,0-.362-.78c-.831-.726-1.659-1.456-2.455-2.22-.837-.8-.829-1.361-.038-2.244.692-.527,1.187-.5,1.931.184.853.784,1.65,1.628,2.572,2.342a17.98,17.98,0,0,0,6.268,3.3c1.071.292,1.2.192,1.207-.886.005-1.5-.015-3,.009-4.5a.8.8,0,0,0-.8-.955,5.511,5.511,0,0,1-3.864-2.377A1.428,1.428,0,0,1,31.55,47.4a1.517,1.517,0,0,1,1.786-.342,2.408,2.408,0,0,1,.761.665,2.884,2.884,0,0,0,1.419.887c.426.118.662-.028.672-.481q.026-1.188,0-2.376c-.012-.467-.343-.6-.711-.716a1.735,1.735,0,0,1-1.092-.748,1.441,1.441,0,0,1,.939-2.2c.837-.117.887-.529.886-1.19Q36.191,31.951,36.2,23a.988.988,0,0,0-.693-1.173,27.489,27.489,0,0,1-3.851-2.077c-.566-.408-1.13-.818-1.676-1.254-1.081-.846-1.075-.843-1.633.41a13.494,13.494,0,0,1-5.392,6.249,8.035,8.035,0,0,0-4.15,7.542,41.467,41.467,0,0,0,.113,4.988,35.531,35.531,0,0,0,.33,3.539A14.384,14.384,0,0,0,21.6,46.9a6.938,6.938,0,0,1,.762,1.221c.221.541.355,1.094-.237,1.521-1,.689-1.581.594-2.277-.387a20.047,20.047,0,0,1-2.038-3.413.977.977,0,0,0-.853-.644,8.012,8.012,0,0,1-6.888-8.732A5.962,5.962,0,0,1,12.819,32c.261-.178.535-.256.2-.674-2.3-2.915-2.973-6.336-3-9.941-.005-.565.032-1.131.069-1.7.063-.988.473-1.364,1.512-1.41.857.13,1.174.441,1.237,1.306.06.817.028,1.639.019,2.459a13.21,13.21,0,0,0,1.614,6.514,4.586,4.586,0,0,0,1.357,1.572c.268-.106.238-.335.276-.513a10.129,10.129,0,0,1,5.038-6.829c3.023-1.752,4.422-4.576,5.466-7.689a1.562,1.562,0,0,0,.07-.671c-.2-1.769-.381-3.538-.529-5.312-.049-.6-.481-.792-.986-.878a9.472,9.472,0,0,0-6.538,1.2,10.975,10.975,0,0,0-4.246,4.621c-.52,1.011-.927,1.217-1.754.974" transform="translate(0 -0.242)"/>
        <path id="Trazado_211660" data-name="Trazado 211660" d="M53.973,39.576q.012,9.633.022,19.267a1.251,1.251,0,0,1-.05.245,3.658,3.658,0,0,0-.924-.1,1.178,1.178,0,0,0-1.1,1.112,1.1,1.1,0,0,0,.9,1.338c1.173.119,1.272.785,1.187,1.717a12.672,12.672,0,0,0,0,2.035c.039.549-.206.616-.644.523a3.278,3.278,0,0,1-1.993-1.188c-.615-.783-1.352-.938-1.961-.462-.636.5-.659,1.218-.054,2.022a5.385,5.385,0,0,0,4.056,2.175c.483.038.6.181.6.643-.024,1.924-.045,3.849.009,5.772.02.691-.3.646-.752.556a15.968,15.968,0,0,1-6.054-2.744A25.074,25.074,0,0,1,43.6,69.405a1.477,1.477,0,0,0-1.827-.43,18.559,18.559,0,0,0-2.1-2.594,1.627,1.627,0,0,0-.248-1.941,15.468,15.468,0,0,1-3.145-10.023,21.577,21.577,0,0,1-.013-4.137,9.593,9.593,0,0,1,1.586-3.525,11.12,11.12,0,0,1,3.707-4.091,11.43,11.43,0,0,0,4.266-5.755c.167-.419.3-.854.5-1.256.3-.588.732-.851,1.378-.5l1.537,1.138a28.285,28.285,0,0,0,3.388,2.3c.47.286,1.04.445,1.329.978" transform="translate(-17.56 -16.984)" fill="#f1d0a4"/>
        <path id="Trazado_211661" data-name="Trazado 211661" d="M5.049,146.859a79.542,79.542,0,0,1,1.969-10.472c1.326-4.4,4.443-7.176,8.77-8.6,1.876-.618,3.778-1.156,5.672-1.716.877-.259,1.241-.075,1.318.751a80.531,80.531,0,0,0,4.9,20.091.716.716,0,0,1,.021.168q-10.791.008-21.584.021a2.964,2.964,0,0,1-1.067-.24" transform="translate(-2.45 -61.13)" fill="#f4dd46"/>
        <path id="Trazado_211662" data-name="Trazado 211662" d="M103.777,29.916A12.765,12.765,0,0,0,93.043,23.1a63.912,63.912,0,0,1-7.853-.627c-.708-.146-1.051-.349-1.012-1.168.076-1.608.03-3.222.02-4.834-.007-1.024-.372-1.412-1.39-1.534a7.166,7.166,0,0,0-.161-3.493c1.181-.024,1.548-.395,1.552-1.591.005-1.443,0-2.886,0-4.33,0-.283-.044-.569.4-.57a31.6,31.6,0,0,1,9.99,1.1.774.774,0,0,1,.146.084,15.4,15.4,0,0,1,6.584,6.043,21.7,21.7,0,0,1,3.582,9.884,16.79,16.79,0,0,1-.436,7.147c-.1.31-.076.857-.694.709" transform="translate(-40.11 -2.401)" fill="#7a6d79"/>
        <path id="Trazado_211663" data-name="Trazado 211663" d="M110.2,137.092c1.145-.064,1.5-.385,1.661-1.581.253-1.834.489-3.671.733-5.507a.469.469,0,0,1,.328-.048c3,.813,6.03,1.549,8.576,3.48a14.878,14.878,0,0,1,5.725,9.85c.232,1.392.513,2.776.735,4.169.108.68.323,1.123,1.119,1.018a.7.7,0,0,1,.692.23,1.351,1.351,0,0,1-.826.11q-10.537,0-21.075-.01c-.18-.331.027-.6.156-.872a34.526,34.526,0,0,0,1.886-5.166,2.08,2.08,0,0,0-.516-2.459,6.421,6.421,0,0,1,.8-3.213" transform="translate(-52.314 -63.064)" fill="#f4dd46"/>
        <path id="Trazado_211664" data-name="Trazado 211664" d="M23.564,21.953c.842.062,1.254-.433,1.607-1.123A10.451,10.451,0,0,1,32.962,14.9a8.933,8.933,0,0,1,3.543.095.908.908,0,0,1,.8.913c.164,1.8.358,3.6.533,5.4a1.475,1.475,0,0,1-.022.589c-1.065,3.22-2.445,6.177-5.6,7.995A9.926,9.926,0,0,0,27.1,37.538a3.921,3.921,0,0,1-1.807-1.785,14.135,14.135,0,0,1-1.769-7.246c0-.537,0-1.078.05-1.611A1.429,1.429,0,0,0,22.538,25.2c.218-.036.313-.148.363-.38.2-.96.44-1.914.663-2.869" transform="translate(-10.938 -7.165)" fill="#7a6d79"/>
        <path id="Trazado_211665" data-name="Trazado 211665" d="M134.288,146.771c-.585-.094-1.348.233-1.719-.15-.344-.356-.292-1.095-.415-1.665a56.685,56.685,0,0,0-1.3-6.264,13.925,13.925,0,0,0-9.15-9.163c-1.519-.52-3.062-.974-4.594-1.458.037-2.461.388-2.362,2.318-1.729,1.5.493,3.029.906,4.538,1.377a12.916,12.916,0,0,1,9.459,10.478c.553,2.824,1,5.668,1.492,8.5l-.63.07" transform="translate(-56.836 -61.131)" fill="#f2d232"/>
        <path id="Trazado_211666" data-name="Trazado 211666" d="M106.206,135.746l-.72,3.214a.47.47,0,0,1-.406.26,1.27,1.27,0,0,0-1.054,1.073,32.005,32.005,0,0,1-2.332,6.321c-.189.4-.1.908-.468,1.237-.2-.34-.529-.348-.881-.351-.882-.008-.953-.12-.49-.908a26.334,26.334,0,0,0,2.215-5.19,47.257,47.257,0,0,0,2.087-9.349c.041-.361.127-.718.159-1.08.13-1.468-.365-2.04-1.843-2.15.18-.55-.008-1.385.454-1.609.374-.182,1.048.247,1.586.412,1.567.482,1.575.484,1.368,2.143-.175,1.4-.339,2.8-.573,4.194a1.477,1.477,0,0,0,.9,1.782" transform="translate(-48.325 -61.718)" fill="#efe8e5"/>
        <path id="Trazado_211667" data-name="Trazado 211667" d="M46.4,128.109a10.585,10.585,0,0,0,.2,3.244,61.464,61.464,0,0,0,1.421,7.62,35.629,35.629,0,0,0,2.858,7.772,4.61,4.61,0,0,1,.618,1.387c-.668.072-1.361-.162-2.007.17a2.554,2.554,0,0,0-.215-1.4A84.42,84.42,0,0,1,45.144,132c-.15-.863-.236-1.737-.4-2.6-.117-.608.006-.967.685-1.04a6.551,6.551,0,0,0,.975-.255" transform="translate(-21.695 -62.173)" fill="#efe8e5"/>
        <path id="Trazado_211668" data-name="Trazado 211668" d="M102.765,158.969a2.044,2.044,0,0,1,.189-1.228,29.785,29.785,0,0,0,2.4-6.395c.266-1.055.577-1.264,1.673-1.267a1.391,1.391,0,0,1,.81,1.868,35.327,35.327,0,0,1-2.421,6.629,3.385,3.385,0,0,1-.647.953c-.691.522-1.385.334-2-.559" transform="translate(-49.864 -72.836)"/>
        <path id="Trazado_211669" data-name="Trazado 211669" d="M102.517,50.385a5.894,5.894,0,0,1,1.048,3.426,51.275,51.275,0,0,1-.429,9.647,16.306,16.306,0,0,1-3.422,7.1,29.619,29.619,0,0,1-9.36,8.6A12.714,12.714,0,0,1,85.649,80.7c0-2.307.007-4.565-.007-6.823,0-.371.169-.412.466-.386a3.636,3.636,0,0,1,2.419,1.077c.717.741,1.411.822,1.991.281.6-.557.533-1.321-.179-2.079a5.781,5.781,0,0,0-4-1.8c-.526-.034-.745-.136-.708-.71.052-.817.033-1.641.005-2.46-.015-.454.056-.689.594-.793,1.218-.236,1.683-.805,1.509-1.635s-.744-1.093-2.065-.9V46.159a1.65,1.65,0,0,1,1.077.064,30.235,30.235,0,0,0,4.71.558,26.264,26.264,0,0,1,6.64.739,8.7,8.7,0,0,1,4.41,2.865" transform="translate(-41.558 -22.366)" fill="#f1d0a4"/>
        <path id="Trazado_211670" data-name="Trazado 211670" d="M93.157,124.072a5.364,5.364,0,0,1-2.206,3,9.2,9.2,0,0,1-4.777,1.755c-.418.044-.529-.063-.525-.481.026-2.736.027-5.472.036-8.209a.91.91,0,0,1,.641-.373,19.628,19.628,0,0,0,3.528-.9c1.341-.408,2.019.05,2.142,1.428.05.563.157,1.119.191,1.683a1.746,1.746,0,0,0,.709,1.467c.214.146.415.318.263.626" transform="translate(-41.566 -57.619)" fill="#f1d0a4"/>
        <path id="Trazado_211671" data-name="Trazado 211671" d="M115.182,31.033c.427-.06.394-.455.466-.718a19.391,19.391,0,0,0,.084-9.179,22.3,22.3,0,0,0-4.29-9.258,20.177,20.177,0,0,0-5.3-4.629,13.037,13.037,0,0,1,5.617,3.193,20.517,20.517,0,0,1,6.585,17.1,8.882,8.882,0,0,1-2.369,5.763l-.8-2.272" transform="translate(-51.514 -3.518)" fill="#685e68"/>
        <path id="Trazado_211672" data-name="Trazado 211672" d="M124.243,73.676a44.161,44.161,0,0,0,.643-8.533c.011-.509.284-.444.613-.381a3.672,3.672,0,0,1,2.888,3.068,5.381,5.381,0,0,1-4.145,5.847" transform="translate(-60.297 -31.409)" fill="#f1ba87"/>
        <path id="Trazado_211673" data-name="Trazado 211673" d="M102.537,49.318a13.016,13.016,0,0,0-4.4-2.614A18.12,18.12,0,0,0,94.4,46.1c-2.779-.171-5.584-.1-8.3-.853a4.16,4.16,0,0,1-.394-.151c-.074-1.329-.076-1.317,1.251-1.09,2.576.442,5.2.3,7.785.568a9.922,9.922,0,0,1,7.8,4.747" transform="translate(-41.578 -21.299)" fill="#f1ba87"/>
        <path id="Trazado_211674" data-name="Trazado 211674" d="M93.166,121.474c-.352-.535-1.121-.735-1.173-1.517-.043-.64-.172-1.276-.2-1.916-.067-1.653-.558-2.031-2.11-1.469a24.331,24.331,0,0,1-3.991.966c-.075-1.511-.079-1.529,1.329-1.806a18.744,18.744,0,0,0,5.786-2.361c.234,2.231.471,4.349.668,6.471a2.91,2.91,0,0,1-.309,1.632" transform="translate(-41.575 -55.021)" fill="#f1ba87"/>
        <path id="Trazado_211675" data-name="Trazado 211675" d="M63.594,5.854V21.776A18.12,18.12,0,0,1,59.131,19.1c-2.623-2.038-2.607-2.052-2.818-5.4a13.289,13.289,0,0,0-.234-2.274,1.475,1.475,0,0,1,.594-1.606,18.3,18.3,0,0,1,6.25-3.833c.16-.056.322-.108.486-.151a.591.591,0,0,1,.184.017" transform="translate(-27.19 -2.831)" fill="#7a6d79"/>
        <path id="Trazado_211676" data-name="Trazado 211676" d="M63.548,119.035c.01,2.739.01,5.478.04,8.217,0,.452-.171.5-.548.454a8.584,8.584,0,0,1-5.992-3.119,5.306,5.306,0,0,1-1.091-3.979c.147-1.375.34-2.744.513-4.116a.705.705,0,0,1,.643.108,19.154,19.154,0,0,0,5.992,2.208.809.809,0,0,1,.444.227" transform="translate(-27.138 -56.516)" fill="#f1cfa3"/>
        <path id="Trazado_211677" data-name="Trazado 211677" d="M47.647,34.221a1.087,1.087,0,0,0-1.314.87,14.359,14.359,0,0,1-3.4,5.778A13.44,13.44,0,0,1,40.924,42.4,10.55,10.55,0,0,0,37.775,46.3c-.426.76-.77,1.566-1.185,2.333a3.022,3.022,0,0,0-.352,1.542c.017,1.1-.01,2.2-.019,3.3a29.3,29.3,0,0,1,.109-7.433,7.093,7.093,0,0,1,3.55-4.956,14.175,14.175,0,0,0,6.246-7.645,3.832,3.832,0,0,1,.2-.38l1.321,1.152" transform="translate(-17.489 -16.049)" fill="#f1ba87"/>
        <path id="Trazado_211678" data-name="Trazado 211678" d="M28.483,73.7a5.476,5.476,0,0,1-4.026-5.857,3.716,3.716,0,0,1,2.885-3.078c.486-.1.567.076.566.509a55.733,55.733,0,0,0,.311,6.6c.069.583.168,1.162.264,1.821" transform="translate(-11.85 -31.417)" fill="#f1ba87"/>
        <path id="Trazado_211679" data-name="Trazado 211679" d="M64.066,117.658a16.673,16.673,0,0,1-6.124-2c-.324-.168-.636-.36-.954-.541.049-.475.1-.95.155-1.5A19.2,19.2,0,0,0,62,115.677c.219.052.44.1.66.143,1.488.3,1.488.3,1.411,1.838" transform="translate(-27.657 -55.139)" fill="#f1c494"/>
        <path id="Trazado_211680" data-name="Trazado 211680" d="M66.3,40.8a28.018,28.018,0,0,1-4.315-2.766.847.847,0,0,1-.4-.516,27.363,27.363,0,0,0,4.4,2.285c.548.2.307.636.321,1" transform="translate(-29.887 -18.208)" fill="#ecb786"/>
        <path id="Trazado_211681" data-name="Trazado 211681" d="M56.124,52.416a7.27,7.27,0,0,1,2.822.464,1.308,1.308,0,0,1,.948,1.709,1.268,1.268,0,0,1-1.756.7,6.3,6.3,0,0,0-3.912-.027c-.983.259-1.624-.014-1.851-.777-.207-.694.2-1.311,1.086-1.636a7.044,7.044,0,0,1,2.662-.434" transform="translate(-25.393 -25.436)"/>
        <path id="Trazado_211682" data-name="Trazado 211682" d="M60.01,66.58c0,.564.04,1.132-.009,1.692a1.218,1.218,0,0,1-1.347,1.213,1.187,1.187,0,0,1-1.172-1.3q-.02-1.651,0-3.3a1.181,1.181,0,0,1,1.171-1.294A1.212,1.212,0,0,1,60,64.8c.049.588.01,1.184.01,1.777" transform="translate(-27.892 -30.86)" fill="#010101"/>
        <path id="Trazado_211683" data-name="Trazado 211683" d="M96.934,64.6a1.238,1.238,0,0,1-1.381,1.322c-.509-.049-.556.121-.546.527a4.694,4.694,0,0,1-.077,1.176,1.137,1.137,0,0,1-1.323.923,1.108,1.108,0,0,1-1.11-1.075,12.8,12.8,0,0,1-.019-2.03.975.975,0,0,0-.755-1.2,1.384,1.384,0,0,1-.762-.51,1.2,1.2,0,0,1-.031-1.494,1.129,1.129,0,0,1,1.413-.478c1.346.576,2.669,1.211,3.986,1.854a1.14,1.14,0,0,1,.605.982" transform="translate(-44.01 -29.93)"/>
      </g>
    </g>
  </g>
</svg>
