<svg xmlns="http://www.w3.org/2000/svg" xmlns:xlink="http://www.w3.org/1999/xlink" width="400" height="341.141" viewBox="0 0 400 341.141">
  <defs>
    <clipPath id="clip-path">
      <path id="Trazado_189400" data-name="Trazado 189400" d="M392.322,25.908h-380c-5.523,0-10,5.874-10,13.121v314.9c0,7.247,4.477,13.121,10,13.121h380c5.523,0,10-5.874,10-13.121V39.029c0-7.247-4.477-13.121-10-13.121" transform="translate(-2.323 -47.431)" fill="#a6bbff"/>
    </clipPath>
    <clipPath id="clip-path-2">
      <rect id="Rectángulo_338747" data-name="Rectángulo 338747" width="478.733" height="422.623" fill="none"/>
    </clipPath>
  </defs>
  <g id="Grupo_983812" data-name="Grupo 983812" transform="translate(0 -6.477)">
    <g id="Grupo_176387" data-name="Grupo 176387" transform="translate(0 28)">
      <path id="Trazado_189401" data-name="Trazado 189401" d="M392.322,25.908h-380a9.9,9.9,0,0,0-10,9.808v235.4a9.9,9.9,0,0,0,10,9.808h380a9.9,9.9,0,0,0,10-9.808V35.716a9.9,9.9,0,0,0-10-9.808" transform="translate(-2.322 4.982)" fill="#6b8dfc"/>
      <g id="Enmascarar_grupo_335" data-name="Enmascarar grupo 335" transform="translate(0)" clip-path="url(#clip-path)">
        <g id="Grupo_176397" data-name="Grupo 176397" transform="matrix(-0.995, -0.105, 0.105, -0.995, 482.205, 607.964)">
          <g id="Grupo_176396" data-name="Grupo 176396" transform="translate(0)">
            <g id="Grupo_176395" data-name="Grupo 176395">
              <path id="Trazado_189395" data-name="Trazado 189395" d="M524.627,264.252c-39.52-39.759-80.242-78.175-121.687-115.967,18.936,39.074,39.2,77.613,57.278,117.051,20.5,44.718,44.715,105.509,23.421,150.527C435.1,518.476,295.892,409.555,243.993,354.53c-5.534-5.858-10.828-11.959-16.19-18,19.6,43.445,37.5,87.987,35.365,133.9-2.945,63.124-61.283,75.726-113.413,44.04C93.768,480.434,47.5,423.791,8.676,372.489c-32.97-43.572,36.352-80.612,69.052-37.653a629.153,629.153,0,0,0,58.253,66.247q-4.772-8.157-9.628-16.294c-21.447-35.839-42.656-71.805-60.5-109.313C31.666,203.644-18.57,104.084,17.131,31.687,35.126-4.795,81.065-6.555,116.475,10.175c47.59,22.487,81.938,69.012,114.814,108.554,34.317,41.287,64.86,84.868,96.837,127.78,13.368,17.932,26.73,36.11,41.848,52.731.346.378.714.733,1.061,1.119l-.412-1.144c-9.094-24.83-20.436-48.772-31.9-72.781-21.341-44.663-48.388-91.883-57.62-139.875-8.168-42.432,7.06-88.913,58.7-83.582,48.538,5.009,89.4,52.631,123.138,84.716C503.81,126.555,544,166.128,584.2,205.654,626.172,246.916,566.132,306,524.627,264.252Z" transform="translate(7.938 7.805)" fill="#3c3fa7"/>
              <path id="Trazado_189396" data-name="Trazado 189396" d="M342.776,2.721c-19-.838-34.828,5.01-46,17.071-15.526,16.765-21.3,44.933-15.446,75.357,7.62,39.647,26.765,78.152,45.282,115.388,4.426,8.916,8.816,17.739,12.99,26.466,3.95,8.279,8.108,16.975,12.247,25.964-2.432-3.238-4.841-6.475-7.225-9.68l-2.367-3.173c-8.309-11.147-16.518-22.343-24.727-33.523-23.026-31.4-46.844-63.878-72.41-94.624q-5.6-6.748-11.283-13.715C204.5,72.436,171.248,31.836,127.283,11.059,88.081-7.442,37.952-4.949,17.948,35.631c-35.954,72.888,10.778,170.789,44.9,242.28l3.881,8.121c10.04,21.116,21.165,41.787,32.9,62.391q-3.972-5-7.829-10.054c-20.208-26.562-53.578-27.648-74.172-13.35-17.032,11.825-25.855,34.816-7.155,59.53C51.9,439.313,97.976,494.69,154,528.754c31.105,18.892,64.4,23.206,89.115,11.534,21.754-10.276,34.475-31.938,35.835-61.018,1.589-34.105-7.391-67.219-19.685-98.961,42.046,40.533,119.038,98.793,178.461,93.1,27.3-2.628,47.831-18.1,61.018-45.98,21.687-45.849.3-105.058-23.481-156.938-11.32-24.689-23.659-49.376-35.593-73.244l-4.224-8.445c33.73,31.322,63.954,60.453,91.744,88.406h0c13.74,13.83,30.659,19.427,47.6,15.8,18.6-3.992,33.974-18.99,38.251-37.338,3.938-16.829-1.6-33.675-15.606-47.44l-4.572-4.5C554.8,166.31,515.448,127.615,476.078,90.176c-4.852-4.617-9.843-9.549-15-14.634C430.47,45.314,392.369,7.684,347.868,3.092,346.145,2.916,344.456,2.8,342.776,2.721Zm36.49,312.835a7.045,7.045,0,0,0,3.754-.837,6.9,6.9,0,0,0,3.319-8.606l-.419-1.144c-9.532-26.029-21.573-51.251-32.2-73.5-4.209-8.807-8.643-17.716-13.111-26.711-18.018-36.235-36.647-73.7-43.856-111.169-4.892-25.446-.276-49.525,12.051-62.838,9.13-9.861,22.177-13.943,38.8-12.284,38.528,3.982,72.7,37.721,102.847,67.5,5.229,5.166,10.31,10.178,15.235,14.86,39.263,37.334,78.569,75.98,116.581,113.359l4.564,4.5c12.381,12.167,12.75,24.266,10.877,32.28-3.043,13.021-14.367,24.1-27.549,26.915-8.022,1.728-20.115,1.21-32.223-10.975h0c-35.9-36.106-75.807-74.139-122.006-116.274a8.069,8.069,0,0,0-9.907-1.023,7.228,7.228,0,0,0-2.184,9.288c7.155,14.774,14.5,29.464,21.843,44.161,11.873,23.741,24.143,48.295,35.35,72.732,22.277,48.59,42.48,103.713,23.361,144.124-11.119,23.5-27.331,35.962-49.559,38.1-55.4,5.306-136.454-57.274-177.383-100.665-4.359-4.626-8.575-9.408-12.8-14.182l-3.2-3.627a8.2,8.2,0,0,0-10.107-1.98,7.19,7.19,0,0,0-2.744,9.371c18.679,41.376,36.738,85.532,34.654,130.264-1.119,23.978-10.777,40.933-27.928,49.036-20.013,9.442-47.65,5.532-73.957-10.449-53.49-32.51-98.225-86.378-138.606-139.746C10,359.175,16.8,345.294,27.412,337.928c14.373-9.977,37.517-10.2,52.115,8.984A639.061,639.061,0,0,0,138.6,414.09a8.081,8.081,0,0,0,10.283,1.194,7.313,7.313,0,0,0,1.754-9.793q-4.8-8.2-9.678-16.366c-21.717-36.29-42.653-71.905-60.119-108.6l-3.882-8.144C44.227,203.8-.6,109.864,32.2,43.361,48.131,11.045,89.206,9.634,121.543,24.9c40.355,19.061,70.89,56.349,100.414,92.4q5.73,7,11.366,13.811c25.226,30.338,48.877,62.588,71.76,93.778q12.339,16.83,24.794,33.634l2.366,3.166c12.543,16.847,25.512,34.267,40.028,50.222l.74.781A9.46,9.46,0,0,0,379.266,315.556Zm153.3-43.5.078,0Z"/>
            </g>
            <path id="Trazado_189397" data-name="Trazado 189397" d="M38.011,191.427C6.526,132.946-12.788,65.17,9.855,4.8,13.207-4.124,28.572.517,25.178,9.575,3.914,66.261,21.6,129.223,51.215,184.229,56.095,193.3,42.915,200.542,38.011,191.427Z" transform="translate(33.776 52.833)"/>
            <path id="Trazado_189398" data-name="Trazado 189398" d="M22.6,15.16c-.133.009-.256.043-.381.06-.2.415-.385.854-.45.975l-.029.045c-.013.061.009.023-.011.115-.858,3.4-1.431,6.869-2.035,10.343q-2.124,12.109-4.233,24.219c-.686,3.918-5.487,6.374-9.42,4.967a8.678,8.678,0,0,1-5.9-9.745L4.922,18.753C6.258,11.147,8.483,1.2,17.754.072c4-.479,8.7,1.424,9.9,5.826C28.68,9.668,26.889,14.64,22.6,15.16Z" transform="translate(65.719 67.072)"/>
            <path id="Trazado_189399" data-name="Trazado 189399" d="M30.963,185.617c-8.7,4.289-17.238-9.4-8.517-13.693,12.032-5.931,15.193-18.947,15.107-31.867C37.46,125.38,35.1,110.185,32.029,95.6A315.362,315.362,0,0,0,1.068,11.4c-4.887-9.075,8.3-16.313,13.2-7.2A330.859,330.859,0,0,1,49.12,103.293C54.065,131.31,60.269,171.179,30.963,185.617Z" transform="translate(417.662 241.446)"/>
          </g>
        </g>
        <g id="Grupo_983608" data-name="Grupo 983608" transform="translate(-20.164 -19.523)">
          <g id="Grupo_983608-2" data-name="Grupo 983608" clip-path="url(#clip-path-2)">
            <path id="Trazado_210064" data-name="Trazado 210064" d="M225.731,43.6c-2.152-5.417-.026-11.3,4.749-13.128s10.389,1.075,12.54,6.492.026,11.3-4.749,13.127-10.389-1.073-12.54-6.492" transform="translate(-135.967 19.42)" fill="#ed8666"/>
            <path id="Trazado_210065" data-name="Trazado 210065" d="M236.327,41.331a.921.921,0,0,0,.543-1.665l-9.246-6.738a.922.922,0,0,0-1.087,1.489l9.247,6.738a.922.922,0,0,0,.543.176" transform="translate(-131.447 21.256)"/>
            <path id="Trazado_210066" data-name="Trazado 210066" d="M228.969,41.522a.917.917,0,0,0,.632-.251l3.652-3.435a.922.922,0,0,0-1.263-1.342l-3.652,3.436a.921.921,0,0,0,.632,1.591" transform="translate(-130.856 23.522)"/>
            <path id="Trazado_210067" data-name="Trazado 210067" d="M225.74,54.22l-2.467,34.955-25.948-4.5L195.931,52.29Z" transform="translate(-70.093 33.935)" fill="#ed8666"/>
            <path id="Trazado_210068" data-name="Trazado 210068" d="M195.931,52.29l29.809,1.929-1.275,18.066L196.335,61.7Z" transform="translate(-70.093 33.935)"/>
            <path id="Trazado_210069" data-name="Trazado 210069" d="M197.129,12.575c0,6.945,6.509,12.575,14.537,12.575S226.2,19.521,226.2,12.575,219.7,0,211.666,0s-14.537,5.63-14.537,12.575" transform="translate(-72.532 0)" fill="#fed947"/>
            <path id="Trazado_210070" data-name="Trazado 210070" d="M176.5,14.959c-1.715,8.408,6.04,17.09,17.321,19.39s21.814-2.652,23.529-11.06S211.312,6.2,200.033,3.9,178.217,6.551,176.5,14.959" transform="translate(-29.514 2.165)" fill="#fed947"/>
            <path id="Trazado_210071" data-name="Trazado 210071" d="M203.783,17.3c-1.715,8.408,6.04,17.09,17.321,19.39s21.816-2.652,23.529-11.06-6.04-17.09-17.319-19.39S205.5,8.892,203.783,17.3" transform="translate(-101.781 3.684)" fill="#fed947"/>
            <path id="Trazado_210072" data-name="Trazado 210072" d="M214.011,27.2c-1.715,8.408,4.441,16.763,13.751,18.661s18.244-3.379,19.959-11.787-4.442-16.763-13.751-18.663-18.244,3.38-19.959,11.789" transform="translate(-121.701 9.748)" fill="#fed947"/>
            <path id="Trazado_210073" data-name="Trazado 210073" d="M174,26.05c-1.715,8.408,4.441,16.763,13.751,18.661s18.244-3.379,19.959-11.787-4.442-16.763-13.751-18.663S175.715,17.641,174,26.05" transform="translate(-15.713 9.004)" fill="#fed947"/>
            <path id="Trazado_210074" data-name="Trazado 210074" d="M261.5,48.964A41.338,41.338,0,1,0,220.16,90.3,41.339,41.339,0,0,0,261.5,48.964" transform="translate(-77.639 4.949)" fill="#ed8666"/>
            <path id="Trazado_210075" data-name="Trazado 210075" d="M218.905,51.918a16.728,16.728,0,0,0,2.6-.206.922.922,0,0,0,.768-1.052.933.933,0,0,0-1.052-.768c-10.405,1.623-15.611-8.1-15.662-8.2a.92.92,0,1,0-1.629.856c.051.1,5.041,9.373,14.973,9.373" transform="translate(-79.659 26.736)"/>
            <path id="Trazado_210076" data-name="Trazado 210076" d="M206.309,42.7a.919.919,0,0,0,.9-.727l1.578-7.392,5.008,7.6a.922.922,0,0,0,1.54-1.012l-6.22-9.439a.923.923,0,0,0-1.67.317l-2.036,9.543a.919.919,0,0,0,.707,1.092.866.866,0,0,0,.195.02" transform="translate(-75.43 20.322)"/>
            <path id="Trazado_210077" data-name="Trazado 210077" d="M235.949,40.394s-8.743-22.207-22.53-9.871c0,0,4.411,17.482,22.53,9.871" transform="translate(-109.139 17.388)" fill="#fff"/>
            <path id="Trazado_210078" data-name="Trazado 210078" d="M184.35,37.323s12.872-19.047,29.723-6.939c0,0-11.192,22-29.723,6.939" transform="translate(-39.329 17.104)" fill="#fff"/>
            <path id="Trazado_210079" data-name="Trazado 210079" d="M207.3,25.274c.4-1.306-2.558-3.375-6.607-4.62s-7.661-1.2-8.062.112,2.556,3.375,6.607,4.62,7.66,1.194,8.062-.112" transform="translate(-46.189 12.819)"/>
            <path id="Trazado_210080" data-name="Trazado 210080" d="M229.17,25.874c.4-1.306-2.556-3.375-6.606-4.62s-7.663-1.2-8.063.112,2.558,3.375,6.609,4.62,7.659,1.194,8.06-.112" transform="translate(-104.119 13.208)"/>
            <path id="Trazado_210081" data-name="Trazado 210081" d="M188.931,64.092l-2.8,9.971L157.8,156.845l14.46,154.242,114.264,5.387L234.4,91.128l2.223-17.359Z" transform="translate(-68.009 41.594)"/>
            <path id="Trazado_210082" data-name="Trazado 210082" d="M184.343,285.988l14.744-3.4A33.735,33.735,0,0,0,222.5,236.368L163.051,98.394A30.512,30.512,0,0,0,144.16,81.353l-1.374-.432Z" transform="translate(18.015 52.516)"/>
            <path id="Trazado_210083" data-name="Trazado 210083" d="M267.772,228.667l73.46-120.095A24.433,24.433,0,0,0,330.86,73.745v0a24.436,24.436,0,0,0-31.078,8.947l-88.8,139.357a29.636,29.636,0,0,0,13.05,43.05l71.808,31.618L308.034,250.5Z" transform="translate(-206.331 46.326)"/>
            <path id="Trazado_210084" data-name="Trazado 210084" d="M279.594,286.018a.828.828,0,0,0,.825-.824l.059-72.415a.823.823,0,0,0-.8-.825l-90.692-2.577a.861.861,0,0,0-.821.612l-19.9,74.476a.824.824,0,0,0,.795,1.037l110.533.516Zm-.765-72.438-.059,70.786-108.636-.508,19.456-72.814Z" transform="translate(-79.16 135.881)"/>
            <path id="Trazado_210085" data-name="Trazado 210085" d="M183.252,285.066a.821.821,0,0,0,.806-.666l14.006-71.674a.823.823,0,1,0-1.616-.317l-14.006,71.674a.821.821,0,0,0,.65.966.766.766,0,0,0,.16.016" transform="translate(-20.165 137.415)"/>
            <path id="Trazado_210086" data-name="Trazado 210086" d="M239.576,183.138l-16.788-1a5.116,5.116,0,0,0-5.237,5.171,5.283,5.283,0,0,0,5.132,5.613l16.8-.279a4.568,4.568,0,0,0,4.3-4.912,4.66,4.66,0,0,0-4.211-4.592" transform="translate(-123.792 118.197)" fill="#ed8666"/>
            <path id="Trazado_210087" data-name="Trazado 210087" d="M241.61,198.727l-20.1.036a4.807,4.807,0,0,1-4.574-3.987l-.1-.478c-.661-3.178,1.555-6.159,4.531-6.093l20.2.442a4.9,4.9,0,0,1,4.581,4.789,4.8,4.8,0,0,1-4.538,5.292" transform="translate(-124.788 122.139)" fill="#ed8666"/>
            <path id="Trazado_210088" data-name="Trazado 210088" d="M241.608,198.661h0a4.217,4.217,0,0,0-4-3.918l-13.372-.5a4.382,4.382,0,0,0-4.418,3.775l-.173,1.113a4.258,4.258,0,0,0,4.3,5.023l13.543-.61a4.443,4.443,0,0,0,4.117-4.881" transform="translate(-125.001 126.057)" fill="#ed8666"/>
            <path id="Trazado_210089" data-name="Trazado 210089" d="M238.855,202.913h0a3.625,3.625,0,0,0-3.3-2.887l-11.043-.186a3.309,3.309,0,0,0-3.178,3.6l.026,1.278a3.693,3.693,0,0,0,3.765,3.811l11.017-1.09a3.49,3.49,0,0,0,2.714-4.522" transform="translate(-125.223 129.691)" fill="#ed8666"/>
            <path id="Trazado_210090" data-name="Trazado 210090" d="M222.149,190.666a3.666,3.666,0,0,1-3.872-3.517,3.822,3.822,0,0,1,3.989-3.522,3.664,3.664,0,0,1,3.872,3.517,3.823,3.823,0,0,1-3.989,3.522" transform="translate(-107.339 119.17)" fill="#ffd4de"/>
            <path id="Trazado_210091" data-name="Trazado 210091" d="M221.553,196.386a3.666,3.666,0,0,1-3.872-3.517,3.822,3.822,0,0,1,3.989-3.522,3.664,3.664,0,0,1,3.872,3.517,3.823,3.823,0,0,1-3.989,3.522" transform="translate(-105.76 122.882)" fill="#ffd4de"/>
            <path id="Trazado_210092" data-name="Trazado 210092" d="M223.678,201.083c-1.913,0-3.443-1.263-3.417-2.823s1.6-2.826,3.511-2.828,3.443,1.263,3.417,2.823-1.6,2.826-3.511,2.828" transform="translate(-111.661 126.831)" fill="#ffd4de"/>
            <path id="Trazado_210093" data-name="Trazado 210093" d="M224.4,205.611a2.394,2.394,0,0,1-2.492-2.348,2.5,2.5,0,0,1,2.571-2.351,2.394,2.394,0,0,1,2.49,2.348,2.5,2.5,0,0,1-2.569,2.351" transform="translate(-114.163 130.386)" fill="#ffd4de"/>
            <path id="Trazado_210094" data-name="Trazado 210094" d="M240.616,189.553a.562.562,0,0,0,.551-.5.517.517,0,0,0-.554-.5l-17.783.084a6.887,6.887,0,0,1-2.726-.59.626.626,0,0,0-.79.162.463.463,0,0,0,.157.694,7.992,7.992,0,0,0,3.334.74l17.774-.082.036,0" transform="translate(-123.921 121.985)"/>
            <path id="Trazado_210095" data-name="Trazado 210095" d="M238.61,195.443a.559.559,0,0,0,.551-.514.519.519,0,0,0-.564-.491l-10.623.223c-.782.016-5.033-.1-6.114-.213a.583.583,0,0,0-.648.444.5.5,0,0,0,.48.557c1.148.115,5.448.234,6.271.219l10.623-.223.025,0" transform="translate(-125.19 126.185)"/>
            <path id="Trazado_210096" data-name="Trazado 210096" d="M236.749,200.78a.557.557,0,0,0,.551-.519.521.521,0,0,0-.571-.486c-.142,0-3.471.109-4.5.181-1.077.077-7.561.261-8.627.153a.583.583,0,0,0-.646.444.5.5,0,0,0,.48.557c1.181.119,7.818-.077,8.848-.15.994-.073,4.408-.178,4.442-.178l.018,0" transform="translate(-126.213 129.648)"/>
            <path id="Trazado_210097" data-name="Trazado 210097" d="M202.136,15.966c0,6.945,6.509,12.575,14.537,12.575s14.537-5.63,14.537-12.575S224.7,3.391,216.673,3.391s-14.537,5.63-14.537,12.575" transform="translate(-85.796 2.201)" fill="#fed947"/>
            <path id="Trazado_210098" data-name="Trazado 210098" d="M174.275,31.746c2.292,8.712,10.445,14.119,18.21,12.075s.572-6.072-1.72-14.785,1.184-18.808-6.581-16.765-12.2,10.763-9.909,19.474" transform="translate(-3.647 7.791)" fill="#fed947"/>
            <path id="Trazado_210099" data-name="Trazado 210099" d="M182.733,8.725C180.5,15.3,186.749,23.374,196.7,26.761s19.829.8,22.067-5.773S208.33,12.651,198.38,9.264s-13.41-7.114-15.647-.539" transform="translate(-40.867 3.309)" fill="#fed947"/>
            <path id="Trazado_210100" data-name="Trazado 210100" d="M217.644,154.217a.826.826,0,0,0,.7-.394l27.363-44.732a.825.825,0,0,0-1.408-.861L216.94,152.962a.828.828,0,0,0,.274,1.135.814.814,0,0,0,.43.12" transform="translate(-124.63 69.984)" fill="#fff"/>
            <path id="Trazado_210101" data-name="Trazado 210101" d="M274.29,172.623a.824.824,0,0,0,.409-1.54l-20.906-11.962a.824.824,0,0,0-.818,1.43l20.906,11.963a.813.813,0,0,0,.409.109" transform="translate(-212.847 103.194)" fill="#fff"/>
            <path id="Trazado_210102" data-name="Trazado 210102" d="M263.578,168.673a.838.838,0,0,0,.419-.114.827.827,0,0,0,.292-1.13l-8.346-14.186a.824.824,0,0,0-1.42.838l8.344,14.186a.824.824,0,0,0,.711.406" transform="translate(-205.185 99.189)" fill="#fff"/>
            <path id="Trazado_210103" data-name="Trazado 210103" d="M204.167,278.176a.807.807,0,0,0,.186-.021.823.823,0,0,0,.617-.989L161.659,90.727a.825.825,0,0,0-1.608.373l43.312,186.438a.824.824,0,0,0,.8.638" transform="translate(9.856 58.464)" fill="#fff"/>
            <path id="Trazado_210104" data-name="Trazado 210104" d="M157.664,180.47l13.949-2.614c2.32-.434,4.573,2.033,5,5.481.444,3.545-1.214,6.695-3.629,6.891l-14.112,1.146c-2.071.168-3.961-2.2-4.19-5.264-.213-2.838,1.08-5.285,2.978-5.641" transform="translate(47.007 115.392)" fill="#ed8666"/>
            <path id="Trazado_210105" data-name="Trazado 210105" d="M157.49,198.533l16.846-1.71c1.829-.186,3.229-2.262,3.357-4.978l.026-.557c.175-3.707-2.038-6.934-4.525-6.6l-16.874,2.267c-2.027.272-3.453,2.849-3.265,5.9.2,3.316,2.223,5.9,4.434,5.679" transform="translate(48.646 119.843)" fill="#ed8666"/>
            <path id="Trazado_210106" data-name="Trazado 210106" d="M153.634,198.35h0c-.1-2.51,1.128-4.573,2.879-4.846l11.144-1.741c1.806-.284,3.6,1.42,4.154,3.948l.279,1.263c.681,3.1-.76,6.047-3,6.141l-11.421.48c-2.069.087-3.92-2.318-4.033-5.244" transform="translate(53.142 124.429)" fill="#ed8666"/>
            <path id="Trazado_210107" data-name="Trazado 210107" d="M153.823,202.965h0c.15-1.952,1.151-3.441,2.422-3.6l9.231-1.177c1.507-.193,2.884,1.524,3.092,3.854l.132,1.468c.228,2.556-1.036,4.757-2.7,4.7l-9.363-.292c-1.685-.051-3.011-2.386-2.815-4.954" transform="translate(56.387 128.608)" fill="#ed8666"/>
            <path id="Trazado_210108" data-name="Trazado 210108" d="M167.154,188.47c1.819-.188,3.084-2.147,2.823-4.375s-1.944-3.885-3.763-3.7-3.084,2.145-2.823,4.375,1.944,3.885,3.763,3.7" transform="translate(39.349 117.065)" fill="#ffd4de"/>
            <path id="Trazado_210109" data-name="Trazado 210109" d="M166.97,195.09c1.819-.188,3.084-2.147,2.823-4.375s-1.944-3.885-3.763-3.7-3.084,2.145-2.823,4.375,1.944,3.885,3.763,3.7" transform="translate(39.836 121.361)" fill="#ffd4de"/>
            <path id="Trazado_210110" data-name="Trazado 210110" d="M164.119,200.283a3.056,3.056,0,0,0,2.526-3.539,3.155,3.155,0,0,0-3.28-2.94,3.055,3.055,0,0,0-2.526,3.539,3.154,3.154,0,0,0,3.28,2.94" transform="translate(46.885 125.765)" fill="#ffd4de"/>
            <path id="Trazado_210111" data-name="Trazado 210111" d="M162.219,205.385a2.437,2.437,0,0,0,1.807-2.912A2.515,2.515,0,0,0,161.593,200a2.436,2.436,0,0,0-1.807,2.914,2.515,2.515,0,0,0,2.434,2.475" transform="translate(51.239 129.787)" fill="#ffd4de"/>
            <path id="Trazado_210112" data-name="Trazado 210112" d="M155.653,188.006a.566.566,0,0,1-.521-.533.517.517,0,0,1,.4-.622l14.91-1.456a4.5,4.5,0,0,0,2.213-.915.44.44,0,0,1,.681.119.649.649,0,0,1-.048.81,5.272,5.272,0,0,1-2.7,1.141L155.683,188l-.03,0" transform="translate(49.475 119.649)"/>
            <path id="Trazado_210113" data-name="Trazado 210113" d="M155.245,194.455a.568.568,0,0,1-.523-.543.515.515,0,0,1,.414-.613l8.928-.669c.656-.051,4.2-.559,5.1-.78a.53.53,0,0,1,.6.453.548.548,0,0,1-.336.681c-.946.232-4.536.747-5.227.8l-8.928.669-.021,0" transform="translate(53.833 124.498)"/>
            <path id="Trazado_210114" data-name="Trazado 210114" d="M154.951,200.159a.567.567,0,0,1-.523-.549.512.512,0,0,1,.419-.607c.119-.008,2.922-.178,3.788-.185.912,0,6.367-.359,7.249-.575a.529.529,0,0,1,.6.452.551.551,0,0,1-.336.683c-.975.239-6.56.592-7.432.6-.843,0-3.715.181-3.745.183h-.015" transform="translate(57.594 128.647)"/>
            <path id="Trazado_210115" data-name="Trazado 210115" d="M206.778,26.411a10.376,10.376,0,0,1,0,15.589c-4.526,1.288-10.118.571-16.617-4.713,0,0,6.639-9.821,16.62-10.877" transform="translate(-45.137 17.14)"/>
            <path id="Trazado_210116" data-name="Trazado 210116" d="M233.233,30.837a10.168,10.168,0,0,1-3.61,11.416c-10.074-.843-12.829-11.731-12.829-11.731,6.9-6.169,12.529-3.7,16.439.315" transform="translate(-112.514 17.387)"/>
            <path id="Trazado_210117" data-name="Trazado 210117" d="M189.452,38.56c1.662-5.587-.978-11.253-5.9-12.653S173.3,27.9,171.642,33.488s.978,11.253,5.9,12.653,10.253-1.992,11.916-7.58" transform="translate(6.57 16.608)" fill="#ed8666"/>
            <path id="Trazado_210118" data-name="Trazado 210118" d="M175.791,37.7a.915.915,0,0,0,.607-.228l8.609-7.533a.921.921,0,1,0-1.212-1.387l-8.611,7.533a.922.922,0,0,0,.607,1.614" transform="translate(5.054 18.383)"/>
            <path id="Trazado_210119" data-name="Trazado 210119" d="M180.736,37.077a.92.92,0,0,0,.569-1.644l-3.944-3.1a.92.92,0,1,0-1.136,1.446l3.943,3.1a.912.912,0,0,0,.569.2" transform="translate(7.068 20.855)"/>
            <path id="Trazado_210120" data-name="Trazado 210120" d="M87.143,141.236,55.014,332.846l159.161-.142s1.308-65.12-18.8-127.021c-18.165-55.927-26.227-68.617-26.227-68.617Z" transform="translate(173.822 88.953)" fill="#fed947"/>
            <path id="Trazado_210121" data-name="Trazado 210121" d="M173.207,164.429H74.974l4.1-23.838,49.786-2.531h33.136c1.578,2.986,5.231,10.532,11.213,26.369" transform="translate(181.895 89.598)" fill="#ffa37b"/>
            <path id="Trazado_210122" data-name="Trazado 210122" d="M131.225,49.853l7.864,36.7-23.676,1.1-8.542-33.318Z" transform="translate(163.415 32.354)" fill="#ffa37b"/>
            <path id="Trazado_210123" data-name="Trazado 210123" d="M171.018,156.106l-94.33,1.042L79.2,142.532l84.728-2.912c1.529,3.15,3.872,8.354,7.091,16.487" transform="translate(181.258 90.61)"/>
            <path id="Trazado_210124" data-name="Trazado 210124" d="M112.586,55.368l19.021-5.742,4.922,5.346L115.77,67.793Z" transform="translate(156.552 32.206)"/>
            <path id="Trazado_210125" data-name="Trazado 210125" d="M180.543,57.948C187.652,33.668,175.3,9.2,152.956,3.305s-46.221,9-53.33,33.283,2.849,48.03,25.195,53.928,48.613-8.289,55.722-32.569" transform="translate(135.633 1.308)" fill="#ffa37b"/>
            <path id="Trazado_210126" data-name="Trazado 210126" d="M85.268,7.964s35.517-5.046,37.964,15.543c2.127,17.89-.943,93.772-.943,93.772l-23.951,1.738L97.394,36Z" transform="translate(214.145 4.814)" fill="#a6bbff"/>
            <path id="Trazado_210127" data-name="Trazado 210127" d="M109.3,8.111c5.3,7.231,6.23,27.581-2.149,30.673-9.856,3.638-9.1-24.562-12.193-31.22a69.107,69.107,0,0,1,14.341.547" transform="translate(208.78 4.815)" fill="#3c3fa7"/>
            <path id="Trazado_210128" data-name="Trazado 210128" d="M277.729,146.895l5.994,52.749-137.864-3.6-14.152,36.085a28.728,28.728,0,0,1-48.6,8.161L0,142.9l33.168-35.966,64.338,76.725,8.839-81.316a33.072,33.072,0,0,1,32.29-29.494l38.393-.681,35.565-1.6,56.067-1.781A36.038,36.038,0,0,1,299.3,84.108l84.817,120.85a31.782,31.782,0,0,1-18.548,49.153l-76.547,18.948-8.515-44.432,64.355-13.8Z" transform="translate(88.822 44.631)" fill="#fc5f65"/>
            <path id="Trazado_210129" data-name="Trazado 210129" d="M159,175.378a.76.76,0,0,0,.122-.01.822.822,0,0,0,.694-.935L149.436,104.62a.834.834,0,0,0-.935-.693.821.821,0,0,0-.694.937l10.385,69.809a.824.824,0,0,0,.813.7" transform="translate(75.188 67.442)"/>
            <path id="Trazado_210130" data-name="Trazado 210130" d="M121.824,196.283a.738.738,0,0,0,.084,0,.822.822,0,0,0,.737-.9l-12.392-124.7a.824.824,0,1,0-1.639.163l12.392,124.7a.821.821,0,0,0,.818.742" transform="translate(176.989 45.385)"/>
            <path id="Trazado_210131" data-name="Trazado 210131" d="M79.966,122.355a.824.824,0,0,0,.554-1.435l-12.694-11.54a.825.825,0,0,0-1.108,1.222l12.694,11.538a.822.822,0,0,0,.554.214" transform="translate(288.371 70.847)"/>
            <path id="Trazado_210132" data-name="Trazado 210132" d="M66.748,116.338a.825.825,0,0,0,.824-.824c0-22.5,12.679-39.138,12.809-39.305a.825.825,0,0,0-1.3-1.009c-.132.168-13.154,17.237-13.154,40.314a.825.825,0,0,0,.824.824" transform="translate(289.472 48.594)"/>
            <path id="Trazado_210133" data-name="Trazado 210133" d="M102.159,75.613l13.164-13.164,10.689,12.489L113.972,96.2Z" transform="translate(184.263 40.528)" fill="#ffb6c8"/>
            <path id="Trazado_210134" data-name="Trazado 210134" d="M127.965,64.428,116.488,74.778l9.452,19.352,13.726-19.8Z" transform="translate(146.981 41.812)" fill="#ffb6c8"/>
            <path id="Trazado_210135" data-name="Trazado 210135" d="M126.241,28.763s13.423-16.279,30.661-3.438c0,0-16.571,13.934-30.661,3.438" transform="translate(113.662 13.233)" fill="#fff"/>
            <path id="Trazado_210136" data-name="Trazado 210136" d="M159.318,30.666l-12.31-4.009,12.752,16Z" transform="translate(76.558 17.3)" fill="#ffa37b"/>
            <path id="Trazado_210137" data-name="Trazado 210137" d="M130.641,44.044A22.8,22.8,0,0,1,150.856,38.5s-9.783,11.437-16.592,9.778c-4.833-1.177-4.568-3.446-3.623-4.235" transform="translate(113.368 24.681)"/>
            <path id="Trazado_210138" data-name="Trazado 210138" d="M146.686,15.573c-.305-1.158-3.694-1.27-7.572-.249s-6.772,2.785-6.467,3.943,3.694,1.27,7.57.249,6.774-2.785,6.469-3.943" transform="translate(113.33 9.492)"/>
            <path id="Trazado_210139" data-name="Trazado 210139" d="M97.362,15c10.789-10.562,25.9-15.523,40.393-11.7,22.345,5.9,34.7,30.363,27.587,54.642a49.709,49.709,0,0,1-12.981,21.633l-5.9-16.167,1.258-20.645S115.323,32.359,124.831,8.213c0,0-15.067-2.624-27.469,6.787" transform="translate(150.832 1.31)" fill="#a6bbff"/>
            <path id="Trazado_210140" data-name="Trazado 210140" d="M61.742,170.457l18.276-4.089a5.693,5.693,0,0,1,6.675,4.751,5.88,5.88,0,0,1-4.64,7.084l-18.516,2.685a5.082,5.082,0,0,1-5.6-4.632,5.182,5.182,0,0,1,3.807-5.8" transform="translate(296.46 107.887)" fill="#ffa37b"/>
            <path id="Trazado_210141" data-name="Trazado 210141" d="M61.6,187.929l22.1-3.539a5.355,5.355,0,0,0,4.319-5.2l.025-.544c.162-3.61-2.807-6.49-6.067-5.888l-22.123,4.081a5.462,5.462,0,0,0-4.182,6.08,5.34,5.34,0,0,0,5.93,5.008" transform="translate(298.941 112.066)" fill="#ffa37b"/>
            <path id="Trazado_210142" data-name="Trazado 210142" d="M56.29,187.636h0a4.7,4.7,0,0,1,3.7-5.018l14.6-2.932a4.881,4.881,0,0,1,5.529,3.362l.388,1.192a4.739,4.739,0,0,1-3.826,6.286l-15,1.741a4.949,4.949,0,0,1-5.4-4.632" transform="translate(305.172 116.554)" fill="#ffa37b"/>
            <path id="Trazado_210143" data-name="Trazado 210143" d="M56.414,191.762h0A4.037,4.037,0,0,1,59.531,188l12.1-2.172a3.684,3.684,0,0,1,4.132,3.389l.2,1.408c.348,2.45-1.271,4.724-3.458,4.859l-12.3.762c-2.215.138-4-1.975-3.789-4.485" transform="translate(309.721 120.565)" fill="#ffa37b"/>
            <path id="Trazado_210144" data-name="Trazado 210144" d="M74.358,177.42a4.081,4.081,0,0,0,3.629-4.554,4.258,4.258,0,0,0-5.013-3.163,4.08,4.08,0,0,0-3.628,4.556,4.255,4.255,0,0,0,5.011,3.161" transform="translate(286.43 110.092)" fill="#ffd4de"/>
            <path id="Trazado_210145" data-name="Trazado 210145" d="M73.994,183.814a4.081,4.081,0,0,0,3.629-4.554,4.258,4.258,0,0,0-5.013-3.163,4.08,4.08,0,0,0-3.628,4.556,4.255,4.255,0,0,0,5.011,3.161" transform="translate(287.394 114.242)" fill="#ffd4de"/>
            <path id="Trazado_210146" data-name="Trazado 210146" d="M70.118,188.569c2.1-.34,3.56-2,3.253-3.71s-2.261-2.823-4.363-2.483-3.56,2-3.253,3.71,2.261,2.823,4.363,2.483" transform="translate(296.959 118.317)" fill="#ffd4de"/>
            <path id="Trazado_210147" data-name="Trazado 210147" d="M67.505,193.345a2.665,2.665,0,0,0,2.32-3.024,2.782,2.782,0,0,0-3.244-2.127,2.666,2.666,0,0,0-2.32,3.024,2.781,2.781,0,0,0,3.244,2.127" transform="translate(302.966 122.108)" fill="#ffd4de"/>
            <path id="Trazado_210148" data-name="Trazado 210148" d="M59.15,177.846a.624.624,0,0,1-.694-.457.577.577,0,0,1,.521-.65l19.559-3.074a7.656,7.656,0,0,0,2.889-1.135.7.7,0,0,1,.9.038.515.515,0,0,1-.049.79,8.887,8.887,0,0,1-3.532,1.408l-19.552,3.074-.04,0" transform="translate(299.87 111.874)"/>
            <path id="Trazado_210149" data-name="Trazado 210149" d="M58.476,183.682a.619.619,0,0,1-.7-.467.579.579,0,0,1,.531-.641l11.714-1.646c.864-.124,5.514-1.011,6.685-1.324a.651.651,0,0,1,.79.373.556.556,0,0,1-.429.7c-1.24.331-5.946,1.228-6.852,1.359L58.5,183.679l-.028,0" transform="translate(305.939 116.543)"/>
            <path id="Trazado_210150" data-name="Trazado 210150" d="M57.974,188.843a.619.619,0,0,1-.7-.473.579.579,0,0,1,.541-.635c.155-.021,3.834-.5,4.972-.6,1.2-.107,8.357-1.059,9.511-1.367a.65.65,0,0,1,.79.371.558.558,0,0,1-.429.7c-1.276.34-8.606,1.306-9.752,1.41-1.106.1-4.878.59-4.916.6l-.02,0" transform="translate(311.179 120.542)"/>
            <path id="Trazado_210151" data-name="Trazado 210151" d="M124.567,40.012c1.913-6.429-1.125-12.948-6.784-14.559s-11.8,2.294-13.71,8.723,1.125,12.946,6.784,14.559,11.8-2.294,13.71-8.723" transform="translate(182.923 16.283)" fill="#ffa37b"/>
            <path id="Trazado_210152" data-name="Trazado 210152" d="M108.847,39.025a1.051,1.051,0,0,0,.7-.262l9.907-8.667a1.06,1.06,0,0,0-1.4-1.6l-9.907,8.669a1.06,1.06,0,0,0,.7,1.857" transform="translate(181.18 18.325)"/>
            <path id="Trazado_210153" data-name="Trazado 210153" d="M114.538,38.3a1.058,1.058,0,0,0,.655-1.891l-4.538-3.567a1.059,1.059,0,1,0-1.308,1.667l4.536,3.565a1.049,1.049,0,0,0,.655.226" transform="translate(183.495 21.169)"/>
            <path id="Trazado_210154" data-name="Trazado 210154" d="M134.211,28.653s5.5-6.655,13.977-8.092a10.128,10.128,0,0,1,2.83,11.426,19.933,19.933,0,0,1-16.806-3.334" transform="translate(105.692 13.344)"/>
            <path id="Trazado_210155" data-name="Trazado 210155" d="M136.411,46.784c-4.833-1.177-4.568-3.446-3.623-4.235.587-.491,1.4-1.177,2.444-1.91a87.708,87.708,0,0,1,14.231-.026c-3.468,3.192-8.829,7.2-13.052,6.17" transform="translate(111.221 26.175)" fill="#fd521b"/>
            <path id="Trazado_210156" data-name="Trazado 210156" d="M117.833,322.972a.823.823,0,0,0,.82-.754c3.961-45.561,8.2-166.6,8.242-167.815a.825.825,0,0,0-.795-.853.848.848,0,0,0-.854.795c-.041,1.217-4.279,122.211-8.235,167.73a.823.823,0,0,0,.75.892c.025,0,.048,0,.073,0" transform="translate(158.897 99.651)"/>
            <path id="Trazado_210157" data-name="Trazado 210157" d="M175.72,165.043a.825.825,0,0,0,.012-1.649L71.937,161.946h-.012a.825.825,0,0,0-.012,1.649l103.795,1.448Z" transform="translate(184.944 105.099)"/>
            <path id="Trazado_210158" data-name="Trazado 210158" d="M113.956,165.868a5,5,0,1,0-5-5,5,5,0,0,0,5,5m0-8.345a3.348,3.348,0,1,1-3.347,3.347,3.352,3.352,0,0,1,3.347-3.347" transform="translate(180.107 101.158)"/>
            <path id="Trazado_210159" data-name="Trazado 210159" d="M137.251,92.437a.827.827,0,0,0,.719-.419l12.038-21.265a.825.825,0,0,0-1.436-.811L137.252,89.936,126.379,70.62a.824.824,0,0,0-.679-.421.811.811,0,0,0-.716.355L112.059,89.2l-8.835-18.089a.824.824,0,1,0-1.481.724l9.45,19.352a.825.825,0,0,0,1.42.107l12.976-18.719,10.943,19.441a.824.824,0,0,0,.717.42Z" transform="translate(160.985 45.119)"/>
            <path id="Trazado_210160" data-name="Trazado 210160" d="M284.7,110.831s-9.825-11.79-16.562-15.678c-5.214-3.009-18.185-4.93-22.758-7.876s-14.673-6.49-18.228-5.808c-6.833,1.313.681-1.492-.729,3.748-.082.3,10.2,11.35,10.422,11.579,2.622,2.683-4.754-.33-9.424-.267-3.837.053-5.79,1.527-5.987,1.872-2.266,3.964,5.229,4.141,8.909,6.2,12.09,6.766,18.058,6.149,26.725,4.355,1.481-.307,13.551,17.143,13.551,17.143Z" transform="translate(-170.424 52.816)" fill="#f7b386"/>
            <path id="Trazado_210161" data-name="Trazado 210161" d="M274.973,94.542c.653-.648,3.783-6.019,3.783-6.019.01.42-12.194-4.883-14.463-5.715-3.69-1.354-9.1-3.408-12.392-4.988a3.44,3.44,0,0,0-4.5,1.448,3.666,3.666,0,0,0,1.194,4.823l13.357,5.648Z" transform="translate(-207.236 50.284)" fill="#f7b386"/>
            <path id="Trazado_210162" data-name="Trazado 210162" d="M255.838,91.058c-2.2,2.558,1.247,4.38,3.074,6.512,1.026,1.2-.213,4.46-1.159,5.41a2.737,2.737,0,0,1-3.92-.414A22.013,22.013,0,0,1,248,90.4c-.5-4.15.94-6.5,2.445-7.8,1.268-1.1,2.292-.023,4.083.361l5.879,2.246Z" transform="translate(-190.456 53.292)" fill="#f7b386"/>
            <path id="Trazado_210163" data-name="Trazado 210163" d="M259.876,91.288a.529.529,0,0,0,.333-.94c-1.862-1.494-10.415-4.8-10.778-4.937a.528.528,0,0,0-.379.986c.087.033,8.763,3.382,10.494,4.775a.529.529,0,0,0,.33.115" transform="translate(-191.796 55.407)"/>
            <path id="Trazado_210164" data-name="Trazado 210164" d="M257.978,92.822a.528.528,0,0,0,.087-1.049L249.1,90.257a.52.52,0,0,0-.61.432.53.53,0,0,0,.434.608l8.962,1.515a.393.393,0,0,0,.087.008" transform="translate(-189.524 58.569)"/>
            <path id="Trazado_210165" data-name="Trazado 210165" d="M259.616,92.6c2.03.839,3.227,2.655,2.709,4.078-3.024-1.042-6.672-1.7-7.1-3.572.834-.984,2.632-1.232,4.39-.506" transform="translate(-204.574 59.822)" fill="#ffd4de"/>
            <path id="Trazado_210166" data-name="Trazado 210166" d="M238.416,96.491,241.3,99.8l-16.485,17.877-5.094-7.18Z" transform="translate(-124.878 62.62)"/>
            <path id="Trazado_210167" data-name="Trazado 210167" d="M183.08,157.542a.825.825,0,0,0,.653-1.327l-13.8-17.951a.825.825,0,0,0-1.308,1.006l13.8,17.951a.82.82,0,0,0,.653.321" transform="translate(17.043 89.522)"/>
            <path id="Trazado_210168" data-name="Trazado 210168" d="M167.508,111.924a.807.807,0,0,0,.275-.048.825.825,0,0,0,.5-1.052l-11.54-32.6a.826.826,0,0,0-1.557.551l11.54,32.6a.828.828,0,0,0,.778.549" transform="translate(54.572 50.411)"/>
          </g>
        </g>
      </g>
    </g>
  </g>
</svg>
