<svg xmlns="http://www.w3.org/2000/svg" xmlns:xlink="http://www.w3.org/1999/xlink" width="90" height="90" viewBox="0 0 90 90">
  <defs>
    <clipPath id="clip-path">
      <rect id="Rectángulo_338887" data-name="Rectángulo 338887" width="57.161" height="61.784" fill="none"/>
    </clipPath>
    <clipPath id="clip-path-2">
      <rect id="Rectángulo_338886" data-name="Rectángulo 338886" width="57.161" height="61.785" fill="none"/>
    </clipPath>
    <clipPath id="clip-path-3">
      <rect id="Rectángulo_338885" data-name="Rectángulo 338885" width="43.101" height="25.47" transform="translate(0)" fill="none"/>
    </clipPath>
  </defs>
  <g id="Grupo_983949" data-name="Grupo 983949" transform="translate(6436 8149)">
    <g id="Grupo_982989" data-name="Grupo 982989">
      <path id="Trazado_207349" data-name="Trazado 207349" d="M45,0A45,45,0,1,1,0,45,45,45,0,0,1,45,0Z" transform="translate(-6436 -8149)" fill="#ffe891"/>
      <g id="Grupo_983956" data-name="Grupo 983956" transform="translate(-6419.58 -8134)">
        <g id="Grupo_983961" data-name="Grupo 983961" clip-path="url(#clip-path)">
          <g id="Grupo_983960" data-name="Grupo 983960" transform="translate(0 0)">
            <g id="Grupo_983959" data-name="Grupo 983959" clip-path="url(#clip-path-2)">
              <path id="Trazado_211684" data-name="Trazado 211684" d="M4.1,13.8c3.5-9,20-12.5,31.5-2.5,5.341,4.645,6.473,13.065,6.157,20.751a3.968,3.968,0,0,1,.683-.274c2.341-.584,4.694,1.181,5.4,3.382a6.344,6.344,0,0,1-.821,5.277,7.981,7.981,0,0,1-3.627,3.03,10.252,10.252,0,0,1-3.12.308,23.223,23.223,0,0,1-7.661,13.039,21.013,21.013,0,0,1-17.864,4.521C9.762,60.3,2.393,57.114.564,51.945a13.1,13.1,0,0,1-.537-4.224C-.106,36.829.1,24.093,4.1,13.8" transform="translate(9.069 0)" fill="#f2ae96"/>
              <path id="Trazado_211685" data-name="Trazado 211685" d="M42.65,31.865c0,1.669-.661,3.023-1.477,3.023S39.7,33.534,39.7,31.865s.661-3.023,1.476-3.023S42.65,30.2,42.65,31.865" transform="translate(-25.186 0)" fill="#3d1525"/>
              <path id="Trazado_211686" data-name="Trazado 211686" d="M26.909,31.865c0,1.669.661,3.023,1.477,3.023s1.476-1.354,1.476-3.023-.661-3.023-1.476-3.023-1.477,1.354-1.477,3.023" transform="translate(0.39 0)" fill="#3d1525"/>
              <path id="Trazado_211687" data-name="Trazado 211687" d="M33.225,46.37a2.43,2.43,0,0,0,1.554.527,2.546,2.546,0,0,0,1.556-.527,7.966,7.966,0,0,1-1.556.174,6.726,6.726,0,0,1-1.554-.174" transform="translate(-12.399 0)" fill="#3d1525"/>
              <path id="Trazado_211688" data-name="Trazado 211688" d="M33.539,42.424c0,1.507.606,2.729,1.354,2.729s1.354-1.222,1.354-2.729-.606-2.729-1.354-2.729-1.354,1.222-1.354,2.729" transform="translate(-12.625 0)" fill="#3d1525"/>
              <path id="Trazado_211689" data-name="Trazado 211689" d="M22.914,21.38a3.507,3.507,0,0,1,2.288-.847,7.04,7.04,0,0,1,2.437.346,5.933,5.933,0,0,1,2.146,1.229,6.239,6.239,0,0,1,1.465,1.877.707.707,0,0,1-1.1.864l-.059-.055a8.721,8.721,0,0,0-1.458-1.158,5.118,5.118,0,0,0-1.611-.661,6.274,6.274,0,0,0-1.743-.169,6.7,6.7,0,0,1-1.865-.108l-.186-.046a.74.74,0,0,1-.544-.894.75.75,0,0,1,.227-.378" transform="translate(3.157 0)" fill="#3d1525"/>
              <path id="Trazado_211690" data-name="Trazado 211690" d="M46.644,21.38a3.5,3.5,0,0,0-2.288-.847,7.04,7.04,0,0,0-2.437.346,5.928,5.928,0,0,0-2.145,1.229,6.254,6.254,0,0,0-1.465,1.877.707.707,0,0,0,1.1.864l.06-.055a8.762,8.762,0,0,1,1.458-1.158,5.113,5.113,0,0,1,1.61-.661,6.285,6.285,0,0,1,1.744-.169,6.7,6.7,0,0,0,1.865-.108l.187-.046a.74.74,0,0,0,.315-1.272" transform="translate(-27.953 0)" fill="#3d1525"/>
              <path id="Trazado_211691" data-name="Trazado 211691" d="M37.075,26.965c-.261,1.139-.453,2.27-.664,3.391s-.424,2.232-.742,3.291c-.074.266-.156.527-.251.78a2.794,2.794,0,0,0-.256.976,1.962,1.962,0,0,0,1.059,1.791,2.379,2.379,0,0,0,1.928.1,4.713,4.713,0,0,0,1.526-.913c-1.06.4-2.3.709-3.044.146a1.166,1.166,0,0,1-.524-1.078,2.158,2.158,0,0,1,.222-.671q.171-.425.3-.854a16.093,16.093,0,0,0,.554-3.478,18.456,18.456,0,0,0-.107-3.485" transform="translate(-17.674 0)" fill="#3d1525"/>
              <path id="Trazado_211692" data-name="Trazado 211692" d="M8.076,36.514a2.514,2.514,0,0,0-.787-2,2.343,2.343,0,0,0-2.281-.22,4.292,4.292,0,0,0-1.841,1.343,6.888,6.888,0,0,0-1.145,1.93.5.5,0,0,0,.827.543l.033-.034a4.448,4.448,0,0,1,1.692-1.2.783.783,0,0,1,.711.078,1.882,1.882,0,0,1,.508.784c.258.663.413,1.438-.152,1.746a3.788,3.788,0,0,1-2.237.152,3.517,3.517,0,0,0,2.458.331,1.388,1.388,0,0,0,.868-1.16,3.589,3.589,0,0,0-.144-1.338,2.511,2.511,0,0,0-.715-1.235,1.7,1.7,0,0,0-1.547-.319,4.866,4.866,0,0,0-2.2,1.482l.86.509A5.4,5.4,0,0,1,5.3,35a1.891,1.891,0,0,1,1.718-.1,2.518,2.518,0,0,1,1.056,1.613" transform="translate(47.1 0)" fill="#3d1525"/>
              <path id="Trazado_211693" data-name="Trazado 211693" d="M6.82,20.032a4.331,4.331,0,0,1-2.8-3.21,6.212,6.212,0,0,1,.76-4.31,8.054,8.054,0,0,1,8.2-3.95,3.355,3.355,0,0,1-.74-3.3,5.786,5.786,0,0,1,2.1-2.81c2.38-1.83,5.51-2.36,8.51-2.44A34.81,34.81,0,0,1,45.111,7.4c4.09,3.22,8.53,5.86,10.21,10.79,1.5,4.42,1.74,9.15,1.84,13.83a4.074,4.074,0,0,0-1.4-.336c-.824,1.263-3.313,2.638-5.451,3.644a4.285,4.285,0,0,1-5.58-1.806,25.679,25.679,0,0,1-3.186-14.662s-5.375-6.75-13.25-.125a43.012,43.012,0,0,1-15.2,8.065c-.379,2.809-.615,5.663-.753,8.5a14.127,14.127,0,0,1-5.5-2.43,9.12,9.12,0,0,1-3.74-6.56,6.508,6.508,0,0,1,3.72-6.28" transform="translate(-3.089 0)" fill="#e35e4d"/>
              <g id="Grupo_983958" data-name="Grupo 983958" transform="translate(6.75 5.009)" opacity="0.5" style="mix-blend-mode: screen;isolation: isolate">
                <g id="Grupo_983957" data-name="Grupo 983957" transform="translate(0)">
                  <g id="Grupo_983956-2" data-name="Grupo 983956" transform="translate(0)" clip-path="url(#clip-path-3)">
                    <path id="Trazado_211694" data-name="Trazado 211694" d="M47.789,29.129a2.767,2.767,0,0,1-3.035,1.034,3.741,3.741,0,0,1-2.42-2.141C41.3,25.975,41.607,23.6,41.3,21.228a10.472,10.472,0,0,0-3.377-6.295,11.53,11.53,0,0,0-6.505-3.045,12.213,12.213,0,0,0-6.991,1.6,48.342,48.342,0,0,0-5.879,3.9L12.9,21.538c-1.862,1.41-3.744,2.792-5.589,4.227,1.975-1.249,3.913-2.552,5.871-3.826l5.809-3.913A61.211,61.211,0,0,1,24.843,14.3a11.305,11.305,0,0,1,6.468-1.42,10.6,10.6,0,0,1,9.231,8.464c.392,2.2.152,4.731,1.361,6.9a4.116,4.116,0,0,0,2.8,2.171,2.832,2.832,0,0,0,3.089-1.292" transform="translate(-4.687 -5.009)" fill="#e35e4d"/>
                    <path id="Trazado_211695" data-name="Trazado 211695" d="M50.411,7.888a12.843,12.843,0,0,0-3.462.8c-1.113.424-2.177.955-3.232,1.482a41.617,41.617,0,0,1-6.35,2.846,32.668,32.668,0,0,1-6.762,1.5,36.4,36.4,0,0,1-7,.084,24.719,24.719,0,0,0,3.494.612,28.258,28.258,0,0,0,3.565.07,25.629,25.629,0,0,0,7.019-1.322,30.474,30.474,0,0,0,6.4-3.124c1.005-.606,2.009-1.2,3.056-1.7a15.416,15.416,0,0,1,3.268-1.245" transform="translate(-23.608 -5.009)" fill="#e35e4d"/>
                    <path id="Trazado_211696" data-name="Trazado 211696" d="M42.889,5.078a32.789,32.789,0,0,1-5.151.423,33.271,33.271,0,0,1-5.145-.492A9.3,9.3,0,0,0,37.731,6.5a9.337,9.337,0,0,0,5.158-1.422" transform="translate(-25.071 -5.009)" fill="#e35e4d"/>
                  </g>
                </g>
              </g>
            </g>
          </g>
        </g>
      </g>
    </g>
  </g>
</svg>
