<svg xmlns="http://www.w3.org/2000/svg" xmlns:xlink="http://www.w3.org/1999/xlink" width="172" height="191" viewBox="0 0 172 191">
  <defs>
    <clipPath id="clip-path">
      <rect id="Rect치ngulo_338997" data-name="Rect치ngulo 338997" width="131.302" height="128.501" fill="none"/>
    </clipPath>
  </defs>
  <g id="Grupo_984141" data-name="Grupo 984141" transform="translate(-8826 8319)">
    <rect id="Rect치ngulo_338976" data-name="Rect치ngulo 338976" width="172" height="191" rx="11" transform="translate(8826 -8319)" fill="#ffdfe0"/>
    <g id="Grupo_984140" data-name="Grupo 984140" transform="translate(8846.69 -8287.495)">
      <g id="Grupo_984139" data-name="Grupo 984139" clip-path="url(#clip-path)">
        <path id="Trazado_212388" data-name="Trazado 212388" d="M131.294,73.554a5.321,5.321,0,0,0-5.648-5.7c-3.817-.012-7.634-.03-11.45.019-.847.011-1.152-.175-1.075-1.062a6.488,6.488,0,0,0-.939-3.869,6.915,6.915,0,0,0-7.649-3.254,6.771,6.771,0,0,0-5.317,6.649c.014,1.313-.381,1.6-1.6,1.543-2.136-.1-4.281-.006-6.422-.036-1.248-.018-2.829.505-3.64-.219-.649-.579-.378-2.19-.516-3.343-.011-.093-.032-.184-.043-.276-.222-1.722-.222-1.722,1.479-1.741A9.11,9.11,0,0,0,97.768,53q.041-12.428,0-24.857a9.046,9.046,0,0,0-9.107-9.159q-22.971-.05-45.943,0a9.064,9.064,0,0,0-9.177,9.231q-.04,12.428,0,24.857a9.186,9.186,0,0,0,7.415,9.054c1.156.264,2.85-.538,3.347.61.455,1.05-.108,2.542-.227,3.839-.021.232-.089.46-.1.691-.012.488-.273.6-.718.594-5.989-.011-11.979-.007-18.219-.007a9.941,9.941,0,0,0,2.882-6.625c.057-2.791.008-5.586.026-8.378.007-1.229-.58-1.778-1.8-1.761-1.649.022-3.3.005-5.191.005,1.019-1.357,1.878-2.5,2.734-3.641,1.311-1.749,2.632-3.491,3.924-5.253a1.384,1.384,0,1,0-2.2-1.675c-.3.353-.567.737-.847,1.108l-5.005,6.65c0-2.517,0-4.645,0-6.774A1.387,1.387,0,0,0,18.3,39.949,1.314,1.314,0,0,0,16.8,41.1a4.867,4.867,0,0,0-.029,1.114c0,1.917,0,3.834,0,6.088-2.023-2.7-3.807-5.076-5.588-7.455-.585-.783-1.279-1.333-2.219-.6-.923.714-.608,1.511-.006,2.3q2.865,3.779,5.685,7.593c.2.264.608.465.423.957-1.581,0-3.162-.009-4.744,0-1.471.011-1.915.443-1.926,1.892-.013,1.815.062,3.633-.018,5.445-.148,3.418.216,6.664,2.96,9.42-2.187,0-4.081-.023-5.974.005A5.287,5.287,0,0,0,.019,73.152c-.026,1.116-.024,2.234,0,3.351a5.3,5.3,0,0,0,5.327,5.314,43.782,43.782,0,0,0,4.466-.024c1.218-.1,1.406.337,1.4,1.453q-.06,22.693-.025,45.384c0,1.658.4,2.066,2.03,2.071,2.281.008,4.561,0,6.842,0,2,0,2.3-.311,2.3-2.367,0-9.077.014-18.154-.019-27.23,0-.9.2-1.161,1.131-1.151,4.561.051,9.123.023,13.685.023,3.228,0,3.227,0,3.369-3.261a1.593,1.593,0,0,1,.15-.36c2.92,3.159,6.637,3.818,10.675,3.643,2.556-.111,5.12,0,7.679-.034.709-.011,1.07.05,1.061.934-.049,4.514-.042,9.031,0,13.545.006.757-.234.921-.941.912-2.792-.037-5.586.006-8.378-.025-1.277-.014-1.924.514-1.874,1.822.016.419-.031.841.01,1.256a1.485,1.485,0,0,1-1.046,1.756,5.445,5.445,0,0,0-2.43,7.675,5.629,5.629,0,0,0,5.778,2.8,5.7,5.7,0,0,0,4.635-4.782,5.445,5.445,0,0,0-3.253-5.761,1.217,1.217,0,0,1-.88-1.561c.158-.769.835-.379,1.25-.381q13.406-.038,26.811,0c.409,0,1.082-.4,1.239.395.147.748,0,1.376-.916,1.524a1.274,1.274,0,0,0-.365.2A5.481,5.481,0,0,0,77,126.416a5.56,5.56,0,0,0,10.8.117,5.215,5.215,0,0,0-2.6-6.161,2.093,2.093,0,0,1-1.383-2.538,3.009,3.009,0,0,0,0-.419c-.012-1.66-.4-2.069-2.03-2.073-2.746-.007-5.493-.029-8.238.016-.744.011-.925-.215-.919-.934q.046-6.772,0-13.545c-.006-.747.219-.928.935-.918,2.7.04,5.4-.027,8.1.026A11.759,11.759,0,0,0,90.793,96.2c0,.557,0,.822,0,1.087.021,2.551.155,2.686,2.676,2.686,4.748,0,9.5.042,14.244-.031,1.092-.017,1.265.314,1.26,1.312-.041,9.123-.026,18.247-.022,27.37,0,1.659.4,2.066,2.029,2.072q3.492.012,6.983,0c1.807,0,2.157-.364,2.158-2.226q0-9.775,0-19.549c0-8.659.013-17.317-.02-25.975,0-.889.193-1.2,1.13-1.152,1.578.083,3.164.048,4.747.018a5.305,5.305,0,0,0,5.313-5.33c.021-.977.009-1.955,0-2.932M52.982,124.385a6.05,6.05,0,0,1,.116.67,2.788,2.788,0,0,1-2.024,2.717,2.777,2.777,0,0,1-3.008-4.312c.343-.482.687-.9,1.281-.2a1.17,1.17,0,0,0,1.627.23c1.088-.653,1.639-.4,2.008.89m30.346-1.1c.578-.661.925-.366,1.293.146a2.633,2.633,0,0,1,.291,2.879,2.744,2.744,0,0,1-5,0,2.635,2.635,0,0,1,.292-2.879c.371-.518.718-.795,1.294-.14a1.133,1.133,0,0,0,1.829,0M106.234,62.27a4.332,4.332,0,0,1,4.129,4.813c-.031.6-.189.805-.8.784-1.161-.042-2.326-.012-3.49-.011-1.07,0-2.143-.049-3.21.016-.759.046-.91-.238-.919-.947a4.293,4.293,0,0,1,4.287-4.655M43.873,59.493c-4.8.175-7.546-2.414-7.547-7.185q0-11.865,0-23.729c0-4.177,2.613-6.8,6.78-6.809q11.306-.015,22.613,0,11.166,0,22.333,0c4.35,0,6.925,2.587,6.928,6.946q.007,12,0,24.008A6.618,6.618,0,0,1,87.155,59.5c-.631-.08-.6-.415-.653-.821-.215-1.751-.288-3.534-.673-5.247a11.708,11.708,0,0,0-11.52-9.307q-8.654-.061-17.308,0A11.831,11.831,0,0,0,45.225,54.793c-.145,1.294-.321,2.586-.4,3.884-.043.684-.325.794-.95.816M11.2,60.985c-.041-2.048.034-4.1-.029-6.144-.026-.842.292-.985,1.038-.968,2,.046,4,.016,6,.016s4,.026,6-.015c.7-.014.98.127.959.9-.057,2.094.021,4.19-.032,6.284A6.974,6.974,0,0,1,11.2,60.985m8.371,43.774c0,7.262-.024,14.524.025,21.785.008,1.1-.275,1.481-1.387,1.385-1.335-.117-3.12.425-3.912-.252-.916-.783-.295-2.619-.3-3.993-.024-13.452,0-26.906-.043-40.358,0-1.228.283-1.658,1.531-1.527,1.286.133,3.007-.4,3.778.249.9.76.284,2.531.291,3.859.033,6.283.015,12.567.015,18.852M5.934,79.026c-2.239,0-3.114-.89-3.126-3.133q-.005-1.046,0-2.094c.011-2.255.881-3.146,3.109-3.148q8.519-.009,17.036,0c6.47,0,12.94.029,19.409-.027,1.115-.01,1.339.343,1.213,1.35-.241,1.937-.438,3.882-.557,5.829-.057.939-.364,1.256-1.336,1.249-6-.042-12.008-.021-18.013-.021q-8.867,0-17.734,0m31.8,17.206c.018.706-.172.972-.928.966q-6.762-.046-13.525,0c-.745.005-.956-.24-.936-.958.044-1.626.059-3.254-.005-4.878-.035-.888.2-1.213,1.144-1.183,2.182.07,4.368.022,6.552.022,2.231,0,4.463.033,6.692-.017.807-.019,1.033.25,1.009,1.03-.052,1.672-.044,3.347,0,5.019m1.509-8.825c-5.254,0-10.507-.022-15.76.021-.9.007-1.231-.2-1.14-1.133.143-1.462-.608-3.432.3-4.259.8-.724,2.735-.2,4.169-.212,1.906-.012,3.811,0,5.718,0,2.882,0,5.768.077,8.646-.035,1.261-.049,1.513.384,1.286,1.47-.105.5-.128,1.014-.189,1.521-.313,2.631-.313,2.631-3.03,2.631m20.837,8.728c.02.747-.151,1.076-.991,1.066-3.538-.043-7.076.034-10.613-.038a8.25,8.25,0,0,1-7.417-5.458c-.521-1.455-.5-1.5.992-1.5,2.793-.006,5.586,0,8.379,0s5.587.034,8.379-.019c.929-.019,1.338.173,1.28,1.207-.087,1.578-.053,3.165-.009,4.747m8.17,19.228a44.03,44.03,0,0,0-4.465-.008c-.744.026-.94-.228-.939-.952.021-10.609,0-21.217.027-31.827a3.482,3.482,0,1,1,6.96.108c.026,5.258.009,10.516.009,15.774,0,5.118-.054,10.238.038,15.355.023,1.345-.419,1.63-1.63,1.551M72.63,82.426A6.279,6.279,0,0,0,60.074,82.4c-.034,1.348-.034,2.7.005,4.046.019.669-.091.991-.888.984q-6.7-.057-13.4,0c-.959.011-.9-.453-.833-1.114.51-5.274.991-10.55,1.5-15.824.5-5.18.984-10.365,1.568-15.537a9,9,0,0,1,9.021-8.041c2.883-.027,5.768-.005,8.652-.005,2.791,0,5.582-.013,8.373,0a8.969,8.969,0,0,1,9.2,8.149c.9,8.457,1.672,16.928,2.5,25.394.193,1.99.345,3.984.587,5.967.1.833-.18,1.01-.959,1q-5.93-.05-11.861,0c-.756.007-.948-.238-.922-.953.05-1.347.04-2.7.008-4.045M90.247,91.7a8.266,8.266,0,0,1-7.415,5.462c-3.071.07-6.144,0-9.216.029-.683.006-1.015-.141-.993-.918q.074-2.582,0-5.166c-.021-.774.306-.928.992-.92,2.653.027,5.306.011,7.959.011,2.56,0,5.12,0,7.68,0,1.482,0,1.511.055.993,1.5m17.71,5.5c-2.229-.051-4.461-.018-6.691-.018-2.185,0-4.37-.047-6.553.022-.941.03-1.181-.291-1.145-1.181.065-1.624.049-3.253.005-4.879-.019-.715.186-.965.934-.96q6.762.046,13.525,0c.753-.005.948.255.93.964-.042,1.673-.049,3.347,0,5.019.024.777-.2,1.051-1.008,1.032m.7-10.011c-.729.729-2.724.211-4.158.214-4.7.01-9.392-.026-14.086.027-.979.011-1.287-.291-1.3-1.236a28.585,28.585,0,0,0-.3-3.469c-.105-.756.145-.93.872-.921,3.068.038,6.137.016,9.205.016,3.022,0,6.044.025,9.066-.017.764-.011,1.08.162,1.007.98-.135,1.511.619,3.486-.3,4.406m8.668,17.689c0,7.216-.02,14.431.022,21.646.007,1.061-.218,1.537-1.366,1.4-1.368-.164-3.157.573-4.016-.31-.789-.812-.215-2.572-.217-3.911-.014-13.452.006-26.906-.035-40.358,0-1.188.222-1.719,1.51-1.539,1.318.183,3.046-.567,3.881.3.761.794.209,2.484.213,3.778.019,6.331.009,12.662.009,18.992M128.5,76.26a2.528,2.528,0,0,1-2.793,2.761c-3.584.023-7.167.007-10.751.007-8.378,0-16.756-.026-25.134.03-1.184.008-1.494-.382-1.547-1.484-.092-1.9-.306-3.8-.545-5.691-.123-.978.164-1.265,1.167-1.258,6.144.045,12.287.022,18.431.022q9.006,0,18.013,0c2.263,0,3.148.876,3.162,3.1.005.838.018,1.676,0,2.513" transform="translate(0 -2.217)"/>
        <path id="Trazado_212389" data-name="Trazado 212389" d="M17.606,22.712a9.775,9.775,0,1,0-9.681-9.835,9.808,9.808,0,0,0,9.681,9.835M17.67,5.956A6.981,6.981,0,1,1,10.718,13,7,7,0,0,1,17.67,5.956" transform="translate(-0.926 -0.37)"/>
        <path id="Trazado_212390" data-name="Trazado 212390" d="M121.79,24.162a8.378,8.378,0,1,0,8.336-8.348,8.413,8.413,0,0,0-8.336,8.348m8.332-5.554a5.585,5.585,0,1,1-5.538,5.629,5.609,5.609,0,0,1,5.538-5.629" transform="translate(-14.237 -1.849)"/>
        <path id="Trazado_212391" data-name="Trazado 212391" d="M36.89,4.187A2.128,2.128,0,0,0,39,2.07a2.093,2.093,0,0,0-4.185-.025A2.124,2.124,0,0,0,36.89,4.187" transform="translate(-4.069 0)" fill="#040404"/>
        <path id="Trazado_212392" data-name="Trazado 212392" d="M122.289,7.35A2.128,2.128,0,0,0,124.4,5.233a2.093,2.093,0,0,0-4.186-.025,2.124,2.124,0,0,0,2.079,2.142" transform="translate(-14.052 -0.37)" fill="#040404"/>
        <path id="Trazado_212393" data-name="Trazado 212393" d="M74.79,12.091A2.094,2.094,0,1,0,72.769,9.9a2.125,2.125,0,0,0,2.021,2.195" transform="translate(-8.506 -0.924)" fill="#040404"/>
        <path id="Trazado_212394" data-name="Trazado 212394" d="M9.9,34.229a2.093,2.093,0,1,0-1.978-2.1,2.122,2.122,0,0,0,1.978,2.1" transform="translate(-0.926 -3.512)" fill="#040404"/>
        <path id="Trazado_212395" data-name="Trazado 212395" d="M124.958,51a2.093,2.093,0,1,0,2.1-1.976,2.12,2.12,0,0,0-2.1,1.976" transform="translate(-14.607 -5.731)" fill="#040404"/>
        <path id="Trazado_212396" data-name="Trazado 212396" d="M49.631,59.047c.081-1.3.257-2.59.4-3.884A11.83,11.83,0,0,1,61.809,44.494q8.654-.066,17.308,0A11.708,11.708,0,0,1,90.637,53.8c.385,1.713.458,3.5.674,5.247.049.406.022.741.653.821a6.617,6.617,0,0,0,7.823-6.776q.016-12,0-24.008c0-4.359-2.578-6.943-6.928-6.946q-11.167-.008-22.333,0-11.306,0-22.612,0c-4.167.005-6.778,2.632-6.781,6.809q-.008,11.865,0,23.729c0,4.771,2.744,7.36,7.548,7.186.625-.023.906-.132.949-.817" transform="translate(-4.808 -2.588)" fill="#bbe3fe"/>
        <path id="Trazado_212397" data-name="Trazado 212397" d="M79.491,91.123q5.93-.056,11.861,0c.779.007,1.061-.17.959-1-.242-1.983-.394-3.977-.587-5.966-.824-8.465-1.595-16.936-2.5-25.394a8.967,8.967,0,0,0-9.2-8.149c-2.791-.016-5.581,0-8.373,0-2.883,0-5.768-.022-8.652.005a9,9,0,0,0-9.02,8.041c-.585,5.172-1.064,10.356-1.568,15.537-.513,5.274-.994,10.55-1.5,15.824-.064.66-.126,1.123.833,1.114q6.7-.07,13.4,0c.8.007.907-.315.888-.985-.04-1.348-.038-2.7-.005-4.046a6.279,6.279,0,0,1,12.557.031c.032,1.348.042,2.7-.008,4.046-.026.714.165.96.921.953" transform="translate(-5.948 -5.915)" fill="#9fb4c4"/>
        <path id="Trazado_212398" data-name="Trazado 212398" d="M42.052,85.887c.972.007,1.279-.31,1.336-1.249.118-1.947.315-3.893.557-5.83.125-1.008-.1-1.36-1.213-1.35-6.47.057-12.939.028-19.41.028q-8.518,0-17.035,0c-2.228,0-3.1.893-3.109,3.147q-.005,1.048,0,2.095c.011,2.243.888,3.131,3.125,3.132q8.867.009,17.734,0c6,0,12.008-.021,18.013.021" transform="translate(-0.371 -9.055)" fill="#c76d36"/>
        <path id="Trazado_212399" data-name="Trazado 212399" d="M136.947,77.489q-9.006-.008-18.013,0c-6.144,0-12.287.022-18.431-.022-1-.007-1.29.278-1.167,1.258.238,1.89.452,3.789.544,5.69.053,1.1.363,1.492,1.548,1.484,8.377-.056,16.755-.029,25.133-.029,3.584,0,7.167.016,10.752-.007a2.528,2.528,0,0,0,2.792-2.761c.021-.838.008-1.676,0-2.513-.014-2.22-.9-3.094-3.162-3.1" transform="translate(-11.609 -9.055)" fill="#c76d36"/>
        <path id="Trazado_212400" data-name="Trazado 212400" d="M21.085,90.354c-.771-.653-2.492-.116-3.778-.249-1.248-.13-1.536.3-1.531,1.527.047,13.452.019,26.906.043,40.358,0,1.374-.618,3.21.3,3.993.791.677,2.576.135,3.911.252,1.113.1,1.4-.289,1.387-1.385-.049-7.262-.025-14.524-.025-21.785,0-6.284.018-12.568-.015-18.852-.006-1.328.606-3.1-.291-3.859" transform="translate(-1.825 -10.523)" fill="#a75120"/>
        <path id="Trazado_212401" data-name="Trazado 212401" d="M131.874,90.412c-.836-.872-2.564-.122-3.881-.3-1.288-.179-1.515.351-1.51,1.539.041,13.452.02,26.906.035,40.358,0,1.34-.572,3.1.217,3.911.859.883,2.648.146,4.015.31,1.148.139,1.372-.337,1.366-1.4-.043-7.215-.022-14.43-.022-21.646,0-6.33.01-12.661-.008-18.992,0-1.294.548-2.984-.213-3.778" transform="translate(-14.766 -10.518)" fill="#a75120"/>
        <path id="Trazado_212402" data-name="Trazado 212402" d="M78.163,106.409c0-5.258.017-10.516-.01-15.774a3.482,3.482,0,1,0-6.96-.108c-.026,10.61-.007,21.218-.027,31.827,0,.724.194.978.939.952a44.033,44.033,0,0,1,4.465.008c1.212.079,1.653-.206,1.63-1.551-.092-5.117-.036-10.236-.037-15.355" transform="translate(-8.319 -10.168)" fill="#7d88a9"/>
        <path id="Trazado_212403" data-name="Trazado 212403" d="M19.678,72.474a6.981,6.981,0,0,0,6.939-6.792c.053-2.094-.025-4.19.032-6.284.021-.776-.263-.918-.959-.9-2,.042-4,.015-6,.015s-4,.03-6.005-.016c-.744-.017-1.063.125-1.037.968.064,2.046-.011,4.1.029,6.144a6.984,6.984,0,0,0,7,6.869" transform="translate(-1.478 -6.838)" fill="#cfdbe6"/>
        <path id="Trazado_212404" data-name="Trazado 212404" d="M64.2,99.608c-2.791.055-5.586.019-8.379.019s-5.586,0-8.379,0c-1.489,0-1.513.047-.992,1.5a8.25,8.25,0,0,0,7.417,5.458c3.537.072,7.075-.005,10.613.038.84.01,1.011-.319.991-1.066-.044-1.582-.078-3.169.009-4.747.057-1.034-.351-1.226-1.281-1.207" transform="translate(-5.394 -11.644)" fill="#5c6886"/>
        <path id="Trazado_212405" data-name="Trazado 212405" d="M98.866,99.63c-2.56-.006-5.12,0-7.68,0-2.653,0-5.307.017-7.959-.011-.686-.007-1.013.147-.991.92q.073,2.582,0,5.166c-.022.776.31.924.993.918,3.072-.026,6.146.041,9.217-.029a8.264,8.264,0,0,0,7.415-5.462c.517-1.446.488-1.5-.993-1.5" transform="translate(-9.613 -11.645)" fill="#5c6886"/>
        <path id="Trazado_212406" data-name="Trazado 212406" d="M39.685,99.61c-2.23.05-4.461.018-6.692.018-2.184,0-4.37.047-6.552-.022-.945-.03-1.179.3-1.144,1.182.064,1.624.049,3.253,0,4.879-.019.718.191.963.937.958q6.762-.048,13.524,0c.757.005.946-.261.928-.967-.041-1.672-.049-3.347,0-5.018.024-.78-.2-1.049-1.009-1.031" transform="translate(-2.957 -11.643)" fill="#c76d36"/>
        <path id="Trazado_212407" data-name="Trazado 212407" d="M121.347,100.578c.018-.709-.177-.97-.93-.964q-6.762.048-13.525,0c-.748-.005-.954.245-.934.96.044,1.626.06,3.255-.005,4.879-.035.889.2,1.211,1.145,1.181,2.182-.069,4.368-.022,6.553-.022,2.231,0,4.462-.034,6.691.018.81.019,1.031-.255,1.008-1.032-.051-1.672-.045-3.346,0-5.019" transform="translate(-12.385 -11.645)" fill="#c76d36"/>
        <path id="Trazado_212408" data-name="Trazado 212408" d="M116.361,73.6c1.067-.064,2.14-.016,3.21-.016,1.164,0,2.328-.03,3.49.011.608.021.766-.179.8-.784a4.238,4.238,0,1,0-8.416-.158c.009.708.16.993.919.947" transform="translate(-13.495 -7.949)" fill="#fecb65"/>
        <path id="Trazado_212409" data-name="Trazado 212409" d="M55.633,137.02c-.6-.7-.941-.286-1.281.2a2.777,2.777,0,0,0,3.007,4.312,2.785,2.785,0,0,0,2.024-2.717,5.889,5.889,0,0,0-.117-.67c-.368-1.291-.919-1.543-2.006-.89a1.169,1.169,0,0,1-1.627-.23" transform="translate(-6.285 -15.973)" fill="#7c88a8"/>
        <path id="Trazado_212410" data-name="Trazado 212410" d="M90.744,137.186a2.634,2.634,0,0,0-.293,2.879,2.744,2.744,0,0,0,5,0,2.631,2.631,0,0,0-.29-2.879c-.368-.511-.716-.807-1.294-.146a1.132,1.132,0,0,1-1.828,0c-.576-.654-.924-.378-1.294.14" transform="translate(-10.538 -15.975)" fill="#7c88a8"/>
        <path id="Trazado_212411" data-name="Trazado 212411" d="M18.027,20.288a6.981,6.981,0,1,0-6.939-6.919,7.011,7.011,0,0,0,6.939,6.919" transform="translate(-1.296 -0.739)" fill="#fe5986"/>
        <path id="Trazado_212412" data-name="Trazado 212412" d="M130.582,30.146a5.585,5.585,0,1,0-5.629-5.541,5.614,5.614,0,0,0,5.629,5.541" transform="translate(-14.607 -2.218)" fill="#fe5986"/>
      </g>
    </g>
  </g>
</svg>
