<svg xmlns="http://www.w3.org/2000/svg" xmlns:xlink="http://www.w3.org/1999/xlink" width="172" height="256" viewBox="0 0 172 256">
  <defs>
    <clipPath id="clip-path">
      <rect id="Rect치ngulo_338998" data-name="Rect치ngulo 338998" width="135.014" height="196.296" fill="none"/>
    </clipPath>
  </defs>
  <g id="Grupo_984144" data-name="Grupo 984144" transform="translate(-9681 8302)">
    <rect id="Rect치ngulo_338981" data-name="Rect치ngulo 338981" width="172" height="256" rx="11" transform="translate(9681 -8302)" fill="#ffdfe0"/>
    <g id="Grupo_984143" data-name="Grupo 984143" transform="translate(9699.918 -8271.85)">
      <g id="Grupo_984142" data-name="Grupo 984142" clip-path="url(#clip-path)">
        <path id="Trazado_212413" data-name="Trazado 212413" d="M131.924,77.122c2.516.658,3.054,1.313,3.054,3.831q.006,57.542.035,115.085a4.121,4.121,0,0,1-1.967,3.8H1.968a4.13,4.13,0,0,1-1.968-4q.063-69.83.034-139.661c0-3.109.852-3.96,3.964-3.96q63.5,0,127.007,0c3.115,0,3.972.855,3.975,3.951q.008,6.706,0,13.41c0,2.522-.541,3.18-3.054,3.833-2,.092-3.095-.94-3.255-3.27-.17-2.486-.04-4.981-.063-7.472,0-.447,0-.895,0-1.341-.021-2.617-.086-2.7-2.68-2.7q-22.612-.011-45.224,0-35.453,0-70.9,0c-3.384,0-3.387,0-3.387,3.369q0,64.008,0,128.019c0,.383-.007.767,0,1.15.06,2.086.231,2.3,2.34,2.3,10.86.021,21.719,0,32.578.021a2.454,2.454,0,0,0,2.735-1.813,10.626,10.626,0,0,1,5.172-6.162,2.813,2.813,0,0,0,1.571-2.8c-.018-7.538-.03-15.076.007-22.614.008-1.525-.561-2.147-2.091-2.267A12.162,12.162,0,0,1,37.711,149.9a7.327,7.327,0,0,1-.649-2.589c-.111-3.7-.089-7.409-.017-11.113a2.963,2.963,0,0,1,2.5-3.161c2.959,0,4.207,1.165,4.35,4.074.057,1.148.022,2.3.031,3.447.008,1.124.554,1.618,1.655,1.61,1.021-.007,2.043.023,3.064,0,1.928-.048,2.184-.278,2.2-2.262.038-4.533,0-9.067.017-13.6.01-3.082,1.27-4.765,3.492-4.71,2.117.051,3.326,1.728,3.353,4.707.026,2.809.057,5.62-.011,8.427-.038,1.591.613,2.118,2.16,2.1q7.66-.088,15.322,0c1.56.017,2.184-.556,2.144-2.127-.066-2.616-.021-5.236-.015-7.853a13.669,13.669,0,0,1,.085-2.1,3.369,3.369,0,0,1,6.73.259c.106,1.656.034,3.318.037,4.978.009,3.32-.03,6.64.017,9.96.027,1.92.315,2.218,2.262,2.217,5.331,0,4.617.555,4.66-4.515.03-3.511,0-7.023.007-10.535a22.77,22.77,0,0,0-8.064-17.72,1.947,1.947,0,0,0-2.86-.039,21.33,21.33,0,0,1-8.249,3.886,20.479,20.479,0,0,1-16.7-3.587c-2.015-1.424-2.018-1.341-3.847.337a22.76,22.76,0,0,0-7.508,16.433c-.119,2.688-1.105,3.738-3.579,4.113-2.464-.682-3.211-1.538-3.218-4.026-.026-9.451,3.994-16.987,11.074-23.019a27.623,27.623,0,0,1,5.273-3.473c1.122-.58,1.465-1.008.313-1.944A16.779,16.779,0,0,1,51.1,95.3,20.69,20.69,0,0,1,63.484,62.567c10.065-2.1,22.132,4.165,24.27,16.567,1.171,6.79-.464,12.944-5.457,17.972-.585.589-1.2,1.146-1.769,1.752a.779.779,0,0,0-.09.2c.114.608.724.621,1.132.848,8.708,4.866,14.19,12.089,16.1,21.944a18.816,18.816,0,0,1,.289,3.621c0,6.516-.225,13.042.065,19.545A12.349,12.349,0,0,1,86.617,157.8c-2.45.206-2.453.273-2.455,2.785-.006,7.219.031,14.438-.027,21.655a3.457,3.457,0,0,0,1.961,3.55,9.963,9.963,0,0,1,4.819,5.967,2.267,2.267,0,0,0,2.513,1.8q16.575-.036,33.151,0c1.6,0,2.109-.652,2.1-2.181-.043-6.515-.019-13.032-.019-19.547q0-44.558,0-89.114a15.526,15.526,0,0,1,.128-3.058,2.756,2.756,0,0,1,3.135-2.532" transform="translate(0 -3.546)"/>
        <path id="Trazado_212414" data-name="Trazado 212414" d="M40.614,133.673c-1.991.464-2.808,1.723-2.752,3.753.079,2.808-.032,5.621.035,8.429A11.583,11.583,0,0,0,49.862,157.63c1.444.01,1.948.3,1.932,1.872-.085,8.174-.063,16.348-.014,24.522a2.064,2.064,0,0,1-1.447,2.257A9.323,9.323,0,0,0,44.87,193c-.254,1.159-.757,1.471-1.915,1.466q-17.527-.067-35.056,0c-1.392.007-1.668-.449-1.667-1.74q.048-66.287-.011-132.576c0-1.5.453-1.75,1.826-1.749q59.866.055,119.731-.008c1.558,0,1.905.457,1.857,1.915-.105,3.19.041,6.388-.058,9.577-.065,2.1.687,3.443,2.77,3.944v3.7c-2.211.517-2.774,2.007-2.772,4.135q.057,55.175.077,110.351c0,2.047-.57,2.478-2.516,2.462-11.365-.093-22.732-.066-34.1-.017-1.213.006-1.792-.251-2.071-1.52a9.38,9.38,0,0,0-5.488-6.706,1.962,1.962,0,0,1-1.4-2.1q.078-12.452,0-24.906c-.008-1.256.347-1.587,1.6-1.608,7.553-.128,12.248-4.887,12.285-12.422.031-6.194.176-12.4-.08-18.58-.5-12.031-6.439-20.665-17.032-26.2l-1.328-.7c5.534-4.358,8.6-9.871,8.45-16.938A19.53,19.53,0,0,0,81.6,68.525a20.063,20.063,0,0,0-28.384,1.029c-6.873,7.238-8.389,21.212,3.01,30.168-1.654.951-3.384,1.784-4.941,2.866-8.408,5.842-12.96,13.857-13.352,24.144-.094,2.462.408,3.1,2.815,3.818a2.477,2.477,0,0,1-.129,3.123" transform="translate(-0.422 -3.966)" fill="#b2b2b2"/>
        <path id="Trazado_212415" data-name="Trazado 212415" d="M51.96,12.75q0,5.633,0,11.266c0,5.363.014,10.727-.012,16.09-.012,2.237-1.105,3.552-2.861,3.586-1.806.034-2.995-1.376-3-3.661q-.022-12.737-.007-25.475V12.092L40.5,19.818c-.486.673-.958,1.355-1.462,2.013-1.314,1.719-3.026,2.112-4.44,1.037-1.389-1.056-1.541-2.678-.317-4.406,2.21-3.123,4.467-6.212,6.7-9.315,1.791-2.483,3.557-4.983,5.379-7.443,1.658-2.238,3.675-2.288,5.306-.058q6.153,8.415,12.194,16.915a2.97,2.97,0,0,1-.515,4.387c-1.427.987-3.041.612-4.285-1.082-2.249-3.066-4.456-6.161-6.682-9.244l-.423.127" transform="translate(-2.272 0)"/>
        <path id="Trazado_212416" data-name="Trazado 212416" d="M96.5,31.668c2.539-3.521,4.735-6.555,6.918-9.6a3.636,3.636,0,0,1,1.821-1.617,2.824,2.824,0,0,1,3.265.96,2.663,2.663,0,0,1,.118,3.378c-4.228,5.914-8.452,11.832-12.761,17.686a2.749,2.749,0,0,1-4.7-.088q-6.4-8.709-12.632-17.543a2.812,2.812,0,0,1,.7-4.051,2.874,2.874,0,0,1,4.053.773c1.994,2.649,3.9,5.363,5.845,8.05.362.5.733.993,1.388,1.879.05-1.081.105-1.733.106-2.384q.008-12.355.008-24.712a11.294,11.294,0,0,1,.1-1.906A2.677,2.677,0,0,1,93.485.08,2.649,2.649,0,0,1,96.3,2.194a8.188,8.188,0,0,1,.188,2.08c.011,8.936.007,17.871.007,27.394" transform="translate(-5.293 -0.005)"/>
        <path id="Trazado_212417" data-name="Trazado 212417" d="M43.12,137.3l.129-3.123c2.38-.638,2.907-1.35,3.013-3.921a24.033,24.033,0,0,1,8.818-17.8c.949-.821,1.509-.785,2.5.069a19.831,19.831,0,0,0,25.667.011c1.111-.942,1.694-.821,2.655.02,5.529,4.839,8.6,10.847,8.7,18.242.071,4.789-.009,9.58.045,14.369.012,1.123-.25,1.621-1.478,1.549a42.242,42.242,0,0,0-4.978,0c-1.285.077-1.627-.4-1.613-1.64.056-5.237.045-10.474.01-15.71-.016-2.317-1.771-3.775-3.695-3.123a3.052,3.052,0,0,0-2.119,3.267c.022,3.384-.047,6.771.034,10.153.029,1.238-.3,1.646-1.584,1.632q-8.813-.1-17.625,0c-1.341.017-1.569-.491-1.545-1.668.066-3.32.037-6.641.017-9.962-.013-2.186-1.133-3.535-2.89-3.564s-2.909,1.3-2.917,3.489c-.019,5.109-.037,10.219.014,15.326.012,1.232-.187,1.906-1.646,1.8-2.026-.148-4.6.617-5.95-.365-1.335-.969-.319-3.685-.442-5.63-.13-2.06-.821-2.857-3.126-3.418" transform="translate(-2.928 -7.596)" fill="#ee5959"/>
        <path id="Trazado_212418" data-name="Trazado 212418" d="M61.307,170.61c0-6.384.038-12.769-.031-19.152-.014-1.357.229-1.864,1.743-1.838,5.807.1,11.618.076,17.426.011,1.252-.013,1.6.336,1.592,1.59q-.067,19.343,0,38.688c0,1.244-.318,1.717-1.588,1.585-1.886-.195-4.343.793-5.523-.4-1.082-1.094-.292-3.524-.3-5.364-.027-8.235-.008-16.471-.018-24.706a9.624,9.624,0,0,0-.149-2.089,2.685,2.685,0,0,0-2.877-2.286,2.656,2.656,0,0,0-2.717,2.243,9.568,9.568,0,0,0-.157,2.088c-.009,9.576-.038,19.153.027,28.728.009,1.435-.358,1.955-1.805,1.787-1.817-.21-4.252.783-5.3-.4-.9-1.014-.308-3.393-.314-5.168-.019-5.107-.007-10.215-.007-15.322" transform="translate(-4.151 -10.16)" fill="#32a7e9"/>
        <path id="Trazado_212419" data-name="Trazado 212419" d="M70.693,69.941c5.671-.82,11.624,2.645,14.149,8.235a14.236,14.236,0,0,1-3.749,16.648A12.163,12.163,0,0,1,73.9,97.985c-2.2.473-4.125.12-5.479-1.867-.336-.493-.89-1.034,0-1.55a4.727,4.727,0,0,1,2.268.057,10.619,10.619,0,0,0,11.649-9.012c.351-2.81-.594-3.957-3.425-3.994-4.023-.052-8.046-.007-12.069-.02a6.222,6.222,0,0,1-2.459-.254c-.681-.427-.6-1.077-.409-1.684,1.209-3.947,3.031-7.48,6.716-9.72" transform="translate(-4.335 -4.741)" fill="#fbe4c4"/>
        <path id="Trazado_212420" data-name="Trazado 212420" d="M68,94.84a4.508,4.508,0,0,0,3.363,3.085c.693.041,1.387.047,2.08.069-6.143,1.548-13.4-2.9-15.6-9.562C54.967,79.694,61.43,70.053,70.239,69.95c-2.829,2.859-5.343,5.919-6.312,9.956-.088.365-.133.74-.2,1.111-.037.051-.062.123-.113.152-3.048,1.733-3.5,2.89-2.354,6.318a11.141,11.141,0,0,0,5.214,6.107c.565.335,1.417.346,1.528,1.246" transform="translate(-3.881 -4.75)" fill="#e9d1b4"/>
        <path id="Trazado_212421" data-name="Trazado 212421" d="M80.1,108.248a13.707,13.707,0,0,1-16.491.076c3.861-2.261,12.113-2.3,16.491-.076" transform="translate(-4.319 -7.239)" fill="#f9e2c2"/>
        <path id="Trazado_212422" data-name="Trazado 212422" d="M60.971,204.14c-1.975,0-3.951-.018-5.926.007-1.24.015-1.265-.557-.747-1.421a3.877,3.877,0,0,1,3.313-1.961c3.12-.089,6.245,0,9.367-.05,1.506-.023,1.122,1.025,1.179,1.849.063.906-.012,1.634-1.259,1.593-1.973-.065-3.951-.017-5.926-.017" transform="translate(-3.665 -13.629)" fill="#4c4c4c"/>
        <path id="Trazado_212423" data-name="Trazado 212423" d="M82.653,204.14c-1.848,0-3.7-.076-5.543.025-1.455.079-1.471-.741-1.469-1.8,0-1,.054-1.706,1.392-1.669,2.993.081,5.991-.013,8.984.047a4.011,4.011,0,0,1,3.5,1.982c.527.861.493,1.434-.746,1.418-2.038-.025-4.078-.007-6.117-.007" transform="translate(-5.136 -13.628)" fill="#4b4b4b"/>
        <path id="Trazado_212424" data-name="Trazado 212424" d="M47.29,155.473c2.313,0,4.317.036,6.317-.014,1.16-.03.938.741.938,1.4,0,.734.217,1.533-1.029,1.556-2.41.044-4.525-.468-6.225-2.946" transform="translate(-3.211 -10.556)" fill="#f4ddbe"/>
        <path id="Trazado_212425" data-name="Trazado 212425" d="M96.857,155.477a6.157,6.157,0,0,1-6.272,2.939c-1.138-.186-.781-.964-.8-1.579-.014-.559-.3-1.363.761-1.361,2.063,0,4.125,0,6.307,0" transform="translate(-6.094 -10.557)" fill="#f4debf"/>
        <path id="Trazado_212426" data-name="Trazado 212426" d="M68.225,95.646c-4.283-1.8-7.192-4.753-7.734-9.553-.338-3,.487-3.938,3.458-4.27q7.542.034,15.081.069c2.9.015,3.919,1.1,3.735,3.961A11.274,11.274,0,0,1,69.913,95.939l-1.687-.293" transform="translate(-4.103 -5.556)"/>
        <path id="Trazado_212427" data-name="Trazado 212427" d="M67.92,88.238h8.3c-.913,2.986-6.767,3.347-8.3,0" transform="translate(-4.612 -5.992)" fill="#df5353"/>
      </g>
    </g>
  </g>
</svg>
