<svg xmlns="http://www.w3.org/2000/svg" xmlns:xlink="http://www.w3.org/1999/xlink" width="505" height="320.104" viewBox="0 0 505 320.104">
  <defs>
    <clipPath id="clip-path">
      <path id="Trazado_189400" data-name="Trazado 189400" d="M14.948,25.908H494.7A12.471,12.471,0,0,1,507.322,38.22V333.7A12.471,12.471,0,0,1,494.7,346.012H14.948A12.471,12.471,0,0,1,2.323,333.7V38.22A12.471,12.471,0,0,1,14.948,25.908" transform="translate(-2.323 14.947)" fill="#a6bbff"/>
    </clipPath>
    <clipPath id="clip-path-2">
      <rect id="Rectángulo_338719" data-name="Rectángulo 338719" width="464.26" height="745.326" fill="none"/>
    </clipPath>
    <clipPath id="clip-path-3">
      <path id="Trazado_209887" data-name="Trazado 209887" d="M72.765,28.8s8.217,19.428,28.208,6.894c0,0-5.319-13.127-15.476-13.127-3.633,0-7.883,1.676-12.732,6.233" transform="translate(-72.765 -22.563)" fill="none"/>
    </clipPath>
    <clipPath id="clip-path-4">
      <path id="Trazado_209889" data-name="Trazado 209889" d="M91.066,37.265c19.747,7.023,23.132-11.4,23.132-11.4-3.331-3.594-6.333-4.986-8.992-4.986-9.116,0-14.14,16.39-14.14,16.39" transform="translate(-91.066 -20.875)" fill="none"/>
    </clipPath>
  </defs>
  <g id="Grupo_983522" data-name="Grupo 983522" transform="translate(-1.578 -40.855)">
    <g id="Grupo_176387" data-name="Grupo 176387" transform="translate(1.578 0)">
      <path id="Trazado_189401" data-name="Trazado 189401" d="M14.948,25.908H494.7c6.973,0,12.625,4.748,12.625,10.606V291.053c0,5.858-5.652,10.606-12.625,10.606H14.948c-6.973,0-12.625-4.748-12.625-10.606V36.514c0-5.858,5.652-10.606,12.625-10.606" transform="translate(-2.323 59.301)" fill="#6b8dfc"/>
      <g id="Enmascarar_grupo_335" data-name="Enmascarar grupo 335" transform="translate(0.001)" clip-path="url(#clip-path)">
        <g id="Grupo_176397" data-name="Grupo 176397" transform="translate(-141.938 126.767) rotate(-6)">
          <g id="Grupo_176396" data-name="Grupo 176396" transform="translate(0 0)">
            <g id="Grupo_176395" data-name="Grupo 176395">
              <path id="Trazado_189395" data-name="Trazado 189395" d="M662.342,337.013c-49.894,50.2-101.305,98.7-153.63,146.408,23.907-49.331,49.484-97.987,72.314-147.777C606.9,279.187,637.479,202.439,610.6,145.6c-61.283-129.55-237.031,7.963-302.553,77.432-6.987,7.4-13.671,15.1-20.44,22.728,24.747-54.849,47.342-111.084,44.648-169.045-3.717-79.694-77.37-95.6-143.184-55.6C118.382,64.082,59.967,135.594,10.953,200.363c-41.625,55.01,45.894,101.773,87.178,47.537a794.309,794.309,0,0,1,73.544-83.637q-6.024,10.3-12.156,20.571c-27.076,45.246-53.853,90.654-76.386,138.007C39.978,413.53-23.445,539.225,21.628,630.626c22.718,46.058,80.717,48.28,125.422,27.159C207.132,629.395,250.5,570.658,292,520.735c43.326-52.125,81.886-107.146,122.257-161.322,16.877-22.639,33.747-45.589,52.834-66.573.437-.477.9-.926,1.339-1.412l-.52,1.444c-11.481,31.348-25.8,61.574-40.271,91.885-26.943,56.387-61.09,116-72.745,176.593C344.586,614.921,363.811,673.6,429,666.873c61.279-6.324,112.864-66.446,155.461-106.955,51.594-49.063,102.338-99.024,153.09-148.926C790.542,358.9,714.742,284.3,662.342,337.013Z" transform="translate(10.021 9.787)" fill="#3c3fa7"/>
              <path id="Trazado_189396" data-name="Trazado 189396" d="M432.755,686.837c-23.989,1.058-43.97-6.326-58.072-21.552-19.6-21.166-26.888-56.729-19.5-95.139,9.62-50.054,33.791-98.667,57.169-145.678,5.587-11.257,11.13-22.395,16.4-33.414,4.987-10.452,10.236-21.431,15.462-32.779-3.071,4.088-6.112,8.175-9.121,12.221L432.1,374.5c-10.49,14.073-20.854,28.208-31.217,42.323-29.07,39.649-59.141,80.646-91.417,119.462q-7.072,8.519-14.245,17.315c-37.043,45.218-79.025,96.476-134.53,122.708-49.493,23.357-112.78,20.21-138.036-31.022C-22.732,553.268,36.266,429.667,79.342,339.41l4.9-10.253c12.676-26.659,26.721-52.756,41.533-78.769q-5.015,6.31-9.884,12.693c-25.513,33.534-67.642,34.905-93.643,16.854C.745,265-10.394,235.979,13.214,204.778,65.53,135.638,123.7,65.725,194.43,22.719,233.7-1.131,275.735-6.578,306.937,8.158c27.464,12.973,43.525,40.321,45.242,77.035,2.007,43.058-9.331,84.865-24.852,124.938C380.41,158.957,477.612,85.4,552.635,92.589c34.463,3.318,60.387,22.852,77.036,58.05,27.38,57.885.376,132.635-29.645,198.134-14.292,31.17-29.869,62.337-44.936,92.471l-5.333,10.661c42.584-39.544,80.742-76.322,115.827-111.612h0c17.347-17.461,38.707-24.526,60.09-19.95,23.478,5.039,42.893,23.975,48.292,47.14,4.972,21.247-2.023,42.515-19.7,59.894l-5.772,5.677c-48.052,47.252-97.738,96.1-147.442,143.371-6.126,5.829-12.427,12.055-18.935,18.475-38.645,38.163-86.748,85.671-142.931,91.468C437.008,686.591,434.875,686.743,432.755,686.837Zm46.068-394.955a8.894,8.894,0,0,1,4.739,1.057,8.708,8.708,0,0,1,4.191,10.865l-.529,1.445c-12.034,32.861-27.236,64.7-40.648,92.788-5.314,11.119-10.911,22.366-16.552,33.723-22.747,45.746-46.267,93.046-55.368,140.351-6.176,32.126-.349,62.525,15.215,79.333,11.527,12.449,28,17.6,48.988,15.508,48.642-5.027,91.788-47.623,129.844-85.215,6.6-6.522,13.016-12.85,19.234-18.761,49.569-47.134,99.193-95.925,147.183-143.116l5.762-5.677c15.631-15.36,16.1-30.636,13.732-40.754-3.842-16.439-18.138-30.421-34.78-33.98-10.127-2.182-25.4-1.528-40.681,13.856h0c-45.327,45.584-95.707,93.6-154.033,146.8-3.608,3.284-8.824,3.816-12.508,1.291a9.125,9.125,0,0,1-2.758-11.726c9.034-18.652,18.31-37.2,27.577-55.753,14.99-29.974,30.481-60.973,44.63-91.824,28.124-61.345,53.631-130.938,29.493-181.957-14.038-29.667-34.506-45.4-62.568-48.107-69.942-6.7-172.273,72.309-223.946,127.09-5.5,5.84-10.827,11.877-16.16,17.905l-4.042,4.579a10.357,10.357,0,0,1-12.76,2.5,9.077,9.077,0,0,1-3.465-11.831c23.582-52.238,46.382-107.984,43.75-164.459C330.951,57.537,318.757,36.131,297.1,25.9c-25.266-11.921-60.159-6.984-93.37,13.192C136.2,80.136,79.724,148.145,28.743,215.522c-16.114,21.291-7.534,38.816,5.864,48.115,18.146,12.6,47.365,12.884,65.8-11.343a806.815,806.815,0,0,1,74.586-84.812c3.622-3.6,9.179-4.24,12.983-1.507,3.823,2.733,4.774,8.006,2.215,12.363Q184.13,188.7,177.967,199c-27.418,45.816-53.849,90.781-75.9,137.11l-4.9,10.282C55.836,432.98-.762,551.569,40.649,635.529c20.116,40.8,71.973,42.581,112.8,23.306,50.949-24.064,89.5-71.14,126.773-116.651q7.234-8.833,14.349-17.436c31.848-38.3,61.708-79.017,90.6-118.395q15.578-21.248,31.3-42.463l2.988-4c15.836-21.269,32.209-43.263,50.536-63.4l.934-.986A11.944,11.944,0,0,1,478.823,291.883ZM672.363,346.8l.1,0Z"/>
            </g>
            <path id="Trazado_189397" data-name="Trazado 189397" d="M47.989,5.307C8.239,79.14-16.144,164.707,12.441,240.929c4.232,11.262,23.63,5.4,19.346-6.032C4.942,163.329,27.273,83.84,64.66,14.395,70.82,2.937,54.18-6.2,47.989,5.307Z" transform="translate(42.642 376.586)"/>
            <path id="Trazado_189398" data-name="Trazado 189398" d="M28.528,51.92c-.168-.012-.324-.054-.481-.076-.253-.524-.486-1.079-.568-1.231l-.037-.057c-.016-.077.011-.03-.013-.145-1.083-4.294-1.807-8.672-2.569-13.059Q22.178,22.065,19.515,6.776C18.649,1.83,12.587-1.271,7.623.505a10.957,10.957,0,0,0-7.454,12.3L6.214,47.384c1.686,9.6,4.5,22.163,16.2,23.584,5.056.6,10.978-1.8,12.493-7.356C36.208,58.853,33.948,52.576,28.528,51.92Z" transform="translate(82.969 534.534)"/>
            <path id="Trazado_189399" data-name="Trazado 189399" d="M39.091,1.038C28.11-4.377,17.328,12.9,28.338,18.324c15.19,7.488,19.181,23.921,19.073,40.232-.118,18.531-3.094,37.714-6.975,56.129a398.145,398.145,0,0,1-39.088,106.3c-6.17,11.458,10.479,20.595,16.671,9.087,21.361-39.737,36.348-81.792,43.995-125.1C68.257,69.6,76.09,19.265,39.091,1.038Z" transform="translate(527.298 150.067)"/>
          </g>
        </g>
        <g id="Grupo_983530" data-name="Grupo 983530" transform="translate(60.739 56.817)">
          <path id="Trazado_209818" data-name="Trazado 209818" d="M120.859,272.264l33.9,81.353,37.808,1.825L209.774,333.8l-34.94-94.65Z" transform="translate(173.643 343.594)" fill="#ed8c6b"/>
          <path id="Trazado_209819" data-name="Trazado 209819" d="M182.644,258.559l-55.068,25.1,17.53,42.073,37.808,1.825,17.211-21.643Z" transform="translate(183.293 371.481)" fill="#ffb6c8"/>
          <path id="Trazado_209820" data-name="Trazado 209820" d="M184.02,264.035l-9.187-24.886L120.86,272.264l9.993,23.985Z" transform="translate(173.644 343.594)"/>
          <g id="Grupo_983525" data-name="Grupo 983525">
            <g id="Grupo_983524" data-name="Grupo 983524" clip-path="url(#clip-path-2)">
              <path id="Trazado_209821" data-name="Trazado 209821" d="M139.9,280.319l-13.538,61.908,155.208.353.288-19.6c.195-13.4-9.969-25.081-24.321-27.94L197.614,283.1l-35.805,9.2Z" transform="translate(181.552 402.745)" fill="#5774cd"/>
              <path id="Trazado_209822" data-name="Trazado 209822" d="M151.744,298.974,148.4,280.939c-1.021-5.5,4.679-10.047,10.517-8.392l16.209,4.6c5.222,1.482,7.42,7.127,4.393,11.282l-13.9,19.085Z" transform="translate(213.035 391.084)" fill="#5774cd"/>
              <path id="Trazado_209823" data-name="Trazado 209823" d="M279.866,301.1H128.62a.914.914,0,0,1,0-1.828H279.866a.914.914,0,1,1,0,1.828" transform="translate(183.48 429.983)"/>
              <path id="Trazado_209824" data-name="Trazado 209824" d="M182.186,296.5a.9.9,0,0,1-.626-.249.917.917,0,0,1-.041-1.291l6.9-7.344-33.1.8h-.022a.914.914,0,0,1-.153-1.815l28.456-4.783a.914.914,0,1,1,.3,1.8l-15.831,2.661,22.486-.541a1.046,1.046,0,0,1,.858.541.916.916,0,0,1-.168,1l-8.39,8.935a.914.914,0,0,1-.665.288" transform="translate(221.798 404.881)"/>
              <path id="Trazado_209825" data-name="Trazado 209825" d="M46.172,258.239,50.9,346.245l35.018,14.369,23.458-14.635-1.257-100.886Z" transform="translate(66.338 352.135)" fill="#ed8c6b"/>
              <path id="Trazado_209826" data-name="Trazado 209826" d="M107.5,265.173,47.027,268.2l2.641,49.19,35.018,14.372,23.458-14.637Z" transform="translate(67.566 380.984)" fill="#ffb6c8"/>
              <path id="Trazado_209827" data-name="Trazado 209827" d="M108.116,245.093,46.172,258.239l1.25,23.254,61.177,2.281Z" transform="translate(66.337 352.135)"/>
              <path id="Trazado_209828" data-name="Trazado 209828" d="M136.246,276.388l18.471,71.84H29.85L28.486,332.7c-1.728-19.684,13.492-34.465,34.256-37.553l20.661.037,26.582,5.492Z" transform="translate(40.735 397.098)" fill="#5774cd"/>
              <path id="Trazado_209829" data-name="Trazado 209829" d="M57.232,302.417,46.347,287.607c-3.319-4.518-.4-10.736,5.39-11.475l16.073-2.054c5.181-.663,9.584,3.536,8.8,8.392l-3.589,22.3Z" transform="translate(64.583 393.679)" fill="#5774cd"/>
              <path id="Trazado_209830" data-name="Trazado 209830" d="M149.192,301.548H28.946a.914.914,0,0,1,0-1.828H149.192a.914.914,0,0,1,0,1.828" transform="translate(40.275 430.62)"/>
              <path id="Trazado_209831" data-name="Trazado 209831" d="M67.239,298.766a.965.965,0,0,1-.246-.034l-30.369-8.5a.912.912,0,0,1-.636-1.126.924.924,0,0,1,1.126-.636L60.1,294.906,36.419,281.658a.916.916,0,0,1-.39-1.162.9.9,0,0,1,1.118-.5l44.661,14.391a.913.913,0,1,1-.56,1.737l-35.92-11.574,22.357,12.51a.913.913,0,0,1-.446,1.711" transform="translate(51.655 402.206)"/>
              <path id="Trazado_209832" data-name="Trazado 209832" d="M20.091,104.444,273.629,77.552a5.62,5.62,0,0,0,4.99-6.177l-4.147-39.112a5.612,5.612,0,0,0-6.177-4.99L14.757,54.166a5.612,5.612,0,0,0-4.99,6.175l4.147,39.115a5.615,5.615,0,0,0,6.177,4.988" transform="translate(13.986 39.136)" fill="#a6bbff"/>
              <rect id="Rectángulo_338717" data-name="Rectángulo 338717" width="14.489" height="50.562" transform="translate(67.039 89.239) rotate(-6.053)"/>
              <rect id="Rectángulo_338718" data-name="Rectángulo 338718" width="14.489" height="50.562" transform="translate(237.689 71.137) rotate(-6.053)"/>
              <path id="Trazado_209833" data-name="Trazado 209833" d="M35.161,265.3,26.91,87.542A32.791,32.791,0,0,1,58.144,53.265l150.425-6.991A38.341,38.341,0,0,1,248.646,82.8l7.739,166.675a38.341,38.341,0,0,1-36.519,40.075L69.441,296.534A32.792,32.792,0,0,1,35.161,265.3" transform="translate(38.611 66.423)" fill="#5774cd"/>
              <path id="Trazado_209834" data-name="Trazado 209834" d="M49.851,105.723c6.92.08,28.785-27.645,27.165-34.373C71.389,47.982,81.2,21.66,98.674,7.093a54.043,54.043,0,0,1,79.445,34.056c4.788,19.65,9.282,42.55,28.973,49.49,1.713.6-75.22,32.859-157.24,15.083" transform="translate(71.623 0)" fill="#ffc849"/>
              <path id="Trazado_209835" data-name="Trazado 209835" d="M97.2,28.258c2.754-6.579,9.64-9.91,15.378-7.444s8.161,9.8,5.407,16.38-9.64,9.91-15.378,7.444-8.161-9.8-5.407-16.38" transform="translate(138.012 28.735)" fill="#ed8c6b"/>
              <path id="Trazado_209836" data-name="Trazado 209836" d="M99.919,33.333a1.342,1.342,0,0,1-.994-.436A1.356,1.356,0,0,1,99,30.979l8.848-8.153a1.355,1.355,0,1,1,1.835,1.993l-8.845,8.156a1.357,1.357,0,0,1-.919.358" transform="translate(141.611 32.278)"/>
              <path id="Trazado_209837" data-name="Trazado 209837" d="M105.349,31.664a1.34,1.34,0,0,1-.938-.378l-4.1-3.94a1.356,1.356,0,0,1,1.879-1.957l4.1,3.94a1.356,1.356,0,0,1-.938,2.334" transform="translate(143.516 35.934)"/>
              <path id="Trazado_209838" data-name="Trazado 209838" d="M80.76,34.576l-17,44.541,42.324,5.729,16.633-40.659Z" transform="translate(91.601 49.677)" fill="#ed8c6b"/>
              <path id="Trazado_209839" data-name="Trazado 209839" d="M69.281,43.855c8.161,5.873,23.278,15.417,38.3,17.917l7.2-17.586L72.822,34.576Z" transform="translate(99.539 49.677)"/>
              <path id="Trazado_209840" data-name="Trazado 209840" d="M64.166,50.652c0-26.558,19.886-48.087,44.414-48.087S153,17.3,153,50.652c0,26.558-13.843,48.82-38.371,48.82s-50.46-22.262-50.46-48.82" transform="translate(92.19 3.685)" fill="#ed8c6b"/>
              <path id="Trazado_209841" data-name="Trazado 209841" d="M109.8,1.848c-24.945,0-45.214,23.595-46.491,50.258,10.2-5.675,31.673-19.718,32.56-37.8,0,0,23.307,20.9,58.6,23.061C148.641,14.548,130.829,1.848,109.8,1.848" transform="translate(90.966 2.655)" fill="#ffc849"/>
              <path id="Trazado_209842" data-name="Trazado 209842" d="M153.571,109.4,287.63,441.013l-90.2,37.721L57.982,140.049Z" transform="translate(83.306 157.175)" fill="#fc5f65"/>
              <path id="Trazado_209843" data-name="Trazado 209843" d="M36.914,133.788l5.478,345.23,96.624-3.984-9.961-286.958,29.385-11.952L172.385,104.9Z" transform="translate(53.036 150.714)" fill="#fc5f65"/>
              <path id="Trazado_209844" data-name="Trazado 209844" d="M196.492,47.723s84.962,1.691,114.719,42.853l34.068,13.841s30.413,32.652,25.554,85.439-43.44,54.751-64.681,43.121-40.306-34.97-40.306-34.97l-166.5,11.014s-11.367,65.743-61.486,62.017S-2.052,195.886,9.374,169.894,68.821,85.756,86.322,70.874s80.744-22.55,80.744-22.55Z" transform="translate(0 68.566)"/>
              <path id="Trazado_209845" data-name="Trazado 209845" d="M71.891,48.35s13.422,31.626,11.136,62.622l-25.13-9.3S54.651,63.933,45.3,49.588Z" transform="translate(65.079 69.466)" fill="#5774cd"/>
              <path id="Trazado_209846" data-name="Trazado 209846" d="M113.573,46.232s15.975,28.866-1.157,62.4l-18-7.81s11.475-25.725.914-53.8Z" transform="translate(135.647 66.423)" fill="#5774cd"/>
              <path id="Trazado_209847" data-name="Trazado 209847" d="M10.707,142.223a1.244,1.244,0,0,1-.49-.1,1.219,1.219,0,0,1-.626-1.606c19.126-43.469,51.966-55.1,52.3-55.217a1.218,1.218,0,0,1,.787,2.305c-.322.11-32.182,11.458-50.852,53.891a1.219,1.219,0,0,1-1.116.729" transform="translate(13.631 122.456)" fill="#fff"/>
              <path id="Trazado_209848" data-name="Trazado 209848" d="M7.833,107.116a1.218,1.218,0,0,1-.285-2.4l15.5-3.728a1.219,1.219,0,1,1,.57,2.371l-15.5,3.726a1.3,1.3,0,0,1-.283.034" transform="translate(9.502 145.043)" fill="#fff"/>
              <path id="Trazado_209849" data-name="Trazado 209849" d="M158.507,123.228a1.215,1.215,0,0,1-1.172-.892c-6.942-25.02-20.934-39.309-21.075-39.451a1.218,1.218,0,1,1,1.728-1.718c.59.595,14.574,14.847,21.692,40.516a1.213,1.213,0,0,1-.846,1.5,1.174,1.174,0,0,1-.327.046" transform="translate(195.262 116.104)" fill="#fff"/>
              <path id="Trazado_209850" data-name="Trazado 209850" d="M91.066,37.265S99.441,9.932,114.2,25.859c0,0-3.385,18.427-23.132,11.406" transform="translate(130.838 29.991)" fill="#fff"/>
              <path id="Trazado_209851" data-name="Trazado 209851" d="M100.973,35.689S91.172,11.5,72.765,28.8c0,0,8.217,19.428,28.208,6.891" transform="translate(104.544 32.417)" fill="#fff"/>
              <path id="Trazado_209852" data-name="Trazado 209852" d="M87.906,35.168a1.358,1.358,0,0,1-1.172-2.04l4.384-7.515a1.366,1.366,0,0,1,1.153-.673,1.417,1.417,0,0,1,1.172.636l3.913,6.265a1.356,1.356,0,1,1-2.3,1.435l-2.727-4.359L89.078,34.5a1.359,1.359,0,0,1-1.172.673" transform="translate(124.349 35.834)"/>
              <path id="Trazado_209853" data-name="Trazado 209853" d="M87.591,48.4a1.2,1.2,0,0,1-.307-.037,1.357,1.357,0,0,1-1.014-1.628,19.053,19.053,0,0,0-1.74-13.634,1.357,1.357,0,0,1,.409-1.871,1.344,1.344,0,0,1,1.867.4,21.412,21.412,0,0,1,2.105,15.719A1.357,1.357,0,0,1,87.591,48.4" transform="translate(121.142 44.562)"/>
              <path id="Trazado_209854" data-name="Trazado 209854" d="M87.435,39.639c-.368,0-.592-.015-.643-.017a1.36,1.36,0,0,1-1.252-1.447,1.335,1.335,0,0,1,1.447-1.257,17.554,17.554,0,0,0,11.908-4.532,1.355,1.355,0,0,1,1.849,1.981,19.959,19.959,0,0,1-13.309,5.273" transform="translate(122.893 46.003)"/>
              <path id="Trazado_209855" data-name="Trazado 209855" d="M74.86,24.513a1.354,1.354,0,0,1-.8-2.446c10.707-7.822,19.859-4.345,20.244-4.191a1.355,1.355,0,0,1-.992,2.522c-.327-.127-8.207-3.039-17.649,3.855a1.346,1.346,0,0,1-.8.261" transform="translate(105.607 24.387)"/>
              <path id="Trazado_209856" data-name="Trazado 209856" d="M111.88,23.526a1.363,1.363,0,0,1-.8-.261c-9.442-6.9-17.323-3.989-17.649-3.855a1.356,1.356,0,0,1-.992-2.524c.39-.151,9.54-3.631,20.244,4.191a1.356,1.356,0,0,1-.8,2.449" transform="translate(131.58 22.967)"/>
              <path id="Trazado_209857" data-name="Trazado 209857" d="M93.464,74.556c-23.822,0-33.135-23.814-33.227-24.055a1.22,1.22,0,0,1,2.281-.865c.085.227,8.828,22.484,30.947,22.484a1.218,1.218,0,0,1,0,2.437" transform="translate(86.431 70.191)" fill="#fff"/>
              <path id="Trazado_209858" data-name="Trazado 209858" d="M104.459,47.234,77,48.423s-6.009,1.214-13.629,2.425c3.692,7.644,11.153,20.2,36.719,17.635,11.84-1.189,17.881-12.276,20.357-19.028-9.152-.911-15.985-2.22-15.985-2.22" transform="translate(91.043 67.863)" fill="#ed8c6b"/>
              <path id="Trazado_209859" data-name="Trazado 209859" d="M97.155,232.448,192.8,200.264V46.152L97.155,78.337Z" transform="translate(139.586 66.309)" fill="#ffb6c8"/>
              <path id="Trazado_209860" data-name="Trazado 209860" d="M113.987,221.9,85.7,179.256l.911-125.765,27.372,14.3Z" transform="translate(123.133 76.853)" fill="#ffb6c8"/>
              <path id="Trazado_209861" data-name="Trazado 209861" d="M60.887,252.083,123.3,179.254,122.4,53.492,60.887,93.305Z" transform="translate(87.479 76.853)" fill="#ffb6c8"/>
              <path id="Trazado_209862" data-name="Trazado 209862" d="M97.3,241.213,35.542,192.6,38.885,61.057,97.3,82.435Z" transform="translate(51.064 87.724)" fill="#ffb6c8"/>
              <path id="Trazado_209863" data-name="Trazado 209863" d="M77.662,211.547a.911.911,0,0,1-.914-.872l-2.191-50.211A23.762,23.762,0,0,1,92.47,136.688l11.684-2.909a.916.916,0,0,1,.446,1.776l-11.687,2.909a21.919,21.919,0,0,0-16.528,21.928l2.191,50.2a.918.918,0,0,1-.872.955Z" transform="translate(107.099 192.172)"/>
              <path id="Trazado_209864" data-name="Trazado 209864" d="M112.9,278.136a.914.914,0,0,1-.361-1.754l90.052-38.388a.914.914,0,0,1,.716,1.681l-90.052,38.388a.922.922,0,0,1-.356.073" transform="translate(160.897 341.827)"/>
              <path id="Trazado_209865" data-name="Trazado 209865" d="M39.594,255.736a.914.914,0,0,1-.044-1.828l96.3-4.452a.915.915,0,1,1,.085,1.828l-96.3,4.452Z" transform="translate(55.573 358.403)"/>
              <path id="Trazado_209866" data-name="Trazado 209866" d="M97.85,214.924a.913.913,0,0,1-.914-.914V59.9a.914.914,0,1,1,1.828,0V214.01a.913.913,0,0,1-.914.914" transform="translate(139.272 84.746)"/>
              <path id="Trazado_209867" data-name="Trazado 209867" d="M86.667,182.27a.914.914,0,0,1-.914-.914V54.03a.914.914,0,1,1,1.828,0V181.357a.914.914,0,0,1-.914.914" transform="translate(123.205 76.314)"/>
              <path id="Trazado_209868" data-name="Trazado 209868" d="M61.426,230.061a.914.914,0,0,1-.914-.914V70.369a.914.914,0,0,1,1.828,0V229.147a.914.914,0,0,1-.914.914" transform="translate(86.94 99.789)"/>
              <path id="Trazado_209869" data-name="Trazado 209869" d="M62.069,78.329,37.592,77.9a7.158,7.158,0,0,0-7.186,7.539A7.68,7.68,0,0,0,38.318,93l24.389-1.367a6.35,6.35,0,0,0,5.851-7.12,6.78,6.78,0,0,0-6.489-6.182" transform="translate(43.681 111.927)" fill="#ed8c6b"/>
              <path id="Trazado_209870" data-name="Trazado 209870" d="M66.267,97.58,37.065,98.8a7.077,7.077,0,0,1-6.972-5.315l-.183-.663A6.737,6.737,0,0,1,36,84.036l29.385-.556a7.152,7.152,0,0,1,7.045,6.433,6.666,6.666,0,0,1-6.163,7.666" transform="translate(42.578 119.938)" fill="#ed8c6b"/>
              <path id="Trazado_209871" data-name="Trazado 209871" d="M63.476,94.577h0a6.168,6.168,0,0,0-6.124-5.249l-19.47.076a6.169,6.169,0,0,0-6.111,5.539l-.161,1.567a6.168,6.168,0,0,0,6.65,6.777l19.63-1.642a6.168,6.168,0,0,0,5.585-7.067" transform="translate(45.369 128.341)" fill="#ed8c6b"/>
              <path id="Trazado_209872" data-name="Trazado 209872" d="M58.155,98.349h0A5.345,5.345,0,0,0,53.121,94.5l-16.061.383a4.605,4.605,0,0,0-4.323,5.217l.141,1.784c.244,3.109,2.948,5.5,5.78,5.115l15.919-2.164c2.866-.392,4.552-3.448,3.577-6.487" transform="translate(47.01 135.773)" fill="#ed8c6b"/>
              <path id="Trazado_209873" data-name="Trazado 209873" d="M31.627,84.142l.012-.029a.6.6,0,0,1,.794-.275,10.692,10.692,0,0,0,4.157.7L62.43,83.382c.2,0,4.3.066,6.7,2.654a6.649,6.649,0,0,1,1.652,5.183c-.517,7.8-11.565,7.671-12.254,7.656L43.141,99.8c-1.157.068-7.466.151-9.087.058a.593.593,0,0,1,.068-1.184c1.591.09,7.807.01,8.948-.056l15.415-.931h.058c.1,0,10.6.322,11.058-6.548a5.52,5.52,0,0,0-1.338-4.3c-2.061-2.22-5.775-2.276-5.812-2.276l-25.8,1.15a11.745,11.745,0,0,1-4.737-.814.592.592,0,0,1-.288-.763" transform="translate(45.373 119.798)"/>
              <path id="Trazado_209874" data-name="Trazado 209874" d="M33.15,103.262a.594.594,0,0,1,.58-.363c1.574.09,11.014-.546,12.586-.716,1.472-.161,6.3-.5,6.5-.514.088-.007,9.057-.743,8.66-6.552-.139-2.044-1.36-3.438-3.623-4.147a11.53,11.53,0,0,0-3.6-.47.593.593,0,1,1-.068-1.184c2.783-.158,8.136.833,8.473,5.719.38,5.592-6.216,7.559-9.759,7.817-.051,0-5.01.351-6.457.509-1.479.161-11.068.821-12.781.724a.6.6,0,0,1-.56-.626.651.651,0,0,1,.046-.195" transform="translate(47.56 128.299)"/>
              <path id="Trazado_209875" data-name="Trazado 209875" d="M32.842,77.94a.588.588,0,0,1,.543-.363c.156,0,15.727-.1,22.062-.076,6.679.024,10.7,2.9,11.046,7.888.409,5.97-5.573,7.6-5.634,7.615a.593.593,0,1,1-.3-1.148c.21-.056,5.09-1.406,4.749-6.387-.3-4.352-3.8-6.759-9.866-6.781-6.331-.022-21.894.073-22.05.073a.593.593,0,0,1-.6-.59.6.6,0,0,1,.046-.231" transform="translate(47.119 111.344)"/>
              <path id="Trazado_209876" data-name="Trazado 209876" d="M132.058,66.163l22.467-.387a6.571,6.571,0,0,1,6.6,6.92,7.049,7.049,0,0,1-7.262,6.933l-22.389-1.255a5.827,5.827,0,0,1-5.368-6.538,6.222,6.222,0,0,1,5.955-5.673" transform="translate(181.131 94.501)" fill="#ed8c6b"/>
              <path id="Trazado_209877" data-name="Trazado 209877" d="M130.725,83.835l26.8,1.121a6.5,6.5,0,0,0,6.4-4.878l.168-.609a6.183,6.183,0,0,0-5.59-8.066l-26.972-.509a6.565,6.565,0,0,0-6.465,5.9,6.119,6.119,0,0,0,5.656,7.037" transform="translate(179.623 101.854)" fill="#ed8c6b"/>
              <path id="Trazado_209878" data-name="Trazado 209878" d="M127.4,81.078h0a5.662,5.662,0,0,1,5.622-4.817l17.869.068a5.666,5.666,0,0,1,5.612,5.085l.146,1.435a5.663,5.663,0,0,1-6.1,6.223l-18.017-1.508a5.663,5.663,0,0,1-5.127-6.487" transform="translate(182.948 109.567)" fill="#ed8c6b"/>
              <path id="Trazado_209879" data-name="Trazado 209879" d="M128.9,84.542h0a4.9,4.9,0,0,1,4.62-3.531l14.742.348a4.23,4.23,0,0,1,3.969,4.791l-.129,1.637a4.952,4.952,0,0,1-5.307,4.693l-14.611-1.988c-2.632-.358-4.179-3.163-3.285-5.951" transform="translate(184.827 116.39)" fill="#ed8c6b"/>
              <path id="Trazado_209880" data-name="Trazado 209880" d="M160.56,71.5l-.012-.027a.543.543,0,0,0-.726-.253,9.785,9.785,0,0,1-3.818.641L132.287,70.8c-.188,0-3.945.058-6.153,2.437A6.108,6.108,0,0,0,124.619,78c.475,7.164,10.614,7.04,11.248,7.025l14.126.853c1.062.061,6.855.136,8.341.051a.544.544,0,0,0-.063-1.087c-1.46.083-7.164.01-8.212-.051l-14.15-.853a.2.2,0,0,0-.054,0c-.1,0-9.732.295-10.149-6.011a5.052,5.052,0,0,1,1.228-3.943c1.891-2.037,5.3-2.088,5.334-2.088l23.683,1.055a10.725,10.725,0,0,0,4.345-.748.541.541,0,0,0,.266-.7" transform="translate(179.016 101.725)"/>
              <path id="Trazado_209881" data-name="Trazado 209881" d="M153.939,89.051a.549.549,0,0,0-.534-.334c-1.443.083-10.108-.5-11.55-.658-1.352-.149-5.78-.458-5.968-.47-.083-.007-8.314-.682-7.949-6.016.127-1.874,1.248-3.156,3.326-3.806a10.653,10.653,0,0,1,3.3-.431.544.544,0,0,0,.063-1.087c-2.556-.146-7.469.765-7.776,5.251-.351,5.132,5.7,6.935,8.957,7.174.046,0,4.6.322,5.926.468,1.357.149,10.159.753,11.733.663a.543.543,0,0,0,.512-.573.5.5,0,0,0-.041-.18" transform="translate(182.233 109.529)"/>
              <path id="Trazado_209882" data-name="Trazado 209882" d="M156.465,65.807a.54.54,0,0,0-.5-.334c-.144,0-14.433-.088-20.249-.068-6.131.022-9.825,2.661-10.139,7.24-.375,5.478,5.115,6.974,5.171,6.991a.545.545,0,1,0,.275-1.055c-.193-.051-4.671-1.289-4.359-5.863.273-3.994,3.489-6.2,9.055-6.223,5.812-.022,20.1.066,20.242.066a.542.542,0,0,0,.546-.541.515.515,0,0,0-.041-.212" transform="translate(180.395 93.965)"/>
              <path id="Trazado_209883" data-name="Trazado 209883" d="M81.357,30.588c-2.754-6.579-9.64-9.91-15.378-7.444s-8.161,9.8-5.407,16.38,9.64,9.91,15.378,7.444,8.161-9.8,5.407-16.38" transform="translate(85.392 32.083)" fill="#ed8c6b"/>
              <path id="Trazado_209884" data-name="Trazado 209884" d="M71.851,35.663a1.361,1.361,0,0,1-.919-.358l-8.845-8.156a1.355,1.355,0,1,1,1.835-1.993l8.848,8.153a1.356,1.356,0,0,1-.919,2.354" transform="translate(88.574 35.628)"/>
              <path id="Trazado_209885" data-name="Trazado 209885" d="M63.626,33.994a1.356,1.356,0,0,1-.938-2.334l4.1-3.94a1.356,1.356,0,0,1,1.879,1.957l-4.1,3.94a1.34,1.34,0,0,1-.938.378" transform="translate(89.467 39.284)"/>
            </g>
          </g>
          <g id="Grupo_983527" data-name="Grupo 983527" transform="translate(177.309 54.98)">
            <g id="Grupo_983526" data-name="Grupo 983526" clip-path="url(#clip-path-3)">
              <path id="Trazado_209886" data-name="Trazado 209886" d="M98.545,34.157A11.594,11.594,0,1,1,86.951,22.563,11.593,11.593,0,0,1,98.545,34.157" transform="translate(-69.041 -22.563)"/>
            </g>
          </g>
          <g id="Grupo_983529" data-name="Grupo 983529" transform="translate(221.904 50.867)">
            <g id="Grupo_983528" data-name="Grupo 983528" clip-path="url(#clip-path-4)">
              <path id="Trazado_209888" data-name="Trazado 209888" d="M115.9,32.333A11.594,11.594,0,1,1,104.3,20.739,11.593,11.593,0,0,1,115.9,32.333" transform="translate(-88.704 -21.07)"/>
            </g>
          </g>
        </g>
      </g>
    </g>
  </g>
</svg>
