<svg xmlns="http://www.w3.org/2000/svg" xmlns:xlink="http://www.w3.org/1999/xlink" width="111" height="111" viewBox="0 0 111 111">
  <defs>
    <clipPath id="clip-path">
      <rect id="Rectángulo_338999" data-name="Rectángulo 338999" width="76.278" height="80.781" fill="none"/>
    </clipPath>
  </defs>
  <g id="Grupo_984147" data-name="Grupo 984147" transform="translate(-1007 -4199)">
    <circle id="Elipse_4905" data-name="Elipse 4905" cx="55.5" cy="55.5" r="55.5" transform="translate(1007 4199)" fill="#6b8dfc"/>
    <g id="Grupo_984146" data-name="Grupo 984146" transform="translate(1024 4214)">
      <g id="Grupo_984145" data-name="Grupo 984145" transform="translate(0 0)" clip-path="url(#clip-path)">
        <path id="Trazado_212428" data-name="Trazado 212428" d="M1.037,57.055q.007-.923.014-1.846A3.352,3.352,0,0,0,1.5,53.245q-.034-2.828,0-5.657a3.267,3.267,0,0,0-.441-1.88q-.007-.941-.016-1.882a3.487,3.487,0,0,0,.442-2.055q-.017-4.123,0-8.245c.005-1.311.17-1.474,1.5-1.474q32.423-.007,64.846,0c1.392,0,1.548.15,1.549,1.513q.011,9.835,0,19.668c0,.419.126.969-.294,1.186s-.774-.243-1.1-.489a20.313,20.313,0,0,0-22.627-1.314,3.535,3.535,0,0,1-1.07.532c-1.281.1-2.564.029-3.847.055-1.422.03-1.821.43-1.823,1.857,0,1.254-.025,2.509.016,3.763a22.934,22.934,0,0,1-1.238,2.443C34.115,68.46,34.71,75.33,39.081,81.9c.261.392.814.78.581,1.249s-.877.293-1.349.294c-10.51.007-21.02-.036-31.529.035a5.146,5.146,0,0,1-5.3-5.3q.009-8.418,0-16.838c0-.745-.018-1.49,0-2.234a3.276,3.276,0,0,0-.454-2.05" transform="translate(-0.332 -10.262)" fill="#71c9f4"/>
        <path id="Trazado_212429" data-name="Trazado 212429" d="M.7,46.793c.691.163.727.674.725,1.262-.011,6.584.043,13.168-.029,19.751a5,5,0,0,0,5.141,5.181c10.677-.072,21.354-.028,32.032-.029.22,0,.441-.021.685-.033-5.569-7.934-6.165-16.044-1.109-24.406a4.9,4.9,0,0,1,1.491-2.247,13.246,13.246,0,0,1,4.216-3.562,22.654,22.654,0,0,1,7.074-2.967,20.355,20.355,0,0,1,17.412,4.123c.09.07.181.138.277.211.277-.156.142-.413.142-.608.009-6.842,0-13.683.02-20.526,0-.641-.121-.876-.833-.875q-32.849.031-65.7,0c-.7,0-.847.215-.84.868.031,3.149,0,6.3.023,9.447,0,.577-.1,1.021-.725,1.18C.147,33.393.014,33,.016,32.442.03,25.569.011,18.7.032,11.823A6.124,6.124,0,0,1,6.164,5.716c2.434-.017,4.869-.037,7.3.014.773.016,1.01-.175.989-.973A4.348,4.348,0,0,1,17.012.532a4.5,4.5,0,0,1,4.863.4A5.552,5.552,0,0,1,23.567,3.16,1.818,1.818,0,0,1,24,4.675c-.012.586.242.835.823.806a2.578,2.578,0,0,1,1.339.205c6.55.008,13.1,0,19.651.043.716,0,.615-.374.612-.8A4.548,4.548,0,0,1,49.312.39a4.632,4.632,0,0,1,5.852,2c.14.247.263.505.394.757a2.011,2.011,0,0,1,.407,1.529c-.016.588.25.826.825.8a2.939,2.939,0,0,1,1.507.211c1.652.006,3.306.075,4.954.005a6.444,6.444,0,0,1,6.339,3.491,3.41,3.41,0,0,1,.811,2.629c.012,3.493,0,6.986,0,10.478,0,7.243.01,14.486-.014,21.729a3.231,3.231,0,0,0,.791,2.265,20.654,20.654,0,0,1,5,11.651A20.9,20.9,0,0,1,48.763,79.688a20.4,20.4,0,0,1-7.47-4.423A1.966,1.966,0,0,0,39.9,74.72c-1.346.008-2.691,0-4.037,0q-14.129,0-28.257.007a20.851,20.851,0,0,1-2.733-.24,1.622,1.622,0,0,1-1.2-.587A6.669,6.669,0,0,1,0,67.373C.079,60.916.029,54.457.018,48c0-.56.056-1.032.687-1.205" transform="translate(0 0)"/>
        <path id="Trazado_212430" data-name="Trazado 212430" d="M.739,52.143a.894.894,0,0,1,.7,1.023q-.024,3.736,0,7.474c0,.523-.136.9-.7,1a.8.8,0,0,1-.685-.923q.017-3.819,0-7.637a.869.869,0,0,1,.691-.94" transform="translate(-0.015 -16.697)" fill="#3a2e5f"/>
        <path id="Trazado_212431" data-name="Trazado 212431" d="M33.17,45.6c0-1.088-.009-2.176,0-3.264.011-.99.465-1.517,1.449-1.533q3.35-.053,6.7,0a1.365,1.365,0,0,1,1.47,1.53q.015,3.264,0,6.527c-.005,1.076-.492,1.553-1.589,1.559q-3.22.014-6.442,0c-1.134-.005-1.584-.479-1.59-1.64-.006-1.059,0-2.119,0-3.178" transform="translate(-10.621 -13.056)" fill="#d4fafd"/>
        <path id="Trazado_212432" data-name="Trazado 212432" d="M65.548,45.626c0,1.088.01,2.177,0,3.265a1.345,1.345,0,0,1-1.536,1.522q-3.265.017-6.53,0c-1.08-.005-1.55-.493-1.554-1.593q-.011-3.222,0-6.444a1.383,1.383,0,0,1,1.581-1.584q3.221-.033,6.444,0c1.13.011,1.589.513,1.6,1.655.006,1.06,0,2.12,0,3.179" transform="translate(-17.906 -13.057)" fill="#d4fafd"/>
        <path id="Trazado_212433" data-name="Trazado 212433" d="M88.3,45.659c0,1.058.007,2.118,0,3.176-.01,1.111-.463,1.58-1.542,1.584q-3.219.011-6.438,0c-1.181,0-1.642-.479-1.644-1.678q-.008-3.09,0-6.18c0-1.212.568-1.765,1.8-1.769q3-.009,6.008,0c1.369,0,1.812.442,1.818,1.778,0,1.031,0,2.06,0,3.09" transform="translate(-25.192 -13.06)" fill="#d4fafd"/>
        <path id="Trazado_212434" data-name="Trazado 212434" d="M15.158,50.415c-1.116,0-2.232.012-3.347,0a1.278,1.278,0,0,1-1.39-1.383q-.031-3.39,0-6.781A1.305,1.305,0,0,1,11.859,40.8c2.231-.035,4.463-.029,6.695,0a1.442,1.442,0,0,1,1.476,1.476q.037,3.39,0,6.781a1.3,1.3,0,0,1-1.438,1.358c-1.145.02-2.289,0-3.434,0" transform="translate(-3.332 -13.057)" fill="#d4fafd"/>
        <path id="Trazado_212435" data-name="Trazado 212435" d="M10.414,67.544c0-1.059-.009-2.118,0-3.177.01-1.014.44-1.547,1.413-1.564,2.26-.04,4.523-.033,6.784,0a1.427,1.427,0,0,1,1.417,1.444q.039,3.434,0,6.869A1.255,1.255,0,0,1,18.7,72.4q-3.52.035-7.041,0a1.23,1.23,0,0,1-1.243-1.339c-.016-1.173,0-2.347,0-3.521" transform="translate(-3.334 -20.101)" fill="#d4fafd"/>
        <path id="Trazado_212436" data-name="Trazado 212436" d="M37.912,72.415c-1.116,0-2.232.012-3.347,0a1.282,1.282,0,0,1-1.389-1.387q-.029-3.39,0-6.781A1.34,1.34,0,0,1,34.636,62.8q3.347-.048,6.695,0a1.458,1.458,0,0,1,1.46,1.563q.011,3.262,0,6.523a1.348,1.348,0,0,1-1.531,1.528c-1.116.015-2.232,0-3.347,0" transform="translate(-10.619 -20.101)" fill="#d4fafd"/>
        <path id="Trazado_212437" data-name="Trazado 212437" d="M37.91,94.413c-1.116,0-2.232.012-3.347,0a1.283,1.283,0,0,1-1.388-1.387q-.028-3.39,0-6.781A1.339,1.339,0,0,1,34.636,84.8q3.347-.048,6.695,0a1.439,1.439,0,0,1,1.454,1.493q.031,3.348,0,6.7a1.307,1.307,0,0,1-1.443,1.425c-1.145.012-2.289,0-3.434,0" transform="translate(-10.619 -27.146)" fill="#d4fafd"/>
        <path id="Trazado_212438" data-name="Trazado 212438" d="M15.189,94.413c-1.116,0-2.232.011-3.347,0a1.274,1.274,0,0,1-1.425-1.424q-.016-3.3,0-6.609c0-1.033.479-1.567,1.5-1.581,2.2-.03,4.406-.026,6.609,0a1.447,1.447,0,0,1,1.508,1.53q.031,3.347,0,6.695a1.3,1.3,0,0,1-1.41,1.387c-1.144.023-2.289.005-3.433.006" transform="translate(-3.333 -27.146)" fill="#d4fafd"/>
        <path id="Trazado_212439" data-name="Trazado 212439" d="M61.741,62.817a22.967,22.967,0,0,0-5.707,5.809,20.266,20.266,0,0,1-.076-4.737c.041-.746.767-1.086,1.519-1.091,1.421-.01,2.842.011,4.264.019" transform="translate(-17.886 -20.108)" fill="#d4fafd"/>
        <path id="Trazado_212440" data-name="Trazado 212440" d="M35.726,24.038q-16.321,0-32.642.02c-.827,0-1.058-.2-1.04-1.035.058-2.576.016-5.153.023-7.731a4.767,4.767,0,0,1,4.826-4.852c2.491-.006,4.983.017,7.474-.015.614-.008.781.19.763.782-.039,1.287-.026,2.576,0,3.865a4.547,4.547,0,0,0,4.57,4.5A4.594,4.594,0,0,0,24.4,15.1c.031-1.345.024-2.692,0-4.037-.01-.491.159-.634.64-.634q10.694.018,21.389,0c.528,0,.694.156.68.683-.033,1.259-.016,2.519-.008,3.779a4.641,4.641,0,1,0,9.281.048c.015-1.288.021-2.577,0-3.865-.01-.481.145-.647.636-.643,2.663.019,5.326-.024,7.988.021a4.753,4.753,0,0,1,4.43,4.631c.022,2.72-.015,5.44.022,8.16.009.655-.192.812-.825.808-5.039-.024-10.079-.014-15.118-.014H35.726" transform="translate(-0.654 -3.338)" fill="#178aeb"/>
        <path id="Trazado_212441" data-name="Trazado 212441" d="M90.19,72.351a17.241,17.241,0,0,1,1.43,7.745,19.126,19.126,0,0,1-4.726,12.073A19.116,19.116,0,0,1,60.32,94.541a18.867,18.867,0,0,1-7.143-16.218A18.326,18.326,0,0,1,54.23,73.14c.09-.262.162-.558.455-.7a13.25,13.25,0,0,1,2.437-3.906A19.427,19.427,0,0,1,69.74,61.708c7.507-.891,13.692,1.718,18.509,7.547a30.414,30.414,0,0,1,1.941,3.1" transform="translate(-17.021 -19.705)" fill="#ba608a"/>
        <path id="Trazado_212442" data-name="Trazado 212442" d="M23.306,8.844c0-1.174-.018-2.348,0-3.522a3.253,3.253,0,0,1,6.5-.028q.058,3.521,0,7.043a3.254,3.254,0,0,1-6.508-.058c-.017-1.145,0-2.29,0-3.436" transform="translate(-7.461 -0.678)" fill="#d4fafd"/>
        <path id="Trazado_212443" data-name="Trazado 212443" d="M76.864,8.845c0,1.174.021,2.348-.005,3.521a3.252,3.252,0,0,1-6.5.055c-.048-2.375-.039-4.752,0-7.128a3.253,3.253,0,0,1,6.506.031c.024,1.173,0,2.347,0,3.521" transform="translate(-22.519 -0.678)" fill="#d4fafd"/>
        <path id="Trazado_212444" data-name="Trazado 212444" d="M90.9,71.795c-.405-.094-.451-.494-.62-.77A19.6,19.6,0,0,0,75.72,61.369a19.842,19.842,0,0,0-19.914,9.864c-.129.221-.272.434-.409.652A1.408,1.408,0,0,1,55.646,71a19.206,19.206,0,0,1,35.257.8" transform="translate(-17.734 -19.149)" fill="#fefefe"/>
        <path id="Trazado_212445" data-name="Trazado 212445" d="M42.065,44.01c-.082.155-.172.363-.294.551-.961,1.489-1.92,2.978-2.895,4.457-.5.761-.821.79-1.495.168-.588-.543-1.164-1.1-1.75-1.646-.357-.332-.689-.706-.269-1.163.4-.435.806-.2,1.194.125.49.414.888,1.272,1.457,1.152.441-.092.725-.952,1.069-1.477.549-.836,1.09-1.676,1.634-2.516a.73.73,0,0,1,.876-.366c.309.092.441.339.472.715" transform="translate(-11.261 -13.852)" fill="#3a2f5f"/>
        <path id="Trazado_212446" data-name="Trazado 212446" d="M58.519,46.131c.557.111.852.61,1.245.967.827.754.814.766,1.4-.14.685-1.054,1.378-2.1,2.053-3.162.276-.433.622-.751,1.115-.43.508.332.3.784.035,1.2-.965,1.484-1.92,2.975-2.892,4.455-.485.738-.806.784-1.434.213-.677-.615-1.334-1.252-2-1.886a.668.668,0,0,1-.188-.847.7.7,0,0,1,.659-.368" transform="translate(-18.502 -13.845)" fill="#3a2f5f"/>
        <path id="Trazado_212447" data-name="Trazado 212447" d="M87.853,43.914a.923.923,0,0,1-.235.626c-.979,1.51-1.968,3.013-2.937,4.529-.4.625-.838.727-1.388.2q-.964-.917-1.931-1.829c-.353-.334-.543-.719-.137-1.107.347-.331.736-.216,1.069.093.063.058.122.12.184.179,1.338,1.245,1.337,1.245,2.318-.26.592-.91,1.19-1.816,1.78-2.726a.7.7,0,0,1,.888-.309.559.559,0,0,1,.387.6" transform="translate(-25.936 -13.852)" fill="#3a2f5f"/>
        <path id="Trazado_212448" data-name="Trazado 212448" d="M15.373,49.612a.961.961,0,0,1-.607-.287c-.666-.627-1.33-1.256-2-1.88-.359-.335-.531-.724-.145-1.11.341-.342.732-.224,1.068.081.084.077.167.156.251.235,1.283,1.2,1.283,1.2,2.262-.309.56-.862,1.13-1.719,1.678-2.588.262-.417.61-.676,1.062-.409.517.308.37.75.087,1.181q-1.484,2.255-2.946,4.523a1.023,1.023,0,0,1-.71.562" transform="translate(-3.971 -13.845)" fill="#3a2f5f"/>
        <path id="Trazado_212449" data-name="Trazado 212449" d="M15.389,71.617a9.158,9.158,0,0,1-2.953-2.767.585.585,0,0,1,.277-.587.7.7,0,0,1,.875.075A11.032,11.032,0,0,1,14.711,69.4c.422.495.636.324.92-.136.706-1.141,1.458-2.254,2.183-3.384.281-.439.615-.856,1.164-.5.565.364.277.83,0,1.26q-1.433,2.185-2.85,4.381c-.189.29-.375.582-.734.6" transform="translate(-3.982 -20.891)" fill="#3a2f5f"/>
        <path id="Trazado_212450" data-name="Trazado 212450" d="M42.028,65.708a1.046,1.046,0,0,1-.225.82c-.978,1.512-1.954,3.025-2.948,4.527-.479.725-.8.757-1.434.176s-1.247-1.179-1.876-1.763c-.357-.332-.555-.716-.162-1.107s.785-.209,1.133.121.727.65,1.052,1.009.5.282.747-.108c.77-1.237,1.581-2.449,2.374-3.672a.761.761,0,0,1,.855-.422.609.609,0,0,1,.483.419" transform="translate(-11.261 -20.899)" fill="#3a2f5f"/>
        <path id="Trazado_212451" data-name="Trazado 212451" d="M42.053,87.923a1.128,1.128,0,0,1-.266.639c-.964,1.487-1.923,2.977-2.9,4.457-.511.777-.82.814-1.489.2-.632-.581-1.247-1.179-1.875-1.765-.33-.307-.511-.666-.178-1.045.359-.41.762-.277,1.126.046.064.057.124.118.188.176C38,91.858,38,91.857,38.981,90.35c.576-.887,1.156-1.771,1.731-2.659a.737.737,0,0,1,.867-.39.634.634,0,0,1,.473.622" transform="translate(-11.262 -27.944)" fill="#3a2f5f"/>
        <path id="Trazado_212452" data-name="Trazado 212452" d="M19.3,88c-.093.177-.184.384-.306.572-.961,1.487-1.92,2.976-2.893,4.455-.505.767-.814.8-1.489.174-.608-.562-1.206-1.137-1.813-1.7-.345-.321-.591-.7-.217-1.106.4-.442.814-.218,1.188.124.46.421,1,1.208,1.39,1.145.6-.1.806-1,1.191-1.555.555-.8,1.063-1.625,1.592-2.439a.735.735,0,0,1,.876-.369c.312.093.42.358.481.7" transform="translate(-3.97 -27.944)" fill="#3a2f5f"/>
        <path id="Trazado_212453" data-name="Trazado 212453" d="M73.371,96.191A14.934,14.934,0,0,1,60.7,88.108a15.21,15.21,0,0,1,1.581-16.836,14.826,14.826,0,0,1,12.5-5.664A15.261,15.261,0,0,1,85.553,91.081a15.637,15.637,0,0,1-9.2,5.018,11.122,11.122,0,0,1-1.281.092,5.6,5.6,0,0,1-1.7,0" transform="translate(-18.85 -21.005)" fill="#3a2e5f"/>
        <path id="Trazado_212454" data-name="Trazado 212454" d="M80.2,110.6h1.7a2.269,2.269,0,0,1-1.7,0" transform="translate(-25.682 -35.416)" fill="#a85883"/>
        <path id="Trazado_212455" data-name="Trazado 212455" d="M74.881,95.512a13.981,13.981,0,1,1,13.962-14,13.983,13.983,0,0,1-13.962,14" transform="translate(-19.504 -21.63)" fill="#fdd6e4"/>
        <path id="Trazado_212456" data-name="Trazado 212456" d="M78.362,78.948c0,1.746-.02,3.492.01,5.237.013.767-.27,1.08-1.056,1.069-2.232-.031-4.464-.016-6.7-.007-.5,0-.985-.073-.974-.68.01-.583.485-.7.988-.7,1.86,0,3.721-.031,5.58.018.666.018.8-.193.789-.815-.033-2.976-.014-5.953-.014-8.93,0-.2,0-.4,0-.6-.008-.473.216-.806.687-.808s.689.336.688.807q0,2.7,0,5.409" transform="translate(-22.301 -23.29)" fill="#3a2e5f"/>
      </g>
    </g>
  </g>
</svg>
