<svg xmlns="http://www.w3.org/2000/svg" xmlns:xlink="http://www.w3.org/1999/xlink" width="111" height="111" viewBox="0 0 111 111">
  <defs>
    <clipPath id="clip-path">
      <rect id="Rectángulo_339001" data-name="Rectángulo 339001" width="80.504" height="80.5" fill="none"/>
    </clipPath>
  </defs>
  <g id="Grupo_984153" data-name="Grupo 984153" transform="translate(-8145 7491)">
    <circle id="Elipse_4906" data-name="Elipse 4906" cx="55.5" cy="55.5" r="55.5" transform="translate(8145 -7491)" fill="#6b8dfc"/>
    <g id="Grupo_984152" data-name="Grupo 984152" transform="translate(8160 -7476)">
      <g id="Grupo_984151" data-name="Grupo 984151" clip-path="url(#clip-path)">
        <path id="Trazado_212486" data-name="Trazado 212486" d="M79.579,17.435a6.023,6.023,0,0,0-1.253-.076q-10.809,0-21.617,0c-1.059,0-1.107-.051-1.11-1.109-.005-2.882,0-5.764,0-8.647,0-1.991.007-3.982,0-5.974C55.589.87,55.431.208,54.56,0H25.943a1.3,1.3,0,0,0-1.024,1.391c-.016.34-.013.681-.014,1.021q0,6.956,0,13.913c0,.961-.067,1.014-1.03,1.03-.236,0-.471,0-.707,0H2.413c-.34,0-.681,0-1.022.013A1.3,1.3,0,0,0,0,18.4V44.5c.168.379.262.782.467,1.154,1.721,3.115,3.466,6.218,5.188,9.333a3.235,3.235,0,0,1,.419,1.643c-.013,2.147-.026,4.293,0,6.439a21.64,21.64,0,0,1-.374,4.29c-.707,3.782-1.4,7.566-2.059,11.357-.181,1.05.028,1.422.917,1.789H8.019a1.691,1.691,0,0,0,.99-.818q2.8-4.214,5.6-8.418c.478-.715.485-.715.963,0q2.809,4.2,5.6,8.418a1.693,1.693,0,0,0,.99.818h3.459c.885-.365,1.1-.744.923-1.789-.476-2.787-1.026-5.562-1.5-8.35a39.254,39.254,0,0,1-.911-5.654c-.062-2.722-.014-5.446-.018-8.17a3.97,3.97,0,0,1,.351-1.676c.973-2.146,1.911-4.308,2.885-6.453.08-.176.086-.423.386-.472.473.839.806,1.748,1.211,2.622,2.271,4.9,2.231,4.9,2.282,10.143a40.234,40.234,0,0,1-.736,8.66c-.646,3.1-1.172,6.227-1.7,9.35-.179,1.045.038,1.424.922,1.789h3.459a1.69,1.69,0,0,0,.989-.818q2.8-4.214,5.605-8.418c.478-.715.485-.715.962,0q2.809,4.2,5.605,8.418a1.692,1.692,0,0,0,.989.818h3.459c.885-.365,1.1-.744.922-1.789-.476-2.787-1.026-5.562-1.5-8.35a39.317,39.317,0,0,1-.911-5.654c-.062-2.722-.013-5.446-.018-8.17a3.969,3.969,0,0,1,.35-1.676c.973-2.146,1.911-4.308,2.885-6.453.08-.176.086-.423.386-.472.472.839.806,1.748,1.21,2.622,2.271,4.9,2.231,4.905,2.282,10.143a40.235,40.235,0,0,1-.737,8.66c-.645,3.1-1.171,6.227-1.7,9.35-.178,1.045.038,1.424.923,1.789h3.459a1.693,1.693,0,0,0,.99-.818q2.8-4.214,5.6-8.418c.478-.715.485-.715.963,0q2.809,4.2,5.6,8.418a1.691,1.691,0,0,0,.99.818h3.459c.889-.367,1.1-.739.917-1.789-.475-2.786-1.018-5.561-1.5-8.346a39.113,39.113,0,0,1-.907-5.573c-.074-2.773-.019-5.549-.02-8.324a2.388,2.388,0,0,1,.263-1.21c1.058-1.9,2.13-3.786,3.157-5.7A38.529,38.529,0,0,0,80.5,44.5V18.4a1.212,1.212,0,0,0-.924-.961M18.271,47.672c.4-1.773.2-3.305-1.377-4.358a3.068,3.068,0,0,0-3.617.011c-1.7,1.141-1.71,2.794-1.219,4.474L4.535,40.281H24.843l-6.572,7.392m25.1.067c.33-3.186-.724-4.9-2.983-4.967A3.233,3.233,0,0,0,37.461,44.3a4.493,4.493,0,0,0-.448,3.306l-6.5-7.309H49.992L43.37,47.74m25.081.034c.465-1.6.483-3.2-1.1-4.367a3.065,3.065,0,0,0-3.476-.247c-1.772.976-2.036,2.568-1.707,4.437l-6.5-7.306H75.936l-7.485,7.482"/>
        <path id="Trazado_212487" data-name="Trazado 212487" d="M61.138,23.145c0-5.633.011-11.266-.016-16.9,0-.6.157-.719.732-.718q11.869.031,23.738,0c.6,0,.717.161.716.733q-.027,16.9,0,33.8c0,.6-.159.728-.733.718-2.043-.038-4.088-.043-6.13,0-.612.014-.717-.174-.713-.739.028-3.406.015-6.812.013-10.218,0-1.223-.421-1.636-1.658-1.638q-3.419,0-6.839,0c-1.125,0-1.562.441-1.563,1.572,0,3.432-.018,6.864.014,10.3.005.592-.143.735-.728.724q-3.065-.06-6.131,0c-.6.013-.72-.157-.718-.733.023-5.633.014-11.266.014-16.9" transform="translate(-33.465 -3.026)" fill="#e9e6e3"/>
        <path id="Trazado_212488" data-name="Trazado 212488" d="M16.946,44.457c3.51,0,7.02.016,10.529-.015.591-.005.748.142.725.729-.049,1.255-.036,2.514,0,3.771.011.456-.138.569-.572.557-1.02-.03-2.043-.021-3.064-.006a1.264,1.264,0,0,0-1.4,1.414q-.021,2.357,0,4.715a1.266,1.266,0,0,0,1.407,1.41c1.021.015,2.043.025,3.064-.006.443-.014.577.115.567.563-.029,1.256-.047,2.515.005,3.771.025.6-.151.724-.731.722-5.5-.024-11-.014-16.5-.014-1.624,0-3.248-.015-4.872.01-.444.007-.574-.12-.564-.565q.043-1.964,0-3.928c-.01-.454.134-.571.571-.558,1.021.03,2.043.022,3.064.006a1.269,1.269,0,0,0,1.4-1.416q.022-2.357,0-4.714a1.266,1.266,0,0,0-1.409-1.409c-1.048-.015-2.1-.019-3.143,0-.377.009-.49-.106-.484-.484.021-1.309.035-2.62,0-3.928-.016-.525.148-.642.651-.639,3.588.021,7.177.011,10.765.011" transform="translate(-3.027 -24.332)" fill="#ddd6cb"/>
        <path id="Trazado_212489" data-name="Trazado 212489" d="M135.908,44.492q7.935-.013,15.87-.033c.375,0,.491.1.485.482q-.031,2.042,0,4.085c.006.384-.118.487-.489.479-1.021-.023-2.043-.015-3.064-.005s-1.478.464-1.485,1.492q-.014,2.278,0,4.557c.006,1.026.462,1.483,1.485,1.493s2.043.017,3.064-.005c.371-.009.495.1.489.479q-.033,2.042,0,4.086c.006.379-.109.483-.485.482q-7.935-.029-15.87-.033a1.332,1.332,0,0,1-.257-1.037q-.01-7.742,0-15.484a1.332,1.332,0,0,1,.257-1.037" transform="translate(-74.267 -24.342)" fill="#ddd6cb"/>
        <path id="Trazado_212490" data-name="Trazado 212490" d="M134.331,141.764q2.789,0,5.577,0c.306,0,.634-.074.639.435a43.543,43.543,0,0,0,.981,6.336c.337,2.138.778,4.261,1.17,6.391.037.2.15.491-.034.585-.3.153-.37-.2-.486-.376q-3.341-4.989-6.665-9.989a1.528,1.528,0,0,0-1.143-.858,1.412,1.412,0,0,0-1.333.8q-3.231,4.871-6.484,9.73l-.306.456c-.086.128-.157.319-.336.275-.26-.065-.152-.306-.125-.461.215-1.234.448-2.465.674-3.7q.741-4.043,1.481-8.087c.01-.051.011-.1.016-.156.131-1.38.131-1.38,1.5-1.38h4.87" transform="translate(-68.844 -77.615)" fill="#09597c"/>
        <path id="Trazado_212491" data-name="Trazado 212491" d="M78.675,141.73q2.828,0,5.656,0c.323,0,.614-.038.623.457a44.957,44.957,0,0,0,1.02,6.487c.348,2.111.765,4.21,1.144,6.317.03.168.125.414-.065.5-.267.119-.334-.178-.44-.337q-3.273-4.892-6.537-9.791c-1.012-1.517-1.825-1.527-2.82-.033l-6.394,9.6q-.109.163-.222.324c-.088.123-.16.319-.344.253-.236-.085-.133-.315-.107-.475.154-.927.323-1.851.493-2.775q.823-4.466,1.651-8.931c.01-.051.014-.1.023-.155.074-.456-.214-1.1.156-1.332s.957-.1,1.45-.1c1.571-.008,3.142,0,4.713,0" transform="translate(-38.405 -77.581)" fill="#09597c"/>
        <path id="Trazado_212492" data-name="Trazado 212492" d="M23.058,141.764q2.828,0,5.656,0c.3,0,.638-.077.641.433a42.172,42.172,0,0,0,.968,6.258c.342,2.165.789,4.312,1.179,6.469.038.206.2.511-.1.609-.234.077-.308-.233-.417-.4q-3.337-4.991-6.663-9.989a1.564,1.564,0,0,0-1.064-.852,1.4,1.4,0,0,0-1.412.786q-3.23,4.873-6.484,9.73c-.087.131-.171.264-.265.389-.117.154-.183.454-.446.317-.168-.088-.081-.337-.05-.51.218-1.207.444-2.413.666-3.619q.742-4.043,1.481-8.087c.01-.051.011-.1.016-.156.132-1.381.132-1.381,1.5-1.381h4.792" transform="translate(-7.966 -77.615)" fill="#09597c"/>
        <path id="Trazado_212493" data-name="Trazado 212493" d="M128.6,44.493V62.052c-1.936.008-3.872.009-5.809.032-.367,0-.5-.094-.494-.48q.031-2.041,0-4.082c-.005-.381.119-.491.491-.483,1.02.022,2.041.015,3.062,0s1.477-.468,1.484-1.5q.015-2.276,0-4.553c-.007-1.029-.462-1.483-1.484-1.494s-2.042-.017-3.062,0c-.372.008-.5-.1-.491-.483q.031-2.041,0-4.083c-.006-.386.127-.484.494-.479,1.936.023,3.872.024,5.809.032" transform="translate(-66.958 -24.342)" fill="#c0b39a"/>
        <path id="Trazado_212494" data-name="Trazado 212494" d="M5.617,92.959c2.849,2.856,5.612,5.611,8.356,8.385.678.686,1.319,1.378,2.519,1.063-.613,2.134-1.128,4.157-1.785,6.133a2.85,2.85,0,0,0,.49,3.114,7.394,7.394,0,0,1,.58.875c-1.25,0-2.389-.019-3.528.009-.482.011-.4-.288-.4-.564,0-1.756-.014-3.511.007-5.267a2.872,2.872,0,0,0-.389-1.491c-1.8-3.217-3.567-6.454-5.4-9.654a3.85,3.85,0,0,1-.459-2.6" transform="translate(-3.048 -50.896)" fill="#afddf6"/>
        <path id="Trazado_212495" data-name="Trazado 212495" d="M148.943,112.54c.134-.216.2-.323.265-.428,1.48-2.3,1.327-1.447.59-4.161-.486-1.789-1.017-3.564-1.566-5.481,1.506.31,2.175-.8,3-1.625,2.6-2.585,5.181-5.185,7.856-7.866a3.621,3.621,0,0,1-.311,2.319c-1.872,3.3-3.691,6.622-5.543,9.93a2.87,2.87,0,0,0-.387,1.491c.021,1.755-.007,3.51.018,5.266.006.444-.118.577-.564.565-1.073-.032-2.147-.01-3.36-.01" transform="translate(-81.158 -50.908)" fill="#afddf6"/>
        <path id="Trazado_212496" data-name="Trazado 212496" d="M46.743,93.618a3.763,3.763,0,0,1-.282,2.187c-1.476,3.257-2.915,6.531-4.379,9.793a3.508,3.508,0,0,0-.326,1.512c.02,1.728-.011,3.456.019,5.183.009.481-.11.627-.6.608-1.067-.041-2.135-.013-3.336-.013.326-.5.56-.928.865-1.3a2.144,2.144,0,0,0,.337-2.193c-.62-1.993-1.154-4.014-1.742-6.018-.107-.364-.175-.615.344-.552a1.782,1.782,0,0,0,1.614-.773c2.454-2.787,4.928-5.557,7.487-8.435" transform="translate(-20.379 -51.256)" fill="#afddf6"/>
        <path id="Trazado_212497" data-name="Trazado 212497" d="M63.988,93.6c2.566,2.886,5.041,5.656,7.5,8.444a1.776,1.776,0,0,0,1.613.773c.522-.064.449.19.343.552-.553,1.879-1.016,3.787-1.645,5.639a2.741,2.741,0,0,0,.5,2.965,9.253,9.253,0,0,1,.61.9H69.253c-.408,0-.273-.313-.274-.513-.009-1.728-.021-3.457,0-5.184a3.834,3.834,0,0,0-.355-1.664c-1.455-3.239-2.883-6.49-4.352-9.723a3.879,3.879,0,0,1-.288-2.195" transform="translate(-35.011 -51.245)" fill="#afddf6"/>
        <path id="Trazado_212498" data-name="Trazado 212498" d="M102.355,93.608a3.821,3.821,0,0,1-.28,2.181c-1.468,3.232-2.9,6.482-4.352,9.72a3.987,3.987,0,0,0-.359,1.742c.024,1.675-.008,3.351.019,5.026.007.458-.075.643-.589.621-1.068-.045-2.14-.014-3.353-.014.4-.6.729-1.115,1.077-1.62a1.61,1.61,0,0,0,.223-1.48c-.63-2.128-1.2-4.272-1.836-6.4-.139-.469-.073-.622.412-.565a1.724,1.724,0,0,0,1.538-.764c2.458-2.787,4.933-5.56,7.5-8.448" transform="translate(-50.831 -51.251)" fill="#afddf6"/>
        <path id="Trazado_212499" data-name="Trazado 212499" d="M119.6,93.663c1.61,1.807,3.154,3.538,4.7,5.27.784.88,1.58,1.748,2.344,2.645.658.771,1.267,1.6,2.568,1.2-.626,2.182-1.153,4.231-1.813,6.236a2.731,2.731,0,0,0,.475,2.968,7.993,7.993,0,0,1,.618.934c-1.253,0-2.393-.018-3.532.009-.486.011-.39-.3-.391-.567,0-1.7-.019-3.4.008-5.106a3.987,3.987,0,0,0-.372-1.739c-1.42-3.169-2.812-6.35-4.249-9.511a3.64,3.64,0,0,1-.353-2.336" transform="translate(-65.449 -51.281)" fill="#afddf6"/>
        <path id="Trazado_212500" data-name="Trazado 212500" d="M88.415,66.2c0,1.467-.019,2.935.011,4.4.01.478-.112.63-.607.616-1.283-.036-2.568-.026-3.852,0-.413.007-.6-.065-.6-.544q.032-4.48,0-8.961c0-.44.111-.586.565-.575q1.965.044,3.93,0c.467-.011.56.162.554.586-.022,1.493-.009,2.987-.009,4.481" transform="translate(-45.647 -33.469)" fill="#1ca8e3"/>
        <path id="Trazado_212501" data-name="Trazado 212501" d="M143.325,122.005c.334,1.158.674,2.315,1,3.475a5.256,5.256,0,0,1-1.01,1.788.267.267,0,0,1-.145,0,5.212,5.212,0,0,1-1.009-1.788c.325-1.16.665-2.316,1-3.474h.165" transform="translate(-77.833 -66.798)" fill="#1ca7e2"/>
        <path id="Trazado_212502" data-name="Trazado 212502" d="M87.727,122.006c.334,1.158.674,2.314,1,3.475a5.264,5.264,0,0,1-1.01,1.788.267.267,0,0,1-.145,0,5.211,5.211,0,0,1-1.009-1.788c.325-1.16.665-2.316,1-3.473h.165" transform="translate(-47.392 -66.798)" fill="#1ca7e2"/>
        <path id="Trazado_212503" data-name="Trazado 212503" d="M32.27,122.028c.33,1.14.665,2.279.986,3.422a4.9,4.9,0,0,1-.965,1.808c-.12.072-.176.013-.26-.055a2.525,2.525,0,0,1-.757-2.347c.272-.943.549-1.884.824-2.825l.171,0" transform="translate(-17.089 -66.811)" fill="#1ca7e2"/>
        <path id="Trazado_212504" data-name="Trazado 212504" d="M6.815,63.67c-1.255,0-1.255,0-1.255-1.281,0-1.235,0-1.235,1.221-1.235,1.294,0,1.294,0,1.294,1.319,0,1.2,0,1.2-1.261,1.2" transform="translate(-3.044 -33.483)" fill="#1ca8e3"/>
        <path id="Trazado_212505" data-name="Trazado 212505" d="M169.308,62.444c0,1.226,0,1.226-1.23,1.226-1.286,0-1.286,0-1.286-1.25,0-1.266,0-1.266,1.27-1.266,1.246,0,1.246,0,1.246,1.289" transform="translate(-91.32 -33.483)" fill="#1ca8e3"/>
        <path id="Trazado_212506" data-name="Trazado 212506" d="M124.83,62.451c0,1.219,0,1.219-1.238,1.219-1.278,0-1.278,0-1.278-1.257s0-1.259,1.277-1.259c1.239,0,1.239,0,1.239,1.3" transform="translate(-66.968 -33.482)" fill="#1ca8e3"/>
        <path id="Trazado_212507" data-name="Trazado 212507" d="M52.553,62.455c0,1.216,0,1.216-1.241,1.216-1.275,0-1.275,0-1.275-1.261s0-1.254,1.281-1.254c1.235,0,1.235,0,1.235,1.3" transform="translate(-27.396 -33.483)" fill="#1ca8e3"/>
        <path id="Trazado_212508" data-name="Trazado 212508" d="M87.2,101.017c0-.544.241-.891.77-.9a.707.707,0,0,1,.8.833c-.117.9-.323,1.786-.492,2.678a.26.26,0,0,1-.259.238.279.279,0,0,1-.315-.267c-.167-.867-.337-1.732-.5-2.578" transform="translate(-47.744 -54.811)" fill="#f9e433"/>
        <path id="Trazado_212509" data-name="Trazado 212509" d="M33.2,100.97q-.254,1.3-.5,2.6c-.033.171-.1.291-.3.291s-.264-.119-.3-.29c-.161-.841-.351-1.678-.48-2.524a.736.736,0,0,1,.775-.935c.524-.006.776.341.8.857" transform="translate(-17.308 -54.813)" fill="#f9e433"/>
        <path id="Trazado_212510" data-name="Trazado 212510" d="M142.795,101c.006-.544.256-.886.785-.891a.71.71,0,0,1,.787.847c-.122.9-.326,1.786-.5,2.678a.256.256,0,0,1-.27.225c-.194.007-.272-.108-.3-.28-.167-.866-.336-1.732-.5-2.579" transform="translate(-78.181 -54.812)" fill="#f9e433"/>
        <path id="Trazado_212511" data-name="Trazado 212511" d="M69.492,14.818c0-.758-.01-1.517,0-2.275a1.263,1.263,0,0,1,1.383-1.429q2.392-.024,4.785,0a1.246,1.246,0,0,1,1.371,1.361q.027,2.392,0,4.785a1.265,1.265,0,0,1-1.422,1.392q-2.353.02-4.706,0a1.268,1.268,0,0,1-1.411-1.4c-.015-.81,0-1.621,0-2.431" transform="translate(-38.045 -6.079)"/>
        <path id="Trazado_212512" data-name="Trazado 212512" d="M95.5,18.655c-.81,0-1.622.017-2.432,0a1.234,1.234,0,0,1-1.331-1.32c-.02-1.647-.023-3.295,0-4.941a1.208,1.208,0,0,1,1.3-1.272q2.471-.033,4.942,0a1.211,1.211,0,0,1,1.291,1.277q.037,2.471,0,4.942a1.235,1.235,0,0,1-1.338,1.314c-.81.021-1.621,0-2.432,0" transform="translate(-50.216 -6.078)"/>
        <path id="Trazado_212513" data-name="Trazado 212513" d="M73.258,33.352c.81,0,1.621-.016,2.432,0a1.232,1.232,0,0,1,1.336,1.314q.033,2.471,0,4.941a1.213,1.213,0,0,1-1.293,1.277q-2.471.033-4.942,0A1.212,1.212,0,0,1,69.5,39.615q-.036-2.471,0-4.941a1.23,1.23,0,0,1,1.332-1.318c.81-.021,1.621,0,2.432,0" transform="translate(-38.04 -18.257)"/>
        <path id="Trazado_212514" data-name="Trazado 212514" d="M99.272,37.2c0,.784.016,1.569,0,2.353a1.235,1.235,0,0,1-1.317,1.336q-2.471.032-4.942,0a1.21,1.21,0,0,1-1.275-1.293q-.033-2.471,0-4.941a1.208,1.208,0,0,1,1.274-1.294c1.647-.024,3.295-.022,4.942,0a1.234,1.234,0,0,1,1.318,1.333c.021.836,0,1.673,0,2.51" transform="translate(-50.216 -18.253)"/>
        <path id="Trazado_212515" data-name="Trazado 212515" d="M26,55.59c.81,0,1.621-.016,2.431,0a1.233,1.233,0,0,1,1.336,1.316q.032,2.47,0,4.941a1.212,1.212,0,0,1-1.294,1.276q-2.471.034-4.941,0a1.21,1.21,0,0,1-1.293-1.275q-.037-2.47,0-4.941a1.231,1.231,0,0,1,1.333-1.317c.81-.021,1.621,0,2.431,0" transform="translate(-12.166 -30.432)"/>
        <path id="Trazado_212516" data-name="Trazado 212516" d="M142.681,63.133c-.758,0-1.517.011-2.275,0a1.267,1.267,0,0,1-1.417-1.4q-.023-2.393,0-4.784a1.243,1.243,0,0,1,1.373-1.358q2.392-.024,4.785,0a1.246,1.246,0,0,1,1.378,1.354q.028,2.431,0,4.862a1.237,1.237,0,0,1-1.333,1.32c-.836.021-1.673,0-2.51,0" transform="translate(-76.091 -30.43)"/>
        <path id="Trazado_212517" data-name="Trazado 212517" d="M76.276,19.194c-1.219,0-1.219,0-1.219-1.238,0-1.278,0-1.278,1.257-1.278s1.259,0,1.259,1.277c0,1.238,0,1.238-1.3,1.238" transform="translate(-41.094 -9.132)" fill="#1ca8e3"/>
        <path id="Trazado_212518" data-name="Trazado 212518" d="M99.811,17.945c0,1.25,0,1.25-1.286,1.25-1.23,0-1.23,0-1.23-1.226,0-1.289,0-1.289,1.325-1.289,1.191,0,1.191,0,1.191,1.266" transform="translate(-53.27 -9.132)" fill="#1ca8e3"/>
        <path id="Trazado_212519" data-name="Trazado 212519" d="M77.572,40.2c0,1.232,0,1.232-1.225,1.232-1.291,0-1.291,0-1.291-1.324,0-1.192,0-1.192,1.186-1.192h.079c1.251,0,1.251,0,1.251,1.284" transform="translate(-41.094 -21.307)" fill="#1ca8e3"/>
        <path id="Trazado_212520" data-name="Trazado 212520" d="M97.3,40.142c0-1.225,0-1.225,1.231-1.225,1.285,0,1.285,0,1.285,1.251s0,1.265-1.271,1.265c-1.245,0-1.245,0-1.245-1.291" transform="translate(-53.27 -21.307)" fill="#1ca8e3"/>
        <path id="Trazado_212521" data-name="Trazado 212521" d="M29.1,61.154c1.212,0,1.212,0,1.212,1.245,0,1.271,0,1.271-1.264,1.271s-1.252,0-1.252-1.284c0-1.232,0-1.232,1.3-1.232" transform="translate(-15.22 -33.482)" fill="#1ca8e3"/>
        <path id="Trazado_212522" data-name="Trazado 212522" d="M145.78,63.67c-1.227,0-1.227,0-1.227-1.23,0-1.285,0-1.285,1.25-1.285,1.266,0,1.266,0,1.266,1.269,0,1.246,0,1.246-1.289,1.246" transform="translate(-79.144 -33.483)" fill="#1ca8e3"/>
      </g>
    </g>
  </g>
</svg>
