<svg xmlns="http://www.w3.org/2000/svg" xmlns:xlink="http://www.w3.org/1999/xlink" width="111" height="111" viewBox="0 0 111 111">
  <defs>
    <clipPath id="clip-path">
      <rect id="Rectángulo_339000" data-name="Rectángulo 339000" width="66.503" height="71.716" fill="none"/>
    </clipPath>
  </defs>
  <g id="Grupo_984150" data-name="Grupo 984150" transform="translate(-8690 7491)">
    <circle id="Elipse_4907" data-name="Elipse 4907" cx="55.5" cy="55.5" r="55.5" transform="translate(8690 -7491)" fill="#6b8dfc"/>
    <g id="Grupo_984149" data-name="Grupo 984149" transform="translate(8712 -7471)">
      <g id="Grupo_984148" data-name="Grupo 984148" clip-path="url(#clip-path)">
        <path id="Trazado_212457" data-name="Trazado 212457" d="M87.01,0a9.082,9.082,0,0,0,2.153.328c6.757,1.066,11.022,5.1,13.362,11.324a16.891,16.891,0,0,1,.606,10.906,9.056,9.056,0,0,1-1.656,3.109,5.181,5.181,0,0,1,3.05,3.358A6.533,6.533,0,0,1,99.5,36.946a2.054,2.054,0,0,0-1.61,1.214,29,29,0,0,1-6.8,8.185c-.256.216-.476.389-.421.793q.282,2.043.492,4.1a.573.573,0,0,0,.483.565c.805.23,1.609.469,2.406.725a.524.524,0,0,0,.7-.179,2.615,2.615,0,0,1,2.955-.886c1.7.491,3.405.968,5.078,1.54,5.22,1.783,8.151,5.487,9.045,10.88.331,2,.706,3.991,1.062,5.986.008.046.022.091.031.137.168.944-.064,1.493-.7,1.667s-1.1-.214-1.381-1.13a6.6,6.6,0,0,1-.567-2.353c-.286-1.534-.534-3.077-.841-4.607a10.471,10.471,0,0,0-7.349-8.392c-1.415-.476-2.846-.9-4.279-1.317-1.221-.357-1.421-.2-1.475,1.1,0,.093,0,.186,0,.28q-.2,2.355-.6,4.681a1.362,1.362,0,0,1-1.474,1.256c-.848-.405-1.066-.724-.963-1.637.141-1.25.344-2.493.5-3.743.1-.826.04-.94-.77-1.214q-.165-.056-.333-.107c-.963-.291-.962-.291-1.392.615a1.317,1.317,0,0,1-.177.216c-1.335,3.5-4.1,5.021-7.622,5.454-.533.065-.684.206-.679.743.028,2.868.014,5.737.013,8.606a4.084,4.084,0,0,1-.014.629,1.044,1.044,0,0,1-2.077.009A3.4,3.4,0,0,1,80.7,70.2q0-29.211,0-58.422c0-.974.158-1.21.954-1.446a1.021,1.021,0,0,1,1.3.953,8.021,8.021,0,0,1,.042,1.4c0,.932.019,1.865-.005,2.8a.757.757,0,0,0,.748.885,33.078,33.078,0,0,0,4.732.4,13.87,13.87,0,0,1,4.747.728,10.449,10.449,0,0,1,5.835,5.047c.216.487.376,1,.582,1.526.327-.1.436-.367.574-.59a7.94,7.94,0,0,0,1.17-3.777A16.824,16.824,0,0,0,96.089,5.923a10.823,10.823,0,0,0-4.758-2.714,24.554,24.554,0,0,0-7.658-.9c-.482,0-.659.227-.658.683,0,.976,0,1.952,0,2.929a3.027,3.027,0,0,1-.062.763,1.015,1.015,0,0,1-1.427.766A1.023,1.023,0,0,1,80.7,6.326c0-1.507.006-3.014,0-4.52A2.006,2.006,0,0,1,81.965,0h.7a13.493,13.493,0,0,0,2.163.072c.306-.034.623.074.921-.072h.56a.182.182,0,0,0,.28,0Z" transform="translate(-46.461)"/>
        <path id="Trazado_212458" data-name="Trazado 212458" d="M87.587.132A7.182,7.182,0,0,1,85.335,0h2.243c.044.026.06.055.048.085s-.025.047-.039.047" transform="translate(-49.13)" fill="#111"/>
        <path id="Trazado_212459" data-name="Trazado 212459" d="M90.63.132c0-.044-.008-.087-.009-.132h.841c-.242.269-.555.09-.832.132" transform="translate(-52.174)" fill="#2b2b2b"/>
        <path id="Trazado_212460" data-name="Trazado 212460" d="M94.2,0c-.093.205-.187.184-.28,0Z" transform="translate(-54.075)" fill="#818181"/>
        <path id="Trazado_212461" data-name="Trazado 212461" d="M10.408,12.478c-.872-.44-1.055-.9-.626-1.728,2.037-3.948,5.182-6.2,9.722-6.287a5.729,5.729,0,0,1,2.139.291,1.2,1.2,0,0,0,1.4-.368A16.432,16.432,0,0,1,29.589.63,1.785,1.785,0,0,1,32.139,2.5q0,34.049.007,68.1c0,.647-.14,1.188-.828,1.353-.661.159-1.047-.236-1.292-.8a1.468,1.468,0,0,1-.183-1.007c0-2.653,0-5.307,0-7.96,0-.832-.007-.826-.812-.966a9.7,9.7,0,0,1-5.653-2.8,7.287,7.287,0,0,1-1.683-2.938c-.291-.958-.282-.961-1.262-.684-1.529.461-1.3.378-1.105,1.713a66.92,66.92,0,0,0,3.542,13.436,1.511,1.511,0,0,1,.049,1.345c-.695,1.007-1.457.953-2.1-.149a1.463,1.463,0,0,1-.456-.771A69.391,69.391,0,0,1,16.712,55.87c-.051-.417-.044-.837-.112-1.254-.089-.54-.378-.7-.889-.589a17.839,17.839,0,0,0-1.883.546,24.7,24.7,0,0,0-5,1.8A10.788,10.788,0,0,0,3.457,64.4c-.309,1.958-.695,3.9-1.039,5.856a1.094,1.094,0,0,1-.275.7c-.036.086-.078.169-.108.257a.978.978,0,0,1-1.245.731.978.978,0,0,1-.766-1.227c.356-2.066.742-4.126,1.084-6.194a15.845,15.845,0,0,1,1.37-4.668,12.989,12.989,0,0,1,7.79-6.6c1.611-.539,3.255-.973,4.88-1.47a2.693,2.693,0,0,1,3.137.889.483.483,0,0,0,.644.171c.795-.266,1.6-.509,2.408-.722a.56.56,0,0,0,.487-.563q.223-2.051.494-4.1a.662.662,0,0,0-.3-.643c-.685-.6-1.368-1.2-2.024-1.83-.69-.663-.683-1.122-.031-1.85.57-.434.978-.412,1.592.151.7.647,1.36,1.342,2.12,1.93a14.821,14.821,0,0,0,5.167,2.723c.882.241.992.159,1-.731,0-1.236-.012-2.472.007-3.708a.662.662,0,0,0-.659-.787A4.543,4.543,0,0,1,26,40.764a1.177,1.177,0,0,1,.006-1.6,1.25,1.25,0,0,1,1.472-.282,1.985,1.985,0,0,1,.627.548,2.377,2.377,0,0,0,1.17.731c.351.1.546-.023.554-.4q.022-.979,0-1.958c-.01-.385-.283-.5-.586-.591a1.43,1.43,0,0,1-.9-.616,1.188,1.188,0,0,1,.774-1.812c.69-.1.731-.436.73-.981q-.013-7.381,0-14.761a.814.814,0,0,0-.571-.967A22.661,22.661,0,0,1,26.1,16.366c-.466-.336-.932-.674-1.381-1.034-.891-.7-.886-.695-1.346.338a11.123,11.123,0,0,1-4.445,5.151A6.623,6.623,0,0,0,15.5,27.038,34.183,34.183,0,0,0,15.6,31.15a29.289,29.289,0,0,0,.272,2.918A11.857,11.857,0,0,0,17.8,38.746a5.719,5.719,0,0,1,.628,1.007c.182.446.292.9-.2,1.254-.821.568-1.3.49-1.877-.319a16.525,16.525,0,0,1-1.68-2.813.806.806,0,0,0-.7-.531,6.6,6.6,0,0,1-5.678-7.2,4.915,4.915,0,0,1,2.27-3.68c.215-.147.441-.211.169-.556a12.845,12.845,0,0,1-2.477-8.194c0-.466.027-.933.057-1.4.052-.815.39-1.124,1.246-1.162.707.107.968.363,1.02,1.076.049.674.023,1.351.016,2.027a10.89,10.89,0,0,0,1.33,5.37,3.78,3.78,0,0,0,1.118,1.3c.221-.087.2-.276.228-.423a8.35,8.35,0,0,1,4.153-5.63c2.492-1.444,3.645-3.772,4.506-6.338a1.288,1.288,0,0,0,.058-.553c-.162-1.458-.314-2.917-.436-4.378-.041-.494-.4-.653-.812-.723a7.808,7.808,0,0,0-5.389.986,9.047,9.047,0,0,0-3.5,3.809c-.429.834-.764,1-1.446.8" transform="translate(0 -0.287)"/>
        <path id="Trazado_212462" data-name="Trazado 212462" d="M50.848,38.772q.01,7.941.018,15.882a1.031,1.031,0,0,1-.042.2,3.016,3.016,0,0,0-.762-.08.971.971,0,0,0-.9.917.9.9,0,0,0,.741,1.1c.967.1,1.048.647.979,1.416a10.445,10.445,0,0,0,0,1.678c.032.452-.17.507-.531.431a2.7,2.7,0,0,1-1.643-.979c-.507-.645-1.115-.773-1.617-.381-.524.41-.543,1-.045,1.667a4.439,4.439,0,0,0,3.343,1.793c.4.031.5.149.491.53-.02,1.586-.037,3.173.007,4.758.016.569-.251.533-.62.458a13.163,13.163,0,0,1-4.99-2.262A20.67,20.67,0,0,1,42.3,63.36a1.218,1.218,0,0,0-1.506-.354,15.3,15.3,0,0,0-1.728-2.138,1.341,1.341,0,0,0-.2-1.6A12.75,12.75,0,0,1,36.271,51a17.787,17.787,0,0,1-.011-3.41,7.908,7.908,0,0,1,1.308-2.906,9.167,9.167,0,0,1,3.056-3.372,9.422,9.422,0,0,0,3.517-4.744c.137-.346.245-.7.415-1.036.248-.485.6-.7,1.136-.409l1.267.938a23.315,23.315,0,0,0,2.793,1.9c.387.236.857.367,1.1.806" transform="translate(-20.832 -20.148)" fill="#f1d0a4"/>
        <path id="Trazado_212463" data-name="Trazado 212463" d="M5.049,143.187a65.57,65.57,0,0,1,1.623-8.632,10.477,10.477,0,0,1,7.229-7.092c1.546-.51,3.114-.953,4.676-1.415.723-.213,1.023-.062,1.086.619A66.383,66.383,0,0,0,23.7,143.23a.591.591,0,0,1,.017.138q-8.9.007-17.792.017a2.443,2.443,0,0,1-.88-.2" transform="translate(-2.907 -72.519)" fill="#f4dd46"/>
        <path id="Trazado_212464" data-name="Trazado 212464" d="M100.065,25.53a10.522,10.522,0,0,0-8.848-5.622,52.684,52.684,0,0,1-6.473-.517c-.584-.12-.866-.288-.835-.963.062-1.326.025-2.656.016-3.985-.006-.844-.307-1.164-1.146-1.265a5.907,5.907,0,0,0-.133-2.879c.973-.02,1.276-.325,1.28-1.312,0-1.19,0-2.379,0-3.569,0-.233-.036-.469.333-.47a26.045,26.045,0,0,1,8.235.906.638.638,0,0,1,.12.07,12.7,12.7,0,0,1,5.427,4.981A17.888,17.888,0,0,1,101,19.053a13.84,13.84,0,0,1-.359,5.892c-.085.256-.062.706-.572.585" transform="translate(-47.583 -2.849)" fill="#7a6d79"/>
        <path id="Trazado_212465" data-name="Trazado 212465" d="M109.773,135.837c.944-.053,1.232-.318,1.369-1.3.209-1.512.4-3.026.6-4.539a.387.387,0,0,1,.271-.04c2.473.67,4.97,1.277,7.07,2.869a12.264,12.264,0,0,1,4.719,8.12c.191,1.148.423,2.288.606,3.437.089.56.266.925.923.839a.576.576,0,0,1,.57.19,1.113,1.113,0,0,1-.681.09q-8.686,0-17.372-.008c-.148-.273.022-.5.129-.719a28.459,28.459,0,0,0,1.555-4.258,1.715,1.715,0,0,0-.425-2.027,5.293,5.293,0,0,1,.663-2.649" transform="translate(-62.061 -74.813)" fill="#f4dd46"/>
        <path id="Trazado_212466" data-name="Trazado 212466" d="M23.384,20.69c.694.051,1.034-.357,1.325-.926a8.615,8.615,0,0,1,6.423-4.891,7.364,7.364,0,0,1,2.92.078.749.749,0,0,1,.662.752c.135,1.485.295,2.967.44,4.451a1.216,1.216,0,0,1-.018.485c-.878,2.655-2.016,5.092-4.612,6.59A8.182,8.182,0,0,0,26.3,33.537a3.233,3.233,0,0,1-1.489-1.472,11.652,11.652,0,0,1-1.458-5.973c0-.443,0-.889.042-1.328a1.178,1.178,0,0,0-.854-1.4c.179-.029.258-.122.3-.314.168-.792.362-1.577.547-2.365" transform="translate(-12.976 -8.5)" fill="#7a6d79"/>
        <path id="Trazado_212467" data-name="Trazado 212467" d="M131.27,143.115c-.482-.078-1.112.192-1.417-.123-.284-.294-.241-.9-.342-1.373a46.726,46.726,0,0,0-1.072-5.163A11.479,11.479,0,0,0,120.9,128.9c-1.252-.429-2.524-.8-3.787-1.2.031-2.028.319-1.947,1.91-1.425,1.238.406,2.5.747,3.741,1.135a10.647,10.647,0,0,1,7.8,8.637c.456,2.328.823,4.672,1.23,7.009l-.52.058" transform="translate(-67.425 -72.52)" fill="#f2d232"/>
        <path id="Trazado_212468" data-name="Trazado 212468" d="M105.041,134.24l-.593,2.65a.388.388,0,0,1-.335.214,1.047,1.047,0,0,0-.868.884,26.383,26.383,0,0,1-1.922,5.21c-.156.333-.079.749-.386,1.02-.169-.28-.436-.287-.726-.289-.727-.006-.785-.1-.4-.748a21.708,21.708,0,0,0,1.826-4.278,38.955,38.955,0,0,0,1.72-7.706c.034-.3.1-.592.131-.89.107-1.21-.3-1.682-1.519-1.772.148-.453-.007-1.142.375-1.327.308-.15.864.2,1.308.34,1.291.4,1.3.4,1.127,1.767-.144,1.154-.279,2.311-.472,3.457a1.217,1.217,0,0,0,.741,1.469" transform="translate(-57.328 -73.216)" fill="#efe8e5"/>
        <path id="Trazado_212469" data-name="Trazado 212469" d="M46.1,128.109a8.725,8.725,0,0,0,.168,2.674,50.668,50.668,0,0,0,1.171,6.282,29.37,29.37,0,0,0,2.356,6.407,3.8,3.8,0,0,1,.509,1.143c-.551.059-1.122-.133-1.655.14a2.105,2.105,0,0,0-.177-1.154,69.59,69.59,0,0,1-3.409-12.284c-.123-.711-.194-1.431-.331-2.14-.1-.5.005-.8.564-.857a5.4,5.4,0,0,0,.8-.21" transform="translate(-25.737 -73.757)" fill="#efe8e5"/>
        <path id="Trazado_212470" data-name="Trazado 212470" d="M102.762,157.407a1.684,1.684,0,0,1,.156-1.012,24.553,24.553,0,0,0,1.976-5.272c.219-.87.476-1.042,1.379-1.045a1.146,1.146,0,0,1,.668,1.54,29.121,29.121,0,0,1-2,5.464,2.79,2.79,0,0,1-.534.786c-.57.43-1.142.275-1.65-.461" transform="translate(-59.154 -86.406)"/>
        <path id="Trazado_212471" data-name="Trazado 212471" d="M99.551,49.63a4.859,4.859,0,0,1,.864,2.824,42.267,42.267,0,0,1-.353,7.952,13.441,13.441,0,0,1-2.821,5.856,24.416,24.416,0,0,1-7.716,7.089,10.481,10.481,0,0,1-3.879,1.271c0-1.9.006-3.763-.006-5.625,0-.306.139-.339.384-.318a3,3,0,0,1,1.994.888c.591.611,1.163.678,1.641.231s.44-1.089-.148-1.714A4.765,4.765,0,0,0,86.218,66.6c-.434-.028-.614-.112-.584-.585.043-.674.027-1.353,0-2.028-.013-.375.046-.568.49-.653,1-.194,1.387-.664,1.244-1.347s-.613-.9-1.7-.745V46.146a1.36,1.36,0,0,1,.888.053,24.924,24.924,0,0,0,3.883.46,21.65,21.65,0,0,1,5.474.609,7.174,7.174,0,0,1,3.636,2.361" transform="translate(-49.301 -26.532)" fill="#f1d0a4"/>
        <path id="Trazado_212472" data-name="Trazado 212472" d="M91.838,123.132a4.421,4.421,0,0,1-1.818,2.473,7.586,7.586,0,0,1-3.938,1.446c-.345.036-.436-.052-.433-.4.022-2.255.022-4.511.029-6.767a.75.75,0,0,1,.528-.307,16.181,16.181,0,0,0,2.908-.738c1.105-.336,1.664.042,1.765,1.177.042.464.13.922.158,1.387a1.439,1.439,0,0,0,.584,1.209c.176.12.342.262.217.516" transform="translate(-49.31 -68.354)" fill="#f1d0a4"/>
        <path id="Trazado_212473" data-name="Trazado 212473" d="M113.594,26.855c.352-.049.325-.375.384-.592a15.984,15.984,0,0,0,.069-7.567,18.384,18.384,0,0,0-3.537-7.632,16.632,16.632,0,0,0-4.365-3.815,10.747,10.747,0,0,1,4.63,2.632,16.912,16.912,0,0,1,5.428,14.1,7.322,7.322,0,0,1-1.953,4.751l-.657-1.873" transform="translate(-61.112 -4.173)" fill="#685e68"/>
        <path id="Trazado_212474" data-name="Trazado 212474" d="M124.243,72.1a36.4,36.4,0,0,0,.53-7.034c.009-.419.234-.366.505-.314a3.027,3.027,0,0,1,2.381,2.529,4.436,4.436,0,0,1-3.417,4.82" transform="translate(-71.531 -37.261)" fill="#f1ba87"/>
        <path id="Trazado_212475" data-name="Trazado 212475" d="M99.574,48.364a10.73,10.73,0,0,0-3.628-2.154,14.938,14.938,0,0,0-3.083-.5,32.553,32.553,0,0,1-6.845-.7,3.429,3.429,0,0,1-.325-.125c-.061-1.1-.063-1.086,1.031-.9,2.123.364,4.283.249,6.417.468a8.179,8.179,0,0,1,6.432,3.913" transform="translate(-49.325 -25.267)" fill="#f1ba87"/>
        <path id="Trazado_212476" data-name="Trazado 212476" d="M91.848,120.05c-.29-.441-.924-.606-.967-1.25-.036-.528-.142-1.052-.163-1.58-.056-1.363-.46-1.675-1.739-1.211a20.054,20.054,0,0,1-3.29.8c-.062-1.245-.065-1.26,1.1-1.489a15.451,15.451,0,0,0,4.769-1.946c.193,1.839.388,3.585.551,5.334a2.4,2.4,0,0,1-.255,1.345" transform="translate(-49.321 -65.272)" fill="#f1ba87"/>
        <path id="Trazado_212477" data-name="Trazado 212477" d="M62.265,5.85V18.975a14.937,14.937,0,0,1-3.679-2.2c-2.162-1.68-2.149-1.692-2.323-4.455a10.954,10.954,0,0,0-.193-1.874,1.216,1.216,0,0,1,.49-1.324,15.087,15.087,0,0,1,5.152-3.16c.132-.046.265-.089.4-.124a.487.487,0,0,1,.152.014" transform="translate(-32.256 -3.358)" fill="#7a6d79"/>
        <path id="Trazado_212478" data-name="Trazado 212478" d="M62.208,118.581c.008,2.258.008,4.516.033,6.773,0,.373-.141.413-.452.374a7.076,7.076,0,0,1-4.939-2.571,4.373,4.373,0,0,1-.9-3.28c.121-1.133.28-2.262.423-3.393a.581.581,0,0,1,.53.089,15.788,15.788,0,0,0,4.939,1.82.667.667,0,0,1,.366.188" transform="translate(-32.195 -67.045)" fill="#f1cfa3"/>
        <path id="Trazado_212479" data-name="Trazado 212479" d="M45.607,34.019a.9.9,0,0,0-1.084.717,11.836,11.836,0,0,1-2.8,4.763,11.079,11.079,0,0,1-1.658,1.259,8.7,8.7,0,0,0-2.6,3.22c-.351.627-.635,1.291-.977,1.923a2.491,2.491,0,0,0-.29,1.271c.014.908-.008,1.816-.016,2.724a24.149,24.149,0,0,1,.09-6.127A5.847,5.847,0,0,1,39.2,39.684a11.684,11.684,0,0,0,5.148-6.3,3.156,3.156,0,0,1,.168-.314l1.089.95" transform="translate(-20.747 -19.039)" fill="#f1ba87"/>
        <path id="Trazado_212480" data-name="Trazado 212480" d="M27.769,72.121a4.514,4.514,0,0,1-3.319-4.828,3.063,3.063,0,0,1,2.378-2.538c.4-.081.467.062.467.419a45.941,45.941,0,0,0,.256,5.445c.057.48.138.958.218,1.5" transform="translate(-14.057 -37.27)" fill="#f1ba87"/>
        <path id="Trazado_212481" data-name="Trazado 212481" d="M62.823,116.948a13.744,13.744,0,0,1-5.048-1.651c-.267-.139-.524-.3-.787-.446.04-.391.081-.783.128-1.236a15.83,15.83,0,0,0,4,1.7c.181.043.362.081.544.118,1.227.248,1.227.248,1.163,1.515" transform="translate(-32.81 -65.412)" fill="#f1c494"/>
        <path id="Trazado_212482" data-name="Trazado 212482" d="M65.471,40.224a23.1,23.1,0,0,1-3.557-2.28.7.7,0,0,1-.332-.426A22.556,22.556,0,0,0,65.207,39.4c.452.162.253.524.264.823" transform="translate(-35.455 -21.6)" fill="#ecb786"/>
        <path id="Trazado_212483" data-name="Trazado 212483" d="M55.456,52.415a5.993,5.993,0,0,1,2.326.383,1.079,1.079,0,0,1,.782,1.409,1.045,1.045,0,0,1-1.448.577,5.2,5.2,0,0,0-3.224-.022c-.81.213-1.339-.011-1.526-.64-.171-.572.165-1.081.9-1.349a5.807,5.807,0,0,1,2.195-.358" transform="translate(-30.124 -30.175)"/>
        <path id="Trazado_212484" data-name="Trazado 212484" d="M59.564,66.055c0,.465.033.933-.008,1.395a1,1,0,0,1-1.11,1,.978.978,0,0,1-.966-1.068q-.017-1.361,0-2.722a.974.974,0,0,1,.965-1.067,1,1,0,0,1,1.111,1c.041.485.008.976.008,1.465" transform="translate(-33.088 -36.61)" fill="#010101"/>
        <path id="Trazado_212485" data-name="Trazado 212485" d="M95.836,64.086a1.02,1.02,0,0,1-1.139,1.09c-.42-.04-.458.1-.45.434a3.869,3.869,0,0,1-.064.969.937.937,0,0,1-1.091.761.913.913,0,0,1-.915-.886,10.551,10.551,0,0,1-.016-1.674.8.8,0,0,0-.622-.986,1.141,1.141,0,0,1-.628-.42.985.985,0,0,1-.026-1.231.931.931,0,0,1,1.165-.394c1.11.475,2.2,1,3.286,1.529a.94.94,0,0,1,.5.81" transform="translate(-52.209 -35.506)"/>
      </g>
    </g>
  </g>
</svg>
