<svg xmlns="http://www.w3.org/2000/svg" xmlns:xlink="http://www.w3.org/1999/xlink" width="90" height="90" viewBox="0 0 90 90">
  <defs>
    <clipPath id="clip-path">
      <rect id="Rectángulo_339003" data-name="Rectángulo 339003" width="66.363" height="71" fill="none"/>
    </clipPath>
  </defs>
  <g id="Grupo_983998" data-name="Grupo 983998" transform="translate(6436 8149)">
    <g id="Grupo_982989" data-name="Grupo 982989">
      <path id="Trazado_207349" data-name="Trazado 207349" d="M45,0A45,45,0,1,1,0,45,45,45,0,0,1,45,0Z" transform="translate(-6436 -8149)" fill="#ffe891"/>
      <g id="Grupo_984156" data-name="Grupo 984156" transform="translate(-6424.182 -8139.5)">
        <g id="Grupo_984156-2" data-name="Grupo 984156" transform="translate(0 0)" clip-path="url(#clip-path)">
          <path id="Trazado_212545" data-name="Trazado 212545" d="M15.321,63.841s6.184,10-2.9,9.7a10,10,0,0,1-2.935-8.984Z" transform="translate(42.241 -17.853)" fill="#793625"/>
          <path id="Trazado_212546" data-name="Trazado 212546" d="M26.912,18.124A15.94,15.94,0,0,1,28.8,12.17C41.874-12,70.306,7.291,70.306,7.291L65.327,24.225c-11.853-7.17-25.955-10.1-38.415-6.1" transform="translate(-23.329 0)" fill="#793625"/>
          <path id="Trazado_212547" data-name="Trazado 212547" d="M72.315,30.1,66.759,52.07S31.992,42.086,33.9,24c12.46-4,24.8-5.7,38.415,6.1" transform="translate(-30.317 -5.875)" fill="#6b2a1d"/>
          <path id="Trazado_212548" data-name="Trazado 212548" d="M70.512,57.078a7.128,7.128,0,1,1-5.1-8.7,7.128,7.128,0,0,1,5.1,8.7" transform="translate(-45.07 -13.465)" fill="#e8803a"/>
          <path id="Trazado_212549" data-name="Trazado 212549" d="M15.676,86.553l.754-12.16L38.04,55.744,39.953,83.68c-7.682,2.631-15.964,3.053-24.277,2.873" transform="translate(15.118 -15.589)" fill="#fc9753"/>
          <path id="Trazado_212550" data-name="Trazado 212550" d="M28.56,90.482s13.857-.594,14.89-14.566L29.208,80.034Z" transform="translate(2.341 -21.23)" fill="#2f1a2a"/>
          <path id="Trazado_212551" data-name="Trazado 212551" d="M15.563,15.167s-4.542,28.908-.99,38.011S26.017,67.854,38.236,65.153c0,0,14.252-1.106,16.835-21.8C58.959,12.2,29.632-1.773,15.563,15.167" transform="translate(1.421 -2.207)" fill="#fc9753"/>
          <path id="Trazado_212552" data-name="Trazado 212552" d="M68.426,50.321a1.631,1.631,0,1,1-1.24-1.945,1.63,1.63,0,0,1,1.24,1.945" transform="translate(-49.069 -13.518)" fill="#171717"/>
          <path id="Trazado_212553" data-name="Trazado 212553" d="M49.29,49.955a1.631,1.631,0,1,1-1.24-1.945,1.63,1.63,0,0,1,1.24,1.945" transform="translate(-16.149 -13.415)" fill="#171717"/>
          <path id="Trazado_212554" data-name="Trazado 212554" d="M61.192,52.744l-1.567,5.574,2.639,1.315" transform="translate(-38.85 -14.75)" fill="none" stroke="#2f1a2a" stroke-linecap="round" stroke-linejoin="round" stroke-width="0.983"/>
          <path id="Trazado_212555" data-name="Trazado 212555" d="M42.153,34.463s-5.068-1.227-5.429,1.514c0,0-.206,1.861,4.228,2.818s6.222.881,6.828-.813-3.223-3.186-5.627-3.519" transform="translate(-7.933 -9.561)" fill="#221914"/>
          <path id="Trazado_212556" data-name="Trazado 212556" d="M66.628,33.954s4.718-1.168,5.228,1.516c0,0,.311,1.837-3.829,2.731-3.014.65-4.089.067-4.318-1.164-.272-1.459,1.145-2.809,2.92-3.083" transform="translate(-51.365 -9.424)" fill="#221914"/>
          <path id="Trazado_212557" data-name="Trazado 212557" d="M58.2,65.624l-9.456.7s.094,3.695,4.914,3.369S58.2,65.624,58.2,65.624" transform="translate(-26.945 -18.352)" fill="#fff"/>
          <path id="Trazado_212558" data-name="Trazado 212558" d="M12.924,41.462,11.533,30.939S3.2,28.287,1.206,12.539c0,0,3.5-7.245,14.182-3.931s19.959,11.041,8.244,30.439Z" transform="translate(36.417 -2.164)" fill="#793625"/>
          <path id="Trazado_212559" data-name="Trazado 212559" d="M17.022,56.407a8.65,8.65,0,1,1-6.188-10.553,8.651,8.651,0,0,1,6.188,10.553" transform="translate(49.059 -12.744)" fill="#fc9753"/>
          <path id="Trazado_212560" data-name="Trazado 212560" d="M14.556,53.807s-6.408-1.572-7.82,5.468" transform="translate(46.955 -15.005)" fill="none" stroke="#2f1a2a" stroke-linecap="round" stroke-linejoin="round" stroke-width="0.983"/>
          <path id="Trazado_212561" data-name="Trazado 212561" d="M49.541,11.959A32.88,32.88,0,0,0,28.5,16.933l2.211-9.352L44.548,5.666l13.2,4.971-3.258.308Z" transform="translate(-11.917 -1.584)" fill="#793625"/>
          <path id="Trazado_212562" data-name="Trazado 212562" d="M83.961,20.078s-15.937.04-16,11.652a.2.2,0,0,1-.4.035c-.747-4.314.055-16.119,17.645-14.741Z" transform="translate(-67.381 -4.73)" fill="#793625"/>
        </g>
      </g>
    </g>
  </g>
</svg>
