<svg xmlns="http://www.w3.org/2000/svg" xmlns:xlink="http://www.w3.org/1999/xlink" width="294" height="148" viewBox="0 0 294 148">
  <defs>
    <clipPath id="clip-path">
      <rect id="Rect치ngulo_338991" data-name="Rect치ngulo 338991" width="121.869" height="118.415" fill="none"/>
    </clipPath>
  </defs>
  <g id="Grupo_984118" data-name="Grupo 984118" transform="translate(-647 -1902)">
    <rect id="Rect치ngulo_338948" data-name="Rect치ngulo 338948" width="294" height="148" rx="14" transform="translate(647 1902)" fill="#a6bbff"/>
    <g id="Grupo_984117" data-name="Grupo 984117" transform="translate(733.131 1916.844)">
      <g id="Grupo_984117-2" data-name="Grupo 984117" clip-path="url(#clip-path)">
        <path id="Trazado_212263" data-name="Trazado 212263" d="M42.844,91.963c1.514.5,1.867.925,1.844,2.469-.059,4.039.188,8.082-.156,12.117A20.417,20.417,0,0,1,4.364,108.97c-.084-.329,0-.741-.382-.949A8.878,8.878,0,0,1,0,102.668V99.574c.28-.629.538-1.271.844-1.887a8.263,8.263,0,0,1,4.84-4.072c1.05-.821,2.259-.58,3.423-.457a5.733,5.733,0,0,1,2.653.973,2.148,2.148,0,0,0,2.818-.2,4.112,4.112,0,0,0,1.756-3.456c-.005-.277,0-.554.006-.831.05-1.961.737-2.655,2.746-2.774,5.39-.017,10.781.069,16.17-.031A14.019,14.019,0,0,0,48.862,76.431a1.658,1.658,0,0,0,.068-1.266c-.353-.385-.818-.253-1.237-.253-8.165,0-16.329-.045-24.494.024-4.477.038-8.55,1.182-11.658,4.67A13.351,13.351,0,0,0,7.962,87.96a4.374,4.374,0,0,1-.486,2.061c-.414.7-.958,1.178-1.855.826-1.437-.381-1.822-.915-1.78-2.473a17.919,17.919,0,0,1,17.209-17.3c10.066-.178,20.137-.057,30.205-.049a1.825,1.825,0,0,1,2.075,2.144,17.691,17.691,0,0,1-9.388,15.486l-1.116.647a2.136,2.136,0,0,1-1.174.754,17.486,17.486,0,0,1-6.043,1.069c-4.472-.052-8.947.008-13.419-.033a1.521,1.521,0,0,0-1.783,1.381,8.512,8.512,0,0,1-6.117,6.359,4.635,4.635,0,0,1-4.351-.758,3.6,3.6,0,0,0-5.288,1.068,3.736,3.736,0,0,0,.934,5.17,4.332,4.332,0,0,0,.807.5,2.773,2.773,0,0,1,1.628,2.174,17.015,17.015,0,0,0,4.777,9.121,14.246,14.246,0,0,0,2.441,1.884A16.361,16.361,0,0,0,40.532,106.23a78.757,78.757,0,0,0,.079-7.963c.015-1.387-.061-2.777.034-4.161.1-1.445.986-2.271,2.2-2.143" transform="translate(0 -10.119)"/>
        <path id="Trazado_212264" data-name="Trazado 212264" d="M110.553,2.177h2.1a4.3,4.3,0,0,0,4.226,1.537,12.584,12.584,0,0,1,1.428,0c2.685.046,4.178,1.517,4.23,4.225.042,2.22.01,4.442.011,6.662,0,4.958.009,9.915,0,14.873-.008,3.468-1.468,4.95-4.916,4.957-7.695.015-15.389,0-23.083.005-.475,0-.953-.021-1.427.026a1.629,1.629,0,0,0-1.724,1.732c-.087,1.108.013,2.221-.057,3.33-.022.355-.035.8-.4.934-.376.145-.647-.211-.892-.467q-1.973-2.066-3.8-4.258a3.351,3.351,0,0,0-2.783-1.306q-4.818.041-9.638,0c-3.239-.021-4.832-1.585-4.846-4.842-.03-7.02-.011-14.041-.009-21.06a6.654,6.654,0,0,1,.394-2.334,3.494,3.494,0,0,1,3.305-2.466c.515-.03,1.032-.018,1.547-.018,10.828,0,21.655-.018,32.482.02,1.547.006,2.916-.163,3.851-1.55" transform="translate(-9.832 -0.31)" fill="#00c6a8"/>
        <path id="Trazado_212265" data-name="Trazado 212265" d="M55.484,15.8h2.532c.538.508.382,1.18.384,1.794.017,4.956-.028,9.912.022,14.868a6.683,6.683,0,0,0,6.808,6.763c1.11.008,2.221-.016,3.33.011.465.011.969-.049,1.3.409a11.838,11.838,0,0,0-.125,2.753,4.959,4.959,0,0,0-1.726,2.993A3.786,3.786,0,0,1,64.3,48.019c-3.291.047-6.584.065-9.873-.008a4.062,4.062,0,0,0-3.584,1.656,48.038,48.038,0,0,1-3.4,3.814c-.274.28-.567.725-.959.587-.46-.161-.418-.718-.436-1.148-.038-.833,0-1.666-.022-2.5-.054-1.748-.631-2.355-2.4-2.373-3.926-.041-7.852-.012-11.778-.015-4.124,0-8.249.014-12.373-.005-3.169-.015-4.608-1.434-4.616-4.572q-.026-10.707,0-21.415c.005-3.327,1.387-4.722,4.7-4.725,10.707-.011,21.414-.025,32.121.02,1.548.007,2.907-.133,3.821-1.543" transform="translate(-2.115 -2.252)" fill="#3fabc8"/>
        <path id="Trazado_212266" data-name="Trazado 212266" d="M77.041,37.389c-1.659-.013-3.319.009-4.977-.044a7,7,0,0,1-6.821-6.965c-.049-5.611-.034-11.224-.047-16.836.011-1.982.027-3.963.033-5.945C65.246,3.061,68.177.058,72.716.024,77.633-.014,82.55.015,87.466.015q9.992,0,19.984,0c1.693,0,2.155.345,2.565,1.85-.406,1.5-.886,1.855-2.563,1.856-11.385,0-22.771.063-34.155-.037-3.425-.03-4.484,1.922-4.458,4.479.073,7.061.024,14.123.026,21.184,0,3.149,1.247,4.388,4.4,4.388,3.332,0,6.665.028,10-.016A2.839,2.839,0,0,1,85.636,34.8c1.519,1.762,3.088,3.481,4.839,5.447,0-1.568-.006-2.854,0-4.14.01-1.753.612-2.364,2.355-2.365q12.257-.006,24.516,0c2.985,0,4.273-1.287,4.273-4.266q0-10.831,0-21.66c0-2.79-1.279-4.075-4.057-4.087-.992,0-1.984.006-2.975,0-1.536-.012-1.985-.353-2.473-1.855.489-1.507.917-1.857,2.47-1.845a32.628,32.628,0,0,1,4.631.118A6.921,6.921,0,0,1,125.223,6.9q.073,11.774,0,23.548a6.879,6.879,0,0,1-6.894,6.886c-7.65.063-15.3.045-22.953.008-.967,0-1.3.2-1.256,1.221.085,1.979.011,3.964.03,5.945.009.974-.157,1.862-1.173,2.246A2.037,2.037,0,0,1,90.6,45.9c-2.3-2.619-4.651-5.2-6.943-7.828a1.864,1.864,0,0,0-1.621-.721c-1.663.054-3.329.028-4.994.034" transform="translate(-9.294 0)"/>
        <path id="Trazado_212267" data-name="Trazado 212267" d="M16.092,101.666c3.469-1.181,5.742-3.413,6.217-7.173.094-.743.573-.619,1.031-.619,3.766,0,7.533-.057,11.3.014a24.34,24.34,0,0,0,10.242-1.538q.009,1.33.017,2.66c-1.544.513-1.845.926-1.848,2.591-.005,3.171.015,6.342-.005,9.512a16.649,16.649,0,0,1-18.08,16.919,14.476,14.476,0,0,1-7.921-2.833,9.735,9.735,0,0,1-1.711-4.107,26.727,26.727,0,0,1,.03-14.133c.133-.492.213-1.017.731-1.292" transform="translate(-2.052 -13.165)" fill="#fbd1bd"/>
        <path id="Trazado_212268" data-name="Trazado 212268" d="M86.235,84.672a2.116,2.116,0,0,1-1.774-1.8c-2.026-7.744,1.909-14.472,9.76-15.776a50.524,50.524,0,0,1,23.917,1.616c1.14.365,1.866,1.036,1.6,2.364-.145,1.368-1.062,1.946-2.543,1.483a39.816,39.816,0,0,0-5.506-1.389,33.071,33.071,0,0,0-5.889-.507,33.267,33.267,0,0,0-11.346.436c-4.319,1.026-6.607,4.063-6.485,8.313.026.881.31,1.193,1.2,1.113a12.542,12.542,0,0,0,6.284-1.934c1.368-.95,2.024-.837,3.247.33a20.562,20.562,0,0,0,4.139,3.546,15.056,15.056,0,0,0,10.4,1.259,7.161,7.161,0,0,1,1.518-.274,2.061,2.061,0,0,1,2,2.207c.035.929.321,1.328,1.29,1.089a3.2,3.2,0,0,1,1.418.036,7.609,7.609,0,0,1,5.691,3.661c1.96,3.3,1.445,6.713-1.323,9.521a4.962,4.962,0,0,0-1.969,2.957,18.373,18.373,0,0,1-6.286,9.3,1.548,1.548,0,0,1-1.031.52,21.519,21.519,0,0,1-8.987,3.4c-9.652,1.209-19.206-5.838-20.741-15.44-.628-3.931-.22-7.9-.268-11.857-.011-.91.631-1.4,1.459-1.644A1.792,1.792,0,0,1,88.43,88.97c.1,1.344,0,2.695.039,4.042a47.151,47.151,0,0,0,.215,6.526,14.806,14.806,0,0,0,12.23,12.472,13.906,13.906,0,0,0,9.659-1.6,14.273,14.273,0,0,0,7.533-9.975,4.493,4.493,0,0,1,2.208-3.161,3.226,3.226,0,0,0,1.152-4.617,3.384,3.384,0,0,0-4.8-.938c-.266.171-.507.381-.79.526a2.145,2.145,0,0,1-3.257-1.7,7.038,7.038,0,0,1-.039-.829c-.034-1.513-.123-1.579-1.7-1.278A17.117,17.117,0,0,1,97.862,84.15a2.378,2.378,0,0,0-2.836-.483,20.529,20.529,0,0,1-7.547,1.29,1.854,1.854,0,0,1-1.243-.285" transform="translate(-11.966 -9.46)"/>
        <path id="Trazado_212269" data-name="Trazado 212269" d="M54.938,15.5c-.327,1.479-.816,1.874-2.391,1.874q-16.781.005-33.56,0c-3.121,0-4.328,1.2-4.328,4.291q0,10.829,0,21.659c0,2.776,1.293,4.056,4.081,4.057q12.2,0,24.4,0c2.1,0,2.654.562,2.658,2.7,0,1.171,0,2.343,0,3.822,1.7-1.91,3.233-3.553,4.676-5.268a3.249,3.249,0,0,1,2.769-1.274c3.411.061,6.823.026,10.234.02,2.317,0,3.536-1.027,3.862-3.3A2.025,2.025,0,0,1,69.19,42.1c1.537.4,2.024,1.116,1.8,2.661a6.978,6.978,0,0,1-6.822,6.244c-3.208.11-6.422.067-9.632.027a2.477,2.477,0,0,0-2.132.934c-2.2,2.554-4.482,5.032-6.7,7.566a2.076,2.076,0,0,1-2.483.87c-1-.4-1.146-1.308-1.135-2.278.021-1.942-.073-3.89.037-5.826.064-1.12-.341-1.274-1.331-1.269q-11.121.06-22.243.015c-3.746-.011-6.46-2.031-7.337-5.365a8.692,8.692,0,0,1-.2-2.242q-.006-11.062,0-22.125c.009-4.672,2.9-7.572,7.55-7.575q16.95-.012,33.9,0c1.686,0,2.079.29,2.475,1.765" transform="translate(-1.569 -1.958)"/>
        <path id="Trazado_212270" data-name="Trazado 212270" d="M111.118,113.359c-4.454,2.889-11.467,2.533-16.109-.856A15.14,15.14,0,0,1,88.5,99.83c-.031-2.532,0-5.064-.008-7.6,0-1.663-.512-2.2-2.137-2.314.439-.811.154-1.687.221-2.53,3.451-.044,6.866-.284,10.021-1.891.369-.188.583-.007.816.232,3.816,3.893,8.547,5.327,13.873,5.158.64.007.6.556.681.933a53.247,53.247,0,0,1,1.152,9.034,33.108,33.108,0,0,1-.722,9.87,6.081,6.081,0,0,1-1.284,2.634" transform="translate(-12.311 -12.178)" fill="#fbd1bd"/>
        <path id="Trazado_212271" data-name="Trazado 212271" d="M109.37,71a33.081,33.081,0,0,1,11.259,1.838c1.464.5,2.095.238,2.733-1.107.5.863,1.632.883,2.206,1.649.007,1.8,1.285,2.821,2.384,4a21.652,21.652,0,0,1,4.77,9.318,39.715,39.715,0,0,1,1.443,10.917,56.186,56.186,0,0,1-3.789,19.954c-.444,1.144-.881,2.295-1.433,3.389-.161.322-.2,1.077-.934.6a6.3,6.3,0,0,1-.167-2.819,75.825,75.825,0,0,0-.621-16.67,3.4,3.4,0,0,1,.027-1.525,7.94,7.94,0,0,0,2.365-5.51,7.284,7.284,0,0,0-6.053-7.148,2.024,2.024,0,0,1-.424-.185,1.151,1.151,0,0,0-.1-.807c-2.7-5.826-6.408-10.822-11.85-14.385-.463-.3-.959-.559-1.413-.878-.21-.147-.521-.258-.4-.629" transform="translate(-15.588 -10.122)" fill="#5b3d2d"/>
        <path id="Trazado_212272" data-name="Trazado 212272" d="M129.455,121.988a46.452,46.452,0,0,0,3.341-8.6,50.077,50.077,0,0,0,2.29-14.589c.02-6.329-.789-12.556-4.064-18.189a14.7,14.7,0,0,0-3.14-3.852c-1-.852-1.557-1.773-1.032-3.1,1.636-1,2.074-.963,3.518.376,3.921,3.64,6.028,8.277,7.164,13.388,2.735,12.311.629,24.052-4.374,35.413-.714,1.624-1.579,3.185-2.439,4.741a1.84,1.84,0,0,1-2.867.873,18.364,18.364,0,0,1-9.31-10.6c-.453-1.292-.162-1.921,1.093-2.589.7-.647,1.289-.291,1.864.194a4.526,4.526,0,0,1,1.139,2.044,14.7,14.7,0,0,0,4.592,5.911c.7.6,1.159.484,1.513-.36a2.044,2.044,0,0,1,.711-1.064" transform="translate(-16.871 -10.402)"/>
        <path id="Trazado_212273" data-name="Trazado 212273" d="M6.556,91.449c1.493-.3,1.814-.72,1.923-2.488A14.223,14.223,0,0,1,20.285,75.524c2.854-.526,5.769-.24,8.654-.261,6.849-.048,13.7-.017,20.548-.009.3,0,.637-.131.892.156-.529.5-1.194.347-1.811.349-5.823.011-11.652.167-17.465-.059-3.042-.119-5.031,1.325-6.866,3.3a15.682,15.682,0,0,0-3.866,7.776,1.662,1.662,0,0,1-.394.972c-1.893.146-2.358.664-2.366,2.632q-.015,4.087-3.2,5.115a1.12,1.12,0,0,1-1.121-.045,8.1,8.1,0,0,0-6.676-1.236l-.062-2.768" transform="translate(-0.935 -10.721)" fill="#e1a01e"/>
        <path id="Trazado_212274" data-name="Trazado 212274" d="M129.64,126.62c-1.3,3.042-.939,2.908-3.321.864a13.666,13.666,0,0,1-4.1-6.1,1.865,1.865,0,0,0-2.4-1.489,5.667,5.667,0,0,0-.18-1.579,19.035,19.035,0,0,0,7.131-10.27,3.777,3.777,0,0,1,1.943-2.588,28.206,28.206,0,0,1,.885,5.9,69.943,69.943,0,0,1,.243,10.416c-.087,1.614-.2,3.225-.2,4.842" transform="translate(-17.056 -15.034)" fill="#6b4b3d"/>
        <path id="Trazado_212275" data-name="Trazado 212275" d="M22.208,87.781a14.421,14.421,0,0,1,3.275-8.1,18.8,18.8,0,0,1,1.812-2.026,8.464,8.464,0,0,1,6.565-2.245c6.246.158,12.5.036,18.751.026a12.864,12.864,0,0,1-4.348,8.537,13.178,13.178,0,0,1-8.971,3.788c-5.693.11-11.389.021-17.084.017" transform="translate(-3.166 -10.75)" fill="#f8cd55"/>
        <path id="Trazado_212276" data-name="Trazado 212276" d="M14.647,102.945a33.688,33.688,0,0,0-1.218,6.01A28.9,28.9,0,0,0,15.6,122.477,15.751,15.751,0,0,1,8.5,112.085,3.678,3.678,0,0,0,6.4,109.091a4,4,0,0,1-1.573-5.625,3.971,3.971,0,0,1,5.74-1.432,4.71,4.71,0,0,0,4.083.911" transform="translate(-0.607 -14.444)" fill="#f9b897"/>
        <path id="Trazado_212277" data-name="Trazado 212277" d="M91.142,32.044q-6.242,0-12.483,0a2.058,2.058,0,0,1-2.158-1.14,1.741,1.741,0,0,1,1.062-2.4,4.655,4.655,0,0,1,1.4-.157q12.186-.014,24.373-.006a7.075,7.075,0,0,1,.832.018,1.833,1.833,0,0,1-.071,3.664c-1.107.054-2.218.016-3.329.016h-9.63" transform="translate(-10.883 -4.04)" fill="#000101"/>
        <path id="Trazado_212278" data-name="Trazado 212278" d="M90.638,19.638q6.118,0,12.235,0a1.834,1.834,0,0,1,1.822,1.072,1.673,1.673,0,0,1-.177,1.793,1.844,1.844,0,0,1-1.649.757q-12.294-.01-24.59-.012a1.8,1.8,0,1,1,.005-3.6c4.118-.02,8.236-.008,12.354-.008" transform="translate(-10.883 -2.799)"/>
        <path id="Trazado_212279" data-name="Trazado 212279" d="M107.917,10.836h9.4a9.245,9.245,0,0,1,.951.014,1.808,1.808,0,0,1,1.812,1.825,1.788,1.788,0,0,1-1.785,1.844c-.59.054-1.188.018-1.783.018H98.782c-.238,0-.476,0-.714,0-1.416-.032-2.292-.767-2.26-1.894.03-1.069.894-1.8,2.234-1.8,3.292-.015,6.583-.005,9.875-.005" transform="translate(-13.658 -1.544)" fill="#000101"/>
        <path id="Trazado_212280" data-name="Trazado 212280" d="M83.421,14.538c-1.623,0-3.245.015-4.866,0-1.369-.017-2.18-.7-2.21-1.8-.028-1.15.807-1.886,2.236-1.893q4.867-.024,9.732,0c1.416.006,2.293.746,2.282,1.862s-.877,1.822-2.309,1.833c-1.621.014-3.243,0-4.865,0" transform="translate(-10.884 -1.544)" fill="#000101"/>
        <path id="Trazado_212281" data-name="Trazado 212281" d="M117.447,23.248c-1.031,0-2.062.027-3.091-.006a1.8,1.8,0,1,1-.013-3.6q3.15-.045,6.3,0a1.8,1.8,0,1,1,.012,3.59c-1.069.038-2.14.009-3.21.009" transform="translate(-16.032 -2.797)"/>
        <path id="Trazado_212282" data-name="Trazado 212282" d="M39.349,32.428q7.8,0,15.59,0c1.372,0,2.177.687,2.163,1.814a1.675,1.675,0,0,1-1.445,1.763,5.8,5.8,0,0,1-1.186.059q-15.233,0-30.466,0c-.118,0-.238,0-.357,0-1.427-.033-2.289-.751-2.249-1.874.038-1.094.865-1.762,2.24-1.764q7.853-.01,15.708,0" transform="translate(-3.051 -4.623)"/>
        <path id="Trazado_212283" data-name="Trazado 212283" d="M43.8,44.848c-2.3,0-4.6.008-6.9,0-1.465-.007-2.257-.679-2.24-1.865.016-1.155.742-1.768,2.189-1.771q6.961-.018,13.921,0c1.362,0,2.18.733,2.153,1.836-.027,1.086-.876,1.792-2.22,1.8-2.3.012-4.6,0-6.9,0" transform="translate(-4.941 -5.873)"/>
        <path id="Trazado_212284" data-name="Trazado 212284" d="M28.456,27.349c-1.621,0-3.244.016-4.865-.005-1.348-.018-2.18-.732-2.192-1.825s.826-1.85,2.157-1.861q4.984-.041,9.968,0a1.892,1.892,0,0,1,2.127,1.885c-.027,1.1-.845,1.783-2.211,1.8-1.662.019-3.323,0-4.984,0" transform="translate(-3.051 -3.37)" fill="#000101"/>
        <path id="Trazado_212285" data-name="Trazado 212285" d="M49.36,27.348c-1.627,0-3.253.017-4.879-.005a1.91,1.91,0,0,1-2.141-1.757c-.051-1.12.731-1.907,2.086-1.922q5.057-.054,10.115,0a1.777,1.777,0,0,1,2,1.866c-.016,1.094-.774,1.788-2.067,1.809-1.705.027-3.412.007-5.117.007" transform="translate(-6.036 -3.37)" fill="#000101"/>
        <path id="Trazado_212286" data-name="Trazado 212286" d="M25.739,44.845c-.832,0-1.666.035-2.5-.009a1.837,1.837,0,0,1-1.845-1.8,1.782,1.782,0,0,1,1.807-1.81c1.782-.045,3.566-.05,5.347.007a1.66,1.66,0,0,1,1.7,1.762,1.806,1.806,0,0,1-1.659,1.839,1.682,1.682,0,0,1-.238.011H25.739" transform="translate(-3.051 -5.872)"/>
        <path id="Trazado_212287" data-name="Trazado 212287" d="M31,121.809c-4-.312-6.984-1.666-9-4.766-.787-1.21-.677-2.271.273-2.909.966-.649,1.937-.367,2.77.879a6.874,6.874,0,0,0,5.237,3.045c.236.027.476.025.708.067a1.853,1.853,0,0,1,1.7,2.039A1.793,1.793,0,0,1,31,121.809" transform="translate(-3.062 -16.223)"/>
        <path id="Trazado_212288" data-name="Trazado 212288" d="M38.642,102.464a13.268,13.268,0,0,1,.012-1.663,1.75,1.75,0,0,1,1.8-1.709,1.688,1.688,0,0,1,1.827,1.658,20.866,20.866,0,0,1,.009,3.323,1.713,1.713,0,0,1-1.9,1.7,1.756,1.756,0,0,1-1.74-1.762,13.635,13.635,0,0,1-.01-1.544h.006" transform="translate(-5.505 -14.127)" fill="#020101"/>
        <path id="Trazado_212289" data-name="Trazado 212289" d="M32.977,102.5a16.264,16.264,0,0,1-.011,1.662,1.739,1.739,0,0,1-1.866,1.6,1.621,1.621,0,0,1-1.709-1.617,28.807,28.807,0,0,1,0-3.442,1.666,1.666,0,0,1,1.724-1.623,1.765,1.765,0,0,1,1.85,1.637c.058.588.011,1.187.01,1.781" transform="translate(-4.183 -14.125)"/>
        <path id="Trazado_212290" data-name="Trazado 212290" d="M106.364,70.957a32.613,32.613,0,0,1,7.809,6.264,37.78,37.78,0,0,1,6.121,9.522c.117.253.564.737-.165.912-.119,0-.239-.009-.358,0-.785.057-1.7.4-2.321.106-.773-.368-.166-1.436-.389-2.169a1.791,1.791,0,0,0-2.283-1.133,16.813,16.813,0,0,1-8,.25,13.494,13.494,0,0,1-7.336-4.574c-1.452-1.647-1.8-1.657-3.573-.424-2.118,1.469-4.589,1.63-7.031,1.85-.653.058-.527-.573-.553-.977-.309-4.862,1.977-8.034,6.745-9.2a33.208,33.208,0,0,1,11.332-.43" transform="translate(-12.582 -10.076)" fill="#6b4b3d"/>
        <path id="Trazado_212291" data-name="Trazado 212291" d="M115.234,114.231a28.212,28.212,0,0,0,1.491-5.564,47.136,47.136,0,0,0,.074-8.947,45.835,45.835,0,0,0-1.106-7.339c-.054-.236-.07-.467-.285-.621a1.871,1.871,0,0,1,.334-.112c1.61-.233,1.609-.232,1.612,1.344a9.9,9.9,0,0,0,.021,1.307,1.815,1.815,0,0,0,2.78,1.326,7.506,7.506,0,0,0,.655-.509,3.7,3.7,0,0,1,5.4.921,3.584,3.584,0,0,1-1.38,5.19,3.258,3.258,0,0,0-1.91,2.6,14.534,14.534,0,0,1-7.69,10.4" transform="translate(-16.428 -13.049)" fill="#f9b897"/>
        <path id="Trazado_212292" data-name="Trazado 212292" d="M102.747,113.569a1.866,1.866,0,0,1-1.973-1.656,1.8,1.8,0,0,1,1.62-1.98c.5-.1,1.024-.107,1.524-.218a6.16,6.16,0,0,0,4.07-2.811,1.81,1.81,0,0,1,2.649-.649,1.831,1.831,0,0,1,.414,2.615c-1.886,3.113-4.8,4.427-8.3,4.7" transform="translate(-14.365 -15.1)"/>
        <path id="Trazado_212293" data-name="Trazado 212293" d="M96.69,95.573a10.6,10.6,0,0,1-.015,1.659A1.7,1.7,0,0,1,94.888,98.8,1.661,1.661,0,0,1,93.1,97.237a15.578,15.578,0,0,1,0-3.321,1.648,1.648,0,0,1,1.788-1.555,1.677,1.677,0,0,1,1.79,1.553,10.6,10.6,0,0,1,.015,1.659" transform="translate(-13.259 -13.167)" fill="#020101"/>
        <path id="Trazado_212294" data-name="Trazado 212294" d="M101.657,95.436a9.065,9.065,0,0,1,.013-1.424,1.726,1.726,0,0,1,1.837-1.649,1.63,1.63,0,0,1,1.762,1.573,17.977,17.977,0,0,1,.015,3.2,1.676,1.676,0,0,1-1.818,1.66,1.74,1.74,0,0,1-1.8-1.7,12.5,12.5,0,0,1-.013-1.663Z" transform="translate(-14.488 -13.167)" fill="#020101"/>
      </g>
    </g>
  </g>
</svg>
