<svg xmlns="http://www.w3.org/2000/svg" xmlns:xlink="http://www.w3.org/1999/xlink" width="294" height="148" viewBox="0 0 294 148">
  <defs>
    <clipPath id="clip-path">
      <rect id="Rect치ngulo_338993" data-name="Rect치ngulo 338993" width="109.757" height="131.822" fill="none"/>
    </clipPath>
  </defs>
  <g id="Grupo_984124" data-name="Grupo 984124" transform="translate(-8085 9798)">
    <rect id="Rect치ngulo_338951" data-name="Rect치ngulo 338951" width="294" height="148" rx="14" transform="translate(8085 -9798)" fill="#a6bbff"/>
    <g id="Grupo_984123" data-name="Grupo 984123" transform="translate(8176.735 -9789.911)">
      <g id="Grupo_984122" data-name="Grupo 984122" clip-path="url(#clip-path)">
        <path id="Trazado_212311" data-name="Trazado 212311" d="M57.447,0c1.806.45,3.671.543,5.486.981A37.286,37.286,0,0,1,86.726,18.226a37.76,37.76,0,0,1,5.492,20.568c-.056,7.938,0,15.877-.031,23.815,0,.844.176,1.169,1.092,1.25a8.668,8.668,0,0,1,6.583,12.832c-.516.9-.394,1.093.5,1.462a15.353,15.353,0,0,1,6.574,23.031c-.981,1.391-.98,1.39-2.281.25-.128-.112-.272-.205-.409-.308-1.9-.789-2.053-1.356-.983-3.06a10.147,10.147,0,0,0,.511-10.65,10.013,10.013,0,0,0-9.149-5.67c-3.858-.082-7.721-.007-11.581-.023-1.958-.008-2.246-.307-2.274-2.227-.042-2.844,0-2.882,2.817-2.884q3.667,0,7.335,0a7.575,7.575,0,0,0,2.413-.321,3.938,3.938,0,0,0,2.843-4.224,3.849,3.849,0,0,0-3.842-3.457,11.889,11.889,0,0,1-2.56-.189,2.718,2.718,0,0,1-2.3-2.966c-.039-2.96-.012-5.92-.012-8.879,0-6.134.053-12.269-.012-18.4-.123-11.624-4.927-20.9-14.391-27.612a30.573,30.573,0,0,0-19.007-5.77A31.669,31.669,0,0,0,32.19,14.05a32.28,32.28,0,0,0-9.9,23.92c-.022,8.665,0,17.33-.005,25.995,0,.472.012.944-.011,1.416A2.9,2.9,0,0,1,19.4,68.539a20.088,20.088,0,0,1-2.056.066,3.837,3.837,0,0,0-3.726,3.121,3.942,3.942,0,0,0,2.354,4.4,6.906,6.906,0,0,0,2.768.486c2.745,0,5.492-.016,8.237.005,1.759.013,1.974.249,2,2.029.047,2.925-.1,3.08-2.975,3.08q-5.21,0-10.424,0c-5.89.007-10.729,4.5-10.8,10.031a10.586,10.586,0,0,0,10.559,11.1c3.816.077,7.635.006,11.453.02,1.991.007,2.172.2,2.188,2.235.023,2.854,0,2.877-2.83,2.877-3.733,0-7.464.037-11.2-.019a6.875,6.875,0,0,1-4.071-.883A18.48,18.48,0,0,1,3.638,102.2,15.374,15.374,0,0,1,9.227,78.188c.386-.164.768-.339,1.155-.511-2.341-4.321-2.119-7.988.685-11.088a7.816,7.816,0,0,1,5.226-2.714c.988-.081,1.261-.371,1.256-1.368-.037-8.706-.232-17.42.041-26.119.386-12.331,5.728-22.208,15.725-29.477A35.541,35.541,0,0,1,51,.251c.206-.02.436.01.527-.251h.516a20.656,20.656,0,0,0,5.149,0Z" transform="translate(0)"/>
        <path id="Trazado_212312" data-name="Trazado 212312" d="M76.392,0a10.509,10.509,0,0,1-5.149,0Z" transform="translate(-19.203)" fill="#313131"/>
        <path id="Trazado_212313" data-name="Trazado 212313" d="M12.5,108.66c5.488,1.022,11.032.354,16.547.563.808.031,1.105-.159,1.109-1.043.013-3.359.047-3.319-3.28-3.37-3.9-.059-7.816.314-11.7-.2a10.9,10.9,0,0,1,.851-21.636c4.24-.183,8.492-.1,12.737-.064,1.02.009,1.415-.186,1.393-1.31-.061-3.114-.007-3.114-3.163-3.115-2.573,0-5.148.042-7.721-.018a4.4,4.4,0,0,1-2.992-7.715,4.2,4.2,0,0,1,2.7-1.039c.557-.018,1.115-.012,1.673-.023,2.1-.042,2.868-.8,2.87-2.893.006-9.051-.09-18.1.023-27.153.18-14.311,6.69-24.836,19.7-30.8C53.635,4.078,64,5.078,73.7,11.073c8.22,5.078,13.176,12.568,15.131,22.018a36.253,36.253,0,0,1,.614,7.421q-.025,13.062-.006,26.123c0,2.354.692,3.034,3.081,3.059.6.007,1.2,0,1.8.063A4.3,4.3,0,0,1,98.2,73.865a4.2,4.2,0,0,1-3.588,4.472,74.654,74.654,0,0,1-8.738.142c-3.061.036-3.013.009-3.072,3.082-.021,1.068.27,1.372,1.348,1.354,3.9-.065,7.808-.08,11.71-.012a10.888,10.888,0,0,1,11.063,12.07,8.988,8.988,0,0,1-1.85,4.988c-.769.961-.795,1.57.251,2.212a3.3,3.3,0,0,1,.539.526l-3.8.014c-.478-.149-.586-.586-.758-.974-2.828-6.366-7.654-9.7-14.692-9.689q-7.593.012-15.187,0c-1.961,0-2.16-.2-2.168-2.115-.012-3.046.016-6.092-.013-9.137a2.816,2.816,0,0,1,1.36-2.579A25.849,25.849,0,0,0,82.2,60.284a19.644,19.644,0,0,0,.184-3.205q.009-5.019,0-10.039c0-1.018.213-1.79,1.442-1.825.654-.019.855-.47.868-1.052.009-.386-.019-.774.014-1.158.091-1.05-.362-1.443-1.42-1.435a35.254,35.254,0,0,1-5.266-.153,6.91,6.91,0,0,1-5.945-5c-.875-2.6-1.519-5.275-2.272-7.915-.8-2.8-1.565-5.62-2.376-8.422-.084-.289-.165-.578-.261-.863-.321-.95-.806-1.758-1.95-1.742-1.086.015-1.549.813-1.836,1.711-.587,1.839-1.08,3.706-1.619,5.56q-1.293,4.448-2.493,8.924c-1.521,5.672-5.18,7.866-10.56,7.908-6.177.048-12.356,0-18.533.023-.6,0-1.451-.3-1.738.432a4.491,4.491,0,0,0-.01,2.782c.09.336.451.394.745.4,1.237.039,1.428.836,1.425,1.844-.007,3.218-.023,6.435,0,9.653.069,8.9,3.931,15.844,11.066,20.981a4.27,4.27,0,0,1,2.1,4.02c-.123,3.514-.029,7.035-.042,10.553a2.537,2.537,0,0,1-.363,1.845,4.863,4.863,0,0,1-2.475.229,4.478,4.478,0,0,1-1.682-.607,14.969,14.969,0,0,0-7.44-1.692q-2.251.054-4.5,0c-.931-.023-1.3.346-1.31,1.283-.03,2.054.245,2.341,2.318,2.382a30.694,30.694,0,0,1,6.156.232c4.719,1.051,7.79,3.9,8.867,8.614,1.08,4.728-.508,8.657-4.307,11.586a10.108,10.108,0,0,1-6.337,2.182c-3.73-.028-7.461,0-11.191-.01a6.645,6.645,0,0,1-6.692-4.8c-.548-1.62-.549-1.6-2.221-1.642-.7-.018-1.477.237-2.051-.424,1.884-.392,1.884-.392,2.009-2.779" transform="translate(-1.616 -1.572)" fill="#e9c965"/>
        <path id="Trazado_212314" data-name="Trazado 212314" d="M42.378,126.526l2.569-.116c3.283,4.09,7.259,7.512,10.889,11.268,1.707,1.766,2.834,1.741,4.583.01,2.744-2.716,5.483-5.438,8.183-8.2a4.137,4.137,0,0,1,3.2-1.331c5.619.039,11.24-.014,16.858.026a11.415,11.415,0,0,1,11.561,11.63c.031,6.606.012,13.212,0,19.819,0,2.069-.2,2.266-2.3,2.267q-39.765.008-79.531.011c-1.251,0-2.306-.066-2.465-1.7-.075-.769-.825-.565-1.367-.518-.841.074-1.7.378-2.476-.226.046-.066.082-.176.14-.189.608-.139,1.477.278,1.788-.225s.14-1.308.142-1.98c.007-2.209,0-4.418-.007-6.627,1.057.354,1.611,1.346,2.476,1.957a10.245,10.245,0,0,0,5.959,2.071c3.854.018,7.708.006,11.562,0a14.868,14.868,0,0,0,14.57-12.253c1.031-5.857-1-10.582-5.4-14.416-.4-.353-.975-.6-.936-1.282" transform="translate(-3.257 -34.073)" fill="#2e2c44"/>
        <path id="Trazado_212315" data-name="Trazado 212315" d="M12.058,131.072a11.443,11.443,0,0,0,3.178-.24c.75-.1,1.3.075,1.15,1.009-.188,1.151.4,1.3,1.4,1.3q36.033-.035,72.066-.018c2.96,0,5.92-.026,8.879.017.844.012,1.1-.259,1.1-1.1-.028-7.12.051-14.242-.04-21.362a10.972,10.972,0,0,0-10.5-10.486c-6.133-.093-12.268-.013-18.4-.039a2.035,2.035,0,0,0-1.557.721q-4.489,4.52-9.005,9.012c-1.585,1.581-2.854,1.592-4.416.035q-4.875-4.863-9.736-9.738a3.387,3.387,0,0,1-1.253-2.168c.005-4.5-.015-9.008.037-13.511a1.808,1.808,0,0,0-.974-1.745A25.857,25.857,0,0,1,32.014,64.141a70.62,70.62,0,0,1-.27-9.893c-.009-.987-.066-1.979.016-2.958.1-1.179-.1-1.938-1.536-1.647-.583.118-.725-.232-.707-.753a15.782,15.782,0,0,0-.01-2.314c-.118-1.043.194-1.368,1.3-1.359,6.734.057,13.468.02,20.2.031a9.091,9.091,0,0,0,7.814-3.671,10.89,10.89,0,0,0,1.6-3.619q2.071-7.282,4.133-14.567a2.8,2.8,0,0,1,1.478-2.127c1.364-.576,2.621.183,3.116,1.932q2.326,8.211,4.632,16.428c1.1,3.912,3.311,5.6,7.357,5.62,1.458.007,2.921.072,4.373-.023,1.012-.065,1.291.308,1.167,1.233a6.19,6.19,0,0,0,0,1.285c.088,1.181.173,2.265-1.627,1.941-.854-.154-.593.654-.6,1.1-.042,3.73.091,7.47-.115,11.191a25.26,25.26,0,0,1-11.3,20.194,3.447,3.447,0,0,0-1.823,3.379c.153,3.037.083,6.089.021,9.133-.019.932.283,1.128,1.158,1.121,4.89-.04,9.787.159,14.667-.058,8.444-.378,14.391,4.307,16.616,11.086a29.976,29.976,0,0,1,.543,7.276c-.015,6.818,0,13.636-.007,20.454,0,2.218-.719,2.949-2.9,2.949q-43.225,0-86.449,0c-2.135,0-2.875-.728-2.877-2.837,0-1.2.047-2.394.074-3.591" transform="translate(-3.23 -5.68)"/>
        <path id="Trazado_212316" data-name="Trazado 212316" d="M42.383,125.68a24.957,24.957,0,0,1,4.437,4.6,15.127,15.127,0,0,1-1.194,18.342,14.564,14.564,0,0,1-11.573,5.375q-5.533-.013-11.066,0a10.816,10.816,0,0,1-8.834-4.4,10.015,10.015,0,0,1-2.019-6.5c1.155,0,2.309.026,3.462-.005.57-.016.774.136.874.755a6.449,6.449,0,0,0,6.709,5.794c3.513.044,7.029.053,10.543,0,6.313-.1,10.965-4.417,11.175-10.7a10.856,10.856,0,0,0-10.932-11.211q-2.827-.064-5.656.005c-.716.017-.93-.192-.96-.921-.143-3.486-.164-3.393,3.263-3.508,4.132-.139,8.122.223,11.77,2.382" transform="translate(-3.262 -33.227)"/>
        <path id="Trazado_212317" data-name="Trazado 212317" d="M75.906,35.773c.982,3.41,1.848,6.859,2.973,10.222a10.432,10.432,0,0,0,9.1,7.432c.528.072,1,.061.988.838-.053,4.16.166,8.337-.136,12.477a21.954,21.954,0,0,1-43.366,2.169,23.026,23.026,0,0,1-.411-4.6c0-3.218.025-6.435-.021-9.652-.012-.83.206-1.082,1.059-1.074,4.633.042,9.266.03,13.9.016a13.555,13.555,0,0,0,9.9-3.85,13.865,13.865,0,0,0,3.566-6.289c.726-2.576,1.474-5.145,2.213-7.717l.237.029" transform="translate(-12.137 -9.635)" fill="#f1dabf"/>
        <path id="Trazado_212318" data-name="Trazado 212318" d="M80.643,109.355c0,3.669-.007,7.344.009,11.02a1.305,1.305,0,0,1-.515.978c-2.548,2.546-5.111,5.077-7.629,7.653-.533.546-.817.473-1.312-.031q-3.738-3.812-7.547-7.554a1.722,1.722,0,0,1-.56-1.351c.023-3.3.014-6.6.008-9.906,0-.542-.115-1,.783-.7a25.393,25.393,0,0,0,16.405-.124,1.317,1.317,0,0,1,.357.02" transform="translate(-17.005 -29.468)" fill="#f1dabf"/>
        <path id="Trazado_212319" data-name="Trazado 212319" d="M71.942,95.408A8.222,8.222,0,0,1,63.932,88.3c-.109-.769-.055-1.27.912-1.111a2.562,2.562,0,0,0,.769,0c1.008-.142,1.535.058,1.771,1.277a4.852,4.852,0,0,0,9.427-.041c.229-1.092.673-1.286,1.659-1.253,2.095.072,2.1.02,1.587,2.042a8.218,8.218,0,0,1-8.115,6.193" transform="translate(-17.222 -23.491)"/>
        <path id="Trazado_212320" data-name="Trazado 212320" d="M88.758,66.959a3.821,3.821,0,0,1,3.816,3.835,3.888,3.888,0,0,1-3.845,3.841,3.831,3.831,0,0,1-3.79-3.871,3.776,3.776,0,0,1,3.82-3.8" transform="translate(-22.895 -18.048)"/>
        <path id="Trazado_212321" data-name="Trazado 212321" d="M62.467,70.791a3.837,3.837,0,0,1-3.822,3.842,3.908,3.908,0,0,1-3.83-3.864,3.843,3.843,0,0,1,3.852-3.81,3.786,3.786,0,0,1,3.8,3.832" transform="translate(-14.775 -18.048)"/>
        <path id="Trazado_212322" data-name="Trazado 212322" d="M90.49,71.9c-.068.4-.275.519-.55.509a.4.4,0,0,1-.438-.478c.026-.3.209-.422.506-.413.32.01.384.248.481.381" transform="translate(-24.124 -19.278)" fill="#d9c5ad"/>
        <path id="Trazado_212323" data-name="Trazado 212323" d="M59.912,71.52a.41.41,0,0,1,.448.473c-.008.317-.211.437-.494.416s-.5-.16-.471-.463a.462.462,0,0,1,.517-.426" transform="translate(-16.009 -19.278)" fill="#dac6ad"/>
      </g>
    </g>
  </g>
</svg>
