<svg xmlns="http://www.w3.org/2000/svg" xmlns:xlink="http://www.w3.org/1999/xlink" width="294" height="148" viewBox="0 0 294 148">
  <defs>
    <clipPath id="clip-path">
      <rect id="Rect치ngulo_338994" data-name="Rect치ngulo 338994" width="134.374" height="120.01" fill="none"/>
    </clipPath>
  </defs>
  <g id="Grupo_984127" data-name="Grupo 984127" transform="translate(-8420 9798)">
    <rect id="Rect치ngulo_338952" data-name="Rect치ngulo 338952" width="294" height="148" rx="14" transform="translate(8420 -9798)" fill="#a6bbff"/>
    <g id="Grupo_984126" data-name="Grupo 984126" transform="translate(8499.703 -9783.692)">
      <g id="Grupo_984125" data-name="Grupo 984125" clip-path="url(#clip-path)">
        <path id="Trazado_212324" data-name="Trazado 212324" d="M134.374,115.628c-1.156,3.248-3.509,4.4-6.88,4.381-15.658-.079-31.317-.033-46.976-.037-2.4,0-3.021-.482-3.624-2.727a2.393,2.393,0,0,1,1.587-2.669,7.269,7.269,0,0,1,3.093-.422h44.6c2.523,0,2.524,0,2.524-2.511,0-.917-.006-1.836-.007-2.754,0-.8-.348-1.218-1.174-1.221-.48,0-.962-.014-1.442-.014H8.276c-2.6,0-2.6,0-2.6,2.56,0,.875.024,1.75,0,2.623-.028.959.42,1.351,1.346,1.315.48-.018.962,0,1.442,0H56.736a7.267,7.267,0,0,1,3.093.422,2.377,2.377,0,0,1,1.58,2.667c-.62,2.251-1.236,2.729-3.626,2.729q-25.717.006-51.434,0C2.113,119.97,0,117.827,0,113.588q0-2.951,0-5.9a5.453,5.453,0,0,1,3.6-5.405c.5-.209.779-.4.852-.978,1.434-11.279,6.975-20.234,15.616-27.4a48.636,48.636,0,0,1,18.18-9.271c.048-.526-.448-.582-.728-.786-5.586-4.073-9.594-9.25-11.2-16.082-.153-.65-.517-.8-1.012-1a11.06,11.06,0,0,1-5.814-14.332,3.4,3.4,0,0,1,3.619-2.372c2.624.11,2.628.027,2.629-2.595,0-12.335,7.2-21.945,19.252-25.708C52.53-.6,60.065-.714,67.459,2.218,77.976,6.386,83.324,14.445,84.5,25.492a36.022,36.022,0,0,1,.183,3.8c0,.648.211.838.827.793.652-.046,1.311-.011,1.967-.01,2.079,0,2.777.472,3.574,2.393a11.039,11.039,0,0,1-5.9,14.192,1.942,1.942,0,0,0-1.32,1.53A27.337,27.337,0,0,1,72.961,63.744c-.316.232-.635.462-.95.7-.03.023-.038.075-.088.18,1.917.648,3.853,1.226,5.733,1.95,9.685,3.728,17.74,9.513,23.155,18.565a38.338,38.338,0,0,1,5.226,15.769c.079.728.258,1.061,1.09,1.062.916,0,.827-.512.825-1.092-.009-1.312-.033-2.624.006-3.935A2.67,2.67,0,0,1,110.9,94c1-.034,2.012-.027,3.018,0,.553.014.762-.172.76-.752q-.024-9.38-.008-18.76c0-.319.007-.664-.386-.719-1.17-.164-2.235-.75-3.547-.23a10.177,10.177,0,0,1-7.191.062c-2.143-.736-4.283-1.486-6.395-2.309a11.111,11.111,0,0,1,7.592-20.884c2.065.7,4.1,1.471,6.152,2.211a10.678,10.678,0,0,1,5.8,4.849,2.909,2.909,0,0,0,1.3,1.208q6.722,3.368,13.428,6.768c1.988,1.007,2.393,2.033,1.65,4.152-.62,1.769-1.235,3.539-1.885,5.3a2.656,2.656,0,0,1-3.479,1.914c-2.557-.54-5.1-1.138-7.771-1.737v5.6c0,4.067.03,8.134-.023,12.2-.012.929.248,1.237,1.161,1.14a13.131,13.131,0,0,1,2.1,0,2.652,2.652,0,0,1,2.774,2.827c.028.874.006,1.75.006,2.623,0,2.458,0,2.5,2.414,2.462a5.867,5.867,0,0,1,4.595,1.818,12.872,12.872,0,0,1,1.41,2.441Z" transform="translate(0 0)"/>
        <path id="Trazado_212325" data-name="Trazado 212325" d="M61.7,123.153c-.693-2.138-1.326-2.6-3.616-2.6q-25.511,0-51.022.024c-1.164,0-1.616-.236-1.525-1.489.119-1.652.058-3.321.016-4.98-.018-.711.154-1.088.936-.983a5.882,5.882,0,0,0,.787.006q60.2,0,120.406,0c1.965,0,1.685-.263,1.7,1.765.013,1.486-.09,2.98.031,4.456.1,1.209-.519,1.209-1.4,1.208q-18.362-.026-36.725-.011-5.246,0-10.493,0c-2.293,0-2.936.469-3.616,2.6l-4.969,0c-.37-.2-.473-.6-.677-.923a2.307,2.307,0,0,0-4.215.136c-.163.3-.254.649-.622.785h-5" transform="translate(-0.289 -5.909)" fill="#feca7c"/>
        <path id="Trazado_212326" data-name="Trazado 212326" d="M70.073,123.565c.693-2.161,2.032-3.022,3.719-2.4a2.993,2.993,0,0,1,1.793,2.4c-.549,2.108-1.633,2.957-3.337,2.618-1.434-.286-1.9-1.37-2.175-2.621" transform="translate(-3.661 -6.32)" fill="#010101"/>
        <path id="Trazado_212327" data-name="Trazado 212327" d="M80.956,41.663C82.168,56.54,68.331,65.749,57.369,66.018c-11.012.27-22.027-7.937-24.278-18.411-.714-3.317-.248-6.709-.369-10.066-.025-.687.455-.633.855-.708,3.451-.642,6.208-2.259,7.784-5.528.259-.536.5-.409.889-.139,6.213,4.363,13.228,5.857,20.689,5.807,5.55-.037,11.1.038,16.651-.043,1.22-.017,1.48.36,1.387,1.459s-.021,2.183-.021,3.275" transform="translate(-1.707 -1.616)" fill="#fed3bd"/>
        <path id="Trazado_212328" data-name="Trazado 212328" d="M69.4,30.364c-3.86-.128-8.41.269-12.934-.464a26.037,26.037,0,0,1-14.347-7.022c-.943-.914-1.957-1.488-3.291-.908-1.378.6-1.629,1.783-1.671,3.13-.082,2.681-1.324,4.414-3.476,4.96-.474.119-.928.279-.963-.545-.254-5.928.927-11.391,5.107-15.882a24.925,24.925,0,0,1,14.62-7.568c6.867-1.136,13.436-.243,19.33,3.715,5.873,3.945,8.521,9.754,9.162,16.6.119,1.279.753,2.952-.111,3.767-.659.622-2.321.2-3.537.208-2.4.015-4.809,0-7.89,0" transform="translate(-1.708 -0.293)" fill="#aca9ae"/>
        <path id="Trazado_212329" data-name="Trazado 212329" d="M79.535,105.722c-2.842,0-5.685-.027-8.526.018-.78.012-1.046-.262-1.181-1Q67.772,93.4,65.651,82.075a4.2,4.2,0,0,1,.21-2.413c.831-2.109,1.586-4.249,2.361-6.379.165-.452.22-.908.939-.771C78.977,74.388,87.9,78.067,95,85.364a33.543,33.543,0,0,1,9.169,19.162c.125.869,0,1.248-1.019,1.22-2.578-.071-5.16-.049-7.738-.008-.744.011-1-.209-.965-.959.053-1.31.041-2.623.007-3.934a2.733,2.733,0,0,0-2.728-2.9,2.668,2.668,0,0,0-2.549,2.911c-.027,1.267-.058,2.538.01,3.8.049.891-.289,1.1-1.129,1.084-2.841-.047-5.684-.018-8.526-.018" transform="translate(-3.425 -3.787)" fill="#52caef"/>
        <path id="Trazado_212330" data-name="Trazado 212330" d="M34.452,105.72c-2.973,0-5.947-.025-8.92.016-.794.011-1.084-.213-1.049-1.03.057-1.352.045-2.712,0-4.065a2.618,2.618,0,0,0-2.6-2.719,2.688,2.688,0,0,0-2.66,2.694c-.059,1.309-.066,2.625,0,3.933.045.88-.172,1.225-1.134,1.194-2.228-.072-4.462-.079-6.688,0-1.061.039-1.216-.285-1.049-1.263,1.626-9.545,6.491-17.134,13.984-23.1A43.942,43.942,0,0,1,44.9,72.49c.7-.116,1.092-.027,1.356.754.782,2.313,1.667,4.59,2.525,6.876a2.724,2.724,0,0,1,.1,1.525q-2.158,11.585-4.254,23.182c-.129.718-.434.914-1.126.906-3.017-.031-6.033-.013-9.051-.013" transform="translate(-0.538 -3.785)" fill="#52caef"/>
        <path id="Trazado_212331" data-name="Trazado 212331" d="M100.483,64.459c.026-4.471,3.8-7.244,7.573-6.068,2.2.686,4.381,1.479,6.522,2.341a5.807,5.807,0,0,1-3.848,10.943,66.614,66.614,0,0,1-6.768-2.423,5.381,5.381,0,0,1-3.479-4.792" transform="translate(-5.249 -3.036)" fill="#aca9ae"/>
        <path id="Trazado_212332" data-name="Trazado 212332" d="M57.92,106.311c-1.661,0-3.324-.02-4.985.01-.639.011-.953-.057-.8-.85Q54.1,95.05,55.995,84.616c.107-.585.319-.779.923-.809,2.821-.141,2.824-.163,3.338,2.59,1.176,6.306,2.331,12.617,3.541,18.917.169.882-.083,1.04-.893,1.013-1.66-.054-3.323-.016-4.984-.016" transform="translate(-2.722 -4.376)" fill="#f8f8f8"/>
        <path id="Trazado_212333" data-name="Trazado 212333" d="M123.053,72.435a13.365,13.365,0,0,0,1.531-4.2c2.99,1.511,5.889,3.007,8.822,4.435.714.348.386.76.245,1.165-.158.457-.2,1-1.028.794-3.133-.767-6.286-1.449-9.569-2.194" transform="translate(-6.429 -3.565)" fill="#afe6f6"/>
        <path id="Trazado_212334" data-name="Trazado 212334" d="M54.167,73.218a26.3,26.3,0,0,0,7.854-.059,20.59,20.59,0,0,1-1.631,4.3c-.819,1.232-2.382.309-3.594.529-.476.086-.914.055-1.118-.57-.444-1.355-.961-2.687-1.511-4.2" transform="translate(-2.83 -3.822)" fill="#c5c3c7"/>
        <path id="Trazado_212335" data-name="Trazado 212335" d="M123.262,107.409c-.957,0-1.916-.036-2.871.009-1.365.063-.77-.948-.866-1.55-.1-.646-.068-1.152.893-1.111,1.867.083,3.743.077,5.611.007,1.249-.047.835.806.876,1.406.044.636.19,1.35-.9,1.256-.906-.078-1.825-.016-2.739-.016" transform="translate(-6.242 -5.473)" fill="#aee4f5"/>
        <path id="Trazado_212336" data-name="Trazado 212336" d="M89.176,42.876c0-1.781.036-3.26-.015-4.736-.025-.716.242-.9.9-.862.59.031,1.159-.051,1.152.814a6.34,6.34,0,0,1-2.041,4.784" transform="translate(-4.658 -1.947)" fill="#f7b999"/>
        <path id="Trazado_212337" data-name="Trazado 212337" d="M27.065,42.817A6.314,6.314,0,0,1,25.279,38.2c.007-.726.345-.923,1.056-.935.875-.015.727.52.728,1.026,0,1.415,0,2.83,0,4.524" transform="translate(-1.321 -1.947)" fill="#f8ba9a"/>
      </g>
    </g>
  </g>
</svg>
