<svg id="Grupo_984307" data-name="Grupo 984307" xmlns="http://www.w3.org/2000/svg" xmlns:xlink="http://www.w3.org/1999/xlink" width="117.257" height="119.886" viewBox="0 0 117.257 119.886">
  <defs>
    <clipPath id="clip-path">
      <rect id="Rectángulo_338803" data-name="Rectángulo 338803" width="117.257" height="119.886" fill="none"/>
    </clipPath>
  </defs>
  <g id="Grupo_983787" data-name="Grupo 983787" clip-path="url(#clip-path)">
    <path id="Trazado_211158" data-name="Trazado 211158" d="M98.594,122.487a.384.384,0,0,1-.31-.219c.556-4.456-.326-8.035-2.623-10.636-3.1-3.509-8.625-5.214-16.9-5.214q-1.018,0-2.024.031c-2.98.091-5.966.212-8.955.333-5.858.238-11.914.484-17.858.484h0c-2.162,0-4.164-.031-6.119-.1l-.383-.013c-7.816-.256-16.673-.546-23.935-3.632C9.464,99.27,7.531,89.061,6.506,79.826A343.42,343.42,0,0,1,4.071,36.8c.137-6.386.737-13.724,4.134-19.688C12.087,10.3,18.872,5.958,27.307,4.889A121.3,121.3,0,0,1,42.72,4.05c4.246,0,8.557.134,12.727.264,1.871.058,3.734.116,5.584.163l.931.023c9.206.23,18.726.467,28.021,1.311,6.346.577,15.188,2.383,21.276,7.712,7.348,6.434,8.229,15.83,8.479,24.132.381,12.769-.253,25.871-.814,37.431-.121,2.5-.146,5.031-.172,7.711-.071,7.327-.145,14.9-2.306,21.538-2.84,8.725-8.843,14.832-17.839,18.151Z" transform="translate(-3.322 -3.326)" fill="#fff"/>
    <path id="Trazado_211159" data-name="Trazado 211159" d="M84.112,156.39q-2.523-6.678-3.5-6.591l-1.458.128q-1.671.953-2.46,5.232l-.214.019q-2.538-14.629-2.839-15.625-.437-4.977-2.714-4.779-1.51.133-1.916,2.05L73.4,160.483q1.183,5.737,2.375,5.633l.818-.072q2.1-.184,3.468-8.24l.409-.036q2.842,7.9,5.065,7.707l1.031-.091q.248-.022,1.136-1.353.632-7.1,3.338-28.726l-.019-.214q-.115-1.315-1.817-1.721a2.806,2.806,0,0,0-2.556,1.909l.054.621q.172,1.957-1.2,10.14-.711,10.292-1.384,10.351" transform="translate(-56.668 -109.516)"/>
    <path id="Trazado_211160" data-name="Trazado 211160" d="M212.464,154q0,1.536,1.874,1.873h.43a2.291,2.291,0,0,0,1.444-.624q1.32,0,1.874-27.5v-2.5q-.25-2.694-2.07-2.695c-.882,0-1.576.624-2.089,1.873q.216,2.159.215,2.5,0,6.175-.626,16.866h-1.053a22.416,22.416,0,0,0-4.783.624,92.435,92.435,0,0,0,.411-10.422v-8.943q-.338-2.087-1.874-2.088-2.071,0-2.071,2.285v2.713q0,10.209-1.052,26.039v.411a2.149,2.149,0,0,0,1.249,1.873h1.463a2.7,2.7,0,0,0,1.251-1.464q0-1.623.213-5.817,0-.838,6.033-1.267a24.122,24.122,0,0,1-.84,6.264" transform="translate(-166.771 -100.633)"/>
    <path id="Trazado_211161" data-name="Trazado 211161" d="M305.729,152.13v.2a6.655,6.655,0,0,0,.212,1.677l-.212,1.035q.376,2.908,2.3,2.909,1.59,0,2.071-2.285l-2.5-25.414q-.841-5.408-3.125-5.409h-.409q-1.752,0-3.123,3.749a222.38,222.38,0,0,0-6.461,28.734q.554,1.676,1.874,1.677h.838q1.464,0,1.874-5.622,0-1.249,6.461-1.25Zm-5.623-3.551,3.553-14.992h.2q1.249,11.69,1.249,14.153,0,.339-5,.839" transform="translate(-241.816 -102.514)"/>
    <path id="Trazado_211162" data-name="Trazado 211162" d="M391.73,154.826v-5q0-4.942,1.037-20.828h2.3q2.5-.2,2.5-2.071t-2.5-2.088h-.212a21.853,21.853,0,0,0-5.409.411q-6.677,0-6.676,2.713,0,1.535,1.875,1.874h.429a14.15,14.15,0,0,1,3.319-.625h.213l-1.034,20.614q.2,3.587.2,4.176l-.2,1.035q.678,2.089,1.445,2.088h.84q1.873,0,1.872-2.3" transform="translate(-314.312 -102.514)"/>
    <path id="Trazado_211163" data-name="Trazado 211163" d="M471.355,113.653q-1.017-4.372-3.337-4.372-1.588,0-1.875,1.873v.215a7.7,7.7,0,0,0,1.249,2.695,11.053,11.053,0,0,1-.2,1.677q-2.087,2.713-2.087,3.534,0,1.606,1.875,1.874h.408a6.948,6.948,0,0,0,3.963-6.461Z" transform="translate(-381.924 -89.736)"/>
    <path id="Trazado_211164" data-name="Trazado 211164" d="M497.152,150.751a7.342,7.342,0,0,1-2.035-5.844q2.749-4.857,6.242-3.905l.4.107a4.131,4.131,0,0,1,1.849,1.152q.569,2.264,1.059,2.434a3.42,3.42,0,0,0,.887.407,1.55,1.55,0,0,0,1.11-.067,2.046,2.046,0,0,0,1.113-1.436q.972-3.565-4.169-6.092l-2.206-.6-1.26-.122q-7.27,1.295-8.845,7.082-1.106,4.064,2.5,9.1,4.461,4.211,3.358,8.256l-.166.6q-1.813,2.317-2.726,2.069a1.687,1.687,0,0,1-1.27-1.752,1.927,1.927,0,0,0-1.634-1.85q-1.551-.422-2.3,1.315l-.273,1q.475,4.236,3.989,5.192l1.916.1q5.317-1.326,6.424-5.39a8.779,8.779,0,0,0-.251-6.32,27.174,27.174,0,0,0-3.709-5.431" transform="translate(-401.362 -112.321)"/>
    <path id="Trazado_211165" data-name="Trazado 211165" d="M250.341,343.275h-1.461q-1.627,0-2.09,8.548,0,14.707-3.749,17.49-2.069-1.356-2.07-8.548v-5.818a98.572,98.572,0,0,1,.626-10.62q0-1.553-1.874-1.874h-.838l-.411.2q-1.678,0-1.678,15.616a54.1,54.1,0,0,0,.429,7.086q1.426,8.12,5.621,8.121a4.952,4.952,0,0,0,3.749-2.071q1.142,1.66,2.286,1.66,1.517,0,2.087-1.874a22.354,22.354,0,0,1-.626-5v-.214q0-2.659,1.251-19.149v-1.679a2.148,2.148,0,0,0-1.251-1.873" transform="translate(-194.444 -281.206)"/>
    <path id="Trazado_211166" data-name="Trazado 211166" d="M345.405,322.516h-.626a2.963,2.963,0,0,0-1.873.625q-1.106,0-1.463,15.812v15.42q0,1.8,2.088,2.088,1.6,0,1.874-1.873V344.575h.838a17.586,17.586,0,0,0,2.284-.2q7.084-2.66,7.084-10.209a13.773,13.773,0,0,0-.837-4.783q-3.2-6.871-9.37-6.871m6.031,12.065q0,1.249-.2,1.249,0,4.124-5.425,4.8l-.41-.215q.409-9.511.41-11.458v-.821l.213-1.249v-.215q5.407,1.251,5.408,6.871Z" transform="translate(-280.376 -264.834)"/>
    <path id="Trazado_211167" data-name="Trazado 211167" d="M437.693,327.108h-.84q-2.283,0-3.338,19.167V349.4q0,1.643,1.874,2.07c1.2,0,1.9-.69,2.09-2.07v-1.464a95.786,95.786,0,0,1,2.087-18.526v-.427q0-1.607-1.872-1.874" transform="translate(-355.98 -268.605)"/>
    <path id="Trazado_211168" data-name="Trazado 211168" d="M430.086,476.193h-.43q-3.12.5-3.123,2.5,0,2.82,3.338,3.337h.214q2.909-.749,2.908-3.123v-.214q0-2.142-2.908-2.5" transform="translate(-350.247 -391.026)"/>
    <path id="Trazado_211169" data-name="Trazado 211169" d="M117.14,34.307c-.276-9.215-1.416-18.256-8.725-24.655C102.649,4.6,94.2,2.442,86.727,1.763,77.1.889,67.387.668,57.727.427,46.583.148,34.981-.561,23.894.844,15.611,1.894,8.413,6.129,4.254,13.428.834,19.428.17,26.7.024,33.464A349.4,349.4,0,0,0,2.464,76.58c1.111,10.01,3.344,20.009,13.418,24.287,7.506,3.189,16.567,3.438,24.578,3.7,10.972.361,22.012-.388,32.978-.722,10.44-.317,22.48,1.571,20.8,15.007a1.024,1.024,0,0,0,1.293.985c8.953-3.3,15.313-9.5,18.277-18.606,2.976-9.14,2.054-19.97,2.512-29.438.6-12.478,1.188-24.994.814-37.488M114.83,59.146c-.416,11.507-.783,23.083-1.64,34.566a27.134,27.134,0,0,1-16.782,23.579c.478-9.752-6.554-14.6-16.027-15.476-4.257-.394-8.725.008-12.977.132-11.557.337-23.08,1.045-34.631.161-7.74-.592-17.2-1.537-22.717-7.694C6.16,90.068,5.273,82.842,4.59,77.281A325.186,325.186,0,0,1,2.068,33.464c.155-7.193,1.043-14.411,4.922-20.635C13.128,2.981,25.187,2.457,35.574,2.3c11.058-.168,22.128.1,33.177.513,7.478.278,15.356.14,22.713,1.679,12.153,2.543,21.407,8.888,23.1,21.849,1.41,10.764.653,22,.261,32.806" transform="translate(0 0)"/>
    <path id="Trazado_211170" data-name="Trazado 211170" d="M50.85,40.991c7.133-9.447,17.765-10.805,28.827-11.068,9.4-.224,18.764-.128,28.151-.682a.288.288,0,0,0,0-.575c-10.693-1.229-21.521-1.042-32.264-.677-9.471.322-21.449,2.8-24.991,12.885-.062.176.183.243.277.117" transform="translate(-41.519 -22.758)"/>
    <path id="Trazado_211171" data-name="Trazado 211171" d="M572.113,425.082c-1.172,6.007-1.471,12.128-2.559,18.151-1.292,7.153-4.347,12.469-8.476,18.3-.069.1.067.231.165.164,10.833-7.418,11.066-24.919,11.169-36.575,0-.168-.265-.211-.3-.04" transform="translate(-460.714 -348.967)"/>
    <path id="Trazado_211172" data-name="Trazado 211172" d="M622.559,389.095a6.464,6.464,0,0,0-.379,2.379c-.033.679-.213,1.672.314,2.2a.057.057,0,0,0,.08,0c.478-.461.4-1.266.468-1.883a5.272,5.272,0,0,0-.161-2.651c-.051-.12-.253-.2-.321-.042" transform="translate(-510.856 -319.433)"/>
    <path id="Trazado_211173" data-name="Trazado 211173" d="M69,450.994c-5.777-.7-11.787-1.081-17.2-3.368-7.287-3.078-9.722-10.8-10.324-18.09a.056.056,0,0,0-.11-.015c-2.015,5.883,1.186,14.3,6.252,17.778,6.263,4.3,14.02,5.01,21.378,4.189a.248.248,0,0,0,0-.5" transform="translate(-33.469 -352.669)"/>
    <path id="Trazado_211174" data-name="Trazado 211174" d="M382.457,32.758a2.417,2.417,0,0,0,1.865-.413.2.2,0,0,0,0-.282,3.137,3.137,0,0,0-2.358-.4c-.207.008-1.345.157-1.109.611.273.525,1.1.469,1.6.482" transform="translate(-312.713 -25.968)"/>
  </g>
</svg>
