<svg id="Grupo_984306" data-name="Grupo 984306" xmlns="http://www.w3.org/2000/svg" xmlns:xlink="http://www.w3.org/1999/xlink" width="88.745" height="64.422" viewBox="0 0 88.745 64.422">
  <defs>
    <clipPath id="clip-path">
      <rect id="Rectángulo_339012" data-name="Rectángulo 339012" width="88.745" height="64.422" fill="none"/>
    </clipPath>
  </defs>
  <g id="Grupo_983763" data-name="Grupo 983763" clip-path="url(#clip-path)">
    <path id="Trazado_211202" data-name="Trazado 211202" d="M78.752,71.153c.022.041.037.064.048.08a5.194,5.194,0,0,0,1.2-.012l1.5.01,2.844.019c1.516.01,3.28.245,4.733-.3.71-.265,1.886-1.378,1.118-2.17a1.136,1.136,0,0,1-.339-.953,17.412,17.412,0,0,0-8.833-1.447,23.737,23.737,0,0,0-3.8.8l.816,2.117.481,1.249a5.083,5.083,0,0,0,.235.6" transform="translate(-25.591 -45.784)" fill="#fff"/>
    <path id="Trazado_211203" data-name="Trazado 211203" d="M210.224,102.439c.031,0,.126.013.181.017.089.006.178.009.267.011.2,0,.39-.012.586-.021l.054,0,.044-.009c.106-.019.21-.038.314-.062a5.575,5.575,0,0,0,.616-.177l.14-.052.205-.095a5.307,5.307,0,0,0,.509-.291c.067-.043.131-.089.2-.135-.046.03.132-.105.151-.122a5.2,5.2,0,0,0,.41-.4c.071-.077.136-.158.2-.238l0-.005.024-.039c.113-.177.23-.348.331-.533.05-.092.1-.186.142-.28.013-.025.021-.041.028-.052s.007-.021.014-.04a8.22,8.22,0,0,0,.274-1c0-.031.029-.166.032-.2.009-.1.014-.209.016-.313,0-.048,0-.095,0-.142a37.773,37.773,0,0,1-7.482,2.857q1.018.5,2.017,1.052c.117.065.234.132.351.2.123.029.247.055.371.076" transform="translate(-190.424 -67.854)" fill="#fff"/>
    <path id="Trazado_211204" data-name="Trazado 211204" d="M180.7,84.764c0-.025,0-.05-.007-.075a3.591,3.591,0,0,1-.126-.384q-3.592,1.257-7.079,2.8a7.65,7.65,0,0,0,3.656.707c1.54-.086,3.88-1.111,3.556-3.045" transform="translate(-145.661 -58.22)" fill="#fff"/>
    <path id="Trazado_211205" data-name="Trazado 211205" d="M139.721,72.813a3.633,3.633,0,0,1-.146-.7c-2.107.516-4.216,1.023-6.311,1.588q-2.365.637-4.691,1.39c.157,1.3,1.818,1.656,2.973,1.616a48.328,48.328,0,0,0,5.724-.824c.773-.121,2.749-.287,2.979-1.248.134-.56-.364-1.3-.528-1.825" transform="translate(-91.31 -49.802)" fill="#fff"/>
    <path id="Trazado_211206" data-name="Trazado 211206" d="M85.417,99.5a6.771,6.771,0,0,1-2.977,1.167,9.747,9.747,0,0,1-5.338-.793,6.632,6.632,0,0,1-2.235,4.286,6.885,6.885,0,0,1-1.846,1.108c3.882,2.417,7.639,5.041,11.664,7.226,8.405,4.564,21.465,9.585,29.08.994a15.327,15.327,0,0,0,2.336-3.59c.056-.118.109-.237.163-.356l.031-.067.006-.015a19.192,19.192,0,0,0-6.253-3.625c-2.607-1-5.28-1.857-7.959-2.646A126.35,126.35,0,0,0,85.417,99.5" transform="translate(-50.15 -68.713)" fill="#fff"/>
    <path id="Trazado_211207" data-name="Trazado 211207" d="M97.341,86.055a11.706,11.706,0,0,1-4.753.6L88.7,86.626l-1.8-.012a6.5,6.5,0,0,1-1.872-.122,2.437,2.437,0,0,1-1.466-1.451,3.245,3.245,0,0,1-.3.42c-1.241,1.435-3.374,1.613-5.115,1.887-1.412.222-2.915.58-4.4.705a125.409,125.409,0,0,1,12.228,3.009c4.224,1.27,8.889,2.555,12.6,5.116a33.071,33.071,0,0,1-1.228-10.123" transform="translate(-32.64 -58.728)" fill="#fff"/>
    <path id="Trazado_211208" data-name="Trazado 211208" d="M43.8,28.582c-.4-.064.066.007.317.028a16.571,16.571,0,0,0,1.757.045,19.068,19.068,0,0,0,5.357-.921,19.362,19.362,0,0,0,8.943-6.316c2.452-2.868,4.59-5.992,6.786-9.055A62.177,62.177,0,0,1,73.273,4.4c2.082-2.078,4.8-3.669,7.8-2.6,2.765.98,4.549,3.591,7.252,4.61,3.034,1.144,4.226-2.167,5.658-4.09A5.023,5.023,0,0,1,97.412.005a4.493,4.493,0,0,1,2.719.931c2.961,2.039,5.111,5.39,6.745,8.522A28.22,28.22,0,0,1,110.4,22.1a1.1,1.1,0,0,1-.5.977c-.02.018-.04.034-.061.05a1.41,1.41,0,0,1-.016.213,30.3,30.3,0,0,0,1.509,15.836c5.485,2.079,7.941,9.022,5.9,14.391C114.6,60.5,107.285,63.806,100.31,64.326A53.73,53.73,0,0,1,87.869,63.5a51,51,0,0,1-11.777-3.243c-6.4-2.7-11.354-7.269-15.908-12.4-5.113-5.764-9.958-11.825-16.55-15.989a1.063,1.063,0,0,1-.35-.312,1.113,1.113,0,0,1-.239-.6c-.064-.045-.13-.089-.193-.136a1.231,1.231,0,0,1,.944-2.238M95.444,25.37c.022.041.037.064.048.08a5.2,5.2,0,0,0,1.2-.012l1.5.01,2.844.019c1.516.01,3.28.245,4.733-.3.71-.265,1.886-1.378,1.118-2.17a1.137,1.137,0,0,1-.339-.953A17.409,17.409,0,0,0,97.711,20.6a23.734,23.734,0,0,0-3.8.8l.816,2.117.481,1.249a5.082,5.082,0,0,0,.235.6M62.083,34.585c.031,0,.126.013.181.017.089.006.178.01.266.011.2,0,.39-.012.587-.021l.054,0,.045-.009c.105-.019.21-.038.314-.062a5.617,5.617,0,0,0,.616-.177l.14-.053.205-.095A5.277,5.277,0,0,0,65,33.9c.067-.043.131-.089.2-.135-.046.03.132-.105.151-.122a5.089,5.089,0,0,0,.41-.4c.071-.077.136-.158.2-.238l0-.006.024-.039c.113-.177.23-.348.331-.533.05-.092.095-.187.142-.28l.028-.052.014-.04a8.1,8.1,0,0,0,.274-1c0-.031.029-.166.032-.2.009-.1.014-.209.017-.313,0-.047,0-.095,0-.142a37.792,37.792,0,0,1-7.482,2.857q1.018.5,2.017,1.052c.118.065.234.132.351.2.123.029.247.055.371.076m15.234-8.041c0-.025,0-.05-.007-.075a3.518,3.518,0,0,1-.126-.384q-3.592,1.257-7.079,2.8a7.65,7.65,0,0,0,3.656.707c1.54-.086,3.88-1.111,3.556-3.045m13.376-3.534a3.644,3.644,0,0,1-.146-.7c-2.107.516-4.216,1.023-6.311,1.588q-2.365.638-4.691,1.39c.157,1.3,1.818,1.656,2.973,1.616a48.264,48.264,0,0,0,5.724-.823c.773-.122,2.749-.287,2.979-1.248.134-.56-.364-1.3-.528-1.825M77.549,30.787a6.771,6.771,0,0,1-2.977,1.167,9.75,9.75,0,0,1-5.338-.793A6.632,6.632,0,0,1,67,35.447a6.885,6.885,0,0,1-1.846,1.107c3.882,2.417,7.639,5.041,11.664,7.226,8.405,4.564,21.465,9.585,29.08.994a15.334,15.334,0,0,0,2.336-3.59c.056-.118.109-.238.163-.356l.031-.067.006-.015a19.2,19.2,0,0,0-6.253-3.625c-2.608-1-5.28-1.857-7.959-2.646a126.3,126.3,0,0,0-16.672-3.689m29.434-3.46a11.706,11.706,0,0,1-4.753.6L98.338,27.9l-1.8-.012a6.5,6.5,0,0,1-1.872-.122A2.437,2.437,0,0,1,93.2,26.313a3.244,3.244,0,0,1-.3.42c-1.241,1.435-3.374,1.613-5.115,1.887-1.412.222-2.915.58-4.4.705A125.408,125.408,0,0,1,95.61,32.335c4.224,1.27,8.889,2.555,12.6,5.116a33.071,33.071,0,0,1-1.228-10.123" transform="translate(-42.282 0)" fill="#161615"/>
    <path id="Trazado_211209" data-name="Trazado 211209" d="M14.62,40.589l5.858-3.99a1.232,1.232,0,0,1,1.675.439,1.255,1.255,0,0,1-.439,1.675L15.856,42.7a1.232,1.232,0,0,1-1.676-.439,1.255,1.255,0,0,1,.439-1.675" transform="translate(62.095 -25.157)" fill="#161615"/>
    <path id="Trazado_211210" data-name="Trazado 211210" d="M2.069,80.11l6.575-2.546a1.23,1.23,0,0,1,1.507.856A1.26,1.26,0,0,1,9.3,79.926L2.72,82.472a1.229,1.229,0,0,1-1.506-.856,1.259,1.259,0,0,1,.855-1.506" transform="translate(78.193 -53.524)" fill="#161615"/>
    <path id="Trazado_211211" data-name="Trazado 211211" d="M1.84,124.748,7.3,127.339a1.231,1.231,0,0,1,.439,1.675,1.258,1.258,0,0,1-1.676.439L.6,126.863a1.23,1.23,0,0,1-.439-1.676,1.258,1.258,0,0,1,1.675-.439" transform="translate(80.842 -86.046)" fill="#161615"/>
  </g>
</svg>
