<svg xmlns="http://www.w3.org/2000/svg" xmlns:xlink="http://www.w3.org/1999/xlink" width="190" height="140" viewBox="0 0 190 140">
  <defs>
    <clipPath id="clip-path">
      <rect id="Rect치ngulo_338989" data-name="Rect치ngulo 338989" width="126.939" height="140" fill="none"/>
    </clipPath>
  </defs>
  <g id="Grupo_984113" data-name="Grupo 984113" transform="translate(-180 -404)">
    <rect id="Rect치ngulo_338945" data-name="Rect치ngulo 338945" width="190" height="140" rx="12" transform="translate(180 404)" fill="#3c3fa7"/>
    <g id="Grupo_984112" data-name="Grupo 984112" transform="translate(212 404)">
      <g id="Grupo_984111" data-name="Grupo 984111" clip-path="url(#clip-path)">
        <path id="Trazado_212234" data-name="Trazado 212234" d="M54.988,0A10.8,10.8,0,0,1,58.41,1.86a7.053,7.053,0,0,1,2.275,5.234q.026,18.523,0,37.047a3.9,3.9,0,0,1-3.054,4,3.845,3.845,0,0,1-4.645-1.916c-1.731-2.778-3.465-5.556-5.127-8.376a2.055,2.055,0,0,0-2.051-1.147q-19.139.055-38.278.019c-3.84,0-6.538-2.007-7.346-5.442a9.742,9.742,0,0,1-.176-2.167Q-.01,18.8,0,8.474C0,3.54,1.241,1.718,5.77,0Z" transform="translate(0)"/>
        <path id="Trazado_212235" data-name="Trazado 212235" d="M63.243,158.07c-4.511,0-9.021-.015-13.532,0a39.182,39.182,0,0,1-21.922-6.439q-11.962-7.753-23.925-15.507c-1.478-.958-1.838-1.732-1.18-3.163,7-15.236,16.581-28.427,30.634-37.943A25,25,0,0,1,48.028,90.3a25.608,25.608,0,0,1,14.438,4.686c.567.4.945.608,1.651.134,9.545-6.4,19.213-6.39,28.913-.369,7.984,4.955,14.221,11.747,19.81,19.178a88.911,88.911,0,0,1,11.036,18.6c.811,1.908.619,2.562-1.07,3.647-8.263,5.307-16.518,10.63-24.808,15.9a38.3,38.3,0,0,1-20.812,6c-4.647.016-9.295,0-13.942,0" transform="translate(-0.474 -18.075)"/>
        <path id="Trazado_212236" data-name="Trazado 212236" d="M119.614,28.306c1.8-.144,3.625.318,5.4-.274.673.845,1.191,1.878,2.447,2.02,1.914.137,3.826.014,5.736.064,1.589.041,2.079.441,2.467,1.985a8.351,8.351,0,0,1,.215,2.031q.007,10.445-.006,20.891a4.89,4.89,0,0,1-1.2,3.787,5.178,5.178,0,0,1-2.416.278c-10.7.007-21.4.026-32.1-.013-2.393-.009-4.761-.156-6.444,2.013a3.7,3.7,0,0,1-1.344.183,3.08,3.08,0,0,0-2.682,1.358,5.425,5.425,0,0,1-.695.839c-.659.594-1,.486-1.182-.365a3.918,3.918,0,0,1-.048-.816c.008-9.959-.032-19.917.016-29.875a3.1,3.1,0,0,1,2.839-2.54,10.191,10.191,0,0,1,1.907-.074c7.6,0,15.2-.031,22.8.024,1.664.012,3.163-.14,4.285-1.516" transform="translate(-17.572 -5.613)" fill="#e9f8f9"/>
        <path id="Trazado_212237" data-name="Trazado 212237" d="M92.7,60.4c.876-1.8,2.344-2.151,4.253-2.139,11.687.078,23.374.04,35.061.035.543,0,1.085-.054,1.628-.083a3.539,3.539,0,0,1,2.355-.453c2.087-.049,2.865-.787,2.95-2.879.052-1.271.016-2.544.016-3.816q0-8.655,0-17.31c0-2.679-.84-3.346-3.466-3.629-3.169-.341-6.34-.091-9.5-.337a2.191,2.191,0,0,1-1.967-2.234,2.253,2.253,0,0,1,2.559-1.913c3.28.032,6.56-.014,9.84.017a6.952,6.952,0,0,1,7.076,7.106q.048,11.207,0,22.413a6.9,6.9,0,0,1-7.1,7.2c-3.369.074-6.742.018-10.113.018-9.567,0-19.134.012-28.7-.019a1.831,1.831,0,0,0-1.849,1.009C94.1,66.17,92.38,68.9,90.682,71.647c-1.262,2.039-2.767,2.706-4.791,2.154-2.06-.562-3.074-1.995-3.074-4.4q-.006-18.109,0-36.217c0-4.568,2.963-7.527,7.513-7.531q12.78-.013,25.558,0c1.788,0,2.291.412,2.734,2.175-.362,1.49-1.347,1.951-2.822,1.944-8.5-.039-17-.022-25.5-.015-1.809,0-2.628.573-3.169,2.146a3.086,3.086,0,0,0-.117,1.476c-.009,7.425.04,14.85-.024,22.274-.036,4.185.2,8.358.357,12.661,1.3-1.845,2.318-3.765,3.51-5.57A6.908,6.908,0,0,1,92.7,60.4" transform="translate(-16.582 -5.134)"/>
        <path id="Trazado_212238" data-name="Trazado 212238" d="M52.169,36.308a6.719,6.719,0,0,1-.609-.885,3.115,3.115,0,0,0-3.209-1.791c-12.986.038-25.972.022-38.957.021-.5,0-1,.014-1.5-.026A2.757,2.757,0,0,1,5.149,30.8q-.043-11.413,0-22.827c.009-1.759,1.263-2.837,3.16-2.843q7.723-.026,15.447-.006,13.941.017,27.882.044a2.563,2.563,0,0,1,1.235,2.554c.059,1.865.021,3.731.022,5.6,0,7.008.016,14.016-.02,21.024,0,.69.308,1.595-.709,1.962" transform="translate(-1.027 -1.026)" fill="#e9f8f9"/>
        <path id="Trazado_212239" data-name="Trazado 212239" d="M63.815,36.31c.5-.439.282-1.025.283-1.544.014-8.788-.006-17.575.027-26.363a5.5,5.5,0,0,0-.838-3.23c.909-.014,1.817-.051,2.726-.04a2.972,2.972,0,0,1,3.245,3.21c.034,2.183.009,4.367.009,6.55,0,9.959,0,19.918-.26,30.021l-5.191-8.6" transform="translate(-12.672 -1.027)" fill="#c8eef1"/>
        <path id="Trazado_212240" data-name="Trazado 212240" d="M77.378,164.661c-9.38,0-18.761.121-28.138-.042a28.891,28.891,0,0,1-14.672-4.195c-7.442-4.549-14.723-9.361-22.449-14.305,2.354-.283,4.295-.552,6.242-.746a225.425,225.425,0,0,1,28.487-1.425c6.006.161,12.009.489,17.706,2.726a2.115,2.115,0,0,0,1.6-.019c5.742-2.254,11.793-2.561,17.845-2.706a193.8,193.8,0,0,1,24.812,1.132c.07.739-.5,1.018-.988,1.329-7.95,5.116-15.886,10.256-23.887,15.293a21.251,21.251,0,0,1-6.556,2.959" transform="translate(-2.427 -28.813)" fill="#e659a9"/>
        <path id="Trazado_212241" data-name="Trazado 212241" d="M13.7,126.006c6.461-10.583,14.024-20.183,24.7-26.854,8.929-5.579,17.453-4.953,25.751,1.617,1.127.893,1.929.856,3.156-.167a20.059,20.059,0,0,1,9.838-4.665A20.9,20.9,0,0,1,83,99.315a76.637,76.637,0,0,1,11.188,10.532,106.664,106.664,0,0,1,9.8,13.064c.347.529.977,1.04.477,1.815-6.621-2.634-13.3-5.134-19.841-7.962a12.823,12.823,0,0,0-9.593-.6c-7.334,2.275-14.75,1.44-22-.912-1.849-.6-2.612-.265-3.291,1.466-.353.74-1.051.624-1.665.629-2.59.026-5.183.069-7.771-.007a13.99,13.99,0,0,0-5.836,1.138c-6.133,2.534-12.3,4.989-18.462,7.447a7.143,7.143,0,0,1-1.409.5c-.369.063-.844.221-.9-.428" transform="translate(-2.744 -19.095)" fill="#e659a9"/>
        <path id="Trazado_212242" data-name="Trazado 212242" d="M52.016,123.4a3.4,3.4,0,0,0,1.944,1.381c8.949,2.914,17.92,3.362,26.927.278a1.88,1.88,0,0,1,1.423-.009q13.7,5.522,27.426,11.006a8.066,8.066,0,0,1,.745.447,62.948,62.948,0,0,1-7.873-.378c-9.471-.528-18.934-.84-28.35.7a33.585,33.585,0,0,0-4.9,1.152,4.856,4.856,0,0,1-3.123-.019c-5.4-1.651-10.992-2.042-16.6-2.2-8.342-.234-16.66.262-25.026.847q4.509-1.809,9.018-3.619,5.75-2.311,11.5-4.628c1.766-.717,2-1.107,1.9-2.973a10.466,10.466,0,0,1,5-1.982" transform="translate(-4.928 -24.708)" fill="#fefefe"/>
        <path id="Trazado_212243" data-name="Trazado 212243" d="M120.357,124.735a2.628,2.628,0,0,0-.641-1.465,106.539,106.539,0,0,0-10.028-13.326A69.521,69.521,0,0,0,97.054,98.456c-1.314-.878-2.681-1.676-4.024-2.511A17.826,17.826,0,0,1,105,97.183a43.7,43.7,0,0,1,12.6,8.78,96.774,96.774,0,0,1,18.226,24.083c.15.275.282.561.617,1.231l-16.087-6.542" transform="translate(-18.628 -19.103)" fill="#df3d9b"/>
        <path id="Trazado_212244" data-name="Trazado 212244" d="M93.717,164.958c2.45-1.368,5.093-2.341,7.455-3.908,4.606-3.054,9.3-5.971,13.963-8.945q4.469-2.853,8.941-5.7a3.612,3.612,0,0,0,1.071-1.029l9.253.921c-.2.64-.681.752-1.036.981q-9.453,6.091-18.924,12.156a34.725,34.725,0,0,1-20.723,5.524" transform="translate(-18.765 -29.109)" fill="#df3d9b"/>
        <path id="Trazado_212245" data-name="Trazado 212245" d="M49.1,123.131l-5,1.982c-1.155-1.389-1.738-1.522-3.557-.792L11.25,136.078c-.328.132-.657.261-1.216.482a35.982,35.982,0,0,1,2.934-5.207c.361.46.721.154,1.09.006q9.949-4.016,19.9-8.022a12.419,12.419,0,0,1,5.016-1.027c2.815.078,5.634.022,8.451.02a2.609,2.609,0,0,0,1.584-.26l.086,1.062" transform="translate(-2.009 -24.442)" fill="#df3d9b"/>
        <path id="Trazado_212246" data-name="Trazado 212246" d="M136.8,30.817c3.461-.011,6.923-.051,10.384-.023a2.832,2.832,0,0,1,3.021,2.994q.036,11.276,0,22.551a2.757,2.757,0,0,1-2.762,2.945c-.993.066-2-.023-2.994-.042a10.235,10.235,0,0,0,.841-4.369c-.046-6.7-.019-13.393-.019-20.089,0-.274.006-.547,0-.82-.071-2.482-.512-2.867-2.925-2.938-1.847-.054-3.713.3-5.543-.209" transform="translate(-27.392 -6.164)" fill="#c8eef1"/>
        <path id="Trazado_212247" data-name="Trazado 212247" d="M93.715,61.965l-5.5,9.138-.287-.1V64.932q0-14.942.006-29.884c0-.529-.152-1.1.226-1.579V64.675c1.338-2.091,3.036-3.23,5.559-2.71" transform="translate(-17.601 -6.702)" fill="#c8eef1"/>
        <path id="Trazado_212248" data-name="Trazado 212248" d="M120.416,50.545a2.1,2.1,0,0,1-2.083-2.093,2.049,2.049,0,0,1,4.092-.07,2.11,2.11,0,0,1-2.009,2.163" transform="translate(-23.694 -9.303)" fill="#030303"/>
        <path id="Trazado_212249" data-name="Trazado 212249" d="M107.977,46.465a2.05,2.05,0,0,1,2.083,2.065,2.151,2.151,0,0,1-2.035,2.015,2.058,2.058,0,0,1-2.042-2.1,1.972,1.972,0,0,1,1.994-1.975" transform="translate(-21.221 -9.304)" fill="#020202"/>
        <path id="Trazado_212250" data-name="Trazado 212250" d="M134.786,48.459a2.063,2.063,0,0,1-2.063,2.087,2.146,2.146,0,0,1-2.014-2.035,2.053,2.053,0,0,1,2.1-2.047,1.975,1.975,0,0,1,1.979,1.994" transform="translate(-26.172 -9.304)" fill="#020202"/>
        <path id="Trazado_212251" data-name="Trazado 212251" d="M24.943,20.859a2.048,2.048,0,1,1,.019,4.1,2.048,2.048,0,0,1-.019-4.1" transform="translate(-4.59 -4.177)" fill="#020202"/>
        <path id="Trazado_212252" data-name="Trazado 212252" d="M37.328,20.858a2.048,2.048,0,0,1,.009,4.1,2.048,2.048,0,1,1-.009-4.1" transform="translate(-7.064 -4.176)" fill="#020202"/>
        <path id="Trazado_212253" data-name="Trazado 212253" d="M49.708,24.955a2.046,2.046,0,1,1,.031-4.092,2.046,2.046,0,0,1-.031,4.092" transform="translate(-9.546 -4.177)" fill="#010101"/>
      </g>
    </g>
  </g>
</svg>
