<svg xmlns="http://www.w3.org/2000/svg" xmlns:xlink="http://www.w3.org/1999/xlink" width="172" height="191" viewBox="0 0 172 191">
  <defs>
    <clipPath id="clip-path">
      <rect id="Rect치ngulo_338995" data-name="Rect치ngulo 338995" width="127.543" height="138.408" fill="none"/>
    </clipPath>
  </defs>
  <g id="Grupo_984135" data-name="Grupo 984135" transform="translate(-638 -3375)">
    <rect id="Rect치ngulo_338966" data-name="Rect치ngulo 338966" width="172" height="191" rx="11" transform="translate(638 3375)" fill="#ffdfe0"/>
    <g id="Grupo_984134" data-name="Grupo 984134" transform="translate(659.977 3401.656)">
      <g id="Grupo_984133" data-name="Grupo 984133" clip-path="url(#clip-path)">
        <path id="Trazado_212338" data-name="Trazado 212338" d="M134.695,22.824q0,.577,0,1.155c-.052.127-.121.142-.209.032V22.85a.479.479,0,0,0,.206-.026" transform="translate(-28.021 -4.755)" fill="#696969"/>
        <path id="Trazado_212339" data-name="Trazado 212339" d="M13.243,138.408a2.821,2.821,0,0,1-1.321-2.988c.5-2.965-.541-4.759-3.27-6.381a16.868,16.868,0,0,1-8.53-12.484,15.839,15.839,0,0,1,1.328-8.282,60.33,60.33,0,0,0,3.478-9.605,30.963,30.963,0,0,0,.7-7.369,32.341,32.341,0,0,1,3.74-16.234,29.158,29.158,0,0,0,3.358-14.41c-.074-5.392.524-10.69,2.925-15.626a40.01,40.01,0,0,1,2.143-3.89,27.993,27.993,0,0,0,4.071-11.6A30.1,30.1,0,0,1,31.1,11.263,39.107,39.107,0,0,1,53.128.2a13.626,13.626,0,0,1,9.125,1.571,2.459,2.459,0,0,0,2.675.173c3.9-2.359,8.081-2.3,12.279-1.273A39.554,39.554,0,0,1,99.731,15.011a28.963,28.963,0,0,1,5.892,14.133,28.065,28.065,0,0,0,4.08,11.868,31.947,31.947,0,0,1,5.088,18.565,32.439,32.439,0,0,0,3.778,16.349,28.381,28.381,0,0,1,3.3,14.563c-.206,6.093,1.438,11.716,3.96,17.165,2.136,4.615,2.4,9.273.05,13.9a20.474,20.474,0,0,1-8.548,8.561c-1.287.723-1.97,1.495-1.725,3.012.12.747-.03,1.532.032,2.293a3,3,0,0,1-1.343,2.99h-1.351a2.151,2.151,0,0,1-1.693-2.038c-.083-5.4-.025-10.807-.032-16.21a13.144,13.144,0,0,0-.685-4.11c-.27-.825-.636-1.145-1.425-.45-2.736,2.408-5.587,4.683-8.251,7.176a6.646,6.646,0,0,0-2.126,5.07c-.021,2.836.046,5.673-.033,8.509a2.156,2.156,0,0,1-1.7,2.052H95.654a2.094,2.094,0,0,1-1.633-1.922,83.686,83.686,0,0,1,.153-10.767,11.092,11.092,0,0,1,3.954-7c2.472-2.22,5.009-4.371,7.58-6.479,1.168-.956,1.151-1.316-.194-1.993-2.779-1.4-5.808-2.152-8.7-3.273-1.339-.519-2.74-.88-4.058-1.459a1.53,1.53,0,0,0-2.095.555,36.6,36.6,0,0,1-3.38,4.021c-1.273,1.253-2.209,1.252-3.663.118a2.6,2.6,0,0,1,.215-3.239c.616-.828,1.307-1.6,1.958-2.4.886-1.091.862-1.151-.407-1.61-1.182-.427-2.378-.823-3.539-1.3-4.36-1.772-6.989-4.891-7.366-9.706.006-1.937-.048-3.874-.019-5.81.014-.948-.359-1.223-1.239-.886a25.98,25.98,0,0,1-9.144,1.53,27.574,27.574,0,0,1-9.436-1.408c-1.446-.509-1.55-.411-1.558,1.087-.01,1.8-.029,3.6-.027,5.4-.371,4.936-3.068,8.107-7.569,9.856-1.213.472-2.43.949-3.676,1.327-.8.241-.91.6-.374,1.231,1.218,1.441,2.373,2.944,3.686,4.295,3.447,3.542,6.872,7.115,10.973,9.94a55.789,55.789,0,0,0,6.321,3.862,2.689,2.689,0,0,0,2.671.009,54.319,54.319,0,0,0,12.168-8.625c1.668-1.527,2.475-1.686,4.014-.7,1.009,1.442,1.015,2.276-.158,3.456a52.653,52.653,0,0,1-15.9,10.977,3.363,3.363,0,0,1-2.867.007,55.54,55.54,0,0,1-14.4-9.417,90.871,90.871,0,0,1-11.122-12.1,1.439,1.439,0,0,0-1.866-.542c-3.914,1.48-7.913,2.728-11.812,4.245-2.656,1.034-2.65,1.26-.437,3.1,2.141,1.785,4.22,3.646,6.362,5.432a12.264,12.264,0,0,1,4.72,9.335,80.263,80.263,0,0,1-.057,8.9,2.4,2.4,0,0,1-1.578,1.944H30.806a2.022,2.022,0,0,1-1.689-1.774c-.087-2.516-.078-5.033-.026-7.548a8.89,8.89,0,0,0-3.63-7.7c-2.375-1.841-4.6-3.884-6.871-5.854-.932-.807-1.145-.75-1.556.422a12.743,12.743,0,0,0-.719,4.23c0,5.392.055,10.785-.025,16.177a2.154,2.154,0,0,1-1.7,2.047Z" transform="translate(0 0)"/>
        <path id="Trazado_212340" data-name="Trazado 212340" d="M101.288,65.806a24.68,24.68,0,0,1-5.964,15.418A25.553,25.553,0,0,1,75.7,90.745a30.544,30.544,0,0,1-3.093-.2,23.872,23.872,0,0,1-8.893-5.938,27.176,27.176,0,0,1-8.04-16.977c-.553-5.985-.544-11.95,2.658-17.443,2.109-3.619,4.769-6.34,9.009-7.337a29.834,29.834,0,0,0,7.039-2.3A1.914,1.914,0,0,1,76.2,40.54a35.594,35.594,0,0,0,7.3,2.384,12.2,12.2,0,0,1,7.521,5.311,42.836,42.836,0,0,0,9.569,10.719,1.91,1.91,0,0,1,.8,1.737c-.092,1.7.112,3.413-.105,5.115" transform="translate(-11.543 -8.4)" fill="#cc906e"/>
        <path id="Trazado_212341" data-name="Trazado 212341" d="M109.792,136.964c-4.1-1.579-8.274-2.959-12.4-4.466-.674-.246-.975.056-1.332.5-1.122,1.405-2.251,2.806-3.4,4.185-1.213,1.451-2.054,1.529-3.549.388a4.6,4.6,0,0,0-2.758,3.186c1.009,1.366.979,2.193-.2,3.283a56.075,56.075,0,0,1-15.636,10.671,3.12,3.12,0,0,1-2.7.078,50.561,50.561,0,0,1-10.735-6.416,82.994,82.994,0,0,1-14.763-15.14,1.463,1.463,0,0,0-2-.563c-3.66,1.361-7.367,2.6-11.042,3.918a9.533,9.533,0,0,0-3.766,2.076c3.03,2.6,6,5.142,8.968,7.692a11.088,11.088,0,0,1,4.171,7.865c.23,3.285-.031,6.571.155,9.851A4.254,4.254,0,0,1,37.469,166h63.5a3.433,3.433,0,0,1-1.374-1.9c.012-2.833.04-5.666.032-8.5a11.447,11.447,0,0,1,4.24-9.213c2.2-1.856,4.375-3.74,6.56-5.614,2.774-2.383,2.809-2.478-.633-3.8" transform="translate(-5.312 -27.587)" fill="#b3e59f"/>
        <path id="Trazado_212342" data-name="Trazado 212342" d="M24.846,75.83a2.242,2.242,0,0,0,1.585-1.989c.248-5.276,3.028-8.925,7.324-11.648,1.018-.645,1.978-1.385,2.964-2.081a1.654,1.654,0,0,1,.413,1.37c.025,1.522-.021,3.045.143,4.561-1.985.006-2.713.66-2.656,2.651.268,9.3,3.77,17.085,10.914,23.146a6.648,6.648,0,0,0,1.453,1.191c2.428,1.042,3.125,2.844,2.8,5.365a39.752,39.752,0,0,0-.04,4.858c-.017,3.66-1.437,5.729-4.968,7-5.24,1.886-10.522,3.655-15.751,5.568-3.028,1.108-6.214,1.843-8.98,3.606-4.72,3.008-6.859,7.447-7.066,12.912-.081,2.14-.013,4.286-.013,6.663-4.51-3.091-7.981-6.541-7.832-12.279a14.28,14.28,0,0,1,1.444-5.162c1.615-3.807,3.246-7.613,3.794-11.755.235-1.776.294-3.576.432-5.365,2.444-4.979,5.878-9.345,8.714-14.083a31.167,31.167,0,0,0,4.754-12.905,2.672,2.672,0,0,1,.571-1.624" transform="translate(-1.069 -12.524)" fill="#5a4650"/>
        <path id="Trazado_212343" data-name="Trazado 212343" d="M138.544,104.864c-.038,6.212,1.818,11.953,4.4,17.5,3.511,7.559-.815,13.613-6.559,16.834,0-2.2.041-4.288-.009-6.376a15.346,15.346,0,0,0-4.972-11.415,16.236,16.236,0,0,0-5.686-3.286c-6.9-2.446-13.8-4.924-20.734-7.271-3.561-1.2-5.645-3.764-5.411-7.543.139-2.244.077-4.5,0-6.754a1.988,1.988,0,0,1,1.071-1.955,30.014,30.014,0,0,0,11.176-12.686,30.908,30.908,0,0,0,2.912-12.643c.055-2.293.009-4.589.009-7.143,3.23,2.1,6.13,4.19,7.337,7.9a17.385,17.385,0,0,1,.785,3.82,2.574,2.574,0,0,0,1.646,2.4,1.923,1.923,0,0,1,.506,1.225c.522,5.876,3.218,10.854,6.315,15.707,2.461,3.857,5.245,7.521,7.217,11.682" transform="translate(-20.742 -12.945)" fill="#64505a"/>
        <path id="Trazado_212344" data-name="Trazado 212344" d="M26.318,64.38a32.526,32.526,0,0,1-4.944,14.574c-2.691,4.438-5.858,8.574-8.269,13.186a1.847,1.847,0,0,1-.826.853,28.274,28.274,0,0,1,3.493-15.562A32.146,32.146,0,0,0,19.3,61.545a30.091,30.091,0,0,1,4.942-18.036c.5-.743.854-1.582,1.284-2.372,2.018-3.71,2.513-7.829,3.249-11.9a26.026,26.026,0,0,1,8.736-14.974,36.374,36.374,0,0,1,16.823-8.68c3.117-.672,6.15-.723,8.986,1.057a6.378,6.378,0,0,0,3.524.723c-.183,2.4-.1,4.807-.122,7.211a2.259,2.259,0,0,1-.406,1.645,2.207,2.207,0,0,0-1.972,2.464c.022,1.256-.131,2.514-.12,3.771a3.355,3.355,0,0,1-1.809,3.079c-2.035,1.252-4.365,1.661-6.608,2.236a18.3,18.3,0,0,0-11.462,7.955c-3.459,5.526-8.2,9.592-13.445,13.233-4.495,3.119-6.542,7.616-7,12.938-.136,1.6.664,2.375,2.415,2.483" transform="translate(-2.541 -1.074)" fill="#64505a"/>
        <path id="Trazado_212345" data-name="Trazado 212345" d="M80.554,16.21c0-2.487.009-4.973-.011-7.46a1.435,1.435,0,0,1,.54-1.4,4.812,4.812,0,0,0,2.2-.6c3.264-2.12,6.792-1.94,10.276-.98,8.971,2.472,16.412,7.195,21.432,15.252a24.262,24.262,0,0,1,3.448,10.255,34.806,34.806,0,0,0,5.4,14.376,23.164,23.164,0,0,1,3.479,11.874c.3,1.168-.067,2.377.2,3.547.154,3.147-.04,6.318.866,9.406a43.629,43.629,0,0,0,2.8,7.334,27.415,27.415,0,0,1,3.2,10.9c.076,1.418.195,2.837.192,4.262-1.318-.982-1.671-2.608-2.549-3.89-2.249-3.282-4.331-6.679-6.444-10.053a28.917,28.917,0,0,1-4.793-13.09c-.042-.53-.165-1.054-.251-1.58,2.061-.232,2.6-1.156,2.324-3.191a18.224,18.224,0,0,0-3.077-8.5c-1.911-2.645-4.62-4.376-7.211-6.223a30.265,30.265,0,0,1-8.692-8.912c-3.539-5.884-8.8-9.17-15.421-10.515a12.79,12.79,0,0,1-3.9-1.424,3.461,3.461,0,0,1-1.937-3.283c.025-1.21-.122-2.424-.1-3.634a2.242,2.242,0,0,0-1.973-2.475" transform="translate(-16.781 -1.061)" fill="#6e5a64"/>
        <path id="Trazado_212346" data-name="Trazado 212346" d="M94.379,133.366a16.021,16.021,0,0,0-2.757,3.186c-1.191-.824-2.184-.416-3.134.465a60.751,60.751,0,0,1-9.5,7.29c-4.382,2.692-4.843,2.688-9.224.015-7.483-4.565-13.419-10.764-18.955-17.66,1.835-.659,3.564-1.248,5.27-1.9a10.624,10.624,0,0,0,7.248-9.2,7.769,7.769,0,0,0,.083-2.005c.024-1.46.086-1.554,1.544-1.142a38.005,38.005,0,0,0,5.783,1.211,29.932,29.932,0,0,0,11.72-.868c2.807-.78,2.8-.811,2.837,2.012a1.855,1.855,0,0,0,.088.795,10.624,10.624,0,0,0,7.235,9.192c1.7.652,3.43,1.233,5.27,1.89-1.1,1.341-2.068,2.569-3.087,3.753a2.432,2.432,0,0,0-.424,2.965" transform="translate(-10.586 -23.378)" fill="#b57f5f"/>
        <path id="Trazado_212347" data-name="Trazado 212347" d="M45.583,60.574a1.344,1.344,0,0,1-.576-1.377c.03-1.518.016-3.035.02-4.554a40.591,40.591,0,0,0,9.353-10.55c2.677-4.115,6.783-6,11.411-7.013a15.9,15.9,0,0,0,6.746-2.921c.329-.264.648-.458,1.072-.105,2.776,2.3,6.26,2.855,9.575,3.779a15.324,15.324,0,0,1,8.628,6.11c2.157,3.051,4.181,6.2,7.046,8.672a1.164,1.164,0,0,1,.454.933c-.023,3.512-.035,7.024-.058,10.535a1.274,1.274,0,0,1-.131.378,21.1,21.1,0,0,1-.006-3.634c.294-1.794-.628-2.809-1.854-3.8a34.735,34.735,0,0,1-7.411-8.1c-1.661-2.566-3.373-5.156-6.436-6.266-1.849-.671-3.75-1.214-5.652-1.719a15.741,15.741,0,0,1-3.648-1.346,1.668,1.668,0,0,0-1.776-.081,27.178,27.178,0,0,1-7.254,2.395c-3.888.926-6.447,3.359-8.351,6.67a24.294,24.294,0,0,0-3.1,12.492A33.307,33.307,0,0,0,56.15,74.831,28.791,28.791,0,0,0,60.473,81.6c2.762,3.295,6.315,5.5,9.969,7.6a25.532,25.532,0,0,1-19.2-11.752A26.091,26.091,0,0,1,47,63.057c-.021-1.116-.242-2.054-1.414-2.483" transform="translate(-9.377 -7.055)" fill="#b57e5f"/>
        <path id="Trazado_212348" data-name="Trazado 212348" d="M33.255,166.785c-.013-1.8-.036-3.6-.037-5.4,0-7.083,0-7.081-5.411-11.69-2.152-1.834-4.3-3.678-6.488-5.555a10.736,10.736,0,0,0-1.5,5.386c-.021,5.673.006,11.346.014,17.019a2.856,2.856,0,0,1-1.4,1.9H34.646c-.6-.439-1.275-.811-1.392-1.655" transform="translate(-3.841 -30.031)" fill="#b3e59f"/>
        <path id="Trazado_212349" data-name="Trazado 212349" d="M137.077,166.582c.007-5.714.043-11.429,0-17.142a9.058,9.058,0,0,0-1.484-5.116c-3.217,2.775-6.359,5.463-9.474,8.182a6.494,6.494,0,0,0-2.209,5.033c-.032,3.015.007,6.029.017,9.044a2.894,2.894,0,0,1-1.395,1.9h15.941a2.869,2.869,0,0,1-1.4-1.9" transform="translate(-25.53 -30.07)" fill="#b3e59f"/>
        <path id="Trazado_212350" data-name="Trazado 212350" d="M88.679,114.428c-.539-.954,0-2.035-.34-3.012-11.046,2.331-10.5,2.391-21.375,0-.344.978.2,2.058-.34,3.011.006-2.3.041-4.592,0-6.887-.013-.789.225-.937.923-.669a27.829,27.829,0,0,0,9.5,1.76,27.164,27.164,0,0,0,10.2-1.6c1.218-.458,1.506-.238,1.447,1.048-.1,2.111-.016,4.23-.01,6.346" transform="translate(-13.881 -22.241)" fill="#9f6d50"/>
        <path id="Trazado_212351" data-name="Trazado 212351" d="M139.818,74.883c-.481-1.158-.131-2.365-.2-3.547a10.206,10.206,0,0,1,.2,3.547" transform="translate(-29.077 -14.863)" fill="#64505a"/>
        <path id="Trazado_212352" data-name="Trazado 212352" d="M78.357,88.328a11.521,11.521,0,0,1-7.5-2.359,2.085,2.085,0,0,1-.639-2.94,2.038,2.038,0,0,1,2.981-.316,8.973,8.973,0,0,0,10.223.021A2.048,2.048,0,0,1,86.409,83a2.076,2.076,0,0,1-.593,2.946,11.415,11.415,0,0,1-7.46,2.381" transform="translate(-14.553 -17.131)"/>
        <path id="Trazado_212353" data-name="Trazado 212353" d="M62.978,58.738c-.764,0-1.533.048-2.292-.012A1.812,1.812,0,0,1,58.9,56.872a1.751,1.751,0,0,1,1.462-1.983,15.011,15.011,0,0,1,5.356,0,1.741,1.741,0,0,1,1.434,2.112,1.773,1.773,0,0,1-1.752,1.72c-.8.066-1.617.013-2.426.013" transform="translate(-12.272 -11.386)" fill="#010100"/>
        <path id="Trazado_212354" data-name="Trazado 212354" d="M95.827,58.738c-.764,0-1.533.052-2.292-.011a1.777,1.777,0,0,1-1.759-1.713A1.741,1.741,0,0,1,93.2,54.9a14.993,14.993,0,0,1,5.356-.008,1.752,1.752,0,0,1,1.471,1.977,1.809,1.809,0,0,1-1.774,1.86c-.8.064-1.617.012-2.426.013" transform="translate(-19.118 -11.386)" fill="#010100"/>
        <path id="Trazado_212355" data-name="Trazado 212355" d="M65.6,66.048c0,2.217-.6,3.13-2.056,3.1-1.386-.026-2-.967-2-3.069,0-.18-.006-.359,0-.539.064-1.609.788-2.507,2.033-2.522s1.979.892,2.02,2.488c0,.18,0,.359,0,.539" transform="translate(-12.822 -13.13)" fill="#010101"/>
        <path id="Trazado_212356" data-name="Trazado 212356" d="M94.459,66.062c-.015-2.088.618-3.047,1.99-3.041s2.052,1,2.046,3.048a8.422,8.422,0,0,1-.063,1.208,1.9,1.9,0,0,1-2.055,1.87c-1.127-.02-1.807-.737-1.913-2.007-.03-.357,0-.719,0-1.078" transform="translate(-19.678 -13.13)" fill="#010101"/>
      </g>
    </g>
  </g>
</svg>
