<svg xmlns="http://www.w3.org/2000/svg" xmlns:xlink="http://www.w3.org/1999/xlink" width="172" height="186" viewBox="0 0 172 186">
  <defs>
    <clipPath id="clip-path">
      <rect id="Rect치ngulo_338996" data-name="Rect치ngulo 338996" width="132.849" height="133.549" fill="none"/>
    </clipPath>
  </defs>
  <g id="Grupo_984138" data-name="Grupo 984138" transform="translate(-7971 8325)">
    <rect id="Rect치ngulo_338971" data-name="Rect치ngulo 338971" width="172" height="186" rx="11" transform="translate(7971 -8325)" fill="#ffdfe0"/>
    <g id="Grupo_984137" data-name="Grupo 984137" transform="translate(7990.276 -8298.653)">
      <g id="Grupo_984136" data-name="Grupo 984136" clip-path="url(#clip-path)">
        <path id="Trazado_212357" data-name="Trazado 212357" d="M10.792,0a61.192,61.192,0,0,0,9.335,2.579,110.774,110.774,0,0,0,24.3,2.6c3.738.006,7.476-.022,11.214.006a26.08,26.08,0,0,1,25.8,28.125c-.289,3.723-1.569,7.188-2.805,10.658a2.042,2.042,0,0,0,.5,2.477,7.925,7.925,0,0,1,1.792,8.79,8.164,8.164,0,0,1-7.14,5.474c-.8.093-.968.343-1.042,1.055a31.786,31.786,0,0,1-9.758,20.045c-.049.048-.055.142-.088.233.3.249.657.115.979.116,6.911.01,13.822-.016,20.732.033.994.007,1.227-.258,1.211-1.225-.059-3.693-.034-7.389-.019-11.083.013-3.162,1.649-4.82,4.828-4.829,7.171-.022,14.343.005,21.514-.017a5.308,5.308,0,0,1,4.058,1.709c2.144,2.219,4.341,4.387,6.54,6.552a4.917,4.917,0,0,1,1.552,3.715c-.025,10.17-.007,20.34-.017,30.511,0,2.888-1.739,4.6-4.64,4.6q-14.6.009-29.208,0c-2.883,0-4.591-1.712-4.621-4.628-.025-2.39-.037-4.781.011-7.171.016-.787-.183-1.056-1.008-1.035-2.172.058-4.347.052-6.519,0-.874-.019-1.113.1-.81,1.063,1.736,5.494,3.271,11.054,5.119,16.508a15.061,15.061,0,0,1-1.08,12.9c-1.151,2.039-1.068,2.093-3.286,1.363a13.1,13.1,0,0,1-9.082-9.23,1.42,1.42,0,0,0-1.723-1.214c-2.084.083-4.173.064-6.258.007-.827-.022-1.1.174-1.09,1.057.055,3.563,0,7.128.038,10.691.008.786-.106,1.109-1.026,1.106q-16.1-.056-32.207-.005c-.8,0-1.008-.181-1.005-1,.031-11.126.007-22.253.034-33.38a12.407,12.407,0,0,1,3.945-9.058c.3-.293.641-.536,1.115-.928a32.419,32.419,0,0,1-10.393-5.72A31.606,31.606,0,0,1,8.969,61.651c-.064-.634-.215-.846-.9-.919A8.168,8.168,0,0,1,.666,54.894a8.1,8.1,0,0,1,2.515-9.085,1.361,1.361,0,0,0,.435-1.568c-1.181-5.156-2.3-10.326-3.487-15.48-.244-1.062-.264-1.72,1.079-1.971,1.265-.236,2.447-.889,3.706-1.185,1.016-.239.934-.669.618-1.433-1.238-3-2.4-6.036-3.653-9.033-.315-.753-.171-.937.6-1.08,3.07-.566,6.125-1.218,9.192-1.8.714-.136,1.011-.29.822-1.162C11.7,7.409,11,3.7,10.27,0Z" transform="translate(0)"/>
        <path id="Trazado_212358" data-name="Trazado 212358" d="M138.088,18.345q9.322,0,18.646,0c3.265,0,4.905,1.634,4.907,4.861q0,12.256,0,24.512c0,3.127-1.7,4.846-4.812,4.853-3.912.009-7.824.021-11.735-.014-.771-.007-1.156.144-1.3,1a36.978,36.978,0,0,1-.938,3.784,4.859,4.859,0,0,1-9.465.053,35.3,35.3,0,0,1-.94-3.784c-.155-.9-.581-1.058-1.4-1.05-3.868.04-7.736.023-11.6.016-3.153-.005-4.852-1.67-4.858-4.8q-.019-12.321,0-24.643c.005-3.165,1.649-4.774,4.852-4.778q9.323-.013,18.646,0" transform="translate(-28.795 -4.61)"/>
        <path id="Trazado_212359" data-name="Trazado 212359" d="M156.744,161.225c2.13,0,2.13,0,2.13,2.179,0,2.064,0,2.064-2.114,2.064-2.209,0-2.209,0-2.209-2.242,0-2,0-2,2.192-2" transform="translate(-38.84 -40.517)" fill="#020202"/>
        <path id="Trazado_212360" data-name="Trazado 212360" d="M122.518,165.468c-2.218,0-2.218,0-2.218-2.218,0-2.022,0-2.022,2.024-2.022,2.226,0,2.226,0,2.226,2.22,0,2.021,0,2.021-2.033,2.021" transform="translate(-30.232 -40.518)"/>
        <path id="Trazado_212361" data-name="Trazado 212361" d="M135.989,163.356c0,2.111,0,2.111-2.063,2.111-2.178,0-2.178,0-2.178-2.129,0-2.112,0-2.112,2.065-2.112,2.176,0,2.176,0,2.176,2.129" transform="translate(-33.109 -40.518)"/>
        <path id="Trazado_212362" data-name="Trazado 212362" d="M147.439,163.365c0,2.1,0,2.1-2.05,2.1-2.219,0-2.219,0-2.219-2.2,0-2.039,0-2.039,2-2.039h.13c2.144,0,2.144,0,2.144,2.139" transform="translate(-35.98 -40.517)"/>
        <path id="Trazado_212363" data-name="Trazado 212363" d="M50.4,43.964a57.408,57.408,0,0,0,7.1,3.288,50.124,50.124,0,0,0,14.593,3.057c.8.046.991.293.986,1.074-.038,6.389.064,12.779-.052,19.165a27.806,27.806,0,0,1-55.429,2.2,46.964,46.964,0,0,1-.147-5.339q-.028-6.323,0-12.646c.013-3.462,1.452-5.513,4.67-6.73,2.228-.842,4.461-1.674,6.684-2.534a1.189,1.189,0,0,1,1.395.191,28.412,28.412,0,0,0,16.4,6.55c1.253.113,2.5.314,3.746.478,1.9.249,1.887.252,1.512-1.566-.479-2.325-.94-4.655-1.45-7.187" transform="translate(-4.381 -11.049)" fill="#efcfb3"/>
        <path id="Trazado_212364" data-name="Trazado 212364" d="M41.655,26.531c.765,3.868,1.414,7.49,2.227,11.074.293,1.292-.249,1.291-1.158,1.169A23.237,23.237,0,0,1,25.878,28.606c-.652-.952-1.05-1.033-1.989-.426-2.4,1.548-2.445,1.512-.779,3.89.422.6.366.846-.333,1.095-1.715.609-3.405,1.291-5.109,1.934-4.44,1.674-6.744,4.954-7.258,9.6-.042.378.233,1-.45,1.021-.586.018-.538-.568-.629-.972-.864-3.846-1.71-7.7-2.6-11.536-.189-.817-.019-1.215.836-1.458,1.625-.46,3.205-1.082,4.827-1.558.746-.219.813-.523.538-1.192-1.153-2.807-2.215-5.651-3.405-8.442-.382-.9-.259-1.172.693-1.341,2.688-.478,5.355-1.071,8.042-1.554.921-.165,1.093-.567.905-1.429-.581-2.664-1.092-5.342-1.667-8.194,2.048.444,3.963.893,5.892,1.272A111.975,111.975,0,0,0,45.763,11.44c3.737-.026,7.473-.018,11.21,0a21.814,21.814,0,0,1,21.8,19.743,20.626,20.626,0,0,1-.7,7.852c-.576,2.042-1.312,4.041-1.95,6.067-.152.483-.354.747-.912.676-.6-.077-.641-.467-.639-.934,0-1.825.024-3.651-.007-5.474-.112-6.6-3.3-11.156-9.269-13.814-2.7-1.2-2.671-1.131-3.845,1.637-.428,1.009-.292,1.4.761,1.739a10.972,10.972,0,0,1,7.418,6.588c.578,1.507.576,1.56-.962,1.444a46.127,46.127,0,0,1-20.352-6.6c-2.123-1.264-4.285-2.462-6.668-3.827" transform="translate(-1.674 -2.022)" fill="#656d78"/>
        <path id="Trazado_212365" data-name="Trazado 212365" d="M135.244,131.126c-4.605,0-9.21-.023-13.816.022-.9.008-1.172-.215-1.158-1.141q.083-5.342,0-10.686c-.013-.873.248-1.127,1.093-1.07a7.35,7.35,0,0,0,3.934-.642,6.432,6.432,0,0,0-2.622-12.162c-2.384-.117-2.384-.117-2.384-2.456,0-3.128.029-6.257-.02-9.383-.013-.8.194-1.011,1-1.005q8.6.056,17.2,0c.818,0,1.142.156,1.1,1.056-.074,1.777-.043,3.561-.014,5.342a4.216,4.216,0,0,0,4.277,4.309c1.823.048,3.65.043,5.473,0,.724-.018.958.178.955.933q-.039,12.968.005,25.935c0,.9-.386.96-1.089.956-4.649-.019-9.3-.01-13.946-.01" transform="translate(-30.225 -23.272)" fill="#e5e8ec"/>
        <path id="Trazado_212366" data-name="Trazado 212366" d="M61.943,146.847c-2.726-.126-5.948.281-9.115-.582a17.144,17.144,0,0,1-12.565-15.8A8.69,8.69,0,0,1,57.4,127.934c.573,2.224,1.064,4.471,1.684,6.682a1.363,1.363,0,0,1-.464,1.583c-.767.7-1.465,1.484-2.227,2.2-.411.383-.462.7,0,1.047a.72.72,0,0,1,.093.092c2.308,2.525,2.355,2.57,4.69.1a3.782,3.782,0,0,1,3.279-1.36c1.642.12,3.3.052,4.95.017.616-.013.831.164.821.806-.035,2.3-.04,4.605,0,6.907.013.717-.256.862-.9.853-2.3-.032-4.605-.013-7.381-.013" transform="translate(-10.117 -30.449)" fill="#fbd670"/>
        <path id="Trazado_212367" data-name="Trazado 212367" d="M40.243,150.223c.6.214.77.642,1.05.952a21.155,21.155,0,0,0,15.716,7.268c2.649.073,5.3.049,7.95.006.8-.013,1.041.219,1.021,1.025-.055,2.214-.039,4.431-.007,6.646.009.667-.19.913-.883.911q-11.991-.027-23.982,0c-.7,0-.879-.251-.877-.913.021-5.252.012-10.5.012-15.9" transform="translate(-10.11 -37.752)" fill="#fbd66f"/>
        <path id="Trazado_212368" data-name="Trazado 212368" d="M70.461,117.535A13.456,13.456,0,0,1,77.7,115.41c5.239.217,10.5.111,15.743.03,1.3-.02,1.605.377,1.533,1.6-.108,1.816,0,3.643-.049,5.463-.014.49.407,1.209-.371,1.461s-1.2-.211-1.612-.886a6.941,6.941,0,0,0-9.763-2.2,6.286,6.286,0,0,0-2.219,2.333,1.373,1.373,0,0,1-1.293.806c-2.1.21-3.733-.085-4.8-2.318-.877-1.834-2.662-3.035-4.414-4.167" transform="translate(-17.707 -29.001)" fill="#fbd670"/>
        <path id="Trazado_212369" data-name="Trazado 212369" d="M108.835,119.675c0-1.086.027-2.174-.01-3.259-.021-.622.085-.947.832-.938,3.259.037,6.519-.007,9.779.031a2.034,2.034,0,0,1,2.212,2.054,2.091,2.091,0,0,1-2.225,2.194q-2.672.063-5.346,0c-.726-.019-1.02.18-.949.937.061.646-.068,1.315.029,1.952.187,1.223-.359,1.424-1.45,1.4-2.87-.07-2.872-.02-2.872-2.929v-1.434" transform="translate(-27.348 -29.02)" fill="#efcfb3"/>
        <path id="Trazado_212370" data-name="Trazado 212370" d="M86,148.31c0-1.169.014-2.337-.006-3.506-.01-.549.2-.772.759-.755,1.341.042,2.689-.037,4.022.079a4.234,4.234,0,0,1-.177,8.429c-1.251.076-2.511,0-3.764.055-.725.033-.874-.292-.854-.926.034-1.125.01-2.251.01-3.376Z" transform="translate(-21.607 -36.2)" fill="#efcfb3"/>
        <path id="Trazado_212371" data-name="Trazado 212371" d="M97.108,137.981a9.335,9.335,0,0,0-6.229-2.531c-.311,0-.612.008-.713-.388-.451-1.753-1.354-3.4-1.279-5.278a2.749,2.749,0,0,1,2.355-2.833,2.677,2.677,0,0,1,3.031,1.9c.952,2.918,1.826,5.861,2.835,9.127" transform="translate(-22.337 -31.894)" fill="#fe816d"/>
        <path id="Trazado_212372" data-name="Trazado 212372" d="M101.595,151.846c.709,2.313,1.3,4.215,1.874,6.118a8.889,8.889,0,0,1-.264,5.856c-.263.705-.521.98-1.28.521a9.62,9.62,0,0,1-4.438-6.151c-.07-.274-.131-.487.156-.669a9.206,9.206,0,0,0,3.952-5.674" transform="translate(-24.485 -38.16)" fill="#fe816d"/>
        <path id="Trazado_212373" data-name="Trazado 212373" d="M65.717,122.511a10.45,10.45,0,0,1,6.641,9.508c.007.173.006.347.007.52.02,1.92.021,1.894-1.884,1.82-.579-.022-.825-.194-.955-.776-.368-1.645-.862-3.262-1.219-4.908a15.862,15.862,0,0,0-2.59-6.163" transform="translate(-16.515 -30.788)" fill="#fad56f"/>
        <path id="Trazado_212374" data-name="Trazado 212374" d="M97.392,68.317c0-1.168.033-2.337-.012-3.5-.028-.7.291-.785.867-.691a4.281,4.281,0,0,1-.035,8.41c-.681.12-.842-.089-.828-.711.028-1.167.008-2.336.008-3.5" transform="translate(-24.472 -16.106)" fill="#edceb2"/>
        <path id="Trazado_212375" data-name="Trazado 212375" d="M10.253,68.508c0,1.042-.064,2.09.018,3.126.08,1.014-.368,1.034-1.139.824A4.278,4.278,0,0,1,6.02,68.169a4.342,4.342,0,0,1,3.308-4.02c.613-.13.979-.088.941.711-.059,1.214-.016,2.432-.016,3.648" transform="translate(-1.512 -16.107)" fill="#efcfb3"/>
        <path id="Trazado_212376" data-name="Trazado 212376" d="M151.694,94.133l5.383,5.3c-1.7,0-3.273,0-4.846,0-.48,0-.542-.315-.54-.7.007-1.5,0-3.009,0-4.6" transform="translate(-38.121 -23.656)" fill="#b0d87c"/>
        <path id="Trazado_212377" data-name="Trazado 212377" d="M83.508,136.784c-1.09.112-2.691.532-3.073-.12-.557-.95-.267-2.411-.289-3.656-.01-.561.514-.41.769-.349" transform="translate(-20.127 -33.322)" fill="#fdfdfd"/>
        <path id="Trazado_212378" data-name="Trazado 212378" d="M139.593,24.027c5.951,0,11.9.025,17.853-.024,1.024-.008,1.4.156,1.393,1.306q-.088,11.532,0,23.066c.007,1.112-.327,1.36-1.384,1.347-4.734-.055-9.469-.005-14.2-.042-.84-.006-1.2.211-1.382,1.088-.451,2.161-1.035,4.294-1.6,6.431-.1.383-.08.954-.682.971-.661.018-.675-.545-.788-1-.516-2.06-1.1-4.1-1.523-6.182-.216-1.068-.67-1.332-1.723-1.318-4.691.064-9.383,0-14.074.053-.97.011-1.22-.22-1.214-1.2q.067-11.663,0-23.326c-.006-1,.266-1.2,1.217-1.189,6.037.046,12.076.023,18.114.023" transform="translate(-30.223 -6.032)" fill="#e5e8ec"/>
        <path id="Trazado_212379" data-name="Trazado 212379" d="M50.824,86.876c3.389,0,6.778.029,10.166-.019.924-.013,1.131.238.873,1.113-.441,1.5-.737,3.034-1.2,4.522a10.333,10.333,0,0,1-19.789-.22c-.419-1.457-.685-2.958-1.124-4.408-.255-.839-.075-1.017.777-1.006,3.431.044,6.864.018,10.3.018" transform="translate(-9.963 -21.828)"/>
        <path id="Trazado_212380" data-name="Trazado 212380" d="M38.1,66.865a9.287,9.287,0,0,0-1.041.007c-.763.087-1.074-.126-1.241-.988a4.232,4.232,0,0,0-8.25.061c-.163.786-.474,1-1.206.931a8.209,8.209,0,0,0-1.95,0c-1.366.209-1.362-.447-1.145-1.49a8.556,8.556,0,0,1,16.813-.181c.3,1.654.3,1.654-1.329,1.655H38.1" transform="translate(-5.821 -14.66)"/>
        <path id="Trazado_212381" data-name="Trazado 212381" d="M78.043,66.867c-.391,0-.783-.022-1.172.005-.582.04-.855-.07-1-.779a4.146,4.146,0,0,0-4.119-3.46,4.1,4.1,0,0,0-4.19,3.353c-.186.778-.532.97-1.238.89a11.753,11.753,0,0,0-1.3-.009c-2.115,0-2.115,0-1.618-2.033a8.553,8.553,0,0,1,16.667.276c.356,1.69.3,1.756-1.381,1.757h-.65" transform="translate(-15.867 -14.661)"/>
        <path id="Trazado_212382" data-name="Trazado 212382" d="M130.162,132.669h.521c1.273-.005,2.336,1.14,3.388,1.061,1.083-.081,2.133-1.02,3.395-1.076a6.785,6.785,0,0,1,4.375.943,2.069,2.069,0,0,0,2.548.03c1.485-.816,1.509-.773,2.268.741,1.164,2.322,1.131,2.26-1.164,3.511-1.949,1.062-3.663,1.256-5.475-.358-1.232-1.1-2.721-.8-3.967.365-.682.639-1.237,1.837-2.075,1.765-.708-.061-1.337-1.123-1.989-1.754-1.545-1.494-3.013-1.3-3.874.7-.556,1.3-1.143,1.5-2.2.658a.639.639,0,0,0-.12-.05c-2.4-1.2-2.409-1.2-1.024-3.484a6.029,6.029,0,0,1,5.392-3.056" transform="translate(-31.121 -33.333)"/>
        <path id="Trazado_212383" data-name="Trazado 212383" d="M143.786,114.04c-1.778,0-3.559-.045-5.334.019-.877.031-1.07-.275-1.069-1.108.005-3.213-.025-3.213,3.22-3.213,2.863,0,5.726.035,8.588-.021.869-.017,1.072.248,1.071,1.086,0,3.237.03,3.237-3.223,3.237h-3.253" transform="translate(-34.525 -27.572)" fill="#010101"/>
        <path id="Trazado_212384" data-name="Trazado 212384" d="M143.712,125.448c-1.819,0-3.639-.028-5.458.013-.686.016-.857-.211-.877-.884-.1-3.378-.123-3.377,3.295-3.377,2.859,0,5.719.031,8.578-.02.809-.015,1,.216,1,1.008.014,3.26.044,3.26-3.162,3.26h-3.379" transform="translate(-34.517 -30.453)"/>
        <path id="Trazado_212385" data-name="Trazado 212385" d="M131.323,102.622c-1.476,0-2.953-.037-4.426.015-.752.026-.938-.239-.957-.965-.085-3.379-.107-3.378,3.217-3.378,2.17,0,4.341.037,6.51-.019.823-.021,1.005.255,1.015,1.035.042,3.313.068,3.312-3.276,3.312h-2.084" transform="translate(-31.644 -24.697)" fill="#020203"/>
        <path id="Trazado_212386" data-name="Trazado 212386" d="M142.958,40.2c-.7,1.044-1.274,1.911-1.864,2.765a5.383,5.383,0,0,1-9.771-1.667c-.3-1.131-.582-2.265-.865-3.4-.127-.505-.38-.893-.936-.934-.5-.037-.758.309-1,.7-.454.734-.485,2.012-1.364,2.113-.723.082-1.511-.767-2.325-1.029-1.274-.412-1.145-.985-.642-2.033,1.131-2.352,2.576-4.125,5.452-4.056a5.075,5.075,0,0,1,4.813,3.7c.352,1.158.585,2.353.891,3.526.144.554.324,1.091,1.019,1.2a1.309,1.309,0,0,0,1.366-.778c.541-.837,1.08-1.679,1.67-2.48a4.243,4.243,0,0,1,6.481-.621c.607.558,1.179,1.153,1.759,1.741a1.185,1.185,0,0,0,2.06-.149c1.171-1.562,2.368-3.1,3.508-4.688.351-.488.556-.569,1.092-.2,2.9,2.006,2.917,1.988.852,4.742-.755,1.007-1.48,2.037-2.272,3.013a5.337,5.337,0,0,1-8.032.525c-.629-.6-1.2-1.255-1.893-1.988" transform="translate(-31.12 -8.207)"/>
        <path id="Trazado_212387" data-name="Trazado 212387" d="M46.933,92.626c3.616,0,7.122.014,10.627-.011.8-.005.862.227.536.9a6.114,6.114,0,0,1-5.972,3.34,5.885,5.885,0,0,1-5.191-4.224" transform="translate(-11.795 -23.275)" fill="#fe816d"/>
      </g>
    </g>
  </g>
</svg>
