<svg xmlns="http://www.w3.org/2000/svg" width="295" height="64.342" viewBox="0 0 295 64.342">
  <g id="Grupo_984440" data-name="Grupo 984440" transform="translate(-705 -3901)">
    <path id="Trazado_213462" data-name="Trazado 213462" d="M24.223,0,48.446,25.4H0Z" transform="translate(1000 3916.896) rotate(90)" fill="#3c3fa7"/>
    <path id="Trazado_213463" data-name="Trazado 213463" d="M0,0H237.805V48.446H0Z" transform="translate(736.792 3916.896)" fill="#3c3fa7"/>
    <path id="Trazado_213464" data-name="Trazado 213464" d="M10.5,15.282,13.588,6.2h2.628L11.461,19H8.868l-.677-8.525L4.843,19H2.25L1.494,6.2H4.008l.255,9.035L7.708,6.2H9.9ZM20.593,19a2.566,2.566,0,0,1-.1-.861,3.221,3.221,0,0,1-2.426,1.037A2.919,2.919,0,0,1,16,18.363a2.46,2.46,0,0,1-.769-1.964,2.843,2.843,0,0,1,1.305-2.386,5.924,5.924,0,0,1,3.335-.831l1.16.018.123-.571a1.984,1.984,0,0,0,.026-.554.952.952,0,0,0-.312-.646,1.075,1.075,0,0,0-.708-.242,1.514,1.514,0,0,0-.984.286,1.384,1.384,0,0,0-.519.875l-2.487.009a2.764,2.764,0,0,1,1.252-2.21,4.851,4.851,0,0,1,2.94-.831,3.507,3.507,0,0,1,2.531.962,2.816,2.816,0,0,1,.765,2.386l-.729,4.553-.044.563a2.714,2.714,0,0,0,.149,1.055L23.027,19Zm-1.907-1.749a2.27,2.27,0,0,0,1.872-.932l.308-1.644L20,14.667a2.406,2.406,0,0,0-1.978.835,1.454,1.454,0,0,0-.272.712.844.844,0,0,0,.2.751A1,1,0,0,0,18.686,17.251Zm12.366-5.379a5.117,5.117,0,0,0-.835-.088,2.4,2.4,0,0,0-2.1.993L27.018,19H24.539l1.652-9.51,2.329-.009-.229,1.16A2.615,2.615,0,0,1,30.507,9.3a3.615,3.615,0,0,1,.861.123Zm3.867-2.391-.211,1.125a3.422,3.422,0,0,1,2.769-1.292,2.281,2.281,0,0,1,1.986.984,3.966,3.966,0,0,1,.466,2.654l-1,6.047H36.448l1.02-6.073a2.844,2.844,0,0,0,.018-.624,1.007,1.007,0,0,0-1.125-.923,2.133,2.133,0,0,0-1.749.905L33.425,19H30.946L32.6,9.49ZM43.488,19h-2.5l1.652-9.51h2.5ZM42.935,7.073a1.238,1.238,0,0,1,.387-.976,1.488,1.488,0,0,1,1.951-.044,1.233,1.233,0,0,1,.431.932,1.273,1.273,0,0,1-.365.949,1.367,1.367,0,0,1-1,.422,1.39,1.39,0,0,1-.971-.334A1.227,1.227,0,0,1,42.935,7.073Zm6.574,2.408L49.3,10.606a3.422,3.422,0,0,1,2.769-1.292,2.281,2.281,0,0,1,1.986.984,3.966,3.966,0,0,1,.466,2.654l-1,6.047H51.038l1.02-6.073a2.844,2.844,0,0,0,.018-.624,1.007,1.007,0,0,0-1.125-.923,2.133,2.133,0,0,0-1.749.905L48.015,19H45.536l1.652-9.51Zm6.425,4.755a6.58,6.58,0,0,1,1.437-3.582,3.647,3.647,0,0,1,2.958-1.349A2.667,2.667,0,0,1,62.6,10.4l.325-.923L65.2,9.49l-1.556,9.185a4.481,4.481,0,0,1-1.617,3.006,5.03,5.03,0,0,1-3.375,1.072,4.689,4.689,0,0,1-1.881-.426,4.022,4.022,0,0,1-1.477-1.121l1.23-1.512A2.642,2.642,0,0,0,58.6,20.775a2.436,2.436,0,0,0,1.652-.505,2.7,2.7,0,0,0,.932-1.525l.141-.571a3.092,3.092,0,0,1-2.329,1,2.732,2.732,0,0,1-2.206-1.033,4.44,4.44,0,0,1-.9-2.641A8.876,8.876,0,0,1,55.934,14.236Zm2.435,1.043a2.273,2.273,0,0,0,.347,1.325,1.215,1.215,0,0,0,1.006.524,2.219,2.219,0,0,0,1.793-.863l.738-4.031a1.458,1.458,0,0,0-1.4-.863,1.944,1.944,0,0,0-1.608.766,4.006,4.006,0,0,0-.826,2.1A9.241,9.241,0,0,0,58.368,15.279Zm10.362-.208H66.665L67.913,6.2h2.646Zm-2.883,2.777a1.3,1.3,0,0,1,.369-.98,1.45,1.45,0,0,1,1.96-.07,1.265,1.265,0,0,1,.431.954,1.31,1.31,0,0,1-.369.984,1.439,1.439,0,0,1-2,.035A1.253,1.253,0,0,1,65.848,17.849Zm10.406-4.474h2.118l.29,8.868h-2.7Zm2.479-2.711a1.259,1.259,0,0,1-.4.964,1.568,1.568,0,0,1-2.039,0,1.259,1.259,0,0,1-.4-.964,1.28,1.28,0,0,1,.391-.964,1.6,1.6,0,0,1,2.065,0A1.28,1.28,0,0,1,78.732,10.664Zm9.475,5.7H83.584L82.705,19H79.9L84.665,6.2h2.443L91.9,19h-2.8ZM84.3,14.228h3.2l-1.608-4.79Zm8.235-.053a5.731,5.731,0,0,1,1-3.542,3.237,3.237,0,0,1,2.729-1.318,2.913,2.913,0,0,1,2.294,1.037V5.5H101.1V19H98.807l-.123-1.011a2.989,2.989,0,0,1-2.443,1.187,3.228,3.228,0,0,1-2.694-1.323A5.916,5.916,0,0,1,92.531,14.175Zm2.54.189a3.754,3.754,0,0,0,.466,2.051,1.517,1.517,0,0,0,1.354.713,1.7,1.7,0,0,0,1.661-.995V12.375a1.675,1.675,0,0,0-1.644-.995Q95.071,11.38,95.071,14.364ZM106.629,15.9,108.4,9.49h2.654L107.842,19h-2.426l-3.208-9.51h2.654Zm9.914,3.278a4.668,4.668,0,0,1-3.406-1.283,4.561,4.561,0,0,1-1.314-3.419v-.246a5.745,5.745,0,0,1,.554-2.562,4.064,4.064,0,0,1,1.569-1.74,4.4,4.4,0,0,1,2.316-.611,3.947,3.947,0,0,1,3.072,1.23,5,5,0,0,1,1.121,3.489v1.037H114.4a2.36,2.36,0,0,0,.743,1.494,2.245,2.245,0,0,0,1.569.563A2.742,2.742,0,0,0,119,16.064l1.248,1.4a3.813,3.813,0,0,1-1.547,1.261A5.075,5.075,0,0,1,116.543,19.176Zm-.29-7.813a1.587,1.587,0,0,0-1.226.512,2.651,2.651,0,0,0-.6,1.466h3.533v-.2a1.891,1.891,0,0,0-.457-1.311A1.638,1.638,0,0,0,116.253,11.362Zm10.986.51a6.9,6.9,0,0,0-.914-.07,1.86,1.86,0,0,0-1.89.976V19H121.9V9.49h2.4l.07,1.134a2.354,2.354,0,0,1,2.118-1.31,2.662,2.662,0,0,1,.791.114Zm4.7-4.72V9.49h1.626v1.863h-1.626V16.1a1.133,1.133,0,0,0,.2.756,1.015,1.015,0,0,0,.773.229,4.051,4.051,0,0,0,.747-.062v1.925a5.229,5.229,0,0,1-1.538.229,2.425,2.425,0,0,1-2.725-2.7V11.354h-1.389V9.49H129.4V7.152Zm7.418,12.023a4.668,4.668,0,0,1-3.406-1.283,4.561,4.561,0,0,1-1.314-3.419v-.246a5.745,5.745,0,0,1,.554-2.562,4.064,4.064,0,0,1,1.569-1.74,4.4,4.4,0,0,1,2.316-.611,3.947,3.947,0,0,1,3.072,1.23,5,5,0,0,1,1.121,3.489v1.037h-6.056a2.36,2.36,0,0,0,.743,1.494,2.245,2.245,0,0,0,1.569.563,2.742,2.742,0,0,0,2.294-1.063l1.248,1.4a3.813,3.813,0,0,1-1.547,1.261A5.075,5.075,0,0,1,139.359,19.176Zm-.29-7.813a1.587,1.587,0,0,0-1.226.512,2.651,2.651,0,0,0-.6,1.466h3.533v-.2a1.891,1.891,0,0,0-.457-1.311A1.638,1.638,0,0,0,139.069,11.362Zm7.98-1.872.079,1.1a3.32,3.32,0,0,1,2.733-1.274,2.759,2.759,0,0,1,2.25.888,4.142,4.142,0,0,1,.756,2.654V19h-2.54V12.918a1.648,1.648,0,0,0-.352-1.173,1.574,1.574,0,0,0-1.169-.365,1.747,1.747,0,0,0-1.608.914V19h-2.54V9.49Zm11.7,7.638a1.666,1.666,0,0,0,1.143-.387,1.355,1.355,0,0,0,.457-1.028h2.382a3.258,3.258,0,0,1-.527,1.771,3.48,3.48,0,0,1-1.419,1.248,4.442,4.442,0,0,1-1.991.444,4.129,4.129,0,0,1-3.217-1.3A5.13,5.13,0,0,1,154.4,14.3v-.167a5.071,5.071,0,0,1,1.169-3.507,4.08,4.08,0,0,1,3.208-1.31,4,4,0,0,1,2.861,1.015,3.594,3.594,0,0,1,1.094,2.7h-2.382a1.745,1.745,0,0,0-.457-1.206,1.7,1.7,0,0,0-2.5.183,3.749,3.749,0,0,0-.453,2.1v.264a3.8,3.8,0,0,0,.448,2.113A1.549,1.549,0,0,0,158.748,17.128ZM166.86,19h-2.549V9.49h2.549Zm-2.7-11.971a1.251,1.251,0,0,1,.382-.94,1.648,1.648,0,0,1,2.079,0,1.244,1.244,0,0,1,.387.94,1.247,1.247,0,0,1-.391.949,1.629,1.629,0,0,1-2.065,0A1.247,1.247,0,0,1,164.162,7.029ZM174.463,19a2.821,2.821,0,0,1-.255-.853,3.073,3.073,0,0,1-2.4,1.028,3.376,3.376,0,0,1-2.316-.809,2.6,2.6,0,0,1-.918-2.039,2.687,2.687,0,0,1,1.121-2.32,5.529,5.529,0,0,1,3.239-.817H174.1v-.545a1.567,1.567,0,0,0-.338-1.055,1.331,1.331,0,0,0-1.068-.4,1.513,1.513,0,0,0-1.006.308,1.045,1.045,0,0,0-.365.844h-2.54a2.551,2.551,0,0,1,.51-1.529,3.37,3.37,0,0,1,1.441-1.1,5.253,5.253,0,0,1,2.092-.4,4.15,4.15,0,0,1,2.791.883,3.09,3.09,0,0,1,1.033,2.483V16.8a4.546,4.546,0,0,0,.378,2.048V19Zm-2.1-1.767a2.188,2.188,0,0,0,1.037-.25,1.645,1.645,0,0,0,.7-.672V14.676h-.949q-1.907,0-2.03,1.318l-.009.149a1.017,1.017,0,0,0,.334.782A1.3,1.3,0,0,0,172.362,17.233Zm8.824-2.162h-2.109l-.3-8.868h2.707Zm-1.055,1.389a1.423,1.423,0,0,1,1.033.378,1.38,1.38,0,0,1,0,1.925,1.588,1.588,0,0,1-2.057,0,1.275,1.275,0,0,1-.391-.958,1.29,1.29,0,0,1,.391-.962A1.4,1.4,0,0,1,180.132,16.46Z" transform="translate(782 3930.656)" fill="#fed947"/>
    <path id="Trazado_114329" data-name="Trazado 114329" d="M53.855,35.865A15.707,15.707,0,0,0,38.148,51.572V75.364H69.56V51.572A15.707,15.707,0,0,0,53.855,35.865Z" transform="translate(683.316 3880.212)" fill="#e5384f"/>
    <path id="Trazado_114330" data-name="Trazado 114330" d="M50.667,68.3l8.1-6.068-8.1-6.068Z" transform="translate(678.403 3872.245)" fill="#fdbe00"/>
    <path id="Trazado_114331" data-name="Trazado 114331" d="M64,62.235,72.1,68.3V56.167Z" transform="translate(673.171 3872.245)" fill="#fdbe00"/>
    <path id="Trazado_114332" data-name="Trazado 114332" d="M31.355,96.442l-2.933,11.4H71.655l-2.933-11.4Z" transform="translate(687.133 3856.44)" fill="#223b59"/>
    <path id="Trazado_114333" data-name="Trazado 114333" d="M33.645,52.711a1.064,1.064,0,0,0-1.063,1.063V70.95H30.668a1.063,1.063,0,0,0-1.03.8L26.7,83.145a1.064,1.064,0,0,0,1.033,1.328H55.451a1.063,1.063,0,1,0,0-2.127H29.105l2.387-9.272H67.21L69.6,82.346H67.25a1.063,1.063,0,1,0,0,2.127h3.718A1.064,1.064,0,0,0,72,83.145l-2.938-11.4a1.063,1.063,0,0,0-1.03-.8H66.12V50.918a16.769,16.769,0,0,0-33.467-1.5,1.063,1.063,0,1,0,2.116.186,14.643,14.643,0,0,1,29.225,1.311V70.95H50.414V55.737l6.4,4.794a1.063,1.063,0,0,0,1.7-.851V47.544a1.063,1.063,0,0,0-1.7-.851l-7.464,5.59-7.464-5.59a1.063,1.063,0,0,0-1.7.851V59.68a1.063,1.063,0,0,0,1.7.851l6.4-4.794V70.95H34.708V53.774a1.064,1.064,0,0,0-1.063-1.063Zm22.744-3.042v7.886l-5.264-3.943ZM42.313,57.555V49.669l5.264,3.943Z" transform="translate(687.82 3880.868)"/>
    <path id="Trazado_114334" data-name="Trazado 114334" d="M83.651,115.577a1.063,1.063,0,1,0,0-2.127H80.333a1.063,1.063,0,1,0,0,2.127Z" transform="translate(667.179 3849.766)"/>
    <path id="Trazado_114335" data-name="Trazado 114335" d="M64.377,20.539V12.113a1.063,1.063,0,0,0-2.127,0v8.425a1.063,1.063,0,1,0,2.127,0Z" transform="translate(673.858 3889.95)"/>
    <path id="Trazado_114336" data-name="Trazado 114336" d="M90.466,33.82l5.957-5.954a1.063,1.063,0,1,0-1.5-1.5l-5.954,5.954a1.063,1.063,0,0,0,1.5,1.5Z" transform="translate(663.497 3884.063)"/>
    <path id="Trazado_114337" data-name="Trazado 114337" d="M33.068,34.132a1.063,1.063,0,0,0,.752-1.815l-5.954-5.954a1.063,1.063,0,1,0-1.5,1.5l5.954,5.957A1.059,1.059,0,0,0,33.068,34.132Z" transform="translate(688.063 3884.063)"/>
    <path id="Trazado_114338" data-name="Trazado 114338" d="M20.539,64.377a1.063,1.063,0,1,0,0-2.127H12.113a1.063,1.063,0,1,0,0,2.127Z" transform="translate(693.95 3869.858)"/>
    <path id="Trazado_114339" data-name="Trazado 114339" d="M109.072,64.377a1.063,1.063,0,1,0,0-2.127h-8.425a1.063,1.063,0,1,0,0,2.127Z" transform="translate(659.208 3869.858)"/>
  </g>
</svg>
