<svg xmlns="http://www.w3.org/2000/svg" xmlns:xlink="http://www.w3.org/1999/xlink" width="86" height="86" viewBox="0 0 86 86">
  <defs>
    <clipPath id="clip-path">
      <rect id="Rectángulo_338940" data-name="Rectángulo 338940" width="62.843" height="51.808" fill="none"/>
    </clipPath>
  </defs>
  <g id="Grupo_984053" data-name="Grupo 984053" transform="translate(-12296 9652)">
    <circle id="Elipse_4900" data-name="Elipse 4900" cx="43" cy="43" r="43" transform="translate(12296 -9652)" fill="#3c3fa7"/>
    <g id="Grupo_984052" data-name="Grupo 984052" transform="translate(12307.297 -9635.511)">
      <g id="Grupo_984051" data-name="Grupo 984051" clip-path="url(#clip-path)">
        <path id="Trazado_212052" data-name="Trazado 212052" d="M120.176,67.988a2.646,2.646,0,0,1,1.062,2.722c-.051.243.087.4.2.58a7.454,7.454,0,0,1-6.592,11.468,3.463,3.463,0,0,1-1.315-.193,4.063,4.063,0,0,0-2.8.016,10.073,10.073,0,0,1-12.368-8.654,1,1,0,0,1-.02-.19c.059-.7-.214-.972-.953-1.093a2.555,2.555,0,0,1,.477-5.028c.133-.01.408.144.374-.156-.037-.326-.3-.119-.452-.1-.314.041-.619.149-.931.2a.748.748,0,0,1-.972-.588.7.7,0,0,1,.667-.9c.635-.052.7-.368.7-.912a48.691,48.691,0,0,1,.1-5.352,11.833,11.833,0,0,1,23.3-.867,14.39,14.39,0,0,1,.256,3.17c0,1.595-.005,3.189.008,4.785,0,.52-.12.93-.735,1.09" transform="translate(-59.821 -31.067)"/>
        <path id="Trazado_212053" data-name="Trazado 212053" d="M23.143,68.159a6.4,6.4,0,0,1,1.333.243A2.586,2.586,0,0,1,26,70.97a2.492,2.492,0,0,1-2.04,2.306c-.614.087-.734.324-.8.895a10.107,10.107,0,0,1-20.11.423c-.007-.063-.02-.127-.021-.19-.008-.644-.1-1.072-.959-1.167A2.443,2.443,0,0,1,.156,70.9a2.487,2.487,0,0,1,1.609-2.5c.507-.172.419-.375.266-.721a23.394,23.394,0,0,1-1.96-6.5,6.155,6.155,0,0,1,.305-3.136,2.864,2.864,0,0,1,1.4-1.587,3.049,3.049,0,0,0,1.039-.89,7.885,7.885,0,0,1,7.019-3,1.234,1.234,0,0,0,.674-.106,4.482,4.482,0,0,1,3.938-.09.818.818,0,0,0,.661.014A4.617,4.617,0,0,1,20.386,53.7a4.8,4.8,0,0,0,1.907,1.388,3.344,3.344,0,0,1,2.193,3.157c.023.362.114.491.461.589a2.572,2.572,0,0,1,1.779,3.494,12.168,12.168,0,0,1-3.584,5.836" transform="translate(0 -32.565)"/>
        <path id="Trazado_212054" data-name="Trazado 212054" d="M62.459,0q4.688,0,9.376,0a3.36,3.36,0,0,1,3.539,3.512q.011,5.07,0,10.141a3.33,3.33,0,0,1-3.463,3.449c-3.061.007-6.123.015-9.185-.01-.545,0-.731.1-.769.7a6.546,6.546,0,0,1-4.22,5.93c-.37.162-.763.322-1.143.02s-.274-.726-.2-1.121a9.231,9.231,0,0,0,.092-3.419,2.245,2.245,0,0,0-2.49-2.1,7.455,7.455,0,0,1-1.9-.111,3.31,3.31,0,0,1-2.5-3.164c-.016-3.507-.023-7.016,0-10.524a3.323,3.323,0,0,1,3.357-3.3c3.168-.012,6.336,0,9.5,0" transform="translate(-31.072 0)"/>
        <path id="Trazado_212055" data-name="Trazado 212055" d="M96.848,50.432c-.957,0-1.914,0-2.871,0-.635,0-.961-.272-.961-.765s.326-.762.961-.764c1.914,0,3.829,0,5.742-.005.523,0,.875.2.936.738.053.466-.339.79-.935.8-.957.008-1.914,0-2.871,0" transform="translate(-58.294 -30.644)"/>
        <path id="Trazado_212056" data-name="Trazado 212056" d="M86.1,50.437c-.681,0-1.031-.251-1.04-.752s.337-.778,1.011-.78,1.043.268,1.053.751-.37.779-1.024.781" transform="translate(-53.307 -30.649)" fill="#294369"/>
        <path id="Trazado_212057" data-name="Trazado 212057" d="M107.042,90.021c0-1.19.014-2.19-.008-3.189a.493.493,0,0,1,.409-.582,24.754,24.754,0,0,0,9.888-5.334c.408-.374.482-.013.633.21a13.86,13.86,0,0,0,5.131,4.942,1.877,1.877,0,0,1,1.2,2.132c-.122,1.8.121,3.613-.135,5.411a8.614,8.614,0,0,1-16.86.785,20.391,20.391,0,0,1-.257-4.377" transform="translate(-67.078 -50.61)" fill="#fed7b6"/>
        <path id="Trazado_212058" data-name="Trazado 212058" d="M124.874,68.821a10.311,10.311,0,0,1-4.8-2.519,15.588,15.588,0,0,1-2.822-3.431.52.52,0,0,1,.058-.717,15.488,15.488,0,0,0,2.252-3.752.867.867,0,0,0-.357-1.234c-.4-.189-.821.051-1.061.641a13.946,13.946,0,0,1-3.68,5.134,22.152,22.152,0,0,1-6.983,4.113q-1.337.513-2.711.916c-.392.114-.471,0-.465-.371.019-1,.016-2,0-3,0-.309.1-.43.408-.509.821-.208,1.63-.463,2.437-.722.6-.193.853-.578.679-1.014-.219-.551-.626-.616-1.147-.437-.6.207-1.219.361-1.821.566-.37.127-.477,0-.406-.345a10.348,10.348,0,0,1,4.853-7.013,10.242,10.242,0,0,1,5.835-1.475c.5.018.594.136.375.592a14.244,14.244,0,0,1-6,6.392,3.727,3.727,0,0,0-.55.318c-.332.273-.568.6-.289,1.043a.74.74,0,0,0,1.06.244,14.8,14.8,0,0,0,2.779-1.786,14.972,14.972,0,0,0,4.6-6.079c.124-.3.278-.343.589-.237a9.984,9.984,0,0,1,7.03,8.047,35.161,35.161,0,0,1,.143,5.472c.013.377,0,.756,0,1.16" transform="translate(-65.367 -33.62)" fill="#6d7485"/>
        <path id="Trazado_212059" data-name="Trazado 212059" d="M146.884,119.553c-.261-.062-.723.169-.838-.141-.109-.292.37-.443.589-.629a9.966,9.966,0,0,0,3.39-5.8,6.934,6.934,0,0,0,.2-1.308c0-.409.165-.57.536-.616a1.057,1.057,0,0,0,.487-.126c.647-.48.884-.1,1.114.46a5.94,5.94,0,0,1-5.477,8.16" transform="translate(-91.518 -69.385)" fill="#4a5160"/>
        <path id="Trazado_212060" data-name="Trazado 212060" d="M100.841,103.1a3.524,3.524,0,0,1,0,.444c-.025.2.121.471-.122.567a.743.743,0,0,1-.7-.195,1.038,1.038,0,0,1-.289-1.36.767.767,0,0,1,.882-.462c.411.1.182.45.234.689a1.52,1.52,0,0,1,0,.317" transform="translate(-62.409 -63.969)" fill="#ecc396"/>
        <path id="Trazado_212061" data-name="Trazado 212061" d="M157.309,103.109a3.623,3.623,0,0,1,0-.441c.026-.207-.125-.488.207-.583a.689.689,0,0,1,.689.205,1.072,1.072,0,0,1-.225,1.715c-.5.264-.666.165-.673-.391,0-.168,0-.336,0-.5" transform="translate(-98.581 -63.961)" fill="#ebc296"/>
        <path id="Trazado_212062" data-name="Trazado 212062" d="M19.856,74.336a2.287,2.287,0,0,0,.522-.359,2.111,2.111,0,0,1,2.607-.542,6.9,6.9,0,0,0,5.188-.624c.61-.3,1.195-.648,1.807-.941,2-.957,3.705.163,3.845,2.372.242,3.824.2,7.648.191,11.473a8.62,8.62,0,0,1-7.127,8.363,5,5,0,0,1-.508.034c-1.375.33-2.369-.417-3.3-1.227a9.361,9.361,0,0,1-3.4-7.436,22.578,22.578,0,0,1,.061-3.044,10.124,10.124,0,0,0,.405-.931.981.981,0,0,1,.971-.774.992.992,0,0,1,.956.795,1.835,1.835,0,0,0,.133.357.538.538,0,0,0,.614.344.547.547,0,0,0,.432-.555,2.119,2.119,0,0,0-2.553-2.12c-.3.06-.6.267-.9-.008a1.205,1.205,0,0,1-.143-.671q-.013-1.894,0-3.79a1.122,1.122,0,0,1,.2-.714" transform="translate(-12.313 -44.826)" fill="#fed7b6"/>
        <path id="Trazado_212063" data-name="Trazado 212063" d="M17.1,56.66a2.693,2.693,0,0,0,1.582-.331,2.743,2.743,0,0,1,2.744.091,1.362,1.362,0,0,0,1.43.015,3.09,3.09,0,0,1,3.538.578c.275.264.517.562.773.846a3,3,0,0,0,1.659,1.072,2.018,2.018,0,0,1,1.421,2.59c-.221.812.063,1.209.9,1.26a6.8,6.8,0,0,1,.7.032c.544.091,1.041.655.895,1.133a12.064,12.064,0,0,1-1.965,4.227,3.622,3.622,0,0,1-.266-1.408c-.086-.822-.112-1.652-.13-2.48a4,4,0,0,0-5.595-3.707,10.489,10.489,0,0,0-1.528.785,6.819,6.819,0,0,1-7.362-.077c-.221-.127-.445-.25-.667-.374a.72.72,0,0,0-1.047.266.707.707,0,0,0,.258,1.044c.627.467.645.5-.065.877a2.881,2.881,0,0,1-2.4.462,3.513,3.513,0,0,1,1.453-4.135,2.67,2.67,0,0,0,.907-.758,8.9,8.9,0,0,1,1.886-1.782.9.9,0,0,1,.877-.23" transform="translate(-7.376 -35.098)" fill="#c1684f"/>
        <path id="Trazado_212064" data-name="Trazado 212064" d="M15.026,87.085c0,1.082-.025,2.165,0,3.246a9.278,9.278,0,0,0,5.21,8.385c.414.226.88.029,1.315.113a7.511,7.511,0,0,1-4.917-.886,8.3,8.3,0,0,1-4.662-7.578c-.06-3.4-.005-6.807-.023-10.21,0-.442.086-.57.557-.536a5.232,5.232,0,0,0,2.521-.564c0,1.541-.005,3.083,0,4.624,0,.2-.069.429.129.591.038.265-.2.35-.338.485a2.475,2.475,0,0,0-.69,1.108c-.194.664-.008.974.677,1.121a.361.361,0,0,1,.221.1" transform="translate(-7.486 -49.544)" fill="#e4bca0"/>
        <path id="Trazado_212065" data-name="Trazado 212065" d="M12.279,57.6a3.006,3.006,0,0,0-1.527.966,6.606,6.606,0,0,0-1.369,1.5.639.639,0,0,1-.323.293c-1.463.538-1.871,1.718-1.9,3.125-.008.34,0,.68,0,1.02a3.185,3.185,0,0,1-1.636-.455,1.012,1.012,0,0,0-1.334.111,2.429,2.429,0,0,1,1.47-3.129,2.31,2.31,0,0,0,.76-.84,6.612,6.612,0,0,1,5.5-2.685,1.369,1.369,0,0,1,.36.093" transform="translate(-2.554 -36.042)" fill="#9f5847"/>
        <path id="Trazado_212066" data-name="Trazado 212066" d="M4.354,77.773c.427.216.753.4,1.094.547.262.116.222.331.223.538,0,.975,0,1.95-.052,2.939a21.51,21.51,0,0,1-1.265-4.024" transform="translate(-2.729 -48.741)" fill="#9e5747"/>
        <path id="Trazado_212067" data-name="Trazado 212067" d="M5.767,100.755a1.51,1.51,0,0,1,0,.253c-.041.234.143.585-.131.683a.812.812,0,0,1-.878-.371,1,1,0,0,1-.1-1.182.778.778,0,0,1,.821-.473c.46.065.252.45.291.71a2.529,2.529,0,0,1,0,.38" transform="translate(-2.823 -62.455)" fill="#ebc296"/>
        <path id="Trazado_212068" data-name="Trazado 212068" d="M62.215,100.712a3.625,3.625,0,0,1,0-.446c.027-.21-.127-.5.2-.594a.68.68,0,0,1,.738.255,1,1,0,0,1,.118,1.287.846.846,0,0,1-.9.477c-.337-.088-.108-.476-.162-.725a1.206,1.206,0,0,1,0-.255" transform="translate(-38.976 -62.447)" fill="#ebc296"/>
        <path id="Trazado_212069" data-name="Trazado 212069" d="M60.684,24.255a10.4,10.4,0,0,0-.206-3.138,3.641,3.641,0,0,0-3.772-2.967c-.4,0-.809.013-1.212,0a1.784,1.784,0,0,1-1.787-1.793q-.027-5.2,0-10.4a1.792,1.792,0,0,1,1.874-1.84q9.476-.01,18.952,0a1.791,1.791,0,0,1,1.878,1.836q.032,5.2,0,10.4a1.788,1.788,0,0,1-1.971,1.8q-4.913.008-9.827,0c-1.167,0-1.581.4-1.574,1.567a5.3,5.3,0,0,1-1.8,4.255,3.879,3.879,0,0,1-.354.268c-.028.019-.078.007-.2.015" transform="translate(-33.65 -2.574)" fill="#f2cd7d"/>
        <path id="Trazado_212070" data-name="Trazado 212070" d="M124.309,117.9a4.676,4.676,0,0,1-3.056-1.206c-.381-.345-.545-.734-.19-1.161s.754-.346,1.168-.018a2.989,2.989,0,0,0,4.2-.008c.418-.328.816-.391,1.167.035a.746.746,0,0,1-.16,1.118,4.653,4.653,0,0,1-3.127,1.24" transform="translate(-75.748 -72.219)"/>
        <path id="Trazado_212071" data-name="Trazado 212071" d="M114.625,94.728a2.369,2.369,0,0,1,2.34,2.224c.015.5-.168.849-.68.9a.72.72,0,0,1-.828-.7c-.074-.534-.313-.9-.88-.887a.814.814,0,0,0-.823.81c-.063.535-.342.82-.881.767-.47-.046-.721-.5-.634-1.067a2.4,2.4,0,0,1,2.386-2.052" transform="translate(-70.33 -59.366)"/>
        <path id="Trazado_212072" data-name="Trazado 212072" d="M137.712,94.759a2.417,2.417,0,0,1,2.366,2.155c.044.485-.131.863-.635.946a.7.7,0,0,1-.878-.688c-.067-.5-.312-.859-.839-.874s-.8.315-.869.828c-.068.485-.338.806-.85.746-.553-.065-.7-.465-.661-.977a2.379,2.379,0,0,1,2.366-2.136" transform="translate(-84.819 -59.386)"/>
        <path id="Trazado_212073" data-name="Trazado 212073" d="M29.282,115.493a4.666,4.666,0,0,1-3.072-1.217c-.384-.354-.509-.753-.148-1.167.343-.394.731-.314,1.125-.011a2.994,2.994,0,0,0,4.2.009c.417-.326.818-.4,1.17.032a.745.745,0,0,1-.16,1.118,4.659,4.659,0,0,1-3.116,1.235" transform="translate(-16.199 -70.718)"/>
        <path id="Trazado_212074" data-name="Trazado 212074" d="M42.661,92.332a2.4,2.4,0,0,1,2.362,2.148.8.8,0,0,1-.682.974.741.741,0,0,1-.843-.747.82.82,0,0,0-.863-.833.8.8,0,0,0-.825.8c-.068.505-.327.851-.882.775s-.674-.493-.638-.993a2.36,2.36,0,0,1,2.37-2.119" transform="translate(-25.247 -57.865)"/>
        <path id="Trazado_212075" data-name="Trazado 212075" d="M18.3,95.49c-.9.131-1.273-.287-1.08-1.17a2.661,2.661,0,0,1,1.209-1.645,2.44,2.44,0,0,1,3.232,1.043,2.115,2.115,0,0,1,.245,1.105.745.745,0,0,1-1.454.2,3.674,3.674,0,0,1-.085-.373.833.833,0,0,0-1.645.021,1.2,1.2,0,0,1-.421.82" transform="translate(-10.763 -57.948)"/>
        <path id="Trazado_212076" data-name="Trazado 212076" d="M90.743,10.945c1.04,0,2.081.006,3.121,0,.532,0,.934.147.969.753.028.5-.308.778-.938.779q-3.216.008-6.433,0c-.63,0-.966-.281-.937-.78.035-.605.439-.756.97-.752,1.083.008,2.166,0,3.249,0" transform="translate(-54.224 -6.858)"/>
        <path id="Trazado_212077" data-name="Trazado 212077" d="M90.716,22.393c-1.083,0-2.166,0-3.249,0-.632,0-.955-.274-.952-.77s.327-.757.963-.758c2.123,0,4.247,0,6.37,0,.529,0,.938.136.98.742.035.514-.315.788-.99.791-1.04,0-2.081,0-3.121,0" transform="translate(-54.219 -13.072)"/>
        <path id="Trazado_212078" data-name="Trazado 212078" d="M90.67,30.778c1.062,0,2.123.006,3.185,0,.53,0,.936.143.973.748.031.514-.316.784-1,.785q-3.153.005-6.306,0c-.687,0-1.016-.261-1.009-.777s.334-.751,1.034-.753c1.04,0,2.081,0,3.121,0" transform="translate(-54.219 -19.287)"/>
        <path id="Trazado_212079" data-name="Trazado 212079" d="M71.912,30.775c.446,0,.893-.016,1.337,0a.72.72,0,0,1,.778.75.706.706,0,0,1-.756.767q-1.336.038-2.674,0a.71.71,0,0,1-.749-.778.729.729,0,0,1,.791-.741c.424-.014.849,0,1.274,0" transform="translate(-43.773 -19.283)"/>
        <path id="Trazado_212080" data-name="Trazado 212080" d="M71.942,22.395h-1.21c-.527,0-.885-.245-.877-.784.007-.5.35-.745.85-.747.828,0,1.656-.006,2.484,0,.491,0,.837.231.841.75,0,.555-.36.775-.878.779-.4,0-.807,0-1.21,0" transform="translate(-43.778 -13.074)"/>
        <path id="Trazado_212081" data-name="Trazado 212081" d="M71.913,12.473c-.4,0-.807,0-1.21,0-.5,0-.839-.245-.851-.747a.727.727,0,0,1,.813-.781c.849-.011,1.7-.013,2.547,0,.493.008.824.256.816.774s-.35.742-.841.751c-.424.008-.849,0-1.274,0" transform="translate(-43.777 -6.854)"/>
        <path id="Trazado_212082" data-name="Trazado 212082" d="M60.458,10.949c.585.006.957.315.944.786s-.387.751-.984.746-.94-.286-.928-.787.351-.752.968-.746" transform="translate(-37.282 -6.862)" fill="#2a4368"/>
        <path id="Trazado_212083" data-name="Trazado 212083" d="M60.45,30.781c.588,0,.96.308.952.778s-.374.757-.976.754-.943-.279-.936-.778.344-.758.96-.754" transform="translate(-37.283 -19.291)" fill="#2a4368"/>
        <path id="Trazado_212084" data-name="Trazado 212084" d="M60.407,22.4c-.6-.007-.936-.294-.918-.8s.358-.745.978-.736c.581.008.954.326.934.8s-.4.744-.993.737" transform="translate(-37.282 -13.076)" fill="#2a4368"/>
      </g>
    </g>
  </g>
</svg>
