<svg xmlns="http://www.w3.org/2000/svg" xmlns:xlink="http://www.w3.org/1999/xlink" width="86" height="86" viewBox="0 0 86 86">
  <defs>
    <clipPath id="clip-path">
      <rect id="Rectángulo_338941" data-name="Rectángulo 338941" width="57.428" height="57.332" fill="none"/>
    </clipPath>
  </defs>
  <g id="Grupo_984056" data-name="Grupo 984056" transform="translate(-12618 9664)">
    <circle id="Elipse_4901" data-name="Elipse 4901" cx="43" cy="43" r="43" transform="translate(12618 -9664)" fill="#3c3fa7"/>
    <g id="Grupo_984055" data-name="Grupo 984055" transform="translate(12632 -9650)">
      <g id="Grupo_984054" data-name="Grupo 984054" clip-path="url(#clip-path)">
        <path id="Trazado_212085" data-name="Trazado 212085" d="M47.908,43.464l-.047-.011c-.012.024-.023.048-.033.072.027-.021.05-.041.08-.062" transform="translate(-30.433 -27.65)"/>
        <path id="Trazado_212086" data-name="Trazado 212086" d="M51.858,43.225h-.014l.007.011.007-.011" transform="translate(-32.989 -27.505)"/>
        <path id="Trazado_212087" data-name="Trazado 212087" d="M54.376,33.281a2.776,2.776,0,0,0,2.961-2.963q0-13.665,0-27.329A2.778,2.778,0,0,0,54.344,0Q42.556,0,30.768,0a2.786,2.786,0,0,0-3.016,3.022q0,4.275,0,8.551V12.5l-.23-.341c-3.427-5.1-8.183-7.3-14.27-6.367A13.776,13.776,0,0,0,1.885,18.874C1.81,24.015,1.852,29.158,1.872,34.3a4.584,4.584,0,0,0,3.742,4.441c.722.143,1.45.035,2.282.122l-.417.295A16.963,16.963,0,0,0,.22,50.684a46.361,46.361,0,0,0-.218,6c-.019.518.113.655.644.654q14.793-.027,29.585-.013c1.218,0,1.224,0,1.217-1.21a29.623,29.623,0,0,0-.275-5.875A16.941,16.941,0,0,0,20.635,37.383c-.248-.105-.427-.208-.477-.5-.105-.606-.236-1.207-.36-1.809a.324.324,0,0,1,.223-.439,6.384,6.384,0,0,0,3.909-4.8c.04-.193.11-.264.3-.252a5.175,5.175,0,0,0,3.528-.941c0,.7-.01,1.292,0,1.887a2.772,2.772,0,0,0,2.765,2.75c.5.01,1,0,1.5,0,1.271,0,1.283,0,1.273,1.267a2.255,2.255,0,0,0,3.958,1.638c.841-.848,1.7-1.68,2.526-2.54a1.131,1.131,0,0,1,.9-.373q6.847.019,13.695.007M6.186,36.954A2.681,2.681,0,0,1,3.728,34.4c-.043-1.884-.011-3.77-.011-5.752a4.892,4.892,0,0,0,3.288.939c.321-.019.484.024.566.422a6.16,6.16,0,0,0,2.288,3.7c.272.213.319.318.065.6a2.7,2.7,0,0,0-.531,2.667c-1.094,0-2.154.056-3.207-.014M7.41,25c0,.789,0,1.577,0,2.366,0,.149.083.326-.2.382a2.854,2.854,0,1,1,.009-5.562c.288.061.193.244.194.39.009.808,0,1.616,0,2.424m3.422,30.486c-.962-.033-1.926-.032-2.888,0-.417.013-.552-.077-.546-.527.027-2.118,0-4.236.023-6.354.005-.432-.1-.545-.536-.538-1.324.024-1.324,0-1.324,1.355,0,1.868-.008,3.735.007,5.6,0,.337-.057.471-.435.459-.962-.029-1.926-.014-2.888-.007-.236,0-.378-.007-.391-.324A16.61,16.61,0,0,1,4.277,45.057,15.565,15.565,0,0,1,8.99,40.373c.337-.216.459-.173.625.181.69,1.474,1.41,2.935,2.169,4.5l1.187-1.348c.287.571.5,1.019.735,1.454a.865.865,0,0,1,.018.67c-.763,3.057-1.53,6.113-2.282,9.173-.087.352-.223.491-.609.477M16.563,35.43c-.053-.227,0-.286.238-.305,1.113-.092,1.115-.1,1.333.977.263,1.3.263,1.3-.917,1.883-.378.188-.763.364-1.13.57a.537.537,0,0,1-.776-.113,2.751,2.751,0,0,0,1.253-3.011m-1.051,5.846c.16-.135.274-.2.421-.011.024.03.056.053.081.081.327.37.995.681.946,1.083a6.261,6.261,0,0,1-.812,1.813c-.1.2-.3.115-.572.15-.115.021-.253-.069-.333-.283a4.879,4.879,0,0,0-.227-.464c-.687-1.373-.684-1.369.5-2.369m-1.534-4.309c-.342.033-.689.007-1.034.007-.326,0-.653.023-.977,0a.908.908,0,0,1-.855-.913.891.891,0,0,1,.853-.912,17.57,17.57,0,0,1,2.01,0,.853.853,0,0,1,.823.877.894.894,0,0,1-.821.941M11.2,39.227c.315-.1.6-.4.968-.219.652.318,1.3.648,1.92.96L12.262,41.79c-.355-.728-.73-1.5-1.107-2.268-.054-.111-.1-.249.042-.294m2.028,16.219c.551-2.207,1.093-4.383,1.637-6.559.2-.8.409-1.6.6-2.4.041-.168.087-.275.293-.266s.2.135.234.265c.746,2.975,1.493,5.95,2.249,8.959Zm8.6-14.836c.185-.4.314-.466.7-.21a15.166,15.166,0,0,1,6.988,11.343c.131,1.115.059,2.231.1,3.346.01.3-.079.395-.386.389-.962-.019-1.926-.026-2.888,0-.372.011-.441-.114-.438-.456.015-2.137,0-4.274.017-6.411,0-.408-.064-.56-.522-.551-1.336.027-1.337,0-1.337,1.344,0,1.868-.012,3.735.009,5.6,0,.387-.113.479-.482.47-1.02-.024-2.041-.019-3.062,0a.393.393,0,0,1-.463-.36q-1.163-4.7-2.346-9.4a.739.739,0,0,1,.046-.558c.234-.437.448-.885.747-1.481l1.17,1.382c.756-1.557,1.473-3,2.149-4.455M20.3,39.275c.181.159-.075.376-.157.554-.3.66-.626,1.312-.971,2.029l-1.82-1.878c.676-.338,1.35-.718,2.061-1.009.3-.124.654.1.886.3m3.545-20.8a7.952,7.952,0,0,0-1.489-2.966c-.328-.426-.561-.438-.866-.021a2.969,2.969,0,0,1-.319.323c-.492.339-.5.64-.089,1.122a4.841,4.841,0,0,1,1.116,3.2c.011,2.849.022,5.7,0,8.547a4.581,4.581,0,0,1-4.6,4.584,26.548,26.548,0,0,1-4.61-.1A4.521,4.521,0,0,1,9.27,28.784q-.043-4.244,0-8.49A3.709,3.709,0,0,1,13.2,16.634a.609.609,0,0,1,.513.292,5.252,5.252,0,0,1,1.079,2.991c.013.37.129.48.466.424a.677.677,0,0,1,.115,0c1.408,0,1.409,0,1.171-1.425a8.166,8.166,0,0,0-1.384-3.194h0a2.132,2.132,0,0,0-1.91-.957,5.686,5.686,0,0,0-5.627,4.06h0l-.124.511a1.378,1.378,0,0,1,.016-.984A8.228,8.228,0,0,1,13.4,11.432,8.339,8.339,0,0,1,23.908,17.84a5.079,5.079,0,0,1,.045.517h0c.139.2.084.417.105.733a1.15,1.15,0,0,1-.213-.61m.382,9.26c-.238-.065-.17-.22-.171-.354-.007-.808,0-1.616,0-2.423s0-1.616,0-2.424c0-.163-.044-.315.23-.359a2.9,2.9,0,0,1,3.463,2.925,2.942,2.942,0,0,1-3.52,2.634m3.466-6.507a5.014,5.014,0,0,0-1.557-.738c-.36-.083-.233-.354-.228-.552a10.666,10.666,0,0,0-.89-4.661A10.176,10.176,0,0,0,5.568,19.992c.017.319-.063.492-.4.559a5.009,5.009,0,0,0-1.424.68c-.362-4.959,1.178-9.072,5.386-11.818a11.413,11.413,0,0,1,12.952-.164c4.2,2.563,6.095,7,5.608,11.984m15.4,8.49c-.18.261-.3.761-.532.74-.33-.029-.395-.522-.658-.849h1.209a.471.471,0,0,1-.019.108m-.575-1.987h-.116c-1.816,0-1.81,0-2.661-1.588-.117-.22-.107-.326.1-.462a2.528,2.528,0,0,0,1.038-1.412c.075-.244.2-.263.416-.258.827.017,1.655.025,2.481,0,.265-.009.366.063.442.305a2.453,2.453,0,0,0,1.015,1.359c.247.16.242.308.076.505a.2.2,0,0,0-.028.05,2.107,2.107,0,0,1-2.764,1.5m8.884,3.7c-2.36-.009-4.721-.005-7.192-.005,1.029-1.648,2-3.19,2.956-4.739a.32.32,0,0,1,.463-.157,6.137,6.137,0,0,1,4.018,4.54c.051.2.064.363-.245.362M32.42,18.333a4.015,4.015,0,0,1-.06,5.011,4.565,4.565,0,0,0-.253,5.162.615.615,0,0,1,.036.635,6.835,6.835,0,0,0-.582,1.983c-.015.109,0,.226-.132.295A1.271,1.271,0,0,1,29.6,30.26q0-12.421,0-24.842c0-.809,0-1.618,0-2.426s.327-1.141,1.165-1.141q11.787,0,23.574,0c.824,0,1.148.327,1.148,1.158q0,6.846,0,13.692,0,6.759,0,13.518A1.255,1.255,0,0,1,53.7,31.429c-.176-.067-.153-.2-.172-.323a7.171,7.171,0,0,0-.586-1.982.566.566,0,0,1,.022-.584,4.669,4.669,0,0,0-.3-5.313,3.9,3.9,0,0,1-.76-3.311,4.18,4.18,0,0,1,.606-1.3,6.054,6.054,0,0,0,.367-6.5c-.557-1.1-1.06-2.222-1.67-3.287a9.461,9.461,0,0,0-8.7-5.11,9.457,9.457,0,0,0-8.63,5.129c-.671,1.185-1.27,2.415-1.84,3.652a5.709,5.709,0,0,0,.383,5.828m1.8-.567a4.418,4.418,0,0,1-.267-4.988,33.312,33.312,0,0,1,2.157-4.007,8.04,8.04,0,0,1,13.5.982c.608,1.135,1.177,2.293,1.734,3.455a4.046,4.046,0,0,1-.272,4.222,5.578,5.578,0,0,0,.061,6.822,2.911,2.911,0,0,1,.49,2.778,7.94,7.94,0,0,0-3.086-2.137c-.558-.2-1.138-.348-1.712-.5a1.193,1.193,0,0,1-.724-.434c-.228-.325-.262-.582.123-.866a4.493,4.493,0,0,0,1.875-3.832c0-1.868-.026-3.735.014-5.6.012-.579-.131-.822-.72-.714a.965.965,0,0,1-.23-.012c-.914.037-.914.037-.914.952,0,1.79,0,3.581,0,5.371a2.777,2.777,0,0,1-2.931,2.936c-.578,0-1.155.011-1.733,0a2.757,2.757,0,0,1-2.725-2.727c-.021-1.559-.015-3.119,0-4.678a1.7,1.7,0,0,1,1.281-1.717c.517-.118.646-.343.566-.8a1,1,0,0,1,.013-.229c-.044-1.053-.093-1.087-1.112-.771A3.684,3.684,0,0,0,37,14.714c-.02,1.617-.033,3.235,0,4.851A4.4,4.4,0,0,0,38.743,23c.572.462.49,1.03-.217,1.3a7.785,7.785,0,0,1-.89.235,8.127,8.127,0,0,0-4.11,2.44,2.431,2.431,0,0,1,.289-2.5,7.289,7.289,0,0,0,1.231-2.645,5.248,5.248,0,0,0-.825-4.074M38.227,32.58c-.722.773-1.489,1.5-2.241,2.249-.158.157-.3.374-.585.246-.264-.119-.256-.351-.255-.588,0-.847-.029-1.695.013-2.54.023-.457-.138-.569-.55-.519-.247.03-.5-.014-.749.01-.382.037-.511-.064-.4-.472a6.156,6.156,0,0,1,3.892-4.39c.217-.085.4-.175.575.119.95,1.555,1.923,3.1,2.888,4.64,0,.059,0,.119,0,.178-1.227-.431-1.889.322-2.584,1.067" transform="translate(0 -0.001)"/>
        <path id="Trazado_212088" data-name="Trazado 212088" d="M128.053,96.573q-7.857.019-15.716,0c-.377,0-.478.095-.472.472.023,1.521.028,3.043,0,4.564-.008.435.1.535.534.531,2.6-.023,5.2-.011,7.8-.011,2.619,0,5.239-.008,7.858.009.378,0,.478-.1.472-.472q-.033-2.31,0-4.621c.005-.379-.1-.472-.474-.471m-2.7,3.706c-3.7,0-7.393-.009-11.09.013-.47,0-.56-.139-.552-.572.025-1.29.007-1.29,1.323-1.29h5.2c1.983,0,3.966.013,5.949-.011.419-.005.5.121.494.512-.017,1.347,0,1.347-1.323,1.347" transform="translate(-71.179 -61.45)"/>
        <path id="Trazado_212089" data-name="Trazado 212089" d="M122.452,127.069c-3.062.021-6.124.011-9.186.011-1.4,0-1.389,0-1.4,1.386,0,.377.1.476.474.472,1.675-.021,3.351-.009,5.026-.009h4.275c1.337,0,1.315,0,1.342-1.329.009-.433-.1-.535-.533-.532" transform="translate(-71.183 -80.855)"/>
        <path id="Trazado_212090" data-name="Trazado 212090" d="M137.792,116.907c-1.694.021-3.389.009-5.084.009H128.49c-1.37,0-1.352,0-1.371,1.356-.006.4.094.506.5.5,3.081-.019,6.162-.01,9.244-.01,1.383,0,1.37,0,1.37-1.414,0-.354-.083-.449-.443-.445" transform="translate(-80.887 -74.389)"/>
        <path id="Trazado_212091" data-name="Trazado 212091" d="M113.079,118.77H114c1.517,0,1.512,0,1.441-1.511-.011-.223-.024-.349-.3-.344-1.039.016-2.079.009-3.119,0-.176,0-.259.027-.288.241-.2,1.492-.113,1.61,1.346,1.61" transform="translate(-71.045 -74.394)"/>
        <path id="Trazado_212092" data-name="Trazado 212092" d="M149.737,127.1h-.982c-1.532,0-1.525,0-1.388,1.567.02.229.087.288.3.286,1.039-.009,2.079-.006,3.119,0,.173,0,.261-.023.291-.239.208-1.483.107-1.612-1.343-1.612" transform="translate(-93.735 -80.875)"/>
        <path id="Trazado_212093" data-name="Trazado 212093" d="M133.142,137.268c-.909,0-.909,0-.909.883,0,.966,0,.966.94.966.909,0,.909,0,.909-.883,0-.966,0-.966-.94-.966" transform="translate(-84.141 -87.345)"/>
        <path id="Trazado_212094" data-name="Trazado 212094" d="M143.4,137.268c-.994,0-.994,0-.994.97,0,.879,0,.879.855.879.994,0,.994,0,.994-.97,0-.879,0-.879-.855-.879" transform="translate(-90.612 -87.345)"/>
        <path id="Trazado_212095" data-name="Trazado 212095" d="M153.505,137.268c-.933,0-.933,0-.933.916,0,.933,0,.933.916.933.933,0,.933,0,.933-.916,0-.933,0-.933-.916-.933" transform="translate(-97.083 -87.345)"/>
        <path id="Trazado_212096" data-name="Trazado 212096" d="M85.661,12.089a9.892,9.892,0,0,1,17.329-.019c.61,1.065,1.113,2.192,1.67,3.287a6.054,6.054,0,0,1-.367,6.5,4.187,4.187,0,0,0-.606,1.3,3.9,3.9,0,0,0,.76,3.311,4.669,4.669,0,0,1,.3,5.313.566.566,0,0,0-.022.584,7.171,7.171,0,0,1,.586,1.982c.019.124,0,.256.172.323a1.255,1.255,0,0,0,1.789-1.209q0-6.759,0-13.518,0-6.846,0-13.692c0-.831-.324-1.158-1.148-1.158q-11.787,0-23.574,0c-.838,0-1.16.319-1.165,1.141s0,1.617,0,2.426q0,12.421,0,24.842a1.271,1.271,0,0,0,1.826,1.158c.129-.069.117-.185.132-.295a6.823,6.823,0,0,1,.582-1.983.615.615,0,0,0-.035-.635,4.565,4.565,0,0,1,.253-5.162,4.015,4.015,0,0,0,.06-5.011,5.709,5.709,0,0,1-.384-5.828c.57-1.237,1.169-2.467,1.84-3.652" transform="translate(-51.786 -3.236)" fill="#e5e8ec"/>
        <path id="Trazado_212097" data-name="Trazado 212097" d="M92.075,34.2a2.431,2.431,0,0,0-.289,2.5,8.127,8.127,0,0,1,4.11-2.44,7.785,7.785,0,0,0,.89-.235c.707-.272.79-.84.217-1.3a4.4,4.4,0,0,1-1.735-3.439c-.037-1.616-.024-3.234,0-4.851a3.684,3.684,0,0,1,2.6-3.455c1.019-.316,1.067-.282,1.111.771h1.818c.04-.934.04-.934,1-.934.843,0,.843,0,.883.934.6,0,1.194-.015,1.79-.007s.867.267.958.907a.965.965,0,0,0,.23.012c.588-.108.732.135.72.714-.04,1.866-.018,3.734-.014,5.6a4.493,4.493,0,0,1-1.875,3.832c-.385.284-.351.542-.123.866a1.192,1.192,0,0,0,.724.434c.574.155,1.154.3,1.712.5a7.939,7.939,0,0,1,3.086,2.137,2.911,2.911,0,0,0-.49-2.778,5.578,5.578,0,0,1-.061-6.822,4.046,4.046,0,0,0,.273-4.222c-.558-1.162-1.126-2.319-1.734-3.455a8.04,8.04,0,0,0-13.5-.982,33.335,33.335,0,0,0-2.157,4.007,4.417,4.417,0,0,0,.268,4.988,5.249,5.249,0,0,1,.824,4.074A7.283,7.283,0,0,1,92.075,34.2" transform="translate(-58.26 -9.716)" fill="#656d78"/>
        <path id="Trazado_212098" data-name="Trazado 212098" d="M35.05,43.191l-.007.011a8.277,8.277,0,0,1,1.486,3.909c.05.508-.016.8-.625.708-.375-.054-.839.1-1.121-.069s-.111-.668-.181-1.02a4.769,4.769,0,0,0-1.042-2.33c-.4-.441-.388-.742.015-1.053.01-.024.021-.048.033-.073a11.769,11.769,0,0,0-2.272-.083,8.172,8.172,0,0,1,1.383,3.195c.238,1.427.237,1.427-1.171,1.424a.717.717,0,0,0-.115,0c-.337.056-.453-.054-.466-.424A5.251,5.251,0,0,0,29.89,44.4a.609.609,0,0,0-.513-.292,3.709,3.709,0,0,0-3.929,3.661q-.033,4.244,0,8.49a4.52,4.52,0,0,0,3.718,4.389,26.516,26.516,0,0,0,4.611.1,4.581,4.581,0,0,0,4.6-4.584c.023-2.849.013-5.7,0-8.547a4.842,4.842,0,0,0-1.116-3.2c-.411-.482-.4-.783.089-1.122a10.4,10.4,0,0,0-2.3-.095m.593,6.47a.922.922,0,1,1-.954.931.929.929,0,0,1,.954-.931m-7.411,0a.922.922,0,1,1-.939.888.928.928,0,0,1,.939-.888M31.788,58.9a4.74,4.74,0,0,1-4.508-5.269c.036-.357.239-.275.43-.275,1.4,0,2.807,0,4.211,0,1.385,0,2.769.015,4.154-.01.386-.007.454.113.472.478A4.688,4.688,0,0,1,31.788,58.9" transform="translate(-16.181 -27.471)" fill="#efcfb3"/>
        <path id="Trazado_212099" data-name="Trazado 212099" d="M16.907,115.567c-.236-.435-.448-.883-.735-1.454l-1.187,1.348c-.758-1.567-1.479-3.027-2.169-4.5-.165-.354-.288-.4-.624-.181a15.561,15.561,0,0,0-4.712,4.684,16.608,16.608,0,0,0-2.423,10.093c.013.318.155.326.391.324.963-.007,1.926-.023,2.888.007.378.012.438-.123.435-.459-.015-1.868-.007-3.735-.007-5.6,0-1.351,0-1.331,1.324-1.355.434-.008.541.105.536.538-.024,2.118,0,4.236-.023,6.354-.006.45.129.54.547.527.962-.032,1.926-.032,2.888,0,.387.013.523-.125.609-.477.752-3.06,1.519-6.116,2.282-9.173a.863.863,0,0,0-.018-.67" transform="translate(-3.202 -70.406)" fill="#75b0f1"/>
        <path id="Trazado_212100" data-name="Trazado 212100" d="M49.43,114.1c-.3.6-.513,1.043-.747,1.481a.738.738,0,0,0-.046.558q1.175,4.7,2.346,9.4a.392.392,0,0,0,.463.36c1.02-.017,2.041-.023,3.061,0,.369.009.487-.083.483-.47-.021-1.868-.009-3.735-.009-5.6,0-1.341,0-1.317,1.337-1.344.458-.009.526.143.522.551-.02,2.137,0,4.274-.017,6.412,0,.342.065.467.438.456.962-.029,1.926-.022,2.888,0,.307.006.4-.085.386-.389-.039-1.115.033-2.231-.1-3.346a15.165,15.165,0,0,0-6.988-11.343c-.384-.256-.513-.189-.7.21-.676,1.458-1.394,2.9-2.149,4.456L49.43,114.1" transform="translate(-30.927 -70.417)" fill="#75b0f1"/>
        <path id="Trazado_212101" data-name="Trazado 212101" d="M28.551,22.045a11.412,11.412,0,0,0-12.952.164c-4.207,2.746-5.747,6.859-5.386,11.818a5.02,5.02,0,0,1,1.424-.68c.334-.067.414-.239.4-.559a10.175,10.175,0,0,1,19.451-4.709,10.667,10.667,0,0,1,.89,4.661c0,.2-.132.469.228.552a5.007,5.007,0,0,1,1.557.737c.486-4.979-1.409-9.421-5.608-11.983" transform="translate(-6.466 -12.797)" fill="#a9b1bc"/>
        <path id="Trazado_212102" data-name="Trazado 212102" d="M113.539,33.216a2.109,2.109,0,0,1-1.179-.1c-.005.792-.021,1.585-.009,2.378,0,.277-.082.345-.355.356-1.5.062-1.5.071-1.5-1.391,0-.447-.009-.894-.014-1.341-.009.008-.014.019-.025.026a2.638,2.638,0,0,1-1.794-.066,1.007,1.007,0,0,0-.013.23c.08.46-.049.686-.566.8a1.7,1.7,0,0,0-1.281,1.717c-.014,1.56-.02,3.119,0,4.678a2.758,2.758,0,0,0,2.726,2.728c.577.014,1.155.007,1.733,0a2.777,2.777,0,0,0,2.93-2.936c.006-1.79,0-3.581,0-5.371,0-.914,0-.914.914-.952a1.474,1.474,0,0,0-1.57-.758" transform="translate(-67.951 -21.045)" fill="#efcfb3"/>
        <path id="Trazado_212103" data-name="Trazado 212103" d="M123.9,33.05c-.6-.008-1.194,0-1.791.007,0,.012,0,.025,0,.038a2.107,2.107,0,0,0,1.178.1,1.474,1.474,0,0,1,1.57.758c-.091-.64-.354-.9-.957-.907" transform="translate(-77.697 -21.028)" fill="#efcfb3"/>
        <path id="Trazado_212104" data-name="Trazado 212104" d="M113.731,33.14a.336.336,0,0,0,.025-.026c0-.013,0-.027,0-.04h-1.818a2.639,2.639,0,0,0,1.794.066" transform="translate(-71.227 -21.045)" fill="#efcfb3"/>
        <path id="Trazado_212105" data-name="Trazado 212105" d="M37.092,37.769h0a5.186,5.186,0,0,0-.045-.517,8.339,8.339,0,0,0-10.506-6.409,8.229,8.229,0,0,0-5.892,6.919c.051.154-.039.341.108.473a5.686,5.686,0,0,1,5.627-4.06,2.132,2.132,0,0,1,1.911.957,3.491,3.491,0,0,1,2.277-.041c.01.015.034.038.03.045-.016.027-.022.052-.035.079l.048.011a.431.431,0,0,0,.09-.06c.639-.7.639-.7,1.29-.033h.014a.543.543,0,0,1,.092-.1,6.822,6.822,0,0,1,1.821-.053c.16.005.356.02.388.252a3,3,0,0,0,.319-.323c.305-.417.538-.406.866.021a7.951,7.951,0,0,1,1.489,2.966l.108-.123h0" transform="translate(-13.139 -19.412)" fill="#b17946"/>
        <path id="Trazado_212106" data-name="Trazado 212106" d="M53.8,42.733a6.834,6.834,0,0,0-1.821.053.557.557,0,0,0-.092.1,10.374,10.374,0,0,1,2.3.095c-.032-.233-.228-.247-.388-.252" transform="translate(-33.013 -27.17)" fill="#b17946"/>
        <path id="Trazado_212107" data-name="Trazado 212107" d="M43.944,42.938c.013-.026.02-.051.035-.078,0-.007-.02-.031-.03-.045a3.493,3.493,0,0,0-2.277.041,11.828,11.828,0,0,1,2.272.083" transform="translate(-26.516 -27.135)" fill="#b17946"/>
        <path id="Trazado_212108" data-name="Trazado 212108" d="M99.286,77.686c-.965-1.545-1.939-3.086-2.888-4.64-.179-.293-.358-.2-.575-.118a6.155,6.155,0,0,0-3.892,4.389c-.108.408.021.51.4.472.248-.024.5.02.75-.01.412-.05.573.062.55.519-.043.844-.01,1.693-.014,2.54,0,.237-.009.468.255.588.283.128.426-.089.585-.246.751-.745,1.519-1.476,2.241-2.249.695-.744,1.358-1.5,2.584-1.067,0-.059,0-.119,0-.178" transform="translate(-58.473 -46.352)" fill="#b3dc7e"/>
        <path id="Trazado_212109" data-name="Trazado 212109" d="M38.9,127.089c-.206-.009-.252.1-.293.266-.2.8-.4,1.6-.6,2.4-.544,2.176-1.086,4.352-1.637,6.559h5.017c-.755-3.009-1.5-5.984-2.249-8.959-.033-.131-.042-.257-.234-.265" transform="translate(-23.138 -80.868)" fill="#fbd670"/>
        <path id="Trazado_212110" data-name="Trazado 212110" d="M124.989,72.892a.32.32,0,0,0-.463.157c-.959,1.549-1.926,3.091-2.956,4.739,2.471,0,4.831,0,7.192.005.309,0,.3-.157.245-.362a6.137,6.137,0,0,0-4.018-4.54" transform="translate(-77.356 -46.356)" fill="#b3dc7e"/>
        <path id="Trazado_212111" data-name="Trazado 212111" d="M13.708,60.881a2.854,2.854,0,1,0-.009,5.562c.286-.056.2-.233.2-.382.008-.788,0-1.577,0-2.366,0-.808,0-1.616,0-2.424,0-.145.093-.329-.194-.39" transform="translate(-6.497 -38.7)" fill="#efcfb3"/>
        <path id="Trazado_212112" data-name="Trazado 212112" d="M66.358,60.915c-.275.044-.229.2-.23.359,0,.808,0,1.616,0,2.423s0,1.616,0,2.424c0,.133-.067.288.171.354a2.942,2.942,0,0,0,3.52-2.635,2.9,2.9,0,0,0-3.463-2.925" transform="translate(-42.074 -38.735)" fill="#efcfb3"/>
        <path id="Trazado_212113" data-name="Trazado 212113" d="M114.69,68.245a.191.191,0,0,1,.029-.05c.166-.2.17-.345-.077-.505a2.453,2.453,0,0,1-1.015-1.359c-.076-.242-.177-.314-.442-.305-.826.027-1.654.019-2.481,0-.22,0-.342.015-.416.258a2.53,2.53,0,0,1-1.038,1.412c-.206.135-.217.242-.1.462.851,1.585.845,1.588,2.661,1.588h.116a2.107,2.107,0,0,0,2.764-1.5" transform="translate(-69.405 -42.012)" fill="#efcfb3"/>
        <path id="Trazado_212114" data-name="Trazado 212114" d="M33.416,96.591a17.565,17.565,0,0,0-2.01,0,.891.891,0,0,0-.853.912.908.908,0,0,0,.855.913c.323.028.651.005.977,0,.345,0,.692.026,1.034-.007a.894.894,0,0,0,.821-.941.853.853,0,0,0-.823-.877" transform="translate(-19.441 -61.442)" fill="#a9b1bc"/>
        <path id="Trazado_212115" data-name="Trazado 212115" d="M42.1,99.828a.537.537,0,0,0,.776.113c.368-.206.752-.382,1.131-.57,1.179-.586,1.18-.586.917-1.883-.217-1.074-.22-1.068-1.333-.977-.237.02-.291.078-.238.306A2.75,2.75,0,0,1,42.1,99.828" transform="translate(-26.786 -61.388)" fill="#eecfb3"/>
        <path id="Trazado_212116" data-name="Trazado 212116" d="M40.474,115.635a4.889,4.889,0,0,1,.227.464c.08.214.218.3.334.283.271-.035.472.052.572-.15a6.265,6.265,0,0,0,.812-1.813c.048-.4-.62-.712-.946-1.083-.025-.029-.058-.051-.081-.081-.147-.188-.261-.125-.421.011-1.179,1-1.183,1-.5,2.369" transform="translate(-25.459 -71.991)" fill="#fec629"/>
        <path id="Trazado_212117" data-name="Trazado 212117" d="M30.582,107.668c.376.77.751,1.54,1.107,2.268l1.822-1.822c-.622-.312-1.268-.642-1.92-.96-.371-.181-.653.117-.968.219-.137.044-.1.183-.042.294" transform="translate(-19.427 -68.147)" fill="#5c9bea"/>
        <path id="Trazado_212118" data-name="Trazado 212118" d="M49.775,107.091c-.711.292-1.386.672-2.061,1.009l1.82,1.878c.345-.716.666-1.369.971-2.029.082-.178.338-.395.157-.554-.232-.2-.583-.428-.886-.3" transform="translate(-30.361 -68.121)" fill="#5c9bea"/>
        <path id="Trazado_212119" data-name="Trazado 212119" d="M115.882,82.276c.228.02.352-.48.532-.741a.462.462,0,0,0,.019-.108h-1.21c.264.327.329.819.659.849" transform="translate(-73.318 -51.813)" fill="#f6e2a1"/>
        <path id="Trazado_212120" data-name="Trazado 212120" d="M20.475,50.456a1.38,1.38,0,0,0-.016.984l.124-.511c-.276-.1-.121-.3-.108-.473" transform="translate(-12.965 -32.106)" fill="#8e6138"/>
        <path id="Trazado_212121" data-name="Trazado 212121" d="M20.659,50.929c-.147-.132-.057-.319-.108-.473-.013.169-.169.37.108.473" transform="translate(-13.042 -32.106)" fill="#8e6138"/>
        <path id="Trazado_212122" data-name="Trazado 212122" d="M65.671,50.474c.053.119-.005.141-.108.123a1.157,1.157,0,0,0,.213.61c-.022-.316.034-.534-.105-.733" transform="translate(-41.718 -32.117)" fill="#8c5f37"/>
        <path id="Trazado_212123" data-name="Trazado 212123" d="M65.671,50.473h0l-.108.123c.1.018.161,0,.108-.123" transform="translate(-41.718 -32.116)" fill="#8c5f37"/>
        <path id="Trazado_212124" data-name="Trazado 212124" d="M129.422,101.651c-1.983.024-3.966.011-5.949.011h-5.2c-1.316,0-1.3,0-1.323,1.289-.009.433.082.575.552.572,3.7-.023,7.393-.012,11.09-.012,1.322,0,1.306,0,1.323-1.347.005-.391-.075-.518-.494-.512" transform="translate(-74.417 -64.681)" fill="#e5e8ec"/>
        <path id="Trazado_212125" data-name="Trazado 212125" d="M117.163,33.423a.822.822,0,0,0,1.262.822c.23-.1.222-.292.229-.478.017-.459,0-.918.01-1.377a.875.875,0,0,1,.163-.667l-.019-.009a.9.9,0,0,1-.061-.1c-.119-.205.019-.548-.28-.64a2.433,2.433,0,0,0-1.073-.017c-.153.023-.2.153-.233.291a.853.853,0,0,1-.17.465.79.79,0,0,1,.167.616c.012.363,0,.727,0,1.09" transform="translate(-74.443 -19.668)"/>
        <path id="Trazado_212126" data-name="Trazado 212126" d="M117.126,30.995c.03-.137.081-.268.233-.291a2.433,2.433,0,0,1,1.073.017c.3.092.161.435.28.64a.816.816,0,0,0,.061.1l.018.009c.008-.008.015-.017.025-.026-.04-.934-.04-.934-.883-.934-.957,0-.957,0-1,.934.008.006.013.013.02.02a.855.855,0,0,0,.169-.465" transform="translate(-74.408 -19.411)"/>
        <path id="Trazado_212127" data-name="Trazado 212127" d="M118.631,33.8c-.013.459.006.918-.01,1.377-.007.186,0,.38-.229.478a.822.822,0,0,1-1.262-.822c0-.364.008-.727,0-1.09a.792.792,0,0,0-.167-.616.245.245,0,0,1-.019.02c.005.447.013.894.014,1.341,0,1.462,0,1.454,1.5,1.391.273-.011.359-.079.355-.356-.012-.792,0-1.585.009-2.378l-.024-.012a.877.877,0,0,0-.163.668" transform="translate(-74.409 -21.08)"/>
        <path id="Trazado_212128" data-name="Trazado 212128" d="M122.063,33.112c0-.013,0-.025,0-.038-.009.008-.016.017-.025.026l.024.012" transform="translate(-77.655 -21.045)"/>
        <path id="Trazado_212129" data-name="Trazado 212129" d="M116.938,33.114a.241.241,0,0,0,.019-.02.245.245,0,0,0-.019-.02c0,.013,0,.027,0,.04" transform="translate(-74.409 -21.045)"/>
        <path id="Trazado_212130" data-name="Trazado 212130" d="M39.267,71.15c-1.384.025-2.769.01-4.154.01-1.4,0-2.807,0-4.211,0-.192,0-.395-.081-.43.276a4.74,4.74,0,0,0,4.508,5.269,4.688,4.688,0,0,0,4.759-5.078c-.017-.365-.086-.485-.472-.478m-1.718,2.231a2.77,2.77,0,0,1-4.89,0c-.191-.326-.061-.383.252-.377.731.013,1.462,0,2.193,0s1.463.009,2.194,0c.315-.006.44.052.251.377" transform="translate(-19.374 -45.273)"/>
        <path id="Trazado_212131" data-name="Trazado 212131" d="M48.122,44.685A4.967,4.967,0,0,1,48.93,47c.04.433.191.6.637.591.984-.009,1-.021.86-1.009a6.893,6.893,0,0,0-1.056-2.831c-.119-.182-.358-.381-.2-.624l-.007-.011a2.407,2.407,0,0,0-1.38.093c-.031.021-.053.041-.08.062-.227.554.12.962.422,1.415" transform="translate(-30.306 -27.394)"/>
        <path id="Trazado_212132" data-name="Trazado 212132" d="M48.961,43.879a6.894,6.894,0,0,1,1.056,2.831c.14.987.124,1-.86,1.009-.446,0-.6-.158-.637-.591a4.969,4.969,0,0,0-.808-2.314c-.3-.452-.649-.861-.422-1.415-.4.311-.411.612-.015,1.053a4.772,4.772,0,0,1,1.042,2.33c.069.352-.09.855.181,1.02s.746.015,1.121.069c.609.087.675-.2.624-.708a8.276,8.276,0,0,0-1.486-3.909c-.154.243.085.442.2.624" transform="translate(-29.895 -27.524)"/>
        <path id="Trazado_212133" data-name="Trazado 212133" d="M49.428,42.351h0c-.651-.671-.651-.671-1.29.033a.451.451,0,0,1-.09.06,2.4,2.4,0,0,1,1.38-.093" transform="translate(-30.573 -26.631)"/>
        <path id="Trazado_212134" data-name="Trazado 212134" d="M51.806,62.859a.922.922,0,1,0-.917-.911.931.931,0,0,0,.917.911" transform="translate(-32.381 -38.825)" fill="#020202"/>
        <path id="Trazado_212135" data-name="Trazado 212135" d="M31.481,62.86a.922.922,0,1,0-.931-.955.931.931,0,0,0,.931.955" transform="translate(-19.439 -38.825)" fill="#020202"/>
        <path id="Trazado_212136" data-name="Trazado 212136" d="M41.013,76.248c-.731.013-1.462,0-2.194,0s-1.463.009-2.193,0c-.313-.006-.444.051-.252.377a2.77,2.77,0,0,0,4.89,0c.189-.325.064-.383-.251-.377" transform="translate(-23.088 -48.517)" fill="#fe816d"/>
      </g>
    </g>
  </g>
</svg>
