<svg xmlns="http://www.w3.org/2000/svg" xmlns:xlink="http://www.w3.org/1999/xlink" width="86" height="86" viewBox="0 0 86 86">
  <defs>
    <clipPath id="clip-path">
      <rect id="Rectángulo_338942" data-name="Rectángulo 338942" width="57.096" height="59.434" fill="none"/>
    </clipPath>
  </defs>
  <g id="Grupo_984059" data-name="Grupo 984059" transform="translate(-12940 9661)">
    <circle id="Elipse_4902" data-name="Elipse 4902" cx="43" cy="43" r="43" transform="translate(12940 -9661)" fill="#3c3fa7"/>
    <g id="Grupo_984058" data-name="Grupo 984058" transform="translate(12954 -9648)">
      <g id="Grupo_984057" data-name="Grupo 984057" clip-path="url(#clip-path)">
        <path id="Trazado_212137" data-name="Trazado 212137" d="M34.006,49.021c.781-.124.955-.017,1.311.7a11.93,11.93,0,0,1,.887,4.573c.069.906.124,1.813.2,2.719a2.119,2.119,0,0,1-2.181,2.42q-16.072.006-32.143,0a1.692,1.692,0,0,1-1.75-2.284q1.935-7.508,3.884-15.012a2.562,2.562,0,0,1,.43-.874c1.171-1.609,2.324-3.231,3.5-4.834.205-.279.234-.445-.014-.726a11.975,11.975,0,0,1-2.1-3.313.64.64,0,0,0-.738-.454c-.6.031-1.2.016-1.8.006a3.446,3.446,0,0,1-3.469-3.22A4.057,4.057,0,0,1,1,25.27c.2-.2.126-.433.12-.656C1.053,22.332.968,20.052.923,17.77A7.394,7.394,0,0,1,5.88,10.25a.983.983,0,0,0,.466-.4A12.847,12.847,0,0,1,17.208,3.889a32.57,32.57,0,0,1,6.771.243,15.686,15.686,0,0,1,9.9,6.13c.059.076.118.152.179.226.011.013.034.017.06.028.179-.1.082-.273.082-.4.008-1.973,0-3.946.006-5.919A3.8,3.8,0,0,1,36.983.135c.073-.028.147-.042.159-.135H53.856a4.763,4.763,0,0,1,1.966.979,3.765,3.765,0,0,1,1.261,2.828c.013,5.087.022,10.174,0,15.261a3.768,3.768,0,0,1-3.848,3.805q-2.9.025-5.8,0a.99.99,0,0,0-.88.433c-.841,1.108-1.7,2.2-2.554,3.3a1.489,1.489,0,0,1-1.757.655,1.467,1.467,0,0,1-.921-1.579c0-.677-.009-1.354,0-2.031.01-.534-.232-.77-.768-.776a29.4,29.4,0,0,1-3.525-.082c0,.661.009,1.334,0,2.007-.005.261.193.363.33.513,1.958,2.136.912,5.939-1.812,6.56a8.8,8.8,0,0,1-1.966.066.519.519,0,0,0-.57.352,14.894,14.894,0,0,1-5.945,6.7.621.621,0,0,0-.352.732A2.662,2.662,0,0,1,25.4,42.583c-.44.271-.406.528-.241.892a1.672,1.672,0,0,0,1.335.987c1.084.186,2.181.295,3.251.564a8.017,8.017,0,0,1,2.228.945c.594.362.686.621.485,1.3a.8.8,0,0,1-1,.518,1.83,1.83,0,0,1-.478-.206,10.209,10.209,0,0,0-4.041-1.12,1.575,1.575,0,0,0-1.588.392A8.835,8.835,0,0,1,20.6,48.8a6.336,6.336,0,0,1-2.185.014,1.639,1.639,0,0,0-.914.064,6.136,6.136,0,0,1-2.61.4c-.79-.023-1.582.008-2.373-.01a.712.712,0,0,0-.824.611c-.593,2.358-1.225,4.7-1.82,7.061-.134.531-.1.574.43.589.308.009.617,0,.927,0,5.234-.033,10.468,0,15.7-.016,1.613,0,1.421.14,1.436-1.423,0-.483,0-.965,0-1.449a3.326,3.326,0,0,1,.027-.52,1.087,1.087,0,0,1,1.047-.978,1.013,1.013,0,0,1,.991.953,17.51,17.51,0,0,1,.04,2.2c.01,1.312-.062,1.211,1.24,1.219a5.359,5.359,0,0,1,.578.013c.558-.005,1.116.014,1.675-.007.342-.013.546-.158.512-.538-.136-1.552-.191-3.11-.378-4.658a9.326,9.326,0,0,0-.6-2.043.852.852,0,0,1,.508-1.255" transform="translate(0)"/>
        <path id="Trazado_212138" data-name="Trazado 212138" d="M63.417,109.117a9.479,9.479,0,0,1,4.176,1.143c.591.363.867.3,1.354-.2l1.551,1.751a.96.96,0,0,0-.305,1.363,9.129,9.129,0,0,1,.738,3.6c.085,1.037.148,2.077.231,3.115.034.417-.127.614-.557.6-.578-.018-1.157-.016-1.735-.023a1.306,1.306,0,0,1-.246-.817c-.052-1.174-.165-2.343-.249-3.515a7.5,7.5,0,0,0-4.416-6.571c-.211-.105-.5-.122-.543-.442" transform="translate(-36.492 -62.789)" fill="#8bc851"/>
        <path id="Trazado_212139" data-name="Trazado 212139" d="M30.192,57.648H23.57c.4-.571.761-1.085,1.118-1.6a2.835,2.835,0,0,0-.594-4.1,2.888,2.888,0,0,0-4.129.737c-.551.745-1.088,1.5-1.663,2.293a11.286,11.286,0,0,1-2.619-5.349,18.918,18.918,0,0,1,.3-7.193c.164-.827.1-1.039-.523-1.4a.32.32,0,0,1-.08-.366,4.279,4.279,0,0,1,.785-1.8.9.9,0,0,0,1.226-.514,14.051,14.051,0,0,1,1.582-2.419c.549-.659.749-.663,1.318-.041a12.913,12.913,0,0,0,2.73,2.408,4.049,4.049,0,0,0,2.127.663,2.766,2.766,0,0,0,2.2-.977.628.628,0,0,1,.884-.194,28.175,28.175,0,0,0,7.573,2.253c.878.132,1.765.207,2.648.3a2.1,2.1,0,0,1,1.131.385,5.211,5.211,0,0,1,.351,2.153,13.982,13.982,0,0,1-.833,6.436A14.183,14.183,0,0,1,34.98,54.9,18.2,18.2,0,0,1,31.7,57.075a7.369,7.369,0,0,1-1.509.573" transform="translate(-8.835 -20.392)" fill="#f9a58d"/>
        <path id="Trazado_212140" data-name="Trazado 212140" d="M10.964,26.005a14.28,14.28,0,0,0-.7,2.161c-.784,0-1.011.163-1.159.909-.143.718-.26,1.441-.354,2.167-.038.294-.1.46-.442.452-.521-.011-1.042.012-1.562.043-.21.012-.28-.076-.294-.257,0-.039-.005-.077-.006-.116-.046-2.358-.154-4.718-.12-7.075a5.586,5.586,0,0,1,3.907-4.917,1.693,1.693,0,0,0,1.036-.759,11,11,0,0,1,8.143-5.353,33.5,33.5,0,0,1,6.253-.076,13.181,13.181,0,0,1,6.156,1.83,13.821,13.821,0,0,1,6.991,10.57c.252,1.925.055,3.864.113,5.795.007.236-.038.366-.318.319a2.278,2.278,0,0,0-.579-.008c-.337.031-.478-.087-.5-.445a13.417,13.417,0,0,0-.426-2.446,4.107,4.107,0,0,0-3.778-3.064,27.309,27.309,0,0,1-9.289-2.263,3.781,3.781,0,0,0-1.2-.415,1.966,1.966,0,0,0-1.842.759,1.3,1.3,0,0,1-1.546.457,4.229,4.229,0,0,1-1.659-1.032c-.592-.556-1.149-1.148-1.727-1.719a2.261,2.261,0,0,0-3.386.144A14.8,14.8,0,0,0,10.7,24.6c-.335.664-.3.895.262,1.41" transform="translate(-3.635 -7.525)" fill="#655e67"/>
        <path id="Trazado_212141" data-name="Trazado 212141" d="M100.955,23.473c-1.624.008-3.248.028-4.873.017a2.485,2.485,0,0,0-2.139,1.054c-.67.894-1.368,1.766-2.159,2.783,0-.583.006-1.015,0-1.446A2.328,2.328,0,0,0,89.4,23.5c-.909-.012-1.818.008-2.727-.01-.836-.016-.934-.116-.917-.93a16.043,16.043,0,0,0-.986-5.966,2.058,2.058,0,0,1-.1-.74q0-4.7,0-9.4A2.08,2.08,0,0,1,87.03,4.1h13.347c.193,0,.386.012.579.018.621.259.746.843.909,1.4a3.436,3.436,0,0,1,.083.978q0,7.3,0,14.6a3.747,3.747,0,0,1-.357,1.741,1.2,1.2,0,0,1-.638.637" transform="translate(-48.723 -2.359)" fill="#f6e265"/>
        <path id="Trazado_212142" data-name="Trazado 212142" d="M4.663,102.058c.957-3.681,1.9-7.3,2.84-10.923a10.311,10.311,0,0,0,.264-1.008,12.944,12.944,0,0,1,2.872-6.144c1.6-2.011,3.031-4.15,4.529-6.238a1.226,1.226,0,0,1,1.27-.622,1.127,1.127,0,0,1,.741,1.785c-.478.726-.986,1.432-1.492,2.139a1.416,1.416,0,0,0-.173,1.624,1.447,1.447,0,0,0,1.41.724c3.037-.012,6.073-.005,9.109-.005.155,0,.31-.006.464,0a1.146,1.146,0,1,1-.011,2.288c-1.141.019-2.282,0-3.423.007-1.27,0-1.821.563-1.836,1.838a10.549,10.549,0,0,1-.052,1.736,2.891,2.891,0,0,1-2.865,2.46c-1.179.017-2.36,0-3.539,0a1.86,1.86,0,0,0-2.117,1.619c-.718,2.744-1.441,5.486-2.14,8.234-.093.364-.221.493-.609.488-1.72-.023-3.44-.01-5.242-.01" transform="translate(-2.683 -44.366)" fill="#f8b09f"/>
        <path id="Trazado_212143" data-name="Trazado 212143" d="M41.865,108.929a9.258,9.258,0,0,1,3.04,2.04,7.761,7.761,0,0,1,2.076,4.944c.083,1.455.223,2.907.338,4.36-.56.006-1.122-.006-1.681.026-.346.02-.414-.12-.408-.432.017-.986.01-1.973,0-2.959,0-.65-.311-1.018-.841-1.03-.555-.013-.891.367-.9,1.041q-.011,1.479,0,2.959c0,.262-.011.422-.357.421q-8.529-.025-17.057-.025c-.2-.227-.108-.478-.044-.716.526-1.959,1-3.932,1.532-5.888a1.281,1.281,0,0,1,1.435-1.078c1.159-.025,2.318-.02,3.477,0a3.534,3.534,0,0,0,2.536-.953,2.023,2.023,0,0,1,.577-.378A9.331,9.331,0,0,0,40.625,109c.425-.38.823-.137,1.24-.07" transform="translate(-14.94 -62.601)" fill="#abd87f"/>
        <path id="Trazado_212144" data-name="Trazado 212144" d="M123.023,23.447a3.322,3.322,0,0,0,.819-2.28q-.021-7.4,0-14.794a3.29,3.29,0,0,0-.818-2.28c2.354-.26,3.176.816,3.141,2.919-.078,4.6-.061,9.208,0,13.811.019,1.494-.657,2.816-2.676,2.646-.154-.013-.308-.016-.462-.023" transform="translate(-70.791 -2.334)" fill="#f2d232"/>
        <path id="Trazado_212145" data-name="Trazado 212145" d="M50.3,64.823c.732-.464,1.554-.746,2.3-1.189,3.754-2.23,6.353-5.316,7.176-9.692a13.5,13.5,0,0,0,.059-4.255c-.077-.589-.094-1.186-.138-1.78a1.845,1.845,0,0,1,.975,1.236,16.983,16.983,0,0,1,.151,8.764,12.937,12.937,0,0,1-6.03,7.359c-.125.076-.231.179-.412.056a3.885,3.885,0,0,0-2.344-.476c-.579.007-1.159-.014-1.738-.023" transform="translate(-28.945 -27.567)" fill="#df927f"/>
        <path id="Trazado_212146" data-name="Trazado 212146" d="M33.59,114.517a3.767,3.767,0,0,1-3.213,1.5c-1.117-.035-2.237-.011-3.355-.006-.843,0-1.117.236-1.327,1.054-.515,2.007-1.04,4.011-1.557,6.017a3.81,3.81,0,0,0-.062.453c-.52,0-1.245.2-1.5-.066-.287-.29.132-.948.256-1.438.553-2.187,1.15-4.362,1.694-6.552.107-.431.288-.535.7-.524,1.024.028,2.049,0,3.073.013a5.023,5.023,0,0,0,2.141-.413.867.867,0,0,1,.5-.092,10.239,10.239,0,0,0,2.655.056" transform="translate(-12.931 -65.86)" fill="#8bc851"/>
        <path id="Trazado_212147" data-name="Trazado 212147" d="M7.233,62.458a12.241,12.241,0,0,0,.3,2.454c.068.282.05.434-.307.413-.481-.028-.965,0-1.447-.012a1.61,1.61,0,0,1-.453-.076c-.957-.31-1.371-1.195-1.217-2.583a1.788,1.788,0,0,1,1.686-1.619c.077-.006.155,0,.232,0,1.2-.018,1.2-.018,1.207,1.426" transform="translate(-2.346 -35.118)" fill="#f9a58d"/>
        <path id="Trazado_212148" data-name="Trazado 212148" d="M82.315,63.254c.023,1.774-1.134,2.186-2.572,2.06-.251-.022-.214-.174-.18-.322a13.646,13.646,0,0,0,.3-3.622c-.013-.295.121-.341.379-.352,1.348-.059,2.074.718,2.071,2.236" transform="translate(-45.769 -35.11)" fill="#f9a58d"/>
        <path id="Trazado_212149" data-name="Trazado 212149" d="M47.956,105.028a6.7,6.7,0,0,1-1.969.3,5.757,5.757,0,0,0,.759-3.537c-.014-.309.095-.4.394-.389.675.02,1.352.027,2.026,0,.41-.017.667.053.655.536a1.878,1.878,0,0,0,.128.5c-.284.283-.648.166-.98.183-.731.037-.954.251-.982.971a12.194,12.194,0,0,1-.031,1.431" transform="translate(-26.462 -58.35)" fill="#df927f"/>
        <path id="Trazado_212150" data-name="Trazado 212150" d="M50.386,106.438a3.761,3.761,0,0,1-.073-2.028.734.734,0,0,1,.794-.545c.423.017.847-.007,1.272-.013a9.238,9.238,0,0,0,.635.957c.191.227.1.315-.082.443a6.673,6.673,0,0,1-2.546,1.185" transform="translate(-28.892 -59.76)" fill="#f9a58d"/>
        <path id="Trazado_212151" data-name="Trazado 212151" d="M50.345,71.975a.867.867,0,0,1-1.355.808,3.235,3.235,0,0,0-2.5-.352,9.021,9.021,0,0,0-.9.387.869.869,0,0,1-1.23-.371.85.85,0,0,1,.422-1.168,4.886,4.886,0,0,1,5.058-.008.836.836,0,0,1,.5.7" transform="translate(-25.471 -40.608)"/>
        <path id="Trazado_212152" data-name="Trazado 212152" d="M64.18,60.719c0-.889.266-1.308.841-1.318.6-.011.9.439.9,1.34a4.007,4.007,0,0,1-.014.576.893.893,0,0,1-.907.8.87.87,0,0,1-.817-.878c-.011-.172,0-.346,0-.519" transform="translate(-36.929 -34.181)" fill="#020101"/>
        <path id="Trazado_212153" data-name="Trazado 212153" d="M33.542,60.75c-.005-.928.273-1.358.866-1.349s.872.448.87,1.367a3.6,3.6,0,0,1-.023.575.858.858,0,0,1-1.711-.074c-.014-.172,0-.346,0-.519" transform="translate(-19.298 -34.181)" fill="#020101"/>
        <path id="Trazado_212154" data-name="Trazado 212154" d="M100.619,18.646c0-.445-.007-.889,0-1.334a.893.893,0,0,1,1-1,3.64,3.64,0,0,0,1.2-.135,2.324,2.324,0,0,0,1.478-2.543,2.283,2.283,0,0,0-2.3-1.893,2.244,2.244,0,0,0-2.22,1.9c-.023.133-.034.268-.054.4a.867.867,0,1,1-1.72-.168,3.866,3.866,0,0,1,2.3-3.487,3.793,3.793,0,0,1,4.2.464,3.8,3.8,0,0,1,1.443,4.073,3.779,3.779,0,0,1-2.97,2.991c-.509.121-.7.288-.636.813a8.789,8.789,0,0,1,.007,1.391.89.89,0,0,1-.855.918.88.88,0,0,1-.878-.945c-.011-.483,0-.967,0-1.45" transform="translate(-56.397 -5.734)"/>
        <path id="Trazado_212155" data-name="Trazado 212155" d="M104.156,40.172a.9.9,0,0,1,.875-1,.912.912,0,0,1,.866,1.022.881.881,0,0,1-.855.963.869.869,0,0,1-.886-.982" transform="translate(-59.934 -22.538)" fill="#020201"/>
      </g>
    </g>
  </g>
</svg>
