<svg xmlns="http://www.w3.org/2000/svg" xmlns:xlink="http://www.w3.org/1999/xlink" width="86" height="86" viewBox="0 0 86 86">
  <defs>
    <clipPath id="clip-path">
      <rect id="Rectángulo_338943" data-name="Rectángulo 338943" width="61.025" height="60.575" fill="none"/>
    </clipPath>
  </defs>
  <g id="Grupo_984062" data-name="Grupo 984062" transform="translate(-13255 9661)">
    <circle id="Elipse_4903" data-name="Elipse 4903" cx="43" cy="43" r="43" transform="translate(13255 -9661)" fill="#3c3fa7"/>
    <g id="Grupo_984061" data-name="Grupo 984061" transform="translate(13267 -9648)">
      <g id="Grupo_984060" data-name="Grupo 984060" transform="translate(0 0)" clip-path="url(#clip-path)">
        <path id="Trazado_212156" data-name="Trazado 212156" d="M60.092,52.175a2.223,2.223,0,0,1-.435-1.786,10.222,10.222,0,0,0-5.65-11.169c-.334-.169-.351-.315-.238-.622a23.336,23.336,0,0,0,1.374-6.443,24.627,24.627,0,0,0-1.555-10.7.483.483,0,0,1,.141-.657,5.978,5.978,0,0,0,1.928-3.014.58.58,0,0,1,.463-.462,3.671,3.671,0,0,0,2.116-1.55A10.277,10.277,0,0,0,57.9,4.283a.863.863,0,0,0-1.189-.334c-.585.492-.653.825-.2,1.476a8.34,8.34,0,0,1,1.508,5.506,8.037,8.037,0,0,1-1.313,3.9,1,1,0,0,1-.188.229c-.159.13-.284.411-.523.294-.2-.1-.09-.362-.091-.55-.007-1.389,0-2.777,0-4.166a3.209,3.209,0,0,0-2.712-2.787c-.232-.047-.446-.067-.429-.427a.813.813,0,0,0-.836-.894c-.486-.048-.843.289-.94.876a4.97,4.97,0,0,1-.954,2.344A5.728,5.728,0,0,1,46.013,11.7a8.347,8.347,0,0,1-2.315.043.878.878,0,0,0-1.013.56A.83.83,0,0,0,43,13.357a.5.5,0,0,1,.229.449c-.009.514,0,1.029,0,1.6a1.848,1.848,0,0,1-1.05-1.027A8.472,8.472,0,0,1,47.552,2.047a7.707,7.707,0,0,1,4.738.241,2.565,2.565,0,0,1,1,.378,1.132,1.132,0,0,0,1.513-.15c.179-.831.064-1.063-.718-1.452a10.21,10.21,0,0,0-14.11,5.665c-.173.474-.3.561-.8.375A24.439,24.439,0,0,0,21.8,7.076c-.5.184-.693.19-.9-.377A10.247,10.247,0,1,0,2.43,15.417,3.879,3.879,0,0,0,4.713,17.3a.683.683,0,0,1,.534.538,5.736,5.736,0,0,0,1.827,2.873.629.629,0,0,1,.19.855,23.245,23.245,0,0,0-1.53,7.014A24.329,24.329,0,0,0,7.142,38.663c.1.272.059.409-.225.531a8.331,8.331,0,0,0-1.687,1c-.627.472-.692.742-.348,1.472h0c.53.422.992.265,1.507-.088a8.319,8.319,0,0,1,8.035-.987,2.143,2.143,0,0,1,.26.139A8.276,8.276,0,0,1,19.7,47.405a8.156,8.156,0,0,1-.086,2.668,4.156,4.156,0,0,0,.844,3.3,2.289,2.289,0,0,1-1.589,3.682H16.959a9.324,9.324,0,0,0,.7-4.691c0-1.034.014-2.068-.005-3.1a3.227,3.227,0,0,0-2.665-3.205c-.342-.069-.551-.121-.528-.562a.759.759,0,0,0-.75-.783.817.817,0,0,0-.93.579,6.931,6.931,0,0,0-.163.755c-.521,2.248-2.1,3.311-4.225,3.743a11.214,11.214,0,0,1-3.207.124c-.52-.045-.962.041-1.137.613-.155.5.036.861.681,1.123.3.124.232.322.24.523a16.74,16.74,0,0,0,.165,3.446c.117.476.292.939.452,1.445a15.011,15.011,0,0,1-1.951-.014,2.269,2.269,0,0,1-1.58-3.509,5.067,5.067,0,0,0,.865-4.047,7.486,7.486,0,0,1,.706-4.586,1.094,1.094,0,0,0-.2-1.448h0c-.788-.213-1.055-.089-1.409.655a10.264,10.264,0,0,0-.785,6.327,1.926,1.926,0,0,1-.305,1.53A8.732,8.732,0,0,0,0,53.615V56c.1.009.1.1.131.166a4.1,4.1,0,0,0,4.085,2.709c.776,0,1.552.011,2.327-.006a1.176,1.176,0,0,1,.813.271,6.265,6.265,0,0,0,7.873.026,1.248,1.248,0,0,1,.859-.3c.874.017,1.75.018,2.625,0a4.1,4.1,0,0,0,3.874-3.06,7.4,7.4,0,0,0,.093-2,25,25,0,0,0,15.513.011c0,.2.009.356,0,.511a4.1,4.1,0,0,0,4.225,4.542c.8.007,1.591.014,2.387-.005a1.233,1.233,0,0,1,.858.3,6.027,6.027,0,0,0,7.016.506,5.006,5.006,0,0,1,3.221-.8c.278.017.557,0,.835,0a4.133,4.133,0,0,0,3.359-6.7M15.781,54.953a4.533,4.533,0,0,1-9-.443c-.043-.753,0-1.512-.034-2.266-.02-.4.128-.51.5-.522a9.229,9.229,0,0,0,3.295-.729,5.957,5.957,0,0,0,3.14-2.79.694.694,0,0,1,.845-.423,1.482,1.482,0,0,1,1.326,1.512c.022.855.005,1.71.005,2.769a23.988,23.988,0,0,1-.083,2.893M45.5,13.54a9.083,9.083,0,0,0,3.891-1,5.752,5.752,0,0,0,2.557-2.5.721.721,0,0,1,.9-.437,1.433,1.433,0,0,1,1.269,1.427c.029.914.007,1.83.007,2.745h-.006c0,.816.034,1.633-.006,2.446a4.493,4.493,0,0,1-4.556,4.34,4.542,4.542,0,0,1-4.52-4.4c-.029-.7.017-1.394-.02-2.088-.021-.393.119-.514.49-.53M5.612,11.753a1.019,1.019,0,0,0-1.174.491.844.844,0,0,0,.372,1.175.423.423,0,0,1,.166.417c0,.338.014.677-.006,1.014-.011.18.125.453-.117.519-.185.051-.355-.159-.476-.312A7.213,7.213,0,0,1,2.883,11.1a8.436,8.436,0,0,1,8.888-9.285,5.73,5.73,0,0,1,2.2.459,7.836,7.836,0,0,1,4.645,3.769,8.216,8.216,0,0,1-.011,8.508,1.813,1.813,0,0,1-.924.883v-1.7q-.011-1.252-.022-2.5A3.237,3.237,0,0,0,14.9,7.861c-.34-.068-.446-.186-.441-.536a.752.752,0,0,0-.741-.786.812.812,0,0,0-.957.613c-.072.226-.093.467-.146.7a4.516,4.516,0,0,1-3.241,3.489,8.986,8.986,0,0,1-3.764.412m1.171,4.594c-.037-.594-.023-1.192-.025-1.788,0-.976,0-.973.95-1.054a8.867,8.867,0,0,0,3.411-.969,5.76,5.76,0,0,0,2.556-2.5.716.716,0,0,1,.9-.431,1.48,1.48,0,0,1,1.286,1.546c.018.835,0,1.67,0,2.695a24.284,24.284,0,0,1-.089,2.964,4.536,4.536,0,0,1-8.992-.46M39.067,51.589a23.056,23.056,0,0,1-17.265,0c-.56-.217-.492-.612-.437-1.008a14.467,14.467,0,0,0,.14-3.207,10.366,10.366,0,0,0-8.523-9.044,10.185,10.185,0,0,0-3.616.068c-.335.072-.439-.015-.547-.317a23.259,23.259,0,0,1-1.348-8.124,22.5,22.5,0,0,1,1.362-7.527c.125-.353.224-.481.655-.353a6.283,6.283,0,0,0,7.856-4.181.8.8,0,0,1,.612-.608,3.705,3.705,0,0,0,2.128-1.719,9.992,9.992,0,0,0,1.432-6.04c-.029-.355.09-.473.391-.59a22.893,22.893,0,0,1,17.035-.019.551.551,0,0,1,.422.685,9.913,9.913,0,0,0,1.51,6.078,3.661,3.661,0,0,0,2.074,1.61.751.751,0,0,1,.58.565,6.288,6.288,0,0,0,7.888,4.215c.4-.117.505-.018.624.32a23.041,23.041,0,0,1,.035,15.65c-.109.312-.2.414-.575.343A10.241,10.241,0,0,0,39.485,50.233c.036.214.031.436.051.653a.61.61,0,0,1-.469.7M54.109,54.4a4.542,4.542,0,0,1-9.077-.046c-.03-.715.015-1.433-.02-2.148-.019-.391.152-.464.484-.476a9.5,9.5,0,0,0,3.243-.7,6.139,6.139,0,0,0,3.275-2.9.576.576,0,0,1,.644-.363A1.445,1.445,0,0,1,54.112,49.2c.033.914.008,1.83.008,2.745h-.005c0,.816.033,1.633-.006,2.447m4.307,2.109a2.042,2.042,0,0,1-1.227.545H55.3c1.044-2.454.516-5.037.6-7.569a3.159,3.159,0,0,0-2.773-3.457c-.3-.062-.372-.153-.369-.445a.837.837,0,0,0-.8-.877.9.9,0,0,0-.968.785c-.07.309-.111.627-.2.93-.62,2.06-2.177,2.978-4.15,3.375a11.059,11.059,0,0,1-3.206.116c-.539-.049-.973.092-1.119.647a.826.826,0,0,0,.66,1.085c.316.086.252.3.259.506.03.953-.056,1.907.065,2.86a7.144,7.144,0,0,0,.614,2.049,7.982,7.982,0,0,1-2.149-.035A2.3,2.3,0,0,1,40.41,53.4a4.62,4.62,0,0,0,.822-3.6A8.468,8.468,0,0,1,52.715,40.6a4.009,4.009,0,0,1,.42.213,8.465,8.465,0,0,1,4.751,9.347,3.9,3.9,0,0,0,.8,3.132,2.289,2.289,0,0,1-.269,3.219" transform="translate(0.001 0)"/>
        <path id="Trazado_212157" data-name="Trazado 212157" d="M5.912,89.226a11.129,11.129,0,0,0-.723,2.329A9.83,9.83,0,0,0,5.237,94.7a4.051,4.051,0,0,1-.627,2.844c-.112.188-.245.363-.357.55a2.133,2.133,0,0,0,1.479,3.251.84.84,0,0,0,.118.016c.455.012,1.023.2,1.337-.064.37-.31-.1-.783-.174-1.187a15.508,15.508,0,0,1-.092-2.857,1.218,1.218,0,0,0-.562-1.207.922.922,0,0,1-.375-1.106.944.944,0,0,1,.932-.7c.774-.059,1.549.023,2.325-.012a7.428,7.428,0,0,0,2.985-.753,4.1,4.1,0,0,0,2.23-2.8,4.658,4.658,0,0,1,.261-.977,1.027,1.027,0,0,1,1.031-.671.942.942,0,0,1,.882.771.761.761,0,0,0,.633.612A3.449,3.449,0,0,1,19.9,93.885c.012,1.611.009,3.223,0,4.833a5.814,5.814,0,0,1-.447,2.21c-.166.4-.038.486.344.46.356-.024.716,0,1.073-.011a2.151,2.151,0,0,0,.243-.041,2.989,2.989,0,0,0,.377-3.657,4.709,4.709,0,0,1-.779-4.037,7.276,7.276,0,0,0-.336-3.319,8.729,8.729,0,0,0-3.354-4.852c-.113-.053-.226-.105-.344-.152a8.23,8.23,0,0,0-8.195.906c-.673.458-1.154.428-1.533-.088a6.324,6.324,0,0,0-1.457,1.794h0a.9.9,0,0,1,.424,1.295" transform="translate(-2.062 -44.471)" fill="#fe5a95"/>
        <path id="Trazado_212158" data-name="Trazado 212158" d="M11.825,86.037a8.23,8.23,0,0,1,8.195-.906c.118.047.231.1.344.153-.04-.03-.077-.062-.118-.091a.963.963,0,0,1-.152-.179,2.137,2.137,0,0,0-.26-.139,8.319,8.319,0,0,0-8.035.986c-.515.353-.977.51-1.507.089.379.516.86.546,1.533.087" transform="translate(-5.409 -44.284)" fill="#fe5a95"/>
        <path id="Trazado_212159" data-name="Trazado 212159" d="M5.459,93.045a7.482,7.482,0,0,0-.706,4.586,5.068,5.068,0,0,1-.864,4.047,2.268,2.268,0,0,0,1.58,3.509,15.019,15.019,0,0,0,1.951.014c-.16-.506-.335-.968-.452-1.445a16.706,16.706,0,0,1-.164-3.446c-.007-.2.063-.4-.24-.523-.644-.262-.836-.622-.681-1.123.176-.572.618-.658,1.138-.613a11.212,11.212,0,0,0,3.206-.124c2.127-.432,3.7-1.5,4.225-3.743a6.714,6.714,0,0,1,.163-.755.816.816,0,0,1,.93-.579.76.76,0,0,1,.751.784c-.024.44.186.493.528.561A3.227,3.227,0,0,1,19.487,97.4c.019,1.034,0,2.068,0,3.1a9.32,9.32,0,0,1-.7,4.692H20.7c.062-.061.12-.125.177-.191a2.125,2.125,0,0,1-.243.041c-.358.008-.717-.013-1.073.011-.381.027-.51-.059-.344-.46a5.814,5.814,0,0,0,.446-2.21c.009-1.611.013-3.222,0-4.833a3.449,3.449,0,0,0-2.632-3.475.761.761,0,0,1-.633-.612.942.942,0,0,0-.882-.771,1.027,1.027,0,0,0-1.031.671,4.629,4.629,0,0,0-.261.977,4.107,4.107,0,0,1-2.23,2.8,7.428,7.428,0,0,1-2.985.753c-.776.036-1.551-.046-2.325.012a.943.943,0,0,0-.932.7.922.922,0,0,0,.375,1.106,1.219,1.219,0,0,1,.562,1.207,15.508,15.508,0,0,0,.091,2.857c.077.4.544.877.175,1.187-.314.263-.881.075-1.337.064a.841.841,0,0,1-.118-.016,2.134,2.134,0,0,1-1.48-3.251c.113-.187.246-.362.358-.55a4.051,4.051,0,0,0,.626-2.844,9.857,9.857,0,0,1-.047-3.146,11.131,11.131,0,0,1,.724-2.329A.9.9,0,0,0,5.261,91.6a1.1,1.1,0,0,1,.2,1.448" transform="translate(-1.835 -48.137)" fill="#fe5a95"/>
        <path id="Trazado_212160" data-name="Trazado 212160" d="M111.659,5.683c-.34-.133-.663-.307-1.008-.427.294.262.637.464.937.724a9.325,9.325,0,0,1,3.177,6.045,8.348,8.348,0,0,1-.578,4.113c0,.567.011,1.136.037,1.716a1.311,1.311,0,0,0,.732-.755,8.182,8.182,0,0,0-.127-8.34,5.806,5.806,0,0,1-.5-.878.814.814,0,0,1,.53-1.169c-.242.041-.343-.157-.481-.288a7.127,7.127,0,0,0-1.43-1.145.91.91,0,0,1-1.29.4" transform="translate(-58.15 -2.762)" fill="#5b5555"/>
        <path id="Trazado_212161" data-name="Trazado 212161" d="M118.064,9.493a5.763,5.763,0,0,0,.5.878,8.182,8.182,0,0,1,.127,8.34,1.312,1.312,0,0,1-.732.755c-.026-.58-.033-1.15-.036-1.717-.013.035-.025.071-.038.106,0-.738.005-1.477,0-2.215,0-.212.066-.44-.1-.63,0,1.389-.005,2.778,0,4.166,0,.188-.107.453.091.55.24.118.365-.164.524-.294a1.009,1.009,0,0,0,.188-.228,8.043,8.043,0,0,0,1.313-3.9A8.339,8.339,0,0,0,118.394,9.8c-.453-.651-.385-.984.2-1.477a.813.813,0,0,0-.53,1.169" transform="translate(-61.885 -4.375)" fill="#5b5555"/>
        <path id="Trazado_212162" data-name="Trazado 212162" d="M111.2,5.2a2.566,2.566,0,0,0-.995-.378,2.141,2.141,0,0,0,.21.2c.345.12.668.295,1.008.427a.91.91,0,0,0,1.29-.4,1.131,1.131,0,0,1-1.513.15" transform="translate(-57.918 -2.535)" fill="#5b5555"/>
        <path id="Trazado_212163" data-name="Trazado 212163" d="M101.563,96.844a3.3,3.3,0,0,1-.469-2.773,8.859,8.859,0,0,0-1.277-6.259,9.906,9.906,0,0,0-2.308-2.537.694.694,0,0,1-.122-.2,4.047,4.047,0,0,0-.419-.213,8.468,8.468,0,0,0-11.484,9.209,4.616,4.616,0,0,1-.821,3.6,2.294,2.294,0,0,0,1.35,3.621,7.981,7.981,0,0,0,2.149.035,7.126,7.126,0,0,1-.614-2.049c-.121-.953-.035-1.907-.065-2.86-.007-.208.056-.419-.259-.506a.826.826,0,0,1-.66-1.085c.146-.555.58-.7,1.119-.647a11.06,11.06,0,0,0,3.206-.117c1.973-.4,3.531-1.315,4.15-3.375.091-.3.132-.621.2-.93a.9.9,0,0,1,.967-.785.837.837,0,0,1,.8.877c0,.293.066.383.368.446a3.157,3.157,0,0,1,2.773,3.456c-.085,2.532.443,5.115-.6,7.57h1.888a3.268,3.268,0,0,0,.122-4.477" transform="translate(-44.251 -44.269)" fill="#fea630"/>
        <path id="Trazado_212164" data-name="Trazado 212164" d="M15.777,9.853c.052-.232.074-.474.146-.7a.812.812,0,0,1,.956-.614.753.753,0,0,1,.742.786c-.005.349.1.468.44.536a3.237,3.237,0,0,1,2.755,3.369q.011,1.252.023,2.5a8.64,8.64,0,0,0,.384-5.905,9.6,9.6,0,0,0-4.094-5.557,5.733,5.733,0,0,0-2.2-.459A8.436,8.436,0,0,0,6.042,13.1a7.212,7.212,0,0,0,1.493,3.957c.121.153.291.363.476.312.242-.066.106-.339.117-.519.02-.337,0-.676.007-1.014a.423.423,0,0,0-.166-.417A.844.844,0,0,1,7.6,14.245a1.019,1.019,0,0,1,1.174-.491,8.978,8.978,0,0,0,3.764-.412,4.518,4.518,0,0,0,3.241-3.489" transform="translate(-3.158 -2)" fill="#c37a4a"/>
        <path id="Trazado_212165" data-name="Trazado 212165" d="M101.868,15.217a9.073,9.073,0,0,0-1.03-7.657,8.916,8.916,0,0,0-2.389-2.55c-.15-.109-.346-.194-.4-.387-.018,0-.034-.012-.051-.016a8.363,8.363,0,0,0-9.92,3.759c-1.789,3.162-1.038,7.34.678,8.894.041-.625.208-1.187-.2-1.679a1.021,1.021,0,0,1-.187-1.257,1.139,1.139,0,0,1,1.231-.538,8.78,8.78,0,0,0,3.925-.483A4.346,4.346,0,0,0,96.49,10a4.189,4.189,0,0,1,.218-.8.944.944,0,0,1,.944-.6.9.9,0,0,1,.947.676c.1.447.363.589.755.715a3.229,3.229,0,0,1,2.427,2.859c0,.011,0,.022,0,.033a.332.332,0,0,1,.093.243,12.056,12.056,0,0,1-.006,2.092" transform="translate(-45.749 -2.19)" fill="#756f6f"/>
        <path id="Trazado_212166" data-name="Trazado 212166" d="M101.561,12.672v-.033A3.229,3.229,0,0,0,99.134,9.78c-.392-.126-.659-.268-.756-.715a.9.9,0,0,0-.946-.676.943.943,0,0,0-.944.6,4.154,4.154,0,0,0-.218.8,4.347,4.347,0,0,1-2.964,3.3,8.783,8.783,0,0,1-3.926.483,1.139,1.139,0,0,0-1.231.538,1.021,1.021,0,0,0,.187,1.257c.41.492.243,1.053.2,1.679-1.716-1.554-2.467-5.732-.678-8.894A8.362,8.362,0,0,1,97.781,4.4c.018,0,.034.011.051.016a.406.406,0,0,1-.013-.144,7.71,7.71,0,0,0-4.738-.241,8.472,8.472,0,0,0-5.374,12.327,1.848,1.848,0,0,0,1.05,1.027c0-.567-.006-1.082,0-1.6a.5.5,0,0,0-.229-.449.831.831,0,0,1-.317-1.05.879.879,0,0,1,1.013-.56,8.366,8.366,0,0,0,2.315-.042,5.727,5.727,0,0,0,4.013-1.955,4.971,4.971,0,0,0,.955-2.344c.1-.587.455-.924.94-.877a.813.813,0,0,1,.836.894c-.018.361.2.381.429.428a3.209,3.209,0,0,1,2.712,2.787.218.218,0,0,1,.134.054" transform="translate(-45.528 -1.981)" fill="#756f6f"/>
        <path id="Trazado_212167" data-name="Trazado 212167" d="M110.632,5.513a8.911,8.911,0,0,1,2.389,2.551,9.074,9.074,0,0,1,1.03,7.656,12.055,12.055,0,0,0,.006-2.092.331.331,0,0,0-.093-.243c.008.89,0,1.782,0,2.685a8.353,8.353,0,0,0,.578-4.113,9.327,9.327,0,0,0-3.176-6.045c-.3-.26-.643-.462-.937-.724-.065-.023-.13-.044-.2-.062.051.194.247.279.4.387" transform="translate(-57.932 -2.694)" fill="#756f6f"/>
        <path id="Trazado_212168" data-name="Trazado 212168" d="M110.416,5.029a2.315,2.315,0,0,1-.21-.2.394.394,0,0,0,.013.143c.067.018.132.039.2.062" transform="translate(-57.916 -2.535)" fill="#756f6f"/>
        <path id="Trazado_212169" data-name="Trazado 212169" d="M117.909,23.049c.008.738,0,1.477,0,2.215.013-.035.025-.071.038-.106-.005-.9,0-1.795,0-2.685a.213.213,0,0,0-.134-.054c.162.189.093.418.1.63" transform="translate(-61.914 -11.782)" fill="#756f6f"/>
        <path id="Trazado_212170" data-name="Trazado 212170" d="M18.468,31.16a4.526,4.526,0,0,0,4.794-3.742,24.372,24.372,0,0,0,.089-2.964c0-1.025.013-1.86,0-2.695a1.481,1.481,0,0,0-1.286-1.546.717.717,0,0,0-.9.431,5.757,5.757,0,0,1-2.556,2.5,8.856,8.856,0,0,1-3.411.968c-.951.081-.953.077-.95,1.054,0,.6-.012,1.194.024,1.788a4.508,4.508,0,0,0,4.2,4.2" transform="translate(-7.486 -10.611)" fill="#fcd0a6"/>
        <path id="Trazado_212171" data-name="Trazado 212171" d="M23.339,104.965c0-1.059.018-1.914-.005-2.769a1.482,1.482,0,0,0-1.326-1.512.694.694,0,0,0-.845.423,5.955,5.955,0,0,1-3.139,2.79,9.229,9.229,0,0,1-3.3.729c-.376.012-.525.121-.5.522.037.754-.008,1.512.034,2.266a4.534,4.534,0,0,0,9,.442,23.981,23.981,0,0,0,.082-2.893" transform="translate(-7.474 -52.904)" fill="#fcd0a6"/>
        <path id="Trazado_212172" data-name="Trazado 212172" d="M103.968,102.109a1.444,1.444,0,0,0-1.454-1.437.576.576,0,0,0-.644.363,6.138,6.138,0,0,1-3.275,2.9,9.5,9.5,0,0,1-3.243.7c-.332.012-.5.084-.484.476.035.715-.01,1.433.019,2.148a4.542,4.542,0,0,0,9.077.046c.039-.814.006-1.631.006-2.447h.005c0-.915.026-1.831-.008-2.745" transform="translate(-49.855 -52.904)" fill="#fcd0a6"/>
        <path id="Trazado_212173" data-name="Trazado 212173" d="M94.885,26.767a4.542,4.542,0,0,0,4.52,4.4,4.493,4.493,0,0,0,4.557-4.34c.039-.813.006-1.63.006-2.446h.007c0-.915.022-1.831-.007-2.745a1.432,1.432,0,0,0-1.269-1.428.721.721,0,0,0-.9.437,5.754,5.754,0,0,1-2.557,2.5,9.086,9.086,0,0,1-3.89,1c-.371.017-.511.138-.49.53.037.695-.009,1.393.019,2.088" transform="translate(-49.854 -10.608)" fill="#fcd0a6"/>
        <path id="Trazado_212174" data-name="Trazado 212174" d="M32.8,8.134a9.131,9.131,0,0,1,.743,7.59c-.07.208-.078.488-.389.53v1.7a1.816,1.816,0,0,0,.924-.883,8.219,8.219,0,0,0,.011-8.508,7.836,7.836,0,0,0-4.646-3.769A7.4,7.4,0,0,1,32.8,8.134" transform="translate(-15.473 -2.518)" fill="#b16944"/>
        <path id="Trazado_212175" data-name="Trazado 212175" d="M33.536,10.348a8.639,8.639,0,0,1-.384,5.905c.312-.041.32-.321.389-.529a9.132,9.132,0,0,0-.743-7.59,7.4,7.4,0,0,0-3.357-3.342,9.6,9.6,0,0,1,4.094,5.556" transform="translate(-15.473 -2.518)" fill="#b16944"/>
        <path id="Trazado_212176" data-name="Trazado 212176" d="M35.939,92.965a8.078,8.078,0,0,1-.049,2.721,3.513,3.513,0,0,0,.631,2.812,3.3,3.3,0,0,1,.348,3.338,1.972,1.972,0,0,1-.388.665,2.051,2.051,0,0,0,1.139-3.052,6.072,6.072,0,0,1-.918-4.632,7.651,7.651,0,0,0-1.846-5.9,8.056,8.056,0,0,0-2.21-1.924,8.987,8.987,0,0,1,3.292,5.975" transform="translate(-17.157 -45.716)" fill="#fe3b81"/>
        <path id="Trazado_212177" data-name="Trazado 212177" d="M33.965,88.31a7.652,7.652,0,0,1,1.846,5.9,6.073,6.073,0,0,0,.918,4.633,2.051,2.051,0,0,1-1.139,3.052.989.989,0,0,1-.455.27,2.289,2.289,0,0,0,1.589-3.682,4.159,4.159,0,0,1-.844-3.3,8.143,8.143,0,0,0,.086-2.668,8.275,8.275,0,0,0-5.016-6.676,8.621,8.621,0,0,1,.805.545,8.063,8.063,0,0,1,2.21,1.924" transform="translate(-16.265 -45.112)" fill="#fe3b81"/>
        <path id="Trazado_212178" data-name="Trazado 212178" d="M36.276,101.531a3.3,3.3,0,0,0-.348-3.338,3.511,3.511,0,0,1-.631-2.811,8.078,8.078,0,0,0,.049-2.721,8.984,8.984,0,0,0-3.292-5.975c-.173-.1-.352-.19-.535-.275a8.729,8.729,0,0,1,3.354,4.852,7.276,7.276,0,0,1,.336,3.319,4.708,4.708,0,0,0,.779,4.038,2.989,2.989,0,0,1-.377,3.657,2.247,2.247,0,0,0,.278-.08,1.99,1.99,0,0,0,.388-.665" transform="translate(-16.564 -45.411)" fill="#fe3b81"/>
        <path id="Trazado_212179" data-name="Trazado 212179" d="M31.22,86.111c.183.085.362.176.535.275a8.551,8.551,0,0,0-.8-.545.931.931,0,0,0,.152.179c.041.029.077.062.118.091" transform="translate(-16.265 -45.112)" fill="#fe3b81"/>
        <path id="Trazado_212180" data-name="Trazado 212180" d="M40.223,119.681a2.223,2.223,0,0,1-.278.08c-.056.065-.115.13-.177.191a.994.994,0,0,0,.454-.27" transform="translate(-20.9 -62.896)" fill="#fe3b81"/>
        <path id="Trazado_212181" data-name="Trazado 212181" d="M116.74,95.356a8.463,8.463,0,0,0-4.751-9.347,8.918,8.918,0,0,1,3.907,6.345,9.124,9.124,0,0,1-.074,3.086,3.04,3.04,0,0,0,.622,2.46,3.256,3.256,0,0,1,.427,3.378,1.71,1.71,0,0,1-.828.974,2.04,2.04,0,0,0,1.227-.545,2.289,2.289,0,0,0,.269-3.219,3.9,3.9,0,0,1-.8-3.132" transform="translate(-58.854 -45.2)" fill="#f98816"/>
        <path id="Trazado_212182" data-name="Trazado 212182" d="M116.872,101.278a3.259,3.259,0,0,0-.427-3.378,3.042,3.042,0,0,1-.623-2.46,9.139,9.139,0,0,0,.075-3.086,8.919,8.919,0,0,0-3.907-6.344.718.718,0,0,0,.121.2,9.9,9.9,0,0,1,2.308,2.537A8.858,8.858,0,0,1,115.7,95a3.3,3.3,0,0,0,.469,2.773,3.268,3.268,0,0,1-.122,4.477,1.714,1.714,0,0,0,.828-.974" transform="translate(-58.854 -45.201)" fill="#f98816"/>
        <path id="Trazado_212183" data-name="Trazado 212183" d="M60.688,60.256a2.023,2.023,0,0,0,2.156-2.249q.026-3.909,0-7.819a2.134,2.134,0,0,0-2.334-2.282c-1.472,0-2.945-.019-4.416.01-.428.009-.518-.121-.512-.528.024-1.691.022-3.382.006-5.074a2.138,2.138,0,0,0-2.161-2.281q-6.326-.023-12.653,0a2.054,2.054,0,0,0-2.137,2.04q-.066,3.58,0,7.162a2.044,2.044,0,0,0,2.132,2.036c.7.02,1.393,0,2.089.008.864.007.765-.11.768.754,0,1.99-.012,3.979.006,5.969A2.156,2.156,0,0,0,45.9,60.3c.457.011.915.01,1.373,0,.692-.015.937-.223,1.106-.915-.192-.712-.388-.866-1.124-.873-.437,0-.874,0-1.311,0-.335,0-.531-.142-.53-.493q0-3.277.013-6.554c0-.031.041-.063.1-.149.689.63,1.385,1.241,2.053,1.882a2.149,2.149,0,0,0,2.44.594,2.035,2.035,0,0,0,1.356-2.042c0-.425.177-.491.534-.477.515.021,1.032.009,1.549,0a2.038,2.038,0,0,0,1.9-1.213c.118-.24.215-.374.512-.368,1.191.025,2.382.02,3.574.027,1.925-.05,1.588-.174,1.6,1.523.019,2.183-.008,4.366.013,6.549.005.539-.175.754-.723.731-.772-.032-1.547-.011-2.321-.013a12.449,12.449,0,0,0-2.039,1.7c-.169.136-.315.3-.487.435-.343.263-.61.163-.657-.262-.035-.313,0-.633-.016-.949a.849.849,0,0,0-.93-.918c-.712-.016-1.425.008-2.137-.009a.929.929,0,0,0-1.059.877c.168.692.413.9,1.105.916a4.8,4.8,0,0,0,.656,0c.39-.042.589.037.647.5a2.039,2.039,0,0,0,1.7,1.761,2.006,2.006,0,0,0,1.95-.651,4.306,4.306,0,0,1,3.935-1.652M53.8,48.933c0,.355-.13.568-.523.553-.415-.017-.83-.021-1.245-.031-.476.01-.952.014-1.427.033a.908.908,0,0,0-1,1c-.016.377,0,.755-.008,1.133,0,.2,0,.408-.234.5s-.373-.065-.519-.2c-.717-.658-1.441-1.309-2.145-1.981a1.568,1.568,0,0,0-1.176-.46c-1.47.019-2.94-.008-4.41.015-.5.008-.719-.13-.714-.669.021-2.126.012-4.252.006-6.377,0-.4.092-.639.561-.637q5.483.023,10.966.023c.436-.006.872,0,1.307-.021.416-.017.566.193.565.579q0,3.27,0,6.541" transform="translate(-20.287 -21.032)"/>
        <path id="Trazado_212184" data-name="Trazado 212184" d="M59.089,69.3a14.764,14.764,0,0,1,2.67,0c.55.049.794.412.858,1.04.037.356-.177.875.236,1.018.356.123.624-.344.907-.575.46-.374.842-.838,1.327-1.189a1.307,1.307,0,0,1,.687-.325c.383-.008.765-.011,1.148-.016.149-.087.2-.267.2-.567-.023-2.64-.013-5.281-.013-7.922-1.044,0-2.09.006-3.134-.007a.957.957,0,0,0-.935.491,2.165,2.165,0,0,1-1.947,1.063c-.358,0-.716,0-1.074,0-.687.008-.729.029-.841.718a2.231,2.231,0,0,1-1.564,1.856,2.155,2.155,0,0,1-2.31-.539c-.554-.513-1.157-.972-1.672-1.528-.089-.1-.2-.238-.348-.153-.11.062-.088.213-.088.331,0,1.849-.017,3.7.007,5.546.007.541.175.678.743.706.437.022.876-.026,1.31.03a.785.785,0,0,1,.789,1h2.311c-.067-.578.156-.925.731-.978m2.248-5.2q2.085-.041,4.17,0a.856.856,0,0,1,.9.9c0,.542-.351.861-.982.873-.675.012-1.35,0-2.026,0s-1.351.011-2.026,0a.887.887,0,1,1-.042-1.772" transform="translate(-27.954 -31.931)" fill="#00c1f7"/>
        <path id="Trazado_212185" data-name="Trazado 212185" d="M65.128,78.8c.712.016,1.425-.007,2.137.009a.849.849,0,0,1,.93.918c.016.316-.019.636.016.949.047.426.314.526.657.262.172-.132.317-.3.487-.435a12.45,12.45,0,0,1,2.039-1.7,1.09,1.09,0,0,1,.8-.087.734.734,0,0,0,.435-.061c-.382,0-.765.008-1.148.016a1.306,1.306,0,0,0-.687.325c-.484.351-.867.814-1.326,1.189-.283.231-.551.7-.907.575-.413-.142-.2-.662-.236-1.018-.065-.627-.308-.99-.858-1.039a14.721,14.721,0,0,0-2.67,0c-.575.053-.8.4-.731.978a.929.929,0,0,1,1.059-.877" transform="translate(-33.664 -41.326)" fill="#00c1f7"/>
        <path id="Trazado_212186" data-name="Trazado 212186" d="M55.139,69.092c-.434-.056-.874-.009-1.31-.03-.568-.028-.737-.165-.743-.706-.024-1.849-.01-3.7-.007-5.546,0-.118-.022-.269.088-.331.152-.085.259.057.347.153.515.556,1.119,1.014,1.672,1.528a2.156,2.156,0,0,0,2.31.539,2.231,2.231,0,0,0,1.564-1.856c.111-.689.154-.711.841-.718.358,0,.716,0,1.073,0a2.166,2.166,0,0,0,1.947-1.063.957.957,0,0,1,.935-.491c1.045.013,2.09,0,3.134.007v-.153c-1.191-.007-2.383,0-3.574-.027-.3-.006-.394.128-.512.368a2.038,2.038,0,0,1-1.9,1.213c-.516.011-1.034.023-1.549,0-.357-.014-.535.052-.534.477A2.034,2.034,0,0,1,57.568,64.5a2.149,2.149,0,0,1-2.44-.594c-.668-.641-1.363-1.252-2.052-1.882-.06.086-.1.117-.1.149q-.01,3.277-.012,6.554c0,.35.2.495.53.492.437,0,.874,0,1.311,0,.737.007.933.161,1.124.873a.785.785,0,0,0-.789-1" transform="translate(-27.834 -31.739)" fill="#00c1f7"/>
        <path id="Trazado_212187" data-name="Trazado 212187" d="M53.922,43.816q-5.483-.009-10.966-.024c-.47,0-.563.241-.561.637.007,2.126.016,4.252-.006,6.377-.005.539.215.677.714.669,1.47-.023,2.94,0,4.41-.015a1.568,1.568,0,0,1,1.176.46c.7.672,1.428,1.323,2.145,1.981.145.133.287.288.519.2s.231-.3.234-.5c.008-.378-.008-.755.008-1.133a.908.908,0,0,1,1-1c.475-.02.951-.023,1.427-.033q0-3.522.009-7.044a1.063,1.063,0,0,0-.111-.577m-3.667,4.726c-.676.011-1.352,0-2.028,0-.7,0-1.392.011-2.088,0A.94.94,0,0,1,45.1,47.63c0-.524.41-.871,1.059-.874q2.058-.012,4.116,0c.682,0,1.044.311,1.056.864s-.38.911-1.075.923" transform="translate(-22.277 -23.014)" fill="#feb44e"/>
        <path id="Trazado_212188" data-name="Trazado 212188" d="M82.779,61.408q.009,3.541,0,7.082c0,.44-.012.659-.138.771l.692-.009c.418-.006.618-.191.619-.613q.01-3.63,0-7.26c0-.435-.215-.6-.628-.592a5.267,5.267,0,0,1-.63-.011,1.387,1.387,0,0,1,.083.632" transform="translate(-43.431 -31.94)" fill="#00aaed"/>
        <path id="Trazado_212189" data-name="Trazado 212189" d="M81.686,60.591c.412-.011.627.157.628.591q.006,3.63,0,7.26c0,.422-.2.607-.619.613L81,69.064c-.12.106-.344.114-.771.117a2.492,2.492,0,0,0-.71.034c.774,0,1.549-.02,2.321.012.548.023.728-.192.723-.731-.021-2.183.006-4.366-.013-6.549-.015-1.7.322-1.573-1.6-1.523a.6.6,0,0,1,.109.154,5.369,5.369,0,0,0,.63.011" transform="translate(-41.79 -31.743)" fill="#00aaed"/>
        <path id="Trazado_212190" data-name="Trazado 212190" d="M82.511,68.489q.01-3.541,0-7.082a1.387,1.387,0,0,0-.083-.632h-.109c0,2.641-.01,5.281.013,7.922,0,.3-.052.479-.2.567l.242,0c.125-.111.136-.331.138-.771" transform="translate(-43.162 -31.939)" fill="#00aaed"/>
        <path id="Trazado_212191" data-name="Trazado 212191" d="M80.23,78.776c.427,0,.651-.01.771-.117l-.242,0a.739.739,0,0,1-.435.06,1.09,1.09,0,0,0-.8.087,2.492,2.492,0,0,1,.71-.034" transform="translate(-41.79 -41.338)" fill="#00aaed"/>
        <path id="Trazado_212192" data-name="Trazado 212192" d="M82.613,60.6h.023a.614.614,0,0,0-.108-.154c0,.051,0,.1,0,.153h.085" transform="translate(-43.371 -31.769)" fill="#00aaed"/>
        <path id="Trazado_212193" data-name="Trazado 212193" d="M68,43.8c-.435.019-.871.015-1.307.021.3.161.3.451.3.726.012,2.076.009,4.153,0,6.229a.9.9,0,0,1-.2.665c.415.01.831.015,1.245.032.392.016.523-.2.523-.553q0-3.271,0-6.542c0-.386-.149-.6-.565-.579" transform="translate(-35.051 -23.015)" fill="#fd991b"/>
        <path id="Trazado_212194" data-name="Trazado 212194" d="M66.993,44.568c0-.275,0-.565-.3-.726a1.061,1.061,0,0,1,.111.576q-.006,3.522-.009,7.044A.9.9,0,0,0,67,50.8c.007-2.077.009-4.153,0-6.229" transform="translate(-35.051 -23.04)" fill="#fd991b"/>
        <path id="Trazado_212195" data-name="Trazado 212195" d="M69.4,69.549c.675.016,1.35,0,2.026,0s1.351.01,2.026,0c.631-.012.977-.331.981-.873a.856.856,0,0,0-.9-.9q-2.085-.039-4.171,0a.887.887,0,1,0,.042,1.772" transform="translate(-35.974 -35.608)" fill="#000101"/>
        <path id="Trazado_212196" data-name="Trazado 212196" d="M53.276,50.031q-2.058-.011-4.116,0c-.649,0-1.054.351-1.059.874a.94.94,0,0,0,1.041.911c.7.015,1.392,0,2.088,0,.676,0,1.352.009,2.028,0,.7-.012,1.087-.358,1.075-.923s-.374-.859-1.056-.863" transform="translate(-25.278 -26.29)" fill="#010100"/>
      </g>
    </g>
  </g>
</svg>
