<svg xmlns="http://www.w3.org/2000/svg" xmlns:xlink="http://www.w3.org/1999/xlink" width="90" height="90" viewBox="0 0 90 90">
  <defs>
    <clipPath id="clip-path">
      <rect id="Rectángulo_338915" data-name="Rectángulo 338915" width="57.161" height="66.048" fill="none"/>
    </clipPath>
    <clipPath id="clip-path-2">
      <rect id="Rectángulo_338914" data-name="Rectángulo 338914" width="57.161" height="66.048" transform="translate(0 0)" fill="none"/>
    </clipPath>
    <clipPath id="clip-path-3">
      <rect id="Rectángulo_338913" data-name="Rectángulo 338913" width="43.101" height="25.47" transform="translate(7.309 5.009)" fill="none"/>
    </clipPath>
  </defs>
  <g id="Grupo_984005" data-name="Grupo 984005" transform="translate(7051 8139)">
    <path id="Trazado_207348" data-name="Trazado 207348" d="M45,0A45,45,0,1,1,0,45,45,45,0,0,1,45,0Z" transform="translate(-7051 -8139)" fill="#ffe891"/>
    <g id="Grupo_983999" data-name="Grupo 983999" transform="translate(-7034.58 -8127.023)">
      <g id="Grupo_984004" data-name="Grupo 984004" clip-path="url(#clip-path)">
        <g id="Grupo_984003" data-name="Grupo 984003">
          <g id="Grupo_984002" data-name="Grupo 984002" clip-path="url(#clip-path-2)">
            <path id="Trazado_211736" data-name="Trazado 211736" d="M9.561,62.909c5.184,2.655,11.432,2.811,17.145,2.914,2.251.041,4.652.18,7.077.225a24.213,24.213,0,0,1-.1-4.784v-.01a7.071,7.071,0,0,1,.81-2.95l-26.8-15.07c.019.09.029.17.049.26A131.632,131.632,0,0,1,9.561,62.909" fill="#f2ae96"/>
            <path id="Trazado_211737" data-name="Trazado 211737" d="M21.318,65.639c1.816.113,3.628.152,5.388.184,2.251.04,4.653.18,7.078.225a24.3,24.3,0,0,1-.1-4.784c-.03.01-.06.01-.09.019a28.562,28.562,0,0,1-11.15-.569,17.189,17.189,0,0,1-10.4-7.46c.173.415,3.261,7.682,9.274,12.385" fill="#e6987c"/>
            <path id="Trazado_211738" data-name="Trazado 211738" d="M43.993,13.8c-3.5-9-20-12.5-31.5-2.5C7.152,15.949,6.02,24.369,6.336,32.055a3.968,3.968,0,0,0-.683-.274C3.312,31.2.959,32.962.258,35.163a6.344,6.344,0,0,0,.821,5.277,7.981,7.981,0,0,0,3.627,3.03,10.252,10.252,0,0,0,3.12.308,23.223,23.223,0,0,0,7.661,13.039,21.013,21.013,0,0,0,17.864,4.521c4.979-1.033,12.348-4.224,14.177-9.392a13.1,13.1,0,0,0,.537-4.225c.133-10.892-.071-23.628-4.072-33.917" fill="#f2ae96"/>
            <path id="Trazado_211739" data-name="Trazado 211739" d="M39.7,31.865c0,1.669.661,3.023,1.477,3.023s1.476-1.354,1.476-3.023-.661-3.023-1.476-3.023S39.7,30.195,39.7,31.865" fill="#3d1525"/>
            <path id="Trazado_211740" data-name="Trazado 211740" d="M29.862,31.865c0,1.669-.661,3.023-1.477,3.023s-1.476-1.354-1.476-3.023.661-3.023,1.476-3.023,1.477,1.353,1.477,3.023" fill="#3d1525"/>
            <path id="Trazado_211741" data-name="Trazado 211741" d="M36.335,46.37a2.43,2.43,0,0,1-1.554.527,2.546,2.546,0,0,1-1.556-.527,7.966,7.966,0,0,0,1.556.174,6.672,6.672,0,0,0,1.554-.174" fill="#3d1525"/>
            <path id="Trazado_211742" data-name="Trazado 211742" d="M36.247,42.424c0,1.507-.606,2.729-1.354,2.729s-1.354-1.222-1.354-2.729.606-2.729,1.354-2.729,1.354,1.222,1.354,2.729" fill="#3d1525"/>
            <path id="Trazado_211743" data-name="Trazado 211743" d="M31.09,21.38a3.507,3.507,0,0,0-2.288-.847,7.04,7.04,0,0,0-2.437.346,5.933,5.933,0,0,0-2.146,1.229,6.239,6.239,0,0,0-1.465,1.877.707.707,0,0,0,1.1.864l.059-.055a8.721,8.721,0,0,1,1.458-1.158,5.118,5.118,0,0,1,1.611-.661,6.274,6.274,0,0,1,1.743-.169,6.7,6.7,0,0,0,1.865-.108l.186-.046a.74.74,0,0,0,.317-1.272" fill="#3d1525"/>
            <path id="Trazado_211744" data-name="Trazado 211744" d="M38.47,21.38a3.5,3.5,0,0,1,2.288-.847,7.04,7.04,0,0,1,2.437.346,5.928,5.928,0,0,1,2.145,1.229,6.255,6.255,0,0,1,1.465,1.877.707.707,0,0,1-1.1.864l-.06-.055a8.762,8.762,0,0,0-1.458-1.158,5.113,5.113,0,0,0-1.61-.661,6.285,6.285,0,0,0-1.744-.169,6.7,6.7,0,0,1-1.865-.108l-.187-.046a.74.74,0,0,1-.315-1.272" fill="#3d1525"/>
            <path id="Trazado_211745" data-name="Trazado 211745" d="M37.76,26.965c.261,1.139.453,2.27.664,3.391s.424,2.232.742,3.291c.074.266.156.527.251.78a2.794,2.794,0,0,1,.256.976,1.965,1.965,0,0,1-1.059,1.792,2.383,2.383,0,0,1-1.928.1,4.713,4.713,0,0,1-1.526-.913c1.06.4,2.3.709,3.044.146a1.166,1.166,0,0,0,.524-1.078,2.158,2.158,0,0,0-.222-.671q-.171-.425-.3-.854a16.094,16.094,0,0,1-.554-3.478,18.457,18.457,0,0,1,.107-3.485" fill="#3d1525"/>
            <path id="Trazado_211746" data-name="Trazado 211746" d="M1.986,36.514a2.514,2.514,0,0,1,.787-2,2.342,2.342,0,0,1,2.281-.22,4.292,4.292,0,0,1,1.841,1.343,6.888,6.888,0,0,1,1.145,1.93.5.5,0,0,1-.827.543l-.033-.034a4.448,4.448,0,0,0-1.692-1.2.783.783,0,0,0-.711.078,1.882,1.882,0,0,0-.508.784c-.258.663-.413,1.438.152,1.746a3.788,3.788,0,0,0,2.237.152A3.517,3.517,0,0,1,4.2,39.97a1.388,1.388,0,0,1-.868-1.16,3.59,3.59,0,0,1,.144-1.338,2.511,2.511,0,0,1,.715-1.235,1.7,1.7,0,0,1,1.547-.319,4.866,4.866,0,0,1,2.2,1.482l-.86.509a5.4,5.4,0,0,0-2.321-2.9,1.891,1.891,0,0,0-1.718-.1,2.518,2.518,0,0,0-1.056,1.613" fill="#3d1525"/>
            <path id="Trazado_211747" data-name="Trazado 211747" d="M53.43,20.032a4.331,4.331,0,0,0,2.8-3.21,6.212,6.212,0,0,0-.76-4.31,8.054,8.054,0,0,0-8.2-3.95,3.355,3.355,0,0,0,.74-3.3,5.786,5.786,0,0,0-2.1-2.81C43.53.622,40.4.092,37.4.012A34.81,34.81,0,0,0,15.14,7.4c-4.09,3.22-8.53,5.86-10.21,10.79-1.5,4.42-1.74,9.15-1.84,13.83a4.074,4.074,0,0,1,1.4-.336c.824,1.263,3.313,2.638,5.451,3.644a4.285,4.285,0,0,0,5.58-1.806A25.679,25.679,0,0,0,18.7,18.862s5.375-6.75,13.25-.125a43.012,43.012,0,0,0,15.2,8.065c.379,2.809.615,5.663.753,8.5a14.127,14.127,0,0,0,5.5-2.43,9.12,9.12,0,0,0,3.74-6.56,6.508,6.508,0,0,0-3.72-6.28" fill="#6b8dfc"/>
            <g id="Grupo_984001" data-name="Grupo 984001" opacity="0.5" style="mix-blend-mode: screen;isolation: isolate">
              <g id="Grupo_984000" data-name="Grupo 984000">
                <g id="Grupo_983999-2" data-name="Grupo 983999" clip-path="url(#clip-path-3)">
                  <path id="Trazado_211748" data-name="Trazado 211748" d="M7.309,29.129a2.767,2.767,0,0,0,3.035,1.034,3.741,3.741,0,0,0,2.42-2.141c1.036-2.047.727-4.425,1.035-6.794a10.472,10.472,0,0,1,3.377-6.3,11.53,11.53,0,0,1,6.5-3.045,12.213,12.213,0,0,1,6.991,1.605,48.342,48.342,0,0,1,5.879,3.9L42.2,21.538c1.862,1.41,3.744,2.792,5.589,4.227-1.975-1.249-3.913-2.552-5.871-3.826l-5.809-3.913A61.211,61.211,0,0,0,30.255,14.3a11.305,11.305,0,0,0-6.468-1.42,10.6,10.6,0,0,0-9.231,8.464c-.392,2.2-.152,4.731-1.361,6.905a4.116,4.116,0,0,1-2.8,2.171,2.832,2.832,0,0,1-3.089-1.292" fill="#e35e4d"/>
                  <path id="Trazado_211749" data-name="Trazado 211749" d="M23.608,7.888a12.842,12.842,0,0,1,3.462.8c1.113.424,2.177.955,3.232,1.482a41.616,41.616,0,0,0,6.35,2.846,32.668,32.668,0,0,0,6.762,1.5,36.4,36.4,0,0,0,7,.084,24.719,24.719,0,0,1-3.494.612,28.258,28.258,0,0,1-3.565.07,25.629,25.629,0,0,1-7.019-1.322,30.474,30.474,0,0,1-6.4-3.124c-1-.606-2.009-1.2-3.056-1.7a15.415,15.415,0,0,0-3.268-1.245" fill="#e35e4d"/>
                  <path id="Trazado_211750" data-name="Trazado 211750" d="M32.593,5.078a32.909,32.909,0,0,0,5.151.423,33.27,33.27,0,0,0,5.145-.492A9.3,9.3,0,0,1,37.751,6.5a9.337,9.337,0,0,1-5.158-1.422" fill="#e35e4d"/>
                </g>
              </g>
            </g>
          </g>
        </g>
      </g>
    </g>
  </g>
</svg>
