<svg xmlns="http://www.w3.org/2000/svg" xmlns:xlink="http://www.w3.org/1999/xlink" width="90" height="90" viewBox="0 0 90 90">
  <defs>
    <clipPath id="clip-path">
      <rect id="Rectángulo_338912" data-name="Rectángulo 338912" width="56.262" height="70.29" fill="none"/>
    </clipPath>
    <clipPath id="clip-path-2">
      <rect id="Rectángulo_338911" data-name="Rectángulo 338911" width="56.262" height="70.29" transform="translate(0 0)" fill="none"/>
    </clipPath>
    <clipPath id="clip-path-3">
      <rect id="Rectángulo_338910" data-name="Rectángulo 338910" width="47.923" height="58.88" transform="translate(3.856 4.267)" fill="none"/>
    </clipPath>
  </defs>
  <g id="Grupo_983998" data-name="Grupo 983998" transform="translate(6436 8149)">
    <g id="Grupo_982989" data-name="Grupo 982989">
      <path id="Trazado_207349" data-name="Trazado 207349" d="M45,0A45,45,0,1,1,0,45,45,45,0,0,1,45,0Z" transform="translate(-6436 -8149)" fill="#ffe891"/>
      <g id="Grupo_983997" data-name="Grupo 983997" transform="translate(-6416 -8142)">
        <g id="Grupo_983996" data-name="Grupo 983996" clip-path="url(#clip-path)">
          <g id="Grupo_983995" data-name="Grupo 983995">
            <g id="Grupo_983994" data-name="Grupo 983994" clip-path="url(#clip-path-2)">
              <path id="Trazado_211714" data-name="Trazado 211714" d="M19.235,57.689a28.845,28.845,0,0,1-.28,6.85c-.06.46-.13.91-.2,1.36-.225,1.4-.489,2.734-.739,3.879a104.4,104.4,0,0,0,15.2.392,41.2,41.2,0,0,0,10.852-2.183c-.144-.82-.267-1.665-.362-2.538-1.08-10.06.77-22.83,1.19-25.58.02-.11.04-.2.05-.28a2.336,2.336,0,0,1,.04-.26l-3.96,2.29L27.7,49.339l-9.32,5.4a7.192,7.192,0,0,1,.85,2.94Z" fill="#c27559"/>
              <path id="Trazado_211715" data-name="Trazado 211715" d="M18.758,65.9c14.593,1.651,21.747-15.843,22.008-16.5a17.184,17.184,0,0,1-10.3,7.594,28.564,28.564,0,0,1-11.142.714c-.03-.01-.06-.009-.09-.019a32.662,32.662,0,0,1-.474,8.207" fill="#b06043"/>
              <path id="Trazado_211716" data-name="Trazado 211716" d="M51.565,36.449a8.033,8.033,0,0,1-3.58,3.07,9.665,9.665,0,0,1-3.09.35h-.03a24.421,24.421,0,0,1-3.6,8.75,21.088,21.088,0,0,1-21.7,9.14c-.11-.02-.22-.04-.33-.07-4.98-1.02-12.11-4.11-13.97-9.13a12.841,12.841,0,0,1-.58-4.23l-.03-.99c-.08-3.18-.11-6.52-.03-9.91.19-7.91,1.06-16.04,3.69-23.07,3.38-9.04,19.83-12.75,31.46-2.9,5.4,4.58,6.64,12.98,6.43,20.68a3.083,3.083,0,0,1,.68-.29c2.33-.61,4.7,1.12,5.43,3.31a6.351,6.351,0,0,1-.75,5.29" fill="#c27559"/>
              <path id="Trazado_211717" data-name="Trazado 211717" d="M4.657,43.344a5.115,5.115,0,1,0,1.18-10.076,4.811,4.811,0,0,0-1.208.166c-.087,3.381-.053,6.721.028,9.91" fill="#b06043"/>
              <path id="Trazado_211718" data-name="Trazado 211718" d="M36.455,37.988a5.113,5.113,0,1,1-5.179-5.046,5.113,5.113,0,0,1,5.179,5.046" fill="#b06043"/>
              <path id="Trazado_211719" data-name="Trazado 211719" d="M13.575,28.362c.022,1.669-.622,3.031-1.437,3.042s-1.494-1.334-1.516-3,.622-3.031,1.437-3.042,1.494,1.335,1.516,3" fill="#3d1525"/>
              <path id="Trazado_211720" data-name="Trazado 211720" d="M9.033,24.442a4.334,4.334,0,0,0,1.016,1.277A3.5,3.5,0,0,0,11.6,26.5l.025.006a.547.547,0,1,0,.231-1.069.591.591,0,0,0-.144-.011,3.187,3.187,0,0,1-2.384-1.169l-.011-.012a.176.176,0,0,0-.288.2" fill="#3d1525"/>
              <path id="Trazado_211721" data-name="Trazado 211721" d="M23.409,28.235c.022,1.669.7,3.014,1.516,3s1.459-1.373,1.437-3.042-.7-3.014-1.516-3-1.459,1.373-1.437,3.042" fill="#3d1525"/>
              <path id="Trazado_211722" data-name="Trazado 211722" d="M27.544,24.019a3.19,3.19,0,0,1-2.353,1.231.546.546,0,1,0-.029,1.091.515.515,0,0,0,.142-.014l.027-.007a3.517,3.517,0,0,0,1.535-.819,4.372,4.372,0,0,0,.982-1.3.177.177,0,0,0-.08-.236.175.175,0,0,0-.213.045Z" fill="#3d1525"/>
              <path id="Trazado_211723" data-name="Trazado 211723" d="M13.067,37.515a7.235,7.235,0,0,0,2.259,2.5,5.642,5.642,0,0,0,3.319,1.054,5.727,5.727,0,0,0,3.275-1.177,10.955,10.955,0,0,0,1.26-1.151c.341-.452.675-.9.974-1.371-.453.339-.864.7-1.277,1.05-.461.288-.872.641-1.339.884a6.1,6.1,0,0,1-2.909.867,5.949,5.949,0,0,1-2.941-.753,12.758,12.758,0,0,1-2.621-1.9" fill="#3d1525"/>
              <path id="Trazado_211724" data-name="Trazado 211724" d="M17.125,42.822a2.43,2.43,0,0,0,1.561.507,2.55,2.55,0,0,0,1.549-.547,8.083,8.083,0,0,1-1.554.194,6.71,6.71,0,0,1-1.556-.154" fill="#3d1525"/>
              <path id="Trazado_211725" data-name="Trazado 211725" d="M22.046,17.768a3.51,3.51,0,0,1,2.277-.877,7.046,7.046,0,0,1,2.441.315,5.944,5.944,0,0,1,2.161,1.2,6.218,6.218,0,0,1,1.489,1.858.707.707,0,0,1-1.085.878l-.06-.054A8.74,8.74,0,0,0,27.8,19.95a5.106,5.106,0,0,0-1.619-.64,6.26,6.26,0,0,0-1.746-.147,6.671,6.671,0,0,1-1.866-.084l-.187-.043a.74.74,0,0,1-.555-.887.732.732,0,0,1,.223-.381" fill="#3d1525"/>
              <path id="Trazado_211726" data-name="Trazado 211726" d="M14.667,17.863a3.508,3.508,0,0,0-2.3-.817,7.024,7.024,0,0,0-2.431.377,5.932,5.932,0,0,0-2.13,1.257,6.264,6.264,0,0,0-1.44,1.9.708.708,0,0,0,1.108.85l.059-.056a8.692,8.692,0,0,1,1.443-1.177,5.129,5.129,0,0,1,1.6-.682,6.3,6.3,0,0,1,1.742-.192,6.65,6.65,0,0,0,1.863-.132l.186-.048a.74.74,0,0,0,.3-1.276" fill="#3d1525"/>
              <path id="Trazado_211727" data-name="Trazado 211727" d="M18.09,23.685c-.246,1.142-.424,2.276-.62,3.4s-.395,2.238-.7,3.3c-.07.267-.149.529-.24.783a2.8,2.8,0,0,0-.244.979,1.965,1.965,0,0,0,1.083,1.778A2.384,2.384,0,0,0,19.3,34a4.7,4.7,0,0,0,1.514-.932c-1.055.412-2.289.738-3.042.185a1.165,1.165,0,0,1-.538-1.071,2.2,2.2,0,0,1,.213-.674c.11-.284.207-.57.288-.858a16.039,16.039,0,0,0,.509-3.485,18.449,18.449,0,0,0-.152-3.483" fill="#3d1525"/>
              <path id="Trazado_211728" data-name="Trazado 211728" d="M50.486,32.817a2.516,2.516,0,0,0-.814-1.99,2.34,2.34,0,0,0-2.283-.19A4.291,4.291,0,0,0,45.565,32a6.9,6.9,0,0,0-1.12,1.945.5.5,0,0,0,.834.532l.034-.035a4.44,4.44,0,0,1,1.675-1.219.783.783,0,0,1,.712.069,1.885,1.885,0,0,1,.518.778c.266.659.432,1.432-.13,1.747A3.79,3.79,0,0,1,45.854,36a3.519,3.519,0,0,0,2.462.3,1.384,1.384,0,0,0,.852-1.17,3.6,3.6,0,0,0-.16-1.337,2.52,2.52,0,0,0-.732-1.226,1.692,1.692,0,0,0-1.55-.3,4.871,4.871,0,0,0-2.184,1.511l.866.5a5.394,5.394,0,0,1,2.283-2.934,1.893,1.893,0,0,1,1.717-.127,2.53,2.53,0,0,1,1.078,1.6" fill="#3d1525"/>
              <path id="Trazado_211729" data-name="Trazado 211729" d="M51.754,61.873l.143-.079c.475-.266.942-.54,1.4-.823l.177-.109q.666-.42,1.292-.865c.059-.042.119-.082.177-.124q.621-.45,1.189-.924c.037-.03.079-.059.116-.09,0,0,1-41.12-12-50.88,0,0-17.214-17.417-34.714-.787S3.985,66.359,3.985,66.359s8.07.68,14.97-1.82a28.845,28.845,0,0,0,.28-6.85c-4.98-1.02-12.11-4.11-13.97-9.13a12.841,12.841,0,0,1-.58-4.23l-.03-.99c-.08-3.18-.11-6.52-.03-9.91.057-2.381.187-4.779.4-7.164,10.044-1.286,25.343-11.406,25.343-11.406s2.2,9.549,9.094,14.125c1.828,10.594-1.9,29.032-7.844,38.875,0,0,12.392-2.069,18.558-5.154l.068-.034q.765-.385,1.513-.8" fill="#ffbfc1"/>
              <g id="Grupo_983993" data-name="Grupo 983993" opacity="0.5" style="mix-blend-mode: screen;isolation: isolate">
                <g id="Grupo_983992" data-name="Grupo 983992">
                  <g id="Grupo_983991" data-name="Grupo 983991" clip-path="url(#clip-path-3)">
                    <path id="Trazado_211730" data-name="Trazado 211730" d="M33.495,14a50.33,50.33,0,0,1,8.177,11.14,39.7,39.7,0,0,1,4.359,13.181,35.692,35.692,0,0,1-.973,13.85,23.268,23.268,0,0,1-2.768,6.393,12.284,12.284,0,0,1-5.125,4.584A12.611,12.611,0,0,0,41.873,58.3a22.9,22.9,0,0,0,2.441-6.328,36.457,36.457,0,0,0,.727-13.527,40.862,40.862,0,0,0-4.05-12.961,51.766,51.766,0,0,0-3.426-5.935A67.9,67.9,0,0,0,33.495,14" fill="#fdd190"/>
                    <path id="Trazado_211731" data-name="Trazado 211731" d="M38.552,12.673q1.077,1.1,2.138,2.23l1.969,2.391,1.772,2.546,1.6,2.661a47.549,47.549,0,0,1,4.48,11.574,47.543,47.543,0,0,1,1.239,12.349l-.225,3.1-.43,3.072-.676,3.023q-.435,1.486-.9,2.956.308-1.515.64-3.014l.45-3.038.285-3.051.086-3.059a50.456,50.456,0,0,0-1.441-12.1A50.463,50.463,0,0,0,45.355,22.86a51.346,51.346,0,0,0-6.8-10.187" fill="#fdd190"/>
                    <path id="Trazado_211732" data-name="Trazado 211732" d="M42.867,9.023a14.971,14.971,0,0,1,4.674,4.568,14.9,14.9,0,0,1,2.418,6.071c-1.055-1.918-2.065-3.763-3.25-5.517-1.162-1.77-2.477-3.412-3.842-5.122" fill="#fdd190"/>
                    <path id="Trazado_211733" data-name="Trazado 211733" d="M30.052,11.207c-.342.533-.693,1.064-1.055,1.588l-1.175,1.51-1.3,1.408-1.389,1.326a28.728,28.728,0,0,1-6.375,4.284,28.735,28.735,0,0,1-7.278,2.455l-1.9.3-1.909.175-1.913.013q-.955-.048-1.9-.129c.635-.055,1.265-.1,1.894-.135l1.875-.236,1.856-.312,1.829-.422a36.428,36.428,0,0,0,7.005-2.6,36.327,36.327,0,0,0,6.326-3.975,37.333,37.333,0,0,0,5.411-5.245" fill="#fdd190"/>
                    <path id="Trazado_211734" data-name="Trazado 211734" d="M28.635,6.832a24.41,24.41,0,0,1-4.368,4.728,27.742,27.742,0,0,1-5.408,3.562,27.691,27.691,0,0,1-6.084,2.22l-1.586.322-1.6.24-1.609.114c-.537.015-1.074.017-1.608.011q.792-.153,1.578-.274l1.558-.335,1.542-.372,1.519-.448a39.477,39.477,0,0,0,5.838-2.371A39.421,39.421,0,0,0,23.8,10.957a43.274,43.274,0,0,0,4.84-4.125" fill="#fdd190"/>
                    <path id="Trazado_211735" data-name="Trazado 211735" d="M24.449,4.267a14.5,14.5,0,0,1-5.99,4.2,14.451,14.451,0,0,1-7.261.9,35.9,35.9,0,0,0,6.9-1.837,35.561,35.561,0,0,0,6.349-3.271" fill="#fdd190"/>
                  </g>
                </g>
              </g>
            </g>
          </g>
        </g>
      </g>
    </g>
  </g>
</svg>
