<svg xmlns="http://www.w3.org/2000/svg" xmlns:xlink="http://www.w3.org/1999/xlink" width="90" height="90" viewBox="0 0 90 90">
  <defs>
    <clipPath id="clip-path">
      <rect id="Rectángulo_339002" data-name="Rectángulo 339002" width="58.923" height="70.004" fill="none"/>
    </clipPath>
  </defs>
  <g id="Grupo_984005" data-name="Grupo 984005" transform="translate(7051 8139)">
    <path id="Trazado_207348" data-name="Trazado 207348" d="M45,0A45,45,0,1,1,0,45,45,45,0,0,1,45,0Z" transform="translate(-7051 -8139)" fill="#ffe891"/>
    <g id="Grupo_984154" data-name="Grupo 984154" transform="translate(-7035.461 -8129.002)">
      <g id="Grupo_984154-2" data-name="Grupo 984154" transform="translate(0 0)" clip-path="url(#clip-path)">
        <path id="Trazado_212523" data-name="Trazado 212523" d="M46.068,58.634a32.66,32.66,0,0,0,.58,8.2c.186,1.06.393,2.072.6,3-8.223.135-16.907.8-24.746-1.907-.3-.106-.6-.233-.895-.35,1.2-10.591-1.121-24.628-1.476-26.712-.02-.09-.03-.17-.05-.26l26.8,15.07a7.1,7.1,0,0,0-.81,2.95Z" transform="translate(-8.4 0)" fill="#e29579"/>
        <path id="Trazado_212524" data-name="Trazado 212524" d="M42.895,66.834c-14.57,1.84-21.95-15.56-22.22-16.21a17.185,17.185,0,0,0,10.4,7.46,28.547,28.547,0,0,0,11.15.57c.03-.01.06-.01.09-.02a32.66,32.66,0,0,0,.58,8.2" transform="translate(-4.647 0)" fill="#df8666"/>
        <path id="Trazado_212525" data-name="Trazado 212525" d="M54.915,44.1c0,.33-.01.66-.01.99a13.076,13.076,0,0,1-.53,4.23c-1.83,5.16-9.2,8.36-14.181,9.39a21.014,21.014,0,0,1-17.859-4.52,23.216,23.216,0,0,1-7.67-13.04,10.139,10.139,0,0,1-3.12-.31,7.987,7.987,0,0,1-3.62-3.03,6.337,6.337,0,0,1-.82-5.28c.7-2.2,3.05-3.96,5.39-3.38a3.5,3.5,0,0,1,.68.28c-.31-7.69.82-16.11,6.16-20.76,11.5-10,28-6.5,31.5,2.5,2.72,6.99,3.69,15.11,3.98,23.02.13,3.38.14,6.72.1,9.91" transform="translate(-2.858 0)" fill="#e29579"/>
        <path id="Trazado_212526" data-name="Trazado 212526" d="M13.265,44.1a5.171,5.171,0,0,1-1.31.17,5.115,5.115,0,0,1,0-10.23,4.833,4.833,0,0,1,1.21.15c.13,3.38.14,6.72.1,9.91" transform="translate(38.792 0)" fill="#df8666"/>
        <path id="Trazado_212527" data-name="Trazado 212527" d="M28.5,39.156a5.113,5.113,0,1,0,5.113-5.113A5.113,5.113,0,0,0,28.5,39.156" transform="translate(-8.313 0)" fill="#df8666"/>
        <path id="Trazado_212528" data-name="Trazado 212528" d="M13.024,29.235c0,1.669.661,3.023,1.477,3.023s1.476-1.354,1.476-3.023-.661-3.023-1.476-3.023-1.477,1.354-1.477,3.023" transform="translate(29.922 0)" fill="#3d1525"/>
        <path id="Trazado_212529" data-name="Trazado 212529" d="M14.706,25.256a4.325,4.325,0,0,1-1,1.29,3.514,3.514,0,0,1-1.545.8l-.025.006a.546.546,0,0,1-.245-1.065.6.6,0,0,1,.144-.014,3.182,3.182,0,0,0,2.368-1.2l.011-.012a.176.176,0,0,1,.291.195" transform="translate(32.73 0)" fill="#3d1525"/>
        <path id="Trazado_212530" data-name="Trazado 212530" d="M28.766,29.235c0,1.669-.661,3.023-1.477,3.023s-1.476-1.354-1.476-3.023.661-3.023,1.476-3.023,1.477,1.354,1.477,3.023" transform="translate(4.344 0)" fill="#3d1525"/>
        <path id="Trazado_212531" data-name="Trazado 212531" d="M27.387,25.073a3.187,3.187,0,0,0,2.368,1.2.546.546,0,1,1,.043,1.092.508.508,0,0,1-.141-.013l-.027-.006a3.512,3.512,0,0,1-1.546-.8,4.367,4.367,0,0,1-1-1.29.177.177,0,0,1,.291-.2Z" transform="translate(1.534 0)" fill="#3d1525"/>
        <path id="Trazado_212532" data-name="Trazado 212532" d="M26.438,38.38a7.232,7.232,0,0,1-2.226,2.531,5.647,5.647,0,0,1-3.3,1.1,5.728,5.728,0,0,1-3.29-1.135,10.717,10.717,0,0,1-1.275-1.135c-.348-.447-.687-.895-.991-1.358.456.334.872.689,1.29,1.034.465.282.88.629,1.35.866a6.091,6.091,0,0,0,2.92.83,5.952,5.952,0,0,0,2.931-.792,12.718,12.718,0,0,0,2.6-1.938" transform="translate(17.134 0)" fill="#3d1525"/>
        <path id="Trazado_212533" data-name="Trazado 212533" d="M22.45,43.74a2.43,2.43,0,0,1-1.554.527,2.546,2.546,0,0,1-1.556-.527,7.966,7.966,0,0,0,1.556.174,6.672,6.672,0,0,0,1.554-.174" transform="translate(17.133 0)" fill="#3d1525"/>
        <path id="Trazado_212534" data-name="Trazado 212534" d="M32.759,18.751a3.5,3.5,0,0,0-2.288-.847,7.04,7.04,0,0,0-2.437.346,5.928,5.928,0,0,0-2.145,1.229,6.254,6.254,0,0,0-1.465,1.877.707.707,0,0,0,1.1.864l.06-.055a8.721,8.721,0,0,1,1.458-1.158,5.113,5.113,0,0,1,1.61-.661,6.284,6.284,0,0,1,1.744-.169,6.7,6.7,0,0,0,1.865-.108l.186-.046a.739.739,0,0,0,.316-1.272" transform="translate(1.579 0)" fill="#3d1525"/>
        <path id="Trazado_212535" data-name="Trazado 212535" d="M9.031,18.751a3.5,3.5,0,0,1,2.288-.847,7.04,7.04,0,0,1,2.437.346A5.928,5.928,0,0,1,15.9,19.479a6.254,6.254,0,0,1,1.465,1.877.707.707,0,0,1-1.1.864l-.06-.055a8.762,8.762,0,0,0-1.458-1.158,5.113,5.113,0,0,0-1.61-.661,6.285,6.285,0,0,0-1.744-.169,6.7,6.7,0,0,1-1.865-.108l-.187-.046a.74.74,0,0,1-.315-1.272" transform="translate(32.687 0)" fill="#3d1525"/>
        <path id="Trazado_212536" data-name="Trazado 212536" d="M21.238,24.617c.261,1.139.453,2.27.664,3.391s.424,2.232.742,3.291c.074.266.156.527.251.78a2.794,2.794,0,0,1,.256.976,1.964,1.964,0,0,1-1.06,1.792,2.381,2.381,0,0,1-1.927.1,4.7,4.7,0,0,1-1.526-.913c1.06.4,2.3.709,3.044.146a1.166,1.166,0,0,0,.524-1.078,2.158,2.158,0,0,0-.222-.671q-.171-.424-.3-.854a16.094,16.094,0,0,1-.554-3.478,18.456,18.456,0,0,1,.107-3.485" transform="translate(17.132 0)" fill="#3d1525"/>
        <path id="Trazado_212537" data-name="Trazado 212537" d="M46.737,34.167a2.517,2.517,0,0,1,.787-2,2.345,2.345,0,0,1,2.281-.219,4.292,4.292,0,0,1,1.841,1.343,6.874,6.874,0,0,1,1.145,1.93.5.5,0,0,1-.827.543l-.033-.034a4.448,4.448,0,0,0-1.692-1.2.785.785,0,0,0-.712.078,1.884,1.884,0,0,0-.507.784c-.258.663-.413,1.438.152,1.746a3.8,3.8,0,0,0,2.237.153,3.522,3.522,0,0,1-2.458.33,1.388,1.388,0,0,1-.868-1.16,3.589,3.589,0,0,1,.144-1.338,2.511,2.511,0,0,1,.715-1.235,1.692,1.692,0,0,1,1.547-.319,4.866,4.866,0,0,1,2.2,1.482l-.86.509a5.4,5.4,0,0,0-2.321-2.9,1.891,1.891,0,0,0-1.718-.1,2.518,2.518,0,0,0-1.056,1.613" transform="translate(-40.641 0)" fill="#3d1525"/>
        <path id="Trazado_212538" data-name="Trazado 212538" d="M38.245,66.832a32.66,32.66,0,0,1-.58-8.2c4.97-1.09,12.059-4.26,13.85-9.31a13.1,13.1,0,0,0,.53-4.23c0-.33.01-.66.01-.99.04-3.19.03-6.53-.1-9.91a101.441,101.441,0,0,0-.966-11.046,30.494,30.494,0,0,1-15.674-.9,30.466,30.466,0,0,1-12.039-7.529,70.737,70.737,0,0,0-6.355,15.038c-.291,1-.73,2.17-1.745,2.391a2.467,2.467,0,0,1-1.289-.155,8.76,8.76,0,0,1-3.893-2.7,2.536,2.536,0,0,0-.359-.131c-2.34-.58-4.69,1.18-5.39,3.38a6.337,6.337,0,0,0,.82,5.28,7.987,7.987,0,0,0,3.62,3.03,9.916,9.916,0,0,0,3.09.31c0,.025.01.058.014.084l.017-.086c5,2.952,8.011,14.878,9.364,28.379a35.558,35.558,0,0,1-7.071-1.6A20.045,20.045,0,0,1,3.375,59.458,27.3,27.3,0,0,1,2,56.823C.561,46.164-.452,33.759.206,26.232c1.25-14.25,11-14.75,11-14.75s3-14.25,26-11,24,36.75,19.749,51.25c-3.47,11.84-14.269,16.68-18.119,18.06-.2-.92-.4-1.92-.59-2.96" transform="translate(0 0)" fill="#874535"/>
        <path id="Trazado_212539" data-name="Trazado 212539" d="M46.464,12.625a24.782,24.782,0,0,0-5.3,7.844A24.7,24.7,0,0,0,39.04,29.7a64.762,64.762,0,0,1,3.037-8.83,64.124,64.124,0,0,1,4.387-8.242" transform="translate(-26.581 0)" fill="#874535"/>
        <path id="Trazado_212540" data-name="Trazado 212540" d="M46.454,35.143a43.482,43.482,0,0,0,.824,11.872c.747,3.926,1.756,7.821,2.624,11.753q.684,3.172,1.325,6.354-.6-.425-1.159-.891c-.37-1.752-.747-3.5-1.142-5.248-.835-3.925-1.815-7.824-2.542-11.8a41.562,41.562,0,0,1-.692-12.114,32.14,32.14,0,0,1,3.743-11.511A92.191,92.191,0,0,1,55.972,13.4a103.7,103.7,0,0,0-6.1,10.371,31.684,31.684,0,0,0-3.416,11.367" transform="translate(-42.548 0)" fill="#874535"/>
        <path id="Trazado_212541" data-name="Trazado 212541" d="M47.253,68.489c-.194-.8-.391-1.593-.584-2.39-.858-3.645-1.716-7.291-2.5-10.955s-1.57-7.327-2.24-11.018c1.072,3.595,2.036,7.216,2.985,10.84s1.842,7.261,2.725,10.9c.228.966.452,1.932.678,2.9-.357-.087-.712-.178-1.066-.276" transform="translate(-31.327 0)" fill="#874535"/>
        <path id="Trazado_212542" data-name="Trazado 212542" d="M5.975,11.342q.6.774,1.228,1.536l1.359,1.433,1.488,1.3,1.582,1.2a26.8,26.8,0,0,0,7.109,3.506A26.8,26.8,0,0,0,26.563,21.6l1.983-.052,1.969-.193,1.939-.376c.636-.168,1.267-.348,1.893-.535-.652.082-1.3.172-1.938.274l-1.942.149-1.938.049L26.6,20.837a32.6,32.6,0,0,1-7.549-1.472,32.5,32.5,0,0,1-7-3.2,32.289,32.289,0,0,1-6.076-4.827" transform="translate(18.601 0)" fill="#874535"/>
        <path id="Trazado_212543" data-name="Trazado 212543" d="M11.223,6.341a27.012,27.012,0,0,0,9.714,4.233,26.905,26.905,0,0,0,10.591.321A58.008,58.008,0,0,1,21.156,9.6a57.568,57.568,0,0,1-9.933-3.258" transform="translate(16.172 0)" fill="#874535"/>
        <path id="Trazado_212544" data-name="Trazado 212544" d="M15.722,3.1a16.47,16.47,0,0,0,6.1,2.1,16.389,16.389,0,0,0,6.443-.268c-2.149-.238-4.225-.406-6.3-.721-2.077-.288-4.115-.72-6.242-1.108" transform="translate(14.938 0)" fill="#874535"/>
      </g>
    </g>
  </g>
</svg>
