<svg xmlns="http://www.w3.org/2000/svg" xmlns:xlink="http://www.w3.org/1999/xlink" width="190" height="176.667" viewBox="0 0 190 176.667">
  <defs>
    <clipPath id="clip-path">
      <path id="Trazado_204746" data-name="Trazado 204746" d="M0,0H185.258V170.073H66.352s-8.964,6.594-18.3,6.594-19.044-6.594-19.044-6.594H0Z" transform="translate(1068 3492)" fill="none" stroke="#707070" stroke-width="1"/>
    </clipPath>
  </defs>
  <g id="Grupo_984116" data-name="Grupo 984116" transform="translate(-1230 -1326.311)">
    <rect id="Rect치ngulo_338946" data-name="Rect치ngulo 338946" width="190" height="140" rx="12" transform="translate(1230 1357)" fill="#3c3fa7"/>
    <g id="Enmascarar_grupo_421" data-name="Enmascarar grupo 421" transform="translate(164 -2165.689)" clip-path="url(#clip-path)">
      <g id="Grupo_982511" data-name="Grupo 982511" transform="translate(1068.297 3493.845)">
        <g id="Grupo_982508" data-name="Grupo 982508" transform="translate(0 35.148)">
          <g id="Grupo_982512" data-name="Grupo 982512" transform="translate(0 0)">
            <path id="Trazado_204689" data-name="Trazado 204689" d="M223.708,78.361H267.86c2.714,0,5.609.132,5.609,4.084s.613,28.56.068,32.286c-.452,3.1-2.059,4.6-8.754,4.733s-36.916-.094-40.351,0c-2.172.059-6.243.059-6.514-4.61-.277-4.755-.2-27.468-.174-31.749-.028-5.072,5.964-4.743,5.964-4.743" transform="translate(-217.713 -78.356)" fill="#e19e2c"/>
            <path id="Trazado_204690" data-name="Trazado 204690" d="M263.5,119.772s.352,7.045,3.17,12.329c0,0-8.983-1.585-11.8-13.562Z" transform="translate(-220.103 -80.941)" fill="#e19e2c"/>
            <path id="Trazado_204691" data-name="Trazado 204691" d="M231.451,114.915c.51,0,3.684.057,4.165.007.4-.042.593-.194.61-.822s-.012-3.467,0-3.789c.008-.2.008-.586-.594-.612s-3.543-.019-4.1-.016a.534.534,0,0,0-.612.56v4.146c0,.255.017.527.527.527" transform="translate(-218.563 -80.371)" fill="#fff"/>
            <path id="Trazado_204692" data-name="Trazado 204692" d="M245.015,110.242v4.146c0,.255.017.527.527.527s3.684.058,4.165.007c.4-.042.593-.193.61-.822s-.012-3.468,0-3.79c.007-.2.007-.587-.594-.612s-3.543-.019-4.1-.016a.534.534,0,0,0-.612.56" transform="translate(-219.469 -80.371)" fill="#fff"/>
            <path id="Trazado_204693" data-name="Trazado 204693" d="M259.107,110.242v4.146c0,.255.016.527.526.527s3.685.058,4.165.007c.4-.042.593-.193.61-.822s-.012-3.468,0-3.79c.007-.2.007-.587-.594-.612s-3.543-.019-4.1-.016a.533.533,0,0,0-.611.56" transform="translate(-220.376 -80.371)" fill="#fff"/>
            <path id="Trazado_204694" data-name="Trazado 204694" d="M231.451,104.653c.51,0,3.684.058,4.165.007.4-.043.593-.194.61-.822s-.012-16.966,0-17.289c.008-.2.008-.586-.594-.612s-3.543-.019-4.1-.016a.534.534,0,0,0-.612.56v17.646c0,.255.017.527.527.527" transform="translate(-218.563 -78.843)" fill="#fff"/>
            <path id="Trazado_204695" data-name="Trazado 204695" d="M245.015,86.48v17.646c0,.255.017.527.527.527s3.684.057,4.165.006c.4-.042.593-.193.61-.822s-.012-16.966,0-17.289c.007-.2.007-.587-.594-.612s-3.543-.02-4.1-.017a.534.534,0,0,0-.612.56" transform="translate(-219.469 -78.843)" fill="#fff"/>
            <path id="Trazado_204696" data-name="Trazado 204696" d="M259.107,86.48v17.646c0,.255.016.527.526.527s3.685.057,4.165.006c.4-.042.593-.193.61-.822s-.012-16.966,0-17.289c.007-.2.007-.587-.594-.612s-3.543-.02-4.1-.017a.533.533,0,0,0-.611.56" transform="translate(-220.376 -78.843)" fill="#fff"/>
          </g>
        </g>
        <g id="Grupo_982510" data-name="Grupo 982510" transform="translate(5.714 0)">
          <g id="Grupo_982517" data-name="Grupo 982517" transform="translate(0 0)">
            <path id="Trazado_204697" data-name="Trazado 204697" d="M265.25,189.525c-.689,1.082-1.088,1.711-1.088,1.711l-5.958-16-.937-3.446s-3.391-9.173-3.782-11.658c-.465-2.955,2.11-11.633,1.837-15-.247-3.057-4.265.437-5.957,2.053-3.9-2.269-17.1-6.3-18.269-4.429-1.049,1.666,6.663,4.794,9.312,5.808l-.036.01c-3.182-1.091-13.675-4.493-14.187-2.086-.192,1.232,6.707,3.61,10.349,4.775-.024.053-.051.1-.075.159-3.881-.854-11.437-2.338-11.756-1.019-.335,1.383,7.542,3.426,11.071,4.269,0,.022,0,.048,0,.07-3.645-.66-11.983-2.013-11.953-.568.038,1.94,8.536,4.1,11.861,4.959l.277-.221a58.831,58.831,0,0,0,1.986,9.123s.763,21.52,7.814,40.255c5.414,14.384,28.527,17.469,44.025-.574-10.178-3.267-19.388-8.853-24.533-18.193" transform="translate(-223.82 -47.32)" fill="#e6a07e"/>
            <path id="Trazado_204698" data-name="Trazado 204698" d="M292.631,208.707a49.682,49.682,0,0,0,7.073-10.955l-3.282-40.113a33.442,33.442,0,0,0-15.7,13.055c-4.846,7.592-10.337,16.227-12.621,19.82,5.146,9.339,14.356,14.926,24.534,18.193" transform="translate(-226.668 -48.308)" fill="#dc8765"/>
            <path id="Trazado_204699" data-name="Trazado 204699" d="M241.561,155.744s7.4-.215,7.987,4.906" transform="translate(-224.961 -48.186)" fill="none" stroke="#683935" stroke-miterlimit="10" stroke-width="0.642"/>
            <path id="Trazado_204700" data-name="Trazado 204700" d="M375.178,72.413s2.907,26.584-6,37.79-15.482,14.635-27.03,16.556-43.931-3.909-47.686-10.934-9.857-28.543-5.807-42.79,86.527-.622,86.527-.622" transform="translate(-227.904 -42.448)" fill="#050504"/>
            <path id="Trazado_204701" data-name="Trazado 204701" d="M316.012,142.544s4.147-2.322,16.92-1.991,14.6.5,14.6.5l-9.787,16.257-17.584-5.64Z" transform="translate(-229.75 -47.207)" fill="#486f6c"/>
            <path id="Trazado_204702" data-name="Trazado 204702" d="M344.75,138.913l.214-12.484-26.329,3.479.309,11.927c8.89,1.356,17.534.015,25.806-2.922" transform="translate(-229.919 -46.3)" fill="#dc8765"/>
            <path id="Trazado_204703" data-name="Trazado 204703" d="M344.771,139.771c-8.272,2.937-16.916,4.278-25.806,2.922l.046,1.772s-.842,19.25,12.7,20.546,12.985-20.753,12.985-20.753Z" transform="translate(-229.94 -47.158)" fill="#e6a07e"/>
            <path id="Trazado_204704" data-name="Trazado 204704" d="M302.668,112.274l-.035-14.247s-10.838-7.813-14.975,4.405,8.709,16.532,15.01,9.841" transform="translate(-227.874 -44.315)" fill="#dc8765"/>
            <path id="Trazado_204705" data-name="Trazado 204705" d="M298.446,112.059a.254.254,0,0,1-.1-.051.258.258,0,0,1-.03-.364c.044-.052,4.381-5.261,1.008-9.21a5.718,5.718,0,0,0-4-2.228,7.122,7.122,0,0,0-4.637,1.735.258.258,0,0,1-.349-.381,7.523,7.523,0,0,1,5.014-1.869,6.213,6.213,0,0,1,4.363,2.408c3.659,4.284-.96,9.824-1.007,9.879a.258.258,0,0,1-.268.081" transform="translate(-228.093 -44.58)" fill="#634927"/>
            <path id="Trazado_204706" data-name="Trazado 204706" d="M293.926,105.8a.258.258,0,0,1-.021-.49c.05-.019,5.079-1.882,7.3,2.091a.258.258,0,0,1-.451.252c-2-3.585-6.614-1.877-6.661-1.86a.253.253,0,0,1-.162.007" transform="translate(-228.317 -44.913)" fill="#634927"/>
            <path id="Trazado_204707" data-name="Trazado 204707" d="M295.746,68.344s-.565,15.218-.416,33.24c.119,14.589,11.906,28.766,29.728,29.763,16.752.937,34.085-5.959,39.094-29.488s1.149-42.717-20.206-47.744-42.61-3.933-48.2,14.229" transform="translate(-228.418 -41.483)" fill="#e6a07e"/>
            <path id="Trazado_204708" data-name="Trazado 204708" d="M322.128,63.931c.091-.127.15-.2.15-.2s-.053.074-.15.2" transform="translate(-230.143 -42.267)" fill="#e09f25"/>
            <path id="Trazado_204709" data-name="Trazado 204709" d="M355.562,89.576s2.825-3.287-3.246-7.31-8.182-3.106-9.142-1.06c-.876,1.868.531,4.644,3.975,6.814,4.134,2.606,6.88,3.444,8.413,1.556" transform="translate(-231.481 -43.279)" fill="#050504"/>
            <path id="Trazado_204710" data-name="Trazado 204710" d="M303.213,86.846s-2.2-3.734,4.485-6.621,8.6-1.613,9.187.572c.532,1.992-1.343,4.476-5.117,6-4.53,1.834-7.381,2.174-8.554.045" transform="translate(-228.904 -43.22)" fill="#050504"/>
            <path id="Trazado_204711" data-name="Trazado 204711" d="M341.477,100.632a2.66,2.66,0,1,0,2.581-3.2,2.937,2.937,0,0,0-2.581,3.2" transform="translate(-231.388 -44.435)"/>
            <path id="Trazado_204712" data-name="Trazado 204712" d="M307.533,100.028a2.66,2.66,0,1,0,2.581-3.2,2.937,2.937,0,0,0-2.581,3.2" transform="translate(-229.204 -44.396)"/>
            <path id="Trazado_204713" data-name="Trazado 204713" d="M323.439,105.976a.258.258,0,0,0,.1-.494,6.972,6.972,0,0,1-3.028-2.787,4.4,4.4,0,0,1,.428-4.578,1.819,1.819,0,0,1,2.272-.158l.137.075c3.193,1.817,4.619.975,5.254-.051,1.163-1.884.009-16.67-.125-18.35a.262.262,0,0,0-.278-.237.258.258,0,0,0-.237.279c.364,4.517,1.11,16.563.2,18.036-.748,1.213-2.282,1.171-4.56-.125-.069-.039-.123-.07-.156-.087a2.324,2.324,0,0,0-2.871.253,4.89,4.89,0,0,0-.524,5.177,7.372,7.372,0,0,0,3.279,3.026.254.254,0,0,0,.107.022" transform="translate(-229.978 -43.275)" fill="#634927"/>
            <path id="Trazado_204714" data-name="Trazado 204714" d="M338.623,114.768c.508,2.449,4.637,3.662,9.223,2.711s7.891-3.708,7.382-6.157-4.637-3.662-9.223-2.711-7.891,3.708-7.382,6.157" transform="translate(-231.201 -45.133)" fill="#dc8765"/>
            <path id="Trazado_204715" data-name="Trazado 204715" d="M314.943,114.448c-.574,2.435-4.734,3.538-9.292,2.464s-7.789-3.917-7.216-6.351,4.734-3.537,9.292-2.464,7.79,3.917,7.216,6.351" transform="translate(-228.615 -45.095)" fill="#dc8765"/>
            <path id="Trazado_204716" data-name="Trazado 204716" d="M311.43,42.075c16.692-3.179,32.483,3.342,38.367,6.213-.465-3.489,1.171-7.511,2.34-7.5,1.546.021,1.13,6.826.967,8.906l.185.037c.679-1.541,2.736-5.639,4.808-4.118,1.41,1.037-.328,3.164-2.145,4.845,5.379,1.815,17.887,5.368,19.174,20.295,1.525,17.692-6.3,25.926-6.3,25.926s-2.277.577-10.669-2.688c-2.536-.986-9.375-35.843-18.692-26.9-19.793,18.99-29.557,16.873-46.5,19.978-5.962,1.092-3.77,5.009-6.005-6.359S290.321,46.1,311.43,42.075" transform="translate(-227.851 -40.792)" fill="#050504"/>
            <path id="Trazado_204717" data-name="Trazado 204717" d="M358.562,108.814l3.791-13.733s12.515-4.678,13.283,8.2-12.762,13.65-17.074,5.535" transform="translate(-232.487 -44.231)" fill="#e6a07e"/>
            <path id="Trazado_204718" data-name="Trazado 204718" d="M363.141,109.757a.259.259,0,0,0,.235-.365c-.028-.063-2.782-6.256,1.539-9.137a5.718,5.718,0,0,1,4.453-1.055,7.124,7.124,0,0,1,3.99,2.932.258.258,0,0,0,.44-.271,7.528,7.528,0,0,0-4.315-3.164,6.212,6.212,0,0,0-4.853,1.128c-4.688,3.125-1.753,9.714-1.723,9.781a.258.258,0,0,0,.235.151" transform="translate(-232.706 -44.509)" fill="#634927"/>
            <path id="Trazado_204719" data-name="Trazado 204719" d="M369.5,105a.258.258,0,0,0,.154-.465c-.043-.033-4.374-3.194-7.589.024a.258.258,0,1,0,.365.365c2.9-2.9,6.876,0,6.916.025a.263.263,0,0,0,.154.051" transform="translate(-232.707 -44.801)" fill="#634927"/>
            <path id="Trazado_204720" data-name="Trazado 204720" d="M300.988,116.6a15.614,15.614,0,1,1,16.055-15.16,15.632,15.632,0,0,1-16.055,15.16m.872-30.386a14.784,14.784,0,1,0,14.354,15.2,14.8,14.8,0,0,0-14.354-15.2" transform="translate(-227.808 -43.66)" fill="#1c1d27"/>
            <path id="Trazado_204721" data-name="Trazado 204721" d="M346.591,117.907a15.614,15.614,0,1,1,16.055-15.16,15.632,15.632,0,0,1-16.055,15.16m.872-30.386a14.784,14.784,0,1,0,14.353,15.2,14.8,14.8,0,0,0-14.353-15.2" transform="translate(-230.741 -43.744)" fill="#1c1d27"/>
            <path id="Trazado_204722" data-name="Trazado 204722" d="M331.045,100.847a.416.416,0,0,1-.208-.063c-5.84-3.649-11.959-.379-12.021-.345a.415.415,0,1,1-.4-.728c.065-.035,6.613-3.532,12.859.369a.415.415,0,0,1-.232.767" transform="translate(-229.891 -44.487)" fill="#1c1d27"/>
            <path id="Trazado_204723" data-name="Trazado 204723" d="M328.12,118.58a3.729,3.729,0,0,1-4.1-1.508,23.28,23.28,0,0,1,7.688-3.08c-.423,1.666-1.386,3.869-3.587,4.589" transform="translate(-230.265 -45.5)" fill="#cc555f"/>
            <path id="Trazado_204724" data-name="Trazado 204724" d="M331.923,111.845a11.206,11.206,0,0,1-.327,2.008,23.275,23.275,0,0,0-7.687,3.08,10.584,10.584,0,0,1-1.622-2.745c3.285-2.364,9.635-2.343,9.635-2.343" transform="translate(-230.153 -45.362)"/>
            <path id="Trazado_204725" data-name="Trazado 204725" d="M397.864,219.708c2.753-.159,5.54-.2,8.323-.092-.27-2.329-.571-4.605-.922-7.013-.448-3.076-.967-6.154-1.474-8.838-6.572,5.391-13.9,8.537-21.712,10.739l.955,6.426c4.932-.468,9.865-.936,14.831-1.222" transform="translate(-233.999 -51.275)" fill="#e6a07e"/>
            <path id="Trazado_204726" data-name="Trazado 204726" d="M380.863,206.288,382,213.94c7.815-2.2,15.14-5.347,21.712-10.739-.671-3.547-1.319-6.416-1.833-8.211Z" transform="translate(-233.921 -50.71)" fill="#dc8765"/>
            <path id="Trazado_204727" data-name="Trazado 204727" d="M295.708,196.794l.5,22.039,60.677.879,19.2-.879-2.426-19.053s12.275-2.986,21.233-17.583c0,0-11.281-24.551-16.257-27.2s-28.864-6.636-28.864-6.636l-16.091.83-2.156,8.459s-2.987-7.8-3.318-8.626-21.152.007-21.152.007-12.058.186-17.429,4.057c-6.667,4.116-14.741,19.9-18.773,24.42,0,0-2.012,11.659,24.862,19.29" transform="translate(-226.842 -47.711)" fill="#3a71a1"/>
            <path id="Trazado_204728" data-name="Trazado 204728" d="M380.722,202.107l.248,3.49s15.759-4.147,24.053-14.1c0,0-.331-5.64-3.067-6.975a77.279,77.279,0,0,1-21.233,17.584" transform="translate(-233.912 -50.037)" fill="#2f658e"/>
            <path id="Trazado_204729" data-name="Trazado 204729" d="M296.2,198.837V204.3a54.052,54.052,0,0,1-27.989-17.816s.332-5.64,3.068-6.975c0,0,11.234,11.526,24.921,19.329" transform="translate(-226.675 -49.714)" fill="#2f658e"/>
            <path id="Trazado_204730" data-name="Trazado 204730" d="M330.64,148.655s-13.934-5.142-15.1-5.971a70.447,70.447,0,0,0-6.8,8.294s11.281,10.948,14.93,11.777Z" transform="translate(-229.282 -47.346)" fill="#2f658e"/>
            <path id="Trazado_204731" data-name="Trazado 204731" d="M338,148.386s9.787-6.469,10.948-7.3a42.776,42.776,0,0,1,9.124,8.958s-9.456,11.612-13.105,12.442Z" transform="translate(-231.164 -47.243)" fill="#2f658e"/>
            <path id="Trazado_204732" data-name="Trazado 204732" d="M336.266,220.07l-.391-61.8a.2.2,0,0,0-.2-.2h0a.2.2,0,0,0-.2.2l.391,61.807.394-.009" transform="translate(-231.002 -48.336)" fill="#2f658e"/>
            <path id="Trazado_204733" data-name="Trazado 204733" d="M345.832,180.607l19.715-1.1a2.261,2.261,0,0,1,2.365,1.943l2.19,15.6a2.263,2.263,0,0,1-.8,2.06l-9.115,7.507a2.262,2.262,0,0,1-2.532.233l-13.057-7.223a2.26,2.26,0,0,1-1.166-2.019l.269-14.787a2.26,2.26,0,0,1,2.135-2.217" transform="translate(-231.513 -49.714)" fill="#2f658e"/>
            <rect id="Rect치ngulo_338290" data-name="Rect치ngulo 338290" width="24.228" height="0.788" transform="matrix(1, -0.027, 0.027, 1, 112.211, 133.932)" fill="#3a71a1"/>
            <path id="Trazado_204734" data-name="Trazado 204734" d="M340.884,219.749l-1.109-60.578,1.48-4.2a.2.2,0,0,0-.12-.251.2.2,0,0,0-.252.12l-1.492,4.23a.22.22,0,0,0-.011.069l1.11,60.615.394-.009" transform="translate(-231.253 -48.12)" fill="#2f658e"/>
            <path id="Trazado_204735" data-name="Trazado 204735" d="M334.458,158.095a11.35,11.35,0,0,1-6.434-1.607.2.2,0,1,1,.233-.318c.042.031,4.344,3.059,12.6.469a.2.2,0,0,1,.118.376,21.768,21.768,0,0,1-6.515,1.081" transform="translate(-230.517 -48.211)" fill="#486f6c"/>
            <path id="Trazado_204736" data-name="Trazado 204736" d="M338.887,161.574a1.244,1.244,0,1,1-1.245-1.244,1.245,1.245,0,0,1,1.245,1.244" transform="translate(-231.061 -48.481)" fill="#2f658e"/>
            <path id="Trazado_204737" data-name="Trazado 204737" d="M338.887,177.176a1.244,1.244,0,1,1-1.245-1.244,1.245,1.245,0,0,1,1.245,1.244" transform="translate(-231.061 -49.484)" fill="#2f658e"/>
            <path id="Trazado_204738" data-name="Trazado 204738" d="M338.678,193.6a1.244,1.244,0,1,1-.074-1.758,1.244,1.244,0,0,1,.074,1.758" transform="translate(-231.069 -50.486)" fill="#2f658e"/>
            <path id="Trazado_204739" data-name="Trazado 204739" d="M339.091,211.881a1.244,1.244,0,1,1-.074-1.758,1.245,1.245,0,0,1,.074,1.758" transform="translate(-231.095 -51.662)" fill="#2f658e"/>
          </g>
        </g>
      </g>
    </g>
  </g>
</svg>
