<svg id="Grupo_984215" data-name="Grupo 984215" xmlns="http://www.w3.org/2000/svg" xmlns:xlink="http://www.w3.org/1999/xlink" width="293.434" height="333.356" viewBox="0 0 293.434 333.356">
  <defs>
    <clipPath id="clip-path">
      <rect id="Rectángulo_47377" data-name="Rectángulo 47377" width="242.248" height="302.043" rx="10" transform="translate(0 0)" fill="#a6bbff"/>
    </clipPath>
    <clipPath id="clip-path-2">
      <rect id="Rectángulo_47376" data-name="Rectángulo 47376" width="293.434" height="281.431" fill="none"/>
    </clipPath>
  </defs>
  <path id="Trazado_212563" data-name="Trazado 212563" d="M234.582,0H7.666A7.666,7.666,0,0,0,0,7.666V294.377a7.666,7.666,0,0,0,7.666,7.666H234.582a7.666,7.666,0,0,0,7.666-7.666V7.666A7.666,7.666,0,0,0,234.582,0Z" transform="translate(25.593 0)" fill="#fed947"/>
  <g id="Enmascarar_grupo_334" data-name="Enmascarar grupo 334" transform="translate(25.593 0)" clip-path="url(#clip-path)">
    <path id="Unión_18" data-name="Unión 18" d="M157.65,172.831a88.921,88.921,0,1,1,2.769-109.837A113.851,113.851,0,0,1,347.987,50.163,88.964,88.964,0,1,1,367.32,153.868a113.841,113.841,0,0,1-209.67,18.962Z" transform="matrix(0.809, -0.588, 0.588, 0.809, -133.7, 272.913)" fill="#3c3fa7"/>
  </g>
  <g id="Grupo_176392" data-name="Grupo 176392" transform="translate(0 51.925)">
    <g id="Grupo_176393" data-name="Grupo 176393">
      <g id="Grupo_176392-2" data-name="Grupo 176392" clip-path="url(#clip-path-2)">
        <path id="Trazado_189326" data-name="Trazado 189326" d="M365.18,520.234s3.5.114,5.26,1.482-5.281,4.193-5.281,4.193Z" transform="translate(-296.381 -422.248)" fill="#ef8e4d"/>
        <path id="Trazado_189327" data-name="Trazado 189327" d="M1056.363,1227.256l-6.011,6.7,1.314,4.559,4.923.886s3.284-2.755,3.339-5.075-3.566-7.068-3.566-7.068" transform="translate(-852.517 -996.103)" fill="#ef8e4d"/>
        <path id="Trazado_189328" data-name="Trazado 189328" d="M332.476,501.4s7.9-5.68,7.734-18.036c-.081-6,11.086-13.2,11.086-13.2l11.672-2.348,1.207,14.019-11.47,24.282-4.2,6.717-12.838,5.894Z" transform="translate(-269.854 -379.701)" fill="#ef8e4d"/>
        <path id="Trazado_189329" data-name="Trazado 189329" d="M452.15,531.971l1.827,12.735-6.721-.862-.835-4.527-4.281,2.719-5.048-3.417,8.728-10.089Z" transform="translate(-354.765 -428.982)" fill="#ff1300"/>
        <path id="Trazado_189330" data-name="Trazado 189330" d="M575.05,366.577c4.912,1.654,7.1,7.011,4.894,11.967s-7.983,7.632-12.895,5.978-7.1-7.011-4.894-11.967,7.983-7.632,12.895-5.978" transform="translate(-455.574 -297.136)" fill="#ff1300"/>
        <path id="Trazado_189331" data-name="Trazado 189331" d="M514.612,438.114c4.57,2.125,10.377.628,12.971-3.344s.992-8.913-3.578-11.038-10.377-.628-12.971,3.343-.992,8.913,3.578,11.038" transform="translate(-413.772 -343.139)" fill="#ff1300"/>
        <path id="Trazado_189332" data-name="Trazado 189332" d="M478.64,515.205l9.382,3.89-.351.615c-.881,1.543-3.187,2.134-5.15,1.32l-2.273-.942c-1.963-.814-2.84-2.724-1.959-4.267Z" transform="translate(-387.924 -418.167)" fill="#ff1300"/>
        <path id="Trazado_189333" data-name="Trazado 189333" d="M484.069,488.832c4.055,1.886,8.886,1.052,10.79-1.863s.159-6.806-3.9-8.692-8.886-1.051-10.79,1.863-.16,6.806,3.9,8.692" transform="translate(-389.107 -387.375)" fill="#ff1300"/>
        <path id="Trazado_189334" data-name="Trazado 189334" d="M1098.313,384.223l15.194-4.44.5,6.774-5.358,1.761,4.324,3.636-3.023,5.664-14.391-6.468Z" transform="translate(-889.208 -308.251)" fill="#ff1300"/>
        <path id="Trazado_189335" data-name="Trazado 189335" d="M864.171,292.888c.892-5.164,6.956-8.428,13.544-7.29s11.205,6.247,10.313,11.411-6.956,8.428-13.544,7.29-11.2-6.247-10.313-11.411" transform="translate(-701.314 -231.623)" fill="#ff1300"/>
        <path id="Trazado_189336" data-name="Trazado 189336" d="M966.723,340.057c1.549-4.926-1.629-10.314-7.1-12.034s-11.16.879-12.709,5.805,1.629,10.314,7.1,12.034,11.16-.879,12.709-5.805" transform="translate(-768.245 -265.81)" fill="#ff1300"/>
        <path id="Trazado_189337" data-name="Trazado 189337" d="M1079.632,401.509l2.6-10.016a4.783,4.783,0,0,1,3.427,5.832l-.2.756a4.783,4.783,0,0,1-5.832,3.427Z" transform="translate(-876.282 -317.756)" fill="#3690d1"/>
        <path id="Trazado_189338" data-name="Trazado 189338" d="M1038.745,372.3c1.375-4.372-.765-8.939-4.779-10.2s-8.383,1.258-9.758,5.63.765,8.939,4.78,10.2,8.383-1.258,9.757-5.63" transform="translate(-830.959 -293.637)" fill="#ff1300"/>
        <path id="Trazado_189339" data-name="Trazado 189339" d="M643.125,997.269l-4.21-15.892-18.742,1.407-61.385,5.857-3.331,12.692Z" transform="translate(-450.837 -796.535)"/>
        <path id="Trazado_189340" data-name="Trazado 189340" d="M715.622,467.008l-37.6,3.659.926,9.211,23.47-1.556,7.739-3.239Z" transform="translate(-550.314 -379.047)"/>
        <rect id="Rectángulo_47375" data-name="Rectángulo 47375" width="22.453" height="67.358" transform="translate(134.51 72.816)" fill="#ef8e4d"/>
        <path id="Trazado_189341" data-name="Trazado 189341" d="M473.993,476.661l18.5-2.36a54.69,54.69,0,0,1,45.893,15.882l55.081,55.947a41.844,41.844,0,0,1-5.013,63.088c-15.647,11.473-41.974,18.422-70.54,10.878l-7.9-22.489,32.038-25.63-18.56-13.036.884,14.362L392.249,584.129l-.221-31.358L384.5,514.22l12.9-22.794,43.311-11.375-.977-9.208,9.578,5.505-.848,27.645,8.215-27.058,20.668-9.715Z" transform="translate(-312.077 -379.221)" fill="#ffc849"/>
        <path id="Trazado_189342" data-name="Trazado 189342" d="M714.143,391.838v12.681c8.332,3.365,17.553-2.491,22.453-6.429v-8.979l-13.407.978Z" transform="translate(-579.634 -315.823)"/>
        <path id="Trazado_189343" data-name="Trazado 189343" d="M564.12,82.649c0-20.218,15.734-36.608,35.143-36.608s35.143,16.39,35.143,36.608-15.734,36.608-35.143,36.608-35.143-16.39-35.143-36.608" transform="translate(-457.868 -37.37)" fill="#ef8e4d"/>
        <path id="Trazado_189344" data-name="Trazado 189344" d="M917.4,225.367s8.535-8.391,12.673-.258c4.885,9.6-9.184,18.112-13.52,9.59s.848-9.332.848-9.332" transform="translate(-742.516 -179.829)" fill="#ef8e4d"/>
        <path id="Trazado_189345" data-name="Trazado 189345" d="M734.495,254.734a.342.342,0,0,1-.266-.556l2.9-3.6a.342.342,0,0,1,.45-.074l4.853,3.1a.342.342,0,1,1-.368.576l-4.595-2.937-2.71,3.364a.341.341,0,0,1-.266.127" transform="translate(-595.875 -203.277)"/>
        <path id="Trazado_189346" data-name="Trazado 189346" d="M747.51,329.691a.342.342,0,0,1-.032-.682c7.2-.692,12.867-7.706,12.923-7.777a.342.342,0,0,1,.534.426,26.255,26.255,0,0,1-3.844,3.738,18.87,18.87,0,0,1-9.548,4.294l-.033,0" transform="translate(-606.439 -260.624)"/>
        <path id="Trazado_189347" data-name="Trazado 189347" d="M782.558,147.3a.342.342,0,0,1-.287-.527,9.681,9.681,0,0,1,2.891-2.588,18.628,18.628,0,0,1,10.04-2.536.342.342,0,1,1,0,.683,17.99,17.99,0,0,0-9.639,2.408,9.263,9.263,0,0,0-2.718,2.4.342.342,0,0,1-.287.155" transform="translate(-634.886 -114.968)"/>
        <path id="Trazado_189348" data-name="Trazado 189348" d="M933.047,250.357a.342.342,0,0,1-.3-.507,11.51,11.51,0,0,1,5.639-5.361,7.6,7.6,0,0,1,3.085-.633.342.342,0,0,1-.043.682,7.1,7.1,0,0,0-2.819.6,10.856,10.856,0,0,0-5.265,5.044.341.341,0,0,1-.3.177" transform="translate(-757.03 -197.924)"/>
        <path id="Trazado_189349" data-name="Trazado 189349" d="M943.52,270.705a.34.34,0,0,1-.285-.153l-3.394-5.131a.342.342,0,0,1,.57-.377l3.393,5.131a.342.342,0,0,1-.285.53" transform="translate(-762.775 -214.999)"/>
        <path id="Trazado_189350" data-name="Trazado 189350" d="M801.575,201.026s-.055-20.927,19.661-8.905c0,0-4.192,14.376-19.661,8.905" transform="translate(-650.598 -152.913)" fill="#fff"/>
        <path id="Trazado_189351" data-name="Trazado 189351" d="M802.793,198.386a8.307,8.307,0,0,0,13.866-9.013c-10.523-3.806-13.19,4.51-13.866,9.013" transform="translate(-651.586 -152.917)"/>
        <path id="Trazado_189352" data-name="Trazado 189352" d="M602.656,45.706c-16.866,0-30.957,12.377-34.36,28.887,28.465-.413,40.637-23.239,40.637-23.239,3.949,12.684,22.016,20.893,28.1,23.337-3.367-16.559-17.48-28.985-34.38-28.985" transform="translate(-461.257 -37.098)" fill="#ff1300"/>
        <path id="Trazado_189353" data-name="Trazado 189353" d="M461.938,123.556a23.665,23.665,0,1,1,9.114,32.2,23.665,23.665,0,0,1-9.114-32.2" transform="translate(-372.488 -90.443)" fill="#ce956e"/>
        <path id="Trazado_189354" data-name="Trazado 189354" d="M400.658,400.069l23.892-42.581a1.226,1.226,0,0,1,1.668-.472l4.558,2.547a1.225,1.225,0,0,1,.472,1.668l-23.892,42.581a1.225,1.225,0,0,1-1.668.472l-4.558-2.547a1.226,1.226,0,0,1-.472-1.668" transform="translate(-325.067 -289.646)" fill="#7dbcf5"/>
        <path id="Trazado_189355" data-name="Trazado 189355" d="M524.645,188.3s-10.3-36.229-38.437-5.636c0,0,14.4,22.785,38.437,5.636" transform="translate(-394.63 -138.299)" fill="#fff"/>
        <path id="Trazado_189356" data-name="Trazado 189356" d="M547.53,192.494a14.926,14.926,0,0,0,9.687-8.65c-3.406-7.455-12.154-20.524-28.47-8.705a14.958,14.958,0,0,0,18.784,17.355" transform="translate(-428.912 -138.299)"/>
        <path id="Trazado_189357" data-name="Trazado 189357" d="M472.008,150.666a26.183,26.183,0,1,1,7.148-1,26.226,26.226,0,0,1-7.148,1M453.519,114.2h0a21.24,21.24,0,0,0,18.5,31.587,21.322,21.322,0,0,0,5.812-.812A21.224,21.224,0,1,0,453.519,114.2" transform="translate(-361.939 -79.894)" fill="#7dbcf5"/>
        <path id="Trazado_189358" data-name="Trazado 189358" d="M577.845,1159.469l-20.576-77.675-89.84,6.271-18.737,71.4Z" transform="translate(-364.18 -878.039)" fill="#3690d1"/>
        <path id="Trazado_189359" data-name="Trazado 189359" d="M349.629,508.105l6.977-7.817s7.661-.474,12.25-9.552c2.589-5.121,2.252-10.62,4.5-16.745.725-1.98,1.471-4.194,2.023-5.824a3.021,3.021,0,0,0-1.407-3.616,4.033,4.033,0,0,0-5.411,1.477c-2.145,3.612-5.809,10.807-6.263,14.28-.255,1.952-3.05,5.4-6.259,9.381-7.784,9.666-20.146,22.218-20.146,22.218Z" transform="translate(-272.623 -376.647)" fill="#ef8e4d"/>
        <path id="Trazado_189360" data-name="Trazado 189360" d="M690.206,1122.34a4.03,4.03,0,1,1,4.031-4.03,4.035,4.035,0,0,1-4.031,4.03m0-7.212a3.182,3.182,0,1,0,3.182,3.182,3.186,3.186,0,0,0-3.182-3.182" transform="translate(-556.933 -904.405)" fill="#fff"/>
        <path id="Trazado_189361" data-name="Trazado 189361" d="M1071.991,583.46a.272.272,0,0,1-.044,0,.3.3,0,0,1-.251-.337c1.782-11.981,7.47-22.593,16.906-31.539a.3.3,0,1,1,.409.431c-9.338,8.853-14.965,19.348-16.727,31.2a.3.3,0,0,1-.293.253" transform="translate(-869.839 -447.624)"/>
        <path id="Trazado_189362" data-name="Trazado 189362" d="M1087.591,868.306a.3.3,0,0,1-.252-.14,77.682,77.682,0,0,1-8.083-20.259.3.3,0,1,1,.577-.142,77.045,77.045,0,0,0,8.011,20.088.3.3,0,0,1-.252.454" transform="translate(-875.97 -687.905)"/>
        <path id="Trazado_189363" data-name="Trazado 189363" d="M697.306,735.786a.3.3,0,0,1-.3-.3c0-15.235.434-37.8,2.5-58.794,1.237-12.562,2.492-18.678,2.5-18.738a.3.3,0,0,1,.581.12c-.012.06-1.262,6.156-2.5,18.693-1.139,11.571-2.5,31.151-2.5,58.719a.3.3,0,0,1-.3.3" transform="translate(-565.727 -533.839)"/>
        <path id="Trazado_189364" data-name="Trazado 189364" d="M435.19,414.157l-4.042-9.779a3.767,3.767,0,1,1,6.962-2.878l4.042,9.779a3.767,3.767,0,0,1-6.962,2.878" transform="translate(-349.709 -323.988)" fill="#ef8e4d"/>
        <path id="Trazado_189365" data-name="Trazado 189365" d="M625.677,1152.974a.421.421,0,0,0-.446-.4L530.5,1157.5l-.226.861,95-4.938a.424.424,0,0,0,.4-.446" transform="translate(-430.398 -935.485)" fill="#fff"/>
        <path id="Trazado_189366" data-name="Trazado 189366" d="M404.722,456.429l-6.487-11.5a3.772,3.772,0,0,1,1.721-5.285l1.033-.47a3.771,3.771,0,0,1,5,1.868l5.454,11.969a3.771,3.771,0,0,1-6.716,3.416" transform="translate(-322.831 -356.181)" fill="#ef8e4d"/>
        <path id="Trazado_189367" data-name="Trazado 189367" d="M437.426,467.376a3.922,3.922,0,0,1-3.414-1.994.148.148,0,1,1,.257-.145,3.623,3.623,0,0,0,6.453-3.283l-5.454-11.969a.148.148,0,0,1,.269-.123l5.454,11.969a3.921,3.921,0,0,1-3.565,5.545" transform="translate(-352.25 -365.061)"/>
        <path id="Trazado_189368" data-name="Trazado 189368" d="M999.487,1141.768a21.942,21.942,0,0,0-1.14-3.856,6.947,6.947,0,0,0-9.17-3.836l-9.585,4.052a2.1,2.1,0,0,0-.965,3.05,3.8,3.8,0,0,0,4.5,1.585l6.633-2.252Z" transform="translate(-794.042 -920.024)" fill="#ef8e4d"/>
        <path id="Trazado_189369" data-name="Trazado 189369" d="M381.535,497.479l-4.737-7.953a3.767,3.767,0,0,1,6.473-3.855l4.737,7.953a3.767,3.767,0,1,1-6.472,3.855" transform="translate(-305.396 -392.702)" fill="#ef8e4d"/>
        <path id="Trazado_189370" data-name="Trazado 189370" d="M406.842,506.756a3.915,3.915,0,0,1-3.37-1.91.148.148,0,1,1,.254-.151,3.619,3.619,0,0,0,6.219-3.7l-4.737-7.953a.148.148,0,1,1,.254-.151l4.737,7.953a3.913,3.913,0,0,1-3.357,5.917" transform="translate(-327.461 -399.993)"/>
        <path id="Trazado_189371" data-name="Trazado 189371" d="M1006.106,1177.1l.834-4.048a3.983,3.983,0,0,0-.022-1.748,6.634,6.634,0,0,0-4.922-4.883l-1.884-.444a8.678,8.678,0,0,0-7.606,1.829l-6.33,5.365c-3.055,2.594.046,5.444,3.346,4.977a6.916,6.916,0,0,0,.983-.21c2.859-.841,7.913-5.109,7.913-5.109Z" transform="translate(-799.415 -946.18)" fill="#ef8e4d"/>
        <path id="Trazado_189372" data-name="Trazado 189372" d="M1024.527,1198.444s.013-5.7-1.4-7.316a6.328,6.328,0,0,0-9.112-.552l-6.924,6.5a1.979,1.979,0,0,0,.154,2.974,3.577,3.577,0,0,0,2.017.782,3.433,3.433,0,0,0,2.362-.774l4.97-4.015Z" transform="translate(-816.916 -964.969)" fill="#ef8e4d"/>
        <path id="Trazado_189373" data-name="Trazado 189373" d="M1041.256,1219.626c-1.59-3.155-5.141-3.981-7.464-2.045l-6.2,5.166a2.17,2.17,0,0,0-.1,2.914,3.165,3.165,0,0,0,1.6,1.094,2.363,2.363,0,0,0,2-.36l3.054-2.383c4.29-3,3.021-.729,5.56,4.472,0,0,3.585-4.8,1.541-8.857" transform="translate(-833.551 -987.408)" fill="#ef8e4d"/>
        <path id="Trazado_189374" data-name="Trazado 189374" d="M1217.813,945.827a.3.3,0,0,1-.217-.5,63.063,63.063,0,0,1,10.073-8.2,65.98,65.98,0,0,1,11.408-6.118,53.465,53.465,0,0,1,14.629-3.8.3.3,0,0,1,.064.59,52.892,52.892,0,0,0-14.456,3.753,65.356,65.356,0,0,0-11.3,6.058,63.563,63.563,0,0,0-9.983,8.125.3.3,0,0,1-.216.094" transform="translate(-988.196 -752.566)"/>
        <path id="Trazado_189375" data-name="Trazado 189375" d="M1220.842,952.527a.307.307,0,0,1-.084-.012.3.3,0,0,1-.2-.369l3.933-13.4a.3.3,0,1,1,.57.167l-3.933,13.4a.3.3,0,0,1-.285.213" transform="translate(-990.654 -761.761)"/>
        <path id="Trazado_189376" data-name="Trazado 189376" d="M63.211,637.371,54.9,644.584s-11.044-6.366-34.809,15.722A115.3,115.3,0,0,0,5.7,677.262a30.516,30.516,0,0,0,5.577,41.456,26.478,26.478,0,0,0,27.768,3.491l47.915-22.075-2.537-51.8s-16.909,5.583-21.218-10.958" transform="translate(0 -517.323)" fill="#ffc849"/>
        <path id="Trazado_189377" data-name="Trazado 189377" d="M245.237,760.208a.3.3,0,0,1-.208-.509c.037-.036,3.77-3.69,8.251-8.6,4.131-4.526,9.759-11.075,13.114-16.571a30.335,30.335,0,0,0,3.972-10.117,28.285,28.285,0,0,0,.323-8.479,25.058,25.058,0,0,0-2.182-8.012.3.3,0,0,1,.031-.323l9.179-11.461a.3.3,0,1,1,.464.371l-9.06,11.313a25.9,25.9,0,0,1,2.156,8.019,28.865,28.865,0,0,1-.324,8.666,30.917,30.917,0,0,1-4.052,10.332c-3.381,5.537-9.036,12.118-13.185,16.665-4.491,4.922-8.235,8.586-8.272,8.622a.3.3,0,0,1-.208.085" transform="translate(-198.806 -564.927)"/>
        <path id="Trazado_189378" data-name="Trazado 189378" d="M690.642,653.3l-5.787,9.363a1.619,1.619,0,0,0,1.37,2.47l7.023.033a1.619,1.619,0,0,0,1.613-1.83l-1.235-9.4a1.619,1.619,0,0,0-2.983-.64" transform="translate(-555.664 -529.623)" fill="#7dbcf5"/>
        <path id="Trazado_189379" data-name="Trazado 189379" d="M743.1,10.444a.336.336,0,0,1-.061-.005,21.665,21.665,0,0,1-3.777-1.112c-2.675-1.066-4.361-2.426-5.012-4.04C733.62,3.735,733.987,2,735.335.145a.342.342,0,0,1,.553.4c-1.2,1.657-1.54,3.166-1.009,4.485,1.392,3.458,8.207,4.723,8.276,4.736a.342.342,0,0,1-.06.678" transform="translate(-595.71 -0.003)" fill="#ff1300"/>
        <path id="Trazado_189380" data-name="Trazado 189380" d="M641.729,1171.1h.037a.424.424,0,0,0,.422-.387l5.647-64.533-.857.059-5.635,64.4a.425.425,0,0,0,.386.46" transform="translate(-520.544 -897.831)" fill="#fff"/>
        <path id="Trazado_189381" data-name="Trazado 189381" d="M726.9,1145.21a.425.425,0,0,0,.46-.386L731.2,1100.9l-.857.06-3.831,43.788a.425.425,0,0,0,.386.46" transform="translate(-589.671 -893.547)" fill="#fff"/>
        <path id="Trazado_189382" data-name="Trazado 189382" d="M460.4,459.564c.674,1.63,2.222,2.536,3.459,2.025s1.693-2.247,1.02-3.876-2.222-2.536-3.459-2.025-1.693,2.247-1.02,3.876" transform="translate(-373.432 -369.743)"/>
        <path id="Trazado_189383" data-name="Trazado 189383" d="M438.949,510.031a2.836,2.836,0,1,0,1.38-4.025,3.021,3.021,0,0,0-1.38,4.025" transform="translate(-356.051 -410.545)"/>
        <path id="Trazado_189384" data-name="Trazado 189384" d="M412.727,532.906c.674,1.63,2.224,2.535,3.464,2.023s1.7-2.249,1.025-3.878-2.225-2.536-3.464-2.023-1.7,2.249-1.025,3.878" transform="translate(-334.738 -429.27)"/>
        <path id="Trazado_189385" data-name="Trazado 189385" d="M353.017,530.563l-4.711-5.005a3.178,3.178,0,1,1,4.628-4.357l4.711,5.005a3.178,3.178,0,0,1-4.628,4.356" transform="translate(-282.001 -422.222)" fill="#ef8e4d"/>
        <path id="Trazado_189386" data-name="Trazado 189386" d="M379.444,553.26c.956,1.206,2.474,1.594,3.391.866s.885-2.294-.07-3.5-2.474-1.593-3.391-.866-.885,2.294.07,3.5" transform="translate(-307.377 -445.916)"/>
        <path id="Trazado_189387" data-name="Trazado 189387" d="M378.364,535.382h-.1a3.3,3.3,0,0,1-2.321-1.045.148.148,0,1,1,.215-.2,3.03,3.03,0,1,0,4.413-4.154l-4.711-5.005a.148.148,0,1,1,.215-.2l4.711,5.005a3.326,3.326,0,0,1-2.419,5.605" transform="translate(-305.032 -425.893)"/>
        <path id="Trazado_189388" data-name="Trazado 189388" d="M978.047,1157.651c.337.949,1.782,1.3,3.229.789s2.345-1.7,2.008-2.648-1.782-1.3-3.228-.788-2.345,1.7-2.008,2.648" transform="translate(-793.774 -937.267)"/>
        <path id="Trazado_189389" data-name="Trazado 189389" d="M987.092,1203.155c.69,1.047,2.445,1.109,3.92.138s2.112-2.609,1.422-3.656-2.445-1.109-3.92-.138-2.111,2.609-1.421,3.656" transform="translate(-800.947 -973.013)"/>
        <path id="Trazado_189390" data-name="Trazado 189390" d="M1008.4,1228.151c.677.839,2.244.7,3.5-.315s1.724-2.515,1.047-3.354-2.244-.7-3.5.315-1.724,2.514-1.047,3.354" transform="translate(-818.211 -993.406)"/>
        <path id="Trazado_189391" data-name="Trazado 189391" d="M1028.427,1246.75c.633.784,2.1.653,3.269-.294s1.611-2.349.978-3.133-2.1-.652-3.269.294-1.611,2.349-.978,3.133" transform="translate(-834.487 -1008.728)"/>
        <path id="Trazado_189392" data-name="Trazado 189392" d="M1026.936,1225.224a.133.133,0,0,1-.1-.05,2.314,2.314,0,0,1,.117-3.1l6.2-5.166a4.584,4.584,0,0,1,3.887-.969,5.577,5.577,0,0,1,3.781,3.057.134.134,0,1,1-.239.12,5.309,5.309,0,0,0-3.6-2.915,4.263,4.263,0,0,0-3.662.912l-6.2,5.166a2.037,2.037,0,0,0-.081,2.727.133.133,0,0,1-.1.218" transform="translate(-832.993 -986.837)"/>
        <path id="Trazado_189393" data-name="Trazado 189393" d="M1009.1,1196.662a.134.134,0,0,1-.092-.231l6.924-6.5a6.8,6.8,0,0,1,6.293-1.467,5.775,5.775,0,0,1,4,4.53.134.134,0,1,1-.259.065,5.521,5.521,0,0,0-3.814-4.338,6.52,6.52,0,0,0-6.035,1.4l-6.924,6.5a.133.133,0,0,1-.091.036" transform="translate(-818.931 -964.417)"/>
        <path id="Trazado_189394" data-name="Trazado 189394" d="M1036.949,1167.423a.132.132,0,0,1-.061-.015,26.885,26.885,0,0,0-4.717-1.931,8.355,8.355,0,0,0-7.489,1.8.133.133,0,1,1-.173-.2,8.613,8.613,0,0,1,7.723-1.858,26.589,26.589,0,0,1,4.779,1.954.134.134,0,0,1-.062.252" transform="translate(-831.504 -945.546)"/>
      </g>
    </g>
  </g>
</svg>
