<svg id="Grupo_984341" data-name="Grupo 984341" xmlns="http://www.w3.org/2000/svg" width="90" height="90" viewBox="0 0 90 90">
  <path id="Trazado_212902" data-name="Trazado 212902" d="M45,0A45,45,0,1,1,0,45,45,45,0,0,1,45,0Z" transform="translate(0 0)" fill="#ffe891"/>
  <g id="Grupo_170963" data-name="Grupo 170963" transform="translate(15 15)">
    <g id="Grupo_170964" data-name="Grupo 170964" transform="translate(0 0)">
      <path id="Trazado_166729" data-name="Trazado 166729" d="M30.506,57.538c.644.024,1.3.064,1.969.11a13.208,13.208,0,0,1,10.119.581,19.167,19.167,0,0,0,7.047-1.287c-.025-.01-.054-.017-.079-.028-2.559-7.072-.832-20.65-.6-22.381.012-.062.016-.118.028-.181L30.855,45.463a4.925,4.925,0,0,1,.636,2.018v.007A22.575,22.575,0,0,1,31.3,53.17c-.246,1.8-.584,3.421-.8,4.368" transform="translate(0 0)" fill="#fa9778"/>
      <path id="Trazado_166730" data-name="Trazado 166730" d="M31.3,53.17c10.118.894,14.768-11.323,14.937-11.78a11.887,11.887,0,0,1-6.994,5.426,19.752,19.752,0,0,1-7.692.683c-.021-.006-.042-.005-.063-.011A22.575,22.575,0,0,1,31.3,53.17" transform="translate(0 0)" fill="#450d20"/>
      <path id="Trazado_166731" data-name="Trazado 166731" d="M53.916,28.581a3.312,3.312,0,0,0-3.816-2.2,2.865,2.865,0,0,0-.471.214c.02-5.325-.973-11.117-4.788-14.189C36.634,5.8,25.32,8.641,23.135,14.953c-1.7,4.9-2.159,10.539-2.154,16.013,0,2.333.077,4.642.187,6.845.009.235.024.463.033.691a9.032,9.032,0,0,0,.482,2.9c1.392,3.526,6.569,5.54,10.038,6.123A14.525,14.525,0,0,0,43.954,43.94a16.059,16.059,0,0,0,4.958-9.208,7.065,7.065,0,0,0,2.146-.294,5.525,5.525,0,0,0,2.428-2.188,4.386,4.386,0,0,0,.43-3.669" transform="translate(0 0)" fill="#fa9778"/>
      <path id="Trazado_166732" data-name="Trazado 166732" d="M21.168,37.811a3.614,3.614,0,0,0,.91.084,3.534,3.534,0,0,0-.265-7.064,3.35,3.35,0,0,0-.832.135c0,2.333.077,4.641.187,6.845" transform="translate(0 0)" fill="#fa8864"/>
      <path id="Trazado_166733" data-name="Trazado 166733" d="M43.065,33.572a3.536,3.536,0,1,1-3.666-3.4,3.536,3.536,0,0,1,3.666,3.4" transform="translate(0 0)" fill="#fa8864"/>
      <path id="Trazado_166734" data-name="Trazado 166734" d="M23.75,25.985a2.2,2.2,0,0,0,1.218,1.374.378.378,0,1,1-.338.669l-.016-.011a2.42,2.42,0,0,1-.79-.907,3,3,0,0,1-.314-1.084.122.122,0,0,1,.236-.052Z" transform="translate(0 0)" fill="#450d20"/>
      <path id="Trazado_166735" data-name="Trazado 166735" d="M24.608,27.29a5.04,5.04,0,0,0,1.646.272,7.592,7.592,0,0,0,1.663-.247l.022-.005a.325.325,0,0,1,.268.572,2.838,2.838,0,0,1-.919.487,3.236,3.236,0,0,1-1.056.137,2.822,2.822,0,0,1-1.915-.832.242.242,0,0,1,.248-.4Z" transform="translate(0 0)" fill="#450d20"/>
      <path id="Trazado_166736" data-name="Trazado 166736" d="M37.321,25.985A2.2,2.2,0,0,1,36.1,27.359a.378.378,0,0,0,.25.713.362.362,0,0,0,.088-.044l.016-.011a2.42,2.42,0,0,0,.79-.907,3,3,0,0,0,.314-1.084.122.122,0,0,0-.236-.052Z" transform="translate(0 0)" fill="#450d20"/>
      <path id="Trazado_166737" data-name="Trazado 166737" d="M36.754,27.674a2.824,2.824,0,0,1-1.915.833,3.26,3.26,0,0,1-1.056-.138,2.827,2.827,0,0,1-.919-.487.325.325,0,0,1,.267-.572l.022.005a7.6,7.6,0,0,0,1.663.247,5.046,5.046,0,0,0,1.647-.272l.042-.013a.243.243,0,0,1,.249.4" transform="translate(0 0)" fill="#450d20"/>
      <path id="Trazado_166738" data-name="Trazado 166738" d="M26.886,33.642a5,5,0,0,0,1.6,1.691,3.9,3.9,0,0,0,2.313.673,3.957,3.957,0,0,0,2.244-.87,7.325,7.325,0,0,0,.852-.817c.229-.318.452-.636.65-.964-.307.242-.585.5-.865.748-.314.207-.592.458-.911.633a4.22,4.22,0,0,1-2,.65,4.141,4.141,0,0,1-2.047-.471,8.823,8.823,0,0,1-1.844-1.273" transform="translate(0 0)" fill="#450d20"/>
      <path id="Trazado_166739" data-name="Trazado 166739" d="M29.781,37.243a1.679,1.679,0,0,0,1.088.324,1.756,1.756,0,0,0,1.062-.405,5.578,5.578,0,0,1-1.072.161,4.64,4.64,0,0,1-1.078-.08" transform="translate(0 0)" fill="#450d20"/>
      <path id="Trazado_166740" data-name="Trazado 166740" d="M32.759,19.836a2.427,2.427,0,0,1,1.559-.645,4.872,4.872,0,0,1,1.693.176,4.109,4.109,0,0,1,1.515.794,4.3,4.3,0,0,1,1.061,1.26.489.489,0,0,1-.735.625l-.043-.036a6.007,6.007,0,0,0-1.037-.763,3.545,3.545,0,0,0-1.13-.415,4.318,4.318,0,0,0-1.21-.072,4.617,4.617,0,0,1-1.292-.026l-.13-.027a.511.511,0,0,1-.251-.871" transform="translate(0 0)" fill="#450d20"/>
      <path id="Trazado_166741" data-name="Trazado 166741" d="M27.658,20.027a2.421,2.421,0,0,0-1.6-.526,4.877,4.877,0,0,0-1.676.3,4.134,4.134,0,0,0-1.451.9,4.312,4.312,0,0,0-.963,1.336.489.489,0,0,0,.78.569l.039-.04a6.031,6.031,0,0,1,.978-.838,3.534,3.534,0,0,1,1.1-.5,4.32,4.32,0,0,1,1.2-.162,4.651,4.651,0,0,0,1.286-.123l.128-.036a.512.512,0,0,0,.352-.633.5.5,0,0,0-.167-.255" transform="translate(0 0)" fill="#450d20"/>
      <path id="Trazado_166742" data-name="Trazado 166742" d="M30.124,23.994c-.151.794-.255,1.581-.371,2.361s-.236,1.554-.428,2.294c-.044.185-.094.368-.153.545a1.957,1.957,0,0,0-.152.681,1.361,1.361,0,0,0,.779,1.212,1.653,1.653,0,0,0,1.335.021,3.247,3.247,0,0,0,1.031-.671c-.722.3-1.57.55-2.1.18a.807.807,0,0,1-.39-.731,1.5,1.5,0,0,1,.136-.47c.071-.2.133-.4.184-.6a11.085,11.085,0,0,0,.293-2.418,12.76,12.76,0,0,0-.164-2.406" transform="translate(0 0)" fill="#450d20"/>
      <path id="Trazado_166743" data-name="Trazado 166743" d="M52.846,28.415a8.77,8.77,0,0,0-2.367.946,6.825,6.825,0,0,0-1.889,1.573l-.428-.527a7.915,7.915,0,0,1,2.023-.789,3.029,3.029,0,0,1,1.167-.053,1.32,1.32,0,0,1,1.01.816,1.982,1.982,0,0,1-.571,2.174,2.88,2.88,0,0,1-1.958.8,3.114,3.114,0,0,0,1.654-1.076,1.559,1.559,0,0,0,.3-1.645c-.188-.473-.817-.461-1.447-.32a8.872,8.872,0,0,0-1.846.7l-.018.009a.343.343,0,0,1-.462-.147.347.347,0,0,1,.053-.39,6.241,6.241,0,0,1,2.2-1.554,6.393,6.393,0,0,1,2.579-.516" transform="translate(0 0)" fill="#450d20"/>
      <path id="Trazado_166744" data-name="Trazado 166744" d="M58.433,30.534h0a4.285,4.285,0,0,0-1.471-4.29C62.443,13,50.41,12.581,50.41,12.581,47.332-9.106,29.019,3.826,29.019,3.826c-15,1.322-11.84,15.156-11.84,15.156C1.511,23.617,10.2,36.517,10.2,36.517,2.8,38.6.424,42.882,0,46.886a54.268,54.268,0,0,0,1.37,5.988,7.97,7.97,0,0,0,1.805,3.793c-.577-.809.5.306,1.081.906-.03-.155,1.381.773.838.53,6.555,2.933,17.611,3.273,24.688.668.393-.436.6-.72.6-.72a29.931,29.931,0,0,0,1.1-10.571,25.848,25.848,0,0,1-5.756-2.013c-3.7-1.965-4.175-4.416-4.175-4.416-.826-3.4-.471-14.437-.471-14.437a57.275,57.275,0,0,1,1.461-9.773A4.705,4.705,0,0,0,25.908,14.5c3.916,4.117,9.8,0,9.8,0a7,7,0,0,0,7.607,3.2c-2.727,4.133,1.085,11.506,2.651,11.687s3.66-2.793,3.66-2.793a3.129,3.129,0,0,1,3.119.5,3.7,3.7,0,0,1,1.288,3.083c-.248,4.448-5.077,4.352-5.077,4.352a47.23,47.23,0,0,0,.6,22.389l1.4.546.037-.91.09-.065a21.87,21.87,0,0,0,7.342-25.959" transform="translate(0 0)" fill="#b90902"/>
    </g>
  </g>
</svg>
