<svg id="Grupo_984344" data-name="Grupo 984344" xmlns="http://www.w3.org/2000/svg" xmlns:xlink="http://www.w3.org/1999/xlink" width="90" height="90" viewBox="0 0 90 90">
  <defs>
    <clipPath id="clip-path">
      <rect id="Rectángulo_42766" data-name="Rectángulo 42766" width="58.275" height="62" fill="none"/>
    </clipPath>
  </defs>
  <path id="Trazado_212901" data-name="Trazado 212901" d="M45,0A45,45,0,1,1,0,45,45,45,0,0,1,45,0Z" transform="translate(0 0)" fill="#ffe891"/>
  <g id="Grupo_169822" data-name="Grupo 169822" transform="translate(11.271 14)">
    <g id="Grupo_169822-2" data-name="Grupo 169822" transform="translate(0 0)" clip-path="url(#clip-path)">
      <path id="Trazado_162705" data-name="Trazado 162705" d="M4.225,14.577c.5-.706,1.683-.028,1.174.686-.2.282-.4.568-.606.855a9.138,9.138,0,0,1,6.525,9.012c0,.584-.1,1.16-.116,1.74a5.085,5.085,0,0,0,.564,2.3,7.181,7.181,0,0,1,.606,2.594,5.454,5.454,0,0,1-2.659,4.448C5.24,38.882,2.238,32.893.92,29.546-1.335,23.815.856,19.3,4.225,14.577" transform="translate(45.901 -2.895)" fill="#e6401a"/>
      <path id="Trazado_162706" data-name="Trazado 162706" d="M2.042,43.232c1.753,7.5,4.608,15.047,11.554,19.1,4.757,2.773,10.644,3.356,16.217,2.744a15.937,15.937,0,0,0,9.5-4.2c4.421-4.277,5.535-11.356,4.528-17.22-.081-.476-.163-.952-.258-1.428-.258-1.468-.544-2.922-.856-4.376a86.688,86.688,0,0,0-3.683-12.724c-.734-1.93-1.482-3.86-2.3-5.749-.245-.544-.774-2.474-1.414-2.719C32.1,15.476,7.452,16.576,3.442,23.767.193,29.612.587,36.925,2.042,43.232" transform="translate(13.328 -3.294)" fill="#ff9d87"/>
      <path id="Trazado_162707" data-name="Trazado 162707" d="M12.112,41.565a6.182,6.182,0,0,0-.806-1.642,2.29,2.29,0,0,0-.915-.845C8.3,38.17,9.363,42.1,9.874,42.9a2.337,2.337,0,0,0,.889.878,1.13,1.13,0,0,0,1.194-.079,1.57,1.57,0,0,0,.309-1.551q-.063-.3-.155-.584" transform="translate(38.649 -7.895)" fill="#301c15"/>
      <path id="Trazado_162708" data-name="Trazado 162708" d="M30.77,43.112a6.5,6.5,0,0,0-.848-1.728,2.4,2.4,0,0,0-.962-.89c-2.195-.954-1.08,3.185-.543,4.022a2.466,2.466,0,0,0,.935.924,1.189,1.189,0,0,0,1.257-.084,1.651,1.651,0,0,0,.324-1.631q-.067-.311-.163-.614" transform="translate(5.226 -8.18)" fill="#301c15"/>
      <path id="Trazado_162709" data-name="Trazado 162709" d="M12.292,43.845a11.569,11.569,0,0,1,3,4.535,6.189,6.189,0,0,1-.745,4.593c-.387.784-1.56.1-1.174-.686,1.516-3.064.069-5.189-2.038-7.481-.592-.643.367-1.607.961-.961" transform="translate(33.92 -8.845)" fill="#e6684b"/>
      <path id="Trazado_162710" data-name="Trazado 162710" d="M35.5,34.547a1.336,1.336,0,0,1-.155,1.3,2.462,2.462,0,0,1-1.833.559,17.2,17.2,0,0,0-3.67.8c-.62.181-1.393.321-1.827-.159A1.336,1.336,0,0,1,28,35.537a4.158,4.158,0,0,1,1.579-1.46c1.19-.706,3.3-1.435,4.716-.825a2.192,2.192,0,0,1,1.2,1.295" transform="translate(0.525 -6.695)" fill="#301c15"/>
      <path id="Trazado_162711" data-name="Trazado 162711" d="M8.079,31.366c1.2-.969,3.427-.838,4.763-.478a4.152,4.152,0,0,1,1.915.979,1.337,1.337,0,0,1,.394,1.46c-.289.578-1.07.652-1.717.645a17.224,17.224,0,0,0-3.749.224,2.462,2.462,0,0,1-1.915-.044,1.337,1.337,0,0,1-.5-1.214,2.192,2.192,0,0,1,.81-1.571" transform="translate(37.241 -6.207)" fill="#301c15"/>
      <path id="Trazado_162712" data-name="Trazado 162712" d="M19.876,57.046a54.893,54.893,0,0,1-6.74.453,23.533,23.533,0,0,1-4.418-.226s.907,2.719,5.579,3.511,5.579-3.738,5.579-3.738" transform="translate(31.449 -11.564)" fill="#fff"/>
      <path id="Trazado_162713" data-name="Trazado 162713" d="M10.395,16.438A10.481,10.481,0,0,1,12.211,8.1,11.011,11.011,0,0,1,24.92,4.76S30.5-4.076,39.208,2.331c2.809-1.166,5.8-1.738,8.677-.18,1.629.884,2.468,2.27,3.805,3.468,1.423,1.276,2.526.47,4.167,1.177,3.007,1.293,3.481,4.689,2.189,7.431-.87,1.844-2.112,2.167-3.418,1.74a6.619,6.619,0,0,1-4.7,2.517,11.36,11.36,0,0,1-5.115-.694,4.957,4.957,0,0,1-1.12,1.587c-1.933,1.791-4.135,1.012-6.437.851-3.354-.234-5.14,2.7-8.371,3.289a7.7,7.7,0,0,1-2.229.063,21.446,21.446,0,0,1-.241,5.641,16.142,16.142,0,0,1-.971,3.458c-.447,1.032-1.71,2.517-1.87,3.574-.413,2.739.942,6.578,1.082,9.386a28.724,28.724,0,0,1-.824,8.706.685.685,0,0,1-1.136.3,79.089,79.089,0,0,1-8.615-12.164c-2.546-.164-5.137-.991-6.707-3a8.4,8.4,0,0,1-1.4-6.36.369.369,0,0,1-.265.039,3.51,3.51,0,0,1-2.142-1.386c-4.055-5.421,1.684-11.479,6.828-15.333" transform="translate(-2.196 0)" fill="#e64006"/>
      <path id="Trazado_162714" data-name="Trazado 162714" d="M40.47,43.954c2.656-1.2,5.291,1.143,6.618,3.585a.642.642,0,0,1,.328.26c1.483,2.323,3.8,8.068.96,10.288-3.178,2.486-7.19-1.961-8.389-4.506-1.08-2.291-2.786-8.154.483-9.627" transform="translate(-22.19 -8.845)" fill="#ff9d87"/>
      <path id="Trazado_162715" data-name="Trazado 162715" d="M51.542,22.513c1.42.646,1.074.86,2.58.448a6.159,6.159,0,0,1,2.387-.34,5.341,5.341,0,0,1,4.155,2.865.68.68,0,0,1-1.174.686,3.944,3.944,0,0,0-6.1-1.183.686.686,0,0,1-.824-.106c-2.306-2.121-6.784-2.048-6.53,2,.054.873-1.305.87-1.359,0-.236-3.774,3.569-5.868,6.865-4.368" transform="translate(-38.1 -4.465)" fill="#a31e00"/>
      <path id="Trazado_162716" data-name="Trazado 162716" d="M51.088,39.709a8.68,8.68,0,0,0,8.933-7.9c.085-.862,1.446-.871,1.359,0a10.057,10.057,0,0,1-10.292,9.264.68.68,0,0,1,0-1.359" transform="translate(-43.317 -6.316)" fill="#a31e00"/>
      <path id="Trazado_162717" data-name="Trazado 162717" d="M17.868,18.553c2.25,2.574,5.705,1.973,7.754-.508.519-.628.91-1.65,1.693-2.044a3.839,3.839,0,0,1,1.406-.172c2.479-.2,5.1.432,6.586-2.074A8.441,8.441,0,0,0,36.5,10.514c.163-.859,1.473-.5,1.311.361-.423,2.225-1.2,4.511-3.2,5.815a5.269,5.269,0,0,1-2.905.842c-2.062.034-3.261-.191-4.914,1.305-3,2.711-6.7,4.32-9.886.678-.573-.656.384-1.622.962-.962" transform="translate(7.11 -2.032)" fill="#a31e00"/>
      <path id="Trazado_162718" data-name="Trazado 162718" d="M21.4,12.174a4.943,4.943,0,0,0,3.71-5.614c-.11-.865,1.25-.857,1.359,0a6.272,6.272,0,0,1-4.708,6.925.68.68,0,0,1-.361-1.311" transform="translate(15.072 -1.199)" fill="#a31e00"/>
      <path id="Trazado_162719" data-name="Trazado 162719" d="M27.742,50.293a2.123,2.123,0,0,1,.289-.6A3.89,3.89,0,0,1,30.1,48.35c1.823-.586,6.279-.081,4.336,2.738a3.837,3.837,0,0,1-2.37,1.407,7.259,7.259,0,0,1-2.513.12A2.435,2.435,0,0,1,28.066,52a1.743,1.743,0,0,1-.324-1.711" transform="translate(1.317 -9.758)" fill="#f2856d"/>
      <path id="Trazado_162720" data-name="Trazado 162720" d="M1.8,45.448a2.412,2.412,0,0,1,.285-.6A4.019,4.019,0,0,1,4.152,43.5a4.47,4.47,0,0,1,.721-.163c.313,1.455.6,2.909.856,4.377a6.5,6.5,0,0,1-2.12.054,2.419,2.419,0,0,1-1.482-.612A1.755,1.755,0,0,1,1.8,45.448" transform="translate(51.181 -8.786)" fill="#f2856d"/>
      <path id="Trazado_162721" data-name="Trazado 162721" d="M44.605,49.731c.154-.859,1.464-.5,1.311.361a5.3,5.3,0,0,0,.616,3.557c.427.765-.747,1.451-1.174.686a6.8,6.8,0,0,1-.753-4.6" transform="translate(-23.818 -9.982)" fill="#e6684b"/>
    </g>
  </g>
</svg>
