<svg xmlns="http://www.w3.org/2000/svg" xmlns:xlink="http://www.w3.org/1999/xlink" width="90" height="90" viewBox="0 0 90 90">
  <defs>
    <clipPath id="clip-path">
      <circle id="Elipse_4884" data-name="Elipse 4884" cx="45" cy="45" r="45" transform="translate(-7026 -7949)" fill="#c4d1ff"/>
    </clipPath>
    <clipPath id="clip-path-2">
      <rect id="Rectángulo_338387" data-name="Rectángulo 338387" width="54.463" height="164" fill="none"/>
    </clipPath>
  </defs>
  <g id="Grupo_983321" data-name="Grupo 983321" transform="translate(7051 8139)">
    <path id="Trazado_207348" data-name="Trazado 207348" d="M45,0A45,45,0,1,1,0,45,45,45,0,0,1,45,0Z" transform="translate(-7051 -8139)" fill="#ffe891"/>
    <g id="Enmascarar_grupo_440" data-name="Enmascarar grupo 440" transform="translate(-25 -190)" clip-path="url(#clip-path)">
      <g id="Grupo_982516" data-name="Grupo 982516" transform="translate(-7904.021 -11402.132)">
        <g id="Grupo_982714" data-name="Grupo 982714" transform="translate(891.558 3457)">
          <g id="Grupo_982713" data-name="Grupo 982713" clip-path="url(#clip-path-2)">
            <path id="Trazado_205367" data-name="Trazado 205367" d="M52.614,118.811s4.335-.722,9.169-1.03a82.685,82.685,0,0,1,11.2.338s-4.426,10.2-11.854,8.178-8.515-7.486-8.515-7.486" transform="translate(-31.33 -70.085)" fill="#050504"/>
            <path id="Trazado_205368" data-name="Trazado 205368" d="M1.07,166.511s-1.1-15.349,1.022-26.2c3.106-15.85,6.973-20.742,8.945-22.91,2.763-3.037,8.864-4.579,8.864-4.579l4.735-.613-.373-6.281,10.959.091.553,5.71s3.889,1.921,5.583,2.808c.255,5.865,4.064,5.778,4.8,11.5-.049.02-.1.042-.144.062l.579,33.219s-11.668,7.427-32.383-.486l-.548-29.255S10.2,143.235,9.443,146.953,8.173,166.1,8.173,166.1s2.7,4.555,1.967,5.765-2.187-1.5-2.187-1.5,1.262,6.711.1,6.748-2.022-5.16-2.022-5.16.3,6.515-1.24,6.119c-.9-.269-.576-5.818-.576-5.818s-.715,5.536-1.686,5.308-.059-5.511-.059-5.511-1.075,4.3-2.059,4,.014-6.6.656-9.531" transform="translate(0 -63.074)" fill="#e7a17e"/>
            <path id="Trazado_205369" data-name="Trazado 205369" d="M60.2,109.732l-.226-3.807,10.959.091.442,4.558a35.8,35.8,0,0,1-11.175-.843" transform="translate(-35.715 -63.075)" fill="#dd8865"/>
            <path id="Trazado_205370" data-name="Trazado 205370" d="M38.9,305.932l3.822-56.091-16.829-2.055s4.046,42.705,6.078,56.452c0,0-10.748,3.875-10.706,5.9s12.4.5,12.4.5,7.553,1.89,5.234-4.7" transform="translate(-12.659 -147.548)" fill="#e7a17e"/>
            <path id="Trazado_205371" data-name="Trazado 205371" d="M82.85,294.523s-2.778-37.387-4.475-64.585c-.253-4.053,15.061,5.949,15.061,5.949s-2.273,42.836-3.733,56.655c0,0,10.542,3.354,10.584,5.376s-12.013,1.089-12.013,1.089-7.469,2.2-5.424-4.484" transform="translate(-46.668 -136.345)" fill="#e7a17e"/>
            <path id="Trazado_205372" data-name="Trazado 205372" d="M122.619,391.516c3.349,1.439,4.4,2.867,4.4,2.867s-.157.468-4.764,1.074a6.049,6.049,0,0,1,.362-3.94" transform="translate(-72.697 -233.134)" fill="#fff"/>
            <path id="Trazado_205373" data-name="Trazado 205373" d="M88.3,388.471c4.374,2.235,9.471-.593,9.471-.593a28.917,28.917,0,0,1,4.483,1.472,6.049,6.049,0,0,0-.362,3.94c-1.188.156-2.666.321-4.519.49-9.043.825-9.469-1.52-9.469-1.52a12.951,12.951,0,0,1,.4-3.789" transform="translate(-52.337 -230.968)" fill="#e4bb5b"/>
            <path id="Trazado_205374" data-name="Trazado 205374" d="M87.935,398.646a13.462,13.462,0,0,0,.209,1.406s2.63.839,9.738.692c7.942-.165,8.939-1.2,8.939-1.2a2.5,2.5,0,0,0-.134-.944,44,44,0,0,1-18.752.044" transform="translate(-52.362 -237.354)" fill="#fff"/>
            <path id="Trazado_205375" data-name="Trazado 205375" d="M116.919,389.719a2.893,2.893,0,0,0-1.179,2.757" transform="translate(-68.906 -232.064)" fill="none" stroke="#57687e" stroke-linecap="round" stroke-linejoin="round" stroke-width="0.538"/>
            <path id="Trazado_205376" data-name="Trazado 205376" d="M113.011,388.5a3.1,3.1,0,0,0-1.144,2.754" transform="translate(-66.612 -231.338)" fill="none" stroke="#57687e" stroke-linecap="round" stroke-linejoin="round" stroke-width="0.538"/>
            <path id="Trazado_205377" data-name="Trazado 205377" d="M112.542,386.611s.944-2.312-.048-2.326S112.542,386.611,112.542,386.611Z" transform="translate(-66.731 -228.828)" fill="none" stroke="#57687e" stroke-linecap="round" stroke-linejoin="round" stroke-width="0.538"/>
            <path id="Trazado_205378" data-name="Trazado 205378" d="M110.071,388.282s-1.646-1.879-2.1-1S110.071,388.282,110.071,388.282Z" transform="translate(-64.259 -230.475)" fill="none" stroke="#57687e" stroke-linecap="round" stroke-linejoin="round" stroke-width="0.538"/>
            <path id="Trazado_205379" data-name="Trazado 205379" d="M31.321,226.667s1.15,32.025,3.7,62.244c.244,2.9,11.628-.241,11.628-.241l1.813-47.732,4.525,47.51S61.838,290,64.369,288.3c0,0,2.059-7.021.931-61.147Z" transform="translate(-18.651 -134.972)" fill="#2e2646"/>
            <path id="Trazado_205380" data-name="Trazado 205380" d="M70.893,261.861a.109.109,0,0,0,0-.218,90.9,90.9,0,0,1-12.346-1.667.111.111,0,0,0-.128.085.109.109,0,0,0,.085.129,91.24,91.24,0,0,0,12.383,1.671h.006" transform="translate(-34.785 -154.806)" fill="#1a162b"/>
            <path id="Trazado_205381" data-name="Trazado 205381" d="M110.168,291.834a.109.109,0,0,0,.107-.108l.574-57.754a.109.109,0,0,0-.108-.11h0a.109.109,0,0,0-.107.108l-.574,57.754a.109.109,0,0,0,.108.11h0" transform="translate(-65.535 -139.257)" fill="#1a162b"/>
            <path id="Trazado_205382" data-name="Trazado 205382" d="M65.752,309.115a.109.109,0,0,0,.107-.107l.785-46.734a.109.109,0,0,0-.218,0l-.785,46.734a.109.109,0,0,0,.108.11h0" transform="translate(-39.087 -156.11)" fill="#1a162b"/>
            <path id="Trazado_205383" data-name="Trazado 205383" d="M70.6,237.566c.06,0,.108-.069.106-.151l-.229-11.032c0-.082-.052-.148-.112-.147s-.107.069-.106.151l.229,11.032c0,.082.052.148.112.147" transform="translate(-41.835 -134.715)" fill="#1a162b"/>
            <path id="Trazado_205384" data-name="Trazado 205384" d="M103.787,239.528a.108.108,0,0,0,.075-.032.109.109,0,0,0,0-.154A15.2,15.2,0,0,1,99.436,227.8a.109.109,0,0,0-.1-.115.107.107,0,0,0-.115.1,15.425,15.425,0,0,0,4.49,11.706.109.109,0,0,0,.079.032" transform="translate(-59.067 -135.581)" fill="#1a162b"/>
            <path id="Trazado_205385" data-name="Trazado 205385" d="M33.167,237.841a.132.132,0,0,0,.032-.005,6.234,6.234,0,0,0,3.751-4.2,13.2,13.2,0,0,0,.15-5.743.109.109,0,1,0-.215.034,12.981,12.981,0,0,1-.143,5.646,6.01,6.01,0,0,1-3.611,4.052.109.109,0,0,0,.037.212" transform="translate(-19.683 -135.65)" fill="#1a162b"/>
            <path id="Trazado_205386" data-name="Trazado 205386" d="M70.914,238.98c.061,0,1.491-.064,1.782-2.951.282-2.8.276-6.579.276-6.617a.109.109,0,0,0-.109-.108h0a.109.109,0,0,0-.107.109c0,.038.006,3.808-.275,6.6-.27,2.679-1.558,2.755-1.571,2.756a.109.109,0,0,0,.005.218" transform="translate(-42.161 -136.542)" fill="#1a162b"/>
            <path id="Trazado_205387" data-name="Trazado 205387" d="M66.1,234.458a.111.111,0,0,1-.028,0c-11.212-2.917-26.035-2.292-30.908-2.089-1.76.074-1.76.074-1.8-.031a.1.1,0,0,1,.143-.125c.119.016.8-.012,1.647-.048,4.879-.2,19.726-.83,30.968,2.1a.1.1,0,0,1-.024.2" transform="translate(-19.866 -138.126)" fill="#1a162b"/>
            <path id="Trazado_205388" data-name="Trazado 205388" d="M72.8,226.988c.009.452-.257.824-.595.831s-.62-.354-.629-.805.257-.824.595-.831.619.354.629.805" transform="translate(-42.621 -134.684)" fill="#1a162b"/>
            <path id="Trazado_205389" data-name="Trazado 205389" d="M24.295,393.44c-3.286,1.576-4.28,3.047-4.28,3.047s.176.461,4.8.875a6.048,6.048,0,0,0-.525-3.922" transform="translate(-11.918 -234.28)" fill="#fff"/>
            <path id="Trazado_205390" data-name="Trazado 205390" d="M44.5,389.546c-4.278,2.414-9.487-.2-9.487-.2A28.9,28.9,0,0,0,30.594,391a6.049,6.049,0,0,1,.525,3.922c1.193.107,2.677.211,4.535.3,9.07.449,9.4-1.911,9.4-1.911a12.935,12.935,0,0,0-.553-3.769" transform="translate(-18.218 -231.842)" fill="#e4bb5b"/>
            <path id="Trazado_205391" data-name="Trazado 205391" d="M38.6,399.159a13.46,13.46,0,0,1-.15,1.413s-2.593.947-9.7,1.1c-7.942.165-8.981-.826-8.981-.826a2.5,2.5,0,0,1,.094-.949,44,44,0,0,0,18.738-.733" transform="translate(-11.762 -237.686)" fill="#fff"/>
            <path id="Trazado_205392" data-name="Trazado 205392" d="M35.236,391.449a2.893,2.893,0,0,1,1.292,2.706" transform="translate(-20.982 -233.094)" fill="none" stroke="#57687e" stroke-linecap="round" stroke-linejoin="round" stroke-width="0.538"/>
            <path id="Trazado_205393" data-name="Trazado 205393" d="M39.173,390.064a3.1,3.1,0,0,1,1.257,2.7" transform="translate(-23.326 -232.27)" fill="none" stroke="#57687e" stroke-linecap="round" stroke-linejoin="round" stroke-width="0.538"/>
            <path id="Trazado_205394" data-name="Trazado 205394" d="M39.986,388.115s-1.038-2.271-.048-2.326S39.986,388.115,39.986,388.115Z" transform="translate(-23.527 -229.723)" fill="none" stroke="#57687e" stroke-linecap="round" stroke-linejoin="round" stroke-width="0.538"/>
            <path id="Trazado_205395" data-name="Trazado 205395" d="M40.689,389.682s1.567-1.945,2.059-1.084S40.689,389.682,40.689,389.682Z" transform="translate(-24.229 -231.266)" fill="none" stroke="#57687e" stroke-linecap="round" stroke-linejoin="round" stroke-width="0.538"/>
            <path id="Trazado_205396" data-name="Trazado 205396" d="M34.749,120.45a28.935,28.935,0,0,1,3.618-.928,21.147,21.147,0,0,0,8.864,1.6,19.739,19.739,0,0,0,8.562-2.231s.636,3.382,3.526,2.1c2.082,6.927,5.807,9.683,7.888,16.664-.117.064-.233.131-.35.181a23.5,23.5,0,0,0,.375,7.278c1.163,6.932.146,17.721-.856,19.109s-.575,1.42-8.944-.093-22.269-1.777-25.961.383-2.693-5.614-2.567-5.733a24.636,24.636,0,0,0,.041-8.311,5.02,5.02,0,0,1,.438-3.066" transform="translate(-17.082 -70.796)" fill="#050504"/>
            <path id="Trazado_205397" data-name="Trazado 205397" d="M16.832,149.693c-3.106-.395-6.8-3.941-9.223-6.678,1.065-5.255,2.829-10.545,5.877-13.963,2.5-2.8,4.473-4.9,8.711-6.31" transform="translate(-4.531 -73.089)" fill="#050504"/>
            <path id="Trazado_205398" data-name="Trazado 205398" d="M122.054,177.759s3.559-1.7,2.084-8.621L118,171.429Z" transform="translate(-70.266 -100.716)" fill="#dd8865"/>
            <path id="Trazado_205399" data-name="Trazado 205399" d="M104.674,146.036c3.118-.28,6.937-3.686,9.464-6.331-.869-5.291-2.436-10.643-5.355-14.171-2.4-2.895-4.288-5.058-8.471-6.628" transform="translate(-59.732 -70.804)" fill="#050504"/>
            <path id="Trazado_205400" data-name="Trazado 205400" d="M59.63,121.657A13.631,13.631,0,0,0,70.69,116.7a.1.1,0,0,0-.167-.117A13.544,13.544,0,0,1,58.594,121.4a23.157,23.157,0,0,1-9.161-2.655.1.1,0,0,0-.106.175,23.4,23.4,0,0,0,9.25,2.683q.538.045,1.052.054" transform="translate(-29.344 -69.394)" fill="#282822"/>
            <path id="Trazado_205401" data-name="Trazado 205401" d="M17.161,176.792a.1.1,0,0,0,.023-.2c-5.776-1.27-8.917-7.07-8.948-7.128a.1.1,0,1,0-.18.1c.032.059,3.215,5.941,9.085,7.231l.02,0" transform="translate(-4.79 -100.877)" fill="#282822"/>
            <path id="Trazado_205402" data-name="Trazado 205402" d="M30.641,181.82a.1.1,0,0,0,.041-.008.1.1,0,0,0,.055-.133c-.008-.019-.754-1.953.316-8.475a.1.1,0,0,0-.2-.033c-1.082,6.6-.335,8.509-.3,8.587a.1.1,0,0,0,.092.063" transform="translate(-18.023 -103.066)" fill="#282822"/>
            <path id="Trazado_205403" data-name="Trazado 205403" d="M32.705,143.93a.1.1,0,0,0,.1-.086,144.166,144.166,0,0,0,1.817-16.024.1.1,0,0,0-.1-.106.1.1,0,0,0-.106.1,143.92,143.92,0,0,1-1.814,16,.1.1,0,0,0,.085.117h.014" transform="translate(-19.415 -76.049)" fill="#282822"/>
            <path id="Trazado_205404" data-name="Trazado 205404" d="M113.13,157.38a.1.1,0,0,0,.069-.178c-.046-.04-4.615-4.06-5.756-5.222a.1.1,0,1,0-.146.143c1.146,1.168,5.721,5.191,5.767,5.232a.1.1,0,0,0,.066.025" transform="translate(-63.874 -90.481)" fill="#282822"/>
            <path id="Trazado_205405" data-name="Trazado 205405" d="M31.207,225.692a.1.1,0,0,0,.059-.018c.031-.021,3.2-2.1,10.381-2h.11c3.1.058,7.694.655,12.136,1.232,6.134.8,11.929,1.55,13.4.843a.1.1,0,0,0,.047-.136.1.1,0,0,0-.136-.048c-1.413.681-7.178-.068-13.281-.861-4.448-.578-9.045-1.176-12.158-1.233l-.111,0c-7.25-.105-10.466,2.011-10.5,2.033a.1.1,0,0,0,.055.186" transform="translate(-18.523 -133.068)" fill="#282822"/>
            <path id="Trazado_205406" data-name="Trazado 205406" d="M90.811,200.473a.1.1,0,0,0,.054-.015,39.894,39.894,0,0,0,10.935-9.639.1.1,0,0,0-.16-.126,39.713,39.713,0,0,1-10.879,9.591.1.1,0,0,0-.035.14.1.1,0,0,0,.085.05" transform="translate(-54.015 -113.528)" fill="#282822"/>
            <path id="Trazado_205407" data-name="Trazado 205407" d="M103.925,207.451a.1.1,0,0,0,.077-.033,22.383,22.383,0,0,0,5.184-9.645.1.1,0,1,0-.2-.049,22.184,22.184,0,0,1-5.136,9.556.1.1,0,0,0,.006.144.1.1,0,0,0,.067.027" transform="translate(-61.824 -117.692)" fill="#282822"/>
            <path id="Trazado_205408" data-name="Trazado 205408" d="M24.507,34.689a5.248,5.248,0,0,0-2.822,8.419,1.939,1.939,0,0,1,.424.655,1.689,1.689,0,0,1-.238,1.141,7,7,0,0,0-.9,3.647,2.693,2.693,0,0,0,2.4,2.511" transform="translate(-12.214 -20.656)" fill="none" stroke="#63453c" stroke-miterlimit="10" stroke-width="1.008"/>
            <path id="Trazado_205409" data-name="Trazado 205409" d="M106.5,40.321c-.4-.406-.736-.744-.992-1.006a16.068,16.068,0,0,0,1.838,3.15s1.374,7.769,2.295,9.177,1.614-3.786.68-6.835a10.607,10.607,0,0,0-1.371-3.126,7.111,7.111,0,0,1-2.449-1.359" transform="translate(-62.826 -23.411)" fill="#795948"/>
            <path id="Trazado_205410" data-name="Trazado 205410" d="M62.791,28.134a45.433,45.433,0,0,1,3.822,14.5A14.472,14.472,0,0,1,54.288,58.123C46.507,59.446,38.04,57.138,34.455,46.4S33.421,26.56,43.138,23.081s16.91-1.553,19.654,5.053" transform="translate(-19.596 -12.729)" fill="#e7a17e"/>
            <path id="Trazado_205411" data-name="Trazado 205411" d="M60.615,84.379c-.108,1.172-1.974,1.957-4.168,1.754s-3.885-1.316-3.777-2.488,1.975-1.957,4.168-1.754,3.885,1.316,3.777,2.488" transform="translate(-31.36 -48.744)" fill="#dd8865"/>
            <path id="Trazado_205412" data-name="Trazado 205412" d="M102.406,77.785c.369,1.117-1.028,2.583-3.121,3.273s-4.087.345-4.456-.772,1.028-2.583,3.121-3.273,4.087-.345,4.456.772" transform="translate(-56.432 -45.647)" fill="#dd8865"/>
            <path id="Trazado_205413" data-name="Trazado 205413" d="M82.11,32.667c-.049-.055-.081-.085-.081-.085l.081.085" transform="translate(-48.846 -19.401)" fill="#795948"/>
            <path id="Trazado_205414" data-name="Trazado 205414" d="M61.408,8.29c.5-2.6-1.833-1.3-1.833-1.3a3.2,3.2,0,0,0-1.193-3.319c-1.737-1.131-5.159.536-6.547.681,0,0,2.1-2.61.183-4.03S44.87,2.639,43.066,3.333C39.218,4.813,38.6,2.7,32.158,5.161A7.736,7.736,0,0,0,28.21,8.734s.392-5.132-1.126-4.9S26,10.478,26,10.478s-3.916-1.317-4.121.428S24.4,14.066,24.4,14.066s-5.858,4.1-1.828,7.992c0,0-2.629,2.909-1.61,6.03a2.075,2.075,0,0,0,1.6,1.324,5.051,5.051,0,0,0,.853,6.723c3.419,3.208,5.508,8.466,8.726,7.515s-1.877-5.435-3.2-7.071-.787-3.819-.377-8.429,1.1-10.544,1.1-10.544,10.434,3.7,14.4.817c3.533-2.564,1.93-4.714,1.533-5.157l-.081-.085s.032.03.081.085c.561.582,4.024,4.015,7.19,3.478,2.441-.414,1.263-2.831,1.263-2.831s.43.924.964,1.992c.256.261.587.6.992,1.005a7.1,7.1,0,0,0,2.449,1.359,1.505,1.505,0,0,0-.356-.38s3.467.951,3-2.781a5.119,5.119,0,0,0-2.2-3.4,4.656,4.656,0,0,0,2.5-3.422" transform="translate(-12.345 0)" fill="#795948"/>
            <path id="Trazado_205415" data-name="Trazado 205415" d="M34.493,84.049,32,77.83s-6.1-1.526-5.776,4.534,6.687,5.707,8.274,1.685" transform="translate(-15.605 -46.243)" fill="#e7a17e"/>
            <path id="Trazado_205416" data-name="Trazado 205416" d="M54.093,60.615s-1.494-1.387,1.131-3.589,3.661-1.885,4.218-.978c.508.826,0,2.2-1.5,3.4-1.795,1.437-3.034,1.973-3.85,1.172" transform="translate(-31.958 -32.964)" fill="#795948"/>
            <path id="Trazado_205417" data-name="Trazado 205417" d="M99.278,55.907s.831-1.862-2.447-2.858-4.106-.3-4.264.753c-.144.96.864,2.021,2.709,2.536,2.214.619,3.565.626,4-.431" transform="translate(-55.112 -31.302)" fill="#795948"/>
            <path id="Trazado_205418" data-name="Trazado 205418" d="M64.775,72.7A1.252,1.252,0,1,1,63.4,71.335,1.382,1.382,0,0,1,64.775,72.7" transform="translate(-37.112 -42.474)"/>
            <path id="Trazado_205419" data-name="Trazado 205419" d="M98.385,68.208a1.252,1.252,0,1,1-1.375-1.361,1.382,1.382,0,0,1,1.375,1.361" transform="translate(-57.125 -39.802)"/>
            <path id="Trazado_205420" data-name="Trazado 205420" d="M33.764,87.5a.123.123,0,0,1-.051-.006.122.122,0,0,1-.077-.154c.011-.031,1-3.063-1.164-4.2a2.691,2.691,0,0,0-2.135-.277,3.352,3.352,0,0,0-1.725,1.566.121.121,0,1,1-.219-.106,3.54,3.54,0,0,1,1.865-1.691,2.923,2.923,0,0,1,2.326.292c2.345,1.235,1.293,4.46,1.282,4.493a.122.122,0,0,1-.1.082" transform="translate(-16.9 -49.13)" fill="#634927"/>
            <path id="Trazado_205421" data-name="Trazado 205421" d="M33.525,88.169a.121.121,0,0,1-.1-.21c.019-.017,1.892-1.708,3.553-.358a.121.121,0,1,1-.153.189c-1.5-1.218-3.217.333-3.235.348a.118.118,0,0,1-.07.031" transform="translate(-19.883 -51.852)" fill="#634927"/>
            <path id="Trazado_205422" data-name="Trazado 205422" d="M81.962,62.254a.122.122,0,0,1-.074-.226,3.281,3.281,0,0,0,1.268-1.463,2.069,2.069,0,0,0-.442-2.118.856.856,0,0,0-1.07.046l-.059.042c-1.4,1.018-2.108.7-2.459.253-.643-.82-.886-7.792-.911-8.585a.123.123,0,0,1,.118-.125.122.122,0,0,1,.125.118c.068,2.131.356,7.8.859,8.442.413.527,1.129.427,2.125-.3l.068-.049a1.094,1.094,0,0,1,1.356-.034,2.3,2.3,0,0,1,.519,2.393,3.468,3.468,0,0,1-1.373,1.588.121.121,0,0,1-.049.016" transform="translate(-46.574 -29.821)" fill="#634927"/>
            <path id="Trazado_205423" data-name="Trazado 205423" d="M37.082,29.155a37,37,0,0,0,7,2.738,22.947,22.947,0,0,0,3.679.683,12.575,12.575,0,0,0,3.7-.136,7.6,7.6,0,0,0,1.748-.6,4.906,4.906,0,0,0,1.48-1.061,3.489,3.489,0,0,0,.846-1.572,4.435,4.435,0,0,0,.024-1.81,8.128,8.128,0,0,0-1.538-3.341,6.609,6.609,0,0,0-.605-.7,2.035,2.035,0,0,0-.688-.5c-.055-.014-.071,0-.057-.011a.181.181,0,0,0-.01.087,1.26,1.26,0,0,0,.119.391,5.432,5.432,0,0,0,.46.793,17.429,17.429,0,0,0,2.485,2.806,15.921,15.921,0,0,0,3.008,2.232,7.9,7.9,0,0,0,1.708.719,3.721,3.721,0,0,0,1.792.089,1.923,1.923,0,0,0,1.3-1.081,4.189,4.189,0,0,0,.356-1.774,7.794,7.794,0,0,0-.218-1.84,5.733,5.733,0,0,0-.667-1.707,1.426,1.426,0,0,0-.274-.321.384.384,0,0,0-.145-.08c-.056-.006-.026-.006-.042,0a.728.728,0,0,0-.042.356,3.481,3.481,0,0,0,.061.447,10.93,10.93,0,0,0,.554,1.781,16.409,16.409,0,0,0,1.751,3.312,7.583,7.583,0,0,0,1.218,1.39,2.213,2.213,0,0,0,1.574.652h0a.182.182,0,0,1,.037.363h0a2.554,2.554,0,0,1-1.844-.743,7.961,7.961,0,0,1-1.273-1.46,16.754,16.754,0,0,1-1.777-3.39,11.247,11.247,0,0,1-.564-1.841,3.722,3.722,0,0,1-.065-.492.93.93,0,0,1,.106-.566.327.327,0,0,1,.184-.127.4.4,0,0,1,.2,0,.7.7,0,0,1,.27.142,1.726,1.726,0,0,1,.343.4A6.032,6.032,0,0,1,64,25.2a8.134,8.134,0,0,1,.229,1.919,4.509,4.509,0,0,1-.387,1.917A2.262,2.262,0,0,1,62.32,30.3a4.052,4.052,0,0,1-1.96-.089,8.258,8.258,0,0,1-1.783-.748A16.255,16.255,0,0,1,55.5,27.185a17.762,17.762,0,0,1-2.541-2.862,5.789,5.789,0,0,1-.49-.847,1.545,1.545,0,0,1-.149-.514.454.454,0,0,1,.114-.356.4.4,0,0,1,.389-.08,2.268,2.268,0,0,1,.849.586,7.021,7.021,0,0,1,.639.734,8.476,8.476,0,0,1,1.61,3.492,4.792,4.792,0,0,1-.026,1.957,3.853,3.853,0,0,1-.93,1.734,5.5,5.5,0,0,1-1.581,1.147,8.672,8.672,0,0,1-1.821.668,12.013,12.013,0,0,1-3.844.273,20.266,20.266,0,0,1-3.774-.7A31.825,31.825,0,0,1,36.9,29.473a.182.182,0,0,1,.172-.321Z" transform="translate(-21.919 -13.402)" fill="#63453c"/>
            <path id="Trazado_205424" data-name="Trazado 205424" d="M82.814,109.917l1.606,11.714,9.926-2.244-8.039-15.468s-.977-4.769-2.085-4.183-.97,3.766-.97,3.766-7.212-1.692-7.3-.667,4.464,2.055,4.464,2.055-3.282-.631-3.011.756c.192.811,2.651.837,2.651.837s-2.565.053-2.413.925,2.5.63,2.5.63-2.078.252-1.86,1.138,1.862,1.041,4.494.623" transform="translate(-45.224 -59.36)" fill="#e7a17e"/>
            <path id="Trazado_205425" data-name="Trazado 205425" d="M106.821,148.388s7.7,13,2.622,17.556-8.721.877-9.928-3.362-2.62-11.951-2.62-11.951" transform="translate(-57.698 -88.36)" fill="#e7a17e"/>
            <path id="Trazado_205426" data-name="Trazado 205426" d="M89.624,110.3l-3.316-6.38s-.977-4.769-2.085-4.183-.97,3.766-.97,3.766-7.212-1.692-7.3-.667,4.464,2.055,4.464,2.055-3.282-.631-3.011.756c.192.811,2.651.837,2.651.837s-2.565.053-2.413.925,2.5.63,2.5.63-2.078.252-1.86,1.139,1.862,1.041,4.493.623" transform="translate(-45.224 -59.36)" fill="none" stroke="#634927" stroke-miterlimit="10" stroke-width="0.529"/>
            <path id="Trazado_205427" data-name="Trazado 205427" d="M78.32,85.419a3.321,3.321,0,0,1,.139-1.056,16.711,16.711,0,0,1,5.1,1.15,4.6,4.6,0,0,1-.516,1.065,12.662,12.662,0,0,0-4.721-1.159" transform="translate(-46.636 -50.235)"/>
            <path id="Trazado_205428" data-name="Trazado 205428" d="M83.043,88.133a2.549,2.549,0,0,1-4.721-1.159,12.662,12.662,0,0,1,4.721,1.159" transform="translate(-46.638 -51.79)" fill="#7c3645"/>
          </g>
        </g>
      </g>
    </g>
  </g>
</svg>
