<svg xmlns="http://www.w3.org/2000/svg" xmlns:xlink="http://www.w3.org/1999/xlink" width="294" height="148" viewBox="0 0 294 148">
  <defs>
    <clipPath id="clip-path">
      <rect id="Rect치ngulo_338992" data-name="Rect치ngulo 338992" width="117.452" height="117.448" fill="none"/>
    </clipPath>
  </defs>
  <g id="Grupo_984121" data-name="Grupo 984121" transform="translate(-982 -1902)">
    <rect id="Rect치ngulo_338949" data-name="Rect치ngulo 338949" width="294" height="148" rx="14" transform="translate(982 1902)" fill="#a6bbff"/>
    <g id="Grupo_984120" data-name="Grupo 984120" transform="translate(1070.13 1917.13)">
      <g id="Grupo_984119" data-name="Grupo 984119" transform="translate(0 0)" clip-path="url(#clip-path)">
        <path id="Trazado_212296" data-name="Trazado 212296" d="M13.866,0H81.013c2.621.638,3.546,1.826,3.548,4.637q.011,17.926,0,35.855c0,.343-.005.687,0,1.031.025,1.227.051,1.278,1.325,1.223,4.7-.2,9.312.16,13.69,2.085a29.913,29.913,0,0,1,7.272,4.3c1.289,1.078,1.449,1.773.839,3.053-1.216,1.17-1.967,1.235-3.277.181a24.892,24.892,0,0,0-11.088-5.144c-8.616-1.4-16.17.639-22.507,6.821a25.051,25.051,0,0,0-1.5,34.329,24.638,24.638,0,0,0,13.793,8.248,25.643,25.643,0,0,0,10.23.077,23.388,23.388,0,0,0,10.886-5.029,25.258,25.258,0,0,0,5.442-33.351c-.206-.321-.44-.626-.613-.966a2.318,2.318,0,0,1,.306-2.943c1.41-.633,2.186-.445,3.049.748a29.63,29.63,0,0,1,4.438,9.454c.382,1.359.311,2.776.6,4.144v6.417a23.4,23.4,0,0,1-2.24,8.8c-5.185,10.538-13.539,16.43-25.356,17.228-1.338.091-2.669-.012-4-.024-1.222-.01-1.258.017-1.278,1.285-.011.763.008,1.527-.007,2.29a4.436,4.436,0,0,1-4.376,4.642c-1.559.129-3.129.024-4.694.047-1.343.02-1.442.117-1.465,1.424-.015.84.036,1.681-.03,2.519a4.067,4.067,0,0,1-4.34,4.06q-32.758.014-65.515,0c-2.762,0-4.143-1.462-4.143-4.323Q0,85.229,0,57.34q0-14.775,0-29.55c0-1.581.255-1.964,1.55-2.416A2.108,2.108,0,0,1,3.882,27.49a17.363,17.363,0,0,1,.041,1.945q0,40.71,0,81.422c0,2.668,0,2.669,2.635,2.669q30.52,0,61.039,0c2.284,0,2.284,0,2.273-2.279-.008-1.744-.045-1.789-1.8-1.791-7.253-.005-14.505.008-21.759-.008-1.878,0-2.5-.417-3.093-1.941.016-1.336.44-1.806,1.951-2.163,10.413-.04,20.827-.009,31.24-.016.916,0,1.831-.054,2.746-.049.839.005,1.291-.362,1.261-1.237-.005-.152-.006.038,0-.115.18-3.548.18-3.548-3.188-4.868a26.037,26.037,0,0,1-3.972-2.038,5.661,5.661,0,0,0-3.247-.88q-22.918.031-45.835.012a10.553,10.553,0,0,1-2.057-.1,2.109,2.109,0,0,1-1.891-2.214c.058-1.1.781-1.734,2.089-1.831.533-.04,1.069-.021,1.6-.021q20.683,0,41.366-.005a2.714,2.714,0,0,0,1.509-.2c-1.018-1.172-1.844-2.442-2.883-3.538-.451-.475-1.15-.336-1.754-.337q-7.218-.012-14.438,0-12.03,0-24.062,0a7.674,7.674,0,0,1-1.713-.1,2.11,2.11,0,0,1-1.719-2.13A2.047,2.047,0,0,1,22.069,83.8a11.565,11.565,0,0,1,1.716-.052H59.192c.306,0,.611.005.917,0,1.292-.028,1.36-.122.933-1.294-1.017-2.791-1.017-2.791-3.957-2.791q-16.615,0-33.23,0a9.415,9.415,0,0,1-1.829-.083A2.059,2.059,0,0,1,20.2,77.543a2.085,2.085,0,0,1,1.971-2.012,13.491,13.491,0,0,1,1.6-.038h33.23q.63,0,1.26-.01c.706-.008,1.081-.28.939-1.054a10.168,10.168,0,0,1-.1-1.6c-.031-1.323-.112-1.417-1.465-1.419q-8.25-.017-16.5-.005-8.823,0-17.647,0a7.666,7.666,0,0,1-1.6-.082,2.059,2.059,0,0,1-1.684-1.912,1.981,1.981,0,0,1,1.429-1.986,6.087,6.087,0,0,1,2.045-.179q16.959,0,33.917,0c1.821,0,1.821,0,2.261-1.777.57-2.309.57-2.309-1.795-2.309H23.692a9.706,9.706,0,0,1-1.716-.066,2.035,2.035,0,0,1-1.746-1.848,2.092,2.092,0,0,1,1.48-2.085,6.461,6.461,0,0,1,2.047-.162c12.109,0,24.216-.024,36.325.028a2.765,2.765,0,0,0,2.989-1.716,11.985,11.985,0,0,1,1.088-1.75c.267-.412.164-.633-.339-.646-.305-.008-.611-.005-.916-.005H23.714a10.932,10.932,0,0,1-1.831-.068,1.8,1.8,0,0,1-1.641-1.651,2.014,2.014,0,0,1,1.206-2.136,5.255,5.255,0,0,1,2.253-.306c14.018,0,28.036-.022,42.053.026A5.806,5.806,0,0,0,70,49.244a23.84,23.84,0,0,1,7.442-4.433,13.164,13.164,0,0,1,1.709-.655,1.59,1.59,0,0,0,1.289-1.84c-.035-3.245-.013-6.49-.013-9.736q0-13.286,0-26.573c0-.42,0-.84-.024-1.259a.851.851,0,0,0-.927-.926c-.724-.023-1.449-.039-2.175-.029-4.317.039-8.632.015-12.948.016q-23.317.006-46.636,0c-.382,0-.764,0-1.146,0-1.992.011-2.086.1-2.1,2.044,0,.19,0,.382,0,.572v96.251c0,2.6,0,2.6,2.573,2.6q10.37,0,20.739,0c1.15,0,2.256.092,2.685,1.44.138,1.786-.582,2.646-2.39,2.709-2.214.077-4.429.023-6.644.024q-7.731.006-15.465,0c-3.85-.008-5.672-1.839-5.672-5.716q-.009-44.676,0-89.352c0-2.325,0-2.326-2.3-2.326-.878,0-1.757-.026-2.634.012-1.193.052-1.4.245-1.425,1.434-.044,2.215.017,4.429-.028,6.644-.033,1.634-.527,2.237-2.01,2.594C.411,22.463.014,22.017.007,20.525c-.012-2.672-.006-5.346,0-8.018A4.194,4.194,0,0,1,4.339,7.94c1.525-.088,3.054-.01,4.582-.031,1.279-.017,1.375-.116,1.4-1.362.012-.726-.018-1.452.014-2.177A4.172,4.172,0,0,1,13.866,0" transform="translate(0 0)"/>
        <path id="Trazado_212297" data-name="Trazado 212297" d="M39.928,106.714a2.1,2.1,0,0,0-2.246-1.188c-7.447.024-14.895.014-22.341.012-1.459,0-1.547-.09-1.547-1.569q0-49.549-.009-99.1c0-.9.072-1.531,1.258-1.53q30.82.035,61.637.019a3.206,3.206,0,0,1,.341.035c.671.367.583,1.025.59,1.62.025,2.175.01,4.349.01,6.524q0,15.682,0,31.364a3.142,3.142,0,0,1-.373,2.1,29.491,29.491,0,0,0-8.8,5.667,1.993,1.993,0,0,1-1.582.435q-22,0-44,0a6.6,6.6,0,0,0-1.366.083,1.68,1.68,0,0,0,.156,3.314,10.292,10.292,0,0,0,1.257.036q20.281,0,40.559,0h1.4a45.014,45.014,0,0,0-2.736,4.511c-.251.5-.756.256-1.138.256q-16.212.021-32.425.011c-2.215,0-4.43-.026-6.645.014a1.662,1.662,0,0,0-1.769,1.7c-.01,1.034.673,1.67,1.854,1.719.305.013.611,0,.916,0H47.22c4.124,0,8.249.021,12.374-.017.862-.008,1.046.17.737,1.005a9.1,9.1,0,0,0-.64,2.657c-.051,1.088-.582,1.152-1.456,1.15q-17.7-.035-35.4-.015a8.683,8.683,0,0,0-1.144.025,1.66,1.66,0,0,0-1.52,1.815A1.606,1.606,0,0,0,21.8,70.962c.341.03.687.009,1.03.009,11.725,0,23.45.013,35.175-.025.965,0,1.241.235,1.17,1.181a11.4,11.4,0,0,0,.153,2.507c.125.835,0,1.164-.991,1.159-8.669-.044-17.339-.026-26.008-.026q-4.984,0-9.969,0c-1.454,0-2.209.6-2.2,1.724s.768,1.71,2.228,1.711q18.275,0,36.549-.021c.875,0,1.257.206,1.478,1.084.312,1.238.83,2.424,1.3,3.73H22.8a9.268,9.268,0,0,0-1.145.019A1.557,1.557,0,0,0,20.173,85.5a1.6,1.6,0,0,0,1.108,1.793,3.769,3.769,0,0,0,1.47.138q19.937,0,39.871-.012a1.659,1.659,0,0,1,1.657.869,30.5,30.5,0,0,0,3.126,3.91H66.019q-21.539,0-43.079,0a11.2,11.2,0,0,0-1.258.034A1.548,1.548,0,0,0,20.169,93.8a1.583,1.583,0,0,0,1.417,1.777,6.48,6.48,0,0,0,1.255.054q23.716,0,47.433-.01a3.582,3.582,0,0,1,2.235.645,34.032,34.032,0,0,0,4.51,2.444,1.432,1.432,0,0,1,.589,1.4c.023,1.335.038,2.67,0,4-.039,1.216-.178,1.328-1.433,1.328q-15.106,0-30.213,0a4.134,4.134,0,0,0-1.25.066c-.8.3-1.582.6-1.588,1.656-1.368.653-2.681.464-3.191-.46" transform="translate(0.329 0.08)" fill="#f9f6f7"/>
        <path id="Trazado_212298" data-name="Trazado 212298" d="M91.921,95.857a19.825,19.825,0,0,1-7.935.39,25.532,25.532,0,0,1-.705-50.615,22.12,22.12,0,0,1,8.628.266c4.49,1.562,7.881,4.583,10.729,8.252A26.33,26.33,0,0,1,108.2,68.36a27.143,27.143,0,0,1-5.818,19.612,27.566,27.566,0,0,1-7.44,6.545,18,18,0,0,1-3.018,1.34" transform="translate(1.468 1.083)" fill="#6ce699"/>
        <path id="Trazado_212299" data-name="Trazado 212299" d="M40.223,106.521c.475.715,1.208.4,1.844.453.446.034.9.007,1.347.007.46,1.511.848,1.8,2.456,1.8,7.752,0,15.5.016,23.257-.02.89,0,1.207.208,1.116,1.117a16.8,16.8,0,0,0-.008,2.518c.045.866-.265,1.316-1.181,1.231-.189-.017-.381,0-.572,0H5.241c-1.722,0-1.723,0-1.723-1.715V27.818c0-1.84-.436-2.356-2.064-2.454.481-1.027.133-2.114.23-3.17,1.484-.36,1.83-.781,1.833-2.277.005-2.4.031-4.809-.013-7.213-.016-.954.358-1.293,1.286-1.272,1.716.04,3.435.031,5.152,0,.547-.01.77.157.713.71a8.8,8.8,0,0,0-.005.915v90.572c0,3.623,1.524,5.154,5.129,5.154q11.107,0,22.214,0c1.707,0,2.248-.561,2.23-2.261" transform="translate(0.035 0.273)" fill="#e6e1e5"/>
        <path id="Trazado_212300" data-name="Trazado 212300" d="M91.21,95.844a41.556,41.556,0,0,0,6.228-3.984,26.537,26.537,0,0,0,9.327-15.672,26.807,26.807,0,0,0-5.138-21.978,25.78,25.78,0,0,0-8.845-7.439c-.537-.279-1.057-.591-1.584-.887a23.431,23.431,0,0,1,11.134,5.131,2.033,2.033,0,0,0,2.858.175l2.116,2.3a2.109,2.109,0,0,0,0,2.888A25.53,25.53,0,0,1,93.1,95.486a5.145,5.145,0,0,1-1.892.357" transform="translate(2.179 1.096)" fill="#00d7a1"/>
        <path id="Trazado_212301" data-name="Trazado 212301" d="M75.768,45l0-40.276A2.171,2.171,0,0,0,75.546,3.4c.839-.012,1.678-.016,2.517-.04.675-.018.989.3.971.966-.006.229,0,.459,0,.688q0,18.906.015,37.811c0,.792-.122,1.26-1.016,1.419a15.339,15.339,0,0,0-2.266.76" transform="translate(1.805 0.08)" fill="#efedef"/>
        <path id="Trazado_212302" data-name="Trazado 212302" d="M43.985,103.294c.4-.33.882-.178,1.324-.179q14.765-.014,29.531-.009c1.9,0,1.718.2,1.668-1.738-.042-1.626.283-3.271-.21-4.878.972.317,1.939.649,2.917.947a.713.713,0,0,1,.583.818q-.045,2,0,4.005c.015.806-.379,1.082-1.127,1.059s-1.527,0-2.289,0l-32.392-.024" transform="translate(1.051 2.305)" fill="#efedef"/>
        <path id="Trazado_212303" data-name="Trazado 212303" d="M46.968,21.165q-8.874,0-17.749,0c-2.93,0-4.493-1.587-4.5-4.54,0-1.68-.012-3.359,0-5.039a3.993,3.993,0,0,1,4.148-4.2q18.034-.017,36.07,0a4.007,4.007,0,0,1,4.172,4.081q.091,2.8,0,5.61a4.015,4.015,0,0,1-4.28,4.085q-8.934.018-17.864,0" transform="translate(0.59 0.176)"/>
        <path id="Trazado_212304" data-name="Trazado 212304" d="M47,37.418q-12.2,0-24.4,0a5.283,5.283,0,0,1-1.249-.086,1.579,1.579,0,0,1-1.327-1.846,1.56,1.56,0,0,1,1.588-1.493c.3-.024.61-.009.915-.009q24.51,0,49.022,0a8.4,8.4,0,0,1,1.029.025,1.576,1.576,0,0,1,1.456,1.519,1.612,1.612,0,0,1-1.062,1.721,3.528,3.528,0,0,1-1.465.172H47" transform="translate(0.478 0.812)"/>
        <path id="Trazado_212305" data-name="Trazado 212305" d="M47.081,29.384q-12.314,0-24.628,0a3.083,3.083,0,0,1-1.46-.185,1.622,1.622,0,0,1-.967-1.773,1.577,1.577,0,0,1,1.4-1.447,6.532,6.532,0,0,1,1.143-.031q24.457,0,48.911,0c1.756,0,2.589.55,2.587,1.7s-.857,1.734-2.585,1.734h-24.4" transform="translate(0.478 0.62)"/>
        <path id="Trazado_212306" data-name="Trazado 212306" d="M46.962,41.981H70.9c.229,0,.459,0,.687,0,1.636.008,2.476.59,2.477,1.713s-.847,1.724-2.473,1.724q-24.567,0-49.133,0A4.631,4.631,0,0,1,21.21,45.3a1.543,1.543,0,0,1-1.193-1.719,1.517,1.517,0,0,1,1.3-1.521,6.9,6.9,0,0,1,1.367-.079q12.141-.006,24.281,0" transform="translate(0.478 1.003)" fill="#010101"/>
        <path id="Trazado_212307" data-name="Trazado 212307" d="M74.242,65.276a5.357,5.357,0,0,1,4,1.67c1.168,1.155,2.362,2.285,3.472,3.494.6.649.946.671,1.591.014Q89.333,64.331,95.448,58.3a5.5,5.5,0,0,1,9.2,2.1,5.107,5.107,0,0,1-1.184,5.518Q94.89,74.6,86.207,83.168a5.323,5.323,0,0,1-7.383.011q-4.426-4.237-8.667-8.665a5.208,5.208,0,0,1-.988-5.956,5.406,5.406,0,0,1,5.073-3.282" transform="translate(1.64 1.352)"/>
        <path id="Trazado_212308" data-name="Trazado 212308" d="M62.871,17.6c-2.4.016-4.806.046-7.21.047-8.7.006-17.4-.016-26.106.026-1.134.006-1.585-.276-1.5-1.467a32.147,32.147,0,0,0,0-4.119c-.062-1.065.311-1.37,1.368-1.366,9.543.036,19.084.019,28.626.023,1.565,0,3.128.024,4.692.036a1.1,1.1,0,0,1,.507.956c.06,1.69.065,3.383,0,5.073a1.025,1.025,0,0,1-.377.791" transform="translate(0.67 0.256)" fill="#6ce699"/>
        <path id="Trazado_212309" data-name="Trazado 212309" d="M62.061,17.6a47.7,47.7,0,0,0-.128-6.821c3.389-.1,2.823-.28,2.871,2.667.016.99-.036,1.982.013,2.97.048.947-.334,1.338-1.275,1.24-.49-.052-.988-.04-1.482-.056" transform="translate(1.48 0.256)" fill="#00d6a0"/>
        <path id="Trazado_212310" data-name="Trazado 212310" d="M101.44,62.108a2.462,2.462,0,0,1-.758,1.615q-8.3,8.29-16.6,16.586a2.081,2.081,0,0,1-3.306,0q-3.987-3.944-7.933-7.93a2.105,2.105,0,0,1-.176-3.146,2.144,2.144,0,0,1,3.147.164c1.715,1.683,3.4,3.4,5.106,5.091,1.1,1.086,1.924,1.081,3.034-.026q6.685-6.669,13.361-13.347a4.942,4.942,0,0,1,1.041-.877,2.1,2.1,0,0,1,3.081,1.872" transform="translate(1.721 1.433)" fill="#f9f6f7"/>
      </g>
    </g>
  </g>
</svg>
