<svg xmlns="http://www.w3.org/2000/svg" xmlns:xlink="http://www.w3.org/1999/xlink" width="808" height="216" viewBox="0 0 808 216">
  <defs>
    <clipPath id="clip-path">
      <rect id="Rectángulo_338866" data-name="Rectángulo 338866" width="596.935" height="209.712" fill="none"/>
    </clipPath>
    <clipPath id="clip-path-2">
      <path id="Trazado_211556" data-name="Trazado 211556" d="M325.032,60.142s2.649-4.9-2.48-6.956c0,0-2.287,6.956,2.48,6.956" transform="translate(-322.005 -53.186)" fill="none"/>
    </clipPath>
    <clipPath id="clip-path-3">
      <path id="Trazado_211558" data-name="Trazado 211558" d="M150.555,85.882c5.783,3.956,7.262-2.559,7.262-2.559a6.58,6.58,0,0,0-2.358-.467,5.9,5.9,0,0,0-4.9,3.027" transform="translate(-150.555 -82.855)" fill="none"/>
    </clipPath>
    <clipPath id="clip-path-4">
      <path id="Trazado_211560" data-name="Trazado 211560" d="M132.449,83.322s1.48,6.516,7.263,2.559a5.9,5.9,0,0,0-4.9-3.027,6.583,6.583,0,0,0-2.359.467" transform="translate(-132.449 -82.855)" fill="none"/>
    </clipPath>
    <clipPath id="clip-path-5">
      <path id="Trazado_211562" data-name="Trazado 211562" d="M473.47,107.8c4.815,4.4,8.094-2.569,8.094-2.569a6.553,6.553,0,0,0-3.8-1.535c-3.223,0-4.3,4.1-4.3,4.1" transform="translate(-473.47 -103.693)" fill="none"/>
    </clipPath>
    <clipPath id="clip-path-6">
      <path id="Trazado_211564" data-name="Trazado 211564" d="M618.368,108.05s5.391-2.169,1.791-7.38c0,0-5.672,2.472-1.791,7.38" transform="translate(-617.01 -100.67)" fill="none"/>
    </clipPath>
  </defs>
  <g id="Grupo_983900" data-name="Grupo 983900" transform="translate(-600 -841)">
    <rect id="Rectángulo_338856" data-name="Rectángulo 338856" width="470" height="153" rx="10" transform="translate(938 904)" fill="#6b8dfc"/>
    <rect id="Rectángulo_338867" data-name="Rectángulo 338867" width="470" height="153" rx="10" transform="translate(600 862)" fill="#3c3fa7"/>
    <g id="Grupo_983899" data-name="Grupo 983899" transform="translate(706 841)">
      <g id="Grupo_983888" data-name="Grupo 983888">
        <g id="Grupo_983887" data-name="Grupo 983887" clip-path="url(#clip-path)">
          <path id="Trazado_211301" data-name="Trazado 211301" d="M52.352,299.392H189.537a1.085,1.085,0,0,0,1.085-1.085V276.215a1.085,1.085,0,0,0-1.085-1.085H52.352a1.085,1.085,0,0,0-1.085,1.085v22.092a1.085,1.085,0,0,0,1.085,1.085" transform="translate(-16.836 -90.351)" fill="#5774cd"/>
          <path id="Trazado_211302" data-name="Trazado 211302" d="M415.052,260.024V242.86a3.751,3.751,0,0,1,3.75-3.751H685.555a3.751,3.751,0,0,1,3.75,3.751v17.164a3.75,3.75,0,0,1-3.75,3.75H418.8a3.75,3.75,0,0,1-3.75-3.75" transform="translate(-136.301 -78.522)" fill="#d7e5ff"/>
          <path id="Trazado_211303" data-name="Trazado 211303" d="M29.276,190.2H182.94a1.786,1.786,0,0,0,1.786-1.786V182.58a1.786,1.786,0,0,0-1.786-1.786H29.276a1.786,1.786,0,0,0-1.786,1.786v5.836a1.786,1.786,0,0,0,1.786,1.786" transform="translate(-9.028 -59.372)" fill="#fd521b"/>
          <rect id="Rectángulo_338861" data-name="Rectángulo 338861" width="157.476" height="5.492" transform="translate(18.221 123.28)" fill="#fff"/>
          <path id="Trazado_211304" data-name="Trazado 211304" d="M51.267,298.114H185.238a1.085,1.085,0,0,0,1.085-1.085V279.936a1.085,1.085,0,0,0-1.085-1.085H51.267Z" transform="translate(-16.836 -91.573)" fill="#fff"/>
          <path id="Trazado_211305" data-name="Trazado 211305" d="M203.675,172.571H48.033a1.784,1.784,0,0,1-1.784-1.784v-13.6a1.784,1.784,0,0,1,1.784-1.784H203.675a1.784,1.784,0,0,1,1.784,1.784v13.6a1.784,1.784,0,0,1-1.784,1.784" transform="translate(-15.188 -51.033)" fill="#fea41a"/>
          <path id="Trazado_211306" data-name="Trazado 211306" d="M157.984,144.532H2.736a1.981,1.981,0,0,1-1.981-1.981V124.287a1.981,1.981,0,0,1,1.981-1.981H157.984a1.981,1.981,0,0,1,1.981,1.981v18.265a1.98,1.98,0,0,1-1.981,1.981" transform="translate(-0.248 -40.165)" fill="#d7e5ff"/>
          <path id="Trazado_211307" data-name="Trazado 211307" d="M135.715,142H9.1a1.119,1.119,0,0,1-1.12-1.12v-6.537a1.119,1.119,0,0,1,1.12-1.12H135.715a1.119,1.119,0,0,1,1.12,1.12v6.537a1.119,1.119,0,0,1-1.12,1.12" transform="translate(-2.621 -43.749)" fill="#fff"/>
          <path id="Trazado_211308" data-name="Trazado 211308" d="M674.171,13.735H647.41a.468.468,0,0,1-.457-.57L649.72.742a.468.468,0,0,1,.457-.367h26.014a.469.469,0,0,1,.463.544l-2.021,12.423a.468.468,0,0,1-.462.393" transform="translate(-212.452 -0.123)" fill="#ffb6c8"/>
          <path id="Trazado_211309" data-name="Trazado 211309" d="M632.4,119.568l21.3,5.339-6.678,5.981L632.4,129.732Z" transform="translate(-207.677 -39.266)" fill="#fea41a"/>
          <path id="Trazado_211310" data-name="Trazado 211310" d="M655.828,21.058s-3.731-2.3-3.524-6.448c.141-2.817,2.52-3.986,2.879-1s1.871,1.6,2.769,4.193a6.336,6.336,0,0,1,.161,4.3Z" transform="translate(-214.211 -3.895)" fill="#cd7c54"/>
          <path id="Trazado_211311" data-name="Trazado 211311" d="M677.294,14.622h-26.78a.468.468,0,0,1-.467-.495L650.8.817a.468.468,0,0,1,.467-.442h26.03a.468.468,0,0,1,.467.468V14.154a.468.468,0,0,1-.467.468" transform="translate(-213.472 -0.123)" fill="#d7e5ff"/>
          <path id="Trazado_211312" data-name="Trazado 211312" d="M659.874,16.157s-.2,4.989,1.639,6.989,1.586-6.425,1.586-6.425Z" transform="translate(-216.697 -5.306)" fill="#cd7c54"/>
          <path id="Trazado_211313" data-name="Trazado 211313" d="M680.845,11.643H654.1a.468.468,0,0,1-.459-.377L651.6.935a.468.468,0,0,1,.46-.559h26.011a.468.468,0,0,1,.452.347L681.3,11.054a.468.468,0,0,1-.453.589" transform="translate(-213.979 -0.123)" fill="#ffb6c8"/>
          <path id="Trazado_211314" data-name="Trazado 211314" d="M662.316,24.652l.888,47.613-10.895-.323,3.247-48.71Z" transform="translate(-214.215 -7.629)" fill="#cd7c54"/>
          <path id="Trazado_211315" data-name="Trazado 211315" d="M676.265,11.771H653.54a.25.25,0,0,1-.247-.2L651.071.3a.252.252,0,0,1,.495-.1l2.183,11.064h22.516a.252.252,0,0,1,0,.5" transform="translate(-213.807 0)"/>
          <path id="Trazado_211316" data-name="Trazado 211316" d="M658.711,86.515h-9.726L646.8,109.289l9.077,1.783Z" transform="translate(-212.405 -28.411)" fill="#5774cd"/>
          <path id="Trazado_211317" data-name="Trazado 211317" d="M649.51,113.931l-10.48-.33-1.884,9.554,12-.3Z" transform="translate(-209.235 -37.306)" fill="#cd7c54"/>
          <path id="Trazado_211318" data-name="Trazado 211318" d="M639.375,113.6l-1.178,5.973,1.038.042c-.471.332,4.342-.568,5.427-5.848Z" transform="translate(-209.581 -37.306)"/>
          <path id="Trazado_211319" data-name="Trazado 211319" d="M846.687,118.614l15.591-.091a3.109,3.109,0,0,0,3.081-3.4c-.432-4.6-1.385-12.684-2.98-16.228a15.539,15.539,0,0,0-8.135-8.119,1.519,1.519,0,0,0-1.751,2.294c1.165,1.68,3.482,5.323,3.863,8.246a41.345,41.345,0,0,1,.073,7.376,2.447,2.447,0,0,1-2.338,2.279l-6.631.291Z" transform="translate(-278.048 -29.784)" fill="#fd521b"/>
          <path id="Trazado_211320" data-name="Trazado 211320" d="M719.232,94.239l23.234-30.821a7.516,7.516,0,0,1,12.155.208L777.228,95.85l-16.55.586L749.036,78.714l-11.5,16.7Z" transform="translate(-236.192 -19.844)" fill="#fff"/>
          <path id="Trazado_211321" data-name="Trazado 211321" d="M760.556,96.565a.25.25,0,0,1-.21-.114L748.908,79.043,737.623,95.431a.238.238,0,0,1-.224.108l-18.307-1.172a.252.252,0,0,1-.185-.4l23.233-30.821a7.768,7.768,0,0,1,12.563.214l22.607,32.224a.252.252,0,0,1-.2.4l-16.549.586ZM748.913,78.34h0a.251.251,0,0,1,.208.114l11.565,17.6,15.944-.564-22.34-31.844a7.265,7.265,0,0,0-11.748-.2L719.591,93.895l17.7,1.132,11.416-16.579a.253.253,0,0,1,.208-.109" transform="translate(-236.069 -19.721)"/>
          <path id="Trazado_211322" data-name="Trazado 211322" d="M806.312,112.177l-.776,12.2-88.045.731-.555-16.744Z" transform="translate(-235.438 -35.585)" fill="#fff"/>
          <path id="Trazado_211323" data-name="Trazado 211323" d="M717.369,125.231a.252.252,0,0,1-.252-.244l-.555-16.744a.253.253,0,0,1,.075-.187.226.226,0,0,1,.187-.073L806.2,111.8a.25.25,0,0,1,.24.267l-.776,12.2a.252.252,0,0,1-.249.236l-88.044.731Zm-.294-16.732.537,16.227L805.176,124l.745-11.705Z" transform="translate(-235.315 -35.46)"/>
          <path id="Trazado_211324" data-name="Trazado 211324" d="M673.051,104.457l31.528.568-4.377,15.4-30.717-2.512Z" transform="translate(-219.855 -34.303)" fill="#5774cd"/>
          <path id="Trazado_211325" data-name="Trazado 211325" d="M668.1,25.346l.888,47.613-10.895-.323,3.147-47.209Z" transform="translate(-216.113 -8.324)" fill="#cd7c54"/>
          <path id="Trazado_211326" data-name="Trazado 211326" d="M763.191,85.5a.252.252,0,0,1-.2-.407l4.174-5.345a.252.252,0,0,1,.4.31L763.39,85.4a.251.251,0,0,1-.2.1" transform="translate(-250.545 -26.157)"/>
          <path id="Trazado_211327" data-name="Trazado 211327" d="M609.193,113.42a11.628,11.628,0,1,1,15.006,5.775,11.375,11.375,0,0,1-15.006-5.775" transform="translate(-199.784 -32.098)" fill="#cd7c54"/>
          <path id="Trazado_211328" data-name="Trazado 211328" d="M623.555,92.618l.034,4.195,3.429.134Z" transform="translate(-204.772 -30.415)" fill="#cd7c54"/>
          <path id="Trazado_211329" data-name="Trazado 211329" d="M631.727,103.8a.321.321,0,0,1-.227-.548c1.172-1.172.25-3.038.24-3.057a.321.321,0,0,1,.572-.291c.048.093,1.146,2.3-.358,3.8a.321.321,0,0,1-.227.094" transform="translate(-207.351 -32.749)"/>
          <path id="Trazado_211330" data-name="Trazado 211330" d="M620.16,100.67s-5.673,2.471-1.792,7.38c0,0,5.392-2.169,1.792-7.38" transform="translate(-202.623 -33.06)" fill="#fff"/>
          <path id="Trazado_211331" data-name="Trazado 211331" d="M613.591,108.486a.32.32,0,0,1-.3-.2,4.509,4.509,0,0,1,.138-4.142.321.321,0,0,1,.528.365,3.9,3.9,0,0,0-.07,3.543.321.321,0,0,1-.181.416.328.328,0,0,1-.117.022" transform="translate(-201.267 -34.154)"/>
          <path id="Trazado_211332" data-name="Trazado 211332" d="M663.07,9.837h-6.353a.705.705,0,0,1-.688-.543l-1.617-6.8a.709.709,0,0,1,.689-.872h6.353a.705.705,0,0,1,.688.544l1.617,6.8a.709.709,0,0,1-.69.871M655.1,2.125a.2.2,0,0,0-.16.077.2.2,0,0,0-.039.175l1.616,6.8a.2.2,0,0,0,.2.157h6.353a.2.2,0,0,0,.161-.077.2.2,0,0,0,.038-.173l-1.616-6.8a.2.2,0,0,0-.2-.157Z" transform="translate(-214.9 -0.532)" fill="#fff"/>
          <path id="Trazado_211333" data-name="Trazado 211333" d="M621.211,119.619s3.7-3.837,10.423,1.116c5.143,3.79,9.86,6.466,12.486,6.434,5.778-.07,7.583,1.169,7.583,1.169s-17.447.163-21.726.163-23.7-.168-23.7-.168c.47-3.419,3.987-3.64,2.409-6.442-1.986-3.527-.848-9.593-.848-9.593Z" transform="translate(-199.099 -36.878)" fill="#fea41a"/>
          <path id="Trazado_211334" data-name="Trazado 211334" d="M671.315,9.6a.252.252,0,0,1-.245-.193l-1.614-6.789a.252.252,0,0,1,.491-.117l1.613,6.789a.251.251,0,0,1-.245.31" transform="translate(-219.844 -0.758)" fill="#fff"/>
          <path id="Trazado_211335" data-name="Trazado 211335" d="M674.155,9.6a.252.252,0,0,1-.245-.193L672.3,2.619a.252.252,0,0,1,.491-.116l1.612,6.79a.251.251,0,0,1-.245.31" transform="translate(-220.777 -0.758)" fill="#fff"/>
          <path id="Trazado_211336" data-name="Trazado 211336" d="M668.91,20.33a64.089,64.089,0,0,0,1.263-6.828c.059-1.658-1.382-5.04-3.837-5.316l-4.574-.195a1.016,1.016,0,0,0-1.047,1.191c.179,1.022.915,3.712,1.017,5.18.179,2.555.322,6.531.322,6.531Z" transform="translate(-216.97 -2.624)" fill="#cd7c54"/>
          <path id="Trazado_211337" data-name="Trazado 211337" d="M664.771,12.764a.252.252,0,0,1-.25-.228c-.322-3.315-1.953-4.284-1.97-4.294a.253.253,0,0,1-.094-.343.249.249,0,0,1,.341-.1c.077.042,1.874,1.084,2.224,4.684a.251.251,0,0,1-.226.275h-.024" transform="translate(-217.537 -2.552)"/>
          <path id="Trazado_211338" data-name="Trazado 211338" d="M670.5,12.764a.252.252,0,0,1-.251-.228c-.322-3.315-1.954-4.284-1.97-4.294a.252.252,0,0,1-.094-.343.25.25,0,0,1,.341-.1c.076.042,1.875,1.084,2.224,4.684a.251.251,0,0,1-.226.275H670.5" transform="translate(-219.419 -2.552)"/>
          <path id="Trazado_211339" data-name="Trazado 211339" d="M667.894,12.764a.252.252,0,0,1-.25-.228c-.322-3.315-1.954-4.284-1.971-4.294a.252.252,0,0,1,.247-.439c.076.042,1.875,1.084,2.224,4.684a.252.252,0,0,1-.226.275h-.024" transform="translate(-218.562 -2.552)"/>
          <path id="Trazado_211340" data-name="Trazado 211340" d="M619.766,118s-.179-2.326-3.626-2.326c0,0-1.992-8.445-6.125-7.746a6.385,6.385,0,0,0-.377-.6,11.286,11.286,0,0,0-1.106,3.312v.006l0,.019a10.694,10.694,0,0,0,.67,5.9,11.376,11.376,0,0,0,15.006,5.775A11.982,11.982,0,0,0,628.4,119.4Z" transform="translate(-199.789 -35.246)" fill="#fea41a"/>
          <path id="Trazado_211341" data-name="Trazado 211341" d="M668.887,107.781l1.655-17.34-15.464-.859L653,112.077a6.806,6.806,0,0,0,6.559,7.195l39.147-.333.454-18.8Z" transform="translate(-214.432 -29.418)" fill="#5774cd"/>
          <path id="Trazado_211342" data-name="Trazado 211342" d="M622.7,125.056a3.661,3.661,0,0,1-4.681-2.747,4.34,4.34,0,0,1,3.322-4.783,3.661,3.661,0,0,1,4.681,2.747,4.34,4.34,0,0,1-3.322,4.783" transform="translate(-202.935 -38.55)" fill="#cd7c54"/>
          <path id="Trazado_211343" data-name="Trazado 211343" d="M620.211,123.5a.428.428,0,0,1-.281-.75l3.54-3.091a.428.428,0,1,1,.563.645l-3.54,3.091a.427.427,0,0,1-.281.105" transform="translate(-203.534 -39.259)"/>
          <path id="Trazado_211344" data-name="Trazado 211344" d="M625.522,123.841a.427.427,0,0,1-.342-.17l-1.509-2a.428.428,0,0,1,.684-.516l1.509,2a.428.428,0,0,1-.342.686" transform="translate(-204.782 -39.732)"/>
          <path id="Trazado_211345" data-name="Trazado 211345" d="M606.405,109.77s-1.271-5.654-4.832-5.56c0,0,3.174-1.817,4.832,1.131s0,4.429,0,4.429" transform="translate(-197.554 -34.04)" fill="#fea41a"/>
          <path id="Trazado_211346" data-name="Trazado 211346" d="M653.5,85h-.023a.252.252,0,0,1-.228-.275l1.692-18.279a.242.242,0,0,1,.261-.228l1.42.062,2.764-42.5c-.383-.254-1.337-1.108-1.936-3.572a.252.252,0,1,1,.489-.119c.678,2.785,1.8,3.315,1.809,3.32a.257.257,0,0,1,.151.248l-2.789,42.9a.233.233,0,0,1-.263.235l-1.426-.063-1.67,18.041A.252.252,0,0,1,653.5,85" transform="translate(-214.523 -6.532)"/>
          <path id="Trazado_211347" data-name="Trazado 211347" d="M716.619,300.295H460.351a3.75,3.75,0,0,1-3.75-3.75V279.586a3.751,3.751,0,0,1,3.75-3.751H716.619a3.751,3.751,0,0,1,3.75,3.751v16.959a3.75,3.75,0,0,1-3.75,3.75" transform="translate(-149.945 -90.583)" fill="#fd521b"/>
          <path id="Trazado_211348" data-name="Trazado 211348" d="M796.962,299.007H693.075a3.243,3.243,0,0,1-3.243-3.243V282.83a3.243,3.243,0,0,1,3.243-3.243H796.962Z" transform="translate(-226.537 -91.815)" fill="#fff"/>
          <path id="Trazado_211349" data-name="Trazado 211349" d="M609.006,225.114V211.662a3.75,3.75,0,0,1,3.75-3.75H793.179a3.75,3.75,0,0,1,3.75,3.75v13.452a3.75,3.75,0,0,1-3.75,3.75H612.756a3.75,3.75,0,0,1-3.75-3.75" transform="translate(-199.994 -68.277)" fill="#fea41a"/>
          <path id="Trazado_211350" data-name="Trazado 211350" d="M222.334,186.78H148.6a.336.336,0,1,1,0-.672h73.732a.336.336,0,1,1,0,.672" transform="translate(-48.69 -61.117)" fill="#d7e5ff"/>
          <path id="Trazado_211351" data-name="Trazado 211351" d="M149.63,189.159h-79.9a.336.336,0,1,1,0-.672h79.9a.336.336,0,1,1,0,.672" transform="translate(-22.79 -61.898)" fill="#d7e5ff"/>
          <path id="Trazado_211352" data-name="Trazado 211352" d="M569.532,193.384V178.842a3.751,3.751,0,0,1,3.75-3.751H753.7a3.751,3.751,0,0,1,3.75,3.751v14.542a3.75,3.75,0,0,1-3.75,3.75H573.282a3.75,3.75,0,0,1-3.75-3.75" transform="translate(-187.031 -57.499)" fill="#5774cd"/>
          <path id="Trazado_211353" data-name="Trazado 211353" d="M784.116,262.435H707.475a3.717,3.717,0,0,1-3.717-3.717V246.732a3.717,3.717,0,0,1,3.717-3.717h76.641Z" transform="translate(-231.111 -79.805)" fill="#fff"/>
          <path id="Trazado_211354" data-name="Trazado 211354" d="M565.283,231.615l21.369,1.927a1.638,1.638,0,0,1-.156,3.269H565.534s-1.707-5.336-.251-5.2" transform="translate(-185.443 -76.06)" fill="#f5c1ae"/>
          <path id="Trazado_211355" data-name="Trazado 211355" d="M438.426,121.125,426.4,125.47a.42.42,0,0,1-.563-.4V103.451a.42.42,0,0,1,.277-.395l12.028-4.345a.42.42,0,0,1,.563.4V120.73a.42.42,0,0,1-.277.395" transform="translate(-139.842 -32.408)" fill="#fd521b"/>
          <path id="Trazado_211356" data-name="Trazado 211356" d="M437.872,122.235l-11.5,3.2a.42.42,0,0,1-.533-.4V104.244a.42.42,0,0,1,.282-.4l11.5-4.02a.42.42,0,0,1,.559.4v21.6a.42.42,0,0,1-.308.4" transform="translate(-139.842 -32.775)" fill="#d7e5ff"/>
          <path id="Trazado_211357" data-name="Trazado 211357" d="M440.22,126.625l-13.944.7a.421.421,0,0,1-.441-.42v-21.15a.42.42,0,0,1,.384-.418l13.944-1.2a.42.42,0,0,1,.456.418v21.659a.42.42,0,0,1-.4.42" transform="translate(-139.842 -34.195)" fill="#d7e5ff"/>
          <path id="Trazado_211358" data-name="Trazado 211358" d="M441.062,131.06,426.171,128a.42.42,0,0,1-.335-.412V105.928a.42.42,0,0,1,.5-.411l14.891,3.062a.419.419,0,0,1,.335.411v21.659a.42.42,0,0,1-.5.412" transform="translate(-139.842 -34.648)" fill="#fd521b"/>
          <path id="Trazado_211359" data-name="Trazado 211359" d="M423.053,137.462c-.713-3.608-1.38-5.8.242-9.053,2.228-4.465,4.478-9.367,5.086-12.191a1.305,1.305,0,0,1,1.495-.987,1.258,1.258,0,0,1,1.082,1.339c-.2,2.189-.856,6.985-2.969,9.939-2.807,3.922-1.306,9.924-1.306,9.924s-3.447,1.955-3.629,1.03" transform="translate(-138.678 -37.836)" fill="#f5c1ae"/>
          <path id="Trazado_211360" data-name="Trazado 211360" d="M425.792,136.769a8.839,8.839,0,0,1,.242-9.053,49.356,49.356,0,0,0,5.086-12.191,1.305,1.305,0,0,1,1.495-.987,1.258,1.258,0,0,1,1.082,1.339c-.2,2.189-.856,6.985-2.969,9.939-2.807,3.922-1.306,9.924-1.306,9.924Z" transform="translate(-139.462 -37.608)" fill="#f5c1ae"/>
          <path id="Trazado_211361" data-name="Trazado 211361" d="M428.6,139.184a7.853,7.853,0,0,1,.215-8.043,43.848,43.848,0,0,0,4.519-10.831,1.16,1.16,0,0,1,1.328-.878,1.117,1.117,0,0,1,.961,1.189,20.424,20.424,0,0,1-3.03,8.679c-2.494,3.485-.769,8.969-.769,8.969Z" transform="translate(-140.423 -39.216)" fill="#f5c1ae"/>
          <path id="Trazado_211362" data-name="Trazado 211362" d="M426.245,142.876a7.854,7.854,0,0,1,1.706-7.864,43.851,43.851,0,0,0,6.452-9.8,1.16,1.16,0,0,1,1.468-.615,1.117,1.117,0,0,1,.723,1.347,15.882,15.882,0,0,1-4.324,7.094,60.234,60.234,0,0,0-1.467,6.03Z" transform="translate(-139.842 -40.893)" fill="#f5c1ae"/>
          <path id="Trazado_211363" data-name="Trazado 211363" d="M549.879,226.388l1.737,8.056h15.921a1.678,1.678,0,0,0,.134-3.351l-8.284-.662-5.628-6.028Z" transform="translate(-180.577 -73.693)" fill="#f5c1ae"/>
          <path id="Trazado_211364" data-name="Trazado 211364" d="M422.82,144.433l.518,2.588,6.475-2.1.55-2.572Z" transform="translate(-138.852 -46.746)"/>
          <path id="Trazado_211365" data-name="Trazado 211365" d="M557.989,224.407l1.533,2.795a4.419,4.419,0,0,0,3.452,2.273L578.886,231a1.638,1.638,0,0,1-.157,3.269H557.768l-4.541-10.393Z" transform="translate(-181.677 -73.52)" fill="#f5c1ae"/>
          <path id="Trazado_211366" data-name="Trazado 211366" d="M497.32,115.333l7.152,8.229-6.421,5.883-7.613-9.535Z" transform="translate(-161.057 -37.875)" fill="#f5c1ae"/>
          <path id="Trazado_211367" data-name="Trazado 211367" d="M490.438,120.094l3.665,4.59,3.686-8.49-1.04-.3Z" transform="translate(-161.057 -38.06)"/>
          <path id="Trazado_211368" data-name="Trazado 211368" d="M558.173,226.792l-7.678,2.328-.616-2.86,6.789-2.244Z" transform="translate(-180.578 -73.565)"/>
          <path id="Trazado_211369" data-name="Trazado 211369" d="M498.63,211.931s-.626,11.535-26.476,9.7-33.13-16.517-33.13-16.517L459.5,185.988l33.13,9.37Z" transform="translate(-144.173 -61.078)" fill="#5774cd"/>
          <path id="Trazado_211370" data-name="Trazado 211370" d="M480.444,122.04l8.353-5.972a9.091,9.091,0,0,1,14.188,5.539l13.847,66.418-11.875,3.554-7.006-28.91s-.815,16.391-6.012,27.207l-13.1-12.718-29.672-3.236-9.889,2.024a9.213,9.213,0,0,1-10.636-6.259l-9.993-31.754,11.405-3.856,9.075,24,14.087-24.722a8.744,8.744,0,0,1,5.433-4.241l18.032-4.752Z" transform="translate(-137.481 -37.557)" fill="#fea41a"/>
          <path id="Trazado_211371" data-name="Trazado 211371" d="M468.713,111.758l-3.554-2.956,4.117.387Z" transform="translate(-152.756 -35.73)" fill="#f5c1ae"/>
          <path id="Trazado_211372" data-name="Trazado 211372" d="M470.8,97.621c3.058-6.195,10.124-9.047,15.784-6.37s7.769,9.869,4.711,16.064-10.125,9.047-15.785,6.37-7.768-9.869-4.711-16.064" transform="translate(-154.149 -29.636)" fill="#f5c1ae"/>
          <path id="Trazado_211373" data-name="Trazado 211373" d="M507.932,123.861l-1.815,1.3-3.766,2.326-5.527,1.456c.578,2.1,2.418,5.627,8.1,2.59,3.448-1.843,3.237-6.028,3.006-7.67" transform="translate(-163.154 -40.675)" fill="#f5c1ae"/>
          <path id="Trazado_211374" data-name="Trazado 211374" d="M534.306,175.457a.252.252,0,0,1-.246-.2l-4.932-24.125a.252.252,0,0,1,.493-.1l4.933,24.125a.252.252,0,0,1-.2.3.225.225,0,0,1-.051.005" transform="translate(-173.761 -49.531)"/>
          <path id="Trazado_211375" data-name="Trazado 211375" d="M441.777,202.032l-45.839,5.285a9.955,9.955,0,0,0,1.074,19.844l49-.064Z" transform="translate(-127.129 -66.346)" fill="#5774cd"/>
          <path id="Trazado_211376" data-name="Trazado 211376" d="M484.227,223.422s12.2.829,13.178,7.294c.6,3.989-3.887,3.427-11.616,2.834s-1.562-10.128-1.562-10.128" transform="translate(-158.252 -73.371)" fill="#fff"/>
          <path id="Trazado_211377" data-name="Trazado 211377" d="M492.6,234.1c-1.584,0-3.524-.152-5.793-.329l-1.159-.089c-1.886-.144-3.143-.826-3.738-2.024-1.505-3.037,1.84-8.271,1.983-8.493a.245.245,0,0,1,.228-.114c.506.034,12.413.919,13.41,7.508a2.762,2.762,0,0,1-.548,2.429c-.783.842-2.265,1.114-4.384,1.114m-8.363-10.535c-.5.813-3.133,5.333-1.875,7.869.509,1.028,1.628,1.615,3.324,1.745l1.159.09c4.974.388,8.566.668,9.769-.625a2.3,2.3,0,0,0,.419-2.011c-.88-5.81-11.409-6.943-12.8-7.067" transform="translate(-158.129 -73.247)"/>
          <path id="Trazado_211378" data-name="Trazado 211378" d="M527.4,131.32a.236.236,0,0,1-.065-.009.252.252,0,0,1-.179-.308l3.562-13.41a.252.252,0,1,1,.487.129l-3.562,13.41a.251.251,0,0,1-.243.187" transform="translate(-173.112 -38.556)"/>
          <path id="Trazado_211379" data-name="Trazado 211379" d="M470.425,213.064l2.9,14.48a2.654,2.654,0,0,1-2.6,3.176l-29.768-.029a2.144,2.144,0,0,1-2.136-2,1.8,1.8,0,0,1,1.586-1.917c4.065-.485,14.165-1.916,16.393-4.391,2.805-3.117,1.09-8.5,1.09-8.5Z" transform="translate(-144.105 -69.969)" fill="#fff"/>
          <path id="Trazado_211380" data-name="Trazado 211380" d="M470.605,230.849h0l-29.769-.029a2.4,2.4,0,0,1-2.387-2.234,2.056,2.056,0,0,1,1.807-2.183c3.247-.388,14.015-1.843,16.235-4.31,2.674-2.971,1.054-8.2,1.037-8.257a.252.252,0,0,1,.224-.328l12.535-.818a.252.252,0,0,1,.263.2l2.905,14.48a2.906,2.906,0,0,1-2.85,3.478M458.1,213.99c.324,1.212,1.281,5.649-1.231,8.44-2.275,2.527-12.332,3.969-16.55,4.472a1.554,1.554,0,0,0-1.365,1.649,1.9,1.9,0,0,0,1.885,1.765l29.769.029h0a2.4,2.4,0,0,0,2.355-2.874L470.1,213.207Z" transform="translate(-143.982 -69.846)"/>
          <path id="Trazado_211381" data-name="Trazado 211381" d="M493.187,185.873,474.92,136.718a9.335,9.335,0,0,0-11.219-5.75,9.654,9.654,0,0,0-7.063,10.151l4.21,48.161,18.677-.819Z" transform="translate(-149.945 -42.9)" fill="#5774cd"/>
          <path id="Trazado_211382" data-name="Trazado 211382" d="M462.367,195.272a.251.251,0,0,1-.251-.23l-.888-10.16a.252.252,0,1,1,.5-.043l.867,9.919,18.142-.795-9.216-45.549a.252.252,0,0,1,.494-.1l9.274,45.837a.251.251,0,0,1-.236.3l-18.677.819Z" transform="translate(-151.465 -48.639)"/>
          <path id="Trazado_211383" data-name="Trazado 211383" d="M451.588,187.459a.254.254,0,0,1-.24-.173l-2.6-7.8a.253.253,0,0,1,.159-.318.25.25,0,0,1,.319.16l2.6,7.8a.252.252,0,0,1-.159.318.246.246,0,0,1-.08.013" transform="translate(-147.362 -58.833)"/>
          <path id="Trazado_211384" data-name="Trazado 211384" d="M405.823,215.469a.252.252,0,0,1-.02-.5l37.931-3.109a.246.246,0,0,1,.271.231.252.252,0,0,1-.23.271l-37.931,3.109h-.021" transform="translate(-133.188 -69.573)"/>
          <path id="Trazado_211385" data-name="Trazado 211385" d="M415.847,214.9a.252.252,0,0,1-.193-.089l-2.071-2.453a.252.252,0,0,1,.386-.326l2.071,2.453a.252.252,0,0,1-.193.414" transform="translate(-135.799 -69.6)"/>
          <path id="Trazado_211386" data-name="Trazado 211386" d="M473.47,107.8s1.872-7.154,8.094-2.569c0,0-3.279,6.968-8.094,2.569" transform="translate(-155.485 -34.053)" fill="#fff"/>
          <path id="Trazado_211387" data-name="Trazado 211387" d="M479.8,100.109a.355.355,0,0,1-.168-.043,6.436,6.436,0,0,0-4.688-.008.351.351,0,0,1-.209-.671c3.246-1.011,5.157.019,5.237.064a.351.351,0,0,1-.172.658" transform="translate(-155.819 -32.493)"/>
          <path id="Trazado_211388" data-name="Trazado 211388" d="M475.361,119.7a.351.351,0,0,1-.111-.684,2.408,2.408,0,0,0,1.474-1.239.351.351,0,0,1,.654.258,3.107,3.107,0,0,1-1.906,1.648.338.338,0,0,1-.111.017" transform="translate(-155.991 -38.604)"/>
          <path id="Trazado_211389" data-name="Trazado 211389" d="M488.226,91.251c-4.672-2.21-10.3-.645-13.838,3.449a1.382,1.382,0,0,0,.1.1c1.942,1.376,6.229-1.95,7.946-1.492s.028.745,1.766,5.158c1.643,4.172,9.39,3.917,10.1,3.819a11.106,11.106,0,0,0-6.073-11.032" transform="translate(-155.787 -29.637)"/>
          <path id="Trazado_211390" data-name="Trazado 211390" d="M501.952,108.7a3.348,3.348,0,0,0-2.512-4.281,3.97,3.97,0,0,0-4.374,3.038,3.348,3.348,0,0,0,2.512,4.281,3.969,3.969,0,0,0,4.373-3.038" transform="translate(-162.536 -34.272)" fill="#f5c1ae"/>
          <path id="Trazado_211391" data-name="Trazado 211391" d="M497.271,110.088a.468.468,0,0,1-.353-.776l2.826-3.238a.468.468,0,0,1,.706.616l-2.826,3.238a.468.468,0,0,1-.353.161" transform="translate(-163.147 -34.782)"/>
          <path id="Trazado_211392" data-name="Trazado 211392" d="M500.412,111.707a.465.465,0,0,1-.282-.094l-1.827-1.379a.469.469,0,1,1,.564-.748l1.827,1.38a.468.468,0,0,1-.283.842" transform="translate(-163.579 -35.923)"/>
          <path id="Trazado_211393" data-name="Trazado 211393" d="M510.907,213.153a.252.252,0,0,1-.238-.171l-1.1-3.216a.252.252,0,1,1,.477-.163l1.1,3.216a.251.251,0,0,1-.157.319.247.247,0,0,1-.081.014" transform="translate(-167.337 -68.777)"/>
          <path id="Trazado_211394" data-name="Trazado 211394" d="M545.456,221.234a.252.252,0,0,1-.07-.494l11.951-3.5a.252.252,0,1,1,.142.484l-11.951,3.5a.256.256,0,0,1-.071.01" transform="translate(-179.042 -71.338)"/>
          <path id="Trazado_211395" data-name="Trazado 211395" d="M568.3,237.476H552.382a.168.168,0,1,1,0-.336H568.3a1.51,1.51,0,0,0,.12-3.016l-8.284-.662a.166.166,0,0,1-.154-.18.165.165,0,0,1,.181-.154l8.284.662a1.846,1.846,0,0,1-.147,3.686" transform="translate(-181.344 -76.558)"/>
          <path id="Trazado_211396" data-name="Trazado 211396" d="M580.867,237.093H559.906a.168.168,0,1,1,0-.336h20.961a1.47,1.47,0,0,0,.14-2.934L565.1,232.295a.168.168,0,0,1,.032-.334l15.912,1.529a1.806,1.806,0,0,1-.173,3.6" transform="translate(-183.815 -76.174)"/>
          <path id="Trazado_211397" data-name="Trazado 211397" d="M433.526,131.063a.168.168,0,0,1-.136-.267,29.709,29.709,0,0,0,3.588-6.421.168.168,0,1,1,.31.131,30.506,30.506,0,0,1-3.627,6.488.168.168,0,0,1-.136.069" transform="translate(-142.313 -40.811)"/>
          <path id="Trazado_211398" data-name="Trazado 211398" d="M431.314,128.147a.168.168,0,0,1-.149-.245,44.13,44.13,0,0,0,3.263-7.884,1.326,1.326,0,0,1,1.549-.96.168.168,0,0,1-.062.33.993.993,0,0,0-1.161.711,44.476,44.476,0,0,1-3.291,7.958.167.167,0,0,1-.149.091" transform="translate(-141.586 -39.09)"/>
          <path id="Trazado_211399" data-name="Trazado 211399" d="M428.666,125.6a.175.175,0,0,1-.081-.02.169.169,0,0,1-.067-.228c.009-.016.9-1.666,1.772-3.614a59.123,59.123,0,0,0,2.025-6.278.168.168,0,0,1,.325.087,59.74,59.74,0,0,1-2.043,6.329c-.874,1.96-1.775,3.621-1.784,3.637a.169.169,0,0,1-.148.087" transform="translate(-140.716 -37.874)"/>
          <path id="Trazado_211400" data-name="Trazado 211400" d="M156.767,215.969H20.525a1.886,1.886,0,0,1-1.886-1.887V196.688a1.886,1.886,0,0,1,1.886-1.886H156.767a1.886,1.886,0,0,1,1.887,1.886v17.395a1.886,1.886,0,0,1-1.887,1.887" transform="translate(-6.121 -63.972)" fill="#5774cd"/>
          <path id="Trazado_211401" data-name="Trazado 211401" d="M58.423,213.912H18.639V199.094H58.423a.817.817,0,0,1,.817.817v13.184a.816.816,0,0,1-.817.817" transform="translate(-6.121 -65.381)" fill="#fff"/>
          <path id="Trazado_211402" data-name="Trazado 211402" d="M171.04,213.088H92.56a1.269,1.269,0,0,1-1.267-1.267v-9.056A1.269,1.269,0,0,1,92.56,201.5h78.48a1.269,1.269,0,0,1,1.267,1.267v9.056a1.269,1.269,0,0,1-1.267,1.267" transform="translate(-29.98 -66.171)" fill="#d7e5ff"/>
          <rect id="Rectángulo_338862" data-name="Rectángulo 338862" width="78.327" height="8.904" transform="translate(62.656 136.67)" fill="#d7e5ff"/>
          <path id="Trazado_211403" data-name="Trazado 211403" d="M111.793,163.207l.557,9.515c.268,4.574,3.657,8.119,7.729,8.085l26.953-.229c3.92-.034,7.19-3.382,7.589-7.772l1.372-15.1-32.042-5.041L111.124,159.1Z" transform="translate(-36.493 -50.136)" fill="#ffb6c8"/>
          <path id="Trazado_211404" data-name="Trazado 211404" d="M106.773,119.882l47.9-2.97.485,38.512H108.573Z" transform="translate(-35.064 -38.393)" fill="#fd521b"/>
          <rect id="Rectángulo_338863" data-name="Rectángulo 338863" width="6.944" height="12.73" transform="translate(101.607 130.678)" fill="#fff"/>
          <path id="Trazado_211405" data-name="Trazado 211405" d="M158.11,207.433h-6.943a.252.252,0,0,1-.252-.252v-12.73a.252.252,0,0,1,.252-.252h6.943a.252.252,0,0,1,.252.252v12.73a.252.252,0,0,1-.252.252m-6.691-.5h6.439V194.7h-6.439Z" transform="translate(-49.56 -63.774)"/>
          <rect id="Rectángulo_338864" data-name="Rectángulo 338864" width="6.944" height="12.73" transform="translate(86.331 130.678)" fill="#fff"/>
          <path id="Trazado_211406" data-name="Trazado 211406" d="M135.366,207.433h-6.943a.252.252,0,0,1-.252-.252v-12.73a.252.252,0,0,1,.252-.252h6.943a.252.252,0,0,1,.252.252v12.73a.252.252,0,0,1-.252.252m-6.691-.5h6.439V194.7h-6.439Z" transform="translate(-42.091 -63.774)"/>
          <path id="Trazado_211407" data-name="Trazado 211407" d="M125.045,97.47,113.7,92.03a7.207,7.207,0,0,0-10.247,5.156L96.81,136.133a6.66,6.66,0,0,0,4.306,7.343,6.869,6.869,0,0,0,8.826-3.926l9.093-24.055,14.7,2.2-2.028-21.495Z" transform="translate(-31.761 -29.985)" fill="#fd521b"/>
          <path id="Trazado_211408" data-name="Trazado 211408" d="M149.825,97.489l11.247-5.394a7.287,7.287,0,0,1,10.362,5.214l6.625,38.844a6.66,6.66,0,0,1-4.306,7.343,6.869,6.869,0,0,1-8.826-3.926l-9.093-24.055-14.7,2.2,2.028-21.495Z" transform="translate(-46.349 -30.004)" fill="#fd521b"/>
          <path id="Trazado_211409" data-name="Trazado 211409" d="M128.734,83.247l1.14,15.131,6.014,2.66L132.913,84.7Z" transform="translate(-42.276 -27.338)" fill="#5774cd"/>
          <path id="Trazado_211410" data-name="Trazado 211410" d="M100.31,142.6a.262.262,0,0,1-.084-.014.253.253,0,0,1-.154-.322l8.166-23.032a.252.252,0,0,1,.327-.151l6.195,2.365a.252.252,0,0,1-.18.471l-5.954-2.273-8.079,22.789a.253.253,0,0,1-.238.168" transform="translate(-32.858 -39.101)"/>
          <path id="Trazado_211411" data-name="Trazado 211411" d="M185.017,145.217a.252.252,0,0,1-.24-.175l-7.451-23.24-4.541,2.271a.252.252,0,1,1-.225-.451l4.8-2.4a.258.258,0,0,1,.21-.007.251.251,0,0,1,.142.156l7.541,23.52a.252.252,0,0,1-.24.328" transform="translate(-56.622 -39.799)"/>
          <path id="Trazado_211412" data-name="Trazado 211412" d="M161.462,80.678l2.184,15.765-6.715,8.17.8-17.382Z" transform="translate(-51.535 -26.494)" fill="#5774cd"/>
          <path id="Trazado_211413" data-name="Trazado 211413" d="M164.337,129.6l-16.277,6.87a.222.222,0,0,1-.293-.23V112.346a.246.246,0,0,1,.141-.23l16.277-6.87a.222.222,0,0,1,.293.229v23.892a.245.245,0,0,1-.141.23" transform="translate(-48.526 -34.557)" fill="#fff"/>
          <path id="Trazado_211414" data-name="Trazado 211414" d="M147.86,136.611a.455.455,0,0,1-.249-.075.5.5,0,0,1-.22-.422V112.223a.5.5,0,0,1,.295-.462l16.277-6.87a.449.449,0,0,1,.424.04.5.5,0,0,1,.22.422v23.892a.5.5,0,0,1-.295.461h0l-16.277,6.87a.453.453,0,0,1-.175.035M164.1,105.353l-16.221,6.873.013,23.889,16.207-6.866Zm.11,24.121h0Z" transform="translate(-48.402 -34.434)"/>
          <path id="Trazado_211415" data-name="Trazado 211415" d="M118.365,129.8l16.276,6.87a.222.222,0,0,0,.293-.23V112.552a.246.246,0,0,0-.141-.23l-16.277-6.87a.222.222,0,0,0-.293.23v23.892a.246.246,0,0,0,.142.23" transform="translate(-38.824 -34.625)" fill="#fff"/>
          <path id="Trazado_211416" data-name="Trazado 211416" d="M134.595,136.817a.436.436,0,0,1-.174-.036l-16.277-6.87a.494.494,0,0,1-.295-.461V105.558a.5.5,0,0,1,.22-.421.45.45,0,0,1,.424-.04l16.276,6.87a.5.5,0,0,1,.3.462V136.32a.5.5,0,0,1-.22.421.447.447,0,0,1-.249.076m-16.255-7.37h0l16.277,6.87-.056-23.889L118.3,105.561l.056,23.89Z" transform="translate(-38.701 -34.502)"/>
          <rect id="Rectángulo_338865" data-name="Rectángulo 338865" width="3.643" height="23.761" transform="translate(95.725 77.592)" fill="#fea41a"/>
          <path id="Trazado_211417" data-name="Trazado 211417" d="M146.01,139.465h-3.643a.336.336,0,0,1-.336-.336V115.368a.336.336,0,0,1,.336-.336h3.643a.335.335,0,0,1,.336.336v23.761a.335.335,0,0,1-.336.336m-3.307-.672h2.971V115.7H142.7Z" transform="translate(-46.642 -37.776)" fill="#fea41a"/>
          <path id="Trazado_211418" data-name="Trazado 211418" d="M153.519,116.523a1.008,1.008,0,0,1-.392-1.936l10.064-4.248a1.007,1.007,0,0,1,.784,1.856l-10.064,4.247a1,1,0,0,1-.392.08" transform="translate(-50.084 -36.209)" fill="#fd521b"/>
          <path id="Trazado_211419" data-name="Trazado 211419" d="M153.848,122.456a.336.336,0,0,1-.13-.645l10.064-4.249a.336.336,0,0,1,.261.619l-10.064,4.248a.33.33,0,0,1-.13.027" transform="translate(-50.413 -38.598)" fill="#fd521b"/>
          <path id="Trazado_211420" data-name="Trazado 211420" d="M153.848,125.9a.336.336,0,0,1-.13-.645L163.782,121a.336.336,0,0,1,.261.619l-10.064,4.248a.33.33,0,0,1-.13.027" transform="translate(-50.413 -39.728)" fill="#fd521b"/>
          <path id="Trazado_211421" data-name="Trazado 211421" d="M109.081,162.34a.252.252,0,0,1-.038-.5c.029,0,2.917-.475,3.781-2.512,1.222-2.881,4.657-11.869,4.692-11.959a.252.252,0,1,1,.47.179c-.034.091-3.474,9.087-4.7,11.976-.975,2.3-4.038,2.793-4.168,2.813a.257.257,0,0,1-.039,0" transform="translate(-35.739 -48.342)"/>
          <path id="Trazado_211422" data-name="Trazado 211422" d="M119.954,110.429l-4.816.452a1.474,1.474,0,0,0-1.149,1.857,1.709,1.709,0,0,0,1.814,1.523l4.737-.853a1.341,1.341,0,0,0,.9-1.733,1.511,1.511,0,0,0-1.487-1.246" transform="translate(-37.423 -36.263)" fill="#ffc5b8"/>
          <path id="Trazado_211423" data-name="Trazado 211423" d="M121.556,117.916l-5.686.927a1.515,1.515,0,0,1-1.551-1.04l-.059-.145a1.461,1.461,0,0,1,.891-2.114l5.745-.782a1.582,1.582,0,0,1,1.6,1.291,1.413,1.413,0,0,1-.944,1.863" transform="translate(-37.475 -37.684)" fill="#ffc5b8"/>
          <path id="Trazado_211424" data-name="Trazado 211424" d="M122.436,120.759h0a1.351,1.351,0,0,0-1.383-1.044l-3.817.453a1.238,1.238,0,0,0-1.007,1.383l.023.356a1.385,1.385,0,0,0,1.539,1.377l3.794-.809a1.314,1.314,0,0,0,.851-1.715" transform="translate(-38.168 -39.311)" fill="#ffc5b8"/>
          <path id="Trazado_211425" data-name="Trazado 211425" d="M122.55,124.778h0a1.145,1.145,0,0,0-1.121-.754l-3.137.445a.97.97,0,0,0-.668,1.271l.089.4a1.183,1.183,0,0,0,1.311,1.022l3.048-.844a1.076,1.076,0,0,0,.478-1.539" transform="translate(-38.616 -40.726)" fill="#ffc5b8"/>
          <path id="Trazado_211426" data-name="Trazado 211426" d="M122.634,113.372a1.162,1.162,0,0,1-1.322-.924,1.088,1.088,0,0,1,.9-1.285,1.163,1.163,0,0,1,1.322.924,1.088,1.088,0,0,1-.9,1.285" transform="translate(-39.832 -36.5)" fill="#ffb6c8"/>
          <path id="Trazado_211427" data-name="Trazado 211427" d="M123.952,117.7a1.162,1.162,0,0,1-1.322-.924,1.088,1.088,0,0,1,.9-1.285,1.163,1.163,0,0,1,1.322.924,1.088,1.088,0,0,1-.9,1.285" transform="translate(-40.265 -37.922)" fill="#ffb6c8"/>
          <path id="Trazado_211428" data-name="Trazado 211428" d="M123.276,122.2a.983.983,0,0,1-1.148-.728.919.919,0,0,1,.811-1.045.982.982,0,0,1,1.148.728.92.92,0,0,1-.811,1.045" transform="translate(-40.101 -39.543)" fill="#ffb6c8"/>
          <path id="Trazado_211429" data-name="Trazado 211429" d="M123.446,126.236a.763.763,0,0,1-.856-.621.715.715,0,0,1,.576-.854.764.764,0,0,1,.856.622.714.714,0,0,1-.576.853" transform="translate(-40.253 -40.968)" fill="#ffb6c8"/>
          <path id="Trazado_211430" data-name="Trazado 211430" d="M165.963,80.017c.384-1.936-.576-3.735-2.143-4.02s-3.15,1.053-3.534,2.989.576,3.735,2.144,4.02,3.149-1.053,3.533-2.989" transform="translate(-52.609 -24.944)" fill="#f4bd98"/>
          <path id="Trazado_211431" data-name="Trazado 211431" d="M162.719,81.627a.307.307,0,0,1-.181-.058.312.312,0,0,1-.072-.435l2.26-3.144a.312.312,0,1,1,.507.364l-2.26,3.144a.312.312,0,0,1-.254.13" transform="translate(-53.334 -25.568)"/>
          <path id="Trazado_211432" data-name="Trazado 211432" d="M165.3,83.131a.311.311,0,0,1-.2-.073l-1.526-1.273a.312.312,0,0,1,.4-.48L165.5,82.58a.312.312,0,0,1-.2.551" transform="translate(-53.68 -26.677)"/>
          <path id="Trazado_211433" data-name="Trazado 211433" d="M123.83,82.031c-.384-1.936.576-3.735,2.143-4.02s3.15,1.053,3.533,2.989-.576,3.735-2.143,4.02-3.149-1.053-3.533-2.989" transform="translate(-40.637 -25.606)" fill="#f4bd98"/>
          <path id="Trazado_211434" data-name="Trazado 211434" d="M129.073,83.4a.311.311,0,0,1-.254-.13l-2.26-3.144a.312.312,0,1,1,.507-.364l2.26,3.144a.313.313,0,0,1-.072.436.307.307,0,0,1-.181.058" transform="translate(-41.542 -26.15)"/>
          <path id="Trazado_211435" data-name="Trazado 211435" d="M126.85,84.9a.312.312,0,0,1-.2-.551l1.527-1.274a.312.312,0,0,1,.4.48l-1.526,1.273a.31.31,0,0,1-.2.073" transform="translate(-41.555 -27.257)"/>
          <path id="Trazado_211436" data-name="Trazado 211436" d="M165.852,115.9l5.236-1.085a1.634,1.634,0,0,1,1.888,1.4,1.681,1.681,0,0,1-1.353,2.011l-5.3.682a1.461,1.461,0,0,1-1.582-1.357,1.483,1.483,0,0,1,1.111-1.646" transform="translate(-54.097 -37.695)" fill="#ffc5b8"/>
          <path id="Trazado_211437" data-name="Trazado 211437" d="M166.445,123.63l6.325-.909a1.529,1.529,0,0,0,1.254-1.471l.009-.156a1.557,1.557,0,0,0-1.709-1.721l-6.335,1.065a1.561,1.561,0,0,0-1.218,1.725,1.533,1.533,0,0,0,1.674,1.467" transform="translate(-54.108 -39.196)" fill="#ffc5b8"/>
          <path id="Trazado_211438" data-name="Trazado 211438" d="M167.634,126.438h0a1.342,1.342,0,0,1,1.075-1.422l4.183-.771a1.4,1.4,0,0,1,1.566.992l.106.344a1.357,1.357,0,0,1-1.118,1.786l-4.29.427a1.421,1.421,0,0,1-1.523-1.356" transform="translate(-55.049 -40.794)" fill="#ffc5b8"/>
          <path id="Trazado_211439" data-name="Trazado 211439" d="M169.571,130.23h0a1.154,1.154,0,0,1,.9-1.065l3.466-.564a1.057,1.057,0,0,1,1.167.993l.052.4a1.177,1.177,0,0,1-1.007,1.379l-3.517.159a1.119,1.119,0,0,1-1.064-1.306" transform="translate(-55.684 -42.228)" fill="#ffc5b8"/>
          <path id="Trazado_211440" data-name="Trazado 211440" d="M166.745,119.293A1.166,1.166,0,0,0,167.8,118a1.22,1.22,0,0,0-1.419-.932,1.166,1.166,0,0,0-1.054,1.29,1.22,1.22,0,0,0,1.419.932" transform="translate(-54.288 -38.441)" fill="#ffb6c8"/>
          <path id="Trazado_211441" data-name="Trazado 211441" d="M166.938,123.8a1.166,1.166,0,0,0,1.054-1.29,1.22,1.22,0,0,0-1.419-.932,1.166,1.166,0,0,0-1.054,1.29,1.22,1.22,0,0,0,1.419.932" transform="translate(-54.351 -39.922)" fill="#ffb6c8"/>
          <path id="Trazado_211442" data-name="Trazado 211442" d="M169.4,127.835a1,1,0,0,0,.943-1.05,1.041,1.041,0,0,0-1.236-.734,1,1,0,0,0-.944,1.05,1.041,1.041,0,0,0,1.237.734" transform="translate(-55.22 -41.39)" fill="#ffb6c8"/>
          <path id="Trazado_211443" data-name="Trazado 211443" d="M170.946,131.67a.763.763,0,0,0,.675-.857.8.8,0,0,0-.918-.627.762.762,0,0,0-.675.857.8.8,0,0,0,.918.627" transform="translate(-55.833 -42.75)" fill="#ffb6c8"/>
          <path id="Trazado_211444" data-name="Trazado 211444" d="M136.395,172.834l-15.952.1.281-42.366a8.188,8.188,0,1,1,16.374.191Z" transform="translate(-39.553 -40.207)" fill="#ffb6c8"/>
          <path id="Trazado_211445" data-name="Trazado 211445" d="M160.812,171.573l-15.941.619-1.094-42.353a8.188,8.188,0,1,1,16.372-.34Z" transform="translate(-47.215 -39.88)" fill="#ffb6c8"/>
          <path id="Trazado_211446" data-name="Trazado 211446" d="M191.773,152.776a.251.251,0,0,1-.173-.068l-2.817-2.646a.252.252,0,0,1,.346-.367l2.815,2.647a.252.252,0,0,1,.011.356.254.254,0,0,1-.183.079" transform="translate(-61.97 -49.136)"/>
          <path id="Trazado_211447" data-name="Trazado 211447" d="M130.462,77.446c0-6.552,5-11.863,11.167-11.863s11.166,5.311,11.166,11.863-5,11.863-11.166,11.863S130.462,84,130.462,77.446" transform="translate(-42.843 -21.537)" fill="#f4bd98"/>
          <path id="Trazado_211448" data-name="Trazado 211448" d="M152.191,73.506a10.894,10.894,0,0,0-10.534-7.922,11.156,11.156,0,0,0-11.109,10.007c9.979-.649,12.468-7.584,12.468-7.584.766,4.831,7.549,5.514,9.175,5.5" transform="translate(-42.871 -21.537)" fill="#5774cd"/>
          <path id="Trazado_211449" data-name="Trazado 211449" d="M139.712,85.882a5.724,5.724,0,0,0-7.262-2.56s1.48,6.517,7.262,2.56" transform="translate(-43.496 -27.209)" fill="#fff"/>
          <path id="Trazado_211450" data-name="Trazado 211450" d="M150.555,85.882a5.724,5.724,0,0,1,7.262-2.56s-1.48,6.517-7.262,2.56" transform="translate(-49.442 -27.209)" fill="#fff"/>
          <path id="Trazado_211451" data-name="Trazado 211451" d="M146.272,94.8a.315.315,0,0,1-.2-.069l-1.753-1.419a.312.312,0,0,1,.392-.486l1.541,1.247,1.388-1.314a.312.312,0,1,1,.429.453l-1.586,1.5a.312.312,0,0,1-.214.085" transform="translate(-47.357 -30.432)"/>
          <path id="Trazado_211452" data-name="Trazado 211452" d="M144.974,88.5a.312.312,0,0,1-.283-.443l1.058-2.281a.312.312,0,0,1,.539-.048l1.5,2.151a.312.312,0,1,1-.512.357l-1.188-1.705-.829,1.789a.313.313,0,0,1-.283.181" transform="translate(-47.506 -28.108)"/>
          <path id="Trazado_211453" data-name="Trazado 211453" d="M134.659,80.345a.312.312,0,0,1-.126-.6,7.2,7.2,0,0,1,5.947.009.312.312,0,0,1-.289.553,6.7,6.7,0,0,0-5.406.009.312.312,0,0,1-.126.027" transform="translate(-44.119 -25.98)"/>
          <path id="Trazado_211454" data-name="Trazado 211454" d="M156.834,80.166a.31.31,0,0,1-.185-.06,4.611,4.611,0,0,0-5.171-.238.312.312,0,0,1-.344-.52,5.322,5.322,0,0,1,5.885.255.312.312,0,0,1-.185.563" transform="translate(-49.586 -25.801)"/>
          <path id="Trazado_211455" data-name="Trazado 211455" d="M144.3,172.788a.252.252,0,0,1-.252-.25l-.23-43.925a.252.252,0,0,1,.251-.253h0a.252.252,0,0,1,.252.251l.23,43.925a.252.252,0,0,1-.251.253Z" transform="translate(-47.228 -42.152)"/>
          <path id="Trazado_211456" data-name="Trazado 211456" d="M120.32,186.881a.252.252,0,0,1-.252-.252v-12.5a.252.252,0,1,1,.5,0v12.5a.252.252,0,0,1-.252.252" transform="translate(-39.43 -57.102)"/>
          <path id="Trazado_211457" data-name="Trazado 211457" d="M168.832,186.45a.252.252,0,0,1-.252-.246l-.259-12.066a.251.251,0,0,1,.246-.257.235.235,0,0,1,.258.246l.259,12.066a.252.252,0,0,1-.246.257Z" transform="translate(-55.276 -57.101)"/>
          <path id="Trazado_211458" data-name="Trazado 211458" d="M135.2,204.743l2.984,12.992-13.152.183,1.447-13.473,1.308.138.172-1.257a2.994,2.994,0,0,1,5.954.208L134,204.95Z" transform="translate(-41.059 -65.921)" fill="#fea41a"/>
          <path id="Trazado_211459" data-name="Trazado 211459" d="M133.835,211.066h-.015l-8.24-.505a.252.252,0,0,1-.068-.49l7.188-2.5-7.682-.78a.252.252,0,0,1,.051-.5l8.814.895a.252.252,0,0,1,.057.489l-7.075,2.457,6.985.428a.252.252,0,0,1-.015.5" transform="translate(-40.981 -67.746)"/>
          <path id="Trazado_211460" data-name="Trazado 211460" d="M125.728,217.558a.248.248,0,0,1-.161-.058.251.251,0,0,1-.032-.355c1.964-2.351,4.04-3.524,6.174-3.451,3.216.093,5.35,2.919,5.439,3.039a.252.252,0,0,1-.4.3c-.02-.028-2.082-2.753-5.053-2.836-1.949-.05-3.91,1.046-5.769,3.271a.251.251,0,0,1-.193.091" transform="translate(-41.206 -70.175)"/>
          <path id="Trazado_211461" data-name="Trazado 211461" d="M148.445,204.743l-2.984,12.992,13.152.183-1.447-13.473-1.307.138-.172-1.257a2.994,2.994,0,0,0-5.954.208l-.094,1.416Z" transform="translate(-47.769 -65.921)" fill="#fea41a"/>
          <path id="Trazado_211462" data-name="Trazado 211462" d="M151.683,211.066a.252.252,0,0,1-.015-.5l6.985-.428-7.076-2.457a.252.252,0,0,1,.057-.489l8.814-.895a.252.252,0,0,1,.051.5l-7.681.78,7.188,2.5a.252.252,0,0,1-.068.49l-8.24.505h-.015" transform="translate(-49.722 -67.746)"/>
          <path id="Trazado_211463" data-name="Trazado 211463" d="M158.616,217.558a.251.251,0,0,1-.193-.091c-1.859-2.225-3.814-3.322-5.769-3.271-2.971.083-5.033,2.809-5.053,2.836a.252.252,0,0,1-.4-.3c.089-.12,2.222-2.946,5.439-3.039,2.141-.073,4.21,1.1,6.175,3.451a.252.252,0,0,1-.032.355.248.248,0,0,1-.161.058" transform="translate(-48.322 -70.175)"/>
          <path id="Trazado_211464" data-name="Trazado 211464" d="M196.729,257.609V226.872a1.26,1.26,0,0,0-1.259-1.259H1.259A1.259,1.259,0,0,0,0,226.872v30.737a1.259,1.259,0,0,0,1.259,1.259H195.47a1.259,1.259,0,0,0,1.259-1.259" transform="translate(0 -74.09)" fill="#ffb6c8"/>
          <path id="Trazado_211465" data-name="Trazado 211465" d="M1.259,257.062H138.3a1.26,1.26,0,0,0,1.26-1.259V232.138a1.259,1.259,0,0,0-1.26-1.259H1.259A1.259,1.259,0,0,0,0,232.138V255.8a1.259,1.259,0,0,0,1.259,1.259" transform="translate(0 -75.819)" fill="#fff"/>
          <path id="Trazado_211466" data-name="Trazado 211466" d="M267.543,255.464H230.837a1.226,1.226,0,0,1-1.224-1.225V236.76a1.225,1.225,0,0,1,1.224-1.224h36.707a1.225,1.225,0,0,1,1.224,1.224v17.479a1.226,1.226,0,0,1-1.224,1.225m-36.587-1.343h36.468V236.879H230.956Z" transform="translate(-75.404 -77.349)" fill="#fff"/>
          <path id="Trazado_211467" data-name="Trazado 211467" d="M215.253,259.212a.671.671,0,0,1-.672-.672V225.285a.672.672,0,1,1,1.343,0V258.54a.671.671,0,0,1-.672.672" transform="translate(-70.467 -73.762)" fill="#fff"/>
          <path id="Trazado_211468" data-name="Trazado 211468" d="M207.041,143.25a.672.672,0,0,1-.672-.672V128.6a.672.672,0,0,1,1.343,0v13.978a.672.672,0,0,1-.672.672" transform="translate(-67.771 -42.011)" fill="#fff"/>
          <path id="Trazado_211469" data-name="Trazado 211469" d="M213.629,143.25a.672.672,0,0,1-.672-.672V128.6a.672.672,0,0,1,1.343,0v13.978a.672.672,0,0,1-.672.672" transform="translate(-69.934 -42.011)" fill="#fff"/>
          <path id="Trazado_211470" data-name="Trazado 211470" d="M334.75,110.862l-5.683,1.176-3.125-7.458,6.633-.526Z" transform="translate(-107.038 -34.171)" fill="#e8926d"/>
          <path id="Trazado_211471" data-name="Trazado 211471" d="M334.529,88.1l2.424,13.229a.489.489,0,0,0,.784.3l16.8-13.209a.487.487,0,0,0,.179-.472l-2.424-13.229a.489.489,0,0,0-.784-.3l-16.8,13.209a.489.489,0,0,0-.179.473" transform="translate(-109.855 -24.404)" fill="#5774cd"/>
          <path id="Trazado_211472" data-name="Trazado 211472" d="M334,90.2l2.748,11.861a.489.489,0,0,0,.78.274L353.7,89.569a.488.488,0,0,0,.179-.468l-2.143-12.29a.489.489,0,0,0-.784-.3L334.177,89.7A.489.489,0,0,0,334,90.2" transform="translate(-109.681 -25.091)" fill="#fff"/>
          <path id="Trazado_211473" data-name="Trazado 211473" d="M294.178,159.792l35.609,81.629-8.262,2.643-38.749-69.4Z" transform="translate(-92.862 -52.475)" fill="#e8926d"/>
          <path id="Trazado_211474" data-name="Trazado 211474" d="M282.124,97.009l9.357-19.569a8.98,8.98,0,0,0-.151-8.048l-1.18-2.247L268.358,98.4l6.188,3.811Z" transform="translate(-88.127 -22.05)" fill="#fff"/>
          <path id="Trazado_211475" data-name="Trazado 211475" d="M274.423,102.339a.255.255,0,0,1-.132-.038L268.1,98.49a.251.251,0,0,1-.075-.359L289.82,66.878a.252.252,0,0,1,.43.027l1.18,2.247a9.271,9.271,0,0,1,.155,8.273l-9.357,19.569a.245.245,0,0,1-.085.1l-7.578,5.2a.251.251,0,0,1-.142.044M268.594,98.2l5.821,3.586,7.387-5.07,9.328-19.508a8.763,8.763,0,0,0-.146-7.822L290,67.506ZM282,96.885h0Z" transform="translate(-88.004 -21.927)"/>
          <path id="Trazado_211476" data-name="Trazado 211476" d="M285.963,180.371l-3.186-5.707,11.4-14.872,2.229,5.11Z" transform="translate(-92.862 -52.475)"/>
          <path id="Trazado_211477" data-name="Trazado 211477" d="M314.247,113.454l-28.608,12.729-6.631-7.494,31.3-14.634Z" transform="translate(-91.625 -34.171)" fill="#fff"/>
          <path id="Trazado_211478" data-name="Trazado 211478" d="M285.516,126.311a.253.253,0,0,1-.189-.085l-6.63-7.494a.252.252,0,0,1,.082-.395l31.3-14.635a.252.252,0,0,1,.2-.007.249.249,0,0,1,.141.138l3.939,9.4a.251.251,0,0,1-.13.327l-28.608,12.73a.261.261,0,0,1-.1.021m-6.218-7.66,6.285,7.1L313.8,113.2l-3.742-8.93Z" transform="translate(-91.502 -34.048)"/>
          <path id="Trazado_211479" data-name="Trazado 211479" d="M290.712,188.6l21.369-29-13.975-6.7,8.734-11.994,19.36,10.9a5.786,5.786,0,0,1,1.524,8.843l-29.676,34.059Z" transform="translate(-95.468 -46.275)" fill="#e8926d"/>
          <path id="Trazado_211480" data-name="Trazado 211480" d="M309.365,156.569l-7.642-3.662,8.734-11.995,3.4,1.915Z" transform="translate(-99.084 -46.275)"/>
          <path id="Trazado_211481" data-name="Trazado 211481" d="M255.323,107.153c-.447,3.874-.132,6.056,5.592,17.031a235.057,235.057,0,0,0,14.8,23.607l21.687-30.54L275.6,106.324l2.521-41.1a70.216,70.216,0,0,0-11.157,14.01c-5.5,9.706-10.742,20.144-11.638,27.917" transform="translate(-83.801 -21.42)" fill="#fd521b"/>
          <path id="Trazado_211482" data-name="Trazado 211482" d="M306.392,61.73l-6.514,4.886-4.842-5.59,6.69-5.237Z" transform="translate(-96.889 -18.321)" fill="#e8926d"/>
          <path id="Trazado_211483" data-name="Trazado 211483" d="M291.784,77.389l-11.662,28.946-5.523-3.016,14.517-28.326Z" transform="translate(-90.177 -24.627)" fill="#fd521b"/>
          <path id="Trazado_211484" data-name="Trazado 211484" d="M319.22,101.645a10.743,10.743,0,0,0,7.682-.166c4.248-1.666,7.89-8.679,7.89-8.679s-10.593.713-13.923,2.21-1.649,6.635-1.649,6.635" transform="translate(-104.691 -30.475)" fill="#e8926d"/>
          <path id="Trazado_211485" data-name="Trazado 211485" d="M319.759,96.693l1.427-.6,2.285,7.255-1.884-.1Z" transform="translate(-105.007 -31.556)"/>
          <path id="Trazado_211486" data-name="Trazado 211486" d="M325.28,89.944l8.458,12.2a.489.489,0,0,0,.7.106l16.9-13.287a.49.49,0,0,0,.1-.664l-8.458-12.2a.489.489,0,0,0-.7-.105L325.38,89.28a.49.49,0,0,0-.1.664" transform="translate(-106.792 -24.921)" fill="#5774cd"/>
          <path id="Trazado_211487" data-name="Trazado 211487" d="M301.562,93.615l-30.6,15.575a8.39,8.39,0,0,1-11.186-11.468l16.413-30.358a6.474,6.474,0,0,1,10.987,6.852L273.012,97.094l26.082-13.34Z" transform="translate(-84.976 -21.127)" fill="#fff"/>
          <path id="Trazado_211488" data-name="Trazado 211488" d="M267.039,110.229a8.64,8.64,0,0,1-7.609-12.75l16.413-30.358a6.726,6.726,0,0,1,11.423,7.1L273.58,96.337l25.279-12.929a.255.255,0,0,1,.219,0,.251.251,0,0,1,.14.168l2.467,9.861a.252.252,0,0,1-.13.285l-30.6,15.574a8.609,8.609,0,0,1-3.912.938m14.53-45.769a6.3,6.3,0,0,0-1.175.111,6.159,6.159,0,0,0-4.116,2.8l-16.4,30.343a8.138,8.138,0,0,0,10.85,11.124l30.425-15.483L298.806,84l-25.8,13.2a.252.252,0,0,1-.329-.357l14.162-22.879a6.259,6.259,0,0,0-1.59-8.278,6.156,6.156,0,0,0-3.679-1.223" transform="translate(-84.855 -21.004)"/>
          <path id="Trazado_211489" data-name="Trazado 211489" d="M353.807,99.8l-.972,5.4a1.163,1.163,0,0,1-.524.774l-.032.02a1.219,1.219,0,0,1-1.874-1.2l1-5.42a1.175,1.175,0,0,1,.719-.87,1.215,1.215,0,0,1,1.678,1.295" transform="translate(-115.065 -32.317)" fill="#e8926d"/>
          <path id="Trazado_211490" data-name="Trazado 211490" d="M350.324,101.841l-1.064,5.825a1.245,1.245,0,0,1-.582.833l-.036.021a1.364,1.364,0,0,1-2.1-1.3l1.1-5.846a1.267,1.267,0,0,1,.8-.936,1.354,1.354,0,0,1,1.879,1.4" transform="translate(-113.797 -32.95)" fill="#e8926d"/>
          <path id="Trazado_211491" data-name="Trazado 211491" d="M346.174,106.526l-.787,4.116a.861.861,0,0,1-.449.585l-.028.015c-.774.424-1.807-.163-1.654-.939l.815-4.132a.9.9,0,0,1,.619-.655c.773-.266,1.619.309,1.485,1.009" transform="translate(-112.718 -34.629)" fill="#e8926d"/>
          <path id="Trazado_211492" data-name="Trazado 211492" d="M343.125,109.932l-.711,3.4a.706.706,0,0,1-.438.477l-.028.012c-.766.338-1.807-.167-1.668-.809l.739-3.412a.779.779,0,0,1,.606-.533c.767-.206,1.621.286,1.5.864" transform="translate(-111.742 -35.802)" fill="#e8926d"/>
          <path id="Trazado_211493" data-name="Trazado 211493" d="M322.738,48.838c1.013-6.118-2.557-11.8-7.974-12.7s-10.628,3.335-11.642,9.453,2.557,11.8,7.973,12.7,10.629-3.335,11.642-9.452" transform="translate(-99.487 -11.828)" fill="#e8926d"/>
          <path id="Trazado_211494" data-name="Trazado 211494" d="M301.5,46.5s-1.364,11.007.287,14.9L293.235,52l1.369-1.952-2.51.7-2.542-2.794s4.654-2.488,6.217-3.661,7.891-6.957,10.03-7.055-5.383,6.632-5.383,6.632Z" transform="translate(-95.087 -12.226)" fill="#ffb6c8"/>
          <path id="Trazado_211495" data-name="Trazado 211495" d="M311.776,45.111s3.66,4.137,7.734-1.2l.065,2.177,3.164,2.492,1.223-2.947-.277,3.727,2.642,3.042s-.259-6.3-1.2-8.28a28.352,28.352,0,0,0-3.11-3.885l-5.785-.1Z" transform="translate(-102.386 -13.181)" fill="#ffb6c8"/>
          <path id="Trazado_211496" data-name="Trazado 211496" d="M321.69,64.67l1.5,2.2-2.75-.527Z" transform="translate(-105.232 -21.237)" fill="#e8926d"/>
          <path id="Trazado_211497" data-name="Trazado 211497" d="M325.051,60.183s2.666-4.931-2.494-7c0,0-2.3,7,2.494,7" transform="translate(-105.745 -17.466)" fill="#fff"/>
          <path id="Trazado_211498" data-name="Trazado 211498" d="M317.165,66.925a8.284,8.284,0,0,1-1.661.306l.832-3.688Z" transform="translate(-103.61 -20.867)" fill="#5774cd"/>
          <path id="Trazado_211499" data-name="Trazado 211499" d="M320.466,41.905l-11.893,2.337L308.158,39a9.541,9.541,0,0,1,8.316-2.865,9.741,9.741,0,0,1,7.46,6.63Z" transform="translate(-101.198 -11.828)" fill="#ffb6c8"/>
          <path id="Trazado_211500" data-name="Trazado 211500" d="M328.76,55.934a.321.321,0,0,1-.056-.005.286.286,0,0,1-.224-.336c.173-.862-1.041-1.964-1.523-2.316a.285.285,0,0,1,.336-.461c.083.06,2.026,1.494,1.747,2.89a.285.285,0,0,1-.279.229" transform="translate(-107.333 -17.326)"/>
          <path id="Trazado_211501" data-name="Trazado 211501" d="M305.269,45.429a2.805,2.805,0,0,1,3.806-1.675,3.325,3.325,0,0,1,1.48,4.21,2.8,2.8,0,0,1-3.806,1.675,3.326,3.326,0,0,1-1.48-4.21" transform="translate(-100.168 -14.282)" fill="#e8926d"/>
          <path id="Trazado_211502" data-name="Trazado 211502" d="M310.138,49.054a.285.285,0,0,1-.283-.259l-.331-3.586a.285.285,0,0,1,.257-.31.289.289,0,0,1,.31.258l.331,3.586a.284.284,0,0,1-.257.31h-.027" transform="translate(-101.645 -14.744)"/>
          <path id="Trazado_211503" data-name="Trazado 211503" d="M307.21,49.289a.285.285,0,0,1-.006-.57l1.918-.041a.269.269,0,0,1,.291.279.285.285,0,0,1-.279.291l-1.918.041Z" transform="translate(-100.793 -15.985)"/>
          <path id="Trazado_211504" data-name="Trazado 211504" d="M338.6,259.4l6.54,14.877-8.326,2.643-7.664-13.62Z" transform="translate(-108.091 -85.186)" fill="#d7e5ff"/>
          <path id="Trazado_211505" data-name="Trazado 211505" d="M290.712,206.246l8.548-11.6,7.6,7.6-8.811,10.112Z" transform="translate(-95.468 -63.921)" fill="#d7e5ff"/>
          <path id="Trazado_211506" data-name="Trazado 211506" d="M337.5,282.259l1.974,7.679-2.013,10.253H366.13l.518-3.461a2.553,2.553,0,0,0-2.163-2.923c-3.85-.526-10.943-2.15-13.663-7.09-.491-.892-.314-7.739-.314-7.739Z" transform="translate(-110.82 -91.615)" fill="#fea41a"/>
          <path id="Trazado_211507" data-name="Trazado 211507" d="M295.6,198.586a.248.248,0,0,1-.149-.049.252.252,0,0,1-.053-.353l10.042-13.628a.252.252,0,1,1,.406.3L295.8,198.484a.252.252,0,0,1-.2.1" transform="translate(-96.99 -60.574)"/>
          <path id="Trazado_211508" data-name="Trazado 211508" d="M304.691,212.465a.251.251,0,0,1-.19-.417l8.977-10.3a.252.252,0,1,1,.38.33l-8.977,10.3a.253.253,0,0,1-.19.087" transform="translate(-99.976 -66.224)"/>
          <path id="Trazado_211509" data-name="Trazado 211509" d="M287.185,206.385l-4.582,7.834-7.411,3.011,13.217,26.538,2.923-.911a2.552,2.552,0,0,0,1.676-3.227c-1.218-3.689-4.735-12.636-1.492-17.249.585-.833,5.313-6.988,5.313-6.988Z" transform="translate(-90.372 -67.776)" fill="#fea41a"/>
          <path id="Trazado_211510" data-name="Trazado 211510" d="M366.526,307.516H337.959a.252.252,0,1,1,0-.5h28.567a.252.252,0,0,1,0,.5" transform="translate(-110.901 -100.821)"/>
          <path id="Trazado_211511" data-name="Trazado 211511" d="M291.261,248.156a.252.252,0,0,1-.229-.146L278.56,221a.252.252,0,1,1,.457-.211L291.49,247.8a.252.252,0,0,1-.228.357" transform="translate(-91.47 -72.459)"/>
          <path id="Trazado_211512" data-name="Trazado 211512" d="M283.74,225.024a.249.249,0,0,1-.14-.042.252.252,0,0,1-.068-.35l9.408-14a.252.252,0,1,1,.418.281l-9.408,14a.254.254,0,0,1-.21.111" transform="translate(-93.096 -69.132)"/>
          <path id="Trazado_211513" data-name="Trazado 211513" d="M346.738,299.254a.251.251,0,0,1-.248-.21l-2.871-16.9a.252.252,0,0,1,.5-.084l2.871,16.9a.251.251,0,0,1-.206.29.312.312,0,0,1-.043,0" transform="translate(-112.842 -92.56)"/>
          <path id="Trazado_211514" data-name="Trazado 211514" d="M352.712,91.974a.251.251,0,0,1-.21-.111l-5.016-7.483a.252.252,0,0,1,.418-.281l5.016,7.483a.252.252,0,0,1-.069.349.244.244,0,0,1-.14.043" transform="translate(-114.099 -27.581)" fill="#ffb6c8"/>
          <path id="Trazado_211515" data-name="Trazado 211515" d="M350.377,94a.251.251,0,0,1-.21-.111l-5.016-7.482a.252.252,0,1,1,.418-.281l5.016,7.482a.253.253,0,0,1-.069.35.249.249,0,0,1-.14.042" transform="translate(-113.332 -28.247)" fill="#ffb6c8"/>
          <path id="Trazado_211516" data-name="Trazado 211516" d="M335.506,105.924a.252.252,0,0,1-.207-.108l-4.335-6.251a.252.252,0,1,1,.414-.287l4.335,6.251a.252.252,0,0,1-.064.351.245.245,0,0,1-.143.045" transform="translate(-108.672 -32.567)" fill="#ffb6c8"/>
          <path id="Trazado_211517" data-name="Trazado 211517" d="M765.513,300.9H723.172a.336.336,0,0,1,0-.672h42.341a.336.336,0,1,1,0,.672" transform="translate(-237.376 -98.593)" fill="#d7e5ff"/>
          <path id="Trazado_211518" data-name="Trazado 211518" d="M799.538,295.559H730.607a.336.336,0,1,1,0-.672h68.931a.336.336,0,1,1,0,.672" transform="translate(-239.817 -96.839)" fill="#d7e5ff"/>
          <path id="Trazado_211519" data-name="Trazado 211519" d="M795.722,291.124H695.313a.336.336,0,0,1,0-.672H795.722a.336.336,0,1,1,0,.672" transform="translate(-228.227 -95.383)" fill="#d7e5ff"/>
          <path id="Trazado_211520" data-name="Trazado 211520" d="M754.951,286.688H695.313a.336.336,0,0,1,0-.672h59.639a.336.336,0,1,1,0,.672" transform="translate(-228.227 -93.926)" fill="#d7e5ff"/>
          <path id="Trazado_211521" data-name="Trazado 211521" d="M596.957,157.673V136.337a3.75,3.75,0,0,1,3.75-3.75H784.1a3.75,3.75,0,0,1,3.75,3.75v21.336a3.75,3.75,0,0,1-3.75,3.751h-183.4a3.75,3.75,0,0,1-3.75-3.751" transform="translate(-196.038 -43.541)" fill="#ffb6c8"/>
          <path id="Trazado_211522" data-name="Trazado 211522" d="M726.375,159.147H609.609a1.653,1.653,0,0,1-1.65-1.651V140.869a1.652,1.652,0,0,1,1.65-1.65H726.375a1.652,1.652,0,0,1,1.651,1.65V157.5a1.653,1.653,0,0,1-1.651,1.651M609.609,140.562a.307.307,0,0,0-.307.307V157.5a.307.307,0,0,0,.307.308H726.375a.308.308,0,0,0,.308-.308V140.869a.307.307,0,0,0-.308-.307Z" transform="translate(-199.651 -45.719)" fill="#fff"/>
          <path id="Trazado_211523" data-name="Trazado 211523" d="M721.306,150.022H618.737a.672.672,0,1,1,0-1.343h102.57a.672.672,0,1,1,0,1.343" transform="translate(-202.969 -48.825)" fill="#fff"/>
          <path id="Trazado_211524" data-name="Trazado 211524" d="M721.306,158.774H618.737a.672.672,0,1,1,0-1.343h102.57a.672.672,0,1,1,0,1.343" transform="translate(-202.969 -51.7)" fill="#fff"/>
          <path id="Trazado_211525" data-name="Trazado 211525" d="M779.334,257.644H710.4a.336.336,0,0,1,0-.672h68.93a.336.336,0,0,1,0,.672" transform="translate(-233.183 -84.388)" fill="#d7e5ff"/>
          <path id="Trazado_211526" data-name="Trazado 211526" d="M785.828,254.4H716.9a.336.336,0,0,1,0-.672h68.93a.336.336,0,0,1,0,.672" transform="translate(-235.315 -83.325)" fill="#d7e5ff"/>
          <path id="Trazado_211527" data-name="Trazado 211527" d="M745.473,279.13l-3.88-6.266a.25.25,0,0,0-.463,0l-3.881,6.266c-.21.339-.562.093-.562-.393v-27.69c0-.3.148-.549.331-.549H745.7c.183,0,.332.246.332.549v27.69c0,.486-.353.732-.563.393" transform="translate(-241.924 -82.262)" fill="#5774cd"/>
          <path id="Trazado_211528" data-name="Trazado 211528" d="M768.912,250.67H709.274a.336.336,0,0,1,0-.672h59.639a.336.336,0,1,1,0,.672" transform="translate(-232.812 -82.098)" fill="#d7e5ff"/>
          <path id="Trazado_211529" data-name="Trazado 211529" d="M107.552,251.958H93a.707.707,0,0,1-.506-1.2l4.891-5.007H114.34l-5.559,5.691a1.716,1.716,0,0,1-1.228.518" transform="translate(-30.308 -80.703)" fill="#ffb6c8"/>
          <path id="Trazado_211530" data-name="Trazado 211530" d="M32.164,256.58H17.613a.707.707,0,0,1-.506-1.2L22,250.372H38.952l-5.559,5.691a1.718,1.718,0,0,1-1.228.517" transform="translate(-5.551 -82.221)" fill="#5774cd"/>
          <path id="Trazado_211531" data-name="Trazado 211531" d="M146.306,245.921H65.61a.336.336,0,1,1,0-.672h80.7a.336.336,0,1,1,0,.672" transform="translate(-21.436 -80.539)" fill="#d7e5ff"/>
          <path id="Trazado_211532" data-name="Trazado 211532" d="M171.938,261.2H157.387a.707.707,0,0,1-.506-1.2l4.891-5.007h16.953l-5.559,5.691a1.718,1.718,0,0,1-1.228.517" transform="translate(-51.452 -83.739)" fill="#fea41a"/>
          <path id="Trazado_211533" data-name="Trazado 211533" d="M126.96,247.335H112.409a.707.707,0,0,1-.506-1.2l4.891-5.007h16.953l-5.558,5.691a1.72,1.72,0,0,1-1.229.517" transform="translate(-36.682 -79.185)" fill="#fd521b"/>
          <path id="Trazado_211534" data-name="Trazado 211534" d="M141.036,241.3H38.829a.336.336,0,1,1,0-.672H141.036a.336.336,0,0,1,0,.672" transform="translate(-12.641 -79.021)" fill="#d7e5ff"/>
          <path id="Trazado_211535" data-name="Trazado 211535" d="M184.631,255.166H140a.336.336,0,1,1,0-.672h44.626a.336.336,0,0,1,0,.672" transform="translate(-45.867 -83.575)" fill="#d7e5ff"/>
          <path id="Trazado_211536" data-name="Trazado 211536" d="M45.217,250.544H.591a.336.336,0,0,1,0-.672H45.217a.336.336,0,0,1,0,.672" transform="translate(-0.084 -82.057)" fill="#d7e5ff"/>
          <path id="Trazado_211537" data-name="Trazado 211537" d="M778.115,191.845H649.861a.672.672,0,1,1,0-1.343H778.115a.672.672,0,1,1,0,1.343" transform="translate(-213.19 -62.56)" fill="#d7e5ff"/>
          <path id="Trazado_211538" data-name="Trazado 211538" d="M799.473,183.855H714.9a.672.672,0,1,1,0-1.343h84.575a.672.672,0,1,1,0,1.343" transform="translate(-234.548 -59.936)" fill="#d7e5ff"/>
          <path id="Trazado_211539" data-name="Trazado 211539" d="M778.115,200.6H649.861a.672.672,0,1,1,0-1.343H778.115a.672.672,0,1,1,0,1.343" transform="translate(-213.19 -65.434)" fill="#d7e5ff"/>
          <path id="Trazado_211540" data-name="Trazado 211540" d="M585.344,296.973H491.351a1.843,1.843,0,0,1-1.841-1.842v-7.775a1.843,1.843,0,0,1,1.841-1.84h93.993a1.843,1.843,0,0,1,1.841,1.84v7.775a1.843,1.843,0,0,1-1.841,1.842m-93.993-10.114a.5.5,0,0,0-.5.5v7.775a.5.5,0,0,0,.5.5h93.993a.5.5,0,0,0,.5-.5v-7.775a.5.5,0,0,0-.5-.5Z" transform="translate(-160.753 -93.762)" fill="#ffb6c8"/>
          <path id="Trazado_211541" data-name="Trazado 211541" d="M647.982,227.873h-22a1.357,1.357,0,0,1-1.355-1.355V213.594a1.357,1.357,0,0,1,1.355-1.357h22a1.358,1.358,0,0,1,1.356,1.357v12.924a1.357,1.357,0,0,1-1.356,1.355m-22-14.293-.012,12.938.012.012h22l.013-12.936Z" transform="translate(-205.125 -69.698)" fill="#fd521b"/>
          <path id="Trazado_211542" data-name="Trazado 211542" d="M692.31,262.857a.671.671,0,0,1-.672-.672V242.929a.672.672,0,1,1,1.343,0v19.257a.671.671,0,0,1-.672.672" transform="translate(-227.13 -79.556)" fill="#fff"/>
          <path id="Trazado_211543" data-name="Trazado 211543" d="M652.645,262.857a.671.671,0,0,1-.672-.672V242.929a.672.672,0,1,1,1.343,0v19.257a.671.671,0,0,1-.672.672" transform="translate(-214.105 -79.556)" fill="#fff"/>
          <path id="Trazado_211544" data-name="Trazado 211544" d="M645.744,262.857a.671.671,0,0,1-.672-.672V242.929a.672.672,0,1,1,1.343,0v19.257a.671.671,0,0,1-.672.672" transform="translate(-211.838 -79.556)" fill="#fff"/>
          <path id="Trazado_211545" data-name="Trazado 211545" d="M637.417,262.857a.671.671,0,0,1-.672-.672V242.929a.672.672,0,0,1,1.343,0v19.257a.671.671,0,0,1-.672.672" transform="translate(-209.104 -79.556)" fill="#fff"/>
          <path id="Trazado_211546" data-name="Trazado 211546" d="M668.781,228.2a.671.671,0,0,1-.672-.672V211.947a.672.672,0,1,1,1.343,0v15.586a.671.671,0,0,1-.672.672" transform="translate(-219.404 -69.382)" fill="#fd521b"/>
          <path id="Trazado_211547" data-name="Trazado 211547" d="M677.063,228.2a.671.671,0,0,1-.672-.672V211.947a.672.672,0,0,1,1.343,0v15.586a.671.671,0,0,1-.672.672" transform="translate(-222.123 -69.382)" fill="#fd521b"/>
          <path id="Trazado_211548" data-name="Trazado 211548" d="M685.345,228.2a.671.671,0,0,1-.672-.672V211.947a.672.672,0,1,1,1.343,0v15.586a.671.671,0,0,1-.672.672" transform="translate(-224.843 -69.382)" fill="#fd521b"/>
          <path id="Trazado_211549" data-name="Trazado 211549" d="M153.769,295.676H80.037a.336.336,0,1,1,0-.672h73.732a.336.336,0,1,1,0,.672" transform="translate(-26.173 -96.878)" fill="#d7e5ff"/>
          <path id="Trazado_211550" data-name="Trazado 211550" d="M213.736,284.053H140a.336.336,0,1,1,0-.672h73.731a.336.336,0,0,1,0,.672" transform="translate(-45.867 -93.061)" fill="#d7e5ff"/>
          <path id="Trazado_211551" data-name="Trazado 211551" d="M168.628,300.3H75.242a.336.336,0,1,1,0-.672h93.386a.336.336,0,1,1,0,.672" transform="translate(-24.599 -98.396)" fill="#d7e5ff"/>
          <path id="Trazado_211552" data-name="Trazado 211552" d="M141.032,286.431h-79.9a.336.336,0,0,1,0-.672h79.9a.336.336,0,0,1,0,.672" transform="translate(-19.966 -93.842)" fill="#d7e5ff"/>
          <path id="Trazado_211553" data-name="Trazado 211553" d="M207.681,291.054H122.713a.336.336,0,1,1,0-.672h84.968a.336.336,0,1,1,0,.672" transform="translate(-40.188 -95.36)" fill="#d7e5ff"/>
          <path id="Trazado_211554" data-name="Trazado 211554" d="M151.78,225.742H124.907a.252.252,0,0,1,0-.5H151.78a.252.252,0,1,1,0,.5" transform="translate(-40.936 -73.967)"/>
        </g>
      </g>
      <g id="Grupo_983890" data-name="Grupo 983890" transform="translate(216.26 35.72)">
        <g id="Grupo_983889" data-name="Grupo 983889" clip-path="url(#clip-path-2)">
          <path id="Trazado_211555" data-name="Trazado 211555" d="M321.573,59.908a2.612,2.612,0,1,0,2.612-2.612,2.612,2.612,0,0,0-2.612,2.612" transform="translate(-321.863 -54.536)"/>
        </g>
      </g>
      <g id="Grupo_983892" data-name="Grupo 983892" transform="translate(101.113 55.646)">
        <g id="Grupo_983891" data-name="Grupo 983891" clip-path="url(#clip-path-3)">
          <path id="Trazado_211557" data-name="Trazado 211557" d="M156.664,85.466a2.131,2.131,0,1,1-2.132-2.132,2.132,2.132,0,0,1,2.132,2.132" transform="translate(-151.161 -83.012)"/>
        </g>
      </g>
      <g id="Grupo_983894" data-name="Grupo 983894" transform="translate(88.953 55.646)">
        <g id="Grupo_983893" data-name="Grupo 983893" clip-path="url(#clip-path-4)">
          <path id="Trazado_211559" data-name="Trazado 211559" d="M140.111,85.481a2.1,2.1,0,1,1-2.1-2.1,2.1,2.1,0,0,1,2.1,2.1" transform="translate(-133.586 -83.027)"/>
        </g>
      </g>
      <g id="Grupo_983896" data-name="Grupo 983896" transform="translate(317.985 69.641)">
        <g id="Grupo_983895" data-name="Grupo 983895" clip-path="url(#clip-path-5)">
          <path id="Trazado_211561" data-name="Trazado 211561" d="M472.689,106.8a3.2,3.2,0,1,0,3.2-3.2,3.2,3.2,0,0,0-3.2,3.2" transform="translate(-473.214 -103.662)"/>
        </g>
      </g>
      <g id="Grupo_983898" data-name="Grupo 983898" transform="translate(414.387 67.61)">
        <g id="Grupo_983897" data-name="Grupo 983897" clip-path="url(#clip-path-6)">
          <path id="Trazado_211563" data-name="Trazado 211563" d="M622.561,102.982a3.064,3.064,0,1,1-3.064-3.063,3.064,3.064,0,0,1,3.064,3.063" transform="translate(-616.821 -100.423)"/>
        </g>
      </g>
    </g>
  </g>
</svg>
