<svg xmlns="http://www.w3.org/2000/svg" xmlns:xlink="http://www.w3.org/1999/xlink" width="86" height="86" viewBox="0 0 86 86">
  <defs>
    <clipPath id="clip-path">
      <rect id="Rectángulo_338932" data-name="Rectángulo 338932" width="54.122" height="56" fill="none"/>
    </clipPath>
  </defs>
  <g id="Grupo_984029" data-name="Grupo 984029" transform="translate(-758 -1234)">
    <circle id="Elipse_4887" data-name="Elipse 4887" cx="43" cy="43" r="43" transform="translate(758 1234)" fill="#6b8dfc"/>
    <g id="Grupo_984028" data-name="Grupo 984028" transform="translate(774 1249)">
      <g id="Grupo_984027" data-name="Grupo 984027" clip-path="url(#clip-path)">
        <path id="Trazado_211814" data-name="Trazado 211814" d="M47.521,35.855c.594.064.78.442.779.986,0,1.731,0,3.463,0,5.194,0,.743-.279,1.017-1.031,1.02-1.932.006-3.863,0-5.795,0h-.594c0,.06-.023.11-.008.124a9.5,9.5,0,0,1,2.579,5.706c.152.89.169.888,1.062.888H54.24c.919,0,1.139.242,1.165,1.163a4.958,4.958,0,0,1-.776,3.224A4.246,4.246,0,0,1,51.033,56q-5.768.009-11.535,0Q24,56,8.5,56A4.288,4.288,0,0,1,4.136,52.6a7.147,7.147,0,0,1-.071-2.123c.036-.48.383-.707.992-.708q3.772,0,7.544,0c.948,0,1.9-.01,2.843.006.291,0,.416-.072.46-.379.065-.461.11-.961.642-1.18.929-.126,1.331.275,1.188,1.195-.053.341-.123.68-.2,1.017-.206.864-.521,1.127-1.406,1.135-1.31.013-2.621,0-3.931,0-.817,0-.835.02-.838.813,0,.419.012.838,0,1.256-.014.4.156.557.549.552.764-.009,1.529,0,2.293,0,1.511,0,3.021.006,4.532,0,1.067-.005,1.434-.364,1.475-1.443.025-.655-.006-1.311.013-1.965s.359-1.088.879-1.121a1.088,1.088,0,0,1,1.053,1.051c.063.6,0,1.2.036,1.8a5.008,5.008,0,0,1-.1,1.193c-.056.325.076.483.407.48.127,0,.255,0,.382,0H36.622c.8,0,.8-.008.7-.791a16.292,16.292,0,0,1-.033-2.615,1.386,1.386,0,0,1,.137-.526.974.974,0,0,1,1.006-.591.951.951,0,0,1,.789.859c.056.635.018,1.273.021,1.909a3.758,3.758,0,0,0,.111,1.081,1.053,1.053,0,0,0,1.042.661c2.4.031,4.806.013,7.209.013.35,0,.488-.17.5-.5.014-.565,0-1.129.006-1.693,0-.424-.289-.437-.6-.437-1.493,0-2.986.009-4.478,0a1.11,1.11,0,0,1-1.06-1c-.2-.962-.414-1.922-.61-2.886A5.992,5.992,0,0,0,35.4,42.8a1.025,1.025,0,0,1-.164,0c-.681-.111-1.028.127-1.329.816A4.553,4.553,0,0,1,26.5,45.082a4.064,4.064,0,0,1-1.071-1.694.716.716,0,0,0-.877-.587A6,6,0,0,0,19.576,44.7a10.74,10.74,0,0,0-1.09,1.564c-.343.517-.717.613-1.177.342-.521-.449-.587-.734-.288-1.325a8.238,8.238,0,0,1,1.645-2.194c-.238-.011-.391-.025-.543-.025q-2.842,0-5.685,0c-1.106,0-1.288-.186-1.289-1.313q0-5.439.006-10.878a1.035,1.035,0,0,0-.358-.843A5.36,5.36,0,0,1,9.208,24.4a2.784,2.784,0,0,1,1.578-1.851.562.562,0,0,0,.369-.617c0-2.059-.037-4.119.023-6.177A16.547,16.547,0,0,1,24.548.3,5.771,5.771,0,0,0,26.06,0h.766a.836.836,0,0,0,.656,0h4.484a.836.836,0,0,0,.656,0h.656c.736.144,1.475.271,2.207.433A16.574,16.574,0,0,1,48.064,13.742a31.956,31.956,0,0,1,.232,5.066c.009,1.075.005,2.149,0,3.224,0,.214.021.371.254.472a3.108,3.108,0,0,1,1.88,2.733,5.411,5.411,0,0,1-1.76,4.775,1.037,1.037,0,0,0-.379.889c.028.709-.022,1.422.017,2.13a1.01,1.01,0,0,1-.805,1.207.87.87,0,0,1-.972-.78,7.755,7.755,0,0,1-.069-1.251c-.02-.242.145-.584-.241-.685a.835.835,0,0,0-.911.527,13.008,13.008,0,0,1-.687,1.605A11.879,11.879,0,0,1,34.991,40.3a1.472,1.472,0,0,0-.217.027c-.171.047-.4.055-.392.3.011.257.253.238.421.228a10.213,10.213,0,0,1,3.291.4,2.438,2.438,0,0,0,.652.043q3.495,0,6.99,0c.7,0,.728-.032.73-.748,0-1.147,0-2.294,0-3.44a1.529,1.529,0,0,1,.252-.987c.2-.253.446-.441.8-.267" transform="translate(-2.497)"/>
        <path id="Trazado_211815" data-name="Trazado 211815" d="M78.436,0a.5.5,0,0,1-.656,0Z" transform="translate(-48.31)" fill="#212121"/>
        <path id="Trazado_211816" data-name="Trazado 211816" d="M64.869,0a.5.5,0,0,1-.656,0Z" transform="translate(-39.884)" fill="#212121"/>
        <path id="Trazado_211817" data-name="Trazado 211817" d="M33.786,122.389c-.012-.581-.02-1.162-.038-1.744-.019-.6-.329-.967-.808-.977-.5-.011-.821.371-.829,1-.009.747.008,1.494-.005,2.24a1.189,1.189,0,0,1-1.351,1.337c-2.423,0-4.845-.006-7.268.009-.365,0-.517-.069-.495-.471a16.668,16.668,0,0,0,0-1.911c-.027-.442.087-.592.557-.582,1.493.031,2.987.013,4.481.011.721,0,.929-.171,1.081-.874.077-.355.148-.712.219-1.068.187-.932-.077-1.26-1-1.25a.681.681,0,0,0,.572-.721,5,5,0,0,1,.192-.9.967.967,0,0,0,1.213-.629,6.1,6.1,0,0,1,6.009-3.313c.132.2-.01.347-.121.484a8.153,8.153,0,0,0-1.575,4.191c-.213,1.551-.357,3.11-.556,4.663-.024.192.046.46-.273.5" transform="translate(-14.278 -69.89)" fill="#c5cfd9"/>
        <path id="Trazado_211818" data-name="Trazado 211818" d="M96.914,87.123c-.671.123-.875.361-.879,1.081-.007,1.312-.015,2.625.006,3.937.006.4-.074.576-.534.572-2.57-.022-5.14-.009-7.71-.013a1.672,1.672,0,0,1-.485-.059,9.694,9.694,0,0,0-3.238-.376c-.239.008-.507.084-.529-.341s.222-.455.5-.474a11.135,11.135,0,0,0,2.881-.565,11.829,11.829,0,0,0,7.659-7.738,1.536,1.536,0,0,1,1.317-.583c.166.063.128.2.13.322.006.492,0,.984,0,1.477.012.694.187.92.861,1.142q.01.809.019,1.618" transform="translate(-51.89 -51.269)" fill="#544f57"/>
        <path id="Trazado_211819" data-name="Trazado 211819" d="M120.136,7.9a.8.8,0,0,1-.8.8c-.491.022-.983.021-1.474,0-.268-.01-.349.086-.339.344.017.455.016.91,0,1.365-.019.587-.351.928-.86.909-.487-.018-.765-.344-.776-.924a9.042,9.042,0,0,1,.006-1.092c.047-.458-.066-.673-.58-.608a7.417,7.417,0,0,1-1.2.005.811.811,0,1,1-.064-1.62,13.182,13.182,0,0,1,1.473-.01c.285.01.383-.081.369-.37-.022-.454-.014-.91,0-1.365a.806.806,0,0,1,.777-.874.835.835,0,0,1,.855.868,9.472,9.472,0,0,1,0,1.2c-.033.405.063.593.519.544a7.538,7.538,0,0,1,1.254,0,.84.84,0,0,1,.846.827" transform="translate(-70.352 -2.768)"/>
        <path id="Trazado_211820" data-name="Trazado 211820" d="M130.09,97.89c-1.074,0-1.073,0-1.075,1.084a6.838,6.838,0,0,1-.016.764.78.78,0,0,1-.83.764.765.765,0,0,1-.785-.8c-.024-.472-.026-.948,0-1.42.015-.321-.109-.407-.411-.393-.454.021-.911.017-1.365,0a.777.777,0,0,1-.838-.807.8.8,0,0,1,.836-.821,7.984,7.984,0,0,1,1.256,0c.463.049.555-.15.524-.555a10.171,10.171,0,0,1,0-1.2.813.813,0,1,1,1.625-.026,10.585,10.585,0,0,1,0,1.365c-.026.356.108.435.433.414.417-.027.838-.017,1.256,0,.585.019.938.354.919.854s-.344.764-.925.783c-.2.006-.4,0-.6,0" transform="translate(-77.494 -58.161)"/>
        <path id="Trazado_211821" data-name="Trazado 211821" d="M4.246,43.786c0,1.009,0,1.009,1.028,1.009.273,0,.548-.016.819.009a.8.8,0,0,1,.762.835.787.787,0,0,1-.8.791c-.473.019-.948.025-1.42,0-.32-.017-.407.1-.393.4.022.454.019.911,0,1.365a.813.813,0,1,1-1.625.021c-.027-.49-.019-.984-.005-1.475.006-.234-.068-.32-.308-.312-.473.016-.947.013-1.42,0A.809.809,0,0,1,0,45.6a.817.817,0,0,1,.859-.8c.473-.017.948-.02,1.42,0,.274.013.343-.083.332-.342-.02-.436-.015-.874,0-1.311.016-.594.333-.964.813-.97s.8.365.823.951c.007.219,0,.437,0,.656" transform="translate(0 -26.198)"/>
        <path id="Trazado_211822" data-name="Trazado 211822" d="M50.638,43.345c1.829-.465,3.679-.848,5.484-1.411a32.083,32.083,0,0,0,8.867-3.974c.8-.55.791-.556,1.319.234a15.225,15.225,0,0,0,5.1,5.074,4.115,4.115,0,0,0,.933.442c.525.137.619.437.612.941-.03,2.259-.01,4.518-.014,6.777a10.259,10.259,0,0,1-8.662,10.359,7.749,7.749,0,0,1-.814.063c-1.379.088-2.759.014-4.138.038a2.506,2.506,0,0,0-.381,0,5.224,5.224,0,0,1-4.355-1.569,11.058,11.058,0,0,1-3.762-5.991.966.966,0,0,1-.041-.535c.094-.2.3-.25.464-.352.928-.574.911-1.428-.032-1.989-.239-.142-.568-.169-.685-.487a.826.826,0,0,1,.048-.6c.175-.192.4-.136.612-.113a3.761,3.761,0,0,0,3.8-1.846,1.168,1.168,0,0,0,.2-.561.633.633,0,0,0-.372-.718.644.644,0,0,0-.779.228c-.156.18-.254.4-.392.592a2.475,2.475,0,0,1-2.626.887c-.256-.084-.47-.2-.522-.5-.071-1.5-.025-3-.027-4.494a.734.734,0,0,1,.166-.5" transform="translate(-31.341 -23.336)" fill="#fecabd"/>
        <path id="Trazado_211823" data-name="Trazado 211823" d="M57.692,4.305a54.338,54.338,0,0,1,6.387.109A14.39,14.39,0,0,1,71.6,7.647,14.736,14.736,0,0,1,76.768,16.1a11.269,11.269,0,0,1,.3,2.431c0,1.968,0,3.937.006,5.9a.7.7,0,0,1-.733.713c-.246-.018-.159-.208-.16-.328-.01-.674,0-1.349-.005-2.023a.883.883,0,0,0-.658-.955c-2.5-.684-4.17-2.435-5.666-4.407a16.893,16.893,0,0,1-1.4-2.215c-.433-.8-.905-.877-1.6-.262a20.549,20.549,0,0,1-6.225,3.558,51.176,51.176,0,0,1-7.146,2.166,1.438,1.438,0,0,1-.272.014,3.22,3.22,0,0,1-.131-1.814c.116-1.484.088-2.977.3-4.457a24.315,24.315,0,0,1,2.276-8.041,12.669,12.669,0,0,1,.911-1.423,1.375,1.375,0,0,1,1.126-.655" transform="translate(-32.927 -2.649)" fill="#544f57"/>
        <path id="Trazado_211824" data-name="Trazado 211824" d="M51.08,122.346a12.613,12.613,0,0,0,.333-2.332c.27-1.925.29-3.9,1.1-5.719a4.651,4.651,0,0,1,.882-1.422.52.52,0,0,0,.21-.366c.563-.144.829.015,1.024.634a4.417,4.417,0,0,0,8.374-.1c.148-.477.354-.572.821-.586a6.648,6.648,0,0,1,4.674,1.476,6.916,6.916,0,0,1,2.272,4.409c.117.7.3,1.387.42,2.085a.908.908,0,0,0,.79.844c1.564.081,3.129.015,4.693.035.608.008.608,0,.609.626,0,.4-.014.8,0,1.2.015.308-.136.428-.41.461a4.085,4.085,0,0,1-.491.021q-3.633,0-7.265,0a1.242,1.242,0,0,1-.836-.181,11.913,11.913,0,0,1-.093-2.553c-.026-.846-.253-1.24-.794-1.258-.568-.019-.873.4-.846,1.261a11.315,11.315,0,0,0,.168,3.092c.049.159.008.241-.171.227-.072-.006-.146,0-.218,0H51.2c-.108,0-.216-.012-.373-.021a6.581,6.581,0,0,0,.249-1.838" transform="translate(-31.572 -69.848)" fill="#e6ebf0"/>
        <path id="Trazado_211825" data-name="Trazado 211825" d="M41.633,4.371c-1,.329-1.382,1.241-1.833,2.043a19.915,19.915,0,0,0-2.1,6.606,33.914,33.914,0,0,0-.469,5.024c-.015.9-.074,1.811-.084,2.719a27.987,27.987,0,0,1-3.826.759,33.285,33.285,0,0,1-4.381.452.825.825,0,0,0-.863.916c-.013.619.008,1.239-.011,1.857,0,.158.134.49-.183.434-.252-.044-.665,0-.7-.444,0-.055,0-.109,0-.164,0-2.166-.084-4.339.037-6.5a14.053,14.053,0,0,1,3.139-8.047,14.8,14.8,0,0,1,6.9-4.878,13.982,13.982,0,0,1,4.375-.776" transform="translate(-16.868 -2.715)" fill="#454045"/>
        <path id="Trazado_211826" data-name="Trazado 211826" d="M40.584,63.212a11,11,0,0,0,5.074,7.357,4.576,4.576,0,0,0,2.776.742c1.582-.055,3.168,0,4.752,0a2.518,2.518,0,0,1-.972.081c-2.625,0-5.25.01-7.874-.008a10.242,10.242,0,0,1-10.257-8.533,9.069,9.069,0,0,1-.153-1.629c-.017-2.37-.009-4.739-.007-7.109,0-.2-.08-.442.277-.465,2.074-.133,4.114-.52,6.163-.841q0,2.577,0,5.155c-.468.117-.6-.314-.846-.539a4.769,4.769,0,0,1-.4-.586.649.649,0,0,0-.905-.233.656.656,0,0,0-.252.907,3.642,3.642,0,0,0,1.723,1.825c.242.12.579.129.683.462l-.006.674c-.236.2-.513.128-.78.111a3.187,3.187,0,0,0-1.931.43.958.958,0,0,0-.005,1.8,3.377,3.377,0,0,0,2.305.425c.21-.033.419-.141.635-.026" transform="translate(-21.064 -32.802)" fill="#e9ab9c"/>
        <path id="Trazado_211827" data-name="Trazado 211827" d="M37.411,92.367a12.538,12.538,0,0,1-2.61.431c-2.348-.041-4.7-.024-7.044,0-.436,0-.553-.127-.551-.555q.026-4.56,0-9.119c0-.408.073-.49.526-.44.685.075.878.444,1.1,1.021a11.719,11.719,0,0,0,8.212,7.475.523.523,0,0,1,.133.088c.241.334.117.743.23,1.1" transform="translate(-16.898 -51.346)" fill="#454045"/>
        <path id="Trazado_211828" data-name="Trazado 211828" d="M67.773,110.473A2.759,2.759,0,0,1,64.461,108c-.031-.49,0-.984-.021-1.475-.015-.3.1-.363.377-.361q2.432.016,4.864,0c.269,0,.412.05.379.357-.027.252-.019.508-.027.763a.92.92,0,0,1-.674.153c-.856,0-1.712,0-2.568,0-.6.006-.7.128-.613.725a2.757,2.757,0,0,0,1.594,2.307" transform="translate(-40.024 -65.94)" fill="#e9ab9c"/>
        <path id="Trazado_211829" data-name="Trazado 211829" d="M70.3,112.286a1.067,1.067,0,0,1-.974-.468,3.735,3.735,0,0,1-.811-2.144c-.029-.44.1-.6.566-.59,1.16.033,2.321.012,3.482.013a2.768,2.768,0,0,1-2.262,3.189" transform="translate(-42.555 -67.753)" fill="#fecabd"/>
        <path id="Trazado_211830" data-name="Trazado 211830" d="M24.577,68.856a3.867,3.867,0,0,1-3.01-4.954,1.511,1.511,0,0,1,2.88.362,2.859,2.859,0,0,0-1.715-.1c-.564.179-.854.57-.732,1.033.128.486.532.693,1.12.574a1.037,1.037,0,0,1,1.359,1.066,13.737,13.737,0,0,0,.1,2.015" transform="translate(-13.264 -39.123)" fill="#e9ab9c"/>
        <path id="Trazado_211831" data-name="Trazado 211831" d="M114,64.258a1.514,1.514,0,0,1,1.545-1.269,1.463,1.463,0,0,1,1.44,1.249,3.936,3.936,0,0,1-2.707,4.574c-.339.1-.428.035-.369-.3a9.662,9.662,0,0,0,.07-1.635,1.035,1.035,0,0,1,1.381-1.091.847.847,0,0,0,1-.351.742.742,0,0,0-.092-.956,1.652,1.652,0,0,0-1.154-.406,4.1,4.1,0,0,0-1.115.188" transform="translate(-70.74 -39.123)" fill="#e9ab9c"/>
        <path id="Trazado_211832" data-name="Trazado 211832" d="M96.9,137.85c2.805,0,5.611-.006,8.416.012.411,0,.565-.116.516-.524-.06-.5.219-1.145-.119-1.469-.309-.3-.938-.082-1.426-.088-1.056-.012-2.113,0-3.17-.006-.176,0-.368.056-.522-.087,1.657-.006,3.314-.006,4.971-.026.305,0,.365.119.359.387-.016.746-.022,1.494-.01,2.24,0,.269-.092.337-.348.336-2.532-.008-5.063,0-7.595-.011a1.048,1.048,0,0,1-1.071-.763" transform="translate(-60.185 -84.261)" fill="#c5cfd9"/>
        <path id="Trazado_211833" data-name="Trazado 211833" d="M8.574,137a2.959,2.959,0,0,1-.139-.341c-.245-.9-.187-.977.741-.977.89,0,1.781.011,2.671-.006.3-.006.42.072.4.391-.031.6-.026,1.2-.036,1.8a3.759,3.759,0,0,1-3.4-.649A1.218,1.218,0,0,0,8.574,137" transform="translate(-5.162 -84.273)" fill="#fecabd"/>
        <path id="Trazado_211834" data-name="Trazado 211834" d="M125.035,137.871c-.011-.634-.018-1.268-.035-1.9-.006-.212.077-.284.287-.283,1.107.007,2.215.009,3.322,0,.253,0,.309.1.293.325a1.794,1.794,0,0,1-.241.985,3.683,3.683,0,0,1-3.626.876" transform="translate(-77.639 -84.276)" fill="#fecabd"/>
        <path id="Trazado_211835" data-name="Trazado 211835" d="M9,139.173c.481.149.853.5,1.335.669a7.681,7.681,0,0,0,2.306.193c.067.765.066.743-.681.77A2.738,2.738,0,0,1,9,139.173" transform="translate(-5.593 -86.443)" fill="#e8ab9c"/>
        <path id="Trazado_211836" data-name="Trazado 211836" d="M125.044,140.019a5.253,5.253,0,0,0,3.626-.876,2.478,2.478,0,0,1-2.234,1.63,5.962,5.962,0,0,1-.708.009c-.756,0-.756,0-.684-.763" transform="translate(-77.648 -86.424)" fill="#e8ab9c"/>
        <path id="Trazado_211837" data-name="Trazado 211837" d="M53.719,106.461c-.486-.283-.111-.744-.23-1.1.7.074,1.39.251,2.1.261.311,0,.423.173.414.5-.011.383-.256.323-.486.326q-.9.012-1.8.021" transform="translate(-33.206 -65.44)" fill="#524e55"/>
        <path id="Trazado_211838" data-name="Trazado 211838" d="M83.974,65.738a3.971,3.971,0,0,1-3.545-2.175c-.3-.559-.193-1.05.243-1.287s.9-.064,1.194.5a2.305,2.305,0,0,0,4.156-.012c.289-.555.757-.729,1.2-.482a.852.852,0,0,1,.256,1.239,3.971,3.971,0,0,1-3.507,2.22" transform="translate(-49.85 -38.614)"/>
        <path id="Trazado_211839" data-name="Trazado 211839" d="M46.638,65.616a4.209,4.209,0,0,1-2.467-2.069c-.281-.568-.183-1.044.259-1.276s.895-.052,1.193.5a2,2,0,0,0,1.008,1.009,2.228,2.228,0,0,0,2.962-.708c.084-.139.155-.286.239-.425a.83.83,0,0,1,1.112-.384.819.819,0,0,1,.349,1.125,3.9,3.9,0,0,1-2.764,2.248,5.044,5.044,0,0,1-1.891-.019" transform="translate(-27.337 -38.615)"/>
        <path id="Trazado_211840" data-name="Trazado 211840" d="M65.786,81.454a3.894,3.894,0,0,1-3.507-2.2.841.841,0,0,1,.3-1.264c.444-.221.856-.053,1.148.5a2.314,2.314,0,0,0,4.159.016c.308-.577.736-.747,1.19-.5a.857.857,0,0,1,.255,1.279,3.9,3.9,0,0,1-3.544,2.165" transform="translate(-38.585 -48.383)"/>
        <path id="Trazado_211841" data-name="Trazado 211841" d="M45.405,75.686a3.42,3.42,0,0,1-3.08-.308,1.088,1.088,0,0,1,.072-2.021,3.15,3.15,0,0,1,2.129-.421,4.27,4.27,0,0,0,.654.014c.269.14.55.26.8.423a1.148,1.148,0,0,1-.036,2.081,4.234,4.234,0,0,1-.543.231" transform="translate(-25.886 -45.276)" fill="#e38fb6"/>
        <path id="Trazado_211842" data-name="Trazado 211842" d="M91.363,75.9a3.181,3.181,0,0,1-1.886-.585,1.089,1.089,0,0,1,.018-1.865,3.622,3.622,0,0,1,3.743-.081,1.11,1.11,0,0,1-.054,2.065,3.39,3.39,0,0,1-1.821.466" transform="translate(-55.254 -45.271)" fill="#e38fb6"/>
        <path id="Trazado_211843" data-name="Trazado 211843" d="M68.141,68.072c.473,0,.947-.012,1.42,0a.781.781,0,0,1,.837.754.791.791,0,0,1-.786.867q-1.5.043-3,0a.811.811,0,1,1,.058-1.621c.491-.016.983,0,1.474,0" transform="translate(-40.884 -42.278)" fill="#010100"/>
      </g>
    </g>
  </g>
</svg>
