<svg xmlns="http://www.w3.org/2000/svg" xmlns:xlink="http://www.w3.org/1999/xlink" width="90" height="90" viewBox="0 0 90 90">
  <defs>
    <clipPath id="clip-path">
      <rect id="Rectángulo_338890" data-name="Rectángulo 338890" width="68.295" height="57.883" fill="none"/>
    </clipPath>
    <clipPath id="clip-path-2">
      <rect id="Rectángulo_338889" data-name="Rectángulo 338889" width="68.295" height="57.883" transform="translate(0 0)" fill="none"/>
    </clipPath>
    <clipPath id="clip-path-3">
      <rect id="Rectángulo_338888" data-name="Rectángulo 338888" width="55.435" height="24.453" transform="translate(4.658 1.86)" fill="none"/>
    </clipPath>
  </defs>
  <g id="Grupo_983969" data-name="Grupo 983969" transform="translate(7051 8139)">
    <path id="Trazado_207348" data-name="Trazado 207348" d="M45,0A45,45,0,1,1,0,45,45,45,0,0,1,45,0Z" transform="translate(-7051 -8139)" fill="#ffe891"/>
    <g id="Grupo_983963" data-name="Grupo 983963" transform="translate(-7048.147 -8122.941)">
      <g id="Grupo_983968" data-name="Grupo 983968" clip-path="url(#clip-path)">
        <g id="Grupo_983967" data-name="Grupo 983967">
          <g id="Grupo_983966" data-name="Grupo 983966" clip-path="url(#clip-path-2)">
            <path id="Trazado_211697" data-name="Trazado 211697" d="M63.3,9.9c-3.5-9-20-12.5-31.5-2.5-5.342,4.645-6.474,13.065-6.157,20.751a3.941,3.941,0,0,0-.684-.274c-2.341-.584-4.693,1.181-5.394,3.382a6.34,6.34,0,0,0,.821,5.277,7.979,7.979,0,0,0,3.626,3.03,10.251,10.251,0,0,0,3.121.308,23.223,23.223,0,0,0,7.661,13.039,21.012,21.012,0,0,0,17.864,4.521C57.635,56.4,65,53.212,66.833,48.044a13.1,13.1,0,0,0,.537-4.225C67.5,32.927,67.3,20.191,63.3,9.9" fill="#e29579"/>
            <path id="Trazado_211698" data-name="Trazado 211698" d="M59,27.963c0,1.669.661,3.023,1.477,3.023s1.476-1.354,1.476-3.023-.661-3.023-1.476-3.023S59,26.294,59,27.963" fill="#3d1525"/>
            <path id="Trazado_211699" data-name="Trazado 211699" d="M49.166,27.963c0,1.669-.661,3.023-1.477,3.023s-1.476-1.354-1.476-3.023.661-3.023,1.476-3.023,1.477,1.354,1.477,3.023" fill="#3d1525"/>
            <path id="Trazado_211700" data-name="Trazado 211700" d="M55.639,42.468a2.431,2.431,0,0,1-1.555.527,2.545,2.545,0,0,1-1.555-.527,7.966,7.966,0,0,0,1.556.174,6.726,6.726,0,0,0,1.554-.174" fill="#3d1525"/>
            <path id="Trazado_211701" data-name="Trazado 211701" d="M48.806,35.708l9.688,1.125s-2.563,5.25-6.438,4.187-3.25-5.312-3.25-5.312" fill="#fff"/>
            <path id="Trazado_211702" data-name="Trazado 211702" d="M50.394,17.478a3.5,3.5,0,0,0-2.288-.847,7.04,7.04,0,0,0-2.437.346,5.928,5.928,0,0,0-2.145,1.229,6.239,6.239,0,0,0-1.465,1.877.707.707,0,0,0,1.1.864l.06-.055a8.722,8.722,0,0,1,1.458-1.158,5.113,5.113,0,0,1,1.61-.661,6.285,6.285,0,0,1,1.744-.169,6.7,6.7,0,0,0,1.865-.108l.186-.046a.739.739,0,0,0,.316-1.272" fill="#3d1525"/>
            <path id="Trazado_211703" data-name="Trazado 211703" d="M57.774,17.478a3.5,3.5,0,0,1,2.288-.847,7.04,7.04,0,0,1,2.437.346,5.928,5.928,0,0,1,2.145,1.229,6.239,6.239,0,0,1,1.465,1.877.707.707,0,0,1-1.1.864l-.06-.055a8.762,8.762,0,0,0-1.458-1.158,5.113,5.113,0,0,0-1.61-.661,6.285,6.285,0,0,0-1.744-.169,6.7,6.7,0,0,1-1.865-.108l-.187-.046a.74.74,0,0,1-.315-1.272" fill="#3d1525"/>
            <path id="Trazado_211704" data-name="Trazado 211704" d="M57.064,23.063c.261,1.139.453,2.27.664,3.391s.424,2.232.742,3.291c.074.266.156.527.251.78a2.794,2.794,0,0,1,.256.976,1.964,1.964,0,0,1-1.06,1.792,2.381,2.381,0,0,1-1.927.1,4.7,4.7,0,0,1-1.526-.913c1.06.4,2.3.709,3.044.146a1.166,1.166,0,0,0,.524-1.078,2.158,2.158,0,0,0-.222-.671q-.171-.424-.3-.854a16.094,16.094,0,0,1-.554-3.478,18.456,18.456,0,0,1,.107-3.485" fill="#3d1525"/>
            <path id="Trazado_211705" data-name="Trazado 211705" d="M21.29,32.612a2.514,2.514,0,0,1,.787-2,2.34,2.34,0,0,1,2.281-.22A4.292,4.292,0,0,1,26.2,31.735a6.888,6.888,0,0,1,1.145,1.93.5.5,0,0,1-.827.543l-.033-.034a4.448,4.448,0,0,0-1.692-1.2.783.783,0,0,0-.711.078,1.882,1.882,0,0,0-.508.784c-.258.663-.413,1.438.152,1.746a3.788,3.788,0,0,0,2.237.152,3.517,3.517,0,0,1-2.458.331,1.388,1.388,0,0,1-.868-1.16,3.589,3.589,0,0,1,.144-1.338,2.511,2.511,0,0,1,.715-1.235,1.692,1.692,0,0,1,1.547-.319,4.866,4.866,0,0,1,2.2,1.482l-.86.509a5.394,5.394,0,0,0-2.321-2.9,1.89,1.89,0,0,0-1.718-.1,2.522,2.522,0,0,0-1.056,1.613" fill="#3d1525"/>
            <path id="Trazado_211706" data-name="Trazado 211706" d="M46.948.038A26.377,26.377,0,0,0,30.075,4.763,7.774,7.774,0,0,0,27.241,2.1a12.891,12.891,0,0,0-15.118,2.02C9.494,6.759,8.191,10.4,6.481,13.707,5.081,16.418,3.147,19.122.5,20.473A.876.876,0,0,0,.51,22.06c5.5,2.424,11.586,3.261,17.337,1.467.326-.1.648-.216.969-.332a33.818,33.818,0,0,0-.528,4.683c-.59,13.76,9.7,17.415,11.787,18.775-.44-4.55-2.757-5.435-2.977-6.775a9.88,9.88,0,0,1-3.09-.31,7.987,7.987,0,0,1-3.62-3.03,6.34,6.34,0,0,1-.83-5.28c.71-2.2,3.06-3.96,5.4-3.38a2.854,2.854,0,0,1,.383.143c.629.69,1.259,1.381,1.915,2.046a3.866,3.866,0,0,0,6.007-.671,17.454,17.454,0,0,0,2.6-6.571c.562-3.679.375-7.886,3.005-10.519a7.022,7.022,0,0,1,5.487-1.932,8.613,8.613,0,0,1,5.3,2.545c1.048,1.049,1.851,2.337,2.988,3.288a3.841,3.841,0,0,0,4.107.818c1.109-.594,1.627-1.889,2.3-2.981a3.347,3.347,0,0,1,4.465-1.206l.032.02a3.111,3.111,0,0,1,1.29,1.835,85.441,85.441,0,0,1,2.48,19.495,28.279,28.279,0,0,0,.97-8.15c-.34-15.33-4.5-25.16-21.34-26" fill="#3d1525"/>
            <g id="Grupo_983965" data-name="Grupo 983965" opacity="0.5" style="mix-blend-mode: screen;isolation: isolate">
              <g id="Grupo_983964" data-name="Grupo 983964">
                <g id="Grupo_983963-2" data-name="Grupo 983963" clip-path="url(#clip-path-3)">
                  <path id="Trazado_211707" data-name="Trazado 211707" d="M26.778,7.068A5.485,5.485,0,0,0,23.759,5a6.726,6.726,0,0,0-3.592-.077A11.468,11.468,0,0,0,14.321,9.1c-1.561,1.925-2.749,4.171-4.2,6.283a24.226,24.226,0,0,1-2.4,3.019,11.8,11.8,0,0,1-3.066,2.3,13.539,13.539,0,0,0,2.7-2.629,24.072,24.072,0,0,0,2.116-3.106,54.337,54.337,0,0,1,4.07-6.495A11.321,11.321,0,0,1,20,4.175a7.276,7.276,0,0,1,3.917.365,5.384,5.384,0,0,1,2.859,2.528" fill="#3d1525"/>
                  <path id="Trazado_211708" data-name="Trazado 211708" d="M22.762,11.508a6.4,6.4,0,0,0-3.758.46,5.586,5.586,0,0,0-2.642,2.441c-.627,1.077-1.03,2.378-1.827,3.538A5.373,5.373,0,0,1,11.2,20.232a6.589,6.589,0,0,0,2.672-2.693c.59-1.111.94-2.392,1.624-3.624a5.7,5.7,0,0,1,3.233-2.673,5.276,5.276,0,0,1,4.036.266" fill="#3d1525"/>
                  <path id="Trazado_211709" data-name="Trazado 211709" d="M55.231,15.512a21.344,21.344,0,0,0-2.7-5.183A19.885,19.885,0,0,0,48.55,6.172a18.707,18.707,0,0,0-5-2.831,10.635,10.635,0,0,0-5.695-.759A9.01,9.01,0,0,1,43.8,2.6a16.045,16.045,0,0,1,5.368,2.784A16.854,16.854,0,0,1,53.181,9.9a14.943,14.943,0,0,1,2.05,5.611" fill="#3d1525"/>
                  <path id="Trazado_211710" data-name="Trazado 211710" d="M42.273,10.052A16.261,16.261,0,0,0,31.031,6.894a9.221,9.221,0,0,1,11.242,3.158" fill="#3d1525"/>
                  <path id="Trazado_211711" data-name="Trazado 211711" d="M60.093,11.579a34.792,34.792,0,0,0-2.555-5.134,35.337,35.337,0,0,0-3.446-4.584,10.875,10.875,0,0,1,4.3,4.058,10.923,10.923,0,0,1,1.7,5.66" fill="#3d1525"/>
                  <path id="Trazado_211712" data-name="Trazado 211712" d="M35.192,15.81A11.677,11.677,0,0,0,25.1,13.845a6.747,6.747,0,0,1,5.463-1.168,6.761,6.761,0,0,1,4.625,3.133" fill="#3d1525"/>
                  <path id="Trazado_211713" data-name="Trazado 211713" d="M31.66,19.561a4.814,4.814,0,0,1,.713,2.8,4.368,4.368,0,0,1-1.183,2.786A3.591,3.591,0,0,1,28.349,26.3a2.819,2.819,0,0,1-2.419-1.57,3.251,3.251,0,0,0,2.423.789,3.284,3.284,0,0,0,2.114-1.067A4.452,4.452,0,0,0,31.6,22.26a8.2,8.2,0,0,0,.059-2.7" fill="#3d1525"/>
                </g>
              </g>
            </g>
          </g>
        </g>
      </g>
    </g>
  </g>
</svg>
