<svg xmlns="http://www.w3.org/2000/svg" xmlns:xlink="http://www.w3.org/1999/xlink" width="228" height="340" viewBox="0 0 228 340">
  <defs>
    <clipPath id="clip-path">
      <rect id="Rectángulo_44928" data-name="Rectángulo 44928" width="228" height="340" fill="#fff" stroke="#707070" stroke-width="1"/>
    </clipPath>
    <clipPath id="clip-path-2">
      <rect id="Rectángulo_45292" data-name="Rectángulo 45292" width="234.211" height="156.092" fill="#3c3fa7"/>
    </clipPath>
    <clipPath id="clip-path-3">
      <rect id="Rectángulo_45288" data-name="Rectángulo 45288" width="220.63" height="314.957" fill="none"/>
    </clipPath>
    <clipPath id="clip-path-4">
      <path id="Trazado_183365" data-name="Trazado 183365" d="M126.093,19.223s4.656,6.307,9.876.891a6.166,6.166,0,0,0-4.929-2.977,7.974,7.974,0,0,0-4.947,2.085" transform="translate(-126.093 -17.138)" fill="none"/>
    </clipPath>
    <clipPath id="clip-path-5">
      <path id="Trazado_183367" data-name="Trazado 183367" d="M142.108,19.115c6.173,2.708,6.682-4.452,6.682-4.452a5.976,5.976,0,0,0-2.154-.449c-3.8,0-4.527,4.9-4.527,4.9" transform="translate(-142.108 -14.214)" fill="none"/>
    </clipPath>
    <clipPath id="clip-path-7">
      <path id="Trazado_183370" data-name="Trazado 183370" d="M136.429,28.19c-.687.983,3.259,2.205,4.535,2.136,2.2-.119,2.57-1.147.114-2.068a7.985,7.985,0,0,0-2.782-.537,2.72,2.72,0,0,0-1.866.469" transform="translate(-136.349 -27.721)" fill="none"/>
    </clipPath>
    <clipPath id="clip-path-9">
      <path id="Trazado_183449" data-name="Trazado 183449" d="M77.5,22.991s3.62,4.934,9.618,3.6c0,0-.849-4.854-5.234-4.854A9.748,9.748,0,0,0,77.5,22.991" transform="translate(-77.495 -21.736)" fill="none"/>
    </clipPath>
    <clipPath id="clip-path-11">
      <path id="Trazado_183467" data-name="Trazado 183467" d="M79.793,34c.114,2.539,4.772,4.665,6.673,2.736,1.238-1.258-3.311-3.524-5.528-3.524-.7,0-1.17.228-1.145.788" transform="translate(-79.792 -33.217)" fill="none"/>
    </clipPath>
  </defs>
  <g id="Enmascarar_grupo_266" data-name="Enmascarar grupo 266" clip-path="url(#clip-path)">
    <g id="Grupo_174179" data-name="Grupo 174179" transform="translate(-14.376 24.656)">
      <g id="Grupo_174173" data-name="Grupo 174173" transform="translate(0 143.822)">
        <rect id="Rectángulo_44927" data-name="Rectángulo 44927" width="172.683" height="171.134" transform="translate(0)" fill="#fff0f1"/>
        <path id="Rectángulo_44926" data-name="Rectángulo 44926" d="M0,0H144.032a98.344,98.344,0,0,1,98.344,98.344v0a0,0,0,0,1,0,0H0a0,0,0,0,1,0,0V0A0,0,0,0,1,0,0Z" transform="translate(0 72.79)" fill="#fc5f65"/>
      </g>
      <g id="Grupo_175033" data-name="Grupo 175033" transform="translate(11.649 37.344)">
        <g id="Grupo_175032" data-name="Grupo 175032" clip-path="url(#clip-path-2)">
          <path id="Trazado_183468" data-name="Trazado 183468" d="M188.8,100.968h10.385a.486.486,0,0,0,.486-.486V9.278h34.051a.486.486,0,0,0,0-.973H199.187a.486.486,0,0,0-.486.486V100h-9.413V.487A.486.486,0,0,0,188.4.212L180.547,11.69a.484.484,0,0,0-.085.274V90.62h-8.451V45.7a.487.487,0,0,0-.486-.486h-52.2V10.637a.486.486,0,0,0-.486-.486H85.434a.486.486,0,0,0-.486.486v62.2H41.237V34.158a.486.486,0,0,0-.486-.486H20.3a.486.486,0,0,0-.486.486V50H12.482V9.714A.485.485,0,0,0,12.4,9.44L6.7,1.115a.486.486,0,0,0-.888.274V56.106H.486a.486.486,0,1,0,0,.973H6.3a.486.486,0,0,0,.486-.486V2.961l4.723,6.9v40.62a.486.486,0,0,0,.486.486H20.3a.486.486,0,0,0,.486-.486V34.644H40.265V73.323a.486.486,0,0,0,.486.486H85.434a.486.486,0,0,0,.486-.486v-62.2h32.434V45.7a.486.486,0,0,0,.486.486h52.2v44.92a.486.486,0,0,0,.486.486h9.423a.487.487,0,0,0,.486-.486V12.115l6.881-10.056v98.423a.486.486,0,0,0,.486.486" transform="translate(0 0)" fill="#3c3fa7"/>
          <path id="Trazado_183469" data-name="Trazado 183469" d="M.647,239.807H.67a.487.487,0,0,0,.463-.509c-.962-20.482,2.364-33.074,9.883-37.425,3.935-2.276,8.33-1.744,11.325-.9a23.763,23.763,0,0,1,5.685,2.449.487.487,0,0,0,.745-.465,46.052,46.052,0,0,1,.719-13.108c1.893-8.9,6.435-14.212,13.5-15.8,4.582-1.027,8.515-.454,11.693,1.7,5.907,4.011,7.266,12.211,7.279,12.293a.486.486,0,0,0,.942.079,38.181,38.181,0,0,1,7.32-11.863,34.117,34.117,0,0,1,27.016-11.361c10.967.249,19.818,3.867,26.308,10.754,12.813,13.6,12.162,35.593,12.153,35.813a.487.487,0,0,0,.463.5.5.5,0,0,0,.509-.456c.007-.116.776-11.65,6.881-16.1a9.927,9.927,0,0,1,8.678-1.308.486.486,0,0,0,.241-.943c-3.674-.941-6.868-.448-9.495,1.466-2.73,1.99-4.786,5.433-6.108,10.233-.143.521-.27,1.029-.382,1.516-.593-7.478-2.967-21.559-12.229-31.39-6.676-7.086-15.759-10.809-27-11.064-13.976-.3-22.823,6.193-27.787,11.712a40.249,40.249,0,0,0-6.9,10.673c-.708-2.7-2.66-8.183-7.344-11.365-3.407-2.316-7.6-2.938-12.452-1.849-15.807,3.544-15.361,24.31-15.051,29.017-2.536-1.394-10.383-5.034-17.194-1.1C2.672,205.572-.818,218.464.162,239.343a.486.486,0,0,0,.485.464" transform="translate(81.371 -84.201)" fill="#3c3fa7"/>
          <path id="Trazado_183470" data-name="Trazado 183470" d="M415.823,274.977h.017a.485.485,0,0,0,.47-.5,61.709,61.709,0,0,0-2.042-12.894c-2.437-8.633-6.621-13.344-12.1-13.626a3.868,3.868,0,0,0-2.957,1.1c-1.445,1.376-2.137,3.8-2.467,5.832-1.473-6.822-5.419-21.581-12.27-23.177-7.56-1.763-10.671,5.78-11.45,8.157-1.871-1.357-7.882-5.239-12.4-2.79-6.038,3.274-6.108,15.937-6.108,16.474a.486.486,0,0,0,.973,0c0-.126.068-12.621,5.6-15.619,4.734-2.567,11.823,3.067,11.895,3.125a.487.487,0,0,0,.778-.265,15.779,15.779,0,0,1,2.273-4.845c2.13-2.957,4.894-4.064,8.218-3.29,8.124,1.894,12.153,25.547,12.193,25.786a.486.486,0,0,0,.966-.081c0-.062.02-6.274,2.469-8.6a2.872,2.872,0,0,1,2.236-.837c12.257.628,13.212,25.33,13.221,25.58a.486.486,0,0,0,.485.47" transform="translate(-354.518 -118.884)" fill="#3c3fa7"/>
        </g>
      </g>
      <g id="Grupo_175031" data-name="Grupo 175031" transform="translate(18.44)">
        <g id="Grupo_175014" data-name="Grupo 175014">
          <g id="Grupo_175013" data-name="Grupo 175013" clip-path="url(#clip-path-3)">
            <path id="Trazado_183351" data-name="Trazado 183351" d="M145.737,10.814S149.028.467,135.263.9Z" transform="translate(-15.286 -0.1)"/>
            <path id="Trazado_183352" data-name="Trazado 183352" d="M131.786,36.83c.418-.85-1.821,12.063-1.821,12.063l-15.151.191,4.028-19.929Z" transform="translate(-12.975 -3.294)" fill="#ed8c6b"/>
            <path id="Trazado_183353" data-name="Trazado 183353" d="M120.543,29.962,132.28,36.92c.2-.4-.2,2.307-.68,5.261L119.188,31.245Z" transform="translate(-13.47 -3.385)"/>
            <path id="Trazado_183354" data-name="Trazado 183354" d="M135.133,2.078a18.214,18.214,0,0,1,11.358,16.04c.611,12.223-2.375,18.248-14.567,17.231A17.483,17.483,0,0,1,117.362,26l.841-12.112L123.684,2.34Z" transform="translate(-13.263 -0.234)" fill="#ed8c6b"/>
            <path id="Trazado_183355" data-name="Trazado 183355" d="M135.969,20.115s-3.461-6.056-9.876-.892c0,0,4.657,6.309,9.876.892" transform="translate(-14.25 -1.936)" fill="#fff"/>
            <path id="Trazado_183356" data-name="Trazado 183356" d="M142.109,19.115s.988-6.66,6.681-4.452c0,0-.51,7.16-6.681,4.452" transform="translate(-16.06 -1.605)" fill="#fff"/>
            <path id="Trazado_183357" data-name="Trazado 183357" d="M141.2,23.839a.6.6,0,0,1-.514-.9l1.581-2.672-2.182.275a.6.6,0,0,1-.149-1.183l3.388-.428a.592.592,0,0,1,.574.264.6.6,0,0,1,.015.632l-2.2,3.719a.6.6,0,0,1-.514.293" transform="translate(-15.756 -2.138)"/>
            <path id="Trazado_183358" data-name="Trazado 183358" d="M129.017,12.6a.6.6,0,0,1-.29-1.118,9.12,9.12,0,0,1,5.8-1.3.6.6,0,0,1,.468.7.6.6,0,0,1-.7.47,8.148,8.148,0,0,0-4.992,1.174.6.6,0,0,1-.29.075" transform="translate(-14.513 -1.142)"/>
            <path id="Trazado_183359" data-name="Trazado 183359" d="M141.946,10.441a.6.6,0,0,1-.442-1A4.208,4.208,0,0,1,145.455,8.2a.6.6,0,1,1-.315,1.15,2.978,2.978,0,0,0-2.755.9.6.6,0,0,1-.439.192" transform="translate(-15.974 -0.912)"/>
            <path id="Trazado_183360" data-name="Trazado 183360" d="M122,6.549c-.784-4.706,17.805,2.1,13.758-5.609,0,0-11.959-3.174-19.216,2.136S105.1,21.052,117.759,29.985l.149-7.1S123.8,17.366,122,6.549" transform="translate(-12.391 0.001)"/>
            <path id="Trazado_183361" data-name="Trazado 183361" d="M120.576,23.17c-2.129-1.9-5.13-1.848-6.7.108s-1.124,5.08,1,6.976,5.13,1.848,6.7-.107,1.124-5.081-1-6.977" transform="translate(-12.763 -2.46)" fill="#ed8c6b"/>
            <path id="Trazado_183362" data-name="Trazado 183362" d="M119.848,28a.6.6,0,0,1-.17-.025l-4.541-1.352a.6.6,0,1,1,.34-1.144l4.542,1.353a.6.6,0,0,1-.17,1.168" transform="translate(-12.964 -2.876)"/>
            <path id="Trazado_183363" data-name="Trazado 183363" d="M117.927,30.228a.6.6,0,0,1-.565-.788l.741-2.194a.6.6,0,0,1,.757-.373.594.594,0,0,1,.373.756l-.741,2.194a.6.6,0,0,1-.565.405" transform="translate(-13.26 -3.033)"/>
          </g>
        </g>
        <g id="Grupo_175016" data-name="Grupo 175016" transform="translate(111.843 15.202)">
          <g id="Grupo_175015" data-name="Grupo 175015" transform="translate(0)" clip-path="url(#clip-path-4)">
            <path id="Trazado_183364" data-name="Trazado 183364" d="M125.82,20.632a3.49,3.49,0,1,0,3.026-3.9,3.489,3.489,0,0,0-3.026,3.9" transform="translate(-126.059 -17.089)"/>
          </g>
        </g>
        <g id="Grupo_175018" data-name="Grupo 175018" transform="translate(126.048 12.609)">
          <g id="Grupo_175017" data-name="Grupo 175017" transform="translate(0)" clip-path="url(#clip-path-5)">
            <path id="Trazado_183366" data-name="Trazado 183366" d="M140.682,18.39a3.379,3.379,0,1,0,6.63-.836,3.379,3.379,0,1,0-6.63.836" transform="translate(-141.943 -14.201)"/>
          </g>
        </g>
        <g id="Grupo_175020" data-name="Grupo 175020">
          <g id="Grupo_175019" data-name="Grupo 175019" clip-path="url(#clip-path-3)">
            <path id="Trazado_183368" data-name="Trazado 183368" d="M136.429,28.19c.273-.391,2.192-.854,4.649.067s2.088,1.95-.114,2.068c-1.276.069-5.223-1.153-4.535-2.136" transform="translate(-15.409 -3.132)"/>
          </g>
        </g>
        <g id="Grupo_175022" data-name="Grupo 175022" transform="translate(120.94 24.589)">
          <g id="Grupo_175021" data-name="Grupo 175021" transform="translate(0)" clip-path="url(#clip-path-7)">
            <path id="Trazado_183369" data-name="Trazado 183369" d="M144.212,29.845a23.669,23.669,0,0,0-7.529-1.541c-3.766-.026.708,3.162.708,3.162l5.805,1.4Z" transform="translate(-136.216 -27.787)" fill="#fd521b"/>
          </g>
        </g>
        <g id="Grupo_175024" data-name="Grupo 175024">
          <g id="Grupo_175023" data-name="Grupo 175023" clip-path="url(#clip-path-3)">
            <path id="Trazado_183371" data-name="Trazado 183371" d="M175.091,294.546l21.875,45.4,43.453-35.834-5.353-7.362a8.061,8.061,0,0,0-11.137-1.867L207.06,306.668l-12.951-21Z" transform="translate(-19.787 -32.283)" fill="#5774cd"/>
            <path id="Trazado_183372" data-name="Trazado 183372" d="M90.412,277.739,58.784,307.574l11.947,24.216a8.243,8.243,0,0,0,7.391,4.6h29.449l-.513-10.5a8.877,8.877,0,0,0-7.621-8.323l-8.128-1.152-3.842-7.939,19.975-17.543Z" transform="translate(-6.643 -31.387)" fill="#5774cd"/>
            <path id="Trazado_183373" data-name="Trazado 183373" d="M201.854,298.228l-7.746-12.561-19.018,8.879,7.962,16.523Z" transform="translate(-19.787 -32.283)" fill="#ed8c6b"/>
            <path id="Trazado_183374" data-name="Trazado 183374" d="M93.667,305.182,109.9,290.929,92.868,277.74,80.5,289.4Z" transform="translate(-9.098 -31.387)" fill="#ed8c6b"/>
            <path id="Trazado_183375" data-name="Trazado 183375" d="M209.177,313.955a.5.5,0,0,1-.051,0,.346.346,0,0,1-.294-.393l1.617-11.319a.347.347,0,0,1,.637-.137l4.765,7.562.832-9.257a.348.348,0,0,1,.639-.157l3.58,5.544a.347.347,0,1,1-.583.377l-3.033-4.7-.834,9.275a.348.348,0,0,1-.265.307.352.352,0,0,1-.375-.153L211,303.273l-1.483,10.384a.348.348,0,0,1-.342.3" transform="translate(-23.6 -33.913)"/>
            <path id="Trazado_183376" data-name="Trazado 183376" d="M201.613,289.293l-2.236-3.626L175.091,297l4.973,10.324Z" transform="translate(-19.787 -32.283)"/>
            <path id="Trazado_183377" data-name="Trazado 183377" d="M98.2,305.458l11.689-10.265L87.354,277.74l-6.123,5.775Z" transform="translate(-9.18 -31.387)"/>
            <path id="Trazado_183378" data-name="Trazado 183378" d="M196.676,336.506a.347.347,0,0,1-.216-.619L239.7,301.637a.347.347,0,1,1,.431.545L196.891,336.43a.34.34,0,0,1-.216.075" transform="translate(-22.187 -34.079)"/>
            <path id="Trazado_183379" data-name="Trazado 183379" d="M203.255,320.567a5.443,5.443,0,1,1-5.443-5.443,5.442,5.442,0,0,1,5.443,5.443" transform="translate(-21.74 -35.612)" fill="#fff"/>
            <path id="Trazado_183380" data-name="Trazado 183380" d="M82.164,306.218a5.252,5.252,0,1,1-5.252-5.252,5.252,5.252,0,0,1,5.252,5.252" transform="translate(-8.098 -34.012)" fill="#fff"/>
            <path id="Trazado_183381" data-name="Trazado 183381" d="M107.79,336.207H81.728a8.633,8.633,0,0,1-7.7-4.8L62.412,307.737a.336.336,0,1,1,.6-.3l11.617,23.671a7.957,7.957,0,0,0,7.1,4.424H107.79a.335.335,0,1,1,0,.671" transform="translate(-7.049 -34.723)"/>
            <path id="Trazado_183382" data-name="Trazado 183382" d="M139.639,115.924,198.685,265.2l-37.142,19.047L104.164,125.685Z" transform="translate(-11.772 -13.1)" fill="#3c3fa7"/>
            <path id="Trazado_183383" data-name="Trazado 183383" d="M95.4,130.553s9.328,46.82,7.857,69.521c-2.2,33.962-26.107,58.744-26.107,58.744l34.1,27.288s36.446-43.831,35.183-83.566c-1.617-50.822-7.939-67.7-7.939-67.7l1.951-3.5-7.7-20.8-39.675,9.116Z" transform="translate(-8.719 -12.491)" fill="#3c3fa7"/>
            <path id="Trazado_183384" data-name="Trazado 183384" d="M166.517,293.361a.444.444,0,0,1-.2-.837l35.139-18.1a.443.443,0,0,1,.4.789l-35.137,18.1a.439.439,0,0,1-.2.05" transform="translate(-18.768 -31.007)"/>
            <path id="Trazado_183385" data-name="Trazado 183385" d="M92.637,269.761a.443.443,0,0,1-.362-.7c.286-.4,28.643-40.805,30.84-74.089,1.149-17.4-3.106-38.387-6.878-52.932-4.09-15.775-8.51-27.581-8.554-27.7a.443.443,0,1,1,.829-.311c.044.118,4.479,11.958,8.582,27.778,3.789,14.611,8.063,35.7,6.906,53.223-2.214,33.536-30.714,74.137-31,74.543a.442.442,0,0,1-.362.187" transform="translate(-10.419 -12.853)"/>
            <path id="Trazado_183386" data-name="Trazado 183386" d="M117.126,296.335a.441.441,0,0,1-.282-.1L83.638,268.826a.444.444,0,0,1,.565-.684l33.2,27.407a.444.444,0,0,1-.282.786" transform="translate(-9.434 -30.291)"/>
            <path id="Trazado_183387" data-name="Trazado 183387" d="M124.6,49.023s19.917,12.365,22.215,40.153c1.888,22.819-11.489,22.356-18.633,23.631-8.2,1.464-29.18,5.681-29.18,5.681l3.054-63.509Z" transform="translate(-11.189 -5.539)" fill="#c4d1ff"/>
            <path id="Trazado_183388" data-name="Trazado 183388" d="M130.972,55.645a7.83,7.83,0,0,0-1.316-9.448c-2.928-2.928-18.554-10.741-27.537-4.835s-6.967,14.084-1.576,16.672,30.429-2.389,30.429-2.389" transform="translate(-10.842 -4.43)" fill="#c4d1ff"/>
            <path id="Trazado_183389" data-name="Trazado 183389" d="M115.914,151.988l-.805,31.109s7.413,9.99,5.047,19.042-5.26,2.349-5.26,2.349-14.112-4.832-16.275-9.536c-.724-1.574,2.494-9.09,2.534-12.312.028-2.161-1.043-25.8-1.043-25.8Z" transform="translate(-11.133 -17.176)" fill="#ed8c6b"/>
            <path id="Trazado_183390" data-name="Trazado 183390" d="M117.132,212.9l2.712-9.061a2.882,2.882,0,0,0-1.993-3.563,2.817,2.817,0,0,0-3.575,2.054l-2.052,9.239a2.553,2.553,0,0,0,1.981,3.018,2.483,2.483,0,0,0,2.928-1.687" transform="translate(-12.676 -22.619)" fill="#ed8c6b"/>
            <path id="Trazado_183391" data-name="Trazado 183391" d="M106.225,210.243l2.607-11.013a2.6,2.6,0,0,1,2.663-1.968l.26.01a2.69,2.69,0,0,1,2.563,3.3l-2.868,11a2.622,2.622,0,0,1-3.078,1.864,2.677,2.677,0,0,1-2.147-3.2" transform="translate(-11.997 -22.292)" fill="#ed8c6b"/>
            <path id="Trazado_183392" data-name="Trazado 183392" d="M103.339,210.534h0a2.262,2.262,0,0,0,2.55-1.66l2.005-7.256a2.493,2.493,0,0,0-1.376-2.928l-.553-.245a2.269,2.269,0,0,0-3.163,1.676l-1.453,7.5a2.478,2.478,0,0,0,1.99,2.912" transform="translate(-11.449 -22.403)" fill="#ed8c6b"/>
            <path id="Trazado_183393" data-name="Trazado 183393" d="M99.476,207.366h0a1.963,1.963,0,0,0,1.927-1.42l1.539-6.023a1.85,1.85,0,0,0-1.447-2.225l-.665-.158a1.983,1.983,0,0,0-2.465,1.549l-.875,6.181a1.908,1.908,0,0,0,1.986,2.1" transform="translate(-11.016 -22.317)" fill="#ed8c6b"/>
            <path id="Trazado_183394" data-name="Trazado 183394" d="M107.358,203.651a.3.3,0,0,1,.391-.189.335.335,0,0,1,.2.412c-.114.359-1.242,4.7-1.822,6.948a.3.3,0,0,1-.382.218.332.332,0,0,1-.222-.4c.068-.266,1.684-6.515,1.831-6.981l0-.008" transform="translate(-11.924 -22.991)"/>
            <path id="Trazado_183395" data-name="Trazado 183395" d="M113.009,205.229a.3.3,0,0,1,.391-.187.331.331,0,0,1,.2.412c-.127.4-1.326,5.44-1.943,8.051a.3.3,0,0,1-.377.226.332.332,0,0,1-.231-.395c.074-.31,1.79-7.578,1.956-8.1l0-.008" transform="translate(-12.549 -23.169)"/>
            <path id="Trazado_183396" data-name="Trazado 183396" d="M102.341,201.526a.3.3,0,0,1,.4-.186.334.334,0,0,1,.192.416c-.159.465-1.014,4.19-1.443,6.1a.3.3,0,0,1-.375.231.332.332,0,0,1-.234-.393c.051-.226,1.252-5.549,1.463-6.162h0" transform="translate(-11.399 -22.75)"/>
            <path id="Trazado_183397" data-name="Trazado 183397" d="M120.328,203.651c.1-.29.3-.5.459-.474s.243.311.152.637l-2.241,8.04c-.09.325-.306.568-.48.541s-.243-.311-.152-.636l2.241-8.039q.009-.035.021-.069" transform="translate(-13.338 -22.96)"/>
            <path id="Trazado_183398" data-name="Trazado 183398" d="M109.023,175.342s13.511-1.751,15.468-17.409,11.834-63.972,8.7-85.018c-2.324-15.586-9.751-23.74-20.8-22.342C99.521,52.2,97.26,66.932,94.473,93.559c-3.176,30.353-3.257,47.644-3.889,57.993-1.206,19.774,11.665,22.534,11.665,22.534Z" transform="translate(-10.228 -5.697)" fill="#c4d1ff"/>
            <path id="Trazado_183399" data-name="Trazado 183399" d="M131.885,57.356a.44.44,0,0,1-.279-.1c-.157-.127-15.809-12.52-26.829-1.122a.443.443,0,1,1-.637-.616c11.586-11.983,27.859.917,28.023,1.048a.443.443,0,0,1-.279.789" transform="translate(-11.755 -5.698)"/>
            <path id="Trazado_183400" data-name="Trazado 183400" d="M148.138,238.515a.456.456,0,0,1-.152-.027.443.443,0,0,1-.265-.569c4.313-11.86,6.34-22.886,6.025-32.772-1.6-50.168-7.848-67.392-7.911-67.56a.444.444,0,0,1,.028-.372l1.951-3.5a.443.443,0,1,1,.774.431l-1.855,3.326c.695,2.046,6.389,20.186,7.9,67.646.318,10-1.727,21.137-6.079,33.1a.444.444,0,0,1-.417.292" transform="translate(-16.478 -15.085)"/>
            <path id="Trazado_183401" data-name="Trazado 183401" d="M135.56,113.349h-.029a.444.444,0,0,1-.414-.471c.02-.326,2.084-32.569,1.03-42.661-.993-9.516-5.679-15.521-8.534-16.584a.444.444,0,1,1,.31-.832c3.152,1.174,8.063,7.325,9.1,17.325,1.063,10.166-1.006,42.484-1.026,42.81a.444.444,0,0,1-.442.415" transform="translate(-14.389 -5.963)"/>
            <path id="Trazado_183402" data-name="Trazado 183402" d="M135.473,104.982s9.077-9.346,16.143-9.345c4.224,0,7.065-.075,8.668-.134a2.238,2.238,0,0,0,1.943-1.96,1.681,1.681,0,0,0-1.079-2.031,31.073,31.073,0,0,0-13.607,0c-6.486,1.534-16.372,10-16.372,10Z" transform="translate(-14.824 -10.255)" fill="#ed8c6b"/>
            <path id="Trazado_183403" data-name="Trazado 183403" d="M141.988,98.626s7.665-7.876,14.732-7.876c4.548,0,7.493-.085,9.014-.146a1.759,1.759,0,0,0,1.522-1.539,2.075,2.075,0,0,0-1.353-2.515,31.037,31.037,0,0,0-13.26.078c-6.486,1.534-16.373,10-16.373,10Z" transform="translate(-15.4 -9.703)" fill="#ed8c6b"/>
            <path id="Trazado_183404" data-name="Trazado 183404" d="M144.576,94.613s7.665-7.876,14.732-7.876c4.55,0,7.5-.085,9.017-.147a1.754,1.754,0,0,0,1.519-1.535,2.076,2.076,0,0,0-1.354-2.518,31.016,31.016,0,0,0-13.258.078c-6.486,1.534-16.373,10-16.373,10Z" transform="translate(-15.693 -9.25)" fill="#ed8c6b"/>
            <path id="Trazado_183405" data-name="Trazado 183405" d="M131.436,102.848s16.74-19.576,23.389-20.793c4.282-.784,8.372-.966,9.8-1.286a1.83,1.83,0,0,0,1.266-1.712,1.948,1.948,0,0,0-1.512-2.243c-2.954-.293-9.336-.548-14.779,1.8-5.941,2.569-22.124,18.93-22.124,18.93Z" transform="translate(-14.406 -8.659)" fill="#ed8c6b"/>
            <path id="Trazado_183406" data-name="Trazado 183406" d="M146.893,81.328l4.14-6.509a3.2,3.2,0,0,0-.421-4.052,1.886,1.886,0,0,0-2.726.386c-1.321,1.6-17.349,17.413-17.349,17.413L123.13,99.641l20.495-9.394Z" transform="translate(-13.915 -7.949)" fill="#ed8c6b"/>
            <path id="Trazado_183407" data-name="Trazado 183407" d="M150.735,91.646a.358.358,0,0,0-.02.151c.013.15.122.245.243.213a29.012,29.012,0,0,1,12.648-.51.288.288,0,0,0,.118-.546,29.367,29.367,0,0,0-12.813.514.275.275,0,0,0-.176.178" transform="translate(-17.032 -10.225)"/>
            <path id="Trazado_183408" data-name="Trazado 183408" d="M150.638,87.731a.334.334,0,0,0-.01.208.217.217,0,0,0,.3.162A17.788,17.788,0,0,1,154.3,86.87a32.335,32.335,0,0,1,13.452-.162,1.79,1.79,0,0,1,.934.71.212.212,0,0,0,.339.018.339.339,0,0,0,.036-.41,2.24,2.24,0,0,0-1.2-.89,32.778,32.778,0,0,0-13.628.166,18.233,18.233,0,0,0-3.452,1.262.294.294,0,0,0-.144.168" transform="translate(-17.021 -9.661)"/>
            <path id="Trazado_183409" data-name="Trazado 183409" d="M150.753,83.761a.277.277,0,0,0,0,.192.215.215,0,0,0,.292.131,19.4,19.4,0,0,1,4.65-1.645,29.111,29.111,0,0,1,6.538-.349.232.232,0,0,0,.228-.239.241.241,0,0,0-.216-.258,29.479,29.479,0,0,0-6.627.355,19.846,19.846,0,0,0-4.751,1.678.241.241,0,0,0-.117.135" transform="translate(-17.035 -9.215)"/>
            <path id="Trazado_183410" data-name="Trazado 183410" d="M148.145,80.156a.343.343,0,0,0,0,.241.211.211,0,0,0,.319.114c.762-.49,4.92-2.092,4.962-2.107a.325.325,0,0,0,.175-.365.222.222,0,0,0-.293-.186c-.174.067-4.246,1.635-5.049,2.151a.3.3,0,0,0-.116.153" transform="translate(-16.74 -8.796)"/>
            <path id="Trazado_183411" data-name="Trazado 183411" d="M142.635,90.6c-.006.039-.01.077-.013.117,0,.08.095.168.225.2s.239-.016.247-.095c0-.036.006-.073.012-.109.327-2.534,5.234-4.059,5.286-4.074.1-.032.119-.121.04-.2a.371.371,0,0,0-.331-.087,15.282,15.282,0,0,0-2.651,1.141c-1.195.662-2.636,1.732-2.814,3.111" transform="translate(-16.118 -9.756)"/>
            <path id="Trazado_183412" data-name="Trazado 183412" d="M66.7,272.9a.333.333,0,0,1-.2-.6l3.924-2.931-7.193-2.288a.333.333,0,0,1-.049-.615l3.332-1.67L51.9,250.789a.332.332,0,0,1-.067-.389.336.336,0,0,1,.352-.178l19.259,3.28-14.729-9.955a.332.332,0,1,1,.373-.551l16,10.816a.333.333,0,0,1,.122.4.34.34,0,0,1-.365.2l-19.707-3.356L67.31,264.641a.332.332,0,0,1-.081.538l-3.023,1.514,7.031,2.235a.333.333,0,0,1,.1.585l-4.441,3.319a.336.336,0,0,1-.2.066" transform="translate(-5.854 -27.454)"/>
            <path id="Trazado_183413" data-name="Trazado 183413" d="M85.342,15.382S88.695,4.788,76.676,6.3Z" transform="translate(-8.665 -0.695)" fill="#ffb6c8"/>
            <path id="Trazado_183414" data-name="Trazado 183414" d="M48.921,24.752C47.7,15.024,52.3,7.237,61.009,4.869,75.87.827,83.192,9.373,84.417,19.1S80.356,40.9,71.334,40.93c-11.439.035-21.188-6.451-22.413-16.178" transform="translate(-5.507 -0.433)" fill="#ffb6c8"/>
            <path id="Trazado_183415" data-name="Trazado 183415" d="M44.7,253.794l-17.716,7.429L21.2,249.132l19.872-11.023Z" transform="translate(-2.395 -26.908)" fill="#ed8c6b"/>
            <path id="Trazado_183416" data-name="Trazado 183416" d="M34.7,241.929l6.51,17.309,9.814-4.115-2.488-10.745-6.949-6.269Z" transform="translate(-3.921 -26.908)"/>
            <path id="Trazado_183417" data-name="Trazado 183417" d="M92.61,309.111,97.9,328.5l-14.05,4.176-7.732-21.952Z" transform="translate(-8.602 -34.932)" fill="#ed8c6b"/>
            <path id="Trazado_183418" data-name="Trazado 183418" d="M77.614,138.471s28.676,59.96,24.287,74.748c-5.814,19.589-49.814,38.459-49.814,38.459L32.621,220.735l29.8-19.935L52.2,185.063l14.6-54.451Z" transform="translate(-3.687 -14.76)" fill="#ffd947"/>
            <path id="Trazado_183419" data-name="Trazado 183419" d="M98.857,318.66l-2.605-9.549-20.135,1.966,3.614,10.26c5.38.237,12.624-.116,19.126-2.677" transform="translate(-8.602 -34.932)"/>
            <path id="Trazado_183420" data-name="Trazado 183420" d="M26.557,136.666S12.383,147.63,5.269,133,6.413,83.529,11.8,73.777C20.3,58.369,35.7,61.693,35.7,61.693Z" transform="translate(-0.283 -6.937)"/>
            <path id="Trazado_183421" data-name="Trazado 183421" d="M73.109,62.462S76.99,54.079,71.1,50.3s-6.174-1.344-6.174-1.344Z" transform="translate(-7.337 -5.445)" fill="#fd521b"/>
            <path id="Trazado_183422" data-name="Trazado 183422" d="M70.953,56.213a9.93,9.93,0,0,1,10.44,6.29c3.167,7.451,11.841,35.179,11.841,35.179l32.82-18.162,10.437,20.447s-37.646,39.769-53.3,28.947-12.24-72.7-12.24-72.7" transform="translate(-7.983 -6.344)" fill="#fc5f65"/>
            <path id="Trazado_183423" data-name="Trazado 183423" d="M28.816,142.906S39.63,227.259,64.724,296.377c0,0,22.3,4.533,34.779-6.293L69,158.618l3.591-4.559-7.064-17.067Z" transform="translate(-3.257 -15.481)" fill="#ffd947"/>
            <path id="Trazado_183424" data-name="Trazado 183424" d="M74.467,74.81s8.161,54.716.534,61.219S26.142,136.1,25.85,130.9s1.17-16.2,1.17-16.2l2.445-28.953L53.756,54.457l13.565,1.831Z" transform="translate(-2.917 -6.153)" fill="#fc5f65"/>
            <path id="Trazado_183425" data-name="Trazado 183425" d="M60.937,126.006,25.694,140.033l-.467-8.552L57.8,121.942Z" transform="translate(-2.851 -13.78)"/>
            <path id="Trazado_183426" data-name="Trazado 183426" d="M58.774,55.807s-13.65-6.389-32.522,7.939S-8.958,109.926,5.583,116.469,51.4,120.592,51.4,120.592l4.631-18.407L29.7,97.652,42.781,83.985Z" transform="translate(0 -6.146)" fill="#fc5f65"/>
            <path id="Trazado_183427" data-name="Trazado 183427" d="M65.45,105.976,51.029,54.894l2.6-.527,15.527,50.342Z" transform="translate(-5.767 -6.143)"/>
            <path id="Trazado_183428" data-name="Trazado 183428" d="M69.478,50.314s-12.393-7.556-19.012-4.978-5.553,9.954-5.553,9.954,8.6-3.857,25.659,7.024Z" transform="translate(-5.069 -5.062)" fill="#fc5f65"/>
            <path id="Trazado_183429" data-name="Trazado 183429" d="M72.765,43.515,71.185,50.9,70,56.424,64.846,50.8l-6.474-4.548,2.256-9.816Z" transform="translate(-6.597 -4.116)" fill="#ed8c6b"/>
            <path id="Trazado_183430" data-name="Trazado 183430" d="M71.5,50.66l1.529-7.146L60.892,36.431l-.188.82Z" transform="translate(-6.86 -4.116)"/>
            <path id="Trazado_183431" data-name="Trazado 183431" d="M83.582,129.6a.333.333,0,0,1-.333-.328c-.005-.419-.586-42.016-3.649-53.834-1.226-4.73-5.449-15.614-5.491-15.723a.333.333,0,0,1,.621-.24c.042.11,4.28,11.028,5.514,15.8,3.082,11.9,3.665,53.573,3.67,53.992a.333.333,0,0,1-.328.337Z" transform="translate(-8.373 -6.696)"/>
            <path id="Trazado_183432" data-name="Trazado 183432" d="M39.877,124.992c-4.657,0-9.614-.126-13.514-.53a.333.333,0,1,1,.069-.662c9.54.99,25.482.3,27.65.2l4.484-17.82-25.973-4.473a.332.332,0,0,1-.184-.557L45.487,87.484a.332.332,0,1,1,.48.459L33.321,101.158l25.711,4.428a.331.331,0,0,1,.265.409L54.667,124.4a.334.334,0,0,1-.306.251c-.109.005-6.9.339-14.484.339" transform="translate(-2.946 -9.874)"/>
            <path id="Trazado_183433" data-name="Trazado 183433" d="M32.154,103.3l-.038,0-10.139-1.173a.332.332,0,0,1-.292-.368.327.327,0,0,1,.368-.292l10.139,1.173a.332.332,0,0,1-.038.663" transform="translate(-2.45 -11.466)"/>
            <path id="Trazado_183434" data-name="Trazado 183434" d="M72.849,61.1a.333.333,0,0,1-.2-.6,5.721,5.721,0,0,0,2.152-3.956.332.332,0,0,1,.663.035,6.288,6.288,0,0,1-2.426,4.462.337.337,0,0,1-.194.062" transform="translate(-8.195 -6.353)"/>
            <path id="Trazado_183435" data-name="Trazado 183435" d="M69.688,60.117a.354.354,0,0,1-.117-.02,127.51,127.51,0,0,0-13.685-3.9c-7.509-1.762-10.835-.312-10.867-.3a.333.333,0,0,1-.279-.6c.139-.064,3.529-1.569,11.3.254,6.755,1.584,11.364,3.088,13.052,3.669-3.581-8.008-12.719-11-12.813-11.026a.333.333,0,0,1,.2-.634c.1.032,10.051,3.28,13.519,12.1a.332.332,0,0,1-.31.454" transform="translate(-5.034 -5.372)"/>
            <path id="Trazado_183436" data-name="Trazado 183436" d="M71.937,106.755,62.9,104.269a2.742,2.742,0,0,0-3.384,2.113,2.941,2.941,0,0,0,2.217,3.554l9.177,1.815a2.433,2.433,0,0,0,2.848-2.085,2.6,2.6,0,0,0-1.819-2.91" transform="translate(-6.717 -11.772)" fill="#ed8c6b"/>
            <path id="Trazado_183437" data-name="Trazado 183437" d="M70.238,117.8,59.29,115.475a2.708,2.708,0,0,1-2.08-2.633l-.005-.263A2.58,2.58,0,0,1,60.3,109.9l10.953,2.59a2.739,2.739,0,0,1,2,3.056,2.552,2.552,0,0,1-3.016,2.257" transform="translate(-6.465 -12.411)" fill="#ed8c6b"/>
            <path id="Trazado_183438" data-name="Trazado 183438" d="M69.772,120.511h0A2.362,2.362,0,0,0,68,117.981l-7.229-1.825a2.362,2.362,0,0,0-2.794,1.473l-.208.565a2.362,2.362,0,0,0,1.822,3.147l7.437,1.259a2.362,2.362,0,0,0,2.744-2.09" transform="translate(-6.512 -13.118)" fill="#ed8c6b"/>
            <path id="Trazado_183439" data-name="Trazado 183439" d="M67.337,124.941h0a2.046,2.046,0,0,0-1.5-1.906l-5.994-1.387a1.764,1.764,0,0,0-2.1,1.524l-.117.676a2.066,2.066,0,0,0,1.657,2.447l6.112.71a1.838,1.838,0,0,0,1.943-2.064" transform="translate(-6.509 -13.742)" fill="#ed8c6b"/>
            <path id="Trazado_183440" data-name="Trazado 183440" d="M59.943,109.712l.008-.01a.227.227,0,0,1,.32-.027,4.081,4.081,0,0,0,1.476.655l9.694,2.031a3.886,3.886,0,0,1,2.233,1.622,2.547,2.547,0,0,1,.12,2.079c-.934,2.846-5.019,1.746-5.274,1.674l-5.8-1.12c-.436-.085-2.784-.655-3.376-.844a.227.227,0,0,1,.137-.433c.582.185,2.9.747,3.324.83l5.806,1.123.022.005c.039.012,3.9,1.128,4.725-1.377a2.111,2.111,0,0,0-.088-1.722,3.467,3.467,0,0,0-1.939-1.4l-9.68-2.029a4.486,4.486,0,0,1-1.679-.752.228.228,0,0,1-.035-.31" transform="translate(-6.689 -12.388)"/>
            <path id="Trazado_183441" data-name="Trazado 183441" d="M58.621,121.266a.227.227,0,0,1,.25-.079c.575.183,4.137.845,4.737.93.561.081,2.383.414,2.461.428.034.006,3.43.586,3.835-1.606a1.736,1.736,0,0,0-.949-1.883,4.4,4.4,0,0,0-1.29-.516.227.227,0,1,1,.088-.445c1.048.206,2.939,1.082,2.6,2.927-.39,2.11-3.025,2.212-4.364,1.971-.02,0-1.891-.346-2.444-.426s-4.183-.749-4.809-.948a.226.226,0,0,1-.113-.353" transform="translate(-6.62 -13.345)"/>
            <path id="Trazado_183442" data-name="Trazado 183442" d="M62.843,103.9a.227.227,0,0,1,.236-.083c.059.015,5.843,1.462,8.191,2.072,2.475.644,3.694,2.093,3.346,3.976a2.905,2.905,0,0,1-2.814,2.289.227.227,0,0,1,0-.454,2.413,2.413,0,0,0,2.37-1.918c.3-1.642-.766-2.869-3.014-3.454-2.346-.61-8.128-2.057-8.187-2.07a.228.228,0,0,1-.165-.276.235.235,0,0,1,.039-.082" transform="translate(-7.097 -11.731)"/>
            <path id="Trazado_183443" data-name="Trazado 183443" d="M55.9,25.616C54.686,15.958,58.18,9.459,66.79,7.719c10.631-2.149,18.365,4.774,19.582,14.43S84,42.179,75.218,42.185c-11.136.007-18.1-6.911-19.316-16.569" transform="translate(-6.291 -0.827)" fill="#ed8c6b"/>
            <path id="Trazado_183444" data-name="Trazado 183444" d="M87.113,26.59s-1.368-7.83-9.618-3.6c0,0,3.62,4.934,9.618,3.6" transform="translate(-8.758 -2.456)" fill="#fff"/>
            <path id="Trazado_183445" data-name="Trazado 183445" d="M94.453,25.034l-4.562,1.652-.25,6.263Z" transform="translate(-10.131 -2.828)" fill="#ed8c6b"/>
            <path id="Trazado_183446" data-name="Trazado 183446" d="M66.684,7.7c-8.61,1.74-12.98,8.172-11.764,17.829.456,3.618,2.04,9.467,4.027,12.1l4.725-13.637c6.049.449,6.768-7.649,6.768-7.649,6.686-.38,6.661-5.631,6.055-8.34-2.808-1.126-6.184-1.032-9.81-.3" transform="translate(-6.184 -0.807)" fill="#ffb6c8"/>
            <path id="Trazado_183447" data-name="Trazado 183447" d="M79.832,17.874c.244.561,1.569.526,2.96-.081s2.319-1.552,2.074-2.114-1.569-.526-2.961.08-2.318,1.553-2.073,2.115" transform="translate(-9.018 -1.726)"/>
          </g>
        </g>
        <g id="Grupo_175026" data-name="Grupo 175026" transform="translate(68.737 19.28)">
          <g id="Grupo_175025" data-name="Grupo 175025" transform="translate(0)" clip-path="url(#clip-path-9)">
            <path id="Trazado_183448" data-name="Trazado 183448" d="M89.09,23.886a3.482,3.482,0,1,1-6.852.863,3.482,3.482,0,1,1,6.852-.863" transform="translate(-78.027 -21.585)"/>
          </g>
        </g>
        <g id="Grupo_175028" data-name="Grupo 175028">
          <g id="Grupo_175027" data-name="Grupo 175027" clip-path="url(#clip-path-3)">
            <path id="Trazado_183450" data-name="Trazado 183450" d="M66.2,25.462a4.916,4.916,0,0,0-6.6-2.106,4.916,4.916,0,0,0-1.367,6.8,4.916,4.916,0,0,0,6.6,2.1,4.916,4.916,0,0,0,1.367-6.8" transform="translate(-6.492 -2.573)" fill="#ed8c6b"/>
            <path id="Trazado_183451" data-name="Trazado 183451" d="M64.269,29.5a.464.464,0,0,1-.263-.082L60.011,26.67a.463.463,0,1,1,.526-.763l3.995,2.747a.464.464,0,0,1-.263.845" transform="translate(-6.759 -2.918)"/>
            <path id="Trazado_183452" data-name="Trazado 183452" d="M61.54,30.966a.458.458,0,0,1-.294-.1.464.464,0,0,1-.065-.653l1.464-1.789a.464.464,0,1,1,.718.587L61.9,30.8a.46.46,0,0,1-.358.17" transform="translate(-6.902 -3.192)"/>
            <path id="Trazado_183453" data-name="Trazado 183453" d="M83.62,333.317l-.145,16.658a2.1,2.1,0,0,0,2.461,2.087l44.339-7.743a3.19,3.19,0,0,0,2.581-3.763l-.693-3.5a8.886,8.886,0,0,0-9.744-7.1l-14.612,1.7-9.647-3.049Z" transform="translate(-9.434 -37.136)" fill="#d7e5ff"/>
            <path id="Trazado_183454" data-name="Trazado 183454" d="M104.981,332.477a.272.272,0,0,1-.272-.271l-.033-4.012-5,3.64a.27.27,0,0,1-.3.012.276.276,0,0,1-.126-.278l.514-3.009-16.329,2.851a.273.273,0,0,1-.237-.464l11.5-11.125-13.715,4.9a.273.273,0,0,1-.183-.514l14.9-5.323a.273.273,0,0,1,.281.453L84.214,330.722l15.836-2.765a.272.272,0,0,1,.316.314L99.9,331l4.886-3.558a.272.272,0,0,1,.433.217l.036,4.542a.273.273,0,0,1-.271.275Z" transform="translate(-9.111 -36.035)"/>
            <path id="Trazado_183455" data-name="Trazado 183455" d="M97.7,318.754a.276.276,0,0,1-.209-.1.273.273,0,0,1-.044-.273c.067-.175,1.69-4.3,4.352-5.193a3.3,3.3,0,0,1,2.894.416c.781.487,1.126,1.02,1.021,1.582-.379,2.042-7.187,3.411-7.962,3.56a.263.263,0,0,1-.052.005m5.1-5.185a2.629,2.629,0,0,0-.831.137c-1.923.643-3.315,3.313-3.814,4.4,2.794-.59,6.8-1.833,7.021-3.022.059-.32-.2-.663-.773-1.02a3.015,3.015,0,0,0-1.6-.5" transform="translate(-11.01 -35.374)"/>
            <path id="Trazado_183456" data-name="Trazado 183456" d="M105.947,323.549c-2.687,0-8.022-3.8-8.7-4.285a.273.273,0,0,1,.057-.474c.209-.084,5.151-2.057,8.1-.463a3.928,3.928,0,0,1,1.995,2.847c.21,1.063.035,1.785-.525,2.143a1.7,1.7,0,0,1-.934.232m-7.955-4.428c2.263,1.58,7.2,4.634,8.6,3.738.352-.225.447-.757.282-1.578a3.394,3.394,0,0,0-1.716-2.474c-2.225-1.2-5.864-.133-7.162.314" transform="translate(-10.978 -35.904)"/>
            <path id="Trazado_183457" data-name="Trazado 183457" d="M83.463,349.145a.273.273,0,0,1-.047-.541l49.056-8.565a.268.268,0,0,1,.315.221.271.271,0,0,1-.221.315L83.51,349.141a.291.291,0,0,1-.047,0" transform="translate(-9.402 -38.427)"/>
            <path id="Trazado_183458" data-name="Trazado 183458" d="M22.714,247.173,5.962,248.691a2.121,2.121,0,0,0-1.852,2.681l12.209,43.779a3.221,3.221,0,0,0,4.039,2.217l3.443-1.046a8.972,8.972,0,0,0,6.159-10.5l-3.168-14.513,2.1-10Z" transform="translate(-0.456 -27.933)" fill="#d7e5ff"/>
            <path id="Trazado_183459" data-name="Trazado 183459" d="M27.374,268.8a.282.282,0,0,1-.03-.561l4.016-.432-4.149-4.65a.28.28,0,0,1-.043-.311.273.273,0,0,1,.272-.157l3.067.216L26.013,246.79a.282.282,0,0,1,.453-.29l12.3,10.429-6.279-13.265a.281.281,0,1,1,.508-.24l6.836,14.442a.281.281,0,0,1-.082.343.278.278,0,0,1-.353-.009L26.8,247.521l4.355,15.615a.286.286,0,0,1-.052.254.274.274,0,0,1-.239.1l-2.774-.2,4.053,4.542a.281.281,0,0,1-.179.467L27.4,268.8l-.03,0" transform="translate(-2.939 -27.491)"/>
            <path id="Trazado_183460" data-name="Trazado 183460" d="M45.48,267.559c-.03,0-.062,0-.093,0-2.094-.177-4.152-6.885-4.38-7.649a.281.281,0,0,1,.345-.351c.183.051,4.5,1.268,5.657,3.858a3.336,3.336,0,0,1-.13,2.955c-.389.791-.859,1.191-1.4,1.191m-3.776-7.3c.873,2.746,2.517,6.635,3.73,6.737.32.036.642-.266.942-.875a2.8,2.8,0,0,0,.121-2.476c-.833-1.858-3.638-2.989-4.792-3.386" transform="translate(-4.633 -29.331)"/>
            <path id="Trazado_183461" data-name="Trazado 183461" d="M38.58,269.985a1.388,1.388,0,0,1-1.158-.495c-1.547-1.954,2.629-9.262,3.111-10.089a.3.3,0,0,1,.249-.14.284.284,0,0,1,.243.151c.106.2,2.582,4.971,1.275,8.1a3.966,3.966,0,0,1-2.665,2.291,3.674,3.674,0,0,1-1.056.181m2.176-9.838c-1.362,2.437-3.93,7.681-2.892,8.994.261.326.8.37,1.607.124a3.427,3.427,0,0,0,2.31-1.968c.979-2.344-.444-5.881-1.025-7.15" transform="translate(-4.191 -29.299)"/>
            <path id="Trazado_183462" data-name="Trazado 183462" d="M22.392,297.321a.282.282,0,0,1-.271-.206L8.614,248.679a.281.281,0,1,1,.542-.151l13.508,48.436a.281.281,0,0,1-.2.346.246.246,0,0,1-.075.011" transform="translate(-0.972 -28.062)"/>
            <path id="Trazado_183463" data-name="Trazado 183463" d="M51.97,260.436a.333.333,0,0,1-.323-.254l-8.559-35.173a.333.333,0,1,1,.647-.158l8.559,35.173a.332.332,0,0,1-.244.4.306.306,0,0,1-.079.01" transform="translate(-4.868 -25.381)"/>
            <path id="Trazado_183464" data-name="Trazado 183464" d="M91.246,235.08a.332.332,0,0,1-.325-.257l-17.169-74a.334.334,0,0,1,.063-.281l3.589-4.559a.333.333,0,1,1,.522.412l-3.49,4.433,17.133,73.842a.333.333,0,0,1-.247.4.323.323,0,0,1-.075.009" transform="translate(-8.334 -17.613)"/>
            <path id="Trazado_183465" data-name="Trazado 183465" d="M79.794,34c-.106-2.326,8.3,1.08,6.671,2.736-1.9,1.929-6.557-.2-6.671-2.736" transform="translate(-9.018 -3.753)"/>
          </g>
        </g>
        <g id="Grupo_175030" data-name="Grupo 175030" transform="translate(70.775 29.464)">
          <g id="Grupo_175029" data-name="Grupo 175029" transform="translate(0)" clip-path="url(#clip-path-11)">
            <path id="Trazado_183466" data-name="Trazado 183466" d="M87.6,35.292s-6.292-1.488-9.427-.7-.571,5.261-.571,5.261l9.686,2.237L89.7,35.911Z" transform="translate(-79.433 -33.346)" fill="#fd521b"/>
          </g>
        </g>
      </g>
    </g>
  </g>
</svg>
