<svg xmlns="http://www.w3.org/2000/svg" xmlns:xlink="http://www.w3.org/1999/xlink" width="295" height="174.496" viewBox="0 0 295 174.496">
  <defs>
    <clipPath id="clip-path">
      <path id="Trazado_210537" data-name="Trazado 210537" d="M229.363,192.928V55.473c0-8.45.59-17.463,18.3-17.463S375.679,36.1,392.38,37.8c13.876,1.409,20.619,6.41,21.21,27.254s-.416,114.928,0,125.625c.261,6.76.261,19.435-20.667,20.28-21.311.86-123.113.63-142.3.54-22.733.09-21.257-18.566-21.257-18.566" transform="translate(-229.343 -37.095)" fill="#3c3fa7"/>
    </clipPath>
  </defs>
  <g id="Grupo_984128" data-name="Grupo 984128" transform="translate(-180 -2457)">
    <rect id="Rectángulo_338953" data-name="Rectángulo 338953" width="295" height="109" rx="14" transform="translate(180 2522)" fill="#a6bbff"/>
    <g id="Enmascarar_grupo_458" data-name="Enmascarar grupo 458" transform="translate(235 2457)" clip-path="url(#clip-path)">
      <g id="Grupo_983613" data-name="Grupo 983613" transform="translate(0 0)">
        <path id="Trazado_188886" data-name="Trazado 188886" d="M229.361,181.2V54.091c0-7.814.556-16.149,17.227-16.149s120.473-1.764,136.19-.2c13.059,1.3,19.4,5.928,19.961,25.2s-.391,106.281,0,116.173c.246,6.251.246,17.972-19.45,18.754-20.056.8-115.863.582-133.923.5-21.394.083-20.005-17.169-20.005-17.169" transform="translate(-229.343 -23.966)" fill="#3c3fa7"/>
        <g id="Grupo_983612" data-name="Grupo 983612" transform="translate(9.132 0)">
          <path id="Trazado_188887" data-name="Trazado 188887" d="M361.7,196.3a134.867,134.867,0,0,1,6.183-15.99c3.276-6.6,8.548-8.62,12.09-7.719a8.55,8.55,0,0,1,4.836,3.295l7.9,10.987s-2.187,2.935-7.045,16.218c-8.969.825-16.893-2.027-23.961-6.791" transform="translate(-353.948 -37.152)" fill="#b16860"/>
          <path id="Trazado_188888" data-name="Trazado 188888" d="M392.954,228.785c-7.808.545-15.647.709-23.492.7a223.761,223.761,0,0,1,7.254-30.762c7.068,4.764,14.993,7.617,23.961,6.791-.416,1.137-.849,2.342-1.3,3.635-1.815,5.159-3.951,11.616-6.418,19.634" transform="translate(-368.961 -39.577)" fill="#b57567"/>
          <path id="Trazado_188889" data-name="Trazado 188889" d="M245.683,156.842a21.019,21.019,0,0,1,1.961-6.89c.38-1.817,1.149-2.807,1.18-6.267a7.149,7.149,0,0,0-.836-4.112c-4.357-6.021-11.218.51-11.218.51s1.253-10.8-.985-10.481-2.39,13.973-2.39,13.973a96.882,96.882,0,0,0,.027,10.194l-.958,3.625" transform="translate(-92.726 -33.212)" fill="#b57567"/>
          <path id="Trazado_188890" data-name="Trazado 188890" d="M240.5,153.834a.194.194,0,0,0,.144-.064c.311-.348,7.6-8.542,6.908-11.283a1.223,1.223,0,0,0-.838-.986c-1.508-.414-4.3,2.336-4.416,2.453a.194.194,0,0,0,.273.276c.761-.756,2.956-2.65,4.039-2.355a.86.86,0,0,1,.567.707c.644,2.543-6.747,10.845-6.821,10.929a.193.193,0,0,0,.144.323" transform="translate(-98.625 -34.305)" fill="#503a33"/>
          <path id="Trazado_188891" data-name="Trazado 188891" d="M241.359,149.777a.2.2,0,0,0,.1-.03.2.2,0,0,0,.06-.269,8.869,8.869,0,0,0-4.1-3.295.194.194,0,0,0-.132.366,8.622,8.622,0,0,1,3.9,3.138.2.2,0,0,0,.164.09" transform="translate(-89.722 -34.739)" fill="#503a33"/>
          <path id="Trazado_188892" data-name="Trazado 188892" d="M235.74,146.276a2.152,2.152,0,0,0,1.746-1.435,6.508,6.508,0,0,0-.724-6.447.194.194,0,1,0-.3.243,6.105,6.105,0,0,1,.674,6.04c-.423.912-1.045,1.267-1.5,1.2-.37-.048-.636-.366-.725-.872a.189.189,0,0,0-.225-.156.193.193,0,0,0-.158.224,1.308,1.308,0,0,0,1.059,1.189,1.219,1.219,0,0,0,.153.009" transform="translate(-83.825 -34.016)" fill="#503a33"/>
          <path id="Trazado_188893" data-name="Trazado 188893" d="M238.807,145.167c.559,0,1.2-.386,1.592-1.352a4.657,4.657,0,0,0-1.747-5.957.194.194,0,0,0-.264.073.2.2,0,0,0,.072.265,4.21,4.21,0,0,1,1.579,5.473c-.4.988-1.076,1.236-1.525,1.053-.557-.227-.861-1.1-.364-2.325.784-1.93-1.168-3.852-1.252-3.933a.193.193,0,0,0-.273,0,.2.2,0,0,0,0,.274c.018.018,1.848,1.821,1.162,3.508-.622,1.532-.136,2.541.577,2.831a1.167,1.167,0,0,0,.44.085" transform="translate(-88.466 -33.971)" fill="#503a33"/>
          <path id="Trazado_188894" data-name="Trazado 188894" d="M233.789,147.513a1.4,1.4,0,0,0,1.025-.539,5.135,5.135,0,0,0,.93-3.926.186.186,0,0,0-.218-.166.2.2,0,0,0-.167.219,4.8,4.8,0,0,1-.834,3.615,1.156,1.156,0,0,1-.749.409c-.787-.017-.829-1-.83-1.037a.187.187,0,0,0-.2-.188.194.194,0,0,0-.188.2c.015.48.289,1.393,1.209,1.413Z" transform="translate(-79.784 -34.436)" fill="#503a33"/>
          <path id="Trazado_188895" data-name="Trazado 188895" d="M256.61,183.573c1.191,1.909,1.889,3.105,1.889,3.105l10.23-31.508-.087-1.968a100.347,100.347,0,0,1,12.4,2.181c.373,8.7,2.018,48.442-9.308,57.8-12.056,9.965-27.48-4.772-36.294-15.5a38.966,38.966,0,0,0,21.168-14.111" transform="translate(-127.947 -35.386)" fill="#b57567"/>
          <path id="Trazado_188896" data-name="Trazado 188896" d="M265.51,155.651c8.84,2.829,20.8,20.822,25.368,28.147a38.966,38.966,0,0,1-21.168,14.111,109.139,109.139,0,0,1-7.026-9.511Z" transform="translate(-162.215 -35.611)" fill="#b16860"/>
          <path id="Trazado_188897" data-name="Trazado 188897" d="M361.865,187.492s3.716,20.82,3.684,31.612H282.982c.159-3.271.5-6.3.738-8.443a174.8,174.8,0,0,0,.664-17.67c-11.919-3.348-18.792-13.87-18.792-13.87s6.005-16.434,15.761-21.321,26.217-7.971,26.217-7.971c20.7-3.291,34.366-.922,46.548.934,14.2,2.165,26.049,23.207,26.049,23.207-6.575,10.893-18.3,13.522-18.3,13.522" transform="translate(-254.143 -34.924)" fill="#e3aba3"/>
          <path id="Trazado_188898" data-name="Trazado 188898" d="M393.128,196.1c.7.238.3,3.821.3,3.821s-12.294,1.212-22.78-13.326c0,0-.462-3.822,4.358-4.607,0,0,7.537,10.528,18.126,14.112" transform="translate(-362.888 -38.036)" fill="#e28279"/>
          <path id="Trazado_188899" data-name="Trazado 188899" d="M261.6,188.888c-.669.225.706,3.824.706,3.824s11.6,1.436,21.772-12.908c0,0,.507-3.813-4.036-4.686,0,0-8.37,10.379-18.443,13.77" transform="translate(-154.285 -37.403)" fill="#e28279"/>
          <path id="Trazado_188900" data-name="Trazado 188900" d="M300.928,224.585h-.623a69.96,69.96,0,0,0,14.562-16.766.2.2,0,0,1,.271-.064.2.2,0,0,1,.064.272,70.364,70.364,0,0,1-14.275,16.558" transform="translate(-220.725 -40.405)" fill="#d49a2c"/>
          <path id="Trazado_188901" data-name="Trazado 188901" d="M295.041,224.974a63.372,63.372,0,0,0,6.188-12.887.2.2,0,1,1,.373.128,63.83,63.83,0,0,1-6.1,12.759Z" transform="translate(-202.327 -40.795)" fill="#d49a2c"/>
          <path id="Trazado_188902" data-name="Trazado 188902" d="M314.415,154.8a2.821,2.821,0,0,1,1.73-4.666,154.479,154.479,0,0,1,15.455-1.474c4.426-.116,9.67-.107,13.556-.074a3.925,3.925,0,0,1,3.355,5.93c-2.25,3.712-6.623,7.9-14.971,8.373a23.221,23.221,0,0,1-19.125-8.09" transform="translate(-266.733 -34.959)" fill="#e28279"/>
          <path id="Trazado_188903" data-name="Trazado 188903" d="M280.629,219.147c2.5-6.945,11.807-32.8,14.326-39.1,0,0-.364-22.707-2.188-28.178a35.806,35.806,0,0,1,8.32-1.721s2.44,16.4,2.8,27.345c0,0,24.986-1.459,33.011-1.823,0,0-1.285-21.9-2.38-27a52.33,52.33,0,0,1,6.823.65,94.874,94.874,0,0,1,4.492,26.536s14.591,33.557,17.509,36.476l.7,6.822Z" transform="translate(-251.676 -34.968)" fill="#cc555f"/>
          <path id="Trazado_188904" data-name="Trazado 188904" d="M327.249,213.1c16.966-1.368,16.889-20.272,16.886-20.463a.216.216,0,0,0-.066-.153.252.252,0,0,0-.154-.061c-13.8.271-36.711,1.628-36.94,1.642a.217.217,0,0,0-.2.252c.032.194,3.284,18.85,18.833,18.85q.8,0,1.643-.067m16.45-20.239c-.044,2.1-.9,18.55-16.486,19.808-15.562,1.252-19.522-15.948-19.967-18.186,2.5-.146,23.419-1.356,36.454-1.622" transform="translate(-255.5 -38.997)" fill="#e28279"/>
          <path id="Trazado_188905" data-name="Trazado 188905" d="M346.778,183.068l9-1.227a2.376,2.376,0,0,0,2.033-2.675l-.119-.873a2.379,2.379,0,0,0-2.676-2.032l-9,1.227a2.376,2.376,0,0,0-2.033,2.674l.119.872a2.376,2.376,0,0,0,2.348,2.056,2.47,2.47,0,0,0,.327-.022m10.489-4.716.118.873a1.94,1.94,0,0,1-1.662,2.185l-9,1.227a1.938,1.938,0,0,1-2.186-1.662l-.119-.872a1.941,1.941,0,0,1,1.662-2.186l9-1.228a1.984,1.984,0,0,1,.263-.018,1.945,1.945,0,0,1,1.924,1.68" transform="translate(-302.968 -37.507)" fill="#e28279"/>
          <path id="Trazado_188906" data-name="Trazado 188906" d="M353.347,186.006a3.283,3.283,0,1,1-3.283-3.283,3.283,3.283,0,0,1,3.283,3.283" transform="translate(-301.039 -38.104)" fill="#e28279"/>
          <path id="Trazado_188907" data-name="Trazado 188907" d="M300.737,178.206l9.088-.012a2.377,2.377,0,0,0,2.372-2.378v-.881a2.374,2.374,0,0,0-2.374-2.372h0l-9.087.011a2.374,2.374,0,0,0-2.373,2.379v.88a2.376,2.376,0,0,0,2.374,2.372Zm9.093-.227h0Zm1.362-4.415a1.931,1.931,0,0,1,.571,1.373v.88a1.944,1.944,0,0,1-1.939,1.945l-9.088.012h0a1.944,1.944,0,0,1-1.941-1.94v-.881a1.94,1.94,0,0,1,1.94-1.944l9.087-.01h0a1.931,1.931,0,0,1,1.37.566" transform="translate(-215.923 -37.168)" fill="#e28279"/>
          <path id="Trazado_188908" data-name="Trazado 188908" d="M308.551,182.21a3.283,3.283,0,1,1-2.814-3.693,3.282,3.282,0,0,1,2.814,3.693" transform="translate(-215.626 -37.714)" fill="#e28279"/>
          <path id="Trazado_188909" data-name="Trazado 188909" d="M381.613,41.568c0,9.671-8.217,17.512-18.354,17.512s-18.353-7.841-18.353-17.512,8.217-17.512,18.353-17.512,18.354,7.841,18.354,17.512" transform="translate(-327.602 -23.497)" fill="#503a33"/>
          <ellipse id="Elipse_4872" data-name="Elipse 4872" cx="18.676" cy="17.819" rx="18.676" ry="17.819" transform="translate(15.97 0)" fill="none" stroke="#503a33" stroke-linecap="round" stroke-linejoin="round" stroke-width="0.438"/>
          <path id="Trazado_188910" data-name="Trazado 188910" d="M301.142,47.615s-23.911-.337-25.931,16.839,4.714,19.869,1.346,24.247-10.439,9.43-8.419,16.5,5.389,8.756,3.7,13.471-2.357,6.735-1.01,10.776c0,0,14.481,5.052,22.9,3.368l1.01-9.766,2.694,9.429a67.709,67.709,0,0,0,35.361,1.011c19.2-4.715,30.983-2.694,37.718-7.746l-3.368-13.808,7.072,12.124s2.441,1.684,13.892-3.031c0,0,4.041-6.82,2.021-14.4-2.527-9.476-6.062-7.662-7.072-15.408s-.31-17.974-9.514-25.763c-8.755-7.409-4.041-11.787-9.429-19.2s-31.656-12.123-52.2-1.683" transform="translate(-266.664 -24.829)" fill="#503a33"/>
          <path id="Trazado_188911" data-name="Trazado 188911" d="M285.126,114.149l-.375-14.768s11.008-8.412,15.649,4.133-8.55,17.388-15.274,10.635" transform="translate(-192.739 -30.177)" fill="#b57567"/>
          <path id="Trazado_188912" data-name="Trazado 188912" d="M295.787,133.835c.122,0,.243,0,.364-.007a8.9,8.9,0,0,0,3.206-17.044.463.463,0,1,0-.372.847,7.974,7.974,0,1,1-10.937,9.233.463.463,0,1,0-.9.222,8.927,8.927,0,0,0,8.637,6.749" transform="translate(-198.222 -32.03)" fill="#e19e2c"/>
          <path id="Trazado_188913" data-name="Trazado 188913" d="M384.438,119.3l-4.326-14.125S367,100.687,366.58,114.056s13.621,13.779,17.857,5.242" transform="translate(-350.097 -30.898)" fill="#b57567"/>
          <path id="Trazado_188914" data-name="Trazado 188914" d="M368.6,137.169a8.895,8.895,0,0,0,8.7-10.72.463.463,0,0,0-.906.189,7.974,7.974,0,1,1-13.866-3.546.463.463,0,0,0-.7-.6,8.9,8.9,0,0,0,6.774,14.679" transform="translate(-336.913 -32.544)" fill="#e19e2c"/>
          <path id="Trazado_188915" data-name="Trazado 188915" d="M337.23,147.677a42.144,42.144,0,0,0,5.478-2.023l-.177-9.389-23.914,1.847.043,9.449a32.288,32.288,0,0,0,18.571.116" transform="translate(-264.826 -33.827)" fill="#b16860"/>
          <path id="Trazado_188916" data-name="Trazado 188916" d="M337.085,148.629a32.288,32.288,0,0,1-18.571-.116l.027,5.855c9.026,6.747,20.163,4.325,24.114-2.806l-.093-4.956a42.145,42.145,0,0,1-5.478,2.023" transform="translate(-264.682 -34.779)" fill="#b57567"/>
          <path id="Trazado_188917" data-name="Trazado 188917" d="M369.393,67.43s1.024,15.758,1.392,34.443c.3,15.126-11.512,30.16-29.957,31.709-17.336,1.455-35.5-5.192-41.373-29.436S297.031,59.9,319.021,54.073s44.054-5.307,50.373,13.357" transform="translate(-273.209 -25.958)" fill="#b57567"/>
          <path id="Trazado_188918" data-name="Trazado 188918" d="M326.934,63.948c-.1-.13-.162-.2-.162-.2s.058.074.162.2" transform="translate(-256.458 -27.15)" fill="#503a33"/>
          <path id="Trazado_188919" data-name="Trazado 188919" d="M348.422,96.777s-3.022-3.324,3.153-7.67,8.391-3.456,9.445-1.362c.961,1.91-.416,4.828-3.923,7.177-4.21,2.82-7.033,3.769-8.675,1.855" transform="translate(-309.828 -29.2)" fill="#503a33"/>
          <path id="Trazado_188920" data-name="Trazado 188920" d="M318.683,93.124s2.172-3.934-4.841-6.733-8.962-1.424-9.5.858c-.494,2.081,1.521,4.6,5.477,6.076,4.748,1.77,7.712,2.04,8.869-.2" transform="translate(-228.089 -29.091)" fill="#503a33"/>
          <path id="Trazado_188921" data-name="Trazado 188921" d="M381.6,120.161a.267.267,0,0,1-.251-.374c.028-.065,2.762-6.54-1.774-9.442a5.928,5.928,0,0,0-4.638-1.007,7.381,7.381,0,0,0-4.079,3.119.268.268,0,0,1-.461-.273,7.808,7.808,0,0,1,4.413-3.366,6.447,6.447,0,0,1,5.055,1.076c4.921,3.148,2.007,10.036,1.977,10.105a.266.266,0,0,1-.241.162" transform="translate(-351.827 -31.286)" fill="#503a33"/>
          <path id="Trazado_188922" data-name="Trazado 188922" d="M370.673,115.491a.268.268,0,0,1-.169-.479c.044-.034,4.473-3.4,7.868-.123a.268.268,0,1,1-.371.386c-3.064-2.954-7.128.13-7.169.162a.266.266,0,0,1-.159.055" transform="translate(-347.591 -31.727)" fill="#503a33"/>
          <path id="Trazado_188923" data-name="Trazado 188923" d="M331.374,108.145a.268.268,0,0,1-.121-.509,7.224,7.224,0,0,0,3.057-2.976,4.56,4.56,0,0,0-.575-4.734,1.889,1.889,0,0,0-2.36-.1c-.029.016-.075.045-.138.083-3.258,1.975-4.76,1.143-5.448.1-1.26-1.92-.492-17.279-.4-19.024a.274.274,0,0,1,.282-.253.269.269,0,0,1,.253.282c-.248,4.693-.672,17.2.311,18.7.812,1.235,2.4,1.148,4.723-.261.071-.044.125-.076.16-.1a2.409,2.409,0,0,1,2.983.179,5.073,5.073,0,0,1,.693,5.351,7.635,7.635,0,0,1-3.311,3.231.26.26,0,0,1-.11.026" transform="translate(-263.23 -28.714)" fill="#503a33"/>
          <path id="Trazado_188924" data-name="Trazado 188924" d="M337.1,120.882a8.094,8.094,0,0,0,.631-2.52,40.781,40.781,0,0,0-12.6-1.961,11.22,11.22,0,0,0,.217,2.878,30.87,30.87,0,0,1,11.748,1.6" transform="translate(-265.744 -31.998)"/>
          <path id="Trazado_188925" data-name="Trazado 188925" d="M325.808,119.566c.437,2.1,1.658,4.648,5.006,5.064,4.127.514,5.941-1.6,6.741-3.461a30.869,30.869,0,0,0-11.748-1.6" transform="translate(-266.205 -32.285)" fill="#7c3645"/>
          <path id="Trazado_188926" data-name="Trazado 188926" d="M291.53,113.925a.271.271,0,0,0,.1-.055.268.268,0,0,0,.021-.379c-.047-.053-4.693-5.327-1.31-9.517a5.927,5.927,0,0,1,4.079-2.425,7.382,7.382,0,0,1,4.857,1.664.268.268,0,0,0,.351-.4,7.8,7.8,0,0,0-5.251-1.793,6.448,6.448,0,0,0-4.453,2.622c-3.669,4.546,1.279,10.155,1.329,10.212a.267.267,0,0,0,.28.076" transform="translate(-194.555 -30.579)" fill="#503a33"/>
          <path id="Trazado_188927" data-name="Trazado 188927" d="M299.7,107.468a.268.268,0,0,0,.008-.508c-.053-.018-5.319-1.8-7.5,2.378a.267.267,0,1,0,.474.248c1.97-3.773,6.8-2.136,6.85-2.119a.269.269,0,0,0,.169,0" transform="translate(-197.995 -31.092)" fill="#503a33"/>
          <path id="Trazado_188928" data-name="Trazado 188928" d="M362.479,118.638c-.456,2.553-4.7,3.93-9.482,3.076s-8.287-3.615-7.831-6.169,4.7-3.93,9.483-3.076,8.286,3.615,7.83,6.169" transform="translate(-308.707 -31.613)" fill="#b16860"/>
          <path id="Trazado_188929" data-name="Trazado 188929" d="M302.364,117.555c.665,2.507,5.008,3.53,9.7,2.285s7.962-4.285,7.3-6.791-5.009-3.53-9.7-2.285-7.961,4.285-7.3,6.791" transform="translate(-226.735 -31.43)" fill="#b16860"/>
          <path id="Trazado_188930" data-name="Trazado 188930" d="M342.89,108.7s-.261-5.389,4.04-6.189,5.817,4.354,5.817,4.354" transform="translate(-296.903 -30.712)" fill="none" stroke="#000" stroke-linecap="round" stroke-linejoin="round" stroke-width="0.636"/>
          <line id="Línea_1467" data-name="Línea 1467" x1="2.894" y1="0.828" transform="translate(43.109 76.478)" fill="none" stroke="#000" stroke-linecap="round" stroke-linejoin="round" stroke-width="0.636"/>
          <line id="Línea_1468" data-name="Línea 1468" x1="1.955" y1="0.657" transform="translate(43.927 75.305)" fill="none" stroke="#000" stroke-linecap="round" stroke-linejoin="round" stroke-width="0.752"/>
          <path id="Trazado_188931" data-name="Trazado 188931" d="M320.573,105.238s-1.4-5.212-5.736-4.661-4.211,5.922-4.211,5.922" transform="translate(-235.436 -30.537)" fill="none" stroke="#000" stroke-linecap="round" stroke-linejoin="round" stroke-width="0.636"/>
          <line id="Línea_1469" data-name="Línea 1469" y1="1.672" x2="2.503" transform="translate(84.912 72.381)" fill="none" stroke="#000" stroke-linecap="round" stroke-linejoin="round" stroke-width="0.636"/>
          <line id="Línea_1470" data-name="Línea 1470" y1="1.223" x2="1.661" transform="translate(84.617 71.513)" fill="none" stroke="#000" stroke-linecap="round" stroke-linejoin="round" stroke-width="0.752"/>
          <path id="Trazado_188932" data-name="Trazado 188932" d="M314.813,45.544s-25.209,4.127-27.975,19,5.074,36.482,5.074,36.482,10.038-5.236,16.1-6.7c3.266-.786-3.072-5.339.364-16.969,0,0,4.327,10.715,9.443,11.67,6.03,1.124,20.42-.711,26.805-5.141,3.506-2.433,1.473-13.026,2.386-13.524,1.808-.986,3.606,12.218,5.528,12.572,1.309.241,10.1,6.427,12.374,3.059,1.85-2.742.217-9.7,1.17-9.5,2.615.563,2.127,13.913,4.221,14.387,4.689,1.062,7.877,1.735,8.7,1.277,4.136-2.312,1.868-30.089-6.3-39.33s-35.215-17.272-57.888-7.289" transform="translate(-273.753 -25.051)" fill="#503a33"/>
          <path id="Trazado_188933" data-name="Trazado 188933" d="M375.192,129.231a21.129,21.129,0,0,0,1.3-13.177c-.742-3.27-2.255-6.317-3.1-9.562s-.941-6.94.966-9.7c2.18-3.151,6.623-4.6,7.8-8.251,1.269-3.95-2.009-7.723-3.746-11.49a16.174,16.174,0,0,1,23.082-20.6" transform="translate(-372.812 -26.272)" fill="none" stroke="#503a33" stroke-linecap="round" stroke-linejoin="round" stroke-width="0.438"/>
          <path id="Trazado_188934" data-name="Trazado 188934" d="M265.493,40.051a36.977,36.977,0,0,1,10.327,1.682c3.286,1.2,6.334,3.524,7.584,6.793,1.039,2.716.744,5.755,1.4,8.587,1.076,4.651,4.561,8.295,7.719,11.875s6.273,7.729,6.315,12.5c.043,4.857-3.1,9.927-.961,14.289,1.211,2.471,3.8,3.9,5.764,5.831a14.463,14.463,0,0,1,1.059,18.736" transform="translate(-181.532 -24.969)" fill="none" stroke="#503a33" stroke-linecap="round" stroke-linejoin="round" stroke-width="0.438"/>
          <path id="Trazado_188935" data-name="Trazado 188935" d="M260.585,199.37a.194.194,0,0,0,.187-.143,56.454,56.454,0,0,1,3.573-9.088.194.194,0,1,0-.346-.176,56.759,56.759,0,0,0-3.6,9.16.2.2,0,0,0,.134.239.215.215,0,0,0,.053.007" transform="translate(-133.62 -38.76)" fill="#503a33"/>
        </g>
        <g id="Grupo_983611" data-name="Grupo 983611" transform="translate(103.702 5.214)">
          <path id="Trazado_188937" data-name="Trazado 188937" d="M268.3,73.371h-57.45c-3.532,0-7.3.172-7.3,5.314s-.8,37.161-.089,42.009c.588,4.029,2.678,5.986,11.391,6.157s48.035-.121,52.5,0c2.826.077,8.123.077,8.476-6,.36-6.187.263-35.741.226-41.312.037-6.6-7.76-6.17-7.76-6.17" transform="translate(-203.165 -73.365)" fill="#e9c1d9"/>
          <path id="Trazado_188938" data-name="Trazado 188938" d="M227.11,115.153s-.458,9.166-4.125,16.042c0,0,11.688-2.062,15.354-17.646Z" transform="translate(-189.538 -64.626)" fill="#e9c1d9"/>
          <path id="Trazado_188939" data-name="Trazado 188939" d="M222.409,107.911c-.664,0-4.793.074-5.419.009-.52-.056-.772-.252-.794-1.07s.016-4.511,0-4.931c-.01-.265-.01-.762.773-.8.8-.033,4.611-.024,5.329-.021a.7.7,0,0,1,.8.729v5.395c0,.331-.022.685-.685.685" transform="translate(-166.021 -67.334)" fill="#fff"/>
          <path id="Trazado_188940" data-name="Trazado 188940" d="M237.186,101.83v5.395c0,.332-.022.685-.685.685s-4.793.075-5.419.009c-.52-.055-.772-.251-.794-1.069s.016-4.512,0-4.931c-.01-.265-.01-.763.773-.8.8-.034,4.611-.024,5.329-.021a.694.694,0,0,1,.8.728" transform="translate(-197.268 -67.334)" fill="#fff"/>
          <path id="Trazado_188941" data-name="Trazado 188941" d="M251.277,101.83v5.395c0,.332-.022.685-.685.685s-4.793.075-5.419.009c-.52-.055-.772-.251-.794-1.069s.016-4.512,0-4.931c-.01-.265-.01-.763.773-.8.8-.034,4.611-.024,5.329-.021a.694.694,0,0,1,.8.728" transform="translate(-228.515 -67.334)" fill="#fff"/>
        </g>
      </g>
    </g>
  </g>
</svg>
