<svg xmlns="http://www.w3.org/2000/svg" xmlns:xlink="http://www.w3.org/1999/xlink" width="86" height="86" viewBox="0 0 86 86">
  <defs>
    <clipPath id="clip-path">
      <rect id="Rectángulo_338935" data-name="Rectángulo 338935" width="63.467" height="63.853" fill="none"/>
    </clipPath>
  </defs>
  <g id="Grupo_984038" data-name="Grupo 984038" transform="translate(-12642 10426)">
    <circle id="Elipse_4890" data-name="Elipse 4890" cx="43" cy="43" r="43" transform="translate(12642 -10426)" fill="#6b8dfc"/>
    <g id="Grupo_984037" data-name="Grupo 984037" transform="translate(12653.267 -10420.926)">
      <g id="Grupo_984036" data-name="Grupo 984036" clip-path="url(#clip-path)">
        <path id="Trazado_211895" data-name="Trazado 211895" d="M9.978,56.19c-.531-.162-.579-.543-.47-1.008a5.766,5.766,0,0,1,5.63-4.362,5.626,5.626,0,0,1,5.488,4.51,23.1,23.1,0,0,1,.013,6.522,4.705,4.705,0,0,1-1.378,2.665,1.006,1.006,0,0,0-.327.78c.02.847.033,1.7-.005,2.543-.018.411.159.535.508.625,2.127.549,4.256,1.1,6.375,1.679a5.578,5.578,0,0,1,4.3,5.583c.02,6.019.006,12.038.009,18.057,0,.4-.017.8-.5.9s-.675-.237-.807-.624a1.418,1.418,0,0,1-.195-1.033q-.006-8.542,0-17.083A4.118,4.118,0,0,0,25.3,71.527c-1.321-.385-2.662-.7-3.983-1.076-.472-.189-.973-.27-1.524-.428.591,1.4,1.234,2.7,1.855,4.008.4.843.777,1.695,1.187,2.533.374.764.266,1.087-.459,1.527-.6.363-1.209.7-1.819,1.044a.617.617,0,0,0-.3.9c.4,1.026.751,2.072,1.156,3.1a1.35,1.35,0,0,1-.26,1.467c-1.5,1.869-2.988,3.744-4.525,5.579a2.858,2.858,0,0,0-.744,2.381c-.035.506.132,1.033-.161,1.511-.076.359-.25.628-.657.628s-.58-.269-.657-.628c-.29-.477-.126-1-.163-1.507a2.758,2.758,0,0,0-.74-2.377c-1.5-1.727-2.869-3.562-4.358-5.3a1.845,1.845,0,0,1-.341-2.151C9.2,81.84,9.481,80.9,9.84,80c.162-.409.112-.663-.3-.876-.582-.3-1.142-.647-1.713-.971-.844-.48-.967-.842-.535-1.705,1.059-2.116,2.03-4.274,3.091-6.454-.534.217-1.059.279-1.555.454-1.368.382-2.749.714-4.114,1.1a4.174,4.174,0,0,0-3.056,2.871,4.347,4.347,0,0,0-.138,1.321q0,8.645,0,17.289c0,.352.079.729-.2,1.029-.135.38-.318.728-.8.628S0,94.193,0,93.791c0-6.013-.013-12.025.009-18.038a5.6,5.6,0,0,1,4.455-5.645c2.083-.545,4.163-1.1,6.248-1.638.362-.093.538-.242.491-.64a5.2,5.2,0,0,1,0-.951,3.72,3.72,0,0,0-.9-3.133,4.424,4.424,0,0,1-.953-2.77c-.046-.514.1-.87.63-1.007.657-.053.749.4.807.892a4.39,4.39,0,0,0,1.3,2.823,4.086,4.086,0,0,0,4.582.907A4.067,4.067,0,0,0,19.33,60.81c.088-1.436.05-2.882.011-4.323a4.272,4.272,0,0,0-8.374-1.145c-.262.824-.364.911-.988.848" transform="translate(0 -30.85)"/>
        <path id="Trazado_211896" data-name="Trazado 211896" d="M94.971,70.908c-.044-.524.246-.757.717-.877,1.986-.509,3.965-1.041,5.953-1.541.413-.1.628-.259.556-.72a4.076,4.076,0,0,1-.006-.825,3.753,3.753,0,0,0-.905-3.2,3.64,3.64,0,0,1-.906-2.459,31.145,31.145,0,0,1,.064-5.711,5.691,5.691,0,0,1,11.29.555,32.118,32.118,0,0,1-.077,5.522,4.99,4.99,0,0,1-1.366,2.808,1.229,1.229,0,0,0-.364.958c.022.784.041,1.571-.006,2.352-.028.464.156.611.566.716q3.133.8,6.254,1.644a5.579,5.579,0,0,1,4.358,5.6c.026,6.02.008,12.04.011,18.06,0,.4-.035.794-.516.89s-.662-.26-.8-.634c-.274-.3-.2-.679-.2-1.032,0-5.718-.054-11.436.02-17.152a4.325,4.325,0,0,0-3.4-4.38c-1.318-.313-2.625-.674-3.93-1.036-.47-.193-.973-.262-1.522-.435.6,1.42,1.257,2.737,1.881,4.066.4.861.791,1.731,1.215,2.584.306.615.206.953-.386,1.34-.62.4-1.276.752-1.922,1.112a.639.639,0,0,0-.312.941c.413,1,.733,2.029,1.133,3.031a1.383,1.383,0,0,1-.261,1.521c-1.507,1.855-2.959,3.756-4.516,5.57a2.816,2.816,0,0,0-.739,2.378c-.033.508.129,1.037-.163,1.516-.062.368-.25.616-.648.617s-.571-.273-.656-.622c-.3-.475-.135-1-.171-1.507a2.768,2.768,0,0,0-.733-2.376c-1.5-1.75-2.894-3.589-4.389-5.344a1.743,1.743,0,0,1-.331-2.03c.394-.91.677-1.869,1.053-2.789a.619.619,0,0,0-.341-.921c-.583-.3-1.142-.644-1.711-.971-.788-.452-.932-.794-.529-1.607.742-1.5,1.412-3.029,2.176-4.516.319-.62.577-1.267.905-1.97-.523.136-.987.248-1.448.376-1.2.323-2.39.656-3.594.952a1.65,1.65,0,0,1-.932.031c-.228-.076-.423-.2-.379-.495" transform="translate(-57.648 -30.854)"/>
        <path id="Trazado_211897" data-name="Trazado 211897" d="M66.556,1.648l1.213.294a2.376,2.376,0,0,0,1.225,1.013,10.544,10.544,0,0,1,5.34,13.1,9.048,9.048,0,0,1-1.068,2.089,1.373,1.373,0,0,0-.165,1.376c.217.575.415,1.158.58,1.749s.02.724-.547.571a20.062,20.062,0,0,1-1.943-.6,1.311,1.311,0,0,0-1.2.115,10.3,10.3,0,0,1-10.922.027,1.434,1.434,0,0,0-1.328-.13c-.553.212-1.12.392-1.689.558-.239.07-.52.211-.726.017s-.058-.481.016-.718c.158-.506.306-1.017.505-1.506a1.574,1.574,0,0,0-.185-1.547,10.178,10.178,0,0,1-.447-10.53A10.05,10.05,0,0,1,62.635,2.1a1.924,1.924,0,0,0,1.382-.647l1.23.043c.573.608.576.608,1.309.152" transform="translate(-32.753 -0.882)" fill="#efbf20"/>
        <path id="Trazado_211898" data-name="Trazado 211898" d="M40.017,124.1q0-.826,0-1.653c2.071-2.351,3.946-4.864,5.953-7.268a2.112,2.112,0,0,0,.4-2.344c-.307-.765-.555-1.556-.869-2.319a.72.72,0,0,1,.348-1.053c.444-.245.888-.493,1.321-.761a1.578,1.578,0,0,0,.717-2.263q-.615-1.359-1.27-2.7c-.466-.951-.881-1.925-1.351-2.874-.091-.184-.431-.592.208-.564,1.594.419,3.214.758,4.774,1.279a3.811,3.811,0,0,1,2.828,3.631c.083,6.294.029,12.59.028,18.886l-3.563,0c-.283-.3-.2-.678-.2-1.029q-.009-6.423,0-12.845a2.981,2.981,0,0,0-.079-.946c-.062-.188-.168-.362-.394-.358s-.311.19-.35.386a4.563,4.563,0,0,0-.042.888q0,6.455-.006,12.909c0,.369.1.772-.224,1.08a1.229,1.229,0,0,0-.62-.086l-7.6,0" transform="translate(-24.292 -60.886)" fill="#72c1e8"/>
        <path id="Trazado_211899" data-name="Trazado 211899" d="M124.829,124.083l0-1.653c2.078-2.375,3.972-4.9,6-7.318a2.085,2.085,0,0,0,.395-2.238c-.307-.835-.592-1.678-.925-2.5a.631.631,0,0,1,.308-.9c.474-.281.961-.538,1.428-.83a1.555,1.555,0,0,0,.692-2.171c-.34-.8-.722-1.579-1.1-2.359-.528-1.086-1.006-2.2-1.547-3.275-.1-.208-.383-.589.217-.584,1.514.395,3.037.758,4.54,1.192a4.212,4.212,0,0,1,3.1,3.986c.031,6.167.013,12.335.013,18.5a.641.641,0,0,1-.026.124l-3.563.016c-.3-.319-.206-.719-.207-1.09q-.011-6.385-.006-12.77a3.071,3.071,0,0,0-.073-.946c-.059-.186-.153-.367-.385-.361s-.315.186-.358.381a4.078,4.078,0,0,0-.048.886q0,6.417-.006,12.834c0,.368.1.772-.227,1.077l-8.22,0" transform="translate(-75.777 -60.858)" fill="#868686"/>
        <path id="Trazado_211900" data-name="Trazado 211900" d="M90.549,100.919c.255.462.652.469,1.1.352q1.927-.507,3.858-1.006c.609-.01.312.375.214.58-.43.9-.849,1.8-1.276,2.7-.444.936-.918,1.859-1.338,2.808a1.659,1.659,0,0,0,.688,2.341,14.087,14.087,0,0,0,1.268.723.69.69,0,0,1,.389,1.024c-.327.8-.556,1.648-.916,2.436a1.821,1.821,0,0,0,.313,2.107c2.041,2.484,4.009,5.029,6.124,7.453q0,.826,0,1.652l-7.839-.009c-.188,0-.384-.024-.531.136-.3-.316-.21-.717-.211-1.087q-.011-6.448-.005-12.9a5.666,5.666,0,0,0-.026-.825c-.034-.232-.069-.5-.377-.5-.286,0-.368.249-.419.483a3.919,3.919,0,0,0-.044.823q0,6.417,0,12.833c0,.351.077.728-.2,1.03l-3.437,0a1.094,1.094,0,0,1-.2-.841q-.007-8.857,0-17.714a2.838,2.838,0,0,1,.065-.757,2.468,2.468,0,0,0,0-1.433c.2-.388.589-.668.65-1.136.891.1.891.1,1.016-.762l1.136-.51" transform="translate(-53.225 -60.865)" fill="#868686"/>
        <path id="Trazado_211901" data-name="Trazado 211901" d="M16.386,122.382v1.654l-8.335,0c-.345-.3-.237-.7-.238-1.07q-.013-6.42-.006-12.84a4.814,4.814,0,0,0-.033-.824c-.037-.214-.092-.44-.364-.441s-.355.211-.409.419a3.745,3.745,0,0,0-.058.949q0,6.356,0,12.713c0,.371.091.771-.206,1.09l-3.443,0c-.012-.211-.034-.421-.034-.631q0-8.6,0-17.2c0-2.815,1.1-4.253,3.813-4.968,1.285-.339,2.573-.663,3.86-.993.284-.121.349.035.322.27a1.373,1.373,0,0,1-.184.472c-.789,1.5-1.432,3.071-2.219,4.571q-.133.253-.244.517c-.61,1.447-.391,2.006.976,2.805,1.764,1.032,1.6.488.91,2.523-.19.561-.4,1.114-.624,1.665a1.64,1.64,0,0,0,.307,1.775c2.032,2.439,3.94,4.981,6.063,7.345.056.063.1.139.153.2" transform="translate(-1.975 -60.822)" fill="#72c1e8"/>
        <path id="Trazado_211902" data-name="Trazado 211902" d="M62.387.571c-.032.494-.325.652-.789.723a10.176,10.176,0,0,0-8.834,8.113,9.911,9.911,0,0,0,1.465,7.768,1.464,1.464,0,0,1,.2,1.471c-.28.726-.494,1.478-.776,2.338.923-.3,1.755-.552,2.575-.842a1.235,1.235,0,0,1,1.136.123,10.141,10.141,0,0,0,11,0,1.233,1.233,0,0,1,1.135-.118c.812.286,1.637.536,2.563.836-.278-.851-.51-1.633-.791-2.4a1.369,1.369,0,0,1,.186-1.356,10.319,10.319,0,0,0-4.148-15,5.158,5.158,0,0,0-.581-.251.758.758,0,0,1-.582-.916c.279-.448.641-.444,1.1-.261a11.594,11.594,0,0,1,5.547,16.7,1.294,1.294,0,0,0-.128,1.235c.332.936.616,1.888.934,2.829a.753.753,0,0,1-.108.881.737.737,0,0,1-.829.077c-1.062-.356-2.133-.683-3.192-1.047a.849.849,0,0,0-.765.078,11.42,11.42,0,0,1-11.674,0,.851.851,0,0,0-.766-.075c-1.078.371-2.171.7-3.252,1.065a.668.668,0,0,1-.9-.913c.335-1.024.652-2.054,1.009-3.071a.936.936,0,0,0-.078-.887A11.568,11.568,0,0,1,60.532.181c.31-.068.626-.108.939-.161a.7.7,0,0,1,.916.551" transform="translate(-31.123 0)"/>
        <path id="Trazado_211903" data-name="Trazado 211903" d="M25.241,58.136c.459,0,.656-.261.772-.684a4.438,4.438,0,0,1,8.756,1.139,29.407,29.407,0,0,1-.1,4.82,4.363,4.363,0,0,1-4.726,3.608A4.414,4.414,0,0,1,25.9,62.852c-.027-.488-.162-.816-.656-.938a3.407,3.407,0,0,0-.1-1.246c.677-.528.677-.528.1-1.3q0-.615,0-1.232" transform="translate(-15.263 -32.796)" fill="#fdb59e"/>
        <path id="Trazado_211904" data-name="Trazado 211904" d="M86.035,108.034a.725.725,0,0,1,.308.98,3.82,3.82,0,0,0-.2,1.371q0,9.039,0,18.078c0,.105.017.21.026.315-.137.38-.321.727-.806.627s-.5-.492-.5-.893q.005-9.048,0-18.095a6.21,6.21,0,0,1,.252-1.749c.143-.492.412-.716.921-.635" transform="translate(-51.512 -65.571)" fill="#010101"/>
        <path id="Trazado_211905" data-name="Trazado 211905" d="M78.962,75.38a.676.676,0,0,1-.529.615A2.766,2.766,0,0,0,76.4,78.347c-.089.4-.226.8-.747.8s-.657-.407-.729-.813a2.728,2.728,0,0,0-1.994-2.311.693.693,0,0,1-.57-.674.657.657,0,0,1,.553-.678A2.7,2.7,0,0,0,74.9,72.425a3.217,3.217,0,0,1,.143-.486.671.671,0,0,1,1.238.007c.1.256.165.524.24.789A2.475,2.475,0,0,0,78.3,74.623a.762.762,0,0,1,.667.756" transform="translate(-43.926 -43.422)"/>
        <path id="Trazado_211906" data-name="Trazado 211906" d="M60.941,137.026q0-7.213.005-14.426c0-.19,0-.382.01-.571a.62.62,0,0,1,1.224-.08,2.735,2.735,0,0,1,.037.631q0,6.832,0,13.664c0,.232.016.464.025.7-.108.327-.247.628-.658.632a.617.617,0,0,1-.646-.547" transform="translate(-36.994 -73.728)" fill="#000101"/>
        <path id="Trazado_211907" data-name="Trazado 211907" d="M12.1,136.933q.012-5.176.025-10.352c0-1.44-.007-2.88,0-4.319.005-.622.392-.951.856-.77.395.154.415.483.415.837q-.007,2.731,0,5.463.008,4.572.022,9.145c-.069.364-.246.625-.653.628s-.563-.3-.668-.631" transform="translate(-7.348 -73.721)" fill="#000101"/>
        <path id="Trazado_211908" data-name="Trazado 211908" d="M96.936,136.951q.012-5.557.024-11.114c0-1.186,0-2.371,0-3.557,0-.463.182-.825.683-.806.471.018.593.379.593.815q-.014,7.4-.014,14.8a.589.589,0,0,1-.622.5c-.417,0-.552-.307-.664-.633" transform="translate(-58.844 -73.739)" fill="#010101"/>
        <path id="Trazado_211909" data-name="Trazado 211909" d="M145.747,136.95q.009-7.179.017-14.358c0-.829.2-1.207.653-1.141.672.1.62.635.62,1.13q.008,7.179.019,14.358c-.1.338-.251.626-.659.626s-.588-.246-.65-.615" transform="translate(-88.475 -73.721)"/>
        <path id="Trazado_211910" data-name="Trazado 211910" d="M24.428,67.622c.354.113.669.277.63.716s-.331.584-.73.584a.627.627,0,0,1-.525-.681c.025-.375.314-.516.625-.619" transform="translate(-14.448 -41.049)" fill="#070606"/>
        <path id="Trazado_211911" data-name="Trazado 211911" d="M84,.836a.635.635,0,0,1-.685.521c-.425-.021-.544-.329-.624-.673.139-.328.323-.613.737-.562s.558.334.572.714" transform="translate(-50.197 -0.07)" fill="#050503"/>
        <path id="Trazado_211912" data-name="Trazado 211912" d="M90.367,102.913c.2.348.234.693-.129.941a.631.631,0,0,1-.887-.179.6.6,0,0,1,.162-.832.637.637,0,0,1,.854.07" transform="translate(-54.179 -62.349)" fill="#040404"/>
        <path id="Trazado_211913" data-name="Trazado 211913" d="M24.9,102.433c.179.556,2.573,16.822,2.567,17.461-1.057-1.3-2-2.6-3.1-3.757a2,2,0,0,1-.411-2.562c.418-.871.669-1.821,1.03-2.722a.786.786,0,0,0-.422-1.142c-.727-.386-1.431-.815-2.147-1.222-.17-.1-.345-.167-.22-.425.9-1.859,1.786-3.72,2.7-5.631" transform="translate(-13.45 -62.181)" fill="#fff"/>
        <path id="Trazado_211914" data-name="Trazado 211914" d="M40.9,119.594c.845-5.747,1.69-11.494,2.562-17.421.948,2.015,1.811,3.868,2.7,5.709.149.31-.05.355-.228.457-.7.4-1.379.826-2.093,1.192a.842.842,0,0,0-.437,1.244c.471,1.2.9,2.414,1.341,3.622.08.216.184.4-.01.639-1.243,1.522-2.469,3.057-3.7,4.587l-.129-.031" transform="translate(-24.827 -62.023)" fill="#fff"/>
        <path id="Trazado_211915" data-name="Trazado 211915" d="M23.834,121.751c-.727-.3-1.085-.984-1.547-1.541-1.628-1.962-3.217-3.955-4.823-5.935a1.686,1.686,0,0,1-.351-1.764c.355-.949.65-1.922,1.052-2.849.205-.472.05-.61-.335-.795a13.015,13.015,0,0,1-1.477-.86,1.566,1.566,0,0,1-.637-2.152c.876-1.9,1.8-3.779,2.686-5.675.073-.158.466-.414-.028-.576l1.578-.451c.08.25-.074.391-.149.548q-1.456,3.063-2.922,6.122c-.442.927-.4,1.054.472,1.547.626.354,1.24.73,1.877,1.063.339.177.433.351.28.731-.417,1.038-.746,2.114-1.191,3.139a1.451,1.451,0,0,0,.3,1.714c1.527,1.813,2.97,3.7,4.515,5.5a2.537,2.537,0,0,1,.7,2.238" transform="translate(-9.422 -60.19)" fill="#4ba4c7"/>
        <path id="Trazado_211916" data-name="Trazado 211916" d="M45.409,99.646c-.4.078-.172.3-.1.466q1.258,2.665,2.532,5.323a2.468,2.468,0,0,1,.35,1.391,1.574,1.574,0,0,1-.787,1.233c-.548.318-1.083.66-1.648.945-.33.166-.347.352-.231.655.325.847.6,1.714.951,2.549a2.132,2.132,0,0,1-.422,2.388c-1.7,2.064-3.349,4.17-5.034,6.246a2.553,2.553,0,0,1-1.073.95,2.556,2.556,0,0,1,.7-2.239c1.577-1.854,3.06-3.788,4.606-5.668a1.2,1.2,0,0,0,.215-1.381c-.45-1.094-.811-2.223-1.246-3.324-.143-.36-.063-.524.261-.694.674-.354,1.33-.742,1.988-1.123.754-.437.8-.592.44-1.368q-1.431-3.041-2.869-6.078c-.1-.207-.19-.418-.315-.7a7.711,7.711,0,0,1,1.679.424" transform="translate(-24.226 -60.232)" fill="#4ba4c7"/>
        <path id="Trazado_211917" data-name="Trazado 211917" d="M35.5,119.061c-.554-3.742-1.1-7.469-1.663-11.194a1.134,1.134,0,0,1,.428-1.268c.479-.339.841-1.119,1.322-1.085.465.032.88.713,1.326,1.1a1.014,1.014,0,0,1,.464,1.013c-.564,3.661-1.1,7.326-1.642,10.99-.024.159.018.353-.236.447" transform="translate(-20.522 -64.051)" fill="#71c1e8"/>
        <path id="Trazado_211918" data-name="Trazado 211918" d="M36.855,93.441c-.706.7-1.557,1.217-2.318,1.848a.31.31,0,0,1-.451,0c-.757-.635-1.609-1.151-2.318-1.847-.01-.018-.028-.037-.029-.056-.092-1.672-.153-1.586,1.347-1.247a6.5,6.5,0,0,0,2.884-.1c.928-.21.953-.184.945.781a1.147,1.147,0,0,1-.059.619" transform="translate(-19.243 -55.809)" fill="#fdb59e"/>
        <path id="Trazado_211919" data-name="Trazado 211919" d="M36.828,91.672c-.067-.436.18-1-.111-1.281s-.779.1-1.18.167a6.7,6.7,0,0,1-3.237-.169c-.424-.133-.583-.061-.547.4.023.293-.005.589-.011.885a18.7,18.7,0,0,1-.057-2.65c2.511.682,2.511.682,5.2,0a18.066,18.066,0,0,1-.059,2.648" transform="translate(-19.216 -54.04)" fill="#e98e7b"/>
        <path id="Trazado_211920" data-name="Trazado 211920" d="M32.625,102.581l-.285-2.006a7.525,7.525,0,0,1,1.363.986l-1.077,1.02" transform="translate(-19.632 -61.053)" fill="#6ebbe1"/>
        <path id="Trazado_211921" data-name="Trazado 211921" d="M42.281,102.485c-1.115-.963-1.115-.963-.07-1.75.081-.061.163-.12.318-.235a9.673,9.673,0,0,1-.248,1.984" transform="translate(-25.153 -61.008)" fill="#6fbde2"/>
        <path id="Trazado_211922" data-name="Trazado 211922" d="M120.633,60.838a17.1,17.1,0,0,1-.086,2.614,4.4,4.4,0,0,1-4.632,3.587,4.325,4.325,0,0,1-4.129-4.008,24.055,24.055,0,0,1,.075-5.391,4.379,4.379,0,0,1,4.64-3.577,4.465,4.465,0,0,1,4.128,4.247c.028.762,0,1.526,0,2.528" transform="translate(-67.789 -32.811)" fill="#fdb59e"/>
        <path id="Trazado_211923" data-name="Trazado 211923" d="M112.222,119.934c-1.039-1.276-2.031-2.594-3.134-3.811a1.7,1.7,0,0,1-.347-2.185,25.414,25.414,0,0,0,1.026-2.729c.315-.871.268-.985-.563-1.458-.644-.366-1.286-.736-1.931-1.1-.171-.1-.344-.171-.22-.43.887-1.845,1.768-3.693,2.781-5.526l2.525,17.177-.138.063" transform="translate(-64.961 -62.339)" fill="#868686"/>
        <path id="Trazado_211924" data-name="Trazado 211924" d="M125.747,119.861l2.526-17.18.114-.027q.566,1.189,1.131,2.379c.451.956.867,1.93,1.361,2.864.242.459.121.643-.292.853-.659.336-1.277.751-1.935,1.088a.809.809,0,0,0-.436,1.15c.456,1.228.905,2.459,1.358,3.688.079.215.193.408,0,.644-1.238,1.524-2.463,3.058-3.693,4.588l-.135-.047" transform="translate(-76.334 -62.315)" fill="#868686"/>
        <path id="Trazado_211925" data-name="Trazado 211925" d="M130.243,99.633c-.455.109-.146.356-.071.516q1.247,2.671,2.516,5.332c.631,1.331.418,2.03-.822,2.8-.534.332-1.382.479-1.529,1.02-.131.484.34,1.131.545,1.705a4.154,4.154,0,0,0,.22.594c.738,1.354.349,2.434-.623,3.549-1.622,1.859-3.109,3.836-4.669,5.749a2.392,2.392,0,0,1-1.032.909,2.612,2.612,0,0,1,.7-2.242c1.636-1.909,3.174-3.9,4.752-5.86a.862.862,0,0,0,.154-.938c-.444-1.143-.839-2.3-1.29-3.443-.175-.442-.1-.678.333-.9.7-.35,1.36-.775,2.042-1.156a.753.753,0,0,0,.345-1.151c-1.092-2.265-2.151-4.546-3.255-6.891a8.011,8.011,0,0,1,1.683.4" transform="translate(-75.725 -60.237)" fill="#4c4944"/>
        <path id="Trazado_211926" data-name="Trazado 211926" d="M108.707,121.718c-.71-.292-1.057-.959-1.507-1.5-1.631-1.971-3.229-3.968-4.838-5.956a1.778,1.778,0,0,1-.323-1.946c.374-.9.679-1.823,1.037-2.727.133-.335.1-.525-.251-.7a16.184,16.184,0,0,1-1.541-.884,1.71,1.71,0,0,1-.651-2.32c.889-1.874,1.79-3.743,2.674-5.62.074-.156.393-.406-.068-.515l1.695-.463c-.285.625-.514,1.151-.762,1.668-.812,1.7-1.635,3.39-2.447,5.087-.4.842-.341,1.015.455,1.462.663.373,1.312.775,1.988,1.121.327.167.345.346.228.65-.425,1.1-.821,2.219-1.248,3.321a1.235,1.235,0,0,0,.2,1.4c1.583,1.9,3.087,3.862,4.7,5.734a2.606,2.606,0,0,1,.658,2.193" transform="translate(-60.962 -60.149)" fill="#4c4944"/>
        <path id="Trazado_211927" data-name="Trazado 211927" d="M120.369,119.221q-.354-2.378-.708-4.755c-.324-2.2-.624-4.4-.978-6.591a1.178,1.178,0,0,1,.455-1.316c.475-.344.822-1.112,1.33-1.075.446.032.844.7,1.265,1.09.291.269.568.484.489,1-.6,3.884-1.153,7.773-1.722,11.661l-.13-.013" transform="translate(-72.025 -64.033)" fill="#71c1e8"/>
        <path id="Trazado_211928" data-name="Trazado 211928" d="M121.719,93.444c-.714.691-1.56,1.215-2.321,1.847-.2.164-.341.069-.5-.055-.685-.531-1.362-1.073-2.065-1.578-.286-.206-.242-.465-.241-.732,0-.3.017-.591.026-.886.3-.213.613-.068.913,0a6.949,6.949,0,0,0,3.374-.015c.8-.211.878-.14.869.672a1.682,1.682,0,0,1-.054.746" transform="translate(-70.774 -55.802)" fill="#fcb59e"/>
        <path id="Trazado_211929" data-name="Trazado 211929" d="M121.764,91.7c-.09-.447.207-1.072-.162-1.3-.267-.167-.823.15-1.255.22a7.674,7.674,0,0,1-3.194-.215c-.162-.042-.328-.071-.492-.106V89.106c.136-.128.24-.011.345.03a5.685,5.685,0,0,0,4.374.005c.384-.158.486-.087.46.307a11.568,11.568,0,0,1-.077,2.249" transform="translate(-70.819 -54.056)" fill="#e98e7b"/>
        <path id="Trazado_211930" data-name="Trazado 211930" d="M126.783,102.452l-1.1-1.035,1.388-1.061c-.105.754-.19,1.36-.293,2.1" transform="translate(-76.297 -60.92)" fill="#6ebbe0"/>
        <path id="Trazado_211931" data-name="Trazado 211931" d="M118.535,101.543l-1.066,1.012-.3-2.006a8.461,8.461,0,0,1,1.364.994" transform="translate(-71.128 -61.038)" fill="#6fbce2"/>
        <path id="Trazado_211932" data-name="Trazado 211932" d="M69.609,24.011c-1.844,0-3.688.007-5.532,0-1.19-.006-1.687-.513-1.691-1.717q-.008-3.116,0-6.231c0-1.221.526-1.737,1.743-1.741.636,0,1.272-.015,1.907,0,.334.01.478-.059.491-.446.066-2.048.28-2.237,2.366-2.237.742,0,1.484-.009,2.225,0a1.424,1.424,0,0,1,1.566,1.582c.022,1.092.022,1.092,1.1,1.092.509,0,1.018-.011,1.526,0a1.381,1.381,0,0,1,1.49,1.405q.05,3.433,0,6.867a1.366,1.366,0,0,1-1.536,1.412c-1.886.015-3.772,0-5.659,0" transform="translate(-37.869 -7.066)"/>
        <path id="Trazado_211933" data-name="Trazado 211933" d="M91.415,115.036q0-3.082,0-6.164c0-2.133,1.577-3.257,3.5-3.451a.6.6,0,0,1,.255,1.173c-.277.1-.565.174-.851.251a1.951,1.951,0,0,0-1.631,2.105q-.007,6.037,0,12.074c0,.17,0,.339,0,.508-.006.436-.188.784-.65.775s-.627-.338-.625-.791c.01-2.16,0-4.321,0-6.482" transform="translate(-55.49 -63.993)" fill="#fff"/>
        <path id="Trazado_211934" data-name="Trazado 211934" d="M92.665,152.734c.015.369,0,.73-.385.928a.578.578,0,0,1-.774-.223,1.975,1.975,0,0,1,.051-1.516.61.61,0,0,1,.809-.1c.336.207.311.571.3.912" transform="translate(-55.47 -92.096)" fill="#ededed"/>
        <path id="Trazado_211935" data-name="Trazado 211935" d="M6.607,115c0-2.078.006-4.156,0-6.233a3.443,3.443,0,0,1,3.564-3.295.533.533,0,0,1,.588.466.559.559,0,0,1-.409.69c-.341.111-.692.19-1.033.3a1.872,1.872,0,0,0-1.435,1.988q-.006,6.074,0,12.148c0,.149,0,.3,0,.445,0,.459-.191.85-.666.844s-.612-.411-.61-.867c.01-2.162,0-4.325.005-6.488" transform="translate(-4.008 -64.026)" fill="#c4e4fd"/>
        <path id="Trazado_211936" data-name="Trazado 211936" d="M7.829,152.752a1.2,1.2,0,0,1-.119.679.612.612,0,0,1-.685.339c-.4-.094-.606-.82-.46-1.511a.563.563,0,0,1,.7-.474c.6.076.544.546.562.966" transform="translate(-3.957 -92.135)" fill="#c3e4fd"/>
        <path id="Trazado_211937" data-name="Trazado 211937" d="M34.12,76.266a2.668,2.668,0,0,1-2.581-2.483c-.014-.411.1-.735.542-.79.471-.058.67.229.737.672a1.394,1.394,0,0,0,2.784.013c.063-.448.257-.738.723-.687s.586.413.556.842a2.681,2.681,0,0,1-2.761,2.433" transform="translate(-19.145 -44.305)" fill="#010100"/>
        <path id="Trazado_211938" data-name="Trazado 211938" d="M79.358,80.663a2.173,2.173,0,0,1-.217-.268c-.182-.325-.731-.484-.676-.815.052-.314.463-.568.713-.85.077-.086.15-.274.275-.115a9.582,9.582,0,0,0,.784.9c.132.131-.048.21-.124.3l-.756.848" transform="translate(-47.63 -47.685)" fill="#ecbd20"/>
        <path id="Trazado_211939" data-name="Trazado 211939" d="M119.046,76.265a2.68,2.68,0,0,1-2.675-2.388c-.044-.451.057-.841.569-.891.464-.044.648.26.708.707a1.393,1.393,0,0,0,2.779.015c.059-.439.229-.759.7-.724.516.039.615.427.582.879a2.671,2.671,0,0,1-2.659,2.4" transform="translate(-70.636 -44.302)" fill="#010100"/>
        <path id="Trazado_211940" data-name="Trazado 211940" d="M71.523,33.656c-1.758,0-3.517-.014-5.275.009-.475.006-.681-.089-.657-.622.044-.973.04-1.949,0-2.922-.02-.5.165-.569.579-.451.243.069.5.1.747.145.368.066.67.112.756.625a.58.58,0,0,0,1.078.1.436.436,0,0,1,.593-.239c.184.048.38.058.557.12a7.452,7.452,0,0,0,4.119-.175c.349-.073.675-.219.828.307.078.268.374.325.646.273a.6.6,0,0,0,.5-.577c.023-.176-.059-.4.23-.442.394-.056.785-.144,1.18-.165.11-.006.083.215.083.337,0,1.08-.015,2.161.009,3.241.011.468-.265.437-.575.437q-2.7-.005-5.4,0" transform="translate(-39.816 -17.981)" fill="#71c1e8"/>
        <path id="Trazado_211941" data-name="Trazado 211941" d="M71.62,21.682c1.778,0,3.556.013,5.334-.009.417-.005.6.114.543.534a1.468,1.468,0,0,0,0,.191c0,1.1-.12,1.222-1.217,1.3-.251.018-.311-.14-.442-.273a.587.587,0,0,0-1.049.215c-.1.357-.286.407-.567.451a5.076,5.076,0,0,0-.869.177,7.342,7.342,0,0,1-4.113-.1c-.222-.051-.371-.112-.375-.4a.579.579,0,0,0-.518-.56.568.568,0,0,0-.667.366c-.1.231-.208.273-.428.2a3.987,3.987,0,0,0-.5-.1c-1.166-.231-1.14-.231-1.158-1.414-.008-.5.17-.6.626-.59,1.8.024,3.6.01,5.4.01" transform="translate(-39.819 -13.156)" fill="#71c1e8"/>
        <path id="Trazado_211942" data-name="Trazado 211942" d="M77.814,16.285h-.886c-.9,0-1.1-.261-.9-1.151.05-.223.171-.255.356-.255.97,0,1.94.007,2.909,0,.281,0,.345.125.366.38.085,1.03.093,1.029-.96,1.029h-.886" transform="translate(-46.11 -9.03)" fill="#eebf20"/>
      </g>
    </g>
  </g>
</svg>
