<svg xmlns="http://www.w3.org/2000/svg" width="278.102" height="249.254" viewBox="0 0 278.102 249.254">
  <g id="Grupo_984301" data-name="Grupo 984301" transform="translate(-3636 8541.802)">
    <rect id="Rectángulo_338239" data-name="Rectángulo 338239" width="229.289" height="207.127" rx="16" transform="translate(3663.293 -8534.204)" fill="#dddeff"/>
    <path id="Trazado_204387" data-name="Trazado 204387" d="M89.524,234.168c-6.527-3-12.49-8.049-19.158-10.472-2.194-.8-3.1,3.222-.891,4.025,6.668,2.424,12.629,7.476,19.158,10.472,2.171,1,3.06-3.03.891-4.025" transform="translate(3583.413 -8759.266)" fill="#12263f"/>
    <path id="Trazado_204388" data-name="Trazado 204388" d="M21.626,536.212c-6.457,1.92-13.273,1.986-20.037,1.759-2.122-.072-2.116,3.421,0,3.491,7.025.235,14.174.168,20.881-1.825,2-.6,1.161-4.023-.849-3.425" transform="translate(3636 -9000.255)" fill="#12263f"/>
    <path id="Trazado_204389" data-name="Trazado 204389" d="M94.547,688.261c-5.05,2.244-10.328,3.97-15.251,6.508-1.865.961-.253,4.1,1.614,3.139,4.923-2.538,10.2-4.262,15.251-6.509,1.918-.851.3-3.988-1.614-3.138" transform="translate(3575.498 -9117.434)" fill="#12263f"/>
    <path id="Trazado_204390" data-name="Trazado 204390" d="M1114.527,197.322c-4.743,4.384-9.512,8.873-15.5,11.745-2.153,1.032,0,4.159,2.132,3.138,6.252-3,11.284-7.745,16.236-12.327,1.723-1.592-1.166-4.135-2.872-2.555" transform="translate(2789.286 -8738.626)" fill="#12263f"/>
    <path id="Trazado_204391" data-name="Trazado 204391" d="M1102.546,704.48c-6.532-.656-12.951-2.208-19.443-3.188-2.465-.371-2.647,3.234-.193,3.6,6.492.977,12.909,2.531,19.441,3.185,2.476.249,2.673-3.352.2-3.6" transform="translate(2802.379 -9127.573)" fill="#12263f"/>
    <path id="Trazado_204392" data-name="Trazado 204392" d="M100.26,405.266c-3.739-1.564-7.612-2.8-11.353-4.365-2.288-.959-3.345,2.467-1.085,3.411,3.738,1.565,7.615,2.8,11.352,4.365,2.29.958,3.344-2.467,1.086-3.412" transform="translate(3569.252 -8895.85)" fill="#12263f"/>
    <path id="Trazado_204394" data-name="Trazado 204394" d="M1140.97,559.014a62.731,62.731,0,0,0-17.076,1.3c-3.717.8-2.679,4.314,1.033,3.521a52.046,52.046,0,0,1,14.037-1.136c3.61.234,5.635-3.453,2.006-3.688" transform="translate(2771.219 -9017.796)" fill="#12263f"/>
    <path id="Trazado_204397" data-name="Trazado 204397" d="M1072.871,886.381c-6.2-2.228-12.5-4.434-17.975-8.44-1.968-1.443-3.66,1.867-1.711,3.293,5.72,4.187,12.378,6.509,18.851,8.836,2.251.811,3.066-2.888.834-3.689" transform="translate(2824.614 -9263.522)" fill="#12263f"/>
    <path id="Trazado_204398" data-name="Trazado 204398" d="M994.444,1011.414a2.078,2.078,0,0,0-2.728-.189,1.712,1.712,0,0,0-.185,2.533l3.662,3.443a2.075,2.075,0,0,0,2.729.193,1.715,1.715,0,0,0,.183-2.535Z" transform="translate(2871.854 -9366.236)" fill="#12263f"/>
    <path id="Trazado_204400" data-name="Trazado 204400" d="M1126.538,391.989l-4.58,2.07a2.077,2.077,0,0,0-1.219,2.449,1.714,1.714,0,0,0,2.273,1.137l4.582-2.069a2.079,2.079,0,0,0,1.216-2.45,1.713,1.713,0,0,0-2.271-1.137" transform="translate(2771.922 -8889.004)" fill="#12263f"/>
    <path id="Trazado_204404" data-name="Trazado 204404" d="M844.068,570c0-.017,0-.032.005-.047l-.016.042Z" transform="translate(2985.195 -9026.322)" fill="#1e2635" fill-rule="evenodd"/>
    <path id="Trazado_204405" data-name="Trazado 204405" d="M847.2,795.659a1.065,1.065,0,0,0-1.062,1.061,1.031,1.031,0,0,0,.685.974c-.006,0,0,0,.01,0l.005,0,.012,0,0,0-.01,0,.019.016c.023.03.052.068.074.1a.057.057,0,0,1,0,.008v0a1.059,1.059,0,0,0,2.116-.052,2.172,2.172,0,0,0-1.857-2.122" transform="translate(2983.593 -9200.352)" fill="#f9daab"/>
    <path id="Trazado_204406" data-name="Trazado 204406" d="M849.411,804.656h0l0-.006h0l0,.005" transform="translate(2981.068 -9207.286)" fill="#f9daab"/>
    <path id="Trazado_204407" data-name="Trazado 204407" d="M849.126,804.557l.021.01-.005-.005-.016,0" transform="translate(2981.287 -9207.215)" fill="#f9daab"/>
    <path id="Trazado_204408" data-name="Trazado 204408" d="M822.044,350.709a43.825,43.825,0,0,0-3.5,3.851c-2.339,2.921-3.935,8.848-8.259,9.534-4.6.722-5.771-7.718-6.124-10.907-.834-7.509,6.523-11.831,12.591-14.582,6.693-3.033,12.266-1.307,14.677,5.66-3.155,1.067-6.571,3.69-9.385,6.444" transform="translate(3016.007 -8846.838)" fill="#c25e55"/>
    <path id="Trazado_204409" data-name="Trazado 204409" d="M861.726,350.889c-.407-2.262-1.814-4.653-3.136-5.2-5.49-2.261-9.626,7.524-1.414,9.423,4.113.948,5.031-1.549,4.55-4.225" transform="translate(2978.651 -8853.149)" fill="#ae514f"/>
    <path id="Trazado_204410" data-name="Trazado 204410" d="M843.12,684.225a10.8,10.8,0,0,1,5.138,2.845c.749.715-18.538,26.812-24.886,20.1-8.058-8.531,10.994-24.884,19.748-22.94" transform="translate(3002.642 -9114.311)" fill="#c25e55"/>
    <path id="Trazado_204411" data-name="Trazado 204411" d="M857.747,710.039c.314-3.354,1.4-6.9,2.424-7.706,4.243-3.353,7.439,11.155,1.092,13.969-3.178,1.4-3.888-2.3-3.516-6.263" transform="translate(2974.709 -9128.01)" fill="#ae514f"/>
    <path id="Trazado_204412" data-name="Trazado 204412" d="M275.42,620.058a24.355,24.355,0,0,1-1.87-11.4c-8.161-1.837-16.24-4.052-24.236-6.477-1.406,10.408-5.906,20.376-11.765,29.094a13.459,13.459,0,0,0-.616,4.558c.015.308.035.619.057.931.922,12.893,1.369,26.094,2.873,38.959.961,8.224,1.624,17.814-3.414,24.875,3.515-4.927,8.574-8.1,13.71-10.957,6.813-3.792,12.537-5.913,17.568-12.289,8.86-11.226,13.4-22.74,12.4-37.424-.531-7.744-1.9-12.672-4.7-19.873" transform="translate(3453.687 -9051.176)" fill="#b55044"/>
    <path id="Trazado_204413" data-name="Trazado 204413" d="M300.137,586.494c-6.445-2.78-15.7-2.957-21.092-7.51-15.989-13.5-31.318-27.779-44.646-43.4-3.94,5.338-7.935,10.723-11.271,15.158-2.057,2.736-4.99,5.386-6.655,8.356-1.131,2.017-1.228,4.712-2.987,6.4-6.883,6.59-9.469-8.906-12.653,1.633-2.226,7.369-3.544,15.126-7.184,21.991-1.527,2.881-4.346,4.758-5.865,7.679-2.408,4.63-1.948,10.146-4.279,14.856-3.82,7.717-7.067,15.187-14.277,20.554-5.308,3.952-9.1,9.867-13.3,14.911-5.882,7.069-14.876,14.062-7.637,21.7A175.062,175.062,0,0,0,188.1,699.424c9.933,5.5,21.1,7.253,27.969-3.053,5.856-8.78,7.543-18.84,16.58-25.5,8.13-5.988,18.976-6.554,27-12.23,11.441-8.091,21.363-20.436,29.818-31.518,7.517-9.855,16.643-20.841,17.589-33.772.257-3.517-3.905-5.56-6.92-6.86" transform="translate(3523.737 -8999.822)" fill="#b55044"/>
    <path id="Trazado_204414" data-name="Trazado 204414" d="M268.7,946.512c-4.024-2.818-30.915-24.38-19.023-28.359,6.314-2.109,16.318,8.737,20.37,12.281,9.625,8.42,20.93,13.661,30.746,21.665,3.022,2.464,9.749,7.318,9.639,11.765-.185,7.474-10.395,4.953-14.179,2.032-9.023-6.963-18.2-12.832-27.553-19.384" transform="translate(3445.812 -9294.595)" fill="#ac4a44"/>
    <path id="Trazado_204415" data-name="Trazado 204415" d="M444.855,827.96c-7.747.335-22.154,4.479-23.914-7.157-1.25-8.266,5.709-23.432-1.754-30.48-9.079,13.434-6.381,30.305-1.286,44.536,4.636,12.941,25.287,10.02,35.848,10.373,6.422.214,38.536-7.748,23.541-16.944-8.718-5.347-22.947-.737-32.434-.327" transform="translate(3317.392 -9196.238)" fill="#ac4a44"/>
    <path id="Trazado_204416" data-name="Trazado 204416" d="M593.566,494.375c-2.238,1.31-9.129,4.889-11.647,3.044-3.459-2.534,7.833-9.17,9.913-10.739,3.4-2.567,7.25-4.855,10.485-7.655,2.052-1.776,4.606-4.484,3.161-7.422-1.514-3.082-5.05-.943-7.309.082-11.113,5.04-21.562,11.593-32.023,17.846-5.588,3.34-11.4,6.539-17.069,9.694-3.918,2.182-7.949,5.764-12.309,4.128-3.2-1.2-6.583-5.792-9.543-1.43a30.214,30.214,0,0,0-3.627,9.2c-.781,2.994-1.435,6.026-2.322,8.574-1.47,4.221-1.455,8.648-1.4,13.059.061,4.9-4.544,19.769-4.544,19.769,1.225,7.234.086,13.526,8.109,15.34a34.018,34.018,0,0,0,21.326-2.659c3.674-1.8,4.6-4.443,8.861-3.042,3.479,1.142,6.4,4.32,10.291,4.123,3.183-.161,5.943-4.695,7.921-6.9A124.784,124.784,0,0,0,584.8,543.051c2.329-3.668,4.873-7.035,6.368-11.155,1.35-3.72,3.626-7.467,4.4-11.455.858-4.411-2.188-8.033-1.514-12.169.714-4.386,5.394-6.775,6.024-11.5.2-1.489.229-3.442-1.272-4.344-1.952-1.174-3.528.949-5.237,1.95" transform="translate(3238.656 -8949.26)" fill="#b55044"/>
    <path id="Trazado_204417" data-name="Trazado 204417" d="M862.762,558.545c-.024.031-2.281,3.137-2.281,3.137-.03.764.665,10.018,1.28,9.85,5.139-1.4,11.028-6.99,9.638-12.631-.62-2.516-4.386-8.975-7.726-6.087-1.656,1.433.183,4.2-.911,5.73" transform="translate(2972.532 -9012.549)" fill="#b55044"/>
    <path id="Trazado_204418" data-name="Trazado 204418" d="M518.933,214.906c-5.254-4.019-11.561-3.826-18.8-3.813-7.4.014-39.243-.488-46.388-.442-6.359.041-30.195-2.075-30.689,20.027-.261,11.644-.132,23.226-.013,34.81.146,14.275-.1,27.51-.286,41.787-.136,10.62-.136,24.623.247,35.238.324,8.99-.295,15.7.111,24.687.292,6.49-1.343,14.74,4.818,19.669,3.854,3.083,10.021,4.2,14.721,4.589,7.454.621,14.938-.007,22.4.169,8.707.206,17.381-.2,26.07-.764,7.629-.5,16.975,1.285,24.16-1.353,8.158-2.994,10.466-11.051,10.722-20.136.975-34.561-.884-69.393.5-103.732.384-9.471-.529-19.387-.99-29.02-.383-8.041.7-16.14-6.592-21.716" transform="translate(3310.097 -8749.257)" fill="#446e90"/>
    <path id="Trazado_204419" data-name="Trazado 204419" d="M513.169,232.8c-14.911.007-54.92-1.592-66.773-.349-17.823,1.87-15.174,19.789-15.378,25.252-.075,1.986-.049,54.451-.024,92.51.014,21.439.029,38.306.024,39-.068,16.244,8.041,18.949,18.651,18.944l57.08-.028c23.863-.011,23.783-6.692,23.777-21.284,0-4.7.152-29.967.306-56.814.155-27.011.311-55.621.306-66.487,0-1.456.054-2.935.108-4.409.381-10.336.525-26.348-18.077-26.339" transform="translate(3303.705 -8765.732)" fill="#20375a"/>
    <path id="Trazado_204420" data-name="Trazado 204420" d="M604.7,252.566c-3.425.051-5.126.252-7.68.168-2.483-.081-9.372-.01-14.663.036-1.221.011-13.453-.99-9.372,2.811,1.172,1.092,4.055.618,5.511.693,3.646.188,8.636.069,13.053.084,4.862.017,7.531.011,13.306,0,4.874-.012,3.737-3.846-.156-3.788" transform="translate(3194.843 -8781.604)" fill="#192635"/>
    <path id="Trazado_204421" data-name="Trazado 204421" d="M539.006,423.071c.019-6.764.319-13.057.336-19.823.031-11.577-.01-101.423.015-110.452.029-10.8-5.888-13.653-12.286-13.765-7.624-.133-62.028.076-67.214-.007-4.539-.072-13.414,2.189-13.758,12.835-.2,6.07-.231,50.829-.271,56.9-.041,6.428-.132,19.281-.132,19.281-.078,11.609.2,40.721.19,42.67-.022,3.779.046,5.182,0,9.965-.036,4.022-1.6,13.751,14.56,14.033,6.45.113,60.292-.183,65.623-.049,12.615.316,12.928-9.317,12.935-11.588" transform="translate(3292.358 -8801.976)" fill="#88bac7"/>
    <path id="Trazado_204422" data-name="Trazado 204422" d="M815.27,428.362a11.864,11.864,0,0,1,.827-6.318c6.613,1.417,27.169,7.431,19.868,17.874-6.1,8.722-19.78-4.685-20.7-11.556" transform="translate(3007.478 -8912.279)" fill="#c25e55"/>
    <path id="Trazado_204423" data-name="Trazado 204423" d="M827.039,434.848c-2.97,4.174-7.211-2.062-8.694-4.583a.9.9,0,0,0-1.552.907,18.14,18.14,0,0,0,5.173,5.982,4.923,4.923,0,0,0,3.446.9,4.981,4.981,0,0,0,3.18-2.3c.674-.947-.886-1.843-1.552-.907" transform="translate(3006.319 -8918.284)" fill="#933c31"/>
    <path id="Trazado_204424" data-name="Trazado 204424" d="M157.1,963.731c-1.3-3.072-68.093-58.886-77.195-60.494-6.049-1.068-13.2,7.721-16.346,10.687-6.623,6.252-17.663,15.091-21.532,23.185-7.656,16.013,8.837,29.822,19.928,39.02,13.512,11.207,34.735,12.69,51.512,14.4,13.14,1.337,52.533-5.713,43.634-26.794" transform="translate(3605.105 -9283.231)" fill="#3c8cbf"/>
    <path id="Trazado_204425" data-name="Trazado 204425" d="M75.643,1050.648c-1.173,1.2-2.1,2.617-3.272,3.818-1.843,1.887,1.047,4.782,2.892,2.893,1.173-1.2,2.1-2.617,3.272-3.818,1.843-1.887-1.047-4.782-2.892-2.893" transform="translate(3580.655 -9396.487)" fill="#66acd4"/>
    <path id="Trazado_204426" data-name="Trazado 204426" d="M136.529,993.561a12.852,12.852,0,0,0-2.5,3.141,2.078,2.078,0,0,0,.734,2.8,2.056,2.056,0,0,0,2.8-.734c.117-.229.242-.452.378-.671.052-.081.105-.161.16-.239l.017-.026.011-.013c.4-.484.853-.921,1.3-1.363a2.045,2.045,0,1,0-2.892-2.893" transform="translate(3532.857 -9352.49)" fill="#66acd4"/>
    <path id="Trazado_204427" data-name="Trazado 204427" d="M182.161,945.634A5.862,5.862,0,0,0,180.489,947c-.207.24-.4.494-.59.747.1-.138-.234.286-.334.39a2.045,2.045,0,1,0,2.892,2.893c.132-.137.252-.283.37-.433.132-.169.261-.338.391-.508l-.058.076q.071-.092.145-.182a6.348,6.348,0,0,1,.493-.536c.024-.023.065-.058.1-.092.1-.068.211-.13.321-.188a2.046,2.046,0,0,0-2.064-3.533" transform="translate(3498.002 -9315.789)" fill="#66acd4"/>
    <path id="Trazado_204428" data-name="Trazado 204428" d="M92.194,1127.876a2.058,2.058,0,0,0-2.767.845,6.8,6.8,0,0,1-.4.724l-.033.044c-.112.145-.235.282-.358.419-.083.09-.168.178-.256.263-.021.021-.175.153-.243.213a5.747,5.747,0,0,1-.62.407,2.046,2.046,0,0,0,2.2,3.448,8.418,8.418,0,0,0,3.32-3.6,2.076,2.076,0,0,0-.845-2.766" transform="translate(3569.242 -9456.329)" fill="#66acd4"/>
    <path id="Trazado_204429" data-name="Trazado 204429" d="M130.669,1065.976a2.08,2.08,0,0,0-2.8.734c-1.023,1.506-2.249,2.857-3.272,4.363a2.054,2.054,0,0,0,.734,2.8,2.08,2.08,0,0,0,2.8-.734c1.023-1.505,2.249-2.857,3.272-4.363a2.055,2.055,0,0,0-.734-2.8" transform="translate(3540.154 -9408.566)" fill="#66acd4"/>
    <path id="Trazado_204430" data-name="Trazado 204430" d="M170.728,1031.047a1.983,1.983,0,0,0-1.846,1.232c-.058.053-.12.1-.181.155a10.282,10.282,0,0,0-1.055.848,2.045,2.045,0,1,0,2.892,2.892c.086-.083.176-.16.268-.236a11.991,11.991,0,0,0,1.025-.816,2.959,2.959,0,0,0,.942-2.03,2.053,2.053,0,0,0-2.045-2.046" transform="translate(3507.195 -9381.849)" fill="#66acd4"/>
    <path id="Trazado_204431" data-name="Trazado 204431" d="M215.964,990.546a3.847,3.847,0,0,0-1.487.382c-.134.057-.264.121-.4.185-.04.012-.082.02-.124.029l-.053.011-.029.007h.013a2.033,2.033,0,0,0-1.606,1.978,2.055,2.055,0,0,0,2.045,2.045,3.851,3.851,0,0,0,1.487-.383c.134-.056.265-.121.4-.184.041-.012.083-.02.124-.029l.053-.011.03-.006-.013,0a2.033,2.033,0,0,0,1.6-1.978,2.055,2.055,0,0,0-2.045-2.045" transform="translate(3472.321 -9350.617)" fill="#66acd4"/>
    <path id="Trazado_204432" data-name="Trazado 204432" d="M117.423,1179.364c-.051.05-.1.1-.158.145l0,0c-.188.136-.381.262-.574.39a10.382,10.382,0,0,0-1.446,1.1,2.045,2.045,0,0,0,2.892,2.893c.051-.051.1-.1.158-.146l0,0c.188-.135.381-.262.574-.389a10.387,10.387,0,0,0,1.446-1.1,2.045,2.045,0,0,0-2.892-2.891" transform="translate(3547.601 -9495.753)" fill="#66acd4"/>
    <path id="Trazado_204433" data-name="Trazado 204433" d="M172.57,1126.329a2.033,2.033,0,0,0-1.979,1.608l0-.016-.016.065c-.174.2-.356.391-.543.578a2.045,2.045,0,0,0,2.892,2.893,4.715,4.715,0,0,0,1.689-3.082,2.055,2.055,0,0,0-2.045-2.045" transform="translate(3505.353 -9455.314)" fill="#66acd4"/>
    <path id="Trazado_204434" data-name="Trazado 204434" d="M232.408,1050.414a2.058,2.058,0,0,0-2.8.733,6.636,6.636,0,0,1-.43.707l-.035.043c-.117.142-.245.273-.374.4-.087.087-.175.172-.267.253-.021.02-.18.146-.25.2a6.052,6.052,0,0,1-.637.383,2.046,2.046,0,1,0,2.064,3.532,8.416,8.416,0,0,0,3.46-3.461,2.076,2.076,0,0,0-.734-2.8" transform="translate(3461.272 -9396.573)" fill="#66acd4"/>
    <path id="Trazado_204435" data-name="Trazado 204435" d="M184.168,1186.5a12.826,12.826,0,0,0-2.5,3.141,2.078,2.078,0,0,0,.734,2.8,2.056,2.056,0,0,0,2.8-.734c.117-.229.242-.453.378-.672.052-.08.1-.16.16-.238l.017-.025.011-.014a18.677,18.677,0,0,1,1.3-1.363,2.045,2.045,0,1,0-2.892-2.893" transform="translate(3496.126 -9501.257)" fill="#66acd4"/>
    <path id="Trazado_204436" data-name="Trazado 204436" d="M231.218,1129.336l-1.636,1.637a2.045,2.045,0,0,0,2.892,2.892l1.636-1.636a2.045,2.045,0,0,0-2.892-2.893" transform="translate(3459.438 -9457.179)" fill="#66acd4"/>
    <path id="Trazado_204437" data-name="Trazado 204437" d="M269.331,1081.7l-1.636,1.636a2.045,2.045,0,0,0,2.892,2.893l1.636-1.636a2.045,2.045,0,1,0-2.892-2.893" transform="translate(3430.051 -9420.446)" fill="#66acd4"/>
    <path id="Trazado_204438" data-name="Trazado 204438" d="M319.681,1031.047a2.066,2.066,0,0,0-2.018,1.734,1.983,1.983,0,0,0-.573,1.4,2.058,2.058,0,0,0,2.045,2.046,2.515,2.515,0,0,0,2.219-1.289,4.053,4.053,0,0,0,.372-1.847,2.065,2.065,0,0,0-2.045-2.046" transform="translate(3391.509 -9381.849)" fill="#66acd4"/>
    <path id="Trazado_204439" data-name="Trazado 204439" d="M278.868,1007.228c-2.637,0-2.637,4.09,0,4.09s2.638-4.09,0-4.09" transform="translate(3422.506 -9363.483)" fill="#66acd4"/>
    <path id="Trazado_204440" data-name="Trazado 204440" d="M280.229,1173.842c-.051.051-.1.1-.158.146l0,0c-.188.135-.382.261-.574.39a10.435,10.435,0,0,0-1.447,1.1,2.045,2.045,0,0,0,2.892,2.892c.051-.05.1-.1.158-.145l0,0c.187-.135.382-.262.573-.39a10.515,10.515,0,0,0,1.447-1.1,2.045,2.045,0,0,0-2.892-2.893" transform="translate(3422.07 -9491.495)" fill="#66acd4"/>
    <path id="Trazado_204441" data-name="Trazado 204441" d="M336.7,1126.633a2.059,2.059,0,0,0-2.8.734,3.178,3.178,0,0,1-.161.285l-.036.06-.029.034c-.2.24-.434.459-.656.682a7.261,7.261,0,0,0-1.3,1.666,2.045,2.045,0,0,0,3.532,2.064q.074-.146.161-.285l.036-.06.029-.034c.2-.24.434-.459.657-.682a7.252,7.252,0,0,0,1.3-1.665,2.075,2.075,0,0,0-.733-2.8" transform="translate(3380.435 -9455.341)" fill="#66acd4"/>
    <path id="Trazado_204442" data-name="Trazado 204442" d="M373.175,1085.826a3.85,3.85,0,0,0-1.486.382c-.134.057-.265.121-.4.185-.041.011-.082.02-.124.029l-.053.011-.029.006.013,0a2.034,2.034,0,0,0-1.605,1.979,2.056,2.056,0,0,0,2.046,2.045,3.855,3.855,0,0,0,1.486-.383c.135-.057.265-.121.4-.184.04-.012.083-.021.124-.03l.053-.011.03-.007-.013,0a2.033,2.033,0,0,0,1.605-1.979,2.056,2.056,0,0,0-2.046-2.045" transform="translate(3351.104 -9424.083)" fill="#66acd4"/>
    <path id="Trazado_204443" data-name="Trazado 204443" d="M233.387,1221.317c-.051.051-.1.1-.158.145l0,0c-.188.136-.382.262-.574.39a10.444,10.444,0,0,0-1.446,1.1,2.045,2.045,0,0,0,2.892,2.892c.051-.051.1-.1.158-.145l0,0c.187-.135.382-.261.574-.39a10.438,10.438,0,0,0,1.446-1.1,2.045,2.045,0,1,0-2.892-2.893" transform="translate(3458.188 -9528.101)" fill="#66acd4"/>
    <path id="Trazado_204444" data-name="Trazado 204444" d="M521.88,359.814c-.244-2.427-1.327-4.463-1.967-6.785-1.053-3.821-1.452-7.206-4.091-10.306-9.786-11.5-15.831-29.171-34.158-25.057-6.052,1.358-10.444,4.153-14.74,8.627-4.071,4.24-6.7,7.489-6.254,13.349.5,6.545-2.407,7.494-7.364,11.676-6.2,5.233-7.892,14.74-5.948,22.125,1.195,4.538,2.489,8.313.909,12.876-1.156,3.34-3.424,6.154-3.723,9.789-.7,8.471,1.166,17.2-.006,25.441,2.514,5.516,10.291,1.272,14.734,1.484,2.316.11,4.233,2.114,6.3,3.011a25.7,25.7,0,0,0,7.66,1.808c7.663.783,15.851.089,22.78-3.495,2.869-1.484,6.553-3.236,8.385-5.956,1.749-2.6,1.838-6.192,2.11-9.182.435-4.762-1.351-13.312,2.37-17.206.935-.978,2.377-1.323,3.519-2.1a27.246,27.246,0,0,0,10.121-17.147c.429-4.06-.23-8.9-.637-12.949" transform="translate(3293.361 -8831.329)" fill="#2f363a"/>
    <path id="Trazado_204445" data-name="Trazado 204445" d="M538.884,510.694a1.773,1.773,0,0,0-.378-.288c-1.368-.767-2.482.928-2.724,2.262a12.737,12.737,0,0,0,.511,6.7c.321.71,2,3.409,2.818,3.242,1.512-.306.913-4.87.9-6.084-.011-1.479.109-4.608-1.129-5.833" transform="translate(3223.056 -8980.263)" fill="#d56254"/>
    <path id="Trazado_204446" data-name="Trazado 204446" d="M539.691,530.2l1.306.291c-.065-1.266-.094-2.561-.22-3.808-1.9-.4-1.505,2.044-1.086,3.518" transform="translate(3220.142 -8992.924)" fill="#c2523b"/>
    <path id="Trazado_204447" data-name="Trazado 204447" d="M688.275,400.458c-1.463-3.35-4.14-5.96-4.96-9.422a27.286,27.286,0,0,1-.766-7.714c.516-4.81,3.393-7.743,2.037-12.945-1.608-6.17-5.77-8.711-9.341-13.264-3.594-4.583-1.659-12.294-3.119-17.72-2-7.438-9.875-16-17.306-18.11-4.245-1.206-10.663-1.269-14.17,1.619-5.56,4.578-1.683,9.817,1.993,14.139,4.466,5.251,11.062,8.888,14.3,14.95,1.57,2.945,3.372,6.047,4.085,9.278a32.147,32.147,0,0,1,.756,6.705c.032,5.443-2.526,9.178-3.894,14.287-1.709,6.38-2.791,12.3-2.286,18.9.287,3.758-.228,7.428,1.353,10.963,2.589,5.789,9.305,9.169,14.977,11.383,3.448,1.346,5.514.918,8.593-.855,1.735-1,4.09-1.49,5.684-2.546a6.658,6.658,0,0,0,1.022-.841c-.016-6.261-.24-12.649,1.047-18.807" transform="translate(3144.178 -8833.986)" fill="#343e46"/>
    <path id="Trazado_204448" data-name="Trazado 204448" d="M400.434,1042.1l0-.019Z" transform="translate(3327.248 -9390.354)" fill="#3e8ebe"/>
    <path id="Trazado_204449" data-name="Trazado 204449" d="M564.924,594.625c-11.773-5.645-9.953-17.229-9.607-27.3.071-2.048.879-6.3-.519-8.016-1.939-2.382-10.075.8-13.242,1.349-5.468.948-12.681-3.372-17.6-1.627-4.427,1.568-2.011,5.35-1.852,8.265.306,5.622,1.036,14.725-1.189,20.086-1.941,4.677-6.4,6.641-10.9,9.34a9.3,9.3,0,0,0-4.483,7.072c-.43,2.867-.06,5.974.045,8.673a29.789,29.789,0,0,0,6.016,17.159c6.539,8.369,18.392,10.849,28.805,8.136,9.464-2.468,15.74-10.784,20.674-17.59,3-4.144,14.661-13.756,12.621-18.554-.855-2.011-6.578-5.951-8.76-7" transform="translate(3246.376 -9017.447)" fill="#d56254"/>
    <path id="Trazado_204450" data-name="Trazado 204450" d="M538.253,717.131a4.686,4.686,0,0,1-.977-.184c-6.923-2.089-14.034-3.806-20.53-7.016a5.112,5.112,0,0,1-.669,2.726,21,21,0,0,1-13.037,9.824,55.406,55.406,0,0,1-14.748,1.294c-8.9-.117-20.475-3.273-23.657-12.5-3.442,1.14-6.845,2.562-10.022,3.743-.77.287-10.109,3.236-10.1,3.956,0,.043-.179,22.674-.2,25.685-.041,5.7-1.541,14.261,2.289,19,4.285,5.3,26.841,4.02,32.5,4.164,7.366.186,30.3-.766,36.082-.77,6.6,0,16.258,1.512,20.273-6.239,3.374-6.514,2.794-15.949,2.5-23.028-.074-1.8.046-15.164.294-20.658" transform="translate(3293.662 -9134.255)" fill="#feb229"/>
    <path id="Trazado_204451" data-name="Trazado 204451" d="M576.573,707.342c-.147.4-4.537,11.966-23.785,12.768-20.131.839-24.132-12.038-24.237-12.342-1,.465-2.019.886-3.039,1.269-.834.313-1.7.6-2.581.838,1.184,8.364,9.7,13.739,16.309,16.136,7.465,2.708,17.363,2.509,25.029.193a24.165,24.165,0,0,0,10.8-6.732c2.277-2.557,4.6-7.3,6.038-10.3-.506-.259-4.6-1.653-4.539-1.827" transform="translate(3232.796 -9132.258)" fill="#ed9500"/>
    <path id="Trazado_204452" data-name="Trazado 204452" d="M567.159,745.957a1.614,1.614,0,0,0-2.105.857,6.6,6.6,0,0,0-.5,2.827,1.606,1.606,0,1,0,3.185-.417c0-.029,0-.052-.007-.07s0-.032.005-.054a2.791,2.791,0,0,1,.056-.337c-.025.128.065-.238.072-.265.048-.146.1-.292.148-.437a1.635,1.635,0,0,0-.856-2.1" transform="translate(3200.719 -9161.939)" fill="#fff"/>
    <path id="Trazado_204453" data-name="Trazado 204453" d="M607.16,765.194a1.622,1.622,0,0,0-2.253.294,8.337,8.337,0,0,0-.821,1.245,2.982,2.982,0,0,0-.247,1.66,1.606,1.606,0,0,0,3.19-.369h0c.03-.046.059-.09.091-.135.107-.15.222-.3.334-.442a1.621,1.621,0,0,0-.294-2.252" transform="translate(3170.43 -9176.612)" fill="#fff"/>
    <path id="Trazado_204454" data-name="Trazado 204454" d="M658.488,768.9c-.017-.042-.029-.072-.039-.1s-.014-.075-.029-.146c-.1-.428-.147-.867-.2-1.3a1.606,1.606,0,0,0-3.186.418,7.935,7.935,0,0,0,.974,3.282,1.609,1.609,0,0,0,2.254.287,1.642,1.642,0,0,0,.285-2.255c.181.292-.044-.153-.057-.187" transform="translate(3130.952 -9177.451)" fill="#fff"/>
    <path id="Trazado_204455" data-name="Trazado 204455" d="M696.322,764.688a1.6,1.6,0,0,0-2.13,2.384s0,.009,0,.013a1.607,1.607,0,0,0,3.186-.418,2.914,2.914,0,0,0-1.058-1.979" transform="translate(3101.094 -9176.22)" fill="#fff"/>
    <path id="Trazado_204456" data-name="Trazado 204456" d="M732.676,741.3a3.239,3.239,0,0,0-.638-.677,1.605,1.605,0,0,0-2.018,2.5c.065.08.125.163.184.249a3.227,3.227,0,0,0,.639.676,1.6,1.6,0,0,0,2.017-2.494c-.063-.08-.124-.163-.183-.249" transform="translate(3073.556 -9157.665)" fill="#fff"/>
    <path id="Trazado_204457" data-name="Trazado 204457" d="M979.415,807.235l-.022.006Z" transform="translate(2880.845 -9209.28)" fill="#3e8ebe"/>
    <path id="Trazado_204458" data-name="Trazado 204458" d="M614.712,574.606c-4.7-2.552-8.666,4.852-13.044,4.413-4.532-.455-10.866-12.006-15.412-5.458-3.8,5.468,4.471,15.2,8.431,18.383,3.441,2.767,12.532.523,13.043-4.31,2.876-1.474,13.3-9.6,6.982-13.028" transform="translate(3184.722 -9027.561)" fill="#c6534c"/>
    <path id="Trazado_204459" data-name="Trazado 204459" d="M576.742,520.252l1.638.363c-.026-1.261-.007-2.55-.108-3.8-2.379-.51-1.994,1.944-1.53,3.434" transform="translate(3191.575 -8985.304)" fill="#cc7961"/>
    <path id="Trazado_204460" data-name="Trazado 204460" d="M631.426,522.3h.007l-.007-.008Z" transform="translate(3149.143 -8989.572)" fill="#aab995"/>
    <path id="Trazado_204461" data-name="Trazado 204461" d="M631.426,522.3h.007l-.007-.008Z" transform="translate(3149.143 -8989.572)" fill="#aab995"/>
    <path id="Trazado_204462" data-name="Trazado 204462" d="M586.247,427.761c-6.878.692-17.139,1.867-20.771,8.728h.265c-.746,4.455,5.742-.93,8.2-.486,1.044,2.209,10.123-.4,12.017-1.043,5.031-1.7,10.541,1.573,15.727,2.575,2.878-6.267-11.526-10.168-15.442-9.774" transform="translate(3199.993 -8916.667)" fill="#e59171"/>
    <path id="Trazado_204463" data-name="Trazado 204463" d="M737.592,512.191a1.63,1.63,0,0,0-.375.257c-1.254,1.126-1.392,4.278-1.521,5.76-.118,1.369-1.233,4.868.31,5.666,1.276.66,2.434-1.522,2.945-2.506a13.69,13.69,0,0,0,1.011-6.68c-.122-1.359-1.028-3.155-2.37-2.5" transform="translate(3069.131 -8981.681)" fill="#d56254"/>
    <path id="Trazado_204464" data-name="Trazado 204464" d="M593.187,409.809a17.167,17.167,0,0,0-3.439-6.863c-10.974-13.025-32.779-8.14-38.567,5.879-1.6,3.874-.244,6.968-.54,10.836-.013.167-.03.335-.048.5a11.141,11.141,0,0,1-1.211,3.118c-1.9,4.616,1.781,11.461,4.318,15.472a22.455,22.455,0,0,0,12.664,9.6c8.779,2.681,16.489-1.652,20.935-7.7a31.062,31.062,0,0,0,5.627-11.5,12.892,12.892,0,0,0,.257-5.5,16.79,16.79,0,0,1-.408-6.806c.592-2.705,1.134-4.2.411-7.028" transform="translate(3212.806 -8891.698)" fill="#ed8361"/>
    <path id="Trazado_204465" data-name="Trazado 204465" d="M580.09,450.351c-1.456.4-4.582.845-4.463,3.146,0-.07.352-.138.909-.2,1.7-.195,5.239-.339,5.6-.391,2.249-.325,2.338-2.379,1.919-4.47a19.174,19.174,0,0,1-3.965,1.918" transform="translate(3192.169 -8932.628)" fill="#293b37"/>
    <path id="Trazado_204466" data-name="Trazado 204466" d="M685.524,472.6c-.433-.079-5.38-.84-5.333-1.167-.257,1.6-.276,2.814.961,3.4a4.66,4.66,0,0,0,1.71.368c.426.024,5.984-.324,5.894.049.523-2.228-1.02-2.234-3.231-2.65" transform="translate(3111.652 -8950.362)" fill="#293b37"/>
    <path id="Trazado_204467" data-name="Trazado 204467" d="M623.354,606.114c-3.6-.211-6.652,1.376-6.817,3.543s2.62,4.094,6.22,4.3,6.653-1.375,6.819-3.542-2.62-4.094-6.221-4.3" transform="translate(3160.628 -9054.191)" fill="#ed8361"/>
    <path id="Trazado_204468" data-name="Trazado 204468" d="M636.37,509.807c-.1-.619.066-2.485-1.075-2.416a1.47,1.47,0,0,0-.379.08c-.938.319-.86,1.666-1.018,2.344a27.5,27.5,0,0,1-.874,3.3,10.868,10.868,0,0,0-.859,2.359c-.3,2.607,3.4,3.173,5.457,1.8,1.26-.838.586-2.563.108-3.55a13.9,13.9,0,0,1-1.361-3.917" transform="translate(3148.586 -8978.085)" fill="#c65c50"/>
    <path id="Trazado_204469" data-name="Trazado 204469" d="M574.464,542.595c-.046.118-.126.32-.036.065-1.571,3.143,4.938,4.851,5.942,1.934,1.262-3.662-5.018-4.114-5.906-2" transform="translate(3193.278 -9004.256)" fill="#e45552"/>
    <path id="Trazado_204470" data-name="Trazado 204470" d="M692.776,542.672c-.015.134-.039.362-.017.076-.687,3.651,6.012,3.652,6.214.385.255-4.1-5.9-2.874-6.2-.461" transform="translate(3101.891 -9003.579)" fill="#e45552"/>
    <path id="Trazado_204471" data-name="Trazado 204471" d="M607.623,574.007c-.415.012-.865,2.087-.788,2.1a.489.489,0,0,0,.22-.021c.484-.168,1.241-2.1.567-2.078" transform="translate(3168.11 -9029.449)" fill="#e28b6e"/>
    <path id="Trazado_204472" data-name="Trazado 204472" d="M688.068,577.058a.483.483,0,0,0-.094.16c-.143.412.635,1.885.961,1.418.2-.284-.822-1.627-.867-1.578" transform="translate(3105.556 -9031.802)" fill="#e28b6e"/>
    <path id="Trazado_204473" data-name="Trazado 204473" d="M682.7,593.322c.014.018.031.039.044.056a.1.1,0,0,0-.044-.056" transform="translate(3109.612 -9044.343)" fill="#ee7963"/>
    <path id="Trazado_204474" data-name="Trazado 204474" d="M745.409,526.861c-.235,1.217-.391,2.5-.572,3.744l1.256-.089c.534-1.4,1.137-3.764-.684-3.655" transform="translate(3061.698 -8993.097)" fill="#c2523b"/>
    <path id="Trazado_204475" data-name="Trazado 204475" d="M588.681,385.941a13.511,13.511,0,0,1-1.362-.884A83.005,83.005,0,0,1,580.4,378.7c-4.908-4.578-10.517-7.089-15.886-.163-2.672,3.445-6.088,6.5-8.235,10.325-2.419,4.312-2.361,9.054-1.219,13.794a22.059,22.059,0,0,1,1.2-5.606c.948-1.89,2.872-2.238,4.29-3.725,1.2-1.262,1.884-2.951,3.153-4.259,2.514-2.592,5.964-6.093,9.555-7.045,2.6-.689,4.618,2.364,6.535,4.271a95.656,95.656,0,0,0,14.368,11.175c4.3,2.82,3.294-2.4,2.525-4.959-1.438-4.78-4.478-4.562-8-6.565" transform="translate(3208.613 -8875.427)" fill="#dc6d52"/>
    <path id="Trazado_204476" data-name="Trazado 204476" d="M549.7,362.372c-.6.263-1.115.509-1.511.706-5.2,2.589-8.946,6.93-11.7,11.968-2.323,4.256-3.8,11.661-.042,15.827a15.685,15.685,0,0,1,4.171-6.615c3.936-4.1,7.384-8.533,11.442-12.536,2.068-2.04,4.257-4.43,5.323-7.153,2.151-5.492-5.165-3.309-7.686-2.2" transform="translate(3224.144 -8865.206)" fill="#2f363a"/>
    <path id="Trazado_204477" data-name="Trazado 204477" d="M655.409,343.177c-3.49-2.134-20.228-14.213-21.5-4.233-.943,7.379,4.891,12.52,10.147,16.633,2.838,2.221,5.636,4.452,8.417,6.743,2.485,2.046,4.437,5.295,6.819,7.047a44.228,44.228,0,0,0,2.726-8.92c.568-2.288,2.8-4.744,2.36-7.184-.734-4.08-5.633-8.049-8.964-10.086" transform="translate(3147.31 -8845.201)" fill="#343e46"/>
    <path id="Trazado_204478" data-name="Trazado 204478" d="M589.714,507.485a1.673,1.673,0,0,0-1.632,1.664l0,.272a1.64,1.64,0,0,0,1.68,1.589,1.673,1.673,0,0,0,1.631-1.664l0-.273a1.639,1.639,0,0,0-1.679-1.588" transform="translate(3182.564 -8978.159)" fill="#1a1715"/>
    <path id="Trazado_204479" data-name="Trazado 204479" d="M581.286,505.383c-2.848-1.328-7.7-1.6-10.382.115a.483.483,0,0,0-.136.735.685.685,0,0,0,.861.1c2.265-1.45,6.59-1.178,9.052-.029a.738.738,0,0,0,.337.063.66.66,0,0,0,.5-.277.48.48,0,0,0-.234-.712" transform="translate(3196.002 -8975.703)" fill="#343e46"/>
    <path id="Trazado_204480" data-name="Trazado 204480" d="M691.765,507.564a1.675,1.675,0,0,0-1.635,1.666l0,.272a1.643,1.643,0,0,0,1.682,1.592,1.676,1.676,0,0,0,1.634-1.666l0-.274a1.641,1.641,0,0,0-1.681-1.591" transform="translate(3103.88 -8978.22)" fill="#1a1715"/>
    <path id="Trazado_204481" data-name="Trazado 204481" d="M685.406,506.585c-2.8-1.426-7.651-1.863-10.4-.239a.484.484,0,0,0-.162.731.685.685,0,0,0,.859.134c2.318-1.374,6.637-.954,9.063.28a.744.744,0,0,0,.334.075.661.661,0,0,0,.511-.26.481.481,0,0,0-.21-.721" transform="translate(3115.744 -8976.48)" fill="#343e46"/>
    <path id="Trazado_204482" data-name="Trazado 204482" d="M625.82,568.654a51.882,51.882,0,0,1-6.008.037c-1.738-.04-3.483-.213-5.219-.308-1.223-.066-2.142-.048-2.137,1.511a5.174,5.174,0,0,0,1.974,3.641,8.2,8.2,0,0,0,5.687,2.022,9.456,9.456,0,0,0,4.855-1.465,5.022,5.022,0,0,0,2.23-5.625c-.452.082-.914.144-1.382.188" transform="translate(3163.769 -9025.1)" fill="#fff"/>
    <path id="Trazado_204483" data-name="Trazado 204483" d="M621.429,564.061c-.423-.028-.445.173-.9.38-1.774.812-3.1-.372-3.4-.3a27.724,27.724,0,0,1-5.172.734c.193.681,1.635.718,2.2.808a22.786,22.786,0,0,0,5.725.2c1.574-.144,7.071.024,7.371-.912-.591-.23-4.281-.638-5.614-.878a1.983,1.983,0,0,0-.218-.028" transform="translate(3164.149 -9021.779)" fill="#d33138"/>
    <path id="Trazado_204484" data-name="Trazado 204484" d="M626.576,568.856a4.4,4.4,0,0,1-1.846,1.965,7.572,7.572,0,0,1-4.134,1.107,11.323,11.323,0,0,1-5.123-1.222,7.011,7.011,0,0,1-2.572-1.746c-.475-.778-.095-1.164-.757-1.874a6.42,6.42,0,0,0,.418,3.787A6.212,6.212,0,0,0,615.07,574a8.682,8.682,0,0,0,8.691.534,6.285,6.285,0,0,0,2.784-3.129,10.8,10.8,0,0,0,.638-3.82c-.237.485-.418.9-.607,1.269" transform="translate(3164.085 -9024.115)" fill="#d33138"/>
    <path id="Trazado_204485" data-name="Trazado 204485" d="M618.536,577.937c4.034,1.528,8.587.726,10.471-3.13-.905.85-3.513,1.332-6.034,1.36a24.963,24.963,0,0,1-7.693-1.02c.2.033,1.266,2.036,3.257,2.79" transform="translate(3161.593 -9030.066)" fill="#af2f3d"/>
    <path id="Trazado_204486" data-name="Trazado 204486" d="M629.289,583.22c-1.226.009-3.466.141-3.87.534-.309.3,1.22,1.225,4.195,1.369a8.425,8.425,0,0,0,4.584-1.07c-.8-1.041-3.643-.843-4.909-.834" transform="translate(3153.805 -9036.537)" fill="#c3424f"/>
    <path id="Trazado_204487" data-name="Trazado 204487" d="M812.914,532a11.862,11.862,0,0,1,.827-6.318c6.614,1.417,27.17,7.431,19.869,17.874-6.1,8.723-19.781-4.684-20.7-11.555" transform="translate(3009.295 -8992.192)" fill="#c25e55"/>
    <path id="Trazado_204488" data-name="Trazado 204488" d="M828.939,543.294c-2.292,2.153-5.895-1.587-7.217-3.323-.693-.909-2.256-.015-1.552.907,2.1,2.756,6.644,6.877,10.039,3.687.846-.8-.427-2.064-1.271-1.271" transform="translate(3003.75 -9002.915)" fill="#933c31"/>
    <path id="Trazado_204489" data-name="Trazado 204489" d="M320.031,480.494c2.62-4.588,6.286-8.431,6.723-14.544.466-6.518-1.071-18.252-8.924-20.276-2.085,7.259-7.1,13.093-12.063,18.678-3.764,4.235-9.92,8.179-12.825,13.133-2.376,4.053,1.423,10.809,4.523,13.61,5.476,4.948,18.713,3.912,20.146-4.261a19.374,19.374,0,0,1,2.42-6.341" transform="translate(3410.703 -8930.501)" fill="#b55044"/>
    <path id="Trazado_204490" data-name="Trazado 204490" d="M385.841,486.273a5.965,5.965,0,0,1-3.707,4.5,4.992,4.992,0,0,1-5.288-1.368c-.732-.767-2,.294-1.263,1.067a6.7,6.7,0,0,0,6.881,1.92,7.589,7.589,0,0,0,5.023-5.961c.217-1.045-1.432-1.19-1.646-.159" transform="translate(3346.581 -8961.262)" fill="#933c31"/>
    <path id="Trazado_204491" data-name="Trazado 204491" d="M646.628,357.421c-1.147-1.664-2.115-3.841-1.534-5.881a.687.687,0,0,0-1.324-.365c-.682,2.392.314,4.971,1.672,6.94.5.724,1.691.038,1.187-.693" transform="translate(3139.796 -8857.262)" fill="#2b3236"/>
    <path id="Trazado_204492" data-name="Trazado 204492" d="M699.892,414.533a15.522,15.522,0,0,1-6.337-3.716c-.635-.617-1.608.353-.971.971a16.97,16.97,0,0,0,6.943,4.069.687.687,0,0,0,.366-1.325" transform="translate(3102.148 -8903.472)" fill="#2b3236"/>
    <path id="Trazado_204493" data-name="Trazado 204493" d="M762.05,528.383c-.075-.876-1.449-.883-1.374,0a28.9,28.9,0,0,1-.2,7.373c-.148.866,1.176,1.237,1.325.365a30.3,30.3,0,0,0,.253-7.738" transform="translate(3049.652 -8993.765)" fill="#2b3236"/>
    <path id="Trazado_204494" data-name="Trazado 204494" d="M754.485,636.688c-.871-1.862-2.368-3.477-2.678-5.56-.13-.874-1.454-.5-1.324.365.329,2.211,1.895,3.916,2.816,5.888.375.8,1.559.1,1.187-.693" transform="translate(3057.352 -9073.109)" fill="#2b3236"/>
    <path id="Trazado_204495" data-name="Trazado 204495" d="M813.5,654.173c-.972-2.653-2.04-5.272-2.747-8.013a.687.687,0,0,0-1.325.365c.708,2.741,1.776,5.36,2.747,8.014.3.824,1.63.468,1.325-.365" transform="translate(3011.915 -9084.706)" fill="#2b3236"/>
    <path id="Trazado_204496" data-name="Trazado 204496" d="M740.151,377.021c-.541-2.627-2.137-4.783-3.5-7.033a.687.687,0,0,0-1.186.693c1.305,2.149,2.848,4.2,3.365,6.7.179.868,1.5.5,1.325-.365" transform="translate(3069.008 -8871.892)" fill="#2b3236"/>
    <path id="Trazado_204497" data-name="Trazado 204497" d="M788.89,492.543c-.023-.067-.053-.132-.079-.2-.014-.035-.026-.07-.038-.105a.089.089,0,0,0-.006-.016.684.684,0,0,0-1.365.066,1.409,1.409,0,0,0,.115.5c.029.07.056.141.079.213.009.028.015.057.021.087,0,.012.013.1.013.121a.687.687,0,0,0,1.374,0,2.132,2.132,0,0,0-.115-.663" transform="translate(3028.879 -8965.913)" fill="#2b3236"/>
    <path id="Trazado_204498" data-name="Trazado 204498" d="M681.779,370.922c-1.268-1.26-2.923-2.626-3-4.552-.037-.882-1.411-.886-1.374,0,.1,2.357,1.838,3.964,3.407,5.523a.687.687,0,0,0,.971-.971" transform="translate(3113.694 -8868.842)" fill="#4c5c66"/>
    <path id="Trazado_204499" data-name="Trazado 204499" d="M763.956,447.746c-.478-1.957-1.562-3.636-2.29-5.495-.32-.815-1.648-.461-1.325.365.727,1.855,1.813,3.546,2.29,5.495.21.86,1.535.5,1.325-.365" transform="translate(3049.782 -8927.506)" fill="#4c5c66"/>
    <path id="Trazado_204500" data-name="Trazado 204500" d="M791.977,579.5a19.506,19.506,0,0,1-.024-6c.172-.865-1.152-1.234-1.325-.365a20.6,20.6,0,0,0-.025,6.364c.1.871,1.471.88,1.374,0" transform="translate(3026.593 -9028.397)" fill="#4c5c66"/>
    <path id="Trazado_204501" data-name="Trazado 204501" d="M800.537,677.172a9.112,9.112,0,0,1-1.884-2.9c-.332-.807-1.661-.454-1.324.365a10.858,10.858,0,0,0,2.237,3.508c.618.636,1.589-.336.971-.971" transform="translate(3021.267 -9106.404)" fill="#4c5c66"/>
    <path id="Trazado_204502" data-name="Trazado 204502" d="M564.352,368.993a28.035,28.035,0,0,0-5.231,3.795c-.654.594.207,1.666.863,1.069a26.558,26.558,0,0,1,4.931-3.611c.768-.428.212-1.684-.563-1.253" transform="translate(3205.073 -8871.308)" fill="#4c5c66"/>
    <path id="Trazado_204503" data-name="Trazado 204503" d="M500.567,522.167c-.894,3.274-.939,6.664-1.169,10.028-.061.884,1.313.879,1.374,0a48.943,48.943,0,0,1,1.12-9.663.687.687,0,0,0-1.324-.365" transform="translate(3250.944 -8989.104)" fill="#4c5c66"/>
    <path id="Trazado_204504" data-name="Trazado 204504" d="M479.107,680.952c-1.112,1.991-2.314,4.059-4.333,5.248a.687.687,0,0,0,.693,1.186c2.228-1.312,3.6-3.539,4.826-5.742.432-.774-.754-1.467-1.186-.693" transform="translate(3270.183 -9111.649)" fill="#4c5c66"/>
    <path id="Trazado_204505" data-name="Trazado 204505" d="M529.37,616.366a60.574,60.574,0,0,1-.891,8.747c-.133.866,1.191,1.238,1.325.365a63.176,63.176,0,0,0,.94-9.112.687.687,0,0,0-1.374,0" transform="translate(3228.527 -9061.6)" fill="#4c5c66"/>
    <path id="Trazado_204506" data-name="Trazado 204506" d="M690.8,334.073a3.3,3.3,0,0,1-1.127-1.127.7.7,0,0,0-.94-.246.69.69,0,0,0-.246.94,4.7,4.7,0,0,0,1.62,1.62.687.687,0,1,0,.693-1.186" transform="translate(3105.224 -8843.32)" fill="#2b3236"/>
    <path id="Trazado_204507" data-name="Trazado 204507" d="M527.174,435.713a24.819,24.819,0,0,0-3.84,6.943c-.331.822,1,1.176,1.325.365a22.784,22.784,0,0,1,3.487-6.337c.569-.671-.4-1.648-.971-.971" transform="translate(3232.527 -8922.645)" fill="#2b3236"/>
    <path id="Trazado_204508" data-name="Trazado 204508" d="M478.09,496c-1.471,2.355-1.465,5.224-1.7,7.9-.076.883,1.3.876,1.374,0,.211-2.434.172-5.069,1.509-7.209.471-.754-.718-1.443-1.186-.693" transform="translate(3268.682 -8969.056)" fill="#2b3236"/>
    <path id="Trazado_204509" data-name="Trazado 204509" d="M482.011,603.374c-.277,4.735-2.315,9.027-4.485,13.162-.411.783.774,1.478,1.186.693,2.288-4.36,4.381-8.866,4.673-13.855.052-.885-1.322-.88-1.374,0" transform="translate(3267.872 -9051.583)" fill="#2b3236"/>
    <path id="Trazado_204510" data-name="Trazado 204510" d="M580.031,344.785a.687.687,0,0,0-.971-.971,1.813,1.813,0,0,0-.659,1.173.683.683,0,0,0,1.359.1l.032-.05c.075-.089.158-.172.24-.254" transform="translate(3190.028 -8851.809)" fill="#2b3236"/>
    <path id="Trazado_204511" data-name="Trazado 204511" d="M477.856,771.367a17.812,17.812,0,0,1-.433,4.625.687.687,0,0,0,1.325.365,19.269,19.269,0,0,0,.482-4.991.687.687,0,0,0-1.374,0" transform="translate(3267.906 -9181.11)" fill="#f7d9af"/>
    <path id="Trazado_204512" data-name="Trazado 204512" d="M496.4,859.367v4.121a.687.687,0,0,0,1.374,0v-4.121a.687.687,0,0,0-1.374,0" transform="translate(3253.251 -9248.963)" fill="#f7d9af"/>
    <path id="Trazado_204513" data-name="Trazado 204513" d="M580.763,848.39c-.09-.872-1.464-.881-1.374,0a60.128,60.128,0,0,1,.229,6.182.687.687,0,0,0,1.374,0,60.111,60.111,0,0,0-.229-6.182" transform="translate(3189.269 -9240.505)" fill="#f7d9af"/>
    <path id="Trazado_204514" data-name="Trazado 204514" d="M638.4,907.367v5.266a.687.687,0,0,0,1.374,0v-5.266a.687.687,0,0,0-1.374,0" transform="translate(3143.762 -9285.975)" fill="#f7d9af"/>
    <path id="Trazado_204515" data-name="Trazado 204515" d="M667.754,829.4c-.114-.865-1.49-.876-1.373,0a36.689,36.689,0,0,1,.229,4.808.687.687,0,0,0,1.374,0,36.679,36.679,0,0,0-.229-4.808" transform="translate(3122.197 -9225.871)" fill="#f7d9af"/>
    <path id="Trazado_204516" data-name="Trazado 204516" d="M730.087,903.4a38.006,38.006,0,0,1-.662,5.312.687.687,0,0,0,1.325.365,40.647,40.647,0,0,0,.711-5.678c.1-.879-1.273-.869-1.374,0" transform="translate(3073.602 -9282.918)" fill="#f7d9af"/>
    <path id="Trazado_204517" data-name="Trazado 204517" d="M739.886,822.13a28.4,28.4,0,0,0-.482,4.3.687.687,0,0,0,1.374,0,25.927,25.927,0,0,1,.433-3.939c.144-.867-1.179-1.238-1.325-.365" transform="translate(3065.888 -9220.38)" fill="#f7d9af"/>
    <path id="Trazado_204518" data-name="Trazado 204518" d="M806.777,868.367a.687.687,0,0,0-1.373,0c.022,2.685.424,5.385.024,8.06-.13.866,1.194,1.239,1.325.365.42-2.811.048-5.6.024-8.425" transform="translate(3014.998 -9255.902)" fill="#f7d9af"/>
    <path id="Trazado_204519" data-name="Trazado 204519" d="M804.4,764.366v2.977a.687.687,0,0,0,1.374,0v-2.977a.687.687,0,0,0-1.374,0" transform="translate(3015.769 -9175.715)" fill="#f7d9af"/>
    <path id="Trazado_204520" data-name="Trazado 204520" d="M381.433,1137.806a29.709,29.709,0,0,1,5.03,6.146c3.656,5.853-1.869,7.083-5.877,9.807-5.973,4.058-10.964,8.6-18.41,10.111-4,.812-14.8,2.975-15.2-3.094-.329-4.972,6.8-9.143,9.824-12,4.714-4.453,9.027-9.4,14.479-13,3.51-2.315,7.159-.665,10.158,2.033" transform="translate(3368.478 -9461.749)" fill="#307da7"/>
    <path id="Trazado_204521" data-name="Trazado 204521" d="M313.166,1248.16a10.445,10.445,0,0,0-2.6,1.955,2.045,2.045,0,1,0,2.892,2.893c.217-.217.439-.427.669-.629.073-.052.328-.249.405-.3a7.9,7.9,0,0,1,.694-.389,2.057,2.057,0,0,0,.734-2.8,2.079,2.079,0,0,0-2.8-.733" transform="translate(3396.992 -9549.053)" fill="#66acd4"/>
    <path id="Trazado_204522" data-name="Trazado 204522" d="M352.753,1193.642a12.656,12.656,0,0,0-1.956,3.142,2.08,2.08,0,0,0,.734,2.8,2.055,2.055,0,0,0,2.8-.733c.249-.5.5-1,.77-1.483.12-.217.25-.427.385-.634.02-.029.036-.052.05-.071.036-.042.072-.085.111-.125a2.045,2.045,0,0,0-2.892-2.893" transform="translate(3365.717 -9506.76)" fill="#66acd4"/>
    <path id="Trazado_204523" data-name="Trazado 204523" d="M400.982,1124.259a2.055,2.055,0,0,0-2.8.734,14.207,14.207,0,0,1-.795,1.437c-.019.026-.034.046-.046.065-.077.087-.156.171-.239.254l-.076.068c-.1.06-.192.116-.292.169a2.046,2.046,0,0,0,2.065,3.532,7.369,7.369,0,0,0,2.916-3.46,2.081,2.081,0,0,0-.734-2.8" transform="translate(3330.874 -9453.512)" fill="#66acd4"/>
    <path id="Trazado_204524" data-name="Trazado 204524" d="M382.817,1245.787a7.363,7.363,0,0,0-3.461,2.915,2.045,2.045,0,0,0,3.532,2.064,3.039,3.039,0,0,1,.162-.284l.008-.014c.018-.017.039-.038.068-.069.073-.076.149-.149.228-.219l.019-.018.072-.049a11.542,11.542,0,0,1,1.436-.795,2.054,2.054,0,0,0,.734-2.8,2.081,2.081,0,0,0-2.8-.734" transform="translate(3343.703 -9547.226)" fill="#66acd4"/>
    <path id="Trazado_204525" data-name="Trazado 204525" d="M419.369,1198.415c-.187.187-.379.369-.578.543l-.065.017.015,0a2.033,2.033,0,0,0-1.607,1.979,2.055,2.055,0,0,0,2.045,2.045,4.716,4.716,0,0,0,3.082-1.69,2.045,2.045,0,0,0-2.892-2.892" transform="translate(3314.371 -9510.44)" fill="#66acd4"/>
    <path id="Trazado_204526" data-name="Trazado 204526" d="M454.58,1157.92l-1.091,1.091a2.045,2.045,0,1,0,2.892,2.892l1.091-1.092a2.045,2.045,0,0,0-2.892-2.892" transform="translate(3286.796 -9479.217)" fill="#66acd4"/>
    <path id="Trazado_204527" data-name="Trazado 204527" d="M456.026,1235.9a2.034,2.034,0,0,0-1.979,1.608l0-.015-.016.064q-.262.3-.543.578a2.045,2.045,0,0,0,2.892,2.892,4.712,4.712,0,0,0,1.69-3.082,2.055,2.055,0,0,0-2.045-2.046" transform="translate(3286.795 -9539.798)" fill="#66acd4"/>
    <path id="Trazado_204528" data-name="Trazado 204528" d="M485,1191.267l-.546.546a2.045,2.045,0,0,0,2.892,2.893l.546-.545a2.046,2.046,0,1,0-2.892-2.893" transform="translate(3262.919 -9504.929)" fill="#66acd4"/>
    <path id="Trazado_204529" data-name="Trazado 204529" d="M536.365,354.042c0,21.856,0,41.714-.011,46.785-.009,3.385-.089,6.709-.168,9.923s-.159,6.52-.168,9.9c-.013,4.118-1.558,11.026-11.762,11.025-.191,0-.388,0-.585-.007-.959-.024-3.5-.036-7.768-.036-6.62,0-16.513.028-26.079.056-9.268.027-18.851.055-25.063.055-3.514,0-5.71-.009-6.717-.026-5.511-.1-9.434-1.331-11.66-3.671-2.563-2.695-2.442-6.385-2.362-8.827.011-.345.022-.666.024-.957.025-2.679.015-4.3.005-5.869-.008-1.252-.016-2.435-.006-4.1,0-.568-.018-3.452-.047-7.443-.074-10.092-.2-26.982-.143-35.227,0,0,.091-12.853.132-19.281.011-1.666.022-6.283.035-12.129.035-15.1.093-40.362.235-44.759.385-11.938,11.688-12.282,12.976-12.282l.2,0c.85.013,3.064.02,6.769.02,5.2,0,12.727-.013,20.692-.027,9.234-.016,18.781-.032,26.428-.032,7.211,0,11.569.015,13.323.046,7.912.138,11.747,4.453,11.723,13.191-.007,2.419-.009,10.636-.008,21.6a5.648,5.648,0,0,1,1.145-.091c0-10.913,0-19.09.008-21.5.025-9.365-4.3-14.19-12.848-14.339-1.761-.031-6.125-.046-13.343-.046-7.648,0-17.2.016-26.43.032-7.965.014-15.488.027-20.691.027-3.7,0-5.907-.006-6.751-.02l-.219,0a15.891,15.891,0,0,0-8.694,2.587c-3.4,2.328-5.272,6.064-5.425,10.8-.128,3.961-.186,23.935-.224,39.613a5,5,0,0,1,.084.9c0,.907-.027,1.8-.092,2.687q0,.806,0,1.589c-.013,5.844-.024,10.46-.035,12.124-.041,6.428-.132,19.281-.132,19.281-.055,8.253.069,25.148.143,35.242.029,3.987.05,6.867.047,7.428-.01,1.669,0,2.855.006,4.112.01,1.564.02,3.18-.005,5.851,0,.284-.012.6-.024.931-.086,2.633-.216,6.612,2.677,9.654,2.445,2.57,6.64,3.925,12.469,4.026,1.013.018,3.217.026,6.737.026,6.214,0,15.8-.028,25.066-.054,9.566-.028,19.458-.056,26.077-.056,4.259,0,6.791.012,7.74.035.207.005.413.008.614.008h0c11.613,0,12.894-8.508,12.905-12.167.009-3.368.09-6.677.168-9.876.078-3.22.16-6.551.168-9.947.014-5.015.014-24.478.011-46.038q-.579-.366-1.145-.75" transform="translate(3294.663 -8799.669)" fill="#fff"/>
    <path id="Trazado_204530" data-name="Trazado 204530" d="M852.942,502.735q-.577-.453-1.145-.916c0,2.625,0,5.31,0,8.027a5.08,5.08,0,0,1,1.145.418c0-2.544,0-5.063,0-7.53" transform="translate(2979.227 -8973.791)" fill="#fff"/>
  </g>
</svg>
