<svg xmlns="http://www.w3.org/2000/svg" xmlns:xlink="http://www.w3.org/1999/xlink" width="86" height="86" viewBox="0 0 86 86">
  <defs>
    <clipPath id="clip-path">
      <rect id="Rectángulo_338937" data-name="Rectángulo 338937" width="52.003" height="52" fill="none"/>
    </clipPath>
  </defs>
  <g id="Grupo_984044" data-name="Grupo 984044" transform="translate(-13272 10426)">
    <circle id="Elipse_4892" data-name="Elipse 4892" cx="43" cy="43" r="43" transform="translate(13272 -10426)" fill="#6b8dfc"/>
    <g id="Grupo_984043" data-name="Grupo 984043" transform="translate(13289 -10409)">
      <g id="Grupo_984042" data-name="Grupo 984042" clip-path="url(#clip-path)">
        <path id="Trazado_211970" data-name="Trazado 211970" d="M51.405,11.262a3.89,3.89,0,0,0-.809-.049q-6.982,0-13.964,0c-.684,0-.715-.033-.717-.716,0-1.862,0-3.724,0-5.585,0-1.286,0-2.572,0-3.859,0-.489-.1-.916-.667-1.051H16.758A.839.839,0,0,0,16.1.9c-.011.22-.008.44-.009.66q0,4.494,0,8.988c0,.621-.043.655-.665.666-.152,0-.3,0-.457,0H1.559c-.22,0-.44,0-.66.008a.839.839,0,0,0-.9.662V28.742c.108.245.169.505.3.745C1.413,31.5,2.54,33.5,3.653,35.516a2.09,2.09,0,0,1,.271,1.061c-.008,1.387-.017,2.773,0,4.16a13.979,13.979,0,0,1-.242,2.771c-.457,2.443-.907,4.887-1.33,7.336-.117.678.018.919.592,1.156H5.18a1.093,1.093,0,0,0,.639-.528q1.806-2.722,3.62-5.438c.309-.462.313-.462.622,0q1.814,2.716,3.62,5.438a1.094,1.094,0,0,0,.639.528h2.234c.572-.236.711-.481.6-1.156-.307-1.8-.663-3.593-.969-5.394a25.356,25.356,0,0,1-.588-3.652c-.04-1.758-.009-3.518-.012-5.277a2.564,2.564,0,0,1,.227-1.082c.628-1.386,1.235-2.783,1.863-4.169.051-.113.056-.273.249-.305.305.542.521,1.129.782,1.694,1.467,3.167,1.441,3.168,1.474,6.552A25.99,25.99,0,0,1,19.7,44.8c-.417,2-.757,4.022-1.1,6.04-.115.675.024.92.6,1.156h2.235a1.092,1.092,0,0,0,.639-.528q1.806-2.722,3.621-5.438c.309-.462.313-.462.622,0q1.814,2.716,3.621,5.438a1.093,1.093,0,0,0,.639.528h2.235c.571-.236.711-.481.6-1.156-.307-1.8-.663-3.593-.969-5.394a25.4,25.4,0,0,1-.588-3.652c-.04-1.758-.008-3.518-.011-5.277a2.564,2.564,0,0,1,.226-1.082c.629-1.386,1.235-2.783,1.864-4.169.051-.113.056-.273.249-.305.305.542.521,1.129.782,1.694,1.467,3.167,1.441,3.168,1.474,6.552a25.99,25.99,0,0,1-.476,5.594c-.417,2-.756,4.022-1.1,6.04-.115.675.025.92.6,1.156h2.234a1.094,1.094,0,0,0,.639-.528q1.806-2.722,3.62-5.438c.309-.462.313-.462.622,0q1.814,2.716,3.62,5.438a1.093,1.093,0,0,0,.639.528h2.234c.574-.237.708-.478.592-1.156-.307-1.8-.657-3.592-.969-5.391a25.265,25.265,0,0,1-.586-3.6c-.048-1.791-.012-3.585-.013-5.377a1.542,1.542,0,0,1,.17-.782c.684-1.225,1.376-2.446,2.039-3.682A24.887,24.887,0,0,0,52,28.742V11.883a.783.783,0,0,0-.6-.621M11.8,30.795a2.4,2.4,0,0,0-.89-2.815,1.982,1.982,0,0,0-2.336.007,2.327,2.327,0,0,0-.787,2.89L2.93,26.02H16.048L11.8,30.795m16.213.044c.213-2.058-.468-3.164-1.927-3.209a2.088,2.088,0,0,0-1.89.984,2.9,2.9,0,0,0-.289,2.136l-4.2-4.721H32.293l-4.277,4.811m16.2.022a2.339,2.339,0,0,0-.711-2.821,1.98,1.98,0,0,0-2.245-.159,2.409,2.409,0,0,0-1.1,2.866l-4.2-4.719h13.09L44.217,30.86"/>
        <path id="Trazado_211971" data-name="Trazado 211971" d="M61.132,16.907c0-3.639.007-7.278-.01-10.916,0-.387.1-.465.473-.464q7.667.02,15.334,0c.389,0,.463.1.463.474q-.018,10.916,0,21.832c0,.389-.1.47-.474.464-1.32-.024-2.641-.028-3.96,0-.4.009-.463-.113-.46-.477.018-2.2.01-4.4.008-6.6,0-.79-.272-1.057-1.071-1.058q-2.209,0-4.418,0c-.727,0-1.009.285-1.01,1.015,0,2.217-.012,4.434.009,6.651,0,.382-.093.475-.47.467q-1.98-.039-3.96,0c-.388.008-.465-.1-.464-.473.015-3.639.009-7.278.009-10.916" transform="translate(-43.256 -3.911)" fill="#e9e6e3"/>
        <path id="Trazado_211972" data-name="Trazado 211972" d="M12.9,44.452c2.267,0,4.534.01,6.8-.01.382,0,.483.091.468.471-.032.811-.023,1.624,0,2.436.007.294-.089.368-.37.36-.659-.019-1.32-.014-1.979,0a.816.816,0,0,0-.905.914q-.014,1.523,0,3.045a.818.818,0,0,0,.909.911c.66.01,1.32.016,1.979,0,.286-.009.373.075.366.364-.019.811-.03,1.625,0,2.436.016.386-.1.468-.472.466-3.553-.015-7.106-.009-10.659-.009-1.049,0-2.1-.01-3.147.007-.287,0-.371-.078-.364-.365q.028-1.268,0-2.537c-.007-.293.087-.369.369-.361.659.02,1.32.014,1.979,0a.819.819,0,0,0,.906-.915q.014-1.522,0-3.045a.818.818,0,0,0-.91-.91c-.677-.01-1.354-.012-2.03,0-.244.006-.317-.069-.312-.312.014-.846.023-1.692,0-2.537-.011-.339.1-.415.421-.413,2.318.014,4.636.007,6.954.007" transform="translate(-3.913 -31.452)" fill="#ddd6cb"/>
        <path id="Trazado_211973" data-name="Trazado 211973" d="M135.815,44.48q5.126-.008,10.252-.021c.242,0,.317.067.313.312q-.02,1.319,0,2.639c0,.248-.076.315-.316.31-.66-.015-1.32-.01-1.979,0s-.955.3-.959.964q-.009,1.471,0,2.944c0,.663.3.958.959.965s1.32.011,1.979,0c.24-.006.319.061.316.309q-.021,1.319,0,2.639c0,.245-.07.312-.313.311q-5.126-.019-10.252-.021a.861.861,0,0,1-.166-.67q-.007-5,0-10a.86.86,0,0,1,.166-.67" transform="translate(-95.997 -31.464)" fill="#ddd6cb"/>
        <path id="Trazado_211974" data-name="Trazado 211974" d="M131.29,141.763h3.6c.2,0,.41-.048.413.281a28.126,28.126,0,0,0,.633,4.093c.217,1.381.5,2.752.756,4.128.024.129.1.317-.022.378-.193.1-.239-.13-.314-.243q-2.158-3.223-4.306-6.452a.987.987,0,0,0-.738-.554.912.912,0,0,0-.861.514q-2.087,3.147-4.189,6.285l-.2.294c-.055.082-.1.206-.217.177-.168-.042-.1-.2-.081-.3.139-.8.289-1.592.435-2.388q.479-2.612.956-5.224c.006-.033.007-.067.011-.1.084-.891.084-.891.972-.891h3.146" transform="translate(-88.987 -100.325)" fill="#09597c"/>
        <path id="Trazado_211975" data-name="Trazado 211975" d="M75.655,141.719h3.653c.208,0,.4-.024.4.295a29.04,29.04,0,0,0,.659,4.19c.225,1.364.494,2.72.739,4.08.02.109.081.268-.042.322-.172.077-.216-.115-.284-.218q-2.114-3.16-4.223-6.325c-.654-.98-1.179-.986-1.822-.021l-4.13,6.2q-.07.105-.144.209c-.057.08-.1.206-.222.163-.153-.055-.086-.2-.069-.307.1-.6.208-1.2.318-1.793q.532-2.885,1.067-5.769c.006-.033.009-.067.015-.1.048-.295-.139-.708.1-.861s.618-.066.937-.067c1.015,0,2.03,0,3.045,0" transform="translate(-49.642 -100.281)" fill="#09597c"/>
        <path id="Trazado_211976" data-name="Trazado 211976" d="M20.045,141.763q1.827,0,3.653,0c.2,0,.412-.05.414.28a27.242,27.242,0,0,0,.625,4.042c.221,1.4.509,2.786.761,4.179.024.133.127.33-.065.393-.151.05-.2-.151-.269-.256q-2.155-3.224-4.3-6.453a1.01,1.01,0,0,0-.687-.55.9.9,0,0,0-.912.507q-2.087,3.148-4.189,6.285c-.056.084-.11.171-.171.251-.076.1-.118.293-.288.2-.109-.057-.052-.217-.032-.33.141-.78.287-1.559.43-2.338q.479-2.612.956-5.224c.006-.033.007-.067.011-.1.085-.892.085-.892.971-.892h3.1" transform="translate(-10.297 -100.325)" fill="#09597c"/>
        <path id="Trazado_211977" data-name="Trazado 211977" d="M126.368,44.482V55.824c-1.251.005-2.5.006-3.752.021-.237,0-.323-.061-.319-.31q.02-1.318,0-2.637c0-.246.077-.317.317-.312.659.014,1.319.01,1.978,0s.954-.3.958-.966q.01-1.471,0-2.941c0-.664-.3-.958-.958-.965s-1.319-.011-1.978,0c-.24,0-.321-.066-.317-.312q.02-1.318,0-2.637c0-.249.082-.312.319-.31,1.251.015,2.5.015,3.752.021" transform="translate(-86.55 -31.465)" fill="#c0b39a"/>
        <path id="Trazado_211978" data-name="Trazado 211978" d="M5.6,92.959c1.84,1.845,3.625,3.624,5.4,5.417.438.443.852.89,1.627.687-.4,1.379-.728,2.685-1.153,3.961a1.841,1.841,0,0,0,.317,2.012,4.775,4.775,0,0,1,.375.565c-.807,0-1.543-.012-2.279.006-.312.007-.255-.186-.255-.364,0-1.134-.009-2.268,0-3.4a1.855,1.855,0,0,0-.251-.963C8.218,98.8,7.077,96.707,5.9,94.64a2.487,2.487,0,0,1-.3-1.681" transform="translate(-3.94 -65.787)" fill="#afddf6"/>
        <path id="Trazado_211979" data-name="Trazado 211979" d="M148.692,105.616c.087-.14.128-.209.171-.276.956-1.484.857-.934.381-2.688-.314-1.155-.657-2.3-1.012-3.54.973.2,1.405-.519,1.939-1.05,1.678-1.67,3.346-3.349,5.075-5.081a2.339,2.339,0,0,1-.2,1.5c-1.209,2.129-2.385,4.278-3.58,6.414a1.854,1.854,0,0,0-.25.963c.013,1.134,0,2.268.011,3.4,0,.287-.076.373-.364.365-.693-.02-1.387-.007-2.171-.007" transform="translate(-104.905 -65.803)" fill="#afddf6"/>
        <path id="Trazado_211980" data-name="Trazado 211980" d="M43.372,93.618a2.431,2.431,0,0,1-.182,1.413c-.954,2.1-1.883,4.219-2.829,6.326a2.266,2.266,0,0,0-.21.977c.013,1.116-.007,2.233.013,3.348.006.311-.071.405-.389.393-.689-.026-1.379-.008-2.155-.008.21-.32.362-.6.559-.84a1.385,1.385,0,0,0,.218-1.417c-.4-1.288-.745-2.593-1.125-3.887-.069-.235-.113-.4.222-.356a1.151,1.151,0,0,0,1.042-.5c1.585-1.8,3.183-3.589,4.837-5.449" transform="translate(-26.342 -66.254)" fill="#afddf6"/>
        <path id="Trazado_211981" data-name="Trazado 211981" d="M63.973,93.6c1.658,1.864,3.256,3.654,4.842,5.455a1.148,1.148,0,0,0,1.042.5c.337-.042.29.123.221.357-.357,1.214-.656,2.446-1.063,3.643a1.77,1.77,0,0,0,.325,1.915,5.977,5.977,0,0,1,.394.585H67.374c-.264,0-.176-.2-.177-.331-.006-1.116-.013-2.233,0-3.349a2.477,2.477,0,0,0-.229-1.075c-.94-2.093-1.863-4.192-2.811-6.281a2.506,2.506,0,0,1-.186-1.418" transform="translate(-45.255 -66.24)" fill="#afddf6"/>
        <path id="Trazado_211982" data-name="Trazado 211982" d="M98.987,93.608a2.468,2.468,0,0,1-.181,1.409c-.948,2.088-1.87,4.187-2.811,6.279a2.575,2.575,0,0,0-.232,1.125c.016,1.082,0,2.164.012,3.247,0,.3-.048.415-.381.4-.69-.029-1.382-.009-2.166-.009.257-.387.471-.72.7-1.046a1.04,1.04,0,0,0,.144-.956c-.407-1.374-.777-2.76-1.186-4.133-.09-.3-.047-.4.266-.365a1.114,1.114,0,0,0,.994-.493c1.588-1.8,3.186-3.592,4.844-5.457" transform="translate(-65.704 -66.247)" fill="#afddf6"/>
        <path id="Trazado_211983" data-name="Trazado 211983" d="M119.581,93.663l3.034,3.4c.506.568,1.021,1.129,1.514,1.708.425.5.818,1.031,1.659.773-.4,1.41-.745,2.733-1.171,4.028a1.764,1.764,0,0,0,.307,1.917,5.167,5.167,0,0,1,.4.6c-.809,0-1.546-.012-2.282.006-.314.007-.252-.191-.252-.366,0-1.1-.012-2.2.005-3.3a2.576,2.576,0,0,0-.241-1.123c-.918-2.047-1.817-4.1-2.745-6.144a2.351,2.351,0,0,1-.228-1.509" transform="translate(-84.599 -66.286)" fill="#afddf6"/>
        <path id="Trazado_211984" data-name="Trazado 211984" d="M86.63,64.4c0,.948-.013,1.9.007,2.843.006.309-.072.407-.392.4-.829-.023-1.659-.017-2.488,0-.267,0-.387-.042-.384-.352q.021-2.894,0-5.789c0-.284.072-.378.365-.372q1.269.029,2.539,0c.3-.007.362.1.358.379-.014.965-.006,1.929-.006,2.894" transform="translate(-59.003 -43.262)" fill="#1ca8e3"/>
        <path id="Trazado_211985" data-name="Trazado 211985" d="M142.912,122c.216.748.435,1.5.645,2.245a3.4,3.4,0,0,1-.652,1.155.173.173,0,0,1-.094,0,3.366,3.366,0,0,1-.652-1.155c.21-.749.429-1.5.645-2.244h.107" transform="translate(-100.606 -86.343)" fill="#1ca7e2"/>
        <path id="Trazado_211986" data-name="Trazado 211986" d="M87.314,122.006c.216.748.435,1.5.645,2.245a3.4,3.4,0,0,1-.652,1.155.172.172,0,0,1-.094,0,3.366,3.366,0,0,1-.652-1.155c.21-.749.429-1.5.645-2.244h.107" transform="translate(-61.259 -86.343)" fill="#1ca7e2"/>
        <path id="Trazado_211987" data-name="Trazado 211987" d="M31.9,122.028c.213.737.43,1.472.637,2.211a3.166,3.166,0,0,1-.623,1.168c-.077.046-.113.008-.168-.035a1.631,1.631,0,0,1-.489-1.516c.176-.609.355-1.217.533-1.825l.111,0" transform="translate(-22.089 -86.36)" fill="#1ca7e2"/>
        <path id="Trazado_211988" data-name="Trazado 211988" d="M6.371,62.78c-.811,0-.811,0-.811-.827,0-.8,0-.8.789-.8.836,0,.836,0,.836.852,0,.773,0,.773-.814.773" transform="translate(-3.935 -43.28)" fill="#1ca8e3"/>
        <path id="Trazado_211989" data-name="Trazado 211989" d="M168.417,61.988c0,.792,0,.792-.795.792-.83,0-.83,0-.83-.807s0-.818.82-.818c.8,0,.8,0,.8.833" transform="translate(-118.039 -43.28)" fill="#1ca8e3"/>
        <path id="Trazado_211990" data-name="Trazado 211990" d="M123.939,61.992c0,.787,0,.787-.8.787-.826,0-.826,0-.826-.812s0-.813.825-.813c.8,0,.8,0,.8.838" transform="translate(-86.562 -43.279)" fill="#1ca8e3"/>
        <path id="Trazado_211991" data-name="Trazado 211991" d="M51.662,61.994c0,.785,0,.785-.8.785-.823,0-.823,0-.823-.815s0-.81.827-.81c.8,0,.8,0,.8.839" transform="translate(-35.411 -43.28)" fill="#1ca8e3"/>
        <path id="Trazado_211992" data-name="Trazado 211992" d="M87.2,100.7c0-.351.156-.576.5-.585a.456.456,0,0,1,.516.538c-.076.58-.209,1.154-.318,1.73a.168.168,0,0,1-.167.154.18.18,0,0,1-.2-.172c-.108-.56-.218-1.119-.324-1.665" transform="translate(-61.713 -70.849)" fill="#f9e433"/>
        <path id="Trazado_211993" data-name="Trazado 211993" d="M32.64,100.667q-.164.842-.326,1.68c-.021.11-.066.188-.191.188s-.17-.077-.191-.187c-.1-.543-.227-1.084-.31-1.63a.475.475,0,0,1,.5-.6c.338,0,.5.22.518.553" transform="translate(-22.372 -70.851)" fill="#f9e433"/>
        <path id="Trazado_211994" data-name="Trazado 211994" d="M142.795,100.687c0-.351.165-.573.507-.576a.459.459,0,0,1,.508.547c-.079.58-.211,1.153-.32,1.73a.165.165,0,0,1-.174.145c-.125,0-.176-.07-.2-.181-.108-.559-.217-1.119-.324-1.666" transform="translate(-101.057 -70.85)" fill="#f9e433"/>
        <path id="Trazado_211995" data-name="Trazado 211995" d="M69.49,13.5c0-.49-.006-.98,0-1.469a.816.816,0,0,1,.894-.923q1.545-.016,3.091,0a.805.805,0,0,1,.885.879q.018,1.545,0,3.091a.817.817,0,0,1-.918.9q-1.52.013-3.04,0a.819.819,0,0,1-.911-.907c-.01-.523,0-1.047,0-1.571" transform="translate(-49.176 -7.858)"/>
        <path id="Trazado_211996" data-name="Trazado 211996" d="M94.158,15.981c-.523,0-1.048.011-1.571,0a.8.8,0,0,1-.86-.853c-.013-1.064-.015-2.128,0-3.192a.781.781,0,0,1,.837-.821q1.6-.021,3.192,0a.782.782,0,0,1,.834.825q.024,1.6,0,3.192a.8.8,0,0,1-.864.849c-.523.013-1.047,0-1.571,0" transform="translate(-64.908 -7.856)"/>
        <path id="Trazado_211997" data-name="Trazado 211997" d="M71.92,33.35c.523,0,1.047-.01,1.571,0a.8.8,0,0,1,.863.849q.021,1.6,0,3.192a.784.784,0,0,1-.835.825q-1.6.021-3.192,0a.783.783,0,0,1-.836-.823q-.023-1.6,0-3.192a.8.8,0,0,1,.861-.851c.523-.013,1.047,0,1.571,0" transform="translate(-49.17 -23.599)"/>
        <path id="Trazado_211998" data-name="Trazado 211998" d="M96.6,35.831c0,.507.011,1.014,0,1.52a.8.8,0,0,1-.851.863q-1.6.021-3.192,0a.782.782,0,0,1-.823-.835q-.021-1.6,0-3.192a.78.78,0,0,1,.823-.836c1.064-.016,2.128-.014,3.192,0a.8.8,0,0,1,.851.861c.014.54,0,1.081,0,1.621" transform="translate(-64.909 -23.593)"/>
        <path id="Trazado_211999" data-name="Trazado 211999" d="M24.663,55.588c.524,0,1.047-.011,1.571,0a.8.8,0,0,1,.863.85q.021,1.6,0,3.192a.783.783,0,0,1-.836.824q-1.6.022-3.192,0a.782.782,0,0,1-.835-.824q-.024-1.6,0-3.192a.8.8,0,0,1,.861-.851c.523-.013,1.047,0,1.571,0" transform="translate(-15.726 -39.337)"/>
        <path id="Trazado_212000" data-name="Trazado 212000" d="M141.37,60.459c-.49,0-.98.007-1.469,0a.819.819,0,0,1-.915-.9q-.015-1.546,0-3.09a.8.8,0,0,1,.887-.877q1.545-.016,3.091,0a.8.8,0,0,1,.89.875q.018,1.571,0,3.141a.8.8,0,0,1-.861.853c-.54.014-1.081,0-1.621,0" transform="translate(-98.355 -39.334)"/>
        <path id="Trazado_212001" data-name="Trazado 212001" d="M75.844,18.3c-.787,0-.787,0-.787-.8,0-.825,0-.825.812-.825s.813,0,.813.825c0,.8,0,.8-.838.8" transform="translate(-53.118 -11.804)" fill="#1ca8e3"/>
        <path id="Trazado_212002" data-name="Trazado 212002" d="M98.92,17.5c0,.807,0,.807-.83.807-.795,0-.795,0-.795-.792,0-.833,0-.833.856-.833.769,0,.769,0,.769.818" transform="translate(-68.856 -11.804)" fill="#1ca8e3"/>
        <path id="Trazado_212003" data-name="Trazado 212003" d="M76.681,39.746c0,.8,0,.8-.792.8-.834,0-.834,0-.834-.855,0-.77,0-.77.766-.77h.051c.808,0,.808,0,.808.83" transform="translate(-53.117 -27.541)" fill="#1ca8e3"/>
        <path id="Trazado_212004" data-name="Trazado 212004" d="M97.3,39.708c0-.791,0-.791.8-.791.83,0,.83,0,.83.808s0,.817-.821.817c-.8,0-.8,0-.8-.834" transform="translate(-68.857 -27.542)" fill="#1ca8e3"/>
        <path id="Trazado_212005" data-name="Trazado 212005" d="M28.64,61.154c.783,0,.783,0,.783.8,0,.821,0,.821-.817.821s-.808,0-.808-.829c0-.8,0-.8.842-.8" transform="translate(-19.673 -43.279)" fill="#1ca8e3"/>
        <path id="Trazado_212006" data-name="Trazado 212006" d="M145.345,62.78c-.792,0-.792,0-.792-.795,0-.83,0-.83.808-.83s.818,0,.818.82,0,.8-.833.8" transform="translate(-102.301 -43.28)" fill="#1ca8e3"/>
      </g>
    </g>
  </g>
</svg>
