<svg xmlns="http://www.w3.org/2000/svg" xmlns:xlink="http://www.w3.org/1999/xlink" width="228" height="340" viewBox="0 0 228 340">
  <defs>
    <clipPath id="clip-path">
      <rect id="Rectángulo_45174" data-name="Rectángulo 45174" width="228" height="340" transform="translate(1105 925.602)" fill="#fff" stroke="#707070" stroke-width="1"/>
    </clipPath>
    <clipPath id="clip-path-2">
      <rect id="Rectángulo_45317" data-name="Rectángulo 45317" width="159.266" height="334.454" fill="none"/>
    </clipPath>
    <clipPath id="clip-path-3">
      <rect id="Rectángulo_45308" data-name="Rectángulo 45308" width="159.266" height="334.455" fill="none"/>
    </clipPath>
    <clipPath id="clip-path-4">
      <rect id="Rectángulo_45307" data-name="Rectángulo 45307" width="3.454" height="3.834" fill="none"/>
    </clipPath>
    <clipPath id="clip-path-5">
      <rect id="Rectángulo_45315" data-name="Rectángulo 45315" width="35.239" height="22.843" rx="7.867" fill="none"/>
    </clipPath>
  </defs>
  <g id="Enmascarar_grupo_292" data-name="Enmascarar grupo 292" transform="translate(-1105 -925.602)" clip-path="url(#clip-path)">
    <g id="Grupo_174772" data-name="Grupo 174772" transform="translate(1105 926)">
      <g id="Grupo_174759" data-name="Grupo 174759" transform="translate(0 168.08)">
        <rect id="Rectángulo_45169" data-name="Rectángulo 45169" width="172.683" height="171.135" transform="translate(69.693)" fill="#fff0f1"/>
        <path id="Rectángulo_45170" data-name="Rectángulo 45170" d="M98.344,0H242.376a0,0,0,0,1,0,0V98.344a0,0,0,0,1,0,0H0a0,0,0,0,1,0,0v0A98.344,98.344,0,0,1,98.344,0Z" transform="translate(0 72.79)" fill="#fc5f65"/>
      </g>
      <g id="Grupo_175091" data-name="Grupo 175091" transform="translate(42 4.761)">
        <g id="Grupo_175090" data-name="Grupo 175090" clip-path="url(#clip-path-2)">
          <rect id="Rectángulo_45305" data-name="Rectángulo 45305" width="36.954" height="26.025" transform="translate(57.114 18.296)" fill="#5774cd"/>
          <path id="Trazado_183841" data-name="Trazado 183841" d="M80.689,585.808,57.065,670.091l7.774,5.422,31.708-81.34Z" transform="translate(-49.969 -512.961)" fill="#ea8271"/>
          <rect id="Rectángulo_45306" data-name="Rectángulo 45306" width="14.438" height="25.47" transform="translate(68.933 29.762)" fill="#ea8271"/>
          <path id="Trazado_183842" data-name="Trazado 183842" d="M180,771.073l15.4,9.327,1.442-3.7-15.192-11.5Z" transform="translate(-157.613 -670.041)"/>
          <g id="Grupo_175085" data-name="Grupo 175085" transform="translate(0 -0.001)">
            <g id="Grupo_175084" data-name="Grupo 175084" clip-path="url(#clip-path-3)">
              <path id="Trazado_183843" data-name="Trazado 183843" d="M892.83,533.243l34.5,41.57a8.533,8.533,0,0,1-11.924,12.1l-36.013-29.44Z" transform="translate(-770.037 -466.932)" fill="#ea8271"/>
              <path id="Trazado_183844" data-name="Trazado 183844" d="M970.574,655.037l3.954,3.233,11.759-18.8-1.106-2.857-2.1-2.533Z" transform="translate(-849.88 -555.227)"/>
              <path id="Trazado_183845" data-name="Trazado 183845" d="M325.306,2363.722l-2.012,28.119-14.588-9.2,2.186-22.008Z" transform="translate(-270.318 -2067.078)" fill="#ea8271"/>
              <path id="Trazado_183846" data-name="Trazado 183846" d="M899.748,2384.2l3.781,26.674,15.32-6.238-4.335-21.2Z" transform="translate(-787.861 -2087.041)" fill="#ea8271"/>
              <path id="Trazado_183847" data-name="Trazado 183847" d="M199.278,387.725s19.846,2.869,30.594,5.553a20.728,20.728,0,0,1,10.644,6.538l15.34,17.7-14.882,26.245-10.782-6.5s1.2,14.546-2.994,18.3-55.119.292-55.119.292-7.174-2.77-7.995-17.055l-5.067,10.038L138,433.616l18.149-33.131a19.621,19.621,0,0,1,12.977-8.042Z" transform="translate(-120.836 -339.509)" fill="#ffd4de"/>
              <path id="Trazado_183848" data-name="Trazado 183848" d="M245.933,1236.406l14.189-159.494,61.717-9.557,34.116,171.682-35.078,3.256L294.03,1102.48l-2.589.234-10.617,135.391Z" transform="translate(-215.351 -934.624)" fill="#fff"/>
              <path id="Trazado_183849" data-name="Trazado 183849" d="M318.687,1240.414a.311.311,0,0,1-.305-.252l-26.793-139.536-2.047.185-10.6,135.129a.309.309,0,0,1-.325.286l-34.891-1.7a.311.311,0,0,1-.295-.338L257.623,1074.7a.311.311,0,0,1,.262-.28l61.717-9.557a.311.311,0,0,1,.353.246l34.116,171.682a.311.311,0,0,1-.276.37l-35.078,3.257h-.029M291.841,1099.98a.311.311,0,0,1,.305.252l26.793,139.536,34.454-3.2L319.4,1065.518l-61.182,9.475-14.139,158.929,34.266,1.669,10.593-135.09a.311.311,0,0,1,.282-.285l2.589-.234h.028" transform="translate(-213.161 -932.435)"/>
              <path id="Trazado_183850" data-name="Trazado 183850" d="M399.2,949.7l9.13,44.908L335.5,977.775l9.038-29.005Z" transform="translate(-293.779 -830.786)" fill="#ffd4de"/>
              <path id="Trazado_183851" data-name="Trazado 183851" d="M543.25,385.525s-1.9,4.129-9.9,4.9a18.938,18.938,0,0,1-13.555-4.289l12.1-2.642Z" transform="translate(-455.158 -335.807)" fill="#ea8271"/>
              <path id="Trazado_183852" data-name="Trazado 183852" d="M505.2,408.858a20,20,0,0,1-10.846-2.951,14.436,14.436,0,0,1-4.161-3.8.373.373,0,0,1,.624-.409,14,14,0,0,0,3.969,3.6,20.051,20.051,0,0,0,12.955,2.684,17.118,17.118,0,0,0,9.676-3.81,10.287,10.287,0,0,0,2.539-3.091.373.373,0,0,1,.68.307,10.772,10.772,0,0,1-2.7,3.319,17.828,17.828,0,0,1-10.123,4.018,26.057,26.057,0,0,1-2.617.134" transform="translate(-429.178 -351.012)"/>
              <path id="Trazado_183853" data-name="Trazado 183853" d="M853.708,485.823a.361.361,0,0,1-.054,0,.373.373,0,0,1-.316-.423,49.276,49.276,0,0,1,6.176-18.162,27.33,27.33,0,0,1,4.415-5.829.373.373,0,0,1,.5.551,27.237,27.237,0,0,0-4.3,5.692,48.55,48.55,0,0,0-6.06,17.855.373.373,0,0,1-.369.32" transform="translate(-747.219 -403.942)"/>
              <path id="Trazado_183854" data-name="Trazado 183854" d="M295.716,545.086a.373.373,0,0,1-.361-.28l-7.02-27.136a.373.373,0,1,1,.722-.187l7.02,27.136a.373.373,0,0,1-.361.467" transform="translate(-252.469 -452.886)"/>
              <path id="Trazado_183855" data-name="Trazado 183855" d="M568.772,265.721l-14.438-.52v8.492a22.649,22.649,0,0,0,5.044.221,27.816,27.816,0,0,0,9.394-2.224Z" transform="translate(-485.401 -232.222)"/>
              <path id="Trazado_183856" data-name="Trazado 183856" d="M394.25,923.384l.175,8.153,10.8.063,19.265,13.913a11.4,11.4,0,0,0,6.243,1.211l23.331-2.131a7.575,7.575,0,0,0,5.152-7.171c0-4.148-1.075-9.741-5.905-13.775Z" transform="translate(-345.224 -808.557)" fill="#fc5f65"/>
              <path id="Trazado_183857" data-name="Trazado 183857" d="M553.7,958.31h0l-48.964-.347a.373.373,0,0,1,0-.746h0l48.964.347a.373.373,0,0,1,0,.746" transform="translate(-441.646 -838.183)"/>
              <path id="Trazado_183858" data-name="Trazado 183858" d="M495.454,955.091l-1.018,6.3a1.062,1.062,0,0,0,.971,1.228l3.5.254a1.062,1.062,0,0,0,1.07-1.435l-2.48-6.551a1.062,1.062,0,0,0-2.041.207" transform="translate(-432.94 -835.54)"/>
              <path id="Trazado_183859" data-name="Trazado 183859" d="M740.582,142.216s4.5-4.425,6.684-.136c2.577,5.064-4.844,9.552-7.131,5.058s.447-4.922.447-4.922" transform="translate(-647.298 -122.772)" fill="#ea8271"/>
              <path id="Trazado_183860" data-name="Trazado 183860" d="M459.064,19.3C459.064,8.639,467.362,0,477.6,0S496.135,8.639,496.135,19.3,487.836,38.61,477.6,38.61,459.064,29.966,459.064,19.3" transform="translate(-401.978 0.005)" fill="#ea8271"/>
              <path id="Trazado_183861" data-name="Trazado 183861" d="M495.918,16.232A18.462,18.462,0,0,0,477.616,0c-8.1,0-19.126,5.792-18.508,18.253.371-7.69,9.8-17.516,18.352-11.457,0,0,9.272-8.637,18.458,9.441" transform="translate(-401.994 0.005)" fill="#5774cd"/>
              <path id="Trazado_183862" data-name="Trazado 183862" d="M427.2,157.266s-4.5-4.425-6.684-.136c-2.577,5.064,4.844,9.552,7.131,5.058s-.447-4.922-.447-4.922" transform="translate(-367.755 -135.951)" fill="#ea8271"/>
              <path id="Trazado_183863" data-name="Trazado 183863" d="M595.075,165.547a.18.18,0,0,1-.14-.293l1.53-1.9a.181.181,0,0,1,.237-.039l2.56,1.636a.18.18,0,0,1-.194.3l-2.423-1.549-1.429,1.774a.18.18,0,0,1-.14.067" transform="translate(-520.917 -142.981)"/>
              <path id="Trazado_183864" data-name="Trazado 183864" d="M594.117,164.723a.316.316,0,0,1-.246-.515l1.531-1.9a.316.316,0,0,1,.417-.068l2.559,1.636a.316.316,0,1,1-.341.533l-2.321-1.483-1.353,1.679a.315.315,0,0,1-.246.118m1.531-2.26a.044.044,0,0,0-.034.016l-1.53,1.9a.044.044,0,0,0,.007.062.043.043,0,0,0,.027.01.044.044,0,0,0,.034-.016l1.429-1.774a.136.136,0,0,1,.179-.029l2.423,1.549a.044.044,0,0,0,.061-.013.044.044,0,0,0-.013-.061l-2.559-1.636a.044.044,0,0,0-.024-.007" transform="translate(-519.959 -142.021)"/>
              <path id="Trazado_183865" data-name="Trazado 183865" d="M644.074,85.107A.148.148,0,0,1,644,85.04a.269.269,0,0,1,.059-.313,5.837,5.837,0,0,1,1.993-1.107,8.056,8.056,0,0,1,5.45.191.235.235,0,0,1-.156.428,7.768,7.768,0,0,0-5.226-.2,5.558,5.558,0,0,0-1.867,1.023.171.171,0,0,1-.175.046" transform="translate(-563.889 -72.886)"/>
              <path id="Trazado_183866" data-name="Trazado 183866" d="M643.167,84.293a.277.277,0,0,1-.1-.017h0a.283.283,0,0,1-.149-.127.407.407,0,0,1,.083-.48,6,6,0,0,1,2.042-1.137,8.189,8.189,0,0,1,5.54.192.294.294,0,0,1,.177.192.4.4,0,0,1-.008.257.341.341,0,0,1-.418.235,7.636,7.636,0,0,0-5.136-.2,5.471,5.471,0,0,0-1.818.993.322.322,0,0,1-.219.092m4.288-1.879a7.15,7.15,0,0,0-2.319.376,5.708,5.708,0,0,0-1.944,1.077.135.135,0,0,0-.034.146l-.041.135.047-.128A.051.051,0,0,0,643.2,84a5.684,5.684,0,0,1,1.917-1.052,7.9,7.9,0,0,1,5.316.2c.01,0,.049-.017.069-.072a.129.129,0,0,0,0-.081.033.033,0,0,0-.011-.019,8.834,8.834,0,0,0-3.04-.566" transform="translate(-562.933 -71.926)"/>
              <path id="Trazado_183867" data-name="Trazado 183867" d="M509.067,92.661a.149.149,0,0,0,.077-.067.269.269,0,0,0-.059-.313,5.835,5.835,0,0,0-1.993-1.107,8.055,8.055,0,0,0-5.45.191.235.235,0,0,0,.156.428,7.768,7.768,0,0,1,5.226-.2,5.559,5.559,0,0,1,1.867,1.023.171.171,0,0,0,.175.046" transform="translate(-439.17 -79.5)"/>
              <path id="Trazado_183868" data-name="Trazado 183868" d="M508.058,91.846a.321.321,0,0,1-.219-.092,5.47,5.47,0,0,0-1.818-.993,7.636,7.636,0,0,0-5.136.2.342.342,0,0,1-.418-.235.4.4,0,0,1-.008-.257.3.3,0,0,1,.177-.192,8.19,8.19,0,0,1,5.54-.192,5.975,5.975,0,0,1,2.042,1.137.407.407,0,0,1,.083.48.283.283,0,0,1-.148.127h0a.28.28,0,0,1-.1.017m.049-.145h0Zm-4.278-1.562a7.111,7.111,0,0,1,2.279.364,5.689,5.689,0,0,1,1.917,1.052c.017.016.03.019.035.018a.019.019,0,0,0,.006-.007.135.135,0,0,0-.034-.146,5.673,5.673,0,0,0-1.944-1.077,7.92,7.92,0,0,0-5.359.19.034.034,0,0,0-.011.019.128.128,0,0,0,0,.081c.02.055.061.075.069.072a8.826,8.826,0,0,1,3.037-.566" transform="translate(-438.211 -78.54)"/>
              <path id="Trazado_183869" data-name="Trazado 183869" d="M753.688,161.447a.18.18,0,0,1-.158-.267,6.071,6.071,0,0,1,2.974-2.828,4.009,4.009,0,0,1,1.627-.334.18.18,0,0,1-.022.36,3.742,3.742,0,0,0-1.487.315,5.727,5.727,0,0,0-2.777,2.66.18.18,0,0,1-.158.093" transform="translate(-659.806 -138.366)"/>
              <path id="Trazado_183870" data-name="Trazado 183870" d="M752.73,160.626a.316.316,0,0,1-.277-.469,6.206,6.206,0,0,1,3.042-2.888,4.145,4.145,0,0,1,1.688-.344.317.317,0,0,1,.188.554.311.311,0,0,1-.229.077,3.652,3.652,0,0,0-1.425.305,5.592,5.592,0,0,0-2.71,2.6.317.317,0,0,1-.277.164m4.369-3.43a4.107,4.107,0,0,0-1.5.325,5.937,5.937,0,0,0-2.907,2.767.044.044,0,0,0,.017.06.042.042,0,0,0,.06-.017,5.861,5.861,0,0,1,2.844-2.72,3.832,3.832,0,0,1,1.547-.326.043.043,0,0,0,.047-.041.044.044,0,0,0-.041-.047l-.067,0" transform="translate(-658.848 -137.408)"/>
              <path id="Trazado_183871" data-name="Trazado 183871" d="M761.134,177.89a.18.18,0,0,1-.15-.081l-1.79-2.706a.18.18,0,1,1,.3-.2l1.79,2.706a.18.18,0,0,1-.15.28" transform="translate(-664.758 -153.082)"/>
              <path id="Trazado_183872" data-name="Trazado 183872" d="M760.174,177.066a.316.316,0,0,1-.264-.142l-1.79-2.706a.316.316,0,1,1,.528-.349l1.79,2.706a.316.316,0,0,1-.264.491M758.384,174a.043.043,0,0,0-.043.035.043.043,0,0,0,.006.033l1.79,2.706a.038.038,0,0,0,.061.012.044.044,0,0,0,.012-.061l-1.79-2.706a.044.044,0,0,0-.028-.019h-.009" transform="translate(-663.799 -152.122)"/>
              <path id="Trazado_183873" data-name="Trazado 183873" d="M440.759,176.5a.18.18,0,0,0,.158-.267,6.071,6.071,0,0,0-2.974-2.828,4.007,4.007,0,0,0-1.627-.334.18.18,0,0,0,.022.36,3.742,3.742,0,0,1,1.487.315,5.727,5.727,0,0,1,2.777,2.66.18.18,0,0,0,.158.093" transform="translate(-381.91 -151.545)"/>
              <path id="Trazado_183874" data-name="Trazado 183874" d="M439.8,175.676a.316.316,0,0,1-.277-.164,5.591,5.591,0,0,0-2.71-2.6,3.646,3.646,0,0,0-1.427-.305.311.311,0,0,1-.227-.077.317.317,0,0,1,.188-.554,4.147,4.147,0,0,1,1.687.344,6.2,6.2,0,0,1,3.042,2.888.316.316,0,0,1-.277.469m-4.365-3.342a4.007,4.007,0,0,1,1.482.327,5.859,5.859,0,0,1,2.844,2.72.042.042,0,0,0,.059.017.043.043,0,0,0,.021-.026.044.044,0,0,0,0-.034,5.936,5.936,0,0,0-2.907-2.767,3.918,3.918,0,0,0-1.567-.324.044.044,0,0,0-.042.047.045.045,0,0,0,.015.031.044.044,0,0,0,.031.01h.066" transform="translate(-380.95 -150.588)"/>
              <path id="Trazado_183875" data-name="Trazado 183875" d="M451.92,192.94a.18.18,0,0,0,.151-.081l1.79-2.706a.18.18,0,0,0-.3-.2l-1.79,2.706a.18.18,0,0,0,.051.25.178.178,0,0,0,.1.03" transform="translate(-395.564 -166.262)"/>
              <path id="Trazado_183876" data-name="Trazado 183876" d="M450.961,192.117a.316.316,0,0,1-.264-.491l1.79-2.706a.316.316,0,1,1,.528.349l-1.79,2.706a.316.316,0,0,1-.264.142m1.79-3.067h-.009a.044.044,0,0,0-.028.019l-1.79,2.706a.044.044,0,0,0,.012.061.045.045,0,0,0,.061-.013l1.79-2.706a.044.044,0,0,0,.006-.033.044.044,0,0,0-.019-.028.043.043,0,0,0-.024-.007" transform="translate(-394.605 -165.302)"/>
              <path id="Trazado_183877" data-name="Trazado 183877" d="M648.754,120.377s-.029-11.037,10.37-4.7c0,0-2.211,7.582-10.37,4.7" transform="translate(-568.079 -99.574)" fill="#fff"/>
              <path id="Trazado_183878" data-name="Trazado 183878" d="M658.068,114.253c-5.067-1.87-6.712,1.553-7.247,3.99a4.332,4.332,0,0,0,1.732,2.658,6.847,6.847,0,0,0,6.631-2.186,4.329,4.329,0,0,0-1.117-4.463" transform="translate(-569.889 -99.575)"/>
              <path id="Trazado_183879" data-name="Trazado 183879" d="M490.607,129.171s-1.251-10.966-10.844-3.462c0,0,3.076,7.274,10.844,3.462" transform="translate(-420.102 -107.777)" fill="#fff"/>
              <path id="Trazado_183880" data-name="Trazado 183880" d="M494.365,123.96c4.816-2.445,6.847.764,7.66,3.123a4.332,4.332,0,0,1-1.412,2.841,6.847,6.847,0,0,1-6.84-1.4,4.33,4.33,0,0,1,.592-4.562" transform="translate(-432.024 -107.778)"/>
              <path id="Trazado_183881" data-name="Trazado 183881" d="M1065.28,527.825,1044.3,476.612l-9.052,2.186,13.91,55.5Z" transform="translate(-906.508 -417.343)" fill="#ea8271"/>
              <path id="Trazado_183882" data-name="Trazado 183882" d="M1007,384.032l-2.234-7.058a5.945,5.945,0,0,0,1.059-3.7c-.165-2.082-1.436-10.452-1.436-10.452l-14.289,2.6s3.16,11.41,4.659,13.743a31.819,31.819,0,0,1,2.732,6.921Z" transform="translate(-866.976 -317.705)" fill="#ea8271"/>
              <path id="Trazado_183883" data-name="Trazado 183883" d="M935.375,395.459s-7.154-2.648-9.612-5.82c-2.1-2.706-3.337-5.045-4.387-6.411a.921.921,0,0,1,.134-1.245,1.97,1.97,0,0,1,2.486-.188,15.238,15.238,0,0,1,3.228,3.125c.854,1.22,4.958,1.633,4.958,1.633Z" transform="translate(-806.639 -334.004)" fill="#ea8271"/>
              <path id="Trazado_183884" data-name="Trazado 183884" d="M960.945,284.079l-4.265-12.7a1.679,1.679,0,0,1,1.206-2.1,1.7,1.7,0,0,1,2.14.943l4.619,12.76Z" transform="translate(-837.642 -235.721)" fill="#ea8271"/>
              <path id="Trazado_183885" data-name="Trazado 183885" d="M999.685,267.943l-3.074-13.924a1.788,1.788,0,0,1,1.41-2.109,1.7,1.7,0,0,1,2.028,1.265l3.29,14.245Z" transform="translate(-872.643 -220.551)" fill="#ea8271"/>
              <path id="Trazado_183886" data-name="Trazado 183886" d="M1046,274.94l-.555-12.53a1.741,1.741,0,0,1,1.75-1.664,1.568,1.568,0,0,1,1.761,1.356l.709,12.837Z" transform="translate(-915.443 -228.318)" fill="#ea8271"/>
              <path id="Trazado_183887" data-name="Trazado 183887" d="M1081.239,296.132l.882-9.572a1.393,1.393,0,0,1,1.547-1.1,1.2,1.2,0,0,1,1.238,1.191l-.794,9.819Z" transform="translate(-946.783 -249.954)" fill="#ea8271"/>
              <path id="Trazado_183888" data-name="Trazado 183888" d="M1003.456,367.689a.281.281,0,0,1-.1-.544,33.3,33.3,0,0,1,11.092-1.648.281.281,0,0,1-.005.562h-.005a32.655,32.655,0,0,0-10.884,1.613.28.28,0,0,1-.1.018" transform="translate(-878.427 -320.04)"/>
              <path id="Trazado_183889" data-name="Trazado 183889" d="M590.617,211.166s-6.82-1.934-9.932,1.9c0,0,4.409,4.137,9.932-1.9" transform="translate(-508.475 -184.479)"/>
              <path id="Trazado_183890" data-name="Trazado 183890" d="M583.069,215.466a5.908,5.908,0,0,0-2.385,1.736s3.711,3.475,8.587-.611c-.029-.026-1.739-1.525-6.2-1.125" transform="translate(-508.474 -188.612)" fill="#fe3a01"/>
              <path id="Trazado_183891" data-name="Trazado 183891" d="M40.264,1255.443s-4.185,8.036-3.878,16.511c.232,6.395,3.237,8.837,4.7,9.651a.972.972,0,0,0,1.254-.274,1.729,1.729,0,0,0,.051-1.976,13.9,13.9,0,0,1-1.583-3.473c-.965-3.094,3.918-7.43,5.779-11.78,2.967-6.937-2.691-5.935-2.691-5.935Z" transform="translate(-31.847 -1099.323)" fill="#ea8271"/>
              <path id="Trazado_183892" data-name="Trazado 183892" d="M32.62,1273.316s-4.185,8.036-3.878,16.51c.216,5.964,2.845,8.49,4.383,9.464a1.312,1.312,0,0,0,1.753-.335,1.285,1.285,0,0,0,.021-1.5,13.493,13.493,0,0,1-1.736-3.7c-.965-3.094.278-8.641.278-8.641l2.811-9.074Z" transform="translate(-25.153 -1114.974)" fill="#ea8271"/>
              <path id="Trazado_183893" data-name="Trazado 183893" d="M21.052,1270.072s-6.733,7.6-7.864,17.01c-.884,7.356,2.757,10.923,4.387,12.13a1.156,1.156,0,0,0,1.4-.025,1.769,1.769,0,0,0,.479-2.185,15.838,15.838,0,0,1-1.385-4.3c-.665-3.686,1.9-9.419,1.9-9.419l5.18-9.148Z" transform="translate(-11.429 -1112.133)" fill="#ea8271"/>
              <path id="Trazado_183894" data-name="Trazado 183894" d="M8.264,1257.929s-7,7.912-8.127,17.321c-.887,7.38,2.78,10.947,4.4,12.142a1.131,1.131,0,0,0,1.373-.025h0a1.8,1.8,0,0,0,.485-2.216,15.858,15.858,0,0,1-1.376-4.281c-.665-3.686,1.9-9.419,1.9-9.419l5.18-9.148Z" transform="translate(0 -1101.5)" fill="#ea8271"/>
              <path id="Trazado_183895" data-name="Trazado 183895" d="M41.916,1275.286s-4.238,7.264-5.966,11.3-2.939,3.844-4.19,3.233c-1.983-.969-.442-4.877.593-7.3s.072-3.15.072-3.15l7.253-7.854Z" transform="translate(-26.97 -1113.403)" fill="#ea8271"/>
              <path id="Trazado_183896" data-name="Trazado 183896" d="M30.383,1315.218a2.9,2.9,0,0,1-1.258-.359c-2.034-.994-1.067-4.255-.291-6.875.052-.175.1-.346.151-.513a12.62,12.62,0,0,0,.67-3.262.239.239,0,0,1,.478-.023,12.467,12.467,0,0,1-.689,3.419c-.049.167-.1.339-.152.515-.687,2.318-1.628,5.493.042,6.309a1.829,1.829,0,0,0,1.485.231c.76-.283,1.539-1.376,2.38-3.343,1.714-4.006,5.937-11.256,5.979-11.329a.239.239,0,0,1,.414.241c-.042.073-4.251,7.3-5.953,11.276-.908,2.123-1.751,3.269-2.653,3.6a1.715,1.715,0,0,1-.6.109" transform="translate(-24.44 -1138.225)"/>
              <path id="Trazado_183897" data-name="Trazado 183897" d="M35.492,1427.149a1.367,1.367,0,0,1-.812-.266.24.24,0,0,1,.284-.386.893.893,0,0,0,1.082-.02,1.564,1.564,0,0,0,.42-1.921,16.145,16.145,0,0,1-1.4-4.345,9.863,9.863,0,0,1,0-2.995.239.239,0,0,1,.475.063,9.4,9.4,0,0,0,0,2.846,15.673,15.673,0,0,0,1.355,4.216,2.045,2.045,0,0,1-.551,2.51,1.369,1.369,0,0,1-.852.3" transform="translate(-30.282 -1240.799)"/>
              <path id="Trazado_183898" data-name="Trazado 183898" d="M51.679,1427.271a.239.239,0,0,1-.214-.132c-.074-.147-.159-.307-.25-.479a12.58,12.58,0,0,1-1.615-7.868.24.24,0,0,1,.472.082,12.7,12.7,0,0,0,.15,3.839,12.388,12.388,0,0,0,1.416,3.723c.093.176.18.339.255.488a.239.239,0,0,1-.214.347" transform="translate(-43.341 -1242.186)"/>
              <path id="Trazado_183899" data-name="Trazado 183899" d="M63.6,1415.493a.239.239,0,0,1-.184-.086,15.093,15.093,0,0,1-2-3.208,9.872,9.872,0,0,1-.384-4.416.239.239,0,1,1,.474.065,9.582,9.582,0,0,0,.348,4.159,14.857,14.857,0,0,0,1.928,3.092.24.24,0,0,1-.184.393" transform="translate(-53.36 -1232.538)"/>
              <g id="Grupo_175083" data-name="Grupo 175083" transform="translate(4.168 172.468)" style="mix-blend-mode: overlay;isolation: isolate">
                <g id="Grupo_175082" data-name="Grupo 175082">
                  <g id="Grupo_175081" data-name="Grupo 175081" clip-path="url(#clip-path-4)">
                    <path id="Trazado_183900" data-name="Trazado 183900" d="M35.056,1390.747a1.479,1.479,0,0,1-.583-.119,1.978,1.978,0,0,1,1.538-3.6,1.563,1.563,0,0,1,.875,1.014,2.193,2.193,0,0,1-1.076,2.515,1.669,1.669,0,0,1-.754.187m.371-3.355a1.489,1.489,0,0,0-1.291.965,1.362,1.362,0,0,0,.525,1.83,1.092,1.092,0,0,0,.933-.055,1.715,1.715,0,0,0,.833-1.948,1.091,1.091,0,0,0-.6-.712,1,1,0,0,0-.395-.08" transform="translate(-33.515 -1386.913)"/>
                  </g>
                </g>
              </g>
            </g>
          </g>
          <g id="Grupo_175087" data-name="Grupo 175087" transform="translate(60.138 80.404)">
            <g id="Grupo_175086" data-name="Grupo 175086" clip-path="url(#clip-path-5)">
              <rect id="Rectángulo_45309" data-name="Rectángulo 45309" width="41.435" height="3.85" transform="translate(-3.098 0.26)" fill="#fe3a01"/>
              <rect id="Rectángulo_45310" data-name="Rectángulo 45310" width="41.435" height="3.85" transform="translate(-3.098 4.006)" fill="#ff8400"/>
              <rect id="Rectángulo_45311" data-name="Rectángulo 45311" width="41.435" height="3.85" transform="translate(-3.098 7.753)" fill="#ffc849"/>
              <rect id="Rectángulo_45312" data-name="Rectángulo 45312" width="41.435" height="3.85" transform="translate(-3.098 11.5)" fill="#51af55"/>
              <rect id="Rectángulo_45313" data-name="Rectángulo 45313" width="41.435" height="3.85" transform="translate(-3.098 15.247)" fill="#3b82ff"/>
              <rect id="Rectángulo_45314" data-name="Rectángulo 45314" width="41.435" height="3.85" transform="translate(-3.098 18.993)" fill="#b034c1"/>
            </g>
          </g>
          <g id="Grupo_175089" data-name="Grupo 175089" transform="translate(0 -0.001)">
            <g id="Grupo_175088" data-name="Grupo 175088" clip-path="url(#clip-path-3)">
              <path id="Trazado_183901" data-name="Trazado 183901" d="M933.725,639.172a.373.373,0,0,1-.326-.554l14.245-25.665a.373.373,0,1,1,.652.362L934.052,638.98a.373.373,0,0,1-.327.192" transform="translate(-817.287 -536.561)"/>
              <path id="Trazado_183902" data-name="Trazado 183902" d="M174.029,737.186a.371.371,0,0,1-.216-.069l-21-14.919a.373.373,0,0,1,.432-.608l21,14.919a.373.373,0,0,1-.216.677" transform="translate(-133.671 -631.797)"/>
              <path id="Trazado_183903" data-name="Trazado 183903" d="M1054.036,559.047a.373.373,0,0,1-.343-.286l-9.847-40.975a.373.373,0,1,1,.725-.174l9.847,40.975a.373.373,0,0,1-.383.46" transform="translate(-914.032 -452.995)"/>
              <path id="Trazado_183904" data-name="Trazado 183904" d="M870.677,733.04a.373.373,0,0,1-.367-.309l-1.685-9.585a.373.373,0,0,1,.735-.129l1.685,9.586a.373.373,0,0,1-.3.432.367.367,0,0,1-.065.006" transform="translate(-760.603 -632.836)"/>
              <path id="Trazado_183905" data-name="Trazado 183905" d="M57.127,1201.09l-1.738,6.129a.667.667,0,0,0,.364.788l8.473,3.88a.667.667,0,0,0,.9-.356l2.452-6.054a.667.667,0,0,0-.354-.863l-9.187-3.954a.666.666,0,0,0-.905.431" transform="translate(-48.479 -1051.305)" fill="#fd521b"/>
              <path id="Trazado_183906" data-name="Trazado 183906" d="M198.709,2518.533l5.044,19.518-38.281.073s-.679-8.607,2.858-10.571a70.4,70.4,0,0,1,10.341-4.041l4.814-6.537,5.051-.06,7.9,6.537Z" transform="translate(-144.849 -2203.927)" fill="#5774cd"/>
              <path id="Trazado_183907" data-name="Trazado 183907" d="M262.342,2499.251s.716-5.691,4.118-5.831,4.851,1.309,3.79,4.191-8.12,8.413-8.12,8.413l-4.088-2.291Z" transform="translate(-225.954 -2183.346)" fill="#fd521b"/>
              <path id="Trazado_183908" data-name="Trazado 183908" d="M203.753,2586.58l-1.177-4.554H185.53a12.673,12.673,0,0,0-2.086-6.182,8.1,8.1,0,0,0-5.707-3.508,63.28,63.28,0,0,0-9.408,3.746c-1.749.971-2.467,3.568-2.746,5.944h-.025c-.029.306-.05.63-.067.96a26.773,26.773,0,0,0-.02,3.667h20.043c0-.012,0-.026,0-.039Z" transform="translate(-144.849 -2252.457)" fill="#3d518f"/>
              <path id="Trazado_183909" data-name="Trazado 183909" d="M271.918,2529.393h-9.092a.234.234,0,1,1,0-.469h7.726l-7.6-2.687a.234.234,0,0,1,.078-.455h11.29l-8.967-2.294a.234.234,0,0,1,.116-.454l10.77,2.755a.234.234,0,0,1-.058.461H264.393l7.6,2.687a.234.234,0,0,1-.078.455" transform="translate(-229.938 -2209.279)" fill="#fff"/>
              <path id="Trazado_183910" data-name="Trazado 183910" d="M884.871,2520.6l-5.037,19.518,38.229.074s.678-8.607-2.854-10.571a70.253,70.253,0,0,0-10.327-4.041l-4.807-6.537-5.045-.06-7.893,6.537Z" transform="translate(-770.423 -2205.741)" fill="#5774cd"/>
              <path id="Trazado_183911" data-name="Trazado 183911" d="M1002.636,2501.322s-.715-5.691-4.112-5.831-4.844,1.31-3.785,4.191,8.109,8.413,8.109,8.413l4.083-2.291Z" transform="translate(-870.741 -2185.159)" fill="#fd521b"/>
              <path id="Trazado_183912" data-name="Trazado 183912" d="M918.063,2656.957l-38.229-.074,1.175-4.553h36.967a44.313,44.313,0,0,1,.087,4.627" transform="translate(-770.423 -2322.503)" fill="#3d518f"/>
              <path id="Trazado_183913" data-name="Trazado 183913" d="M1027.438,2577.916a8.093,8.093,0,0,1,5.7-3.508,63.182,63.182,0,0,1,9.395,3.746c3.532,1.964,2.854,10.571,2.854,10.571h-20.015c-.308-2.557-.244-7.711,2.067-10.81" transform="translate(-897.747 -2254.271)" fill="#3d518f"/>
              <path id="Trazado_183914" data-name="Trazado 183914" d="M993.214,2531.465h-9.079a.234.234,0,0,1-.078-.455l7.593-2.687H979.88a.234.234,0,0,1-.058-.461l10.755-2.755a.234.234,0,0,1,.116.454l-8.954,2.294h11.275a.234.234,0,0,1,.078.455L985.5,2531h7.715a.234.234,0,0,1,0,.469" transform="translate(-857.824 -2211.093)" fill="#fff"/>
            </g>
          </g>
        </g>
      </g>
    </g>
  </g>
</svg>
