<svg xmlns="http://www.w3.org/2000/svg" width="210" height="27" viewBox="0 0 210 27">
  <g id="Grupo_984440" data-name="Grupo 984440" transform="translate(-242.583 -167)">
    <path id="Trazado_213443" data-name="Trazado 213443" d="M0,0H210a27,27,0,0,1-27,27H0Z" transform="translate(242.583 167)" fill="#fed947"/>
    <path id="Trazado_213444" data-name="Trazado 213444" d="M2.434-1.647H6.658L6.371,0H.144L1.873-9.953h2ZM10.958.137A3.218,3.218,0,0,1,9.239-.338,2.88,2.88,0,0,1,8.121-1.624a3.582,3.582,0,0,1-.287-1.8L7.854-3.7a4.782,4.782,0,0,1,.629-1.982A3.8,3.8,0,0,1,9.837-7.072a3.349,3.349,0,0,1,1.832-.461,2.559,2.559,0,0,1,2.164,1.051,3.6,3.6,0,0,1,.557,2.591l-.109.842H9.748A1.587,1.587,0,0,0,10.1-1.9a1.331,1.331,0,0,0,1.025.444,2.365,2.365,0,0,0,1.846-.82l.882,1.094a2.743,2.743,0,0,1-1.2.981A3.934,3.934,0,0,1,10.958.137Zm.615-6.077a1.37,1.37,0,0,0-.947.335A2.943,2.943,0,0,0,9.885-4.4h2.652l.041-.178a1.812,1.812,0,0,0,.007-.52.992.992,0,0,0-.335-.619A1.05,1.05,0,0,0,11.573-5.94Zm6.3,3.5L19.981-7.4H22.06L18.484,0H16.639L15.374-7.4h1.955ZM25.211.137a3.218,3.218,0,0,1-1.719-.475,2.88,2.88,0,0,1-1.118-1.285,3.582,3.582,0,0,1-.287-1.8l.021-.273a4.782,4.782,0,0,1,.629-1.982A3.8,3.8,0,0,1,24.09-7.072a3.349,3.349,0,0,1,1.832-.461,2.559,2.559,0,0,1,2.164,1.051,3.6,3.6,0,0,1,.557,2.591l-.109.842H24A1.587,1.587,0,0,0,24.35-1.9a1.331,1.331,0,0,0,1.025.444,2.365,2.365,0,0,0,1.846-.82L28.1-1.183A2.743,2.743,0,0,1,26.9-.2,3.934,3.934,0,0,1,25.211.137Zm.615-6.077a1.37,1.37,0,0,0-.947.335,2.943,2.943,0,0,0-.742,1.21H26.79l.041-.178a1.812,1.812,0,0,0,.007-.52.992.992,0,0,0-.335-.619A1.05,1.05,0,0,0,25.826-5.94ZM31.145,0H29.2l1.825-10.5h1.935ZM41.686,0H39.71V-7.615l-2.358.731V-8.49l4.122-1.477h.212ZM51.741,0H44.919V-1.354l3.22-3.432A7.943,7.943,0,0,0,49.12-6.05a2.032,2.032,0,0,0,.318-1.025A1.52,1.52,0,0,0,49.1-8.118a1.209,1.209,0,0,0-.957-.379,1.3,1.3,0,0,0-1.056.461A1.828,1.828,0,0,0,46.7-6.822H44.721a3.263,3.263,0,0,1,.434-1.661,3.059,3.059,0,0,1,1.227-1.179,3.73,3.73,0,0,1,1.8-.427,3.531,3.531,0,0,1,2.389.738,2.612,2.612,0,0,1,.851,2.085,3.347,3.347,0,0,1-.383,1.5,8.357,8.357,0,0,1-1.312,1.784L47.462-1.593h4.279Z" transform="translate(247.583 185)" fill="#12263f"/>
    <path id="Trazado_213445" data-name="Trazado 213445" d="M6.713-4.313H2.9L2.434-1.647H6.918L6.631,0H.144L1.873-9.953H8.347L8.053-8.292H3.589L3.172-5.92H7ZM10.773-7.4l-.164.875a2.661,2.661,0,0,1,2.153-1,1.774,1.774,0,0,1,1.545.766A3.085,3.085,0,0,1,14.67-4.7L13.891,0H11.963l.793-4.724a2.212,2.212,0,0,0,.014-.485.783.783,0,0,0-.875-.718,1.659,1.659,0,0,0-1.36.7L9.611,0H7.684L8.969-7.4Zm5,3.7a5.118,5.118,0,0,1,1.118-2.786,2.836,2.836,0,0,1,2.3-1.049,2.074,2.074,0,0,1,1.764.854l.253-.718,1.771.007L21.766-.253a3.485,3.485,0,0,1-1.258,2.338,3.912,3.912,0,0,1-2.625.834,3.647,3.647,0,0,1-1.463-.332,3.128,3.128,0,0,1-1.148-.872L16.229.54a2.055,2.055,0,0,0,1.613.841A1.9,1.9,0,0,0,19.127.988,2.1,2.1,0,0,0,19.852-.2l.109-.444a2.4,2.4,0,0,1-1.812.779,2.125,2.125,0,0,1-1.716-.8,3.454,3.454,0,0,1-.7-2.054A6.9,6.9,0,0,1,15.771-3.705Zm1.894.811a1.768,1.768,0,0,0,.27,1.03.945.945,0,0,0,.783.407,1.726,1.726,0,0,0,1.395-.671l.574-3.136A1.134,1.134,0,0,0,19.6-5.934a1.512,1.512,0,0,0-1.251.6A3.116,3.116,0,0,0,17.705-3.7,7.187,7.187,0,0,0,17.664-2.894ZM25.259,0H23.317l1.825-10.5h1.935ZM28.93,0H26.988l1.285-7.4h1.941ZM28.5-9.276a.963.963,0,0,1,.3-.759,1.058,1.058,0,0,1,.759-.3,1.063,1.063,0,0,1,.759.267.959.959,0,0,1,.335.725.99.99,0,0,1-.284.738,1.063,1.063,0,0,1-.776.328,1.081,1.081,0,0,1-.755-.26A.954.954,0,0,1,28.5-9.276ZM34.85-2.085q.109-.547-.759-.793l-.622-.157q-2.208-.608-2.146-2.146a2.124,2.124,0,0,1,.926-1.706,3.449,3.449,0,0,1,2.15-.646,3.094,3.094,0,0,1,2.023.663,2.184,2.184,0,0,1,.786,1.729l-1.914-.007a.843.843,0,0,0-.943-.964,1.358,1.358,0,0,0-.783.226.929.929,0,0,0-.407.608q-.1.547.827.772l.273.062a5.5,5.5,0,0,1,1.442.516,2.177,2.177,0,0,1,.769.721,1.785,1.785,0,0,1,.25,1.032,1.97,1.97,0,0,1-.455,1.23,2.782,2.782,0,0,1-1.189.813,4.144,4.144,0,0,1-1.589.267,3.122,3.122,0,0,1-2.051-.708A2.281,2.281,0,0,1,30.6-2.365l1.818.014a1,1,0,0,0,1.135,1.073,1.614,1.614,0,0,0,.878-.219A.864.864,0,0,0,34.85-2.085Zm5.7-4.491a2.578,2.578,0,0,1,2-.957,1.875,1.875,0,0,1,1.617.79,3.1,3.1,0,0,1,.386,2.082L43.777,0H41.85l.786-4.688a2.272,2.272,0,0,0,.014-.493.775.775,0,0,0-.861-.76,1.665,1.665,0,0,0-1.367.671L39.491,0H37.563l1.818-10.5h1.935ZM48.856,0l1.729-9.953,2.857.007a3.914,3.914,0,0,1,1.808.455,3.417,3.417,0,0,1,1.3,1.248,4.272,4.272,0,0,1,.6,1.832A6.047,6.047,0,0,1,57.142-5.2l-.048.362a5.685,5.685,0,0,1-1.719,3.51A4.864,4.864,0,0,1,51.933,0ZM52.3-8.292,51.146-1.647l.834.007A2.736,2.736,0,0,0,54.2-2.652a5.229,5.229,0,0,0,.96-3.056l.014-.219a2.757,2.757,0,0,0-.431-1.729A1.644,1.644,0,0,0,53.4-8.285Zm9.557.759a2.967,2.967,0,0,1,1.685.5,2.83,2.83,0,0,1,1.039,1.347,4.166,4.166,0,0,1,.236,1.9A4.5,4.5,0,0,1,63.591-.926,3.465,3.465,0,0,1,60.949.137a2.958,2.958,0,0,1-1.668-.5A2.819,2.819,0,0,1,58.242-1.7,4.075,4.075,0,0,1,58-3.582a4.633,4.633,0,0,1,1.244-2.912A3.393,3.393,0,0,1,61.858-7.533ZM59.91-2.883a1.707,1.707,0,0,0,.308,1.034,1.022,1.022,0,0,0,.827.392,1.5,1.5,0,0,0,1.395-.816,4.066,4.066,0,0,0,.472-2.215,1.856,1.856,0,0,0-.318-1.048,1,1,0,0,0-.831-.406,1.5,1.5,0,0,0-1.377.809A4.024,4.024,0,0,0,59.91-2.883ZM68.886.137a3.218,3.218,0,0,1-1.719-.475,2.88,2.88,0,0,1-1.118-1.285,3.582,3.582,0,0,1-.287-1.8l.021-.273a4.782,4.782,0,0,1,.629-1.982,3.8,3.8,0,0,1,1.354-1.391A3.349,3.349,0,0,1,69.6-7.533,2.559,2.559,0,0,1,71.76-6.482a3.6,3.6,0,0,1,.557,2.591l-.109.842H67.676A1.587,1.587,0,0,0,68.024-1.9a1.331,1.331,0,0,0,1.025.444,2.365,2.365,0,0,0,1.846-.82l.882,1.094a2.743,2.743,0,0,1-1.2.981A3.934,3.934,0,0,1,68.886.137ZM69.5-5.94a1.37,1.37,0,0,0-.947.335,2.943,2.943,0,0,0-.742,1.21h2.652l.041-.178a1.812,1.812,0,0,0,.007-.52.992.992,0,0,0-.335-.619A1.05,1.05,0,0,0,69.5-5.94Zm7.567,3.855q.109-.547-.759-.793l-.622-.157q-2.208-.608-2.146-2.146a2.124,2.124,0,0,1,.926-1.706,3.449,3.449,0,0,1,2.15-.646,3.094,3.094,0,0,1,2.023.663,2.184,2.184,0,0,1,.786,1.729l-1.914-.007a.843.843,0,0,0-.943-.964,1.358,1.358,0,0,0-.783.226.929.929,0,0,0-.407.608q-.1.547.827.772l.273.062a5.5,5.5,0,0,1,1.442.516,2.177,2.177,0,0,1,.769.721,1.785,1.785,0,0,1,.25,1.032,1.97,1.97,0,0,1-.455,1.23A2.782,2.782,0,0,1,77.3-.13a4.144,4.144,0,0,1-1.589.267,3.122,3.122,0,0,1-2.051-.708,2.281,2.281,0,0,1-.834-1.794l1.818.014a1,1,0,0,0,1.135,1.073,1.614,1.614,0,0,0,.878-.219A.864.864,0,0,0,77.068-2.085Zm14.362-.807,2.4-7.062h2.044L92.176,0H90.159l-.526-6.631L87.028,0H85.012l-.588-9.953h1.955l.2,7.027,2.68-7.027h1.7Zm7.813-4.642a2.967,2.967,0,0,1,1.685.5,2.83,2.83,0,0,1,1.039,1.347,4.166,4.166,0,0,1,.236,1.9,4.5,4.5,0,0,1-1.227,2.854A3.465,3.465,0,0,1,98.335.137a2.958,2.958,0,0,1-1.668-.5A2.819,2.819,0,0,1,95.628-1.7a4.075,4.075,0,0,1-.239-1.887,4.633,4.633,0,0,1,1.244-2.912A3.393,3.393,0,0,1,99.244-7.533ZM97.3-2.883A1.707,1.707,0,0,0,97.6-1.849a1.022,1.022,0,0,0,.827.392,1.5,1.5,0,0,0,1.395-.816,4.066,4.066,0,0,0,.472-2.215,1.856,1.856,0,0,0-.318-1.048,1,1,0,0,0-.831-.406,1.5,1.5,0,0,0-1.377.809A4.024,4.024,0,0,0,97.3-2.883Zm10.527-2.661a3.98,3.98,0,0,0-.649-.068,1.869,1.869,0,0,0-1.634.772L104.686,0h-1.928l1.285-7.4,1.812-.007-.178.9A2.034,2.034,0,0,1,107.4-7.547a2.812,2.812,0,0,1,.67.1Zm3.158,2.6-.9.779L109.71,0h-1.928L109.6-10.5h1.935l-1,5.7.376-.4L113.107-7.4h2.475l-3.233,3.179L114.406,0h-2.112Z" transform="translate(314.583 185)" fill="#12263f"/>
    <path id="Trazado_213446" data-name="Trazado 213446" d="M0,0V15.857" transform="translate(305.083 172.5)" fill="none" stroke="#12263f" stroke-linecap="round" stroke-width="3"/>
  </g>
</svg>
