<svg id="Grupo_984308" data-name="Grupo 984308" xmlns="http://www.w3.org/2000/svg" xmlns:xlink="http://www.w3.org/1999/xlink" width="93.881" height="110.944" viewBox="0 0 93.881 110.944">
  <defs>
    <clipPath id="clip-path">
      <rect id="Rectángulo_338804" data-name="Rectángulo 338804" width="93.881" height="110.944" fill="none"/>
    </clipPath>
  </defs>
  <g id="Grupo_983789" data-name="Grupo 983789" clip-path="url(#clip-path)">
    <path id="Trazado_211175" data-name="Trazado 211175" d="M45.9,113.321a.4.4,0,0,1-.261-.17.364.364,0,0,1-.087-.3c1.368-4.962,3.111-9.971,4.637-14.276a.836.836,0,0,0-1.319-.924c-3.58,2.952-6.938,5.56-10.264,7.97a.268.268,0,0,1-.129.062c-.025,0-.086-.037-.144-.119a.894.894,0,0,0-.1-.114.222.222,0,0,1-.065-.262c.909-3.311,2.019-6.816,3.6-11.365a.836.836,0,0,0-.781-1.11l-1.226,0s-3.472.015-4.215.015c-9.41,0-19.684-.707-22.5-9.151a.838.838,0,0,0-.532-.53c-3.046-1-5.07-2.622-6.019-4.829C4.712,74.072,4.707,69.349,4.7,64.781c0-1.286,0-2.564-.043-3.822l-.114-3.6c-.213-6.665-.434-13.557-.431-20.332,0-1.112-.016-2.274-.032-3.47-.121-8.944-.271-20.073,6.483-26.163,3.325-3,9.048-3.345,13.064-3.345,2,0,3.976.095,5.884.185,1.651.078,3.212.153,4.6.155l11.94-.013c7.872,0,16.294.063,24.548.527C77.483,5.288,85,6.3,87.1,13.4a.838.838,0,0,0,.5.543c8.031,3.11,8.049,11.926,8.065,19.7,0,.866,0,1.721.015,2.553.05,3.3.161,6.713.27,10.018.357,10.884.727,22.138-.947,32.654C93.518,88.241,87.9,92.712,77.321,92.948c-2.4.053-4.793.1-7.189.12-.545.006-.929.288-3.761,3.261-.585.615-1.09,1.148-1.34,1.376a219.96,219.96,0,0,1-19.047,15.58Z" transform="translate(-3.214 -3.212)" fill="#fff"/>
    <path id="Trazado_211176" data-name="Trazado 211176" d="M70.76,128.639c5.071-3.309,5.142-18.1,5.142-24.583,0-10.214-1.268-19.864-12.538-19.864-7.115,0-9.933,6.9-10.567,12.326a150.179,150.179,0,0,0-.845,15.638c0,8.452,1.338,18.666,11.975,18.666a10.565,10.565,0,0,0,6.833-2.183M59.347,110.678c0-1.409-.069-3.24-.069-5.283,0-6.059.563-13.383,5.352-13.383,3.875,0,4.3,4.719,4.3,12.326v6.057c-.07,6.412-.916,12.116-5.776,12.116-3.169,0-3.8-6.2-3.8-11.833" transform="translate(-41.232 -66.82)"/>
    <path id="Trazado_211177" data-name="Trazado 211177" d="M189.261,134h1.621c4.507,0,4.649-.845,4.649-1.833,0-5.071.07-11.128.07-17.961,0-.493.917-.774,1.338-.774,6.058.141,7.96,13.031,7.96,17.4v1.621c0,.986.07,1.55.493,1.55l5-.071c1.127,0,1.2-1.338,1.2-2.183v-1.41c0-17.749-8.242-21.766-8.242-21.766a29.512,29.512,0,0,0,5.283-17.4v-.281c0-1.619,0-4.3-1.973-4.367-.563,0-2.184-.071-2.746-.071-1.62,0-2.889.141-2.889,2.114V92.3c0,5.493-2.113,12.538-5.212,13.524-.352,0-.352-.14-.352-.422,0-2.536-.071-14.652-.071-17.047v-.776c0-1.479-.774-1.69-4.367-1.69-1.057,0-2.255.212-2.325,1.34l-.211,42.687.07,3.381c.07.281.423.7.7.7" transform="translate(-149.592 -68.166)"/>
    <path id="Trazado_211178" data-name="Trazado 211178" d="M323.211,274.416c-1.761,0-2.889,2.112-2.889,3.945a3.549,3.549,0,0,0,3.524,3.593c1.76,0,3.169-1.974,3.169-3.8,0-2.819-1.409-3.733-3.8-3.733" transform="translate(-254.223 -217.79)"/>
    <path id="Trazado_211179" data-name="Trazado 211179" d="M318.516,114.6h.845c1.762,0,2.677-.352,3.312-1.481l-.142-32.473c0-1.126-.493-1.831-1.549-1.831l-4.369.072a1.323,1.323,0,0,0-1.408.774v2.535c0,10.145.635,20.921,1.056,30.783.072,1.481,1.2,1.621,2.255,1.621" transform="translate(-250.162 -62.55)"/>
    <path id="Trazado_211180" data-name="Trazado 211180" d="M93.307,32.978c-.127-8.554.868-19.351-8.615-23.025-2.262-7.645-10.155-8.7-17.258-9.1C55.289.173,43.059.351,30.9.339,23.971.333,12.442-1.535,6.793,3.56-1.152,10.722.069,24.124.066,33.813c0,7.989.3,15.976.546,23.96C.792,63.6.159,69.86,2.51,75.333c1.2,2.792,3.743,4.383,6.527,5.295C12.7,91.6,27.867,90.245,37.763,90.34c-1.311,3.776-2.56,7.573-3.616,11.417a1.051,1.051,0,0,0,.287,1.081.97.97,0,0,0,1.445.25c3.527-2.556,6.951-5.236,10.305-8-1.679,4.736-3.321,9.494-4.656,14.333-.256.927.86,1.963,1.732,1.331A219.5,219.5,0,0,0,62.38,95.11c.793-.723,4.089-4.414,4.546-4.418,2.4-.022,4.8-.067,7.2-.121,10.31-.229,16.833-4.334,18.493-14.778,2.2-13.852.895-28.832.688-42.816M88.452,81.125c-.77-.783-1.5-1.6-2.225-2.43-1-1.14-1.928-2.478-3.042-3.539.155-.289.318-.567.459-.878a17.923,17.923,0,0,0,.8-2.167c.863,1.066,1.868,2.065,2.721,3.075.739.874,1.481,1.746,2.242,2.6.141.158.257.3.367.417a13.992,13.992,0,0,1-1.17,3.079c-.05-.052-.089-.095-.151-.158m2.357-58.352a39.119,39.119,0,0,1,.346,4.222c-.435-.447-.882-.859-1.233-1.22-1.288-1.322-2.38-3.175-3.78-4.466q-.078-2.214-.283-4.39c.748,1.029,1.778,1.96,2.506,2.829a34.676,34.676,0,0,0,2.445,3.024M86.064,40.719c.731.921,1.625,1.778,2.293,2.594.762.928,1.481,1.886,2.171,2.87a9.435,9.435,0,0,0,.682.942q.063,2.537.113,5.091c-.814-1-1.719-1.951-2.449-2.918a41.665,41.665,0,0,0-2.807-3.753q0-2.413,0-4.826m5.084,3.987c-.542-.653-1.144-1.258-1.554-1.742a24.5,24.5,0,0,0-3.534-3.9c0-.31,0-.621,0-.931,0-1.035.006-2.086.021-3.147.708.957,1.506,1.871,2.2,2.74.714.892,1.467,1.753,2.188,2.639a8.424,8.424,0,0,1,.6.877q.037,1.724.078,3.461m-4.971-21.82a24.742,24.742,0,0,0,2.217,2.72c.692.747,1.42,1.459,2.1,2.213a8.749,8.749,0,0,1,.689.9c.006,1.461-.028,2.91-.069,4.3-.59-.707-1.287-1.353-1.72-1.834-.912-1.013-1.939-2.886-3.2-3.853q.022-2.221-.023-4.445m2.045,52.067a38.15,38.15,0,0,0-3.5-3.817,31.213,31.213,0,0,0,.791-4.869c.09.117.176.23.251.34.737,1.074,1.547,2.1,2.33,3.14.716.951,1.429,1.9,2.116,2.878.13.185.248.388.37.586-.13,1.1-.274,2.195-.447,3.283-.015.095-.036.181-.052.274-.624-.675-1.4-1.3-1.861-1.815m1.1-5.528q-1.224-1.542-2.455-3.079a16.065,16.065,0,0,0-1.229-1.592c.1-1.512.145-3.014.2-4.461.592.935,1.286,1.83,1.887,2.631a35.689,35.689,0,0,0,3.4,4.225q-.119,1.99-.311,3.961c-.563-.664-1.167-1.276-1.491-1.685m-.271-6.619c-1.038-1.229-1.924-3.093-3.169-4.3q.073-2.412.116-4.824c.661.951,1.434,1.858,2.081,2.669.731.919,1.5,1.807,2.248,2.708.384.461.689.971,1.031,1.44q-.034,2.349-.135,4.687c-.709-.826-1.511-1.6-2.172-2.383m.61-6.088c-1.172-1.325-2.246-3.3-3.642-4.607q.031-2.479.044-4.958c.72,1.152,1.633,2.233,2.387,3.243a29.426,29.426,0,0,0,2.9,3.661q.029,2.239.022,4.477c-.6-.671-1.248-1.29-1.713-1.815m.236-18.706c-1.193-1.337-2.347-3.311-3.791-4.6.029-1.578.06-3.17.083-4.776l.037.045c.6.792,1.154,1.621,1.772,2.4.773.976,1.6,1.908,2.341,2.909.276.374.472.762.72,1.1-.029,1.053-.05,2.058-.039,2.976,0,.38.011.761.017,1.142-.415-.439-.825-.847-1.14-1.2m.571-17.15c-.491-.583-.968-1.176-1.45-1.763a26.849,26.849,0,0,0-3.323-3.654c-.1-.878-.235-1.746-.383-2.606,2.9,1.648,4.4,4.584,5.157,8.023M3.913,72.429c-1.589-4.816-.83-11.018-.987-16.057-.215-6.968-.433-13.933-.5-20.9C2.328,23.81.418,3.023,16.913,2.751c10.246-.168,20.5-.067,30.75.026,5.6.051,11.2.134,16.8.314,5.215.168,11.921-.134,15.935,3.784,3.322,3.243,3.007,9.3,3.082,13.528q.129,7.249.193,14.5c.057,6.789.043,13.58-.077,20.368-.114,6.458.3,13.82-2.912,19.651-2.627,4.774-9.1,5.49-13.944,5.625-3.364.095-7.031-.872-9.54,1.582A198.708,198.708,0,0,1,37.421,99c.94-3.106,1.968-6.188,3.046-9.255a1.117,1.117,0,0,0,.061-.176c.882-2.5,1.78-5,2.677-7.489a1.187,1.187,0,0,0-1.136-1.493c-7.812-.137-15.615-.379-23.413-.879-5.942-.38-12.591-.751-14.743-7.277m72.43,14.508c-.481-.888-.9-1.812-1.337-2.721A16.8,16.8,0,0,0,73.8,81.975a18.83,18.83,0,0,0,3.114-1.064,25.823,25.823,0,0,0,1.763,3.267,19.175,19.175,0,0,0,1.778,3.066,26.709,26.709,0,0,1-3.55.664c-.157-.319-.373-.622-.562-.971m3.267-3.3a25.788,25.788,0,0,0-1.713-3.2,13.337,13.337,0,0,0,2.27-1.523,27.438,27.438,0,0,0,2.556,3.172c.651.859,1.258,1.749,1.829,2.663.144.229.245.419.348.589a14.092,14.092,0,0,1-3.218,1.539c-.574-1.115-1.49-2.194-2.071-3.243M69.8,85.266a32.907,32.907,0,0,0,1.362,3.006c-.812.018-1.625.03-2.432.039-.429-.877-1.118-1.709-1.563-2.477-.524-.908-.906-1.99-1.465-2.917,1-.033,2.006-.085,3-.166.288.87.74,1.723,1.093,2.515M62.571,91.5c-.785-1.255-1.639-2.461-2.472-3.691a19.623,19.623,0,0,0-2.16-3.117c.12-.115.242-.227.362-.341a3.963,3.963,0,0,1,2.33-1.326,12.558,12.558,0,0,0,1.638,2.736,41.374,41.374,0,0,1,2.3,3.816,17.927,17.927,0,0,0-2,1.923m-7.048,6.56a32.805,32.805,0,0,0-2.213-3.549c-.735-1.125-1.332-2.51-2.082-3.7.524-.457,1.055-.906,1.576-1.368.307-.273.608-.555.914-.83.565,1.144,1.44,2.268,2,3.277.691,1.236,1.269,2.87,2.116,4.136-.768.683-1.536,1.367-2.314,2.038m-5.7,4.725A18.239,18.239,0,0,0,47.4,98.744c.3-.879.606-1.757.915-2.632.37.721.815,1.414,1.125,2.01.461.888.906,1.785,1.324,2.694.194.42.261.7.373.92-.435.353-.88.7-1.317,1.047M47.2,104.866c-.285-.468-.568-.936-.867-1.4-.107-.164-.225-.349-.35-.531.326-.987.65-1.975.987-2.958.587,1.2,1.275,2.372,1.894,3.562-.556.44-1.1.889-1.664,1.323m-1.583-.81c.271.469.54.935.815,1.4-.54.412-1.089.812-1.633,1.221.266-.875.537-1.748.818-2.619M50.7,98.092a36.024,36.024,0,0,0-1.828-3.53q.437-1.233.875-2.465c.184-.158.366-.319.549-.477a20.1,20.1,0,0,0,1.6,2.939c.863,1.444,1.653,2.979,2.523,4.433-.773.656-1.541,1.316-2.323,1.96a12.494,12.494,0,0,0-1.4-2.859m-12.38-10.1a23.118,23.118,0,0,0-1.892-3.9,14.455,14.455,0,0,0-.755-1.253q2.372.041,4.735.078-.915,2.534-1.816,5.077l-.272,0M19.089,82.141a31.205,31.205,0,0,0,2.457,3.448c.4.591.782,1.26,1.195,1.9A25.3,25.3,0,0,1,18.7,86.55a13.793,13.793,0,0,0-2.039-2.985c-.352-.492-.686-1.173-1.1-1.758q1.76.19,3.526.334m2.917,2.5c-.5-.7-1.036-1.624-1.671-2.392q1.993.145,3.995.245A13.121,13.121,0,0,0,26.1,85.514c.443.713.833,1.609,1.288,2.429-1.061-.052-2.12-.13-3.161-.249-.638-1.085-1.542-2.115-2.217-3.056m-10.116-3.3c.486.088.969.162,1.444.222.367.046.738.079,1.106.123a19.537,19.537,0,0,0,1.44,2.338c.437.677.926,1.323,1.39,1.984l.011.016a10.5,10.5,0,0,1-5.39-4.684m16.828,6.657a20.481,20.481,0,0,0-1.542-2.5,28.349,28.349,0,0,0-1.836-2.962q1.94.09,3.882.15a13.834,13.834,0,0,0,1.9,2.819c.555.82,1.055,1.666,1.545,2.524-1.284.009-2.609,0-3.947-.034m5.212.024a19.966,19.966,0,0,0-2-2.988c-.463-.653-.943-1.294-1.417-1.939-.091-.123-.169-.249-.248-.374q2.09.059,4.178.1c.32.626.823,1.234,1.119,1.779.6,1.093,1.027,2.283,1.591,3.392-1.016,0-2.1.019-3.224.031m26.783,5.425c-.58.537-1.179,1.054-1.765,1.582-.521-1.1-1.277-2.162-1.848-3.15a22.655,22.655,0,0,0-2.524-4.049q1.39-1.273,2.76-2.568a67.564,67.564,0,0,0,4.278,7.277c-.3.323-.6.631-.9.906m4.839-4.529a25.209,25.209,0,0,0-2.338-3.708c-.508-.694-.988-1.524-1.553-2.239.482,0,1.053.016,1.775,0q.65-.011,1.306-.027c.379,1,.911,1.979,1.359,2.92.358.752.772,1.651,1.252,2.481a4.458,4.458,0,0,0-1.8.566m7.065-.687c-.456-1.036-1.108-2.04-1.568-3.045-.357-.777-.7-1.724-1.172-2.541.95-.1,1.887-.24,2.806-.423.076.115.154.23.23.353a28.12,28.12,0,0,1,1.358,2.661,25.2,25.2,0,0,0,1.288,2.815c-.967.086-1.952.142-2.941.178m13.23-3.582a14.857,14.857,0,0,0-2.21-3.092,17.916,17.916,0,0,0-2.7-3.342,12.637,12.637,0,0,0,1.758-2.2,32.158,32.158,0,0,0,2.74,3.482c.656.79,1.523,2.237,2.556,2.8a10.767,10.767,0,0,1-2.142,2.35" transform="translate(0 0)"/>
    <path id="Trazado_211181" data-name="Trazado 211181" d="M35.614,28.347c4.281-2.172,9.683-1.067,14.255-2.076a.287.287,0,0,0,0-.551c-10.677-2.993-21.812,1.41-21.681,13.7a.185.185,0,0,0,.343.093c2.043-4.127,2.614-8.9,7.083-11.166" transform="translate(-22.37 -19.695)"/>
    <path id="Trazado_211182" data-name="Trazado 211182" d="M144.692,26.884c.747,0,1.416.021,1.911-.6a.236.236,0,0,0-.046-.362,2.571,2.571,0,0,0-1.865-.215,2.381,2.381,0,0,0-1.585.421.27.27,0,0,0,0,.378,2.144,2.144,0,0,0,1.585.381" transform="translate(-113.516 -20.346)"/>
    <path id="Trazado_211183" data-name="Trazado 211183" d="M323.181,339.2c3.67-1.482,4.782-4.8,4.276-8.464-.038-.273-.425-.216-.5,0-1.089,3.277-2.445,6.078-5.972,7.025-2.741.736-6.021.119-8.574,1.4a.111.111,0,0,0,0,.191c2.969,1.505,7.751,1.068,10.768-.151" transform="translate(-247.903 -262.344)"/>
    <path id="Trazado_211184" data-name="Trazado 211184" d="M385.717,303.155c1.7-.966,1.506-3.777.327-5.024a.28.28,0,0,0-.472.2c-.1.869-.2,1.719-.268,2.592a3.817,3.817,0,0,0,.236,2.19.133.133,0,0,0,.177.046" transform="translate(-305.757 -236.543)"/>
  </g>
</svg>
