<svg id="Grupo_984310" data-name="Grupo 984310" xmlns="http://www.w3.org/2000/svg" xmlns:xlink="http://www.w3.org/1999/xlink" width="81.161" height="63.98" viewBox="0 0 81.161 63.98">
  <defs>
    <clipPath id="clip-path">
      <rect id="Rectángulo_338802" data-name="Rectángulo 338802" width="81.161" height="63.98" fill="none"/>
    </clipPath>
  </defs>
  <g id="Grupo_983785" data-name="Grupo 983785" transform="translate(0 0)" clip-path="url(#clip-path)">
    <path id="Trazado_211117" data-name="Trazado 211117" d="M12.6,48.906q-.169.128-.33.267a4.652,4.652,0,0,0,.378.67,3.46,3.46,0,0,0,.466.552,3.129,3.129,0,0,0,2.32.824Z" transform="translate(-3.964 -15.802)"/>
    <path id="Trazado_211118" data-name="Trazado 211118" d="M12.758,48.906l2.833,2.314L12.759,48.9Z" transform="translate(-4.122 -15.801)"/>
    <path id="Trazado_211119" data-name="Trazado 211119" d="M11.68,48.535a1.334,1.334,0,0,0,.32.211c.108-.092.218-.181.331-.267-.183-.309-.224-.747-.618-.865a.758.758,0,0,0-.187-.028.778.778,0,0,0,.154.949" transform="translate(-3.695 -15.375)"/>
    <path id="Trazado_211120" data-name="Trazado 211120" d="M12.463,48.493h0c-.184-.308-.224-.746-.618-.864.394.118.434.556.617.864" transform="translate(-3.827 -15.389)"/>
    <path id="Trazado_211121" data-name="Trazado 211121" d="M11.568,47.581l0-.011-.008.01h0" transform="translate(-3.736 -15.37)"/>
    <path id="Trazado_211122" data-name="Trazado 211122" d="M11.328,47.357l-.356-.458c-.043.071-.132.15-.122.212.047.286.223.356.478.246" transform="translate(-3.505 -15.153)"/>
    <path id="Trazado_211123" data-name="Trazado 211123" d="M11.569,47.57l-.014,0,.005.006Z" transform="translate(-3.733 -15.37)"/>
    <path id="Trazado_211124" data-name="Trazado 211124" d="M19.631,34.528A3.384,3.384,0,0,0,23,31.128a3.627,3.627,0,0,0-3.326-3.613c-1.919.083-3.315.978-3.489,3.092a3.486,3.486,0,0,0,3.443,3.921M19.6,29.839a1.186,1.186,0,0,1,.223.012,1.039,1.039,0,0,1,.819,1.019,2.091,2.091,0,0,1-.007.271,1.02,1.02,0,0,1-.48.842,1.128,1.128,0,0,1-.33.125,1.684,1.684,0,0,1-.268.034c-.678.034-.961-.457-1.023-1.035A1.037,1.037,0,0,1,19.6,29.839" transform="translate(-5.226 -8.889)"/>
    <path id="Trazado_211125" data-name="Trazado 211125" d="M85.827,85.472c-5.766.079-11.247.665-16.543,0,4.836,1.869,12.8,1.975,16.543,0" transform="translate(-22.386 -27.616)"/>
    <path id="Trazado_211126" data-name="Trazado 211126" d="M20.676,33.251a1.625,1.625,0,0,0,.269-.035,1.127,1.127,0,0,0,.33-.124,1.022,1.022,0,0,0,.479-.842,1.943,1.943,0,0,0,.007-.269,1.039,1.039,0,0,0-.819-1.021,1.129,1.129,0,0,0-.223-.012,1.037,1.037,0,0,0-1.066,1.268c.062.577.347,1.068,1.023,1.035" transform="translate(-6.346 -9.999)" fill="#fff"/>
    <path id="Trazado_211127" data-name="Trazado 211127" d="M22.052,33.715a1.02,1.02,0,0,0,.48-.842,1.023,1.023,0,0,1-.48.842" transform="translate(-7.125 -10.621)" fill="#fff"/>
    <path id="Trazado_211128" data-name="Trazado 211128" d="M21.895,34.117a1.128,1.128,0,0,1-.33.125,1.128,1.128,0,0,0,.33-.125" transform="translate(-6.968 -11.023)" fill="#fff"/>
    <path id="Trazado_211129" data-name="Trazado 211129" d="M52.063,11.8C49.092,8.289,39.7,5.821,36.911,7.887c5.113.63,10.267.952,14.523,4.279l.629-.363" transform="translate(-11.926 -2.305)"/>
    <path id="Trazado_211130" data-name="Trazado 211130" d="M10.815,40.443a2.894,2.894,0,0,1,1.916,2.784,11.116,11.116,0,0,0,11.4,10.625c1.007-.013,2.354.353,2.974-.733.676-1.187-.8-1.568-1.272-2.337-1.379-2.262-2.241-4.826-1.327-7.262.684-1.825,3.124-.61,4.654-1.256a1.908,1.908,0,0,1,.27-.04c2.113-.519,2.876.041,3.1,2.473.962,10.287,6.393,17.216,16.5,18.8,1.978.31,3.993.384,5.073.484A48.293,48.293,0,0,0,70.56,61.074,14.361,14.361,0,0,0,75.8,57.686c4.283-4.283,5.515-9.82,5.352-15.421-.222-7.637-2.326-14.759-10.154-18.294-2.052-.927-2.97-1.916-3.269-4.247A11.964,11.964,0,0,0,55.013,9.681c-.954.1-1.855.284-2.269,1.2-.387.85.417,1.279.914,1.778,1.862,1.866,2.062,4.179,1.754,6.613-.305,2.416-2.286,2.377-3.946,2.389-1.512.01-2.385-.7-2.5-2.628C48.414,9.812,43.866,3.84,36.04,1.7A50.77,50.77,0,0,0,27.982.219a40.685,40.685,0,0,0-14.22,1.056C9.217,2.385,3.51,6.078,1.882,10.3A27.414,27.414,0,0,0,.713,26.521c1.361,6.089,4.465,10.974,10.1,13.922M51.257,23.387c1.788-.236,4.06.975,5.329-.955,1.587-2.412,1.415-5.186.786-7.937-.177-.77-.912-1.386-.646-2.276,5.105.446,9.143,4.442,9.017,9.479-.058,2.337.863,3.06,2.751,3.845,7.079,2.944,9.92,8.784,10.348,16.047.408,6.935-1.452,12.914-7.871,16.584a26.567,26.567,0,0,1-12.63,3.167,56.236,56.236,0,0,1-8.486-.216A17.685,17.685,0,0,1,34.57,42.694a1.5,1.5,0,0,1,1.357-1.653c7.947-2.1,12.064-7.481,12.943-15.47.18-1.637.852-1.981,2.387-2.184M2.6,17.1C3.665,8.5,7.618,4.2,16.264,2.795A46.006,46.006,0,0,1,35.758,4.038c7.1,1.915,9.516,7.484,10.816,13.784a21.325,21.325,0,0,1-1.428,12.621c-1.639,3.966-4.581,6.26-8.39,8.128-3.856,1.891-7.805,1.449-11.739,1.688-1.72.1-2.421.726-2.777,2.277a12.9,12.9,0,0,0,1.227,8.741,8.45,8.45,0,0,1-8.477-9.139c.093-1.94-.53-2.625-2.188-3.356C5.817,35.7,3.177,29.709,2.517,22.574A25.618,25.618,0,0,1,2.6,17.1" transform="translate(0 0)"/>
    <path id="Trazado_211131" data-name="Trazado 211131" d="M13.953,39.86c1.658.731,2.281,1.417,2.188,3.356a8.451,8.451,0,0,0,8.477,9.139,12.9,12.9,0,0,1-1.227-8.741c.355-1.551,1.057-2.172,2.777-2.276,3.934-.24,7.884.2,11.739-1.687,3.808-1.869,6.751-4.163,8.39-8.129A21.33,21.33,0,0,0,47.724,18.9C46.425,12.6,44,7.032,36.908,5.117A46.013,46.013,0,0,0,17.414,3.874c-8.647,1.4-12.6,5.709-13.668,14.3a25.53,25.53,0,0,0-.08,5.475c.659,7.135,3.3,13.126,10.286,16.207M32.7,22.843a3.217,3.217,0,0,1,3.691-3.125c2.179.1,3.248,1.523,3.14,3.622a3.285,3.285,0,0,1-3.33,3.375,3.573,3.573,0,0,1-3.5-3.872m9.1,11.5h0l.059-.042.093.029-.147.014-.012.01A7.779,7.779,0,0,1,39.75,36.8a7.985,7.985,0,0,1-3.239,1.462,11.558,11.558,0,0,1-1.625.229c2.137-1.656,4.87-2.318,6.912-4.134l.007-.012m-.518-23.769c.112.315.2.653-.181.814-.073.031-.294-.292-.447-.451C36.4,7.614,31.247,7.291,26.135,6.661c2.787-2.065,12.181.4,15.152,3.916M25.8,19.685a3.243,3.243,0,0,1,3.431,3.4c-.136,1.826-.72,3.443-3.079,3.114-1.993-.027-3.806-1.614-3.7-3.292A3.21,3.21,0,0,1,25.8,19.685M12.112,22.8c.174-2.114,1.57-3.009,3.489-3.092a3.628,3.628,0,0,1,3.326,3.613,3.385,3.385,0,0,1-3.372,3.4A3.485,3.485,0,0,1,12.112,22.8m-3.5,10.028.356.458.014,0,0,.011a.758.758,0,0,1,.187.028c.394.118.435.556.618.864h0L12.618,36.5a3.128,3.128,0,0,1-2.319-.824,3.458,3.458,0,0,1-.466-.552,4.624,4.624,0,0,1-.378-.671,1.334,1.334,0,0,1-.32-.211.778.778,0,0,1-.154-.949h0l0-.007c-.255.11-.431.04-.478-.246-.01-.062.079-.141.122-.213" transform="translate(-1.149 -1.079)" fill="#fcfcfc"/>
    <path id="Trazado_211132" data-name="Trazado 211132" d="M60.06,49.147h0l-.007.012,0,0,.005-.009" transform="translate(-19.403 -15.879)" fill="#fcfcfc"/>
    <path id="Trazado_211133" data-name="Trazado 211133" d="M52.42,46.875a1.5,1.5,0,0,0-1.358,1.653A17.686,17.686,0,0,0,66.347,66.959a56.228,56.228,0,0,0,8.486.216,26.57,26.57,0,0,0,12.63-3.167c6.418-3.669,8.279-9.649,7.87-16.583-.428-7.264-3.268-13.1-10.348-16.048-1.887-.785-2.808-1.509-2.75-3.846.125-5.036-3.912-9.032-9.018-9.478-.265.89.47,1.505.646,2.275.63,2.751.8,5.524-.786,7.937-1.269,1.93-3.54.72-5.329.955-1.534.2-2.207.546-2.387,2.183-.879,7.99-4.995,13.373-12.942,15.471M86.058,35.3l.195.195-.148.269c3.717,1.319,6.072,5.134,6.129,9.8-1.927-3.553-3.443-6.753-6.141-9.775l-.034.062c-.061-.061-.182-.135-.172-.18a1.727,1.727,0,0,1,.172-.368m-2.68,10.2c2.245-.135,3.294,1.2,3.637,3.311-.244,1.977-1.056,3.521-3.324,3.6-2.224.08-3.39-1.2-3.527-3.332-.142-2.2,1.035-3.452,3.214-3.582M69.772,48.714a3.2,3.2,0,0,1,3.384-3.228c2.031-.086,3.46,1.342,3.458,3.683a3.21,3.21,0,0,1-3.35,3.248,3.364,3.364,0,0,1-3.492-3.7M79.934,63.688c-3.742,1.977-11.706,1.87-16.543,0,5.3.663,10.777.079,16.543,0M66.227,49.215a3.123,3.123,0,0,1-3.19,3.2,3.438,3.438,0,0,1-3.586-3.587c.116-2.162,2.034-2.647,3.526-3.137,1.461-.481,3.22,1.573,3.25,3.52" transform="translate(-16.492 -5.833)" fill="#fcfcfc"/>
    <path id="Trazado_211134" data-name="Trazado 211134" d="M53.433,31.155c.108-2.1-.961-3.518-3.14-3.622A3.217,3.217,0,0,0,46.6,30.658a3.573,3.573,0,0,0,3.5,3.872,3.285,3.285,0,0,0,3.33-3.375M48.9,31.071a1.031,1.031,0,0,1-.018-.261c.035-.564.579-.824,1.1-1.028a1.536,1.536,0,0,1,.493.138,1.138,1.138,0,0,1,.642.862,1.531,1.531,0,0,1,.021.24,1.135,1.135,0,0,1-.971,1.125c-.8.138-1.159-.471-1.271-1.076" transform="translate(-15.051 -8.894)"/>
    <path id="Trazado_211135" data-name="Trazado 211135" d="M35.164,33.993c2.36.329,2.942-1.287,3.079-3.114a3.389,3.389,0,0,0-6.774-.179c-.11,1.678,1.7,3.265,3.7,3.292m-.7-4.277a1.862,1.862,0,0,1,.283.005,1.284,1.284,0,0,1,1.035.661,1.83,1.83,0,0,1,.195.549,1.314,1.314,0,0,1-.925,1.2,2.207,2.207,0,0,1-.24.07c-.9.207-1.088-.44-1.133-1.072-.042-.592-.081-1.365.785-1.412" transform="translate(-10.166 -8.877)"/>
    <path id="Trazado_211136" data-name="Trazado 211136" d="M51.465,53.07A7.989,7.989,0,0,0,54.7,51.608a7.767,7.767,0,0,0,2.048-2.443c-2.042,1.817-4.775,2.478-6.912,4.134a11.568,11.568,0,0,0,1.626-.229" transform="translate(-16.103 -15.885)"/>
    <path id="Trazado_211137" data-name="Trazado 211137" d="M57.026,51.607a7.779,7.779,0,0,0,2.051-2.446l0,0a7.767,7.767,0,0,1-2.048,2.443" transform="translate(-18.425 -15.884)"/>
    <path id="Trazado_211138" data-name="Trazado 211138" d="M60.072,49.145h0" transform="translate(-19.407 -15.879)"/>
    <path id="Trazado_211139" data-name="Trazado 211139" d="M60.066,49.124h0l.059-.041Z" transform="translate(-19.408 -15.859)"/>
    <path id="Trazado_211140" data-name="Trazado 211140" d="M60.068,49.146h-.007l-.005.009.012-.01" transform="translate(-19.404 -15.879)"/>
    <path id="Trazado_211141" data-name="Trazado 211141" d="M60.222,49.111l-.093-.029c-.016.016-.035.027-.052.043l.146-.014" transform="translate(-19.411 -15.858)"/>
    <path id="Trazado_211142" data-name="Trazado 211142" d="M60.064,49.145h0" transform="translate(-19.407 -15.878)"/>
    <path id="Trazado_211143" data-name="Trazado 211143" d="M60.125,49.082l-.059.042h.007c.017-.015.035-.027.052-.042" transform="translate(-19.407 -15.858)"/>
    <path id="Trazado_211144" data-name="Trazado 211144" d="M58.814,14.847c.383-.161.294-.5.181-.814l-.63.362c.154.159.375.483.448.451" transform="translate(-18.858 -4.534)"/>
    <path id="Trazado_211145" data-name="Trazado 211145" d="M82.2,65.509a3.21,3.21,0,0,0,3.351-3.247c0-2.341-1.427-3.77-3.458-3.684a3.2,3.2,0,0,0-3.384,3.228,3.363,3.363,0,0,0,3.491,3.7m.025-4.589c.634,0,.931.441.993,1.088-.056.678-.355,1.178-1.152,1.134a1.033,1.033,0,0,1-.984-1.076c-.079-.813.437-1.147,1.143-1.147" transform="translate(-25.427 -18.926)"/>
    <path id="Trazado_211146" data-name="Trazado 211146" d="M97.586,65.5c2.268-.082,3.079-1.625,3.324-3.6-.343-2.111-1.392-3.447-3.637-3.312-2.179.131-3.355,1.378-3.213,3.583.137,2.127,1.3,3.411,3.527,3.331m-.1-4.6a1.127,1.127,0,0,1-.192,2.243c-.669-.023-.906-.537-.938-1.1-.045-.786.474-1.078,1.13-1.145" transform="translate(-30.387 -18.927)"/>
    <path id="Trazado_211147" data-name="Trazado 211147" d="M63.462,61.993a3.439,3.439,0,0,0,3.586,3.588,3.123,3.123,0,0,0,3.19-3.205c-.03-1.947-1.789-4-3.25-3.52-1.492.491-3.41.975-3.527,3.137M66.842,61c.819-.074,1.066.483,1.158,1.139-.13.6-.363,1.061-1.035,1.063-.793,0-1.129-.509-1.16-1.2-.03-.661.459-.946,1.036-1" transform="translate(-20.503 -18.993)"/>
    <path id="Trazado_211148" data-name="Trazado 211148" d="M108.963,54.013c-.056-4.664-2.412-8.479-6.129-9.8l-.013.024c2.7,3.022,4.214,6.221,6.141,9.775" transform="translate(-33.222 -14.286)"/>
    <path id="Trazado_211149" data-name="Trazado 211149" d="M102.69,44.078l.034-.062c-.012-.014-.023-.029-.036-.043l.049.02.148-.268-.2-.2a1.7,1.7,0,0,0-.171.369c-.01.045.11.119.171.18" transform="translate(-33.124 -14.064)"/>
    <path id="Trazado_211150" data-name="Trazado 211150" d="M102.8,44.228l.013-.024c-.017-.005-.033-.014-.049-.02.013.014.024.029.037.043" transform="translate(-33.205 -14.276)"/>
    <path id="Trazado_211151" data-name="Trazado 211151" d="M52.245,32.1a1.53,1.53,0,0,0-.022-.24A1.14,1.14,0,0,0,51.581,31a1.555,1.555,0,0,0-.489-.136c-.527.2-1.072.463-1.107,1.027a1.066,1.066,0,0,0,.018.261c.112.6.474,1.214,1.271,1.076a1.136,1.136,0,0,0,.971-1.125" transform="translate(-16.15 -9.971)" fill="#fff"/>
    <path id="Trazado_211152" data-name="Trazado 211152" d="M52.986,31.924a1.139,1.139,0,0,0-.642-.862,1.14,1.14,0,0,1,.642.862" transform="translate(-16.913 -10.036)" fill="#fff"/>
    <path id="Trazado_211153" data-name="Trazado 211153" d="M35.87,33.268a2.2,2.2,0,0,0,.24-.07,1.31,1.31,0,0,0,.923-1.2,1.821,1.821,0,0,0-.193-.546A1.286,1.286,0,0,0,35.8,30.79a1.863,1.863,0,0,0-.283-.005c-.866.047-.826.82-.785,1.412.045.632.236,1.278,1.133,1.072" transform="translate(-11.218 -9.945)" fill="#fff"/>
    <path id="Trazado_211154" data-name="Trazado 211154" d="M36.773,33.518a1.312,1.312,0,0,0,.924-1.2,1.787,1.787,0,0,0-.195-.549,1.79,1.79,0,0,1,.194.546,1.31,1.31,0,0,1-.923,1.2" transform="translate(-11.882 -10.265)" fill="#fff"/>
    <path id="Trazado_211155" data-name="Trazado 211155" d="M83.2,64.263c.8.044,1.1-.457,1.152-1.134-.061-.648-.359-1.089-.993-1.088-.707,0-1.222.334-1.143,1.147a1.033,1.033,0,0,0,.984,1.076" transform="translate(-26.561 -20.045)" fill="#fff"/>
    <path id="Trazado_211156" data-name="Trazado 211156" d="M98.4,64.252a1.127,1.127,0,0,0,.192-2.243c-.655.066-1.174.359-1.129,1.145.032.561.269,1.076.938,1.1" transform="translate(-31.49 -20.035)" fill="#fff"/>
    <path id="Trazado_211157" data-name="Trazado 211157" d="M68.086,64.258c.671,0,.9-.466,1.035-1.063-.092-.656-.339-1.213-1.159-1.139-.578.052-1.066.338-1.037,1,.031.694.367,1.206,1.161,1.2" transform="translate(-21.624 -20.048)" fill="#fff"/>
  </g>
</svg>
