<svg xmlns="http://www.w3.org/2000/svg" xmlns:xlink="http://www.w3.org/1999/xlink" width="1320" height="578.011" viewBox="0 0 1320 578.011">
  <defs>
    <clipPath id="clip-path">
      <path id="Rectangle_652" data-name="Rectangle 652" d="M1299.213,0H20.787C9.307,0,0,9.584,0,21.407V556.578c0,11.823,9.307,21.407,20.787,21.407H1299.213c11.48,0,20.787-9.584,20.787-21.407V21.407C1320,9.584,1310.693,0,1299.213,0Z" transform="translate(144.333 70)" fill="#ff5f65"/>
    </clipPath>
  </defs>
  <g id="Grupo_984439" data-name="Grupo 984439" transform="translate(-140.583 -70)">
    <g id="Grupo_165765" data-name="Grupo 165765" transform="translate(-369.417 -6583)">
      <path id="Rectangle_652-2" data-name="Rectangle 652" d="M1299.213,0H20.787C9.307,0,0,9.585,0,21.408V556.6c0,11.823,9.307,21.408,20.787,21.408H1299.213c11.48,0,20.787-9.585,20.787-21.408V21.408C1320,9.585,1310.693,0,1299.213,0Z" transform="translate(510 6653)" fill="#fc5f65"/>
    </g>
    <g id="Enmascarar_grupo_116" data-name="Enmascarar grupo 116" transform="translate(-3.75)" clip-path="url(#clip-path)">
      <g id="Grupo_165776" data-name="Grupo 165776" transform="translate(97.728 -1397.084)">
        <path id="Trazado_150634" data-name="Trazado 150634" d="M80.875,1745.305c24.035-10.062,41.667-33.224,44.487-58.44,2.432-21.745-5.173-45.035,4.193-64.935,11.163-23.721,41.931-32.291,68.825-31.324s53.619,8.612,80.352,5.6c36.005-4.049,68.66-28.967,81.154-61.926,8.155-21.512,7.47-45.794-.867-67.2H43.605V1750.6A76.73,76.73,0,0,0,80.875,1745.305Z" transform="translate(-10 0)" fill="#f54249" opacity="0.897"/>
        <path id="Trazado_150635" data-name="Trazado 150635" d="M110.5,1780.3c28.191-20.4,44.459-55.433,41.561-89.5-1.55-18.232-7.92-37.8.933-53.943,7.248-13.214,23.167-20.042,38.515-21.242s30.62,2.224,45.829,4.571c35.818,5.526,73.147,5.006,107.594-6.025s65.822-33.25,83.35-64.134c14.2-25.019,18.3-55.836,9.822-82.942H357.423c8.3,21.388,8.977,45.649.863,67.142-12.431,32.93-44.92,57.827-80.743,61.872-26.6,3-53.187-4.633-79.945-5.6s-57.371,7.6-68.477,31.3c-9.319,19.884-1.753,43.154-4.172,64.88-2.806,25.194-20.348,48.336-44.262,58.39a76.047,76.047,0,0,1-37.081,5.288v49.619C67.33,1800.887,91.43,1794.1,110.5,1780.3Z" transform="translate(-10)" fill="#fd9fa3" opacity="0.998"/>
        <path id="Trazado_150636" data-name="Trazado 150636" d="M1041.51,1936.14c-22.788,17.621-41.469,40.489-65.961,55.654-33.64,20.83-74.727,25.061-114.252,26.864s-80.074,1.879-117.076,15.892c-29.572,11.2-56.827,33.771-67.941,62.534h75.914c16.916-26.329,42.463-47.2,72.244-56.951,59.454-19.462,128.594,2.72,184.606-25.142,39.678-19.737,66.491-62.067,108.972-74.688,30.736-9.131,64.558-.5,92.076,15.959a222.085,222.085,0,0,1,33.513,25.055v-61.773C1180.479,1886.971,1098.059,1892.411,1041.51,1936.14Z" transform="translate(126.992 -48.019)" fill="#f11f2f"/>
        <path id="Trazado_150637" data-name="Trazado 150637" d="M1118.016,1940.3c-42.481,12.621-69.294,54.951-108.972,74.688-56.012,27.862-125.152,5.68-184.606,25.142-29.781,9.749-55.328,30.622-72.244,56.951H1243.6V1981.317a222.085,222.085,0,0,0-33.513-25.055C1182.574,1939.805,1148.752,1931.172,1118.016,1940.3Z" transform="translate(126.992 -48.019)" fill="#ff8489"/>
        <g id="Grupo_165770" data-name="Grupo 165770" transform="translate(-111.46 1794.921)">
          <g id="Grupo_165766" data-name="Grupo 165766" transform="translate(135.221 187.083)" style="mix-blend-mode: overlay;isolation: isolate">
            <path id="Trazado_150638" data-name="Trazado 150638" d="M265.254,256.782c-9.374,9.592-19.061,18.831-28.932,27.907,4.269-9.65,8.87-19.146,12.922-28.9,4.593-11.055,9.934-26.123,4.142-37.719-13.2-26.431-46.563-.5-58.842,12.808-1.307,1.418-2.556,2.9-3.821,4.362,4.387-10.743,8.337-21.783,7.294-33.39-1.434-15.959-16.065-19.788-28.66-12.372-13.526,7.961-24.39,21.738-33.46,34.25-7.7,10.627,9.924,20.744,17.568,10.269A138.191,138.191,0,0,1,167.2,217.935q-1.094,2-2.212,4a298.218,298.218,0,0,0-13.812,26.909c-7.689,17.742-19.061,42.3-9.387,60.966,4.876,9.4,16.308,10.36,24.915,6.533,11.57-5.144,19.584-16.5,27.31-26.111,8.064-10.035,15.168-20.691,22.633-31.162a151.663,151.663,0,0,1,9.808-12.837c.082-.093.167-.179.249-.27l-.089.282c-1.983,6.164-4.531,12.078-7.113,18.008-4.8,11.033-11,22.646-12.755,34.651-1.555,10.615,2.743,22.512,15.51,21.742,12-.724,21.621-12.284,29.645-20,9.716-9.35,19.259-18.886,28.8-28.411C290.671,262.286,275.1,246.71,265.254,256.782Z" transform="translate(-132.023 -183.893)" fill="#3c384f"/>
            <path id="Trazado_150639" data-name="Trazado 150639" d="M222.07,323.576a15.251,15.251,0,0,1-11.617-4.821c-4.043-4.4-5.79-11.574-4.675-19.183,1.453-9.92,5.78-19.423,9.963-28.61,1-2.2,1.994-4.379,2.932-6.535.889-2.045,1.825-4.193,2.753-6.414q-.852,1.188-1.687,2.362l-.553.776q-2.91,4.08-5.767,8.183c-5.372,7.666-10.926,15.594-16.934,23.069-.877,1.091-1.759,2.206-2.65,3.333-6.889,8.712-14.7,18.586-25.386,23.337-9.529,4.232-22.01,3.047-27.431-7.415-9.741-18.792.776-42.974,8.457-60.63l.872-2.008c2.259-5.216,4.792-10.308,7.479-15.376q-.934,1.217-1.833,2.451c-4.726,6.475-13,6.378-18.277,2.541-4.362-3.173-6.809-9.072-2.44-15.1,9.683-13.356,20.51-26.816,34.049-34.785,7.514-4.422,15.738-5.14,22-1.92,5.518,2.835,8.92,8.444,9.58,15.8.774,8.623-1.088,16.876-3.786,24.75,9.991-9.761,28.468-23.6,43.291-21.506,6.809.967,12.08,5.1,15.666,12.28,5.9,11.81,1.245,26.512-4.086,39.335-2.537,6.105-5.327,12.195-8.025,18.086l-.955,2.084c8.029-7.529,15.212-14.543,21.8-21.286v0a11.69,11.69,0,0,1,11.646-3.459,14.335,14.335,0,0,1,9.919,9.847,11.8,11.8,0,0,1-3.35,11.8l-1.086,1.082c-9.037,9.02-18.382,18.347-27.744,27.353-1.154,1.111-2.339,2.3-3.56,3.525-7.269,7.286-16.314,16.356-27.316,17.02C222.9,323.564,222.484,323.576,222.07,323.576Zm5.582-78.525a1.836,1.836,0,0,1,.942.251,1.893,1.893,0,0,1,.918,2.208l-.091.284c-2.078,6.463-4.788,12.691-7.179,18.185-.947,2.177-1.949,4.376-2.959,6.594-4.07,8.942-8.28,18.187-9.654,27.563-.932,6.366.482,12.492,3.691,15.987,2.379,2.591,5.664,3.765,9.775,3.531,9.525-.576,17.638-8.708,24.8-15.885,1.241-1.243,2.446-2.451,3.617-3.58,9.337-8.983,18.67-18.3,27.7-27.3l1.084-1.082a7.913,7.913,0,0,0,2.344-8.024,10.473,10.473,0,0,0-7.142-7.1,7.8,7.8,0,0,0-7.883,2.411v0c-8.516,8.71-18,17.862-29.01,27.977a1.946,1.946,0,0,1-3.1-2.22c1.613-3.648,3.274-7.273,4.936-10.9,2.683-5.86,5.459-11.919,7.969-17.96,4.994-12.012,9.4-25.7,4.2-36.1-3.021-6.055-7.187-9.38-12.734-10.166-13.819-1.957-33.254,12.93-42.937,23.425-1.033,1.117-2.027,2.276-3.023,3.436l-.753.877a1.946,1.946,0,0,1-3.274-2.006c4.177-10.234,8.171-21.172,7.156-32.483-.545-6.06-3.132-10.446-7.483-12.681-5.074-2.607-11.9-1.928-18.253,1.811-12.922,7.609-23.436,20.7-32.872,33.717-2.981,4.113-1.14,7.693,1.578,9.669,3.681,2.675,9.432,2.99,12.845-1.689a140.9,140.9,0,0,1,13.926-16.292,1.946,1.946,0,0,1,3.088,2.306q-1.1,2.014-2.224,4.02a297.643,297.643,0,0,0-13.722,26.732l-.874,2.012c-7.37,16.94-17.46,40.141-8.572,57.287,4.317,8.329,14.535,9.142,22.4,5.65,9.811-4.36,16.981-13.426,23.913-22.2.9-1.132,1.786-2.257,2.671-3.356,5.926-7.376,11.442-15.249,16.779-22.864q2.877-4.109,5.784-8.208l.553-.774a144.745,144.745,0,0,1,9.385-12.226l.173-.189A2.124,2.124,0,0,1,227.652,245.051Zm38.561,12.679h0Z" transform="translate(-132.979 -184.841)" fill="#3c384f"/>
            <path id="Trazado_150640" data-name="Trazado 150640" d="M146.7,223.755c-7.167,14.4-11.212,31.292-4.915,46.775.93,2.29,4.695,1.288,3.751-1.035-5.911-14.537-2.218-30.228,4.523-43.777C151.17,223.484,147.814,221.51,146.7,223.755Z" transform="translate(-127.607 -148.98)" fill="#3c384f"/>
            <path id="Trazado_150641" data-name="Trazado 150641" d="M148.734,249.5c-.033,0-.064-.014-.1-.019-.054-.105-.1-.22-.121-.251l-.01-.012c0-.016,0,0,0-.027-.251-.87-.43-1.749-.621-2.634q-.66-3.079-1.321-6.158a1.959,1.959,0,0,0-2.393-1.358,1.991,1.991,0,0,0-1.36,2.393q.747,3.482,1.5,6.965c.414,1.932,1.078,4.467,3.393,4.854a1.993,1.993,0,0,0,2.393-1.36A1.968,1.968,0,0,0,148.734,249.5Z" transform="translate(-123.734 -133.662)" fill="#3c384f"/>
            <path id="Trazado_150642" data-name="Trazado 150642" d="M192.631,201.843c-2.208-1.179-4.175,2.179-1.963,3.36,3.055,1.63,3.986,4.95,4.107,8.21a56.269,56.269,0,0,1-.877,11.154,74.026,74.026,0,0,1-6.753,20.9c-1.111,2.235,2.243,4.208,3.36,1.963a77.863,77.863,0,0,0,7.553-24.613C198.973,215.8,200.07,205.814,192.631,201.843Z" transform="translate(-81.973 -168.997)" fill="#3c384f"/>
          </g>
          <g id="Grupo_165769" data-name="Grupo 165769" transform="translate(130.608 182.47)">
            <g id="Grupo_165768" data-name="Grupo 165768">
              <g id="Grupo_165767" data-name="Grupo 165767">
                <path id="Trazado_150643" data-name="Trazado 150643" d="M262.884,254.411c-9.374,9.592-19.061,18.831-28.934,27.905,4.269-9.648,8.872-19.146,12.924-28.9,4.594-11.055,9.932-26.123,4.142-37.719-13.2-26.43-46.563-.5-58.842,12.808-1.309,1.416-2.556,2.9-3.821,4.362,4.385-10.743,8.335-21.783,7.294-33.39-1.434-15.959-16.065-19.788-28.66-12.374-13.528,7.963-24.39,21.74-33.462,34.252-7.7,10.627,9.926,20.744,17.57,10.269a138.366,138.366,0,0,1,13.732-16.066q-1.094,2-2.21,4a298.444,298.444,0,0,0-13.812,26.907c-7.691,17.744-19.061,42.3-9.387,60.968,4.876,9.4,16.306,10.36,24.915,6.533,11.57-5.144,19.584-16.5,27.31-26.111,8.064-10.035,15.166-20.691,22.631-31.162a152.837,152.837,0,0,1,9.808-12.839c.082-.091.169-.177.251-.27l-.089.284c-1.983,6.164-4.533,12.078-7.113,18.008-4.8,11.031-11,22.644-12.755,34.651-1.556,10.615,2.743,22.512,15.51,21.742,12-.724,21.619-12.284,29.643-20,9.718-9.35,19.261-18.888,28.806-28.413C288.3,259.915,272.729,244.339,262.884,254.411Z" transform="translate(-129.653 -181.522)" fill="#febfc1"/>
                <path id="Trazado_150644" data-name="Trazado 150644" d="M219.7,321.2a15.246,15.246,0,0,1-11.615-4.819c-4.043-4.4-5.79-11.574-4.675-19.185,1.451-9.918,5.778-19.421,9.963-28.61,1-2.2,1.992-4.378,2.932-6.533.889-2.045,1.825-4.193,2.753-6.415-.568.79-1.13,1.58-1.687,2.362l-.553.774c-1.94,2.72-3.854,5.453-5.769,8.183-5.37,7.667-10.924,15.6-16.932,23.069q-1.316,1.64-2.65,3.335c-6.889,8.71-14.7,18.584-25.386,23.337-9.531,4.232-22.01,3.045-27.431-7.417-9.741-18.79.776-42.972,8.455-60.63l.874-2.006c2.259-5.216,4.792-10.308,7.477-15.376q-.931,1.217-1.833,2.449c-4.724,6.477-13,6.38-18.275,2.543-4.362-3.173-6.809-9.072-2.44-15.1,9.683-13.356,20.51-26.816,34.047-34.787,7.516-4.42,15.738-5.138,22.006-1.918,5.518,2.835,8.918,8.442,9.58,15.794.774,8.623-1.088,16.878-3.788,24.75,9.992-9.759,28.468-23.6,43.291-21.5,6.809.967,12.082,5.1,15.668,12.28,5.9,11.81,1.243,26.51-4.086,39.335-2.537,6.1-5.327,12.195-8.025,18.084l-.955,2.084c8.029-7.527,15.212-14.541,21.8-21.284h0a11.689,11.689,0,0,1,11.646-3.457,14.329,14.329,0,0,1,9.917,9.847,11.787,11.787,0,0,1-3.348,11.8l-1.086,1.084c-9.037,9.02-18.382,18.345-27.744,27.353-1.154,1.111-2.339,2.3-3.562,3.525-7.267,7.286-16.312,16.356-27.314,17.02C220.532,321.191,220.113,321.2,219.7,321.2Zm5.582-78.525a1.834,1.834,0,0,1,.942.253,1.891,1.891,0,0,1,.92,2.208l-.091.284c-2.078,6.461-4.788,12.691-7.179,18.185-.947,2.175-1.949,4.374-2.959,6.594-4.072,8.942-8.282,18.187-9.656,27.561-.932,6.366.483,12.492,3.693,15.989,2.377,2.59,5.664,3.765,9.775,3.531,9.525-.576,17.638-8.708,24.794-15.886,1.241-1.245,2.447-2.453,3.619-3.58,9.337-8.983,18.67-18.3,27.7-27.3l1.084-1.084a7.909,7.909,0,0,0,2.342-8.023,10.467,10.467,0,0,0-7.142-7.1,7.793,7.793,0,0,0-7.881,2.411h0c-8.516,8.71-18,17.862-29.01,27.979a1.946,1.946,0,0,1-3.1-2.22c1.613-3.648,3.274-7.273,4.934-10.9,2.685-5.858,5.459-11.917,7.971-17.958,4.992-12.012,9.4-25.7,4.2-36.1-3.023-6.053-7.189-9.378-12.734-10.166-13.819-1.955-33.256,12.932-42.939,23.425-1.031,1.119-2.025,2.278-3.021,3.436l-.755.879a1.946,1.946,0,0,1-3.274-2.008c4.179-10.232,8.173-21.172,7.158-32.481-.545-6.062-3.132-10.448-7.483-12.683-5.076-2.605-11.9-1.926-18.253,1.813-12.924,7.607-23.436,20.7-32.872,33.717-2.983,4.113-1.14,7.691,1.578,9.667,3.681,2.677,9.432,2.992,12.845-1.687a140.545,140.545,0,0,1,13.926-16.292,1.945,1.945,0,0,1,3.086,2.3q-1.1,2.017-2.222,4.021A297.666,297.666,0,0,0,151.546,248.2l-.874,2.012c-7.368,16.94-17.458,40.141-8.57,57.285,4.317,8.331,14.535,9.144,22.4,5.652,9.811-4.36,16.981-13.428,23.913-22.2q1.345-1.7,2.669-3.358c5.928-7.374,11.444-15.247,16.78-22.862q2.878-4.109,5.784-8.21l.553-.772a144.817,144.817,0,0,1,9.383-12.226l.175-.189A2.122,2.122,0,0,1,225.279,242.678Zm38.561,12.681h0Z" transform="translate(-130.608 -182.47)"/>
              </g>
              <path id="Trazado_150645" data-name="Trazado 150645" d="M144.327,221.384c-7.169,14.4-11.212,31.29-4.916,46.775.932,2.288,4.7,1.288,3.753-1.035-5.913-14.539-2.22-30.228,4.523-43.777C148.8,221.112,145.444,219.139,144.327,221.384Z" transform="translate(-125.236 -146.609)"/>
              <path id="Trazado_150646" data-name="Trazado 150646" d="M146.363,247.131c-.033,0-.064-.014-.1-.019-.054-.107-.105-.22-.123-.251l-.008-.012c0-.016,0-.006,0-.029-.251-.868-.432-1.749-.621-2.632q-.662-3.079-1.321-6.158a1.96,1.96,0,0,0-2.395-1.358,1.991,1.991,0,0,0-1.358,2.393l1.494,6.963c.416,1.934,1.08,4.469,3.395,4.856a2,2,0,0,0,2.393-1.36A1.969,1.969,0,0,0,146.363,247.131Z" transform="translate(-121.363 -131.291)" fill="#ffd947"/>
              <path id="Trazado_150647" data-name="Trazado 150647" d="M190.26,199.472c-2.208-1.179-4.177,2.179-1.963,3.36,3.055,1.63,3.985,4.95,4.107,8.208a56.287,56.287,0,0,1-.877,11.156,74.027,74.027,0,0,1-6.753,20.9c-1.113,2.235,2.243,4.208,3.36,1.963a77.944,77.944,0,0,0,7.553-24.613C196.6,213.432,197.7,203.441,190.26,199.472Z" transform="translate(-79.603 -166.626)"/>
            </g>
          </g>
        </g>
        <g id="Grupo_165775" data-name="Grupo 165775" transform="matrix(0.559, -0.829, 0.829, 0.559, -406.641, 1540.819)">
          <g id="Grupo_165771" data-name="Grupo 165771" transform="translate(140.992 192.854)" style="mix-blend-mode: overlay;isolation: isolate">
            <path id="Trazado_150648" data-name="Trazado 150648" d="M429.465,345.525c-21.1,21.591-42.906,42.389-65.127,62.819,9.609-21.722,19.966-43.1,29.088-65.048,10.34-24.884,22.362-58.8,9.324-84.9-29.71-59.495-104.814-1.117-132.452,28.83-2.943,3.193-5.755,6.525-8.6,9.819,9.876-24.183,18.766-49.032,16.419-75.16-3.228-35.925-36.161-44.544-64.514-27.849-30.446,17.921-54.9,48.932-75.318,77.1-17.343,23.921,22.34,46.694,39.547,23.115a311.067,311.067,0,0,1,30.915-36.161q-2.463,4.513-4.979,9.009c-11.093,19.817-22.051,39.713-31.09,60.572C155.368,367.6,129.77,422.889,151.544,464.9c10.975,21.17,36.709,23.321,56.083,14.706,26.045-11.579,44.084-37.142,61.474-58.777,18.153-22.589,34.142-46.576,50.946-70.146,7.02-9.849,14.036-19.839,22.077-28.9.184-.21.377-.4.561-.609l-.2.635c-4.463,13.874-10.2,27.188-16.011,40.536-10.809,24.836-24.753,50.977-28.712,78-3.5,23.894,6.175,50.675,34.913,48.94,27.017-1.629,48.669-27.652,66.73-45.03,21.871-21.048,43.352-42.511,64.838-63.953C486.678,357.915,451.629,322.853,429.465,345.525Z" transform="translate(-129.561 -181.452)" fill="#3c384f"/>
            <path id="Trazado_150649" data-name="Trazado 150649" d="M333.522,497.133c-10.6,0-19.6-3.723-26.15-10.852-9.1-9.911-13.033-26.053-10.524-43.181,3.271-22.331,13.011-43.72,22.427-64.4,2.255-4.953,4.489-9.858,6.6-14.711,2-4.6,4.108-9.438,6.2-14.439q-1.918,2.674-3.8,5.317l-1.244,1.747c-4.366,6.122-8.676,12.271-12.981,18.42-12.092,17.255-24.6,35.1-38.119,51.927-1.975,2.457-3.959,4.966-5.965,7.5-15.508,19.611-33.082,41.837-57.143,52.532-21.451,9.525-49.545,6.858-61.746-16.69-21.928-42.3,1.747-96.734,19.038-136.477l1.962-4.52c5.085-11.741,10.787-23.2,16.835-34.611q-2.1,2.739-4.125,5.518c-10.638,14.575-29.268,14.356-41.141,5.72-9.819-7.143-15.328-20.421-5.492-33.989,21.8-30.065,46.168-60.362,76.645-78.3,16.913-9.954,35.425-11.571,49.532-4.323,12.42,6.381,20.08,19.007,21.564,35.557,1.743,19.41-2.448,37.987-8.522,55.711,22.489-21.972,64.08-53.132,97.447-48.411,15.328,2.177,27.192,11.479,35.263,27.643,13.279,26.583,2.8,59.679-9.2,88.544-5.711,13.743-11.991,27.451-18.065,40.712l-2.15,4.69c18.074-16.949,34.243-32.736,49.081-47.916v0c7.336-7.511,16.655-10.27,26.215-7.787a32.269,32.269,0,0,1,22.327,22.164c2.619,9.657-.057,19.09-7.541,26.557l-2.444,2.435c-20.343,20.3-41.377,41.3-62.451,61.571-2.6,2.5-5.264,5.177-8.014,7.936-16.362,16.4-36.722,36.818-61.488,38.312C335.4,497.106,334.455,497.133,333.522,497.133Zm12.565-176.759a4.134,4.134,0,0,1,2.12.565,4.26,4.26,0,0,1,2.067,4.971l-.206.639c-4.677,14.549-10.778,28.567-16.16,40.935-2.133,4.9-4.388,9.849-6.661,14.842-9.162,20.128-18.639,40.939-21.731,62.044-2.1,14.33,1.086,28.121,8.308,35.986,5.356,5.833,12.749,8.474,22,7.949,21.442-1.3,39.7-19.6,55.816-35.758,2.794-2.8,5.5-5.518,8.141-8.058,21.017-20.22,42.025-41.184,62.342-61.461l2.439-2.435c6.622-6.6,6.521-13.467,5.277-18.061a23.575,23.575,0,0,0-16.077-15.981c-4.533-1.182-11.282-1.191-17.746,5.426v0c-19.169,19.607-40.528,40.208-65.3,62.977a4.38,4.38,0,0,1-6.968-5c3.631-8.211,7.371-16.37,11.111-24.529C380.9,372.239,387.148,358.6,392.8,345c11.242-27.039,21.153-57.84,9.451-81.265-6.8-13.629-16.178-21.113-28.664-22.883-31.107-4.406-74.854,29.106-96.65,52.729-2.326,2.514-4.563,5.124-6.806,7.734l-1.695,1.975a4.379,4.379,0,0,1-7.371-4.515c9.4-23.036,18.394-47.657,16.108-73.12-1.226-13.642-7.051-23.513-16.843-28.545-11.422-5.869-26.78-4.34-41.088,4.077-29.088,17.128-52.755,46.6-74,75.9-6.709,9.258-2.566,17.316,3.552,21.766,8.286,6.022,21.232,6.731,28.913-3.8a317.155,317.155,0,0,1,31.348-36.674,4.381,4.381,0,0,1,6.95,5.19q-2.477,4.533-5.006,9.048c-11.229,20.067-22.046,39.77-30.888,60.174l-1.966,4.528c-16.589,38.132-39.3,90.357-19.3,128.953,9.718,18.748,32.719,20.579,50.416,12.718,22.086-9.814,38.224-30.223,53.828-49.961,2.019-2.549,4.02-5.08,6.013-7.555,13.34-16.6,25.756-34.326,37.768-51.467q6.477-9.249,13.02-18.477l1.244-1.743c6.591-9.254,13.406-18.819,21.127-27.521l.39-.425A4.781,4.781,0,0,1,346.087,320.373Zm86.8,28.541h0Z" transform="translate(-132.979 -184.841)" fill="#3c384f"/>
            <path id="Trazado_150650" data-name="Trazado 150650" d="M156.751,224.993c-16.134,32.426-25.239,70.439-11.063,105.291,2.093,5.155,10.568,2.9,8.444-2.33-13.3-32.723-4.993-68.044,10.182-98.542C166.819,224.384,159.265,219.939,156.751,224.993Z" transform="translate(-113.777 -56.676)" fill="#3c384f"/>
            <path id="Trazado_150651" data-name="Trazado 150651" d="M156.21,262.682c-.074-.009-.144-.031-.215-.044-.123-.237-.232-.495-.272-.565l-.022-.026c-.009-.035,0-.009-.009-.061-.565-1.958-.968-3.937-1.4-5.93q-1.485-6.93-2.974-13.861a4.41,4.41,0,0,0-5.387-3.057,4.482,4.482,0,0,0-3.061,5.387q1.682,7.837,3.368,15.678c.933,4.349,2.426,10.055,7.638,10.927,2.251.377,4.826-.591,5.387-3.061C159.749,265.954,158.628,263.085,156.21,262.682Z" transform="translate(-99.936 -1.928)" fill="#3c384f"/>
            <path id="Trazado_150652" data-name="Trazado 150652" d="M199.772,202.152c-4.971-2.654-9.4,4.905-4.419,7.563,6.876,3.67,8.973,11.141,9.245,18.481a126.661,126.661,0,0,1-1.975,25.107,166.633,166.633,0,0,1-15.2,47.044c-2.5,5.032,5.049,9.473,7.563,4.419a175.271,175.271,0,0,0,17-55.4C214.049,233.579,216.52,211.091,199.772,202.152Z" transform="translate(49.316 -128.217)" fill="#3c384f"/>
          </g>
          <g id="Grupo_165774" data-name="Grupo 165774" transform="translate(130.608 182.47)">
            <g id="Grupo_165773" data-name="Grupo 165773">
              <g id="Grupo_165772" data-name="Grupo 165772">
                <path id="Trazado_150653" data-name="Trazado 150653" d="M427.1,343.155c-21.1,21.591-42.906,42.389-65.131,62.815,9.608-21.718,19.97-43.1,29.093-65.044,10.34-24.884,22.357-58.8,9.324-84.9-29.71-59.495-104.814-1.121-132.452,28.83-2.947,3.188-5.755,6.521-8.6,9.819,9.871-24.183,18.762-49.032,16.419-75.16-3.228-35.925-36.161-44.544-64.514-27.853-30.45,17.925-54.9,48.936-75.322,77.1-17.343,23.921,22.344,46.694,39.551,23.115a311.46,311.46,0,0,1,30.91-36.166q-2.463,4.513-4.975,9.013c-11.093,19.817-22.051,39.713-31.09,60.568C153,365.228,127.4,420.514,149.176,462.526c10.975,21.17,36.7,23.321,56.083,14.706,26.045-11.579,44.084-37.142,61.474-58.777,18.153-22.589,34.138-46.576,50.942-70.146,7.025-9.849,14.041-19.839,22.077-28.9.184-.206.381-.4.565-.609l-.2.639c-4.463,13.874-10.2,27.188-16.011,40.536-10.813,24.832-24.753,50.973-28.712,78-3.5,23.894,6.175,50.675,34.913,48.94,27.012-1.629,48.665-27.652,66.725-45.03,21.875-21.048,43.357-42.516,64.842-63.958C484.306,355.545,449.257,320.483,427.1,343.155Z" transform="translate(-127.193 -179.082)" fill="#3c3fa7"/>
                <path id="Trazado_150654" data-name="Trazado 150654" d="M331.147,494.757c-10.6,0-19.6-3.718-26.145-10.848-9.1-9.911-13.033-26.053-10.524-43.186,3.267-22.326,13.007-43.716,22.427-64.4,2.251-4.953,4.485-9.854,6.6-14.706,2-4.6,4.108-9.438,6.2-14.439-1.279,1.778-2.544,3.556-3.8,5.317l-1.244,1.743c-4.366,6.123-8.676,12.276-12.985,18.42-12.087,17.259-24.591,35.106-38.114,51.927q-2.963,3.692-5.965,7.506c-15.508,19.607-33.082,41.833-57.143,52.532-21.455,9.525-49.545,6.854-61.746-16.695-21.928-42.3,1.747-96.729,19.033-136.477l1.966-4.515c5.085-11.741,10.787-23.2,16.83-34.611q-2.1,2.739-4.125,5.514c-10.633,14.579-29.264,14.36-41.136,5.724-9.819-7.143-15.328-20.421-5.492-33.989,21.8-30.065,46.168-60.362,76.641-78.3,16.918-9.95,35.425-11.566,49.536-4.318,12.42,6.381,20.076,19,21.564,35.552,1.743,19.41-2.448,37.992-8.527,55.711,22.493-21.967,64.08-53.127,97.447-48.406,15.328,2.177,27.2,11.479,35.268,27.643,13.274,26.583,2.8,59.674-9.2,88.544-5.711,13.738-11.991,27.45-18.065,40.707l-2.15,4.69c18.074-16.944,34.243-32.732,49.081-47.911h0c7.336-7.511,16.655-10.265,26.215-7.782a32.254,32.254,0,0,1,22.322,22.164c2.623,9.657-.053,19.086-7.537,26.553l-2.444,2.439c-20.343,20.3-41.377,41.294-62.451,61.571-2.6,2.5-5.264,5.177-8.019,7.936-16.357,16.4-36.717,36.818-61.483,38.312C333.025,494.731,332.084,494.757,331.147,494.757ZM343.711,318a4.128,4.128,0,0,1,2.12.569,4.255,4.255,0,0,1,2.072,4.971l-.206.639c-4.677,14.544-10.778,28.567-16.16,40.935-2.133,4.9-4.388,9.845-6.661,14.842-9.166,20.128-18.643,40.939-21.735,62.04-2.1,14.33,1.086,28.12,8.312,35.99,5.352,5.829,12.749,8.474,22,7.949,21.442-1.3,39.7-19.6,55.812-35.758,2.794-2.8,5.509-5.522,8.146-8.058,21.017-20.22,42.025-41.184,62.342-61.461l2.439-2.439c6.617-6.6,6.521-13.462,5.273-18.061a23.561,23.561,0,0,0-16.077-15.976c-4.528-1.182-11.277-1.191-17.741,5.426h0c-19.169,19.607-40.527,40.208-65.3,62.981a4.38,4.38,0,0,1-6.968-5c3.631-8.212,7.371-16.37,11.106-24.534,6.044-13.186,12.289-26.824,17.943-40.422,11.238-27.039,21.153-57.84,9.451-81.27-6.806-13.625-16.182-21.109-28.664-22.883-31.107-4.4-74.858,29.11-96.655,52.729-2.321,2.518-4.559,5.128-6.8,7.734l-1.7,1.979a4.381,4.381,0,0,1-7.371-4.52c9.407-23.032,18.4-47.657,16.112-73.115-1.226-13.646-7.051-23.518-16.843-28.55-11.426-5.864-26.78-4.336-41.088,4.082-29.093,17.124-52.755,46.6-74,75.9-6.714,9.258-2.566,17.312,3.552,21.762,8.286,6.026,21.232,6.736,28.913-3.8a316.369,316.369,0,0,1,31.348-36.674,4.378,4.378,0,0,1,6.946,5.185q-2.477,4.539-5,9.052c-11.233,20.067-22.046,39.77-30.893,60.174l-1.966,4.528c-16.585,38.132-39.3,90.357-19.292,128.949,9.718,18.753,32.719,20.583,50.416,12.722,22.086-9.814,38.224-30.227,53.828-49.961q3.028-3.83,6.009-7.559c13.344-16.6,25.76-34.322,37.773-51.463q6.477-9.249,13.02-18.481l1.244-1.739c6.591-9.254,13.406-18.823,21.122-27.521l.394-.425A4.776,4.776,0,0,1,343.711,318Zm86.8,28.545h0Z" transform="translate(-130.608 -182.47)"/>
              </g>
              <path id="Trazado_150655" data-name="Trazado 150655" d="M154.382,222.622c-16.138,32.426-25.239,70.435-11.067,105.291,2.1,5.15,10.572,2.9,8.448-2.33-13.309-32.728-5-68.044,10.182-98.542C164.446,222.009,156.9,217.568,154.382,222.622Z" transform="translate(-111.408 -54.305)"/>
              <path id="Trazado_150656" data-name="Trazado 150656" d="M153.839,260.311c-.074-.009-.144-.031-.215-.044-.123-.241-.236-.495-.276-.565l-.017-.026c-.009-.035,0-.013-.009-.066-.565-1.953-.972-3.937-1.4-5.925q-1.491-6.931-2.974-13.861a4.413,4.413,0,0,0-5.391-3.057,4.481,4.481,0,0,0-3.057,5.387l3.363,15.674c.937,4.353,2.431,10.06,7.642,10.931,2.251.372,4.826-.591,5.387-3.061C157.378,263.583,156.253,260.714,153.839,260.311Z" transform="translate(-97.565 0.444)"/>
              <path id="Trazado_150657" data-name="Trazado 150657" d="M197.4,199.781c-4.971-2.654-9.4,4.9-4.419,7.563,6.876,3.67,8.969,11.141,9.245,18.477a126.7,126.7,0,0,1-1.975,25.112,166.633,166.633,0,0,1-15.2,47.044c-2.5,5.032,5.05,9.473,7.563,4.419a175.451,175.451,0,0,0,17-55.4C211.68,231.2,214.15,208.715,197.4,199.781Z" transform="translate(51.686 -125.846)"/>
            </g>
          </g>
        </g>
      </g>
    </g>
  </g>
</svg>
